<?xml version="1.0" encoding="UTF-8" standalone="no"?><svg xmlns="http://www.w3.org/2000/svg" xmlns:xlink="http://www.w3.org/1999/xlink" clip-rule="evenodd" stroke-miterlimit="10" viewBox="0 0 31 30"><desc>SVG generated by Keynote</desc><defs></defs><g transform="matrix(1.00, 0.00, -0.00, -1.00, 0.0, 30.0)"><path d="M 18.1 15.6 C 18.1 15.8 17.6 16.3 17.7 16.4 M 18.1 15.6 C 16.7 16.2 16.2 17.0 15.5 18.0 C 14.8 19.2 16.4 18.1 16.8 18.3 C 16.2 20.0 15.6 19.9 14.7 19.4 C 15.1 20.2 13.0 21.5 14.3 21.6 C 15.7 19.1 13.6 23.7 15.5 21.7 C 15.8 21.5 15.7 22.3 15.6 22.6 C 16.5 21.9 16.2 23.6 17.3 22.4 C 18.2 22.5 17.7 22.6 18.8 21.9 C 19.1 21.5 18.7 21.6 18.6 21.5 C 17.7 21.1 19.7 20.5 19.5 19.6 C 21.2 19.0 20.1 18.1 19.2 18.7 C 19.7 18.0 21.5 17.2 21.0 16.5 C 21.9 16.0 22.4 14.1 20.9 15.4 C 19.9 16.2 20.0 15.4 19.7 15.3 C 19.3 15.6 19.2 16.6 18.8 16.7 C 18.8 16.4 18.9 15.2 18.3 16.5 C 18.0 16.1 17.4 16.8 18.1 15.6 C 18.1 15.6 18.1 15.6 18.1 15.6 Z M 15.0 20.0 C 14.7 19.9 15.2 19.6 15.0 20.0 C 15.0 20.0 15.0 20.0 15.0 20.0 Z M 21.3 17.1 C 21.0 17.1 21.6 16.5 21.3 17.1 C 21.3 17.1 21.3 17.1 21.3 17.1 Z M 18.7 21.3 C 18.4 21.2 19.0 20.7 18.7 21.3 C 18.7 21.3 18.7 21.3 18.7 21.3 Z M 15.8 18.9 C 16.5 18.2 16.0 19.6 15.6 19.6 C 15.7 19.5 15.4 19.0 15.8 18.9 C 15.8 18.9 15.8 18.9 15.8 18.9 Z M 17.8 19.1 C 17.7 19.0 17.8 18.7 18.1 18.7 C 18.1 19.0 17.9 19.2 17.8 19.1 C 17.8 19.1 17.8 19.1 17.8 19.1 Z M 14.5 22.4 C 14.5 22.3 14.6 22.0 14.8 22.2 C 14.8 22.4 14.6 22.5 14.5 22.4 C 14.5 22.4 14.5 22.4 14.5 22.4 Z M 17.1 18.2 C 17.3 18.0 17.6 18.0 17.5 18.2 C 17.3 18.3 17.0 18.8 17.1 18.2 C 17.1 18.2 17.1 18.2 17.1 18.2 Z M 16.5 17.0 C 17.0 16.5 16.9 17.7 16.8 17.6 C 16.4 17.8 16.1 17.3 16.5 17.0 C 16.5 17.0 16.5 17.0 16.5 17.0 Z M 17.8 17.9 C 18.2 17.3 17.9 18.1 17.8 17.9 C 17.8 17.9 17.8 17.9 17.8 17.9 Z M 16.9 22.9 C 17.4 22.4 17.0 23.3 16.9 22.9 C 16.9 22.9 16.9 22.9 16.9 22.9 Z M 19.6 20.0 C 20.1 19.4 19.7 20.3 19.6 20.0 C 19.6 20.0 19.6 20.0 19.6 20.0 Z M 15.7 20.3 C 15.3 21.2 14.9 20.2 15.7 20.3 C 15.7 20.3 15.7 20.3 15.7 20.3 Z M 17.1 15.8 C 16.7 16.6 16.1 16.0 17.1 15.8 C 17.1 15.8 17.1 15.8 17.1 15.8 Z M 16.4 21.3 C 17.0 21.9 16.5 18.8 15.8 20.2 C 15.0 20.8 13.9 18.6 15.2 19.0 C 15.0 18.4 15.1 18.4 14.4 18.1 C 15.1 18.0 14.9 16.6 14.2 16.2 C 13.3 15.8 14.6 17.0 13.3 16.2 C 12.1 14.4 12.6 16.3 11.2 15.5 C 11.1 15.4 11.6 15.4 11.2 15.2 C 10.2 15.0 10.3 16.2 9.2 15.6 C 9.6 15.9 9.5 17.6 9.9 16.9 C 10.6 16.7 9.9 18.8 11.1 18.5 C 10.8 19.1 11.9 19.6 11.5 20.2 C 11.6 20.7 12.2 20.5 12.4 20.4 C 12.9 20.3 11.3 21.3 12.7 21.6 C 12.4 21.8 13.5 23.6 13.2 22.1 C 13.3 22.5 14.2 24.6 14.6 23.1 C 14.4 21.6 16.3 23.9 15.6 22.4 C 15.1 21.2 14.8 21.1 15.7 21.7 C 15.8 22.0 16.6 23.2 16.5 21.9 C 16.2 21.8 16.1 21.2 16.4 21.3 C 16.4 21.3 16.4 21.3 16.4 21.3 Z M 15.0 22.1 C 14.6 21.4 15.4 21.9 15.0 22.1 C 15.0 22.1 15.0 22.1 15.0 22.1 Z M 11.2 20.2 C 10.7 19.4 11.6 20.0 11.2 20.2 C 11.2 20.2 11.2 20.2 11.2 20.2 Z M 15.7 19.4 C 15.2 19.1 16.4 18.9 15.7 19.4 C 15.7 19.4 15.7 19.4 15.7 19.4 Z M 12.8 21.2 C 12.8 21.2 13.0 21.3 13.1 21.4 C 13.1 21.4 12.8 21.3 12.8 21.2 C 12.8 21.2 12.8 21.2 12.8 21.2 Z M 15.2 18.4 C 14.2 17.6 16.1 18.1 15.2 18.4 C 15.2 18.4 15.2 18.4 15.2 18.4 Z M 13.1 16.7 C 11.7 16.5 12.8 15.7 13.1 16.7 C 13.1 16.7 13.1 16.7 13.1 16.7 Z M 11.0 18.2 C 11.4 18.3 11.0 18.4 11.0 18.2 C 11.0 18.2 11.0 18.2 11.0 18.2 Z M 13.5 23.1 C 13.8 23.2 13.4 23.4 13.5 23.1 C 13.5 23.1 13.5 23.1 13.5 23.1 Z M 10.4 16.8 C 10.9 16.8 10.4 17.2 10.4 16.8 C 10.4 16.8 10.4 16.8 10.4 16.8 Z M 15.2 19.3 C 16.5 19.9 14.4 20.7 15.2 19.3 C 15.2 19.3 15.2 19.3 15.2 19.3 Z M 16.0 20.7 C 16.5 21.2 15.4 20.8 15.4 20.5 C 15.5 20.5 15.9 20.6 16.0 20.7 C 16.0 20.7 16.0 20.7 16.0 20.7 Z M 14.6 18.5 C 15.4 18.9 14.6 19.0 14.6 18.5 C 14.6 18.5 14.6 18.5 14.6 18.5 Z M 15.9 19.8 C 15.9 20.0 15.6 19.6 15.9 19.8 C 15.9 19.8 15.9 19.8 15.9 19.8 Z M 15.1 17.3 C 15.1 17.6 14.8 17.1 15.1 17.3 C 15.1 17.3 15.1 17.3 15.1 17.3 Z M 16.8 21.2 C 16.9 21.5 16.6 21.0 16.8 21.2 C 16.8 21.2 16.8 21.2 16.8 21.2 Z M 14.5 17.6 C 14.0 17.5 13.5 18.4 13.5 16.9 C 13.7 16.6 14.7 17.2 14.5 17.6 C 14.5 17.6 14.5 17.6 14.5 17.6 Z M 19.0 13.9 C 16.2 16.5 19.1 15.8 19.5 15.9 C 20.0 16.2 20.7 15.8 21.5 15.1 C 23.6 14.2 20.3 14.4 22.3 13.7 C 25.1 12.3 20.6 13.2 23.4 12.2 C 24.0 12.2 24.1 11.1 23.9 11.2 C 25.5 10.2 23.7 10.1 23.4 10.1 C 24.0 9.6 26.6 8.6 25.4 8.0 C 25.2 7.4 28.1 5.7 26.1 6.8 C 28.6 5.1 25.8 6.6 26.8 5.6 C 28.3 4.4 25.0 6.4 27.8 4.4 C 26.2 5.0 28.7 4.2 28.8 2.4 C 28.3 3.2 28.1 2.9 28.2 2.5 C 27.8 2.5 27.6 2.4 28.3 2.1 C 30.6 1.3 26.4 2.5 25.6 2.0 C 24.7 2.4 22.0 3.4 23.3 2.3 C 22.9 1.0 21.2 3.1 21.4 2.0 C 21.2 1.5 20.4 2.5 20.1 2.4 C 20.0 1.6 19.2 2.2 17.4 1.9 C 13.1 1.5 16.5 4.0 15.3 4.3 C 15.1 4.7 16.1 7.4 16.0 5.4 C 16.1 5.9 19.0 3.8 16.9 6.0 C 18.0 5.2 16.5 6.9 18.2 5.9 C 16.6 4.3 21.0 5.3 18.4 6.0 C 18.3 6.5 19.1 6.4 18.9 6.0 C 19.8 4.6 19.4 6.7 20.5 4.9 C 21.3 5.4 22.8 3.9 21.9 5.0 C 19.8 6.8 22.4 4.5 22.4 5.0 C 24.1 5.0 19.8 7.1 22.6 5.7 C 22.6 5.8 22.6 5.8 22.6 5.8 C 20.8 7.7 24.0 5.1 24.1 5.4 C 26.1 4.4 21.7 7.9 22.0 6.9 C 22.8 6.9 21.0 7.6 21.9 7.5 C 24.1 6.0 19.5 9.3 21.1 8.4 C 21.2 8.8 22.5 7.9 22.4 8.1 C 21.9 9.1 20.3 9.6 21.5 9.2 C 22.1 9.1 19.6 10.5 20.1 10.4 C 20.7 9.4 21.5 10.4 20.6 10.9 C 20.7 10.3 18.2 11.9 19.3 11.8 C 23.2 10.1 18.0 12.9 19.0 12.9 C 21.2 12.0 18.2 14.9 17.8 14.2 C 17.9 14.2 19.0 13.9 19.0 13.9 M 20.3 10.5 C 20.9 9.7 20.3 11.2 20.3 10.5 M 19.7 10.7 C 20.6 10.1 18.9 11.6 19.5 10.8 C 19.5 10.8 19.7 10.8 19.7 10.7 M 21.3 7.7 C 21.9 7.5 20.7 8.3 21.3 7.7 M 23.0 6.4 C 23.9 5.5 22.8 7.0 23.0 6.4 M 17.4 5.5 C 19.3 3.4 17.4 6.7 17.4 5.5 M 21.3 5.9 C 22.5 5.6 19.9 6.8 21.3 5.9 M 22.3 5.4 C 23.2 5.1 21.7 5.9 22.3 5.4 M 18.7 5.5 C 18.7 5.5 18.7 5.5 18.7 5.5 C 18.7 5.5 18.7 5.5 18.7 5.5 Z M 16.7 5.4 C 16.7 5.5 16.7 5.5 16.7 5.4 C 16.7 5.4 16.7 5.4 16.7 5.4 Z M 20.9 5.3 C 20.9 5.8 19.7 5.5 20.9 5.3 C 20.9 5.3 20.9 5.3 20.9 5.3 Z M 19.2 2.2 C 19.3 2.2 19.3 2.2 19.2 2.2 C 19.2 2.2 19.2 2.2 19.2 2.2 Z M 21.4 10.6 C 21.4 10.6 21.4 10.6 21.4 10.6 C 21.4 10.6 21.4 10.6 21.4 10.6 Z M 19.0 13.4 C 19.3 13.3 18.4 13.9 19.0 13.4 C 19.0 13.4 19.0 13.4 19.0 13.4 Z M 20.9 14.9 C 20.9 15.0 20.9 15.0 20.9 14.9 C 20.9 14.9 20.9 14.9 20.9 14.9 Z M 22.5 10.9 C 22.5 10.9 22.5 10.9 22.5 10.9 C 22.5 10.9 22.5 10.9 22.5 10.9 Z M 20.5 11.3 C 18.6 12.2 21.4 10.2 20.5 11.3 C 20.5 11.3 20.5 11.3 20.5 11.3 Z M 25.6 2.3 C 24.9 2.8 24.9 2.1 25.6 2.3 C 25.6 2.3 25.6 2.3 25.6 2.3 Z M 23.8 5.8 C 23.5 6.0 24.2 5.3 23.8 5.8 C 23.8 5.8 23.8 5.8 23.8 5.8 Z M 20.6 8.5 C 20.2 8.6 21.0 8.1 20.6 8.5 C 20.6 8.5 20.6 8.5 20.6 8.5 Z M 18.6 13.5 C 18.5 13.4 18.5 13.4 18.6 13.5 C 18.6 13.5 18.6 13.5 18.6 13.5 Z M 20.2 12.3 C 18.4 13.3 21.5 11.0 20.2 12.3 C 20.2 12.3 20.2 12.3 20.2 12.3 Z M 20.0 13.2 C 20.8 12.8 19.4 14.1 20.0 13.2 M 22.6 12.0 C 22.4 11.3 24.7 12.2 22.6 12.0 C 22.6 12.0 22.6 12.0 22.6 12.0 Z M 25.6 7.2 C 25.7 7.1 25.7 7.1 25.6 7.2 C 25.6 7.2 25.6 7.2 25.6 7.2 Z M 20.6 9.8 C 21.0 9.1 20.8 10.0 20.6 9.8 C 20.6 9.8 20.6 9.8 20.6 9.8 Z M 17.5 15.2 C 17.8 14.6 17.6 15.6 17.5 15.2 C 17.5 15.2 17.5 15.2 17.5 15.2 Z M 25.4 5.5 C 25.7 4.4 25.9 5.7 25.4 5.5 C 25.4 5.5 25.4 5.5 25.4 5.5 Z M 21.8 4.8 C 21.8 4.8 21.8 4.8 21.8 4.8 C 21.8 4.8 21.8 4.8 21.8 4.8 Z M 20.5 5.3 C 20.5 5.3 20.5 5.3 20.5 5.3 C 20.5 5.3 20.5 5.3 20.5 5.3 Z M 18.0 4.2 C 18.0 4.1 18.0 4.1 18.0 4.2 C 18.0 4.2 18.0 4.2 18.0 4.2 Z M 19.4 5.8 C 19.4 5.8 19.4 5.8 19.4 5.8 C 19.4 5.8 19.4 5.8 19.4 5.8 Z M 17.7 5.5 C 17.7 5.5 17.7 5.5 17.7 5.5 C 17.7 5.5 17.7 5.5 17.7 5.5 Z M 17.5 6.5 C 17.4 6.5 17.4 6.5 17.5 6.5 C 17.5 6.5 17.5 6.5 17.5 6.5 Z M 28.2 1.7 C 28.1 1.6 28.1 1.6 28.2 1.7 C 28.2 1.7 28.2 1.7 28.2 1.7 Z M 18.6 12.5 C 18.8 12.4 18.8 12.4 18.6 12.5 C 18.6 12.5 18.6 12.5 18.6 12.5 Z M 18.1 5.1 C 18.1 5.1 18.1 5.1 18.1 5.1 C 18.1 5.1 18.1 5.1 18.1 5.1 Z M 24.7 4.2 C 26.2 3.3 23.2 5.5 24.5 4.3 C 24.6 4.2 24.5 4.4 24.7 4.2 M 26.1 2.7 C 26.2 2.6 26.2 2.6 26.1 2.7 C 26.1 2.7 26.1 2.7 26.1 2.7 Z M 28.0 3.6 C 28.0 3.6 28.0 3.6 28.0 3.6 C 28.0 3.6 28.0 3.6 28.0 3.6 Z M 19.5 6.0 C 19.1 6.5 19.4 5.6 19.6 6.0 M 18.7 2.5 C 18.6 3.0 18.0 2.1 18.9 2.5 M 17.5 15.9 C 17.9 16.0 17.0 16.3 17.5 15.9 M 28.5 3.8 C 29.0 3.6 27.8 4.6 28.5 3.8 M 27.2 3.5 C 26.3 4.2 28.3 2.4 27.2 3.6 M 21.2 2.6 C 21.1 2.5 21.1 2.5 21.2 2.6 C 21.2 2.6 21.2 2.6 21.2 2.6 Z M 21.3 8.7 C 21.3 8.7 21.3 8.7 21.3 8.7 C 21.3 8.7 21.3 8.7 21.3 8.7 Z M 24.6 4.9 C 23.2 6.0 25.7 3.9 24.6 4.9 M 22.7 8.7 C 21.1 9.9 23.7 7.5 22.7 8.7 M 16.9 2.3 C 17.6 3.4 16.2 1.7 16.9 2.3 M 19.7 5.0 C 19.3 6.1 19.6 4.4 19.7 5.0 M 22.3 7.8 C 21.4 8.3 23.2 6.9 22.3 7.8 M 18.1 14.5 C 17.7 15.1 18.0 13.9 18.1 14.5 M 23.6 2.5 C 23.6 2.5 23.6 2.5 23.6 2.5 C 23.6 2.5 23.6 2.5 23.6 2.5 Z M 24.7 11.0 C 24.8 10.9 24.8 10.9 24.7 11.0 C 24.7 11.0 24.7 11.0 24.7 11.0 Z M 15.5 5.8 C 15.5 5.8 15.5 5.8 15.5 5.8 C 15.5 5.8 15.5 5.8 15.5 5.8 Z M 20.5 4.5 C 20.5 4.4 20.5 4.4 20.5 4.5 C 20.5 4.5 20.5 4.5 20.5 4.5 Z M 16.6 6.0 C 16.5 5.9 16.5 5.9 16.6 6.0 C 16.6 6.0 16.6 6.0 16.6 6.0 Z M 23.9 3.7 C 23.9 3.6 23.9 3.6 23.9 3.7 C 23.9 3.7 23.9 3.7 23.9 3.7 Z M 20.6 6.4 C 20.6 6.4 20.6 6.4 20.6 6.4 C 20.6 6.4 20.6 6.4 20.6 6.4 Z M 23.2 6.0 C 23.2 6.0 23.2 6.0 23.2 6.0 C 23.2 6.0 23.2 6.0 23.2 6.0 Z M 20.1 6.2 C 18.9 6.4 21.8 5.3 20.1 6.2 C 20.1 6.2 20.1 6.2 20.1 6.2 Z M 26.4 3.5 C 26.4 3.4 26.4 3.4 26.4 3.5 C 26.4 3.5 26.4 3.5 26.4 3.5 Z M 23.3 5.4 C 23.3 5.4 23.3 5.4 23.3 5.4 C 21.6 6.1 24.8 4.2 23.5 5.3 C 23.4 5.3 23.4 5.4 23.3 5.4 M 20.5 9.4 C 19.9 9.5 21.5 8.8 20.5 9.4 M 24.9 8.7 C 25.0 8.7 25.0 8.7 24.9 8.7 C 24.9 8.7 24.9 8.7 24.9 8.7 Z M 24.8 8.4 C 24.8 8.3 24.8 8.3 24.8 8.4 C 24.8 8.4 24.8 8.4 24.8 8.4 Z M 19.8 10.3 C 19.8 10.3 19.8 10.3 19.8 10.3 C 19.8 10.3 19.8 10.3 19.8 10.3 Z M 26.3 7.7 C 26.4 7.6 26.4 7.6 26.3 7.7 C 26.3 7.7 26.3 7.7 26.3 7.7 Z M 21.1 6.3 C 21.1 6.3 21.1 6.3 21.1 6.3 C 21.1 6.3 21.1 6.3 21.1 6.3 Z M 16.0 6.4 C 16.0 6.4 16.0 6.4 16.0 6.4 C 16.0 6.4 16.0 6.4 16.0 6.4 Z M 21.9 13.6 C 22.0 13.6 22.0 13.6 21.9 13.6 C 21.9 13.6 21.9 13.6 21.9 13.6 Z M 22.0 5.3 C 22.0 5.2 22.0 5.2 22.0 5.3 C 22.0 5.3 22.0 5.3 22.0 5.3 Z M 24.1 9.9 C 24.2 9.9 24.2 9.9 24.1 9.9 C 24.1 9.9 24.1 9.9 24.1 9.9 Z M 22.1 5.5 C 22.1 5.5 22.1 5.5 22.1 5.5 C 22.1 5.5 22.1 5.5 22.1 5.5 Z M 24.2 2.3 C 24.2 2.3 24.2 2.3 24.2 2.3 C 24.2 2.3 24.2 2.3 24.2 2.3 Z M 22.4 1.7 C 22.4 1.7 22.4 1.7 22.4 1.7 C 22.4 1.7 22.4 1.7 22.4 1.7 Z M 22.2 4.2 C 22.2 4.2 22.2 4.2 22.2 4.2 C 22.2 4.2 22.2 4.2 22.2 4.2 Z M 22.2 11.0 C 19.4 14.1 22.8 9.0 22.2 11.0 M 21.9 4.0 C 23.8 4.2 19.2 5.1 21.9 4.0 C 21.3 4.3 21.8 4.0 21.9 4.0 M 15.0 6.3 C 15.7 5.3 15.7 4.3 15.3 3.3 C 14.7 2.7 14.9 4.8 14.7 3.1 C 16.0 2.7 13.7 0.5 14.2 2.7 C 12.6 3.0 13.6 1.3 12.7 2.2 C 10.9 2.4 11.5 1.7 10.0 1.9 C 10.1 3.1 8.7 1.3 9.2 2.4 C 9.0 1.2 8.0 2.8 7.4 2.2 C 8.1 1.4 2.2 2.2 6.2 2.5 C 5.6 3.1 4.4 2.1 3.7 1.9 C 4.0 2.4 2.9 2.1 1.9 2.0 C 1.9 2.3 2.0 2.6 2.7 3.2 C 2.9 3.3 2.8 3.0 3.2 3.1 C 3.8 3.4 3.4 3.8 3.4 3.7 C 4.1 4.4 6.2 6.7 3.1 3.8 C 2.1 3.1 4.4 5.6 3.5 5.1 C 4.4 6.8 5.6 6.4 4.6 6.5 C 5.2 7.7 5.6 8.5 5.9 8.6 C 6.1 9.2 5.2 9.0 6.5 10.0 C 5.5 11.0 10.4 12.1 7.2 11.6 C 8.3 12.2 6.3 12.1 8.3 12.5 C 7.1 11.8 8.1 14.8 8.8 13.7 C 9.5 14.1 8.1 15.7 9.8 15.6 C 11.6 16.3 12.9 16.3 13.6 15.3 C 12.5 15.3 14.2 14.4 12.7 14.8 C 12.5 15.8 10.9 12.8 12.0 13.6 C 14.5 14.3 9.7 11.7 11.2 11.7 C 10.4 11.9 8.6 9.3 11.0 10.8 C 11.0 10.4 9.9 9.9 10.9 10.0 C 11.4 11.2 8.4 8.5 9.8 9.1 C 10.7 9.7 10.3 8.2 9.2 7.7 C 6.5 6.9 9.5 7.5 8.1 6.5 C 6.8 5.0 10.9 8.2 8.2 6.1 C 8.3 6.1 8.2 5.9 8.2 5.7 C 8.8 5.9 9.3 5.9 9.2 6.2 C 8.5 6.0 6.9 4.1 9.4 5.7 C 9.4 6.7 11.6 6.2 10.6 5.7 C 6.8 4.8 12.3 4.7 11.1 5.6 C 12.8 6.5 11.1 6.0 12.0 5.6 C 11.4 5.1 12.2 4.6 12.6 5.6 C 13.7 7.2 11.8 3.5 13.8 5.7 C 14.2 6.6 15.3 5.0 14.8 6.0 C 14.8 6.1 15.0 6.3 15.0 6.3 M 14.6 6.1 C 14.7 5.8 14.9 6.5 14.6 6.1 M 14.7 5.8 C 14.7 5.8 14.7 5.8 14.7 5.8 C 14.7 5.8 14.7 5.8 14.7 5.8 Z M 12.2 5.5 C 12.2 5.6 12.2 5.6 12.2 5.5 C 12.2 5.5 12.2 5.5 12.2 5.5 Z M 5.6 1.6 C 5.7 1.6 5.7 1.6 5.6 1.6 C 5.6 1.6 5.6 1.6 5.6 1.6 Z M 10.4 5.4 C 10.4 5.4 10.4 5.4 10.4 5.4 C 10.4 5.4 10.4 5.4 10.4 5.4 Z M 12.9 5.3 C 12.9 5.3 12.9 5.3 12.9 5.3 C 12.9 5.3 12.9 5.3 12.9 5.3 Z M 11.1 6.0 C 10.4 5.4 12.1 6.4 11.2 6.1 C 11.2 6.1 11.3 6.1 11.1 6.0 M 9.6 6.2 C 9.4 6.2 9.4 6.2 9.6 6.2 M 4.4 7.4 C 4.3 7.4 4.3 7.4 4.4 7.4 M 11.5 10.7 C 11.4 10.7 11.4 10.7 11.5 10.7 M 8.9 7.2 C 9.4 8.0 8.5 7.2 8.9 7.2 M 11.9 12.3 C 12.0 11.7 12.8 13.3 11.9 12.3 M 12.8 13.2 C 12.8 13.3 12.8 13.3 12.8 13.2 M 10.5 9.4 C 10.4 9.4 10.4 9.4 10.5 9.4 C 10.5 9.4 10.5 9.4 10.5 9.4 Z M 9.1 7.2 C 9.2 6.6 10.4 8.5 9.1 7.2 M 12.3 6.1 C 12.1 6.4 11.7 5.3 12.3 6.1 M 13.0 5.8 C 13.0 5.7 13.0 5.7 13.0 5.8 C 13.0 5.8 13.0 5.8 13.0 5.8 Z M 11.3 11.0 C 11.2 10.9 11.2 10.9 11.3 11.0 C 11.3 11.0 11.3 11.0 11.3 11.0 Z M 11.9 12.0 C 11.9 11.9 11.9 11.9 11.9 12.0 C 11.9 12.0 11.9 12.0 11.9 12.0 Z M 7.1 12.2 C 7.1 12.1 7.1 12.1 7.1 12.2 C 7.1 12.2 7.1 12.2 7.1 12.2 Z M 11.0 3.9 C 12.0 4.3 11.3 5.4 10.6 4.3 C 10.1 3.9 10.9 4.1 11.0 3.9 M 6.6 5.3 C 4.3 4.1 9.6 6.6 6.6 5.3 M 11.6 13.0 C 9.7 13.2 12.8 12.7 11.6 13.0 M 12.7 14.5 C 12.5 14.8 11.1 11.9 12.8 14.1 C 13.3 14.3 12.9 14.4 12.7 14.5 M 8.4 5.5 C 6.9 4.7 9.9 5.9 8.4 5.5 M 6.0 7.4 C 7.0 8.1 8.2 9.4 6.7 8.4 C 5.0 7.7 5.1 6.6 6.0 7.4 M 14.2 5.3 C 14.1 6.6 13.9 4.2 14.2 5.3 M 11.4 5.2 C 11.5 5.2 11.5 5.2 11.4 5.2 C 11.4 5.2 11.4 5.2 11.4 5.2 Z M 10.6 5.4 C 10.4 5.3 10.4 5.3 10.6 5.4 M 14.2 6.4 C 14.1 6.3 14.1 6.3 14.2 6.4 M 8.1 8.3 C 7.9 8.3 7.9 8.3 8.1 8.3 M 8.2 6.7 C 6.8 6.7 7.5 5.9 8.2 6.7 M 5.0 2.8 C 3.6 2.2 5.9 2.8 5.0 2.8 M 9.9 8.8 C 8.4 8.7 7.5 6.9 9.9 8.8 M 8.2 6.3 C 8.2 6.4 8.2 6.4 8.2 6.3 C 8.2 6.3 8.2 6.3 8.2 6.3 Z M 6.0 7.6 C 6.0 7.6 6.0 7.6 6.0 7.6 C 6.0 7.6 6.0 7.6 6.0 7.6 Z M 6.3 8.0 C 6.2 8.0 6.2 8.0 6.3 8.0 C 6.3 8.0 6.3 8.0 6.3 8.0 Z M 10.5 9.8 C 10.5 9.7 10.5 9.7 10.5 9.8 C 10.5 9.8 10.5 9.8 10.5 9.8 Z M 11.2 2.4 C 9.9 2.3 12.0 2.2 11.2 2.4 C 11.2 2.4 11.2 2.4 11.2 2.4 Z M 10.4 6.0 C 8.0 5.0 10.2 5.1 10.4 6.0 C 10.4 6.0 10.4 6.0 10.4 6.0 Z M 6.8 4.4 C 6.7 4.3 6.7 4.3 6.8 4.4 C 6.8 4.4 6.8 4.4 6.8 4.4 Z M 10.8 8.9 C 10.7 8.9 10.7 8.9 10.8 8.9 C 10.8 8.9 10.8 8.9 10.8 8.9 Z M 10.5 2.2 C 10.4 2.1 10.4 2.1 10.5 2.2 C 10.5 2.2 10.5 2.2 10.5 2.2 Z M 10.7 11.4 C 10.6 11.4 10.6 11.4 10.7 11.4 C 10.7 11.4 10.7 11.4 10.7 11.4 Z M 4.4 5.1 C 5.4 5.8 3.9 4.8 4.4 5.1 C 4.4 5.1 4.4 5.1 4.4 5.1 Z M 5.1 6.4 C 5.2 6.4 5.2 6.4 5.1 6.4 C 5.1 6.4 5.1 6.4 5.1 6.4 Z M 13.1 13.5 C 13.1 13.5 13.1 13.5 13.1 13.5 C 13.1 13.5 13.1 13.5 13.1 13.5 Z M 5.3 9.2 C 5.4 9.3 5.4 9.3 5.3 9.2 C 5.3 9.2 5.3 9.2 5.3 9.2 Z M 7.9 11.0 C 7.9 11.0 7.9 11.0 7.9 11.0 C 7.9 11.0 7.9 11.0 7.9 11.0 Z M 10.0 9.4 C 10.9 10.6 9.0 8.7 10.0 9.4 C 10.0 9.4 10.0 9.4 10.0 9.4 Z M 10.1 14.4 C 10.1 14.4 10.1 14.4 10.1 14.4 C 10.1 14.4 10.1 14.4 10.1 14.4 Z M 12.5 15.3 C 12.4 15.3 12.4 15.3 12.5 15.3 C 12.5 15.3 12.5 15.3 12.5 15.3 Z M 13.7 15.7 C 13.7 15.7 13.7 15.7 13.7 15.7 C 13.7 15.7 13.7 15.7 13.7 15.7 Z M 8.7 3.6 C 8.8 3.6 8.8 3.6 8.7 3.6 C 8.7 3.6 8.7 3.6 8.7 3.6 Z M 11.9 6.3 C 11.9 6.3 11.9 6.3 11.9 6.3 C 11.9 6.3 11.9 6.3 11.9 6.3 Z M 10.9 6.4 C 10.9 6.4 10.9 6.4 10.9 6.4 C 10.9 6.4 10.9 6.4 10.9 6.4 Z M 7.5 1.9 C 7.5 1.9 7.5 1.9 7.5 1.9 C 7.5 1.9 7.5 1.9 7.5 1.9 Z M 7.0 6.6 C 7.0 6.7 7.0 6.7 7.0 6.6 C 7.0 6.6 7.0 6.6 7.0 6.6 Z M 5.6 6.4 C 5.6 6.4 5.6 6.4 5.6 6.4 C 5.6 6.4 5.6 6.4 5.6 6.4 Z M 2.4 3.5 C 2.4 3.6 2.4 3.6 2.4 3.5 C 2.4 3.5 2.4 3.5 2.4 3.5 Z M 4.4 6.1 C 4.4 6.1 4.4 6.1 4.4 6.1 C 4.4 6.1 4.4 6.1 4.4 6.1 Z M 13.9 2.4 C 13.9 2.4 13.9 2.4 13.9 2.4 C 13.9 2.4 13.9 2.4 13.9 2.4 Z M 14.5 4.5 C 14.5 4.4 14.5 4.4 14.5 4.5 C 14.5 4.5 14.5 4.5 14.5 4.5 Z M 9.4 8.0 C 10.2 8.6 8.8 8.1 9.4 8.0 M 7.9 5.7 C 7.8 5.7 7.8 5.7 7.9 5.7 C 7.9 5.7 7.9 5.7 7.9 5.7 Z M 11.1 11.4 C 10.1 11.3 11.2 10.7 11.1 11.4 C 11.1 11.4 11.1 11.4 11.1 11.4 Z M 5.5 8.3 C 5.5 8.3 5.5 8.3 5.5 8.3 C 5.5 8.3 5.5 8.3 5.5 8.3 Z M 6.4 9.2 C 6.3 9.2 6.3 9.2 6.4 9.2 C 6.4 9.2 6.4 9.2 6.4 9.2 Z M 11.3 13.6 C 11.2 13.6 11.2 13.6 11.3 13.6 M 9.0 6.2 C 9.0 6.2 9.0 6.2 9.0 6.2 C 8.0 5.9 8.2 5.9 9.0 6.2 C 9.0 6.2 9.0 6.2 9.0 6.2 M 11.5 12.1 C 11.4 12.1 11.4 12.1 11.5 12.1 C 11.5 12.1 11.5 12.1 11.5 12.1 Z M 12.2 14.4 C 12.2 14.4 12.2 14.4 12.2 14.4 C 12.2 14.4 12.2 14.4 12.2 14.4 Z M 9.5 5.7 C 8.0 4.7 8.7 4.9 9.5 5.7 M 13.2 5.3 C 13.1 5.3 13.1 5.3 13.2 5.3 C 13.2 5.3 13.2 5.3 13.2 5.3 Z M 13.2 5.3 " fill="#FEFFFE"></path></g></svg>