<?xml version="1.0" encoding="UTF-8" standalone="no"?><svg xmlns="http://www.w3.org/2000/svg" xmlns:xlink="http://www.w3.org/1999/xlink" clip-rule="evenodd" stroke-miterlimit="10" viewBox="0 0 28 30"><desc>SVG generated by Keynote</desc><defs></defs><g transform="matrix(1.00, 0.00, -0.00, -1.00, 0.0, 30.0)"><path d="M 11.7 25.2 C 11.6 25.3 10.9 25.1 10.8 25.3 M 11.7 25.2 C 10.8 24.3 9.8 24.2 8.4 24.0 C 7.0 24.0 8.7 24.9 8.7 25.3 C 6.8 25.6 6.6 25.0 6.7 24.0 C 6.1 24.6 3.9 23.5 4.4 24.7 C 7.5 24.7 2.2 25.0 4.9 25.7 C 5.2 25.9 4.4 26.2 4.1 26.2 C 5.1 26.7 3.5 27.3 5.1 27.7 C 5.3 28.5 5.0 28.1 6.1 28.7 C 6.6 28.8 6.4 28.6 6.3 28.4 C 6.3 27.5 7.6 28.9 8.4 28.3 C 9.5 29.5 9.9 28.1 9.1 27.6 C 9.9 27.7 11.2 29.0 11.7 28.1 C 12.4 28.7 14.3 28.3 12.7 27.6 C 11.7 27.1 12.5 26.7 12.5 26.5 C 12.1 26.2 11.1 26.6 10.8 26.4 C 11.1 26.2 12.4 25.7 10.8 25.8 C 11.2 25.4 10.3 25.1 11.7 25.2 C 11.7 25.2 11.7 25.2 11.7 25.2 Z M 6.3 24.5 C 6.3 24.2 6.8 24.5 6.3 24.5 C 6.3 24.5 6.3 24.5 6.3 24.5 Z M 11.2 28.7 C 11.1 28.4 11.8 28.7 11.2 28.7 C 11.2 28.7 11.2 28.7 11.2 28.7 Z M 6.6 28.4 C 6.5 28.1 7.2 28.4 6.6 28.4 C 6.6 28.4 6.6 28.4 6.6 28.4 Z M 7.7 24.7 C 8.6 25.0 7.1 25.1 6.9 24.8 C 7.1 24.9 7.4 24.4 7.7 24.7 C 7.7 24.7 7.7 24.7 7.7 24.7 Z M 8.2 26.5 C 8.3 26.4 8.6 26.4 8.7 26.7 C 8.4 26.8 8.2 26.6 8.2 26.5 C 8.2 26.5 8.2 26.5 8.2 26.5 Z M 3.8 25.2 C 3.8 25.1 4.2 25.1 4.1 25.4 C 3.9 25.5 3.7 25.3 3.8 25.2 C 3.8 25.2 3.8 25.2 3.8 25.2 Z M 8.8 25.5 C 9.1 25.6 9.2 25.9 9.0 25.9 C 8.8 25.8 8.2 25.7 8.8 25.5 C 8.8 25.5 8.8 25.5 8.8 25.5 Z M 9.8 24.5 C 10.6 24.6 9.3 25.1 9.3 25.0 C 9.0 24.7 9.4 24.2 9.8 24.5 C 9.8 24.5 9.8 24.5 9.8 24.5 Z M 9.4 26.0 C 10.0 26.1 9.2 26.2 9.4 26.0 C 9.4 26.0 9.4 26.0 9.4 26.0 Z M 4.4 27.6 C 5.1 27.7 4.2 27.8 4.4 27.6 C 4.4 27.6 4.4 27.6 4.4 27.6 Z M 8.1 28.6 C 8.8 28.7 7.8 28.8 8.1 28.6 C 8.1 28.6 8.1 28.6 8.1 28.6 Z M 6.3 25.3 C 5.3 25.3 6.0 24.5 6.3 25.3 C 6.3 25.3 6.3 25.3 6.3 25.3 Z M 11.3 24.4 C 10.4 24.4 10.9 23.6 11.3 24.4 C 11.3 24.4 11.3 24.4 11.3 24.4 Z M 5.3 25.1 C 5.4 26.0 6.5 22.7 5.2 23.8 C 4.2 24.1 4.3 21.6 5.3 22.4 C 5.4 21.7 5.4 21.7 5.0 21.2 C 5.7 21.3 6.1 19.8 5.7 19.1 C 5.0 18.5 5.6 20.1 4.9 19.0 C 4.7 16.7 4.2 18.8 3.3 17.7 C 3.4 17.6 3.8 17.7 3.5 17.4 C 2.7 17.0 2.2 18.2 1.6 17.3 C 1.7 17.7 0.9 19.2 1.6 18.7 C 2.3 18.7 0.7 20.4 1.9 20.6 C 1.3 21.0 2.1 21.8 1.4 22.2 C 1.3 22.7 1.9 22.8 2.1 22.7 C 2.6 22.8 0.8 23.1 1.8 23.9 C 1.5 23.9 1.6 25.9 2.1 24.5 C 2.0 24.9 1.7 27.1 2.8 26.0 C 3.3 24.5 3.9 27.5 4.0 25.8 C 4.1 24.5 3.9 24.2 4.5 25.2 C 4.4 25.5 4.5 27.0 5.0 25.7 C 4.9 25.5 5.0 24.9 5.3 25.1 C 5.3 25.1 5.3 25.1 5.3 25.1 Z M 3.7 25.3 C 3.6 24.5 4.1 25.2 3.7 25.3 C 3.7 25.3 3.7 25.3 3.7 25.3 Z M 1.2 22.1 C 1.1 21.2 1.6 22.1 1.2 22.1 C 1.2 22.1 1.2 22.1 1.2 22.1 Z M 5.6 22.9 C 5.2 22.5 6.4 22.7 5.6 22.9 C 5.6 22.9 5.6 22.9 5.6 22.9 Z M 2.1 23.6 C 2.1 23.5 2.2 23.7 2.3 23.9 C 2.2 23.9 2.1 23.7 2.1 23.6 C 2.1 23.6 2.1 23.6 2.1 23.6 Z M 5.6 21.8 C 5.0 20.6 6.4 21.8 5.6 21.8 C 5.6 21.8 5.6 21.8 5.6 21.8 Z M 4.5 19.3 C 3.3 18.8 4.7 18.3 4.5 19.3 C 4.5 19.3 4.5 19.3 4.5 19.3 Z M 2.0 20.2 C 2.2 20.5 1.8 20.4 2.0 20.2 C 2.0 20.2 2.0 20.2 2.0 20.2 Z M 1.8 25.5 C 2.0 25.7 1.7 25.7 1.8 25.5 C 1.8 25.5 1.8 25.5 1.8 25.5 Z M 2.1 18.7 C 2.5 18.9 1.8 19.1 2.1 18.7 C 2.1 18.7 2.1 18.7 2.1 18.7 Z M 5.1 22.7 C 6.0 23.8 3.8 23.7 5.1 22.7 C 5.1 22.7 5.1 22.7 5.1 22.7 Z M 5.2 24.4 C 5.4 25.1 4.6 24.2 4.8 23.9 C 4.9 24.0 5.1 24.3 5.2 24.4 C 5.2 24.4 5.2 24.4 5.2 24.4 Z M 5.0 21.6 C 5.4 22.4 4.7 22.2 5.0 21.6 C 5.0 21.6 5.0 21.6 5.0 21.6 Z M 5.5 23.4 C 5.4 23.7 5.4 23.1 5.5 23.4 C 5.5 23.4 5.5 23.4 5.5 23.4 Z M 5.9 20.6 C 5.8 20.9 5.8 20.3 5.9 20.6 C 5.9 20.6 5.9 20.6 5.9 20.6 Z M 5.7 25.2 C 5.6 25.6 5.5 25.0 5.7 25.2 C 5.7 25.2 5.7 25.2 5.7 25.2 Z M 5.3 20.7 C 4.9 20.5 4.0 21.2 4.8 19.7 C 5.1 19.5 5.7 20.4 5.3 20.7 C 5.3 20.7 5.3 20.7 5.3 20.7 Z M 14.8 25.2 C 10.0 23.9 11.9 26.2 11.8 26.6 C 11.4 27.2 12.2 27.6 13.4 28.0 C 15.1 29.4 14.2 26.5 15.7 27.9 C 18.2 29.8 16.2 26.3 18.0 28.3 C 18.1 28.8 19.8 28.4 19.6 28.3 C 21.3 29.2 21.3 27.5 21.2 27.3 C 22.1 27.6 23.7 29.4 24.5 28.1 C 24.8 27.9 25.2 28.0 25.6 28.0 C 25.8 27.4 26.5 27.8 25.6 27.3 C 27.0 27.2 25.2 26.1 25.7 25.3 C 26.4 24.9 24.5 24.3 26.0 23.9 C 24.8 22.5 26.7 25.2 25.9 20.4 C 25.8 22.3 25.0 18.2 25.8 19.1 C 26.6 20.9 25.5 17.1 26.0 15.3 C 25.5 14.8 24.5 12.8 25.6 12.9 C 27.0 10.5 24.8 11.2 25.9 10.0 C 26.4 9.1 25.4 9.3 25.5 8.8 C 26.3 7.7 25.7 7.4 26.0 4.8 C 26.1 3.3 26.0 2.6 25.8 2.5 C 25.1 2.7 24.8 3.2 24.6 3.7 C 24.4 4.0 24.2 4.4 23.7 4.5 C 23.6 4.6 23.5 4.6 23.3 4.6 C 23.1 4.8 23.0 5.1 22.9 5.4 C 22.1 6.7 21.1 8.3 22.6 6.5 C 22.0 7.3 24.1 9.2 21.9 8.9 C 22.8 9.6 21.0 9.4 22.0 10.9 C 23.6 6.4 22.7 14.6 21.9 11.6 C 21.4 12.2 21.5 13.4 21.9 12.4 C 23.3 11.6 21.3 14.7 23.0 13.1 C 22.5 15.3 24.0 14.7 23.0 15.3 C 21.1 15.8 23.4 15.2 22.9 16.3 C 22.9 18.9 20.8 16.6 22.2 18.3 C 21.3 20.1 23.0 19.1 23.2 20.1 C 24.5 20.9 22.2 22.0 22.1 20.1 C 22.7 21.5 21.5 20.0 22.3 21.5 C 23.4 21.4 21.0 21.9 22.0 22.3 C 22.3 23.5 23.0 23.6 23.0 23.9 C 23.0 25.5 21.8 23.9 22.7 25.0 C 22.8 25.2 22.8 25.2 22.8 25.3 C 22.4 25.3 20.8 24.2 20.9 24.5 C 22.6 24.6 20.7 25.8 20.0 25.1 C 20.9 25.1 18.2 23.6 18.3 24.5 C 21.3 27.1 16.5 23.8 16.4 24.8 C 18.1 26.2 13.0 24.9 14.2 24.3 C 14.2 24.4 14.8 25.2 14.8 25.2 M 20.7 24.7 C 22.1 24.9 19.5 25.0 20.7 24.7 M 20.3 24.4 C 21.3 24.8 18.7 24.0 20.2 24.2 C 20.2 24.2 20.1 24.3 20.3 24.4 M 21.8 21.0 C 22.2 21.4 21.6 21.5 21.8 21.0 M 22.7 20.5 C 23.1 19.8 22.8 21.7 22.7 20.5 M 22.4 9.1 C 24.6 9.0 21.2 10.9 22.4 9.1 M 22.0 16.5 C 22.3 17.9 21.1 16.0 22.0 16.5 M 22.5 17.0 C 22.9 17.7 22.0 17.0 22.5 17.0 M 22.4 11.2 C 22.5 11.1 22.5 11.1 22.4 11.2 C 22.4 11.2 22.4 11.2 22.4 11.2 Z M 22.5 7.8 C 22.4 7.8 22.4 7.8 22.5 7.8 C 22.5 7.8 22.5 7.8 22.5 7.8 Z M 22.6 14.4 C 22.1 15.5 22.4 12.8 22.6 14.4 C 22.6 14.4 22.6 14.4 22.6 14.4 Z M 25.7 7.4 C 25.8 7.5 25.8 7.5 25.7 7.4 C 25.7 7.4 25.7 7.4 25.7 7.4 Z M 20.4 25.7 C 20.4 25.7 20.4 25.7 20.4 25.7 C 20.4 25.7 20.4 25.7 20.4 25.7 Z M 15.7 24.9 C 15.9 25.2 14.8 24.7 15.7 24.9 C 15.7 24.9 15.7 24.9 15.7 24.9 Z M 13.5 27.4 C 13.5 27.4 13.5 27.4 13.5 27.4 C 13.5 27.4 13.5 27.4 13.5 27.4 Z M 19.9 26.8 C 19.9 26.9 19.9 26.9 19.9 26.8 C 19.9 26.8 19.9 26.8 19.9 26.8 Z M 19.3 25.3 C 17.7 24.1 21.1 25.6 19.3 25.3 C 19.3 25.3 19.3 25.3 19.3 25.3 Z M 25.6 15.9 C 25.1 15.8 25.8 14.7 25.6 15.9 C 25.6 15.9 25.6 15.9 25.6 15.9 Z M 23.2 20.6 C 22.9 20.3 23.3 20.1 23.2 20.6 C 23.2 20.6 23.2 20.6 23.2 20.6 Z M 21.6 21.7 C 21.3 21.4 21.7 21.3 21.6 21.7 C 21.6 21.7 21.6 21.7 21.6 21.7 Z M 15.5 24.6 C 15.6 24.5 15.6 24.5 15.5 24.6 C 15.5 24.6 15.5 24.6 15.5 24.6 Z M 17.6 25.5 C 15.8 24.4 19.7 26.1 17.6 25.5 C 17.6 25.5 17.6 25.5 17.6 25.5 Z M 16.0 25.8 C 16.9 26.2 14.5 25.6 16.0 25.8 M 18.2 27.5 C 19.3 27.0 18.2 29.5 18.2 27.5 C 18.2 27.5 18.2 27.5 18.2 27.5 Z M 25.4 27.5 C 25.5 27.4 25.5 27.4 25.4 27.5 C 25.4 27.5 25.4 27.5 25.4 27.5 Z M 21.9 24.7 C 22.1 24.7 22.2 24.7 22.2 24.7 C 22.2 24.7 22.3 24.7 22.3 24.8 C 22.2 24.8 21.6 24.9 21.9 24.7 C 21.9 24.7 21.9 24.7 21.9 24.7 Z M 12.4 24.5 C 13.5 24.5 11.8 24.7 12.4 24.5 C 12.4 24.5 12.4 24.5 12.4 24.5 Z M 24.3 22.3 C 24.2 20.3 24.9 24.0 24.3 22.3 C 24.3 22.3 24.3 22.3 24.3 22.3 Z M 23.1 15.0 C 23.1 15.0 23.1 15.0 23.1 15.0 C 23.1 15.0 23.1 15.0 23.1 15.0 Z M 22.6 13.9 C 22.6 13.8 22.6 13.8 22.6 13.9 C 22.6 13.9 22.6 13.9 22.6 13.9 Z M 23.7 8.3 C 23.8 8.2 23.8 8.2 23.7 8.3 C 23.7 8.3 23.7 8.3 23.7 8.3 Z M 22.1 13.0 C 22.1 12.9 22.1 12.9 22.1 13.0 C 22.1 13.0 22.1 13.0 22.1 13.0 Z M 22.4 9.6 C 22.4 9.5 22.4 9.5 22.4 9.6 C 22.4 9.6 22.4 9.6 22.4 9.6 Z M 21.4 10.6 C 21.5 10.5 21.5 10.5 21.4 10.6 C 21.4 10.6 21.4 10.6 21.4 10.6 Z M 26.2 18.1 C 26.3 18.1 26.3 18.1 26.2 18.1 C 26.2 18.1 26.2 18.1 26.2 18.1 Z M 17.1 24.2 C 17.3 24.3 17.3 24.3 17.1 24.2 C 17.1 24.2 17.1 24.2 17.1 24.2 Z M 22.8 9.6 C 22.8 9.6 22.8 9.6 22.8 9.6 C 22.8 9.6 22.8 9.6 22.8 9.6 Z M 23.7 18.2 C 24.6 18.4 22.4 18.6 23.6 18.0 C 23.7 18.0 23.5 18.2 23.7 18.2 M 25.2 17.2 C 25.3 17.3 25.3 17.3 25.2 17.2 C 25.2 17.2 25.2 17.2 25.2 17.2 Z M 25.8 22.2 C 25.8 22.3 25.8 22.3 25.8 22.2 C 25.8 22.2 25.8 22.2 25.8 22.2 Z M 21.9 13.5 C 21.4 13.8 22.3 12.6 21.9 13.7 M 25.4 7.2 C 24.9 7.7 25.8 5.7 25.4 7.3 M 11.3 24.8 C 11.3 25.2 10.5 24.6 11.3 24.8 M 26.3 23.6 C 26.7 24.1 26.1 24.4 26.3 23.6 M 25.1 20.7 C 24.6 20.7 25.5 19.7 25.1 20.9 M 25.4 10.5 C 25.4 10.4 25.4 10.4 25.4 10.5 C 25.4 10.5 25.4 10.5 25.4 10.5 Z M 22.3 23.6 C 22.3 23.5 22.3 23.5 22.3 23.6 C 22.3 23.6 22.3 23.6 22.3 23.6 Z M 23.4 19.6 C 22.7 19.9 23.9 18.9 23.4 19.6 M 23.5 26.1 C 22.8 25.7 22.9 25.7 23.3 25.8 C 23.8 25.9 24.6 26.2 23.6 26.1 C 23.6 26.1 23.5 26.1 23.5 26.1 M 25.6 4.5 C 24.5 6.6 26.2 3.0 25.6 4.5 M 22.9 11.9 C 21.8 13.2 23.5 10.9 22.9 11.9 M 22.8 23.0 C 22.2 22.6 23.1 22.2 22.8 23.0 M 13.7 24.7 C 12.7 24.6 14.8 24.3 13.7 24.7 M 25.4 13.6 C 25.4 13.5 25.4 13.5 25.4 13.6 C 25.4 13.6 25.4 13.6 25.4 13.6 Z M 20.0 28.8 C 20.0 28.9 20.0 28.9 20.0 28.8 C 20.0 28.8 20.0 28.8 20.0 28.8 Z M 22.1 6.3 C 22.1 6.2 22.1 6.2 22.1 6.3 C 22.1 6.3 22.1 6.3 22.1 6.3 Z M 23.4 12.4 C 23.5 12.4 23.5 12.4 23.4 12.4 C 23.4 12.4 23.4 12.4 23.4 12.4 Z M 21.9 8.2 C 22.0 8.1 22.0 8.1 21.9 8.2 C 21.9 8.2 21.9 8.2 21.9 8.2 Z M 24.3 15.9 C 24.3 15.8 24.3 15.8 24.3 15.9 C 24.3 15.9 24.3 15.9 24.3 15.9 Z M 21.5 16.3 C 21.5 16.3 21.5 16.3 21.5 16.3 C 21.5 16.3 21.5 16.3 21.5 16.3 Z M 22.7 19.9 C 22.7 19.9 22.7 19.9 22.7 19.9 C 22.7 19.9 22.7 19.9 22.7 19.9 Z M 21.7 14.9 C 21.6 13.1 22.6 15.9 21.7 14.9 C 21.7 14.9 21.7 14.9 21.7 14.9 Z M 24.5 19.0 C 24.5 19.0 24.5 19.0 24.5 19.0 C 24.5 19.0 24.5 19.0 24.5 19.0 Z M 22.5 18.7 C 21.7 17.2 23.8 18.3 22.5 18.7 M 21.9 23.7 C 21.5 23.0 22.5 24.1 21.9 23.7 M 23.5 28.0 C 23.6 28.0 23.6 28.0 23.5 28.0 C 23.5 28.0 23.5 28.0 23.5 28.0 Z M 24.0 27.7 C 24.1 27.7 24.1 27.7 24.0 27.7 C 24.0 27.7 24.0 27.7 24.0 27.7 Z M 21.0 24.2 C 21.0 24.2 21.0 24.2 21.0 24.2 C 21.0 24.2 21.0 24.2 21.0 24.2 Z M 25.1 28.7 C 25.2 28.8 25.2 28.8 25.1 28.7 C 25.1 28.7 25.1 28.7 25.1 28.7 Z M 21.6 17.0 C 21.6 17.0 21.6 17.0 21.6 17.0 C 21.6 17.0 21.6 17.0 21.6 17.0 Z M 21.5 7.7 C 21.5 7.6 21.5 7.6 21.5 7.7 C 21.5 7.7 21.5 7.7 21.5 7.7 Z M 15.7 27.6 C 15.8 27.6 15.8 27.6 15.7 27.6 C 15.7 27.6 15.7 27.6 15.7 27.6 Z M 22.7 16.1 C 22.7 16.1 22.7 16.1 22.7 16.1 C 22.7 16.1 22.7 16.1 22.7 16.1 Z M 21.6 27.8 C 21.7 27.9 21.7 27.9 21.6 27.8 C 21.6 27.8 21.6 27.8 21.6 27.8 Z M 22.4 16.8 C 22.4 16.8 22.4 16.8 22.4 16.8 C 22.4 16.8 22.4 16.8 22.4 16.8 Z M 25.6 14.0 C 25.6 14.0 25.6 14.0 25.6 14.0 C 25.6 14.0 25.6 14.0 25.6 14.0 Z M 26.2 10.8 C 26.3 10.8 26.3 10.8 26.2 10.8 C 26.2 10.8 26.2 10.8 26.2 10.8 Z M 23.7 14.4 C 23.7 14.3 23.7 14.3 23.7 14.4 C 23.7 14.4 23.7 14.4 23.7 14.4 Z M 19.8 26.6 C 14.5 25.7 23.1 26.2 19.8 26.6 M 23.9 13.6 C 23.7 16.8 22.9 11.4 23.9 13.6 C 23.7 13.3 23.9 13.5 23.9 13.6 M 20.8 6.6 C 21.6 6.2 22.3 5.8 22.8 5.4 C 23.4 5.0 23.8 4.6 24.1 4.2 C 24.2 4.0 24.3 3.8 24.4 3.6 C 24.1 3.1 22.3 5.1 23.8 3.4 C 25.8 3.1 25.3 0.8 23.5 3.0 C 21.0 3.3 24.2 1.6 22.1 2.5 C 19.4 2.7 21.1 2.0 19.0 2.2 C 17.4 3.4 18.0 1.6 17.2 2.8 C 18.6 1.5 15.0 3.1 15.0 2.5 C 17.0 1.8 8.3 2.5 13.0 2.9 C 11.2 3.5 11.4 2.4 10.7 2.3 C 10.1 3.0 7.2 1.7 6.4 2.4 C 6.7 2.6 7.3 2.6 7.6 2.9 C 8.2 3.4 6.3 2.8 6.4 2.8 C 5.9 3.1 3.6 3.8 5.7 2.5 C 5.5 1.9 3.3 2.8 2.9 2.3 C 2.1 2.3 1.8 2.3 1.7 2.4 C 2.0 3.3 2.4 2.9 1.8 3.1 C 1.8 5.0 1.7 6.3 1.9 6.4 C 1.8 7.4 1.1 7.1 1.7 8.7 C 0.4 10.1 4.3 12.0 1.7 11.1 C 2.3 12.2 0.6 11.8 2.2 12.6 C 1.5 11.4 1.0 15.9 2.1 14.4 C 2.5 15.1 0.5 17.3 2.1 17.4 C 3.3 18.9 4.5 19.1 5.6 17.6 C 4.7 17.4 6.6 16.1 5.0 16.7 C 4.4 18.2 4.4 13.2 5.0 14.6 C 6.9 15.9 3.8 11.4 5.2 11.3 C 4.4 11.6 4.0 7.3 5.4 9.6 C 5.6 9.0 4.9 8.3 5.7 8.2 C 5.6 10.4 4.2 5.9 5.1 6.9 C 5.3 7.3 5.5 6.9 5.6 6.4 C 6.5 6.5 7.3 6.5 6.8 6.0 C 3.9 4.1 7.9 6.4 7.9 5.7 C 9.5 5.3 8.8 7.3 9.1 5.9 C 9.6 6.1 11.8 6.2 10.5 6.5 C 9.9 6.4 11.3 4.4 12.0 6.1 C 10.0 7.0 14.7 6.6 13.9 6.1 C 9.8 5.2 18.4 5.0 15.0 6.0 C 16.4 6.9 14.5 6.3 16.6 5.9 C 16.5 5.4 18.5 4.9 17.6 5.9 C 17.2 7.5 19.2 3.8 19.4 6.0 C 19.0 6.9 22.6 5.3 20.7 6.3 C 20.6 6.5 20.8 6.6 20.8 6.6 M 20.3 6.4 C 20.8 6.1 20.3 6.9 20.3 6.4 M 20.9 6.1 C 20.9 6.1 20.9 6.1 20.9 6.1 C 20.9 6.1 20.9 6.1 20.9 6.1 Z M 17.0 5.9 C 17.0 5.9 17.0 5.9 17.0 5.9 C 17.0 5.9 17.0 5.9 17.0 5.9 Z M 13.7 1.9 C 13.7 2.0 13.7 2.0 13.7 1.9 C 13.7 1.9 13.7 1.9 13.7 1.9 Z M 14.2 5.8 C 14.2 5.8 14.2 5.8 14.2 5.8 C 14.2 5.8 14.2 5.8 14.2 5.8 Z M 18.6 5.6 C 18.6 5.6 18.6 5.6 18.6 5.6 C 18.6 5.6 18.6 5.6 18.6 5.6 Z M 14.4 6.4 C 14.3 5.8 15.2 6.8 14.4 6.4 C 14.3 6.4 14.5 6.4 14.4 6.4 M 11.1 6.6 C 11.1 6.5 11.1 6.5 11.1 6.6 M 1.2 4.7 C 1.1 4.6 1.1 4.6 1.2 4.7 M 5.8 9.5 C 5.8 9.6 5.8 9.6 5.8 9.5 M 7.4 6.0 C 6.4 6.1 6.9 5.7 7.4 6.0 M 5.5 12.3 C 5.9 11.2 5.8 14.1 5.5 12.3 M 5.9 14.0 C 5.8 14.1 5.8 14.1 5.9 14.0 M 5.6 7.2 C 5.6 7.1 5.6 7.1 5.6 7.2 C 5.6 7.2 5.6 7.2 5.6 7.2 Z M 8.0 6.2 C 9.6 6.5 7.1 6.8 8.0 6.2 M 16.3 6.4 C 15.5 6.7 16.5 5.7 16.3 6.4 M 18.0 6.1 C 18.0 6.1 18.0 6.1 18.0 6.1 C 18.0 6.1 18.0 6.1 18.0 6.1 Z M 5.5 10.0 C 5.5 9.9 5.5 9.9 5.5 10.0 C 5.5 10.0 5.5 10.0 5.5 10.0 Z M 5.7 11.8 C 5.6 11.7 5.6 11.7 5.7 11.8 C 5.7 11.8 5.7 11.8 5.7 11.8 Z M 1.3 12.0 C 1.3 11.9 1.3 11.9 1.3 12.0 C 1.3 12.0 1.3 12.0 1.3 12.0 Z M 17.5 4.3 C 18.6 4.6 15.8 5.7 16.3 4.7 C 16.3 4.2 17.3 4.4 17.5 4.3 M 8.3 4.9 C 7.1 3.4 10.3 6.9 8.3 4.9 M 4.9 13.6 C 3.1 13.8 6.1 13.0 4.9 13.6 M 5.2 16.1 C 4.8 16.7 5.0 11.6 5.5 15.4 C 5.7 15.9 5.4 16.0 5.2 16.1 M 10.8 5.9 C 10.2 5.0 12.6 6.2 10.8 5.9 M 2.6 4.4 C 3.2 5.6 3.6 7.6 2.7 6.1 C 1.6 5.1 2.2 3.2 2.6 4.4 M 20.6 5.6 C 18.8 6.9 21.5 4.5 20.6 5.6 M 16.4 5.5 C 16.3 5.6 16.3 5.6 16.4 5.5 C 16.4 5.5 16.4 5.5 16.4 5.5 Z M 14.6 5.7 C 14.6 5.6 14.6 5.6 14.6 5.7 M 19.1 6.8 C 19.1 6.7 19.1 6.7 19.1 6.8 M 4.0 5.7 C 3.9 5.7 3.9 5.7 4.0 5.7 M 7.5 5.6 C 4.7 4.3 8.2 5.4 7.5 5.6 M 10.9 3.1 C 10.0 2.5 12.2 3.1 10.9 3.1 M 5.3 6.2 C 4.8 6.2 4.5 5.6 4.5 5.2 C 4.4 4.8 4.7 4.6 5.3 6.1 C 5.3 6.1 5.3 6.2 5.3 6.2 M 8.4 5.8 C 8.3 5.8 8.3 5.8 8.4 5.8 C 8.4 5.8 8.4 5.8 8.4 5.8 Z M 2.5 4.8 C 2.5 4.8 2.5 4.8 2.5 4.8 C 2.5 4.8 2.5 4.8 2.5 4.8 Z M 2.6 5.5 C 2.5 5.4 2.5 5.4 2.6 5.5 C 2.6 5.5 2.6 5.5 2.6 5.5 Z M 5.5 7.9 C 5.5 7.8 5.5 7.8 5.5 7.9 C 5.5 7.9 5.5 7.9 5.5 7.9 Z M 19.8 2.7 C 18.3 2.6 21.2 2.5 19.8 2.7 C 19.8 2.7 19.8 2.7 19.8 2.7 Z M 13.2 6.3 C 11.1 5.4 14.5 5.4 13.2 6.3 C 13.2 6.3 13.2 6.3 13.2 6.3 Z M 10.7 4.7 C 10.6 4.7 10.6 4.7 10.7 4.7 C 10.7 4.7 10.7 4.7 10.7 4.7 Z M 6.7 6.9 C 6.6 6.8 6.6 6.8 6.7 6.9 C 6.7 6.9 6.7 6.9 6.7 6.9 Z M 19.1 2.5 C 19.2 2.5 19.2 2.5 19.1 2.5 C 19.1 2.5 19.1 2.5 19.1 2.5 Z M 4.8 10.8 C 4.8 10.8 4.8 10.8 4.8 10.8 C 4.8 10.8 4.8 10.8 4.8 10.8 Z M 4.7 3.1 C 4.6 3.6 4.3 2.7 4.7 3.1 C 4.7 3.1 4.7 3.1 4.7 3.1 Z M 2.5 3.1 C 2.4 3.1 2.4 3.1 2.5 3.1 C 2.5 3.1 2.5 3.1 2.5 3.1 Z M 6.0 14.5 C 6.0 14.5 6.0 14.5 6.0 14.5 C 6.0 14.5 6.0 14.5 6.0 14.5 Z M 1.1 7.4 C 1.1 7.5 1.1 7.5 1.1 7.4 C 1.1 7.4 1.1 7.4 1.1 7.4 Z M 2.6 10.3 C 2.6 10.2 2.6 10.2 2.6 10.3 C 2.6 10.3 2.6 10.3 2.6 10.3 Z M 5.2 7.3 C 5.4 9.3 4.6 6.3 5.2 7.3 C 5.2 7.3 5.2 7.3 5.2 7.3 Z M 3.0 15.6 C 2.9 15.6 2.9 15.6 3.0 15.6 C 3.0 15.6 3.0 15.6 3.0 15.6 Z M 4.7 17.4 C 4.6 17.4 4.6 17.4 4.7 17.4 C 4.7 17.4 4.7 17.4 4.7 17.4 Z M 5.6 18.2 C 5.5 18.3 5.5 18.3 5.6 18.2 C 5.6 18.2 5.6 18.2 5.6 18.2 Z M 14.9 3.9 C 14.9 4.0 14.9 4.0 14.9 3.9 C 14.9 3.9 14.9 3.9 14.9 3.9 Z M 15.2 6.6 C 15.2 6.7 15.2 6.7 15.2 6.6 C 15.2 6.6 15.2 6.6 15.2 6.6 Z M 13.1 6.8 C 13.1 6.8 13.1 6.8 13.1 6.8 C 13.1 6.8 13.1 6.8 13.1 6.8 Z M 15.6 2.2 C 15.7 2.3 15.7 2.3 15.6 2.2 C 15.6 2.2 15.6 2.2 15.6 2.2 Z M 5.3 4.6 C 5.4 4.6 5.4 4.6 5.3 4.6 C 5.3 4.6 5.3 4.6 5.3 4.6 Z M 3.4 3.5 C 3.5 3.5 3.5 3.5 3.4 3.5 C 3.4 3.5 3.4 3.5 3.4 3.5 Z M 4.9 2.0 C 4.9 2.0 4.9 2.0 4.9 2.0 C 4.9 2.0 4.9 2.0 4.9 2.0 Z M 1.7 2.6 C 1.7 2.6 1.7 2.6 1.7 2.6 C 1.7 2.6 1.7 2.6 1.7 2.6 Z M 23.4 2.8 C 23.4 2.7 23.4 2.7 23.4 2.8 C 23.4 2.8 23.4 2.8 23.4 2.8 Z M 21.9 4.9 C 22.0 4.8 22.0 4.8 21.9 4.9 C 21.9 4.9 21.9 4.9 21.9 4.9 Z M 6.4 6.1 C 6.4 6.5 5.0 5.5 6.4 6.1 M 9.4 5.8 C 9.4 5.8 9.4 5.8 9.4 5.8 C 9.4 5.8 9.4 5.8 9.4 5.8 Z M 5.2 10.8 C 4.4 10.7 5.7 9.5 5.2 10.8 C 5.2 10.8 5.2 10.8 5.2 10.8 Z M 1.7 5.9 C 1.7 6.0 1.7 6.0 1.7 5.9 C 1.7 5.9 1.7 5.9 1.7 5.9 Z M 2.1 7.3 C 2.0 7.3 2.0 7.3 2.1 7.3 C 2.1 7.3 2.1 7.3 2.1 7.3 Z M 4.3 14.5 C 4.3 14.6 4.3 14.6 4.3 14.5 M 10.2 6.6 C 9.6 6.2 9.7 6.3 10.2 6.6 M 5.2 12.0 C 5.2 11.9 5.2 11.9 5.2 12.0 C 5.2 12.0 5.2 12.0 5.2 12.0 Z M 4.8 16.0 C 4.8 15.9 4.8 15.9 4.8 16.0 C 4.8 16.0 4.8 16.0 4.8 16.0 Z M 12.2 6.0 C 12.0 5.0 12.5 5.2 12.2 6.0 M 18.9 5.7 C 18.9 5.6 18.9 5.6 18.9 5.7 C 18.9 5.7 18.9 5.7 18.9 5.7 Z M 18.9 5.7 " fill="#FEFFFE"></path></g></svg>