<?xml version="1.0" encoding="UTF-8" standalone="no"?><svg xmlns="http://www.w3.org/2000/svg" xmlns:xlink="http://www.w3.org/1999/xlink" clip-rule="evenodd" stroke-miterlimit="10" viewBox="0 0 28 30"><desc>SVG generated by Keynote</desc><defs></defs><g transform="matrix(1.00, 0.00, -0.00, -1.00, 0.0, 30.0)"><path d="M 11.8 24.6 C 11.7 24.8 11.0 24.6 10.9 24.7 M 11.8 24.6 C 10.9 23.7 9.9 23.7 8.5 23.5 C 7.1 23.5 8.8 24.3 8.7 24.7 C 6.8 25.1 6.7 24.4 6.8 23.4 C 6.2 24.1 4.0 22.9 4.5 24.2 C 7.6 24.2 2.3 24.5 5.0 25.2 C 5.3 25.4 4.5 25.7 4.2 25.7 C 5.2 26.2 3.6 26.8 5.2 27.2 C 5.4 27.9 5.1 27.6 6.2 28.2 C 6.7 28.3 6.5 28.0 6.4 27.8 C 6.4 26.9 7.7 28.4 8.5 27.8 C 9.6 29.0 10.0 27.6 9.2 27.1 C 10.0 27.2 11.3 28.5 11.8 27.6 C 12.4 28.2 14.4 27.8 12.8 27.1 C 11.8 26.6 12.6 26.2 12.6 25.9 C 12.2 25.7 11.1 26.1 10.9 25.8 C 11.2 25.6 12.5 25.2 10.9 25.2 C 11.3 24.8 10.4 24.6 11.8 24.6 C 11.8 24.6 11.8 24.6 11.8 24.6 Z M 6.4 24.0 C 6.4 23.6 6.9 24.0 6.4 24.0 C 6.4 24.0 6.4 24.0 6.4 24.0 Z M 11.3 28.2 C 11.2 27.9 11.9 28.2 11.3 28.2 C 11.3 28.2 11.3 28.2 11.3 28.2 Z M 6.7 27.9 C 6.6 27.6 7.3 27.9 6.7 27.9 C 6.7 27.9 6.7 27.9 6.7 27.9 Z M 7.8 24.2 C 8.7 24.4 7.2 24.6 7.0 24.3 C 7.2 24.4 7.5 23.9 7.8 24.2 C 7.8 24.2 7.8 24.2 7.8 24.2 Z M 8.3 26.0 C 8.4 25.9 8.7 25.8 8.8 26.2 C 8.5 26.2 8.3 26.1 8.3 26.0 C 8.3 26.0 8.3 26.0 8.3 26.0 Z M 3.9 24.7 C 3.9 24.6 4.3 24.5 4.2 24.9 C 4.0 24.9 3.8 24.8 3.9 24.7 C 3.9 24.7 3.9 24.7 3.9 24.7 Z M 8.9 25.0 C 9.2 25.1 9.3 25.4 9.1 25.4 C 8.9 25.2 8.3 25.2 8.9 25.0 C 8.9 25.0 8.9 25.0 8.9 25.0 Z M 9.9 23.9 C 10.6 24.1 9.4 24.6 9.4 24.4 C 9.1 24.2 9.5 23.7 9.9 23.9 C 9.9 23.9 9.9 23.9 9.9 23.9 Z M 9.5 25.4 C 10.1 25.6 9.3 25.7 9.5 25.4 C 9.5 25.4 9.5 25.4 9.5 25.4 Z M 4.5 27.0 C 5.2 27.2 4.3 27.3 4.5 27.0 C 4.5 27.0 4.5 27.0 4.5 27.0 Z M 8.2 28.0 C 8.9 28.2 7.9 28.3 8.2 28.0 C 8.2 28.0 8.2 28.0 8.2 28.0 Z M 6.4 24.8 C 5.4 24.8 6.1 24.0 6.4 24.8 C 6.4 24.8 6.4 24.8 6.4 24.8 Z M 11.4 23.9 C 10.5 23.9 11.0 23.1 11.4 23.9 C 11.4 23.9 11.4 23.9 11.4 23.9 Z M 5.4 24.6 C 5.5 25.5 6.6 22.2 5.3 23.3 C 4.3 23.5 4.4 21.0 5.4 21.9 C 5.5 21.2 5.5 21.2 5.0 20.7 C 5.8 20.8 6.2 19.2 5.8 18.5 C 5.1 17.9 5.7 19.6 5.0 18.4 C 4.8 16.2 4.3 18.3 3.4 17.1 C 3.4 17.0 3.9 17.2 3.6 16.9 C 2.8 16.5 2.3 17.6 1.7 16.8 C 1.8 17.2 1.0 18.7 1.7 18.2 C 2.4 18.2 0.7 19.9 2.0 20.0 C 1.4 20.5 2.2 21.3 1.5 21.7 C 1.4 22.1 2.0 22.2 2.2 22.2 C 2.7 22.2 0.9 22.5 1.9 23.4 C 1.6 23.4 1.7 25.4 2.2 23.9 C 2.1 24.4 1.8 26.5 2.9 25.4 C 3.4 24.0 4.0 27.0 4.1 25.3 C 4.2 24.0 4.0 23.7 4.6 24.7 C 4.5 25.0 4.6 26.5 5.1 25.2 C 5.0 24.9 5.1 24.4 5.4 24.6 C 5.4 24.6 5.4 24.6 5.4 24.6 Z M 3.8 24.7 C 3.7 24.0 4.2 24.7 3.8 24.7 C 3.8 24.7 3.8 24.7 3.8 24.7 Z M 1.3 21.5 C 1.2 20.7 1.7 21.5 1.3 21.5 C 1.3 21.5 1.3 21.5 1.3 21.5 Z M 5.7 22.4 C 5.3 22.0 6.5 22.1 5.7 22.4 C 5.7 22.4 5.7 22.4 5.7 22.4 Z M 2.2 23.1 C 2.2 23.0 2.3 23.2 2.4 23.4 C 2.3 23.3 2.2 23.1 2.2 23.1 C 2.2 23.1 2.2 23.1 2.2 23.1 Z M 5.6 21.2 C 5.1 20.1 6.5 21.3 5.6 21.2 C 5.6 21.2 5.6 21.2 5.6 21.2 Z M 4.6 18.8 C 3.4 18.3 4.8 17.8 4.6 18.8 C 4.6 18.8 4.6 18.8 4.6 18.8 Z M 2.1 19.7 C 2.3 19.9 1.9 19.8 2.1 19.7 C 2.1 19.7 2.1 19.7 2.1 19.7 Z M 1.9 25.0 C 2.1 25.2 1.7 25.2 1.9 25.0 C 1.9 25.0 1.9 25.0 1.9 25.0 Z M 2.2 18.2 C 2.6 18.4 1.9 18.6 2.2 18.2 C 2.2 18.2 2.2 18.2 2.2 18.2 Z M 5.2 22.1 C 6.1 23.2 3.9 23.1 5.2 22.1 C 5.2 22.1 5.2 22.1 5.2 22.1 Z M 5.3 23.9 C 5.5 24.5 4.7 23.7 4.9 23.4 C 4.9 23.5 5.2 23.8 5.3 23.9 C 5.3 23.9 5.3 23.9 5.3 23.9 Z M 5.1 21.1 C 5.5 21.8 4.8 21.7 5.1 21.1 C 5.1 21.1 5.1 21.1 5.1 21.1 Z M 5.6 22.9 C 5.5 23.2 5.5 22.6 5.6 22.9 C 5.6 22.9 5.6 22.9 5.6 22.9 Z M 6.0 20.1 C 5.9 20.3 5.9 19.8 6.0 20.1 C 6.0 20.1 6.0 20.1 6.0 20.1 Z M 5.8 24.7 C 5.6 25.0 5.6 24.4 5.8 24.7 C 5.8 24.7 5.8 24.7 5.8 24.7 Z M 5.4 20.2 C 5.0 19.9 4.1 20.7 4.9 19.1 C 5.2 18.9 5.8 19.8 5.4 20.2 C 5.4 20.2 5.4 20.2 5.4 20.2 Z M 14.9 24.7 C 10.1 23.4 12.0 25.6 11.9 26.1 C 11.5 26.7 12.3 27.0 13.5 27.5 C 15.2 28.9 14.3 26.0 15.8 27.4 C 18.3 29.3 16.3 25.8 18.1 27.8 C 18.2 28.3 19.9 27.9 19.7 27.7 C 21.4 28.7 21.4 27.0 21.3 26.8 C 22.2 27.1 23.7 28.9 24.6 27.5 C 24.9 27.4 25.3 27.4 25.6 27.5 C 25.9 26.9 26.6 27.2 25.7 26.8 C 27.1 26.7 25.3 25.6 25.8 24.7 C 26.5 24.4 24.6 23.8 26.1 23.4 C 24.9 22.0 26.8 24.6 26.0 19.8 C 25.9 21.8 25.1 17.6 25.9 18.6 C 26.7 20.4 25.6 16.6 26.1 14.8 C 25.6 14.2 24.6 12.2 25.7 12.4 C 27.0 10.0 24.9 10.7 26.0 9.5 C 26.5 8.6 25.5 8.8 25.6 8.3 C 26.4 7.2 25.8 6.9 26.1 4.3 C 26.2 2.7 26.1 2.1 25.9 1.9 C 25.2 2.2 24.9 2.7 24.7 3.1 C 24.5 3.5 24.3 3.8 23.8 4.0 C 23.7 4.1 23.6 4.1 23.4 4.1 C 23.2 4.2 23.1 4.5 22.9 4.9 C 22.2 6.2 21.2 7.8 22.7 6.0 C 22.1 6.8 24.2 8.7 22.0 8.4 C 22.9 9.0 21.1 8.8 22.1 10.4 C 23.7 5.9 22.7 14.0 22.0 11.0 C 21.5 11.7 21.6 12.9 22.0 11.9 C 23.4 11.0 21.4 14.1 23.1 12.6 C 22.6 14.8 24.1 14.1 23.1 14.8 C 21.2 15.2 23.5 14.7 23.0 15.8 C 23.0 18.4 20.9 16.1 22.3 17.7 C 21.3 19.5 23.1 18.5 23.3 19.5 C 24.6 20.4 22.3 21.5 22.2 19.6 C 22.8 21.0 21.5 19.4 22.4 20.9 C 23.5 20.8 21.1 21.3 22.0 21.8 C 22.4 23.0 23.1 23.1 23.1 23.4 C 23.1 25.0 21.9 23.4 22.8 24.5 C 22.9 24.6 22.9 24.7 22.9 24.8 C 22.5 24.8 20.9 23.7 21.0 24.0 C 22.7 24.1 20.8 25.2 20.1 24.6 C 21.0 24.5 18.3 23.1 18.4 24.0 C 21.4 26.6 16.6 23.3 16.5 24.2 C 18.2 25.7 13.1 24.4 14.3 23.7 C 14.3 23.9 14.9 24.7 14.9 24.7 M 20.7 24.2 C 22.2 24.3 19.6 24.5 20.7 24.2 M 20.3 23.8 C 21.4 24.3 18.8 23.5 20.3 23.7 C 20.3 23.7 20.2 23.8 20.3 23.8 M 21.9 20.4 C 22.3 20.8 21.7 20.9 21.9 20.4 M 22.8 20.0 C 23.2 19.3 22.9 21.2 22.8 20.0 M 22.5 8.5 C 24.7 8.5 21.3 10.4 22.5 8.5 M 22.1 16.0 C 22.4 17.3 21.2 15.4 22.1 16.0 M 22.6 16.4 C 23.0 17.2 22.1 16.5 22.6 16.4 M 22.5 10.7 C 22.6 10.6 22.6 10.6 22.5 10.7 C 22.5 10.7 22.5 10.7 22.5 10.7 Z M 22.6 7.3 C 22.5 7.3 22.5 7.3 22.6 7.3 C 22.6 7.3 22.6 7.3 22.6 7.3 Z M 22.7 13.9 C 22.2 15.0 22.5 12.2 22.7 13.9 C 22.7 13.9 22.7 13.9 22.7 13.9 Z M 25.8 6.9 C 25.9 6.9 25.9 6.9 25.8 6.9 C 25.8 6.9 25.8 6.9 25.8 6.9 Z M 20.5 25.2 C 20.5 25.2 20.5 25.2 20.5 25.2 C 20.5 25.2 20.5 25.2 20.5 25.2 Z M 15.8 24.4 C 16.0 24.7 14.9 24.1 15.8 24.4 C 15.8 24.4 15.8 24.4 15.8 24.4 Z M 13.6 26.8 C 13.6 26.9 13.6 26.9 13.6 26.8 C 13.6 26.8 13.6 26.8 13.6 26.8 Z M 20.0 26.3 C 20.0 26.3 20.0 26.3 20.0 26.3 C 20.0 26.3 20.0 26.3 20.0 26.3 Z M 19.4 24.7 C 17.8 23.5 21.2 25.0 19.4 24.7 C 19.4 24.7 19.4 24.7 19.4 24.7 Z M 25.7 15.3 C 25.2 15.3 25.9 14.1 25.7 15.3 C 25.7 15.3 25.7 15.3 25.7 15.3 Z M 23.3 20.1 C 23.0 19.8 23.4 19.5 23.3 20.1 C 23.3 20.1 23.3 20.1 23.3 20.1 Z M 21.7 21.2 C 21.4 20.8 21.8 20.8 21.7 21.2 C 21.7 21.2 21.7 21.2 21.7 21.2 Z M 15.6 24.0 C 15.7 24.0 15.7 24.0 15.6 24.0 C 15.6 24.0 15.6 24.0 15.6 24.0 Z M 17.7 24.9 C 15.9 23.8 19.8 25.5 17.7 24.9 C 17.7 24.9 17.7 24.9 17.7 24.9 Z M 16.1 25.3 C 17.0 25.7 14.6 25.1 16.1 25.3 M 18.3 26.9 C 19.4 26.5 18.3 28.9 18.3 26.9 C 18.3 26.9 18.3 26.9 18.3 26.9 Z M 25.5 27.0 C 25.6 26.9 25.6 26.9 25.5 27.0 C 25.5 27.0 25.5 27.0 25.5 27.0 Z M 22.0 24.2 C 22.2 24.2 22.3 24.2 22.3 24.2 C 22.3 24.1 22.4 24.2 22.4 24.2 C 22.3 24.3 21.7 24.3 22.0 24.2 C 22.0 24.2 22.0 24.2 22.0 24.2 Z M 12.5 23.9 C 13.6 24.0 11.9 24.2 12.5 23.9 C 12.5 23.9 12.5 23.9 12.5 23.9 Z M 24.4 21.8 C 24.3 19.7 25.0 23.5 24.4 21.8 C 24.4 21.8 24.4 21.8 24.4 21.8 Z M 23.2 14.5 C 23.2 14.4 23.2 14.4 23.2 14.5 C 23.2 14.5 23.2 14.5 23.2 14.5 Z M 22.7 13.3 C 22.7 13.3 22.7 13.3 22.7 13.3 C 22.7 13.3 22.7 13.3 22.7 13.3 Z M 23.8 7.8 C 23.9 7.6 23.9 7.6 23.8 7.8 C 23.8 7.8 23.8 7.8 23.8 7.8 Z M 22.2 12.4 C 22.2 12.4 22.2 12.4 22.2 12.4 C 22.2 12.4 22.2 12.4 22.2 12.4 Z M 22.5 9.1 C 22.5 9.0 22.5 9.0 22.5 9.1 C 22.5 9.1 22.5 9.1 22.5 9.1 Z M 21.5 10.1 C 21.6 10.0 21.6 10.0 21.5 10.1 C 21.5 10.1 21.5 10.1 21.5 10.1 Z M 26.3 17.6 C 26.4 17.5 26.4 17.5 26.3 17.6 C 26.3 17.6 26.3 17.6 26.3 17.6 Z M 17.2 23.7 C 17.4 23.8 17.4 23.8 17.2 23.7 C 17.2 23.7 17.2 23.7 17.2 23.7 Z M 22.9 9.1 C 22.9 9.0 22.9 9.0 22.9 9.1 C 22.9 9.1 22.9 9.1 22.9 9.1 Z M 23.8 17.7 C 24.7 17.9 22.5 18.0 23.7 17.4 C 23.8 17.5 23.6 17.7 23.8 17.7 M 25.3 16.7 C 25.4 16.7 25.4 16.7 25.3 16.7 C 25.3 16.7 25.3 16.7 25.3 16.7 Z M 25.9 21.7 C 25.9 21.8 25.9 21.8 25.9 21.7 C 25.9 21.7 25.9 21.7 25.9 21.7 Z M 22.0 13.0 C 21.5 13.2 22.4 12.0 22.0 13.1 M 25.5 6.6 C 25.0 7.2 25.9 5.1 25.5 6.8 M 11.4 24.3 C 11.4 24.7 10.6 24.0 11.4 24.3 M 26.4 23.1 C 26.8 23.6 26.2 23.9 26.4 23.1 M 25.2 20.2 C 24.7 20.1 25.6 19.2 25.2 20.4 M 25.5 9.9 C 25.5 9.9 25.5 9.9 25.5 9.9 C 25.5 9.9 25.5 9.9 25.5 9.9 Z M 22.4 23.0 C 22.4 23.0 22.4 23.0 22.4 23.0 C 22.4 23.0 22.4 23.0 22.4 23.0 Z M 23.5 19.1 C 22.8 19.4 24.0 18.3 23.5 19.1 M 23.6 25.5 C 22.9 25.2 23.0 25.1 23.4 25.2 C 23.9 25.3 24.7 25.7 23.7 25.5 C 23.7 25.5 23.6 25.5 23.6 25.5 M 25.7 4.0 C 24.6 6.1 26.3 2.4 25.7 4.0 M 23.0 11.4 C 21.9 12.7 23.6 10.4 23.0 11.4 M 22.9 22.5 C 22.3 22.1 23.2 21.7 22.9 22.5 M 13.8 24.2 C 12.8 24.1 14.9 23.7 13.8 24.2 M 25.5 13.1 C 25.5 13.0 25.5 13.0 25.5 13.1 C 25.5 13.1 25.5 13.1 25.5 13.1 Z M 20.0 28.3 C 20.1 28.3 20.1 28.3 20.0 28.3 C 20.0 28.3 20.0 28.3 20.0 28.3 Z M 22.2 5.8 C 22.2 5.7 22.2 5.7 22.2 5.8 C 22.2 5.8 22.2 5.8 22.2 5.8 Z M 23.5 11.9 C 23.6 11.8 23.6 11.8 23.5 11.9 C 23.5 11.9 23.5 11.9 23.5 11.9 Z M 22.0 7.7 C 22.1 7.6 22.1 7.6 22.0 7.7 C 22.0 7.7 22.0 7.7 22.0 7.7 Z M 24.3 15.3 C 24.4 15.3 24.4 15.3 24.3 15.3 C 24.3 15.3 24.3 15.3 24.3 15.3 Z M 21.6 15.8 C 21.6 15.8 21.6 15.8 21.6 15.8 C 21.6 15.8 21.6 15.8 21.6 15.8 Z M 22.8 19.4 C 22.8 19.4 22.8 19.4 22.8 19.4 C 22.8 19.4 22.8 19.4 22.8 19.4 Z M 21.8 14.4 C 21.6 12.6 22.7 15.4 21.8 14.4 C 21.8 14.4 21.8 14.4 21.8 14.4 Z M 24.6 18.5 C 24.6 18.4 24.6 18.4 24.6 18.5 C 24.6 18.5 24.6 18.5 24.6 18.5 Z M 22.6 18.1 C 21.8 16.7 23.9 17.8 22.6 18.1 M 22.0 23.2 C 21.5 22.5 22.6 23.6 22.0 23.2 M 23.6 27.4 C 23.7 27.5 23.7 27.5 23.6 27.4 C 23.6 27.4 23.6 27.4 23.6 27.4 Z M 24.1 27.2 C 24.2 27.2 24.2 27.2 24.1 27.2 C 24.1 27.2 24.1 27.2 24.1 27.2 Z M 21.1 23.7 C 21.1 23.7 21.1 23.7 21.1 23.7 C 21.1 23.7 21.1 23.7 21.1 23.7 Z M 25.2 28.2 C 25.3 28.2 25.3 28.2 25.2 28.2 C 25.2 28.2 25.2 28.2 25.2 28.2 Z M 21.7 16.5 C 21.7 16.5 21.7 16.5 21.7 16.5 C 21.7 16.5 21.7 16.5 21.7 16.5 Z M 21.6 7.1 C 21.6 7.1 21.6 7.1 21.6 7.1 C 21.6 7.1 21.6 7.1 21.6 7.1 Z M 15.8 27.1 C 15.9 27.1 15.9 27.1 15.8 27.1 C 15.8 27.1 15.8 27.1 15.8 27.1 Z M 22.8 15.6 C 22.8 15.6 22.8 15.6 22.8 15.6 C 22.8 15.6 22.8 15.6 22.8 15.6 Z M 21.7 27.3 C 21.8 27.3 21.8 27.3 21.7 27.3 C 21.7 27.3 21.7 27.3 21.7 27.3 Z M 22.5 16.2 C 22.5 16.2 22.5 16.2 22.5 16.2 C 22.5 16.2 22.5 16.2 22.5 16.2 Z M 25.7 13.5 C 25.7 13.4 25.7 13.4 25.7 13.5 C 25.7 13.5 25.7 13.5 25.7 13.5 Z M 26.3 10.3 C 26.4 10.3 26.4 10.3 26.3 10.3 C 26.3 10.3 26.3 10.3 26.3 10.3 Z M 23.8 13.9 C 23.8 13.8 23.8 13.8 23.8 13.9 C 23.8 13.9 23.8 13.9 23.8 13.9 Z M 19.9 26.1 C 14.6 25.2 23.2 25.7 19.9 26.1 M 24.0 13.0 C 23.8 16.3 23.0 10.8 24.0 13.0 C 23.7 12.7 24.0 13.0 24.0 13.0 M 20.9 6.1 C 21.7 5.7 22.4 5.3 22.9 4.9 C 23.5 4.5 23.9 4.1 24.2 3.6 C 24.3 3.5 24.4 3.3 24.5 3.1 C 24.2 2.6 22.4 4.6 23.9 2.9 C 25.9 2.5 25.4 0.3 23.6 2.5 C 21.1 2.8 24.3 1.1 22.2 2.0 C 19.5 2.2 21.2 1.5 19.1 1.7 C 17.5 2.9 18.1 1.1 17.2 2.2 C 18.7 1.0 15.1 2.6 15.1 2.0 C 17.1 1.2 8.3 2.0 13.0 2.3 C 11.3 2.9 11.5 1.9 10.8 1.7 C 10.2 2.5 7.3 1.2 6.5 1.9 C 6.8 2.1 7.4 2.1 7.7 2.3 C 8.3 2.8 6.3 2.2 6.5 2.3 C 6.0 2.5 3.7 3.3 5.8 2.0 C 5.6 1.4 3.4 2.3 3.0 1.7 C 2.2 1.7 1.9 1.8 1.8 1.9 C 2.0 2.7 2.5 2.4 1.9 2.6 C 1.8 4.4 1.8 5.8 2.0 5.9 C 1.9 6.9 1.2 6.6 1.8 8.1 C 0.5 9.6 4.4 11.5 1.8 10.6 C 2.4 11.6 0.7 11.3 2.3 12.1 C 1.6 10.9 1.1 15.4 2.2 13.9 C 2.6 14.6 0.6 16.7 2.2 16.9 C 3.4 18.3 4.6 18.6 5.7 17.0 C 4.8 16.9 6.6 15.5 5.1 16.2 C 4.5 17.7 4.5 12.7 5.1 14.0 C 7.0 15.4 3.9 10.9 5.2 10.8 C 4.5 11.1 4.1 6.7 5.5 9.1 C 5.6 8.5 5.0 7.7 5.8 7.7 C 5.7 9.9 4.3 5.4 5.2 6.4 C 5.4 6.8 5.6 6.4 5.7 5.9 C 6.6 6.0 7.4 6.0 6.9 5.5 C 3.9 3.6 8.0 5.9 8.0 5.1 C 9.6 4.7 8.9 6.8 9.2 5.4 C 9.6 5.6 11.9 5.6 10.6 6.0 C 10.0 5.8 11.4 3.9 12.1 5.5 C 10.1 6.5 14.8 6.1 14.0 5.5 C 9.9 4.6 18.5 4.5 15.1 5.4 C 16.5 6.3 14.6 5.8 16.7 5.4 C 16.6 4.9 18.6 4.4 17.7 5.4 C 17.2 7.0 19.3 3.3 19.5 5.5 C 19.1 6.4 22.7 4.8 20.8 5.8 C 20.7 5.9 20.9 6.1 20.9 6.1 M 20.4 5.9 C 20.9 5.6 20.4 6.4 20.4 5.9 M 21.0 5.6 C 21.0 5.6 21.0 5.6 21.0 5.6 C 21.0 5.6 21.0 5.6 21.0 5.6 Z M 17.1 5.3 C 17.1 5.4 17.1 5.4 17.1 5.3 C 17.1 5.3 17.1 5.3 17.1 5.3 Z M 13.8 1.4 C 13.8 1.4 13.8 1.4 13.8 1.4 C 13.8 1.4 13.8 1.4 13.8 1.4 Z M 14.3 5.2 C 14.3 5.2 14.3 5.2 14.3 5.2 C 14.3 5.2 14.3 5.2 14.3 5.2 Z M 18.6 5.1 C 18.7 5.1 18.7 5.1 18.6 5.1 C 18.6 5.1 18.6 5.1 18.6 5.1 Z M 14.5 5.8 C 14.4 5.2 15.3 6.3 14.5 5.9 C 14.4 5.9 14.6 5.9 14.5 5.8 M 11.2 6.1 C 11.2 6.0 11.2 6.0 11.2 6.1 M 1.3 4.1 C 1.2 4.1 1.2 4.1 1.3 4.1 M 5.9 9.0 C 5.9 9.0 5.9 9.0 5.9 9.0 M 7.5 5.5 C 6.5 5.5 7.0 5.2 7.5 5.5 M 5.6 11.8 C 6.0 10.6 5.9 13.6 5.6 11.8 M 6.0 13.4 C 5.9 13.5 5.9 13.5 6.0 13.4 M 5.7 6.7 C 5.7 6.6 5.7 6.6 5.7 6.7 C 5.7 6.7 5.7 6.7 5.7 6.7 Z M 8.1 5.7 C 9.7 6.0 7.2 6.2 8.1 5.7 M 16.4 5.9 C 15.6 6.2 16.6 5.1 16.4 5.9 M 18.1 5.6 C 18.1 5.5 18.1 5.5 18.1 5.6 C 18.1 5.6 18.1 5.6 18.1 5.6 Z M 5.6 9.5 C 5.6 9.4 5.6 9.4 5.6 9.5 C 5.6 9.5 5.6 9.5 5.6 9.5 Z M 5.7 11.2 C 5.7 11.2 5.7 11.2 5.7 11.2 C 5.7 11.2 5.7 11.2 5.7 11.2 Z M 1.4 11.5 C 1.4 11.4 1.4 11.4 1.4 11.5 C 1.4 11.5 1.4 11.5 1.4 11.5 Z M 17.6 3.8 C 18.7 4.1 15.9 5.2 16.4 4.1 C 16.4 3.7 17.4 3.9 17.6 3.8 M 8.4 4.4 C 7.2 2.9 10.4 6.4 8.4 4.4 M 5.0 13.1 C 3.2 13.2 6.2 12.4 5.0 13.1 M 5.3 15.6 C 4.9 16.1 5.1 11.1 5.6 14.9 C 5.8 15.4 5.5 15.5 5.3 15.6 M 10.9 5.3 C 10.3 4.5 12.7 5.7 10.9 5.3 M 2.7 3.9 C 3.3 5.0 3.7 7.1 2.8 5.6 C 1.7 4.5 2.3 2.7 2.7 3.9 M 20.7 5.1 C 18.9 6.4 21.6 4.0 20.7 5.1 M 16.5 5.0 C 16.4 5.0 16.4 5.0 16.5 5.0 C 16.5 5.0 16.5 5.0 16.5 5.0 Z M 14.7 5.2 C 14.7 5.1 14.7 5.1 14.7 5.2 M 19.2 6.2 C 19.2 6.1 19.2 6.1 19.2 6.2 M 4.1 5.2 C 4.0 5.2 4.0 5.2 4.1 5.2 M 7.6 5.1 C 4.8 3.8 8.3 4.8 7.6 5.1 M 11.0 2.6 C 10.1 2.0 12.3 2.6 11.0 2.6 M 5.4 5.7 C 4.9 5.7 4.6 5.1 4.6 4.7 C 4.5 4.3 4.8 4.1 5.4 5.5 C 5.4 5.6 5.4 5.6 5.4 5.7 M 8.5 5.2 C 8.4 5.2 8.4 5.2 8.5 5.2 C 8.5 5.2 8.5 5.2 8.5 5.2 Z M 2.6 4.3 C 2.6 4.2 2.6 4.2 2.6 4.3 C 2.6 4.3 2.6 4.3 2.6 4.3 Z M 2.7 5.0 C 2.6 4.9 2.6 4.9 2.7 5.0 C 2.7 5.0 2.7 5.0 2.7 5.0 Z M 5.6 7.3 C 5.6 7.2 5.6 7.2 5.6 7.3 C 5.6 7.3 5.6 7.3 5.6 7.3 Z M 19.9 2.2 C 18.4 2.1 21.3 2.0 19.9 2.2 C 19.9 2.2 19.9 2.2 19.9 2.2 Z M 13.3 5.8 C 11.2 4.8 14.6 4.9 13.3 5.8 C 13.3 5.8 13.3 5.8 13.3 5.8 Z M 10.8 4.2 C 10.7 4.1 10.7 4.1 10.8 4.2 C 10.8 4.2 10.8 4.2 10.8 4.2 Z M 6.8 6.4 C 6.7 6.3 6.7 6.3 6.8 6.4 C 6.8 6.4 6.8 6.4 6.8 6.4 Z M 19.2 2.0 C 19.2 1.9 19.2 1.9 19.2 2.0 C 19.2 2.0 19.2 2.0 19.2 2.0 Z M 4.9 10.3 C 4.9 10.3 4.9 10.3 4.9 10.3 C 4.9 10.3 4.9 10.3 4.9 10.3 Z M 4.8 2.6 C 4.7 3.0 4.4 2.2 4.8 2.6 C 4.8 2.6 4.8 2.6 4.8 2.6 Z M 2.5 2.5 C 2.5 2.6 2.5 2.6 2.5 2.5 C 2.5 2.5 2.5 2.5 2.5 2.5 Z M 6.0 14.0 C 6.1 14.0 6.1 14.0 6.0 14.0 C 6.0 14.0 6.0 14.0 6.0 14.0 Z M 1.2 6.9 C 1.2 6.9 1.2 6.9 1.2 6.9 C 1.2 6.9 1.2 6.9 1.2 6.9 Z M 2.7 9.7 C 2.7 9.7 2.7 9.7 2.7 9.7 C 2.7 9.7 2.7 9.7 2.7 9.7 Z M 5.3 6.7 C 5.5 8.8 4.7 5.8 5.3 6.7 C 5.3 6.7 5.3 6.7 5.3 6.7 Z M 3.1 15.1 C 3.0 15.1 3.0 15.1 3.1 15.1 C 3.1 15.1 3.1 15.1 3.1 15.1 Z M 4.8 16.9 C 4.7 16.9 4.7 16.9 4.8 16.9 C 4.8 16.9 4.8 16.9 4.8 16.9 Z M 5.6 17.7 C 5.6 17.7 5.6 17.7 5.6 17.7 C 5.6 17.7 5.6 17.7 5.6 17.7 Z M 15.0 3.4 C 15.0 3.4 15.0 3.4 15.0 3.4 C 15.0 3.4 15.0 3.4 15.0 3.4 Z M 15.3 6.1 C 15.3 6.1 15.3 6.1 15.3 6.1 C 15.3 6.1 15.3 6.1 15.3 6.1 Z M 13.2 6.2 C 13.2 6.3 13.2 6.3 13.2 6.2 C 13.2 6.2 13.2 6.2 13.2 6.2 Z M 15.7 1.7 C 15.8 1.7 15.8 1.7 15.7 1.7 C 15.7 1.7 15.7 1.7 15.7 1.7 Z M 5.4 4.0 C 5.5 4.1 5.5 4.1 5.4 4.0 C 5.4 4.0 5.4 4.0 5.4 4.0 Z M 3.5 2.9 C 3.6 3.0 3.6 3.0 3.5 2.9 C 3.5 2.9 3.5 2.9 3.5 2.9 Z M 5.0 1.5 C 5.0 1.5 5.0 1.5 5.0 1.5 C 5.0 1.5 5.0 1.5 5.0 1.5 Z M 1.8 2.1 C 1.8 2.1 1.8 2.1 1.8 2.1 C 1.8 2.1 1.8 2.1 1.8 2.1 Z M 23.5 2.2 C 23.5 2.2 23.5 2.2 23.5 2.2 C 23.5 2.2 23.5 2.2 23.5 2.2 Z M 22.0 4.3 C 22.1 4.3 22.1 4.3 22.0 4.3 C 22.0 4.3 22.0 4.3 22.0 4.3 Z M 6.5 5.6 C 6.5 6.0 5.1 5.0 6.5 5.6 M 9.5 5.3 C 9.5 5.3 9.5 5.3 9.5 5.3 C 9.5 5.3 9.5 5.3 9.5 5.3 Z M 5.3 10.3 C 4.5 10.1 5.7 9.0 5.3 10.3 C 5.3 10.3 5.3 10.3 5.3 10.3 Z M 1.8 5.4 C 1.8 5.4 1.8 5.4 1.8 5.4 C 1.8 5.4 1.8 5.4 1.8 5.4 Z M 2.2 6.8 C 2.1 6.8 2.1 6.8 2.2 6.8 C 2.2 6.8 2.2 6.8 2.2 6.8 Z M 4.4 14.0 C 4.4 14.1 4.4 14.1 4.4 14.0 M 10.3 6.0 C 9.7 5.7 9.8 5.7 10.3 6.0 M 5.3 11.5 C 5.3 11.4 5.3 11.4 5.3 11.5 C 5.3 11.5 5.3 11.5 5.3 11.5 Z M 4.9 15.4 C 4.9 15.4 4.9 15.4 4.9 15.4 C 4.9 15.4 4.9 15.4 4.9 15.4 Z M 12.3 5.5 C 12.1 4.5 12.6 4.7 12.3 5.5 M 18.9 5.2 C 19.0 5.1 19.0 5.1 18.9 5.2 C 18.9 5.2 18.9 5.2 18.9 5.2 Z M 18.9 5.2 " fill="#FEFFFE"></path></g></svg>