<?xml version="1.0" encoding="UTF-8" standalone="no"?><svg xmlns="http://www.w3.org/2000/svg" xmlns:xlink="http://www.w3.org/1999/xlink" clip-rule="evenodd" stroke-miterlimit="10" viewBox="0 0 32 30"><desc>SVG generated by Keynote</desc><defs></defs><g transform="matrix(1.00, 0.00, -0.00, -1.00, 0.0, 30.0)"><path d="M 18.8 15.6 C 18.8 15.8 18.3 16.3 18.4 16.4 M 18.8 15.6 C 17.4 16.2 16.9 17.0 16.2 18.0 C 15.5 19.2 17.1 18.1 17.4 18.2 C 16.9 20.0 16.3 19.8 15.4 19.4 C 15.7 20.1 13.7 21.4 15.0 21.6 C 16.4 19.0 14.2 23.7 16.2 21.6 C 16.5 21.4 16.4 22.3 16.3 22.5 C 17.2 21.9 16.9 23.6 18.0 22.4 C 18.9 22.5 18.4 22.6 19.5 21.8 C 19.8 21.4 19.4 21.5 19.2 21.5 C 18.4 21.1 20.4 20.5 20.2 19.6 C 21.9 19.0 20.8 18.1 19.9 18.7 C 20.4 18.0 22.2 17.2 21.7 16.5 C 22.6 16.0 23.1 14.1 21.6 15.4 C 20.6 16.2 20.7 15.4 20.4 15.3 C 20.0 15.6 19.9 16.6 19.5 16.7 C 19.5 16.4 19.6 15.2 19.0 16.5 C 18.7 16.1 18.1 16.8 18.8 15.6 C 18.8 15.6 18.8 15.6 18.8 15.6 Z M 15.7 19.9 C 15.4 19.9 15.9 19.5 15.7 19.9 C 15.7 19.9 15.7 19.9 15.7 19.9 Z M 22.0 17.1 C 21.7 17.1 22.3 16.5 22.0 17.1 C 22.0 17.1 22.0 17.1 22.0 17.1 Z M 19.4 21.3 C 19.1 21.2 19.7 20.7 19.4 21.3 C 19.4 21.3 19.4 21.3 19.4 21.3 Z M 16.5 18.9 C 17.1 18.2 16.6 19.5 16.3 19.6 C 16.4 19.4 16.1 19.0 16.5 18.9 C 16.5 18.9 16.5 18.9 16.5 18.9 Z M 18.5 19.1 C 18.4 19.0 18.5 18.7 18.8 18.7 C 18.8 19.0 18.6 19.1 18.5 19.1 C 18.5 19.1 18.5 19.1 18.5 19.1 Z M 15.2 22.4 C 15.1 22.3 15.3 22.0 15.5 22.2 C 15.5 22.4 15.3 22.5 15.2 22.4 C 15.2 22.4 15.2 22.4 15.2 22.4 Z M 17.8 18.2 C 18.0 18.0 18.3 17.9 18.2 18.2 C 18.0 18.3 17.7 18.8 17.8 18.2 C 17.8 18.2 17.8 18.2 17.8 18.2 Z M 17.2 17.0 C 17.7 16.5 17.6 17.6 17.5 17.6 C 17.1 17.8 16.8 17.3 17.2 17.0 C 17.2 17.0 17.2 17.0 17.2 17.0 Z M 18.5 17.8 C 18.9 17.3 18.6 18.1 18.5 17.8 C 18.5 17.8 18.5 17.8 18.5 17.8 Z M 17.6 22.9 C 18.1 22.4 17.7 23.2 17.6 22.9 C 17.6 22.9 17.6 22.9 17.6 22.9 Z M 20.3 19.9 C 20.8 19.3 20.4 20.3 20.3 19.9 C 20.3 19.9 20.3 19.9 20.3 19.9 Z M 16.4 20.3 C 16.0 21.2 15.6 20.2 16.4 20.3 C 16.4 20.3 16.4 20.3 16.4 20.3 Z M 17.8 15.7 C 17.4 16.5 16.8 15.9 17.8 15.7 C 17.8 15.7 17.8 15.7 17.8 15.7 Z M 17.1 21.2 C 17.7 21.9 17.2 18.8 16.5 20.2 C 15.7 20.8 14.6 18.6 15.9 19.0 C 15.7 18.4 15.8 18.4 15.1 18.1 C 15.8 17.9 15.6 16.6 14.9 16.1 C 13.9 15.8 15.2 17.0 14.0 16.2 C 12.8 14.4 13.3 16.3 11.9 15.5 C 11.8 15.4 12.3 15.4 11.9 15.2 C 10.9 15.0 10.9 16.2 9.9 15.6 C 10.3 15.9 10.2 17.6 10.6 16.9 C 11.3 16.7 10.6 18.8 11.8 18.5 C 11.5 19.1 12.6 19.6 12.2 20.2 C 12.3 20.7 12.9 20.5 13.0 20.4 C 13.6 20.3 12.0 21.2 13.4 21.6 C 13.1 21.8 14.2 23.6 13.9 22.1 C 14.0 22.5 14.8 24.6 15.3 23.1 C 15.1 21.6 17.0 23.9 16.3 22.4 C 15.8 21.2 15.5 21.1 16.4 21.7 C 16.5 22.0 17.3 23.2 17.2 21.9 C 16.9 21.7 16.7 21.2 17.1 21.2 C 17.1 21.2 17.1 21.2 17.1 21.2 Z M 15.7 22.1 C 15.3 21.4 16.1 21.9 15.7 22.1 C 15.7 22.1 15.7 22.1 15.7 22.1 Z M 11.9 20.2 C 11.4 19.4 12.3 20.0 11.9 20.2 C 11.9 20.2 11.9 20.2 11.9 20.2 Z M 16.4 19.3 C 15.9 19.1 17.1 18.8 16.4 19.3 C 16.4 19.3 16.4 19.3 16.4 19.3 Z M 13.5 21.2 C 13.5 21.2 13.7 21.3 13.8 21.4 C 13.8 21.4 13.5 21.3 13.5 21.2 C 13.5 21.2 13.5 21.2 13.5 21.2 Z M 15.9 18.4 C 14.8 17.6 16.8 18.1 15.9 18.4 C 15.9 18.4 15.9 18.4 15.9 18.4 Z M 13.7 16.6 C 12.4 16.5 13.5 15.7 13.7 16.6 C 13.7 16.6 13.7 16.6 13.7 16.6 Z M 11.7 18.1 C 12.1 18.3 11.6 18.3 11.7 18.1 C 11.7 18.1 11.7 18.1 11.7 18.1 Z M 14.2 23.1 C 14.5 23.2 14.1 23.4 14.2 23.1 C 14.2 23.1 14.2 23.1 14.2 23.1 Z M 11.1 16.7 C 11.6 16.8 11.0 17.2 11.1 16.7 C 11.1 16.7 11.1 16.7 11.1 16.7 Z M 15.9 19.3 C 17.2 19.8 15.1 20.6 15.9 19.3 C 15.9 19.3 15.9 19.3 15.9 19.3 Z M 16.7 20.7 C 17.2 21.2 16.1 20.8 16.1 20.5 C 16.2 20.5 16.6 20.6 16.7 20.7 C 16.7 20.7 16.7 20.7 16.7 20.7 Z M 15.3 18.4 C 16.1 18.9 15.3 19.0 15.3 18.4 C 15.3 18.4 15.3 18.4 15.3 18.4 Z M 16.6 19.7 C 16.6 20.0 16.3 19.5 16.6 19.7 C 16.6 19.7 16.6 19.7 16.6 19.7 Z M 15.8 17.3 C 15.8 17.6 15.5 17.1 15.8 17.3 C 15.8 17.3 15.8 17.3 15.8 17.3 Z M 17.5 21.2 C 17.6 21.5 17.3 21.0 17.5 21.2 C 17.5 21.2 17.5 21.2 17.5 21.2 Z M 15.2 17.6 C 14.7 17.5 14.2 18.4 14.2 16.8 C 14.4 16.6 15.4 17.2 15.2 17.6 C 15.2 17.6 15.2 17.6 15.2 17.6 Z M 19.7 13.9 C 16.9 16.5 19.8 15.8 20.2 15.9 C 20.7 16.2 21.4 15.8 22.2 15.1 C 24.3 14.2 21.0 14.4 22.9 13.6 C 25.8 12.2 21.3 13.2 24.1 12.2 C 24.7 12.2 24.8 11.0 24.6 11.2 C 26.2 10.2 24.4 10.0 24.1 10.1 C 24.7 9.6 27.2 8.6 26.1 8.0 C 25.9 7.4 28.8 5.7 26.8 6.8 C 29.3 5.1 26.5 6.6 27.5 5.6 C 29.0 4.4 25.7 6.4 28.5 4.4 C 26.9 4.9 29.4 4.2 29.5 2.3 C 29.0 3.1 28.8 2.8 28.9 2.4 C 28.5 2.5 28.3 2.4 29.0 2.1 C 31.3 1.3 27.0 2.4 26.3 1.9 C 25.4 2.4 22.7 3.4 24.0 2.3 C 23.6 0.9 21.9 3.1 22.1 2.0 C 21.9 1.5 21.1 2.5 20.8 2.4 C 20.7 1.6 19.9 2.2 18.1 1.9 C 13.8 1.5 17.1 4.0 16.0 4.3 C 15.8 4.7 16.8 7.3 16.7 5.3 C 16.8 5.9 19.7 3.8 17.6 6.0 C 18.7 5.1 17.2 6.9 18.9 5.9 C 17.3 4.3 21.7 5.2 19.1 6.0 C 19.0 6.5 19.8 6.4 19.6 6.0 C 20.5 4.6 20.1 6.6 21.2 4.9 C 22.0 5.4 23.5 3.9 22.6 4.9 C 20.5 6.8 23.1 4.5 23.1 5.0 C 24.8 5.0 20.4 7.1 23.3 5.7 C 23.3 5.8 23.3 5.8 23.3 5.8 C 21.5 7.7 24.7 5.1 24.8 5.4 C 26.8 4.4 22.4 7.9 22.7 6.9 C 23.5 6.9 21.7 7.5 22.6 7.5 C 24.8 6.0 20.2 9.3 21.8 8.4 C 21.9 8.8 23.2 7.9 23.1 8.1 C 22.6 9.1 21.0 9.6 22.2 9.2 C 22.8 9.1 20.3 10.5 20.8 10.3 C 21.4 9.4 22.2 10.4 21.2 10.9 C 21.4 10.3 18.9 11.9 20.0 11.8 C 23.9 10.1 18.7 12.9 19.7 12.9 C 21.9 12.0 18.9 14.9 18.5 14.2 C 18.6 14.2 19.7 13.9 19.7 13.9 M 21.0 10.5 C 21.6 9.6 21.0 11.2 21.0 10.5 M 20.4 10.7 C 21.3 10.1 19.6 11.6 20.2 10.8 C 20.2 10.8 20.4 10.8 20.4 10.7 M 22.0 7.7 C 22.6 7.5 21.4 8.3 22.0 7.7 M 23.7 6.3 C 24.6 5.5 23.4 7.0 23.7 6.3 M 18.1 5.5 C 20.0 3.3 18.1 6.7 18.1 5.5 M 22.0 5.9 C 23.2 5.6 20.5 6.8 22.0 5.9 M 23.0 5.4 C 23.9 5.0 22.4 5.9 23.0 5.4 M 19.4 5.5 C 19.4 5.4 19.4 5.4 19.4 5.5 C 19.4 5.5 19.4 5.5 19.4 5.5 Z M 17.4 5.4 C 17.4 5.5 17.4 5.5 17.4 5.4 C 17.4 5.4 17.4 5.4 17.4 5.4 Z M 21.6 5.3 C 21.6 5.8 20.4 5.5 21.6 5.3 C 21.6 5.3 21.6 5.3 21.6 5.3 Z M 19.9 2.2 C 20.0 2.1 20.0 2.1 19.9 2.2 C 19.9 2.2 19.9 2.2 19.9 2.2 Z M 22.0 10.6 C 22.1 10.6 22.1 10.6 22.0 10.6 C 22.0 10.6 22.0 10.6 22.0 10.6 Z M 19.6 13.4 C 20.0 13.2 19.1 13.9 19.6 13.4 C 19.6 13.4 19.6 13.4 19.6 13.4 Z M 21.6 14.9 C 21.6 15.0 21.6 15.0 21.6 14.9 C 21.6 14.9 21.6 14.9 21.6 14.9 Z M 23.1 10.9 C 23.2 10.9 23.2 10.9 23.1 10.9 C 23.1 10.9 23.1 10.9 23.1 10.9 Z M 21.2 11.3 C 19.3 12.2 22.1 10.2 21.2 11.3 C 21.2 11.3 21.2 11.3 21.2 11.3 Z M 26.3 2.3 C 25.6 2.8 25.6 2.1 26.3 2.3 C 26.3 2.3 26.3 2.3 26.3 2.3 Z M 24.5 5.8 C 24.1 6.0 24.9 5.3 24.5 5.8 C 24.5 5.8 24.5 5.8 24.5 5.8 Z M 21.3 8.5 C 20.9 8.6 21.7 8.1 21.3 8.5 C 21.3 8.5 21.3 8.5 21.3 8.5 Z M 19.2 13.4 C 19.2 13.4 19.2 13.4 19.2 13.4 C 19.2 13.4 19.2 13.4 19.2 13.4 Z M 20.9 12.3 C 19.1 13.2 22.2 11.0 20.9 12.3 C 20.9 12.3 20.9 12.3 20.9 12.3 Z M 20.7 13.2 C 21.5 12.7 20.1 14.1 20.7 13.2 M 23.3 12.0 C 23.1 11.3 25.4 12.2 23.3 12.0 C 23.3 12.0 23.3 12.0 23.3 12.0 Z M 26.3 7.2 C 26.4 7.1 26.4 7.1 26.3 7.2 C 26.3 7.2 26.3 7.2 26.3 7.2 Z M 21.3 9.8 C 21.7 9.1 21.5 10.0 21.3 9.8 C 21.3 9.8 21.3 9.8 21.3 9.8 Z M 18.1 15.2 C 18.5 14.6 18.2 15.6 18.1 15.2 C 18.1 15.2 18.1 15.2 18.1 15.2 Z M 26.1 5.4 C 26.4 4.4 26.6 5.7 26.1 5.4 C 26.1 5.4 26.1 5.4 26.1 5.4 Z M 22.5 4.8 C 22.5 4.8 22.5 4.8 22.5 4.8 C 22.5 4.8 22.5 4.8 22.5 4.8 Z M 21.2 5.3 C 21.2 5.3 21.2 5.3 21.2 5.3 C 21.2 5.3 21.2 5.3 21.2 5.3 Z M 18.7 4.2 C 18.7 4.1 18.7 4.1 18.7 4.2 C 18.7 4.2 18.7 4.2 18.7 4.2 Z M 20.1 5.8 C 20.1 5.8 20.1 5.8 20.1 5.8 C 20.1 5.8 20.1 5.8 20.1 5.8 Z M 18.4 5.5 C 18.4 5.5 18.4 5.5 18.4 5.5 C 18.4 5.5 18.4 5.5 18.4 5.5 Z M 18.1 6.5 C 18.1 6.4 18.1 6.4 18.1 6.5 C 18.1 6.5 18.1 6.5 18.1 6.5 Z M 28.9 1.7 C 28.8 1.6 28.8 1.6 28.9 1.7 C 28.9 1.7 28.9 1.7 28.9 1.7 Z M 19.3 12.5 C 19.5 12.4 19.5 12.4 19.3 12.5 C 19.3 12.5 19.3 12.5 19.3 12.5 Z M 18.8 5.1 C 18.8 5.1 18.8 5.1 18.8 5.1 C 18.8 5.1 18.8 5.1 18.8 5.1 Z M 25.4 4.2 C 26.9 3.3 23.9 5.5 25.2 4.3 C 25.3 4.2 25.2 4.4 25.4 4.2 M 26.8 2.7 C 26.9 2.6 26.9 2.6 26.8 2.7 C 26.8 2.7 26.8 2.7 26.8 2.7 Z M 28.7 3.6 C 28.7 3.6 28.7 3.6 28.7 3.6 C 28.7 3.6 28.7 3.6 28.7 3.6 Z M 20.2 6.0 C 19.8 6.5 20.1 5.6 20.3 6.0 M 19.4 2.5 C 19.3 3.0 18.6 2.1 19.6 2.5 M 18.2 15.9 C 18.6 15.9 17.7 16.3 18.2 15.9 M 29.1 3.8 C 29.7 3.6 28.5 4.6 29.1 3.8 M 27.9 3.5 C 27.0 4.1 29.0 2.4 27.9 3.6 M 21.9 2.5 C 21.8 2.5 21.8 2.5 21.9 2.5 C 21.9 2.5 21.9 2.5 21.9 2.5 Z M 22.0 8.7 C 22.0 8.7 22.0 8.7 22.0 8.7 C 22.0 8.7 22.0 8.7 22.0 8.7 Z M 25.3 4.9 C 23.9 6.0 26.4 3.9 25.3 4.9 M 23.4 8.7 C 21.8 9.9 24.4 7.5 23.4 8.7 M 17.6 2.3 C 18.2 3.4 16.9 1.7 17.6 2.3 M 20.4 5.0 C 20.0 6.1 20.3 4.4 20.4 5.0 M 23.0 7.8 C 22.1 8.3 23.9 6.9 23.0 7.8 M 18.8 14.5 C 18.4 15.1 18.7 13.8 18.8 14.5 M 24.3 2.5 C 24.3 2.5 24.3 2.5 24.3 2.5 C 24.3 2.5 24.3 2.5 24.3 2.5 Z M 25.4 11.0 C 25.4 10.9 25.4 10.9 25.4 11.0 C 25.4 11.0 25.4 11.0 25.4 11.0 Z M 16.2 5.8 C 16.2 5.8 16.2 5.8 16.2 5.8 C 16.2 5.8 16.2 5.8 16.2 5.8 Z M 21.2 4.5 C 21.2 4.4 21.2 4.4 21.2 4.5 C 21.2 4.5 21.2 4.5 21.2 4.5 Z M 17.2 6.0 C 17.2 5.9 17.2 5.9 17.2 6.0 C 17.2 6.0 17.2 6.0 17.2 6.0 Z M 24.6 3.6 C 24.6 3.6 24.6 3.6 24.6 3.6 C 24.6 3.6 24.6 3.6 24.6 3.6 Z M 21.3 6.4 C 21.3 6.4 21.3 6.4 21.3 6.4 C 21.3 6.4 21.3 6.4 21.3 6.4 Z M 23.9 6.0 C 23.9 6.0 23.9 6.0 23.9 6.0 C 23.9 6.0 23.9 6.0 23.9 6.0 Z M 20.8 6.2 C 19.6 6.3 22.5 5.3 20.8 6.2 C 20.8 6.2 20.8 6.2 20.8 6.2 Z M 27.1 3.4 C 27.1 3.4 27.1 3.4 27.1 3.4 C 27.1 3.4 27.1 3.4 27.1 3.4 Z M 24.0 5.4 C 24.0 5.4 24.0 5.4 24.0 5.4 C 22.2 6.1 25.5 4.2 24.2 5.3 C 24.1 5.3 24.1 5.4 24.0 5.4 M 21.1 9.4 C 20.6 9.5 22.2 8.8 21.1 9.4 M 25.6 8.7 C 25.7 8.6 25.7 8.6 25.6 8.7 C 25.6 8.7 25.6 8.7 25.6 8.7 Z M 25.5 8.4 C 25.5 8.3 25.5 8.3 25.5 8.4 C 25.5 8.4 25.5 8.4 25.5 8.4 Z M 20.5 10.3 C 20.5 10.3 20.5 10.3 20.5 10.3 C 20.5 10.3 20.5 10.3 20.5 10.3 Z M 27.0 7.7 C 27.1 7.6 27.1 7.6 27.0 7.7 C 27.0 7.7 27.0 7.7 27.0 7.7 Z M 21.8 6.3 C 21.8 6.3 21.8 6.3 21.8 6.3 C 21.8 6.3 21.8 6.3 21.8 6.3 Z M 16.7 6.4 C 16.7 6.3 16.7 6.3 16.7 6.4 C 16.7 6.4 16.7 6.4 16.7 6.4 Z M 22.6 13.6 C 22.6 13.6 22.6 13.6 22.6 13.6 C 22.6 13.6 22.6 13.6 22.6 13.6 Z M 22.7 5.2 C 22.7 5.2 22.7 5.2 22.7 5.2 C 22.7 5.2 22.7 5.2 22.7 5.2 Z M 24.8 9.9 C 24.9 9.8 24.9 9.8 24.8 9.9 C 24.8 9.9 24.8 9.9 24.8 9.9 Z M 22.8 5.5 C 22.8 5.5 22.8 5.5 22.8 5.5 C 22.8 5.5 22.8 5.5 22.8 5.5 Z M 24.9 2.3 C 24.8 2.3 24.8 2.3 24.9 2.3 C 24.9 2.3 24.9 2.3 24.9 2.3 Z M 23.1 1.7 C 23.1 1.6 23.1 1.6 23.1 1.7 C 23.1 1.7 23.1 1.7 23.1 1.7 Z M 22.9 4.2 C 22.8 4.2 22.8 4.2 22.9 4.2 C 22.9 4.2 22.9 4.2 22.9 4.2 Z M 22.9 11.0 C 20.1 14.1 23.5 9.0 22.9 11.0 M 22.6 4.0 C 24.5 4.2 19.9 5.0 22.6 4.0 C 22.0 4.2 22.5 4.0 22.6 4.0 M 15.7 6.3 C 16.3 5.3 16.4 4.3 16.0 3.2 C 15.4 2.7 15.6 4.8 15.4 3.0 C 16.7 2.7 14.4 0.5 14.9 2.7 C 13.3 3.0 14.3 1.3 13.4 2.1 C 11.6 2.4 12.2 1.7 10.7 1.8 C 10.8 3.0 9.4 1.3 9.9 2.4 C 9.7 1.1 8.7 2.7 8.0 2.2 C 8.8 1.4 2.9 2.2 6.9 2.5 C 6.3 3.1 5.1 2.1 4.4 1.9 C 4.7 2.3 3.6 2.1 2.6 1.9 C 2.6 2.3 2.7 2.6 3.4 3.2 C 3.6 3.2 3.5 2.9 3.8 3.1 C 4.5 3.3 4.1 3.7 4.1 3.7 C 4.8 4.4 6.9 6.7 3.8 3.7 C 2.8 3.1 5.1 5.5 4.2 5.1 C 5.1 6.8 6.3 6.4 5.3 6.5 C 5.9 7.6 6.3 8.5 6.6 8.6 C 6.7 9.2 5.9 9.0 7.1 10.0 C 6.2 11.0 11.1 12.1 7.9 11.6 C 9.0 12.2 7.0 12.1 9.0 12.5 C 7.8 11.8 8.8 14.8 9.5 13.7 C 10.2 14.1 8.8 15.7 10.5 15.6 C 12.2 16.3 13.6 16.3 14.3 15.3 C 13.2 15.2 14.9 14.4 13.3 14.8 C 13.2 15.7 11.6 12.8 12.7 13.6 C 15.2 14.3 10.4 11.7 11.9 11.7 C 11.1 11.9 9.3 9.2 11.7 10.7 C 11.7 10.4 10.6 9.9 11.6 10.0 C 12.1 11.2 9.1 8.5 10.5 9.1 C 11.4 9.7 11.0 8.1 9.9 7.7 C 7.2 6.9 10.2 7.5 8.8 6.5 C 7.5 4.9 11.6 8.1 8.9 6.0 C 8.9 6.1 8.9 5.9 8.9 5.7 C 9.5 5.8 10.0 5.9 9.9 6.2 C 9.2 6.0 7.6 4.1 10.1 5.7 C 10.1 6.7 12.3 6.2 11.3 5.7 C 7.5 4.8 13.0 4.7 11.8 5.6 C 13.5 6.5 11.8 6.0 12.7 5.6 C 12.1 5.0 12.9 4.5 13.3 5.6 C 14.4 7.2 12.5 3.5 14.5 5.6 C 14.9 6.6 16.0 4.9 15.5 6.0 C 15.5 6.1 15.7 6.3 15.7 6.3 M 15.3 6.1 C 15.4 5.7 15.6 6.5 15.3 6.1 M 15.4 5.7 C 15.4 5.8 15.4 5.8 15.4 5.7 C 15.4 5.7 15.4 5.7 15.4 5.7 Z M 12.8 5.5 C 12.9 5.6 12.9 5.6 12.8 5.5 C 12.8 5.5 12.8 5.5 12.8 5.5 Z M 6.3 1.5 C 6.4 1.6 6.4 1.6 6.3 1.5 C 6.3 1.5 6.3 1.5 6.3 1.5 Z M 11.1 5.4 C 11.1 5.4 11.1 5.4 11.1 5.4 C 11.1 5.4 11.1 5.4 11.1 5.4 Z M 13.6 5.3 C 13.6 5.3 13.6 5.3 13.6 5.3 C 13.6 5.3 13.6 5.3 13.6 5.3 Z M 11.8 6.0 C 11.1 5.4 12.8 6.4 11.9 6.1 C 11.9 6.0 12.0 6.0 11.8 6.0 M 10.2 6.2 C 10.1 6.2 10.1 6.2 10.2 6.2 M 5.1 7.4 C 5.0 7.4 5.0 7.4 5.1 7.4 M 12.2 10.7 C 12.1 10.7 12.1 10.7 12.2 10.7 M 9.6 7.2 C 10.1 8.0 9.2 7.1 9.6 7.2 M 12.6 12.3 C 12.7 11.6 13.5 13.3 12.6 12.3 M 13.5 13.2 C 13.5 13.3 13.5 13.3 13.5 13.2 M 11.2 9.4 C 11.1 9.3 11.1 9.3 11.2 9.4 C 11.2 9.4 11.2 9.4 11.2 9.4 Z M 9.8 7.1 C 9.9 6.6 11.1 8.5 9.8 7.1 M 13.0 6.1 C 12.8 6.4 12.4 5.3 13.0 6.1 M 13.7 5.7 C 13.7 5.7 13.7 5.7 13.7 5.7 C 13.7 5.7 13.7 5.7 13.7 5.7 Z M 11.9 11.0 C 11.9 10.9 11.9 10.9 11.9 11.0 C 11.9 11.0 11.9 11.0 11.9 11.0 Z M 12.6 12.0 C 12.6 11.9 12.6 11.9 12.6 12.0 C 12.6 12.0 12.6 12.0 12.6 12.0 Z M 7.8 12.2 C 7.8 12.1 7.8 12.1 7.8 12.2 C 7.8 12.2 7.8 12.2 7.8 12.2 Z M 11.7 3.9 C 12.7 4.2 12.0 5.4 11.2 4.3 C 10.8 3.9 11.6 4.0 11.7 3.9 M 7.3 5.3 C 5.0 4.1 10.3 6.5 7.3 5.3 M 12.3 13.0 C 10.4 13.2 13.5 12.7 12.3 13.0 M 13.4 14.5 C 13.2 14.8 11.8 11.8 13.5 14.1 C 14.0 14.3 13.6 14.4 13.4 14.5 M 9.1 5.5 C 7.6 4.7 10.6 5.9 9.1 5.5 M 6.7 7.4 C 7.7 8.1 8.9 9.4 7.4 8.4 C 5.7 7.7 5.8 6.6 6.7 7.4 M 14.9 5.3 C 14.8 6.6 14.6 4.1 14.9 5.3 M 12.1 5.1 C 12.2 5.2 12.2 5.2 12.1 5.1 C 12.1 5.1 12.1 5.1 12.1 5.1 Z M 11.3 5.4 C 11.1 5.2 11.1 5.2 11.3 5.4 M 14.9 6.4 C 14.8 6.3 14.8 6.3 14.9 6.4 M 8.8 8.3 C 8.6 8.3 8.6 8.3 8.8 8.3 M 8.9 6.7 C 7.5 6.7 8.2 5.9 8.9 6.7 M 5.7 2.8 C 4.3 2.2 6.6 2.7 5.7 2.8 M 10.6 8.8 C 9.1 8.7 8.2 6.9 10.6 8.8 M 8.9 6.3 C 8.9 6.4 8.9 6.4 8.9 6.3 C 8.9 6.3 8.9 6.3 8.9 6.3 Z M 6.7 7.6 C 6.7 7.6 6.7 7.6 6.7 7.6 C 6.7 7.6 6.7 7.6 6.7 7.6 Z M 7.0 8.0 C 6.9 8.0 6.9 8.0 7.0 8.0 C 7.0 8.0 7.0 8.0 7.0 8.0 Z M 11.2 9.7 C 11.2 9.7 11.2 9.7 11.2 9.7 C 11.2 9.7 11.2 9.7 11.2 9.7 Z M 11.9 2.4 C 10.6 2.3 12.7 2.2 11.9 2.4 C 11.9 2.4 11.9 2.4 11.9 2.4 Z M 11.1 6.0 C 8.6 5.0 10.9 5.1 11.1 6.0 C 11.1 6.0 11.1 6.0 11.1 6.0 Z M 7.5 4.4 C 7.4 4.3 7.4 4.3 7.5 4.4 C 7.5 4.4 7.5 4.4 7.5 4.4 Z M 11.5 8.9 C 11.4 8.9 11.4 8.9 11.5 8.9 C 11.5 8.9 11.5 8.9 11.5 8.9 Z M 11.2 2.2 C 11.1 2.1 11.1 2.1 11.2 2.2 C 11.2 2.2 11.2 2.2 11.2 2.2 Z M 11.4 11.4 C 11.3 11.4 11.3 11.4 11.4 11.4 C 11.4 11.4 11.4 11.4 11.4 11.4 Z M 5.1 5.1 C 6.0 5.8 4.6 4.8 5.1 5.1 C 5.1 5.1 5.1 5.1 5.1 5.1 Z M 5.8 6.4 C 5.9 6.4 5.9 6.4 5.8 6.4 C 5.8 6.4 5.8 6.4 5.8 6.4 Z M 13.8 13.5 C 13.8 13.5 13.8 13.5 13.8 13.5 C 13.8 13.5 13.8 13.5 13.8 13.5 Z M 6.0 9.2 C 6.0 9.2 6.0 9.2 6.0 9.2 C 6.0 9.2 6.0 9.2 6.0 9.2 Z M 8.6 11.0 C 8.6 11.0 8.6 11.0 8.6 11.0 C 8.6 11.0 8.6 11.0 8.6 11.0 Z M 10.7 9.4 C 11.6 10.6 9.7 8.7 10.7 9.4 C 10.7 9.4 10.7 9.4 10.7 9.4 Z M 10.8 14.3 C 10.8 14.4 10.8 14.4 10.8 14.3 C 10.8 14.3 10.8 14.3 10.8 14.3 Z M 13.2 15.2 C 13.1 15.3 13.1 15.3 13.2 15.2 C 13.2 15.2 13.2 15.2 13.2 15.2 Z M 14.4 15.6 C 14.4 15.7 14.4 15.7 14.4 15.6 C 14.4 15.6 14.4 15.6 14.4 15.6 Z M 9.4 3.5 C 9.5 3.6 9.5 3.6 9.4 3.5 C 9.4 3.5 9.4 3.5 9.4 3.5 Z M 12.6 6.3 C 12.6 6.3 12.6 6.3 12.6 6.3 C 12.6 6.3 12.6 6.3 12.6 6.3 Z M 11.6 6.4 C 11.6 6.4 11.6 6.4 11.6 6.4 C 11.6 6.4 11.6 6.4 11.6 6.4 Z M 8.2 1.9 C 8.2 1.9 8.2 1.9 8.2 1.9 C 8.2 1.9 8.2 1.9 8.2 1.9 Z M 7.6 6.6 C 7.7 6.6 7.7 6.6 7.6 6.6 C 7.6 6.6 7.6 6.6 7.6 6.6 Z M 6.2 6.3 C 6.3 6.4 6.3 6.4 6.2 6.3 C 6.2 6.3 6.2 6.3 6.2 6.3 Z M 3.1 3.5 C 3.1 3.5 3.1 3.5 3.1 3.5 C 3.1 3.5 3.1 3.5 3.1 3.5 Z M 5.0 6.1 C 5.1 6.1 5.1 6.1 5.0 6.1 C 5.0 6.1 5.0 6.1 5.0 6.1 Z M 14.6 2.4 C 14.6 2.4 14.6 2.4 14.6 2.4 C 14.6 2.4 14.6 2.4 14.6 2.4 Z M 15.1 4.5 C 15.2 4.4 15.2 4.4 15.1 4.5 C 15.1 4.5 15.1 4.5 15.1 4.5 Z M 10.1 8.0 C 10.9 8.6 9.5 8.1 10.1 8.0 M 8.6 5.7 C 8.5 5.7 8.5 5.7 8.6 5.7 C 8.6 5.7 8.6 5.7 8.6 5.7 Z M 11.8 11.4 C 10.8 11.3 11.9 10.7 11.8 11.4 C 11.8 11.4 11.8 11.4 11.8 11.4 Z M 6.2 8.3 C 6.2 8.3 6.2 8.3 6.2 8.3 C 6.2 8.3 6.2 8.3 6.2 8.3 Z M 7.1 9.2 C 7.0 9.2 7.0 9.2 7.1 9.2 C 7.1 9.2 7.1 9.2 7.1 9.2 Z M 12.0 13.6 C 11.9 13.6 11.9 13.6 12.0 13.6 M 9.7 6.2 C 9.7 6.2 9.7 6.2 9.7 6.2 C 8.7 5.9 8.9 5.9 9.7 6.2 C 9.7 6.2 9.7 6.2 9.7 6.2 M 12.2 12.1 C 12.1 12.1 12.1 12.1 12.2 12.1 C 12.2 12.1 12.2 12.1 12.2 12.1 Z M 12.9 14.4 C 12.9 14.4 12.9 14.4 12.9 14.4 C 12.9 14.4 12.9 14.4 12.9 14.4 Z M 10.1 5.6 C 8.7 4.6 9.4 4.9 10.1 5.6 M 13.9 5.3 C 13.8 5.3 13.8 5.3 13.9 5.3 C 13.9 5.3 13.9 5.3 13.9 5.3 Z M 13.9 5.3 " fill="#FEFFFE"></path></g></svg>