<?xml version="1.0" encoding="UTF-8" standalone="no"?><svg xmlns="http://www.w3.org/2000/svg" xmlns:xlink="http://www.w3.org/1999/xlink" clip-rule="evenodd" stroke-miterlimit="10" viewBox="0 0 28 30"><desc>SVG generated by Keynote</desc><defs></defs><g transform="matrix(1.00, 0.00, -0.00, -1.00, 0.0, 30.0)"><path d="M 11.8 25.1 C 11.7 25.2 11.0 25.0 10.9 25.1 M 11.8 25.1 C 10.9 24.1 9.9 24.1 8.5 23.9 C 7.1 23.9 8.8 24.8 8.7 25.1 C 6.8 25.5 6.7 24.8 6.8 23.9 C 6.2 24.5 4.0 23.3 4.5 24.6 C 7.6 24.6 2.3 24.9 5.0 25.6 C 5.3 25.8 4.5 26.1 4.2 26.1 C 5.2 26.6 3.6 27.2 5.2 27.6 C 5.4 28.4 5.1 28.0 6.2 28.6 C 6.7 28.7 6.5 28.4 6.4 28.3 C 6.4 27.4 7.7 28.8 8.5 28.2 C 9.6 29.4 10.0 28.0 9.2 27.5 C 10.0 27.6 11.3 28.9 11.8 28.0 C 12.4 28.6 14.4 28.2 12.8 27.5 C 11.8 27.0 12.6 26.6 12.6 26.4 C 12.2 26.1 11.1 26.5 10.9 26.2 C 11.2 26.1 12.5 25.6 10.9 25.7 C 11.3 25.2 10.4 25.0 11.8 25.1 C 11.8 25.1 11.8 25.1 11.8 25.1 Z M 6.4 24.4 C 6.4 24.1 6.9 24.4 6.4 24.4 C 6.4 24.4 6.4 24.4 6.4 24.4 Z M 11.3 28.6 C 11.2 28.3 11.9 28.6 11.3 28.6 C 11.3 28.6 11.3 28.6 11.3 28.6 Z M 6.7 28.3 C 6.6 28.0 7.3 28.3 6.7 28.3 C 6.7 28.3 6.7 28.3 6.7 28.3 Z M 7.8 24.6 C 8.7 24.9 7.2 25.0 7.0 24.7 C 7.2 24.8 7.5 24.3 7.8 24.6 C 7.8 24.6 7.8 24.6 7.8 24.6 Z M 8.3 26.4 C 8.4 26.3 8.7 26.3 8.8 26.6 C 8.5 26.7 8.3 26.5 8.3 26.4 C 8.3 26.4 8.3 26.4 8.3 26.4 Z M 3.9 25.1 C 3.9 25.0 4.3 25.0 4.2 25.3 C 4.0 25.4 3.8 25.2 3.9 25.1 C 3.9 25.1 3.9 25.1 3.9 25.1 Z M 8.9 25.4 C 9.2 25.5 9.3 25.8 9.1 25.8 C 8.9 25.7 8.3 25.6 8.9 25.4 C 8.9 25.4 8.9 25.4 8.9 25.4 Z M 9.9 24.4 C 10.7 24.5 9.4 25.0 9.4 24.9 C 9.1 24.6 9.5 24.1 9.9 24.4 C 9.9 24.4 9.9 24.4 9.9 24.4 Z M 9.5 25.9 C 10.1 26.0 9.3 26.1 9.5 25.9 C 9.5 25.9 9.5 25.9 9.5 25.9 Z M 4.5 27.5 C 5.2 27.6 4.3 27.7 4.5 27.5 C 4.5 27.5 4.5 27.5 4.5 27.5 Z M 8.2 28.5 C 8.9 28.6 7.9 28.7 8.2 28.5 C 8.2 28.5 8.2 28.5 8.2 28.5 Z M 6.4 25.2 C 5.4 25.2 6.1 24.4 6.4 25.2 C 6.4 25.2 6.4 25.2 6.4 25.2 Z M 11.4 24.3 C 10.5 24.3 11.0 23.5 11.4 24.3 C 11.4 24.3 11.4 24.3 11.4 24.3 Z M 5.4 25.0 C 5.5 25.9 6.6 22.6 5.3 23.7 C 4.3 24.0 4.4 21.5 5.4 22.3 C 5.5 21.6 5.5 21.6 5.0 21.1 C 5.8 21.2 6.2 19.7 5.8 19.0 C 5.1 18.4 5.7 20.0 5.0 18.8 C 4.8 16.6 4.3 18.7 3.4 17.6 C 3.5 17.5 3.9 17.6 3.6 17.3 C 2.8 16.9 2.3 18.0 1.7 17.2 C 1.8 17.6 1.0 19.1 1.7 18.6 C 2.4 18.6 0.8 20.3 2.0 20.5 C 1.4 20.9 2.2 21.7 1.5 22.1 C 1.4 22.6 2.0 22.6 2.2 22.6 C 2.7 22.6 0.9 22.9 1.9 23.8 C 1.6 23.8 1.7 25.8 2.2 24.4 C 2.1 24.8 1.8 27.0 2.9 25.8 C 3.4 24.4 4.0 27.4 4.1 25.7 C 4.2 24.4 4.0 24.1 4.6 25.1 C 4.5 25.4 4.6 26.9 5.1 25.6 C 5.0 25.4 5.1 24.8 5.4 25.0 C 5.4 25.0 5.4 25.0 5.4 25.0 Z M 3.8 25.1 C 3.7 24.4 4.2 25.1 3.8 25.1 C 3.8 25.1 3.8 25.1 3.8 25.1 Z M 1.3 22.0 C 1.2 21.1 1.7 22.0 1.3 22.0 C 1.3 22.0 1.3 22.0 1.3 22.0 Z M 5.7 22.8 C 5.3 22.4 6.5 22.5 5.7 22.8 C 5.7 22.8 5.7 22.8 5.7 22.8 Z M 2.2 23.5 C 2.2 23.4 2.3 23.6 2.4 23.8 C 2.3 23.8 2.2 23.5 2.2 23.5 C 2.2 23.5 2.2 23.5 2.2 23.5 Z M 5.7 21.7 C 5.1 20.5 6.5 21.7 5.7 21.7 C 5.7 21.7 5.7 21.7 5.7 21.7 Z M 4.6 19.2 C 3.4 18.7 4.8 18.2 4.6 19.2 C 4.6 19.2 4.6 19.2 4.6 19.2 Z M 2.1 20.1 C 2.3 20.4 1.9 20.3 2.1 20.1 C 2.1 20.1 2.1 20.1 2.1 20.1 Z M 1.9 25.4 C 2.1 25.6 1.7 25.6 1.9 25.4 C 1.9 25.4 1.9 25.4 1.9 25.4 Z M 2.2 18.6 C 2.6 18.8 1.9 19.0 2.2 18.6 C 2.2 18.6 2.2 18.6 2.2 18.6 Z M 5.2 22.6 C 6.1 23.6 3.9 23.6 5.2 22.6 C 5.2 22.6 5.2 22.6 5.2 22.6 Z M 5.3 24.3 C 5.5 25.0 4.7 24.1 4.9 23.8 C 4.9 23.9 5.2 24.2 5.3 24.3 C 5.3 24.3 5.3 24.3 5.3 24.3 Z M 5.1 21.5 C 5.5 22.3 4.8 22.1 5.1 21.5 C 5.1 21.5 5.1 21.5 5.1 21.5 Z M 5.6 23.3 C 5.5 23.6 5.5 23.0 5.6 23.3 C 5.6 23.3 5.6 23.3 5.6 23.3 Z M 6.0 20.5 C 5.9 20.8 5.9 20.2 6.0 20.5 C 6.0 20.5 6.0 20.5 6.0 20.5 Z M 5.8 25.1 C 5.6 25.4 5.6 24.9 5.8 25.1 C 5.8 25.1 5.8 25.1 5.8 25.1 Z M 5.4 20.6 C 5.0 20.4 4.1 21.1 4.9 19.6 C 5.2 19.4 5.8 20.2 5.4 20.6 C 5.4 20.6 5.4 20.6 5.4 20.6 Z M 14.9 25.1 C 10.1 23.8 12.0 26.1 11.9 26.5 C 11.5 27.1 12.3 27.5 13.5 27.9 C 15.2 29.3 14.3 26.4 15.8 27.8 C 18.3 29.7 16.3 26.2 18.1 28.2 C 18.2 28.7 19.9 28.3 19.7 28.2 C 21.4 29.1 21.4 27.4 21.3 27.2 C 22.2 27.5 23.7 29.3 24.6 27.9 C 24.9 27.8 25.3 27.8 25.6 27.9 C 25.9 27.3 26.6 27.7 25.7 27.2 C 27.1 27.1 25.3 26.0 25.8 25.2 C 26.5 24.8 24.6 24.2 26.1 23.8 C 24.9 22.4 26.8 25.0 26.0 20.2 C 25.9 22.2 25.1 18.1 25.9 19.0 C 26.7 20.8 25.6 17.0 26.1 15.2 C 25.6 14.7 24.6 12.7 25.7 12.8 C 27.1 10.4 24.9 11.1 26.0 9.9 C 26.5 9.0 25.5 9.2 25.6 8.7 C 26.4 7.6 25.8 7.3 26.1 4.7 C 26.2 3.1 26.1 2.5 25.9 2.4 C 25.2 2.6 24.9 3.1 24.7 3.5 C 24.5 3.9 24.3 4.2 23.8 4.4 C 23.7 4.5 23.6 4.5 23.4 4.5 C 23.2 4.6 23.1 5.0 22.9 5.3 C 22.2 6.6 21.2 8.2 22.7 6.4 C 22.1 7.2 24.2 9.1 22.0 8.8 C 22.9 9.5 21.1 9.2 22.1 10.8 C 23.7 6.3 22.7 14.5 22.0 11.4 C 21.5 12.1 21.6 13.3 22.0 12.3 C 23.4 11.4 21.4 14.6 23.1 13.0 C 22.6 15.2 24.1 14.6 23.1 15.2 C 21.2 15.7 23.5 15.1 23.0 16.2 C 23.0 18.8 20.9 16.5 22.3 18.1 C 21.3 20.0 23.1 19.0 23.3 19.9 C 24.6 20.8 22.3 21.9 22.2 20.0 C 22.8 21.4 21.5 19.9 22.4 21.4 C 23.5 21.2 21.1 21.8 22.1 22.2 C 22.4 23.4 23.1 23.5 23.1 23.8 C 23.1 25.4 21.9 23.8 22.8 24.9 C 22.9 25.0 22.9 25.1 22.9 25.2 C 22.5 25.2 20.9 24.1 21.0 24.4 C 22.7 24.5 20.8 25.7 20.1 25.0 C 21.0 24.9 18.3 23.5 18.4 24.4 C 21.4 27.0 16.6 23.7 16.5 24.7 C 18.2 26.1 13.1 24.8 14.3 24.2 C 14.3 24.3 14.9 25.1 14.9 25.1 M 20.7 24.6 C 22.2 24.7 19.6 24.9 20.7 24.6 M 20.3 24.2 C 21.4 24.7 18.8 23.9 20.3 24.1 C 20.3 24.1 20.2 24.2 20.3 24.2 M 21.9 20.9 C 22.3 21.3 21.7 21.3 21.9 20.9 M 22.8 20.4 C 23.2 19.7 22.9 21.6 22.8 20.4 M 22.5 8.9 C 24.7 8.9 21.3 10.8 22.5 8.9 M 22.1 16.4 C 22.4 17.8 21.2 15.8 22.1 16.4 M 22.6 16.9 C 23.0 17.6 22.1 16.9 22.6 16.9 M 22.5 11.1 C 22.6 11.0 22.6 11.0 22.5 11.1 C 22.5 11.1 22.5 11.1 22.5 11.1 Z M 22.6 7.7 C 22.5 7.7 22.5 7.7 22.6 7.7 C 22.6 7.7 22.6 7.7 22.6 7.7 Z M 22.7 14.3 C 22.2 15.4 22.5 12.6 22.7 14.3 C 22.7 14.3 22.7 14.3 22.7 14.3 Z M 25.8 7.3 C 25.9 7.3 25.9 7.3 25.8 7.3 C 25.8 7.3 25.8 7.3 25.8 7.3 Z M 20.5 25.6 C 20.5 25.6 20.5 25.6 20.5 25.6 C 20.5 25.6 20.5 25.6 20.5 25.6 Z M 15.8 24.8 C 16.0 25.1 14.9 24.6 15.8 24.8 C 15.8 24.8 15.8 24.8 15.8 24.8 Z M 13.6 27.2 C 13.6 27.3 13.6 27.3 13.6 27.2 C 13.6 27.2 13.6 27.2 13.6 27.2 Z M 20.0 26.7 C 20.0 26.8 20.0 26.8 20.0 26.7 C 20.0 26.7 20.0 26.7 20.0 26.7 Z M 19.4 25.1 C 17.8 24.0 21.2 25.5 19.4 25.1 C 19.4 25.1 19.4 25.1 19.4 25.1 Z M 25.7 15.7 C 25.2 15.7 25.9 14.6 25.7 15.7 C 25.7 15.7 25.7 15.7 25.7 15.7 Z M 23.3 20.5 C 23.0 20.2 23.4 19.9 23.3 20.5 C 23.3 20.5 23.3 20.5 23.3 20.5 Z M 21.7 21.6 C 21.4 21.3 21.8 21.2 21.7 21.6 C 21.7 21.6 21.7 21.6 21.7 21.6 Z M 15.6 24.5 C 15.7 24.4 15.7 24.4 15.6 24.5 C 15.6 24.5 15.6 24.5 15.6 24.5 Z M 17.7 25.4 C 15.9 24.3 19.8 26.0 17.7 25.4 C 17.7 25.4 17.7 25.4 17.7 25.4 Z M 16.1 25.7 C 17.0 26.1 14.6 25.5 16.1 25.7 M 18.3 27.4 C 19.4 26.9 18.3 29.3 18.3 27.4 C 18.3 27.4 18.3 27.4 18.3 27.4 Z M 25.5 27.4 C 25.6 27.3 25.6 27.3 25.5 27.4 C 25.5 27.4 25.5 27.4 25.5 27.4 Z M 22.0 24.6 C 22.2 24.6 22.3 24.6 22.3 24.6 C 22.3 24.6 22.4 24.6 22.4 24.7 C 22.3 24.7 21.7 24.8 22.0 24.6 C 22.0 24.6 22.0 24.6 22.0 24.6 Z M 12.5 24.3 C 13.6 24.4 11.9 24.6 12.5 24.3 C 12.5 24.3 12.5 24.3 12.5 24.3 Z M 24.4 22.2 C 24.3 20.1 25.0 23.9 24.4 22.2 C 24.4 22.2 24.4 22.2 24.4 22.2 Z M 23.2 14.9 C 23.2 14.8 23.2 14.8 23.2 14.9 C 23.2 14.9 23.2 14.9 23.2 14.9 Z M 22.7 13.8 C 22.7 13.7 22.7 13.7 22.7 13.8 C 22.7 13.8 22.7 13.8 22.7 13.8 Z M 23.8 8.2 C 23.9 8.1 23.9 8.1 23.8 8.2 C 23.8 8.2 23.8 8.2 23.8 8.2 Z M 22.2 12.8 C 22.2 12.8 22.2 12.8 22.2 12.8 C 22.2 12.8 22.2 12.8 22.2 12.8 Z M 22.5 9.5 C 22.5 9.4 22.5 9.4 22.5 9.5 C 22.5 9.5 22.5 9.5 22.5 9.5 Z M 21.5 10.5 C 21.6 10.4 21.6 10.4 21.5 10.5 C 21.5 10.5 21.5 10.5 21.5 10.5 Z M 26.3 18.0 C 26.4 17.9 26.4 17.9 26.3 18.0 C 26.3 18.0 26.3 18.0 26.3 18.0 Z M 17.2 24.1 C 17.4 24.2 17.4 24.2 17.2 24.1 C 17.2 24.1 17.2 24.1 17.2 24.1 Z M 22.9 9.5 C 22.9 9.4 22.9 9.4 22.9 9.5 C 22.9 9.5 22.9 9.5 22.9 9.5 Z M 23.8 18.1 C 24.7 18.3 22.5 18.4 23.7 17.8 C 23.8 17.9 23.6 18.1 23.8 18.1 M 25.3 17.1 C 25.4 17.2 25.4 17.2 25.3 17.1 C 25.3 17.1 25.3 17.1 25.3 17.1 Z M 25.9 22.1 C 25.9 22.2 25.9 22.2 25.9 22.1 C 25.9 22.1 25.9 22.1 25.9 22.1 Z M 22.0 13.4 C 21.5 13.7 22.4 12.5 22.0 13.6 M 25.5 7.0 C 25.0 7.6 25.9 5.6 25.5 7.2 M 11.4 24.7 C 11.4 25.1 10.6 24.5 11.4 24.7 M 26.4 23.5 C 26.8 24.0 26.2 24.3 26.4 23.5 M 25.2 20.6 C 24.7 20.6 25.6 19.6 25.2 20.8 M 25.5 10.3 C 25.5 10.3 25.5 10.3 25.5 10.3 C 25.5 10.3 25.5 10.3 25.5 10.3 Z M 22.4 23.4 C 22.4 23.4 22.4 23.4 22.4 23.4 C 22.4 23.4 22.4 23.4 22.4 23.4 Z M 23.5 19.5 C 22.8 19.8 24.0 18.8 23.5 19.5 M 23.6 25.9 C 22.9 25.6 23.0 25.6 23.4 25.6 C 23.9 25.8 24.7 26.1 23.7 26.0 C 23.7 26.0 23.6 25.9 23.6 25.9 M 25.7 4.4 C 24.6 6.5 26.3 2.9 25.7 4.4 M 23.0 11.8 C 21.9 13.1 23.6 10.8 23.0 11.8 M 22.9 22.9 C 22.3 22.5 23.2 22.1 22.9 22.9 M 13.8 24.6 C 12.8 24.5 14.9 24.2 13.8 24.6 M 25.5 13.5 C 25.5 13.4 25.5 13.4 25.5 13.5 C 25.5 13.5 25.5 13.5 25.5 13.5 Z M 20.0 28.7 C 20.1 28.8 20.1 28.8 20.0 28.7 C 20.0 28.7 20.0 28.7 20.0 28.7 Z M 22.2 6.2 C 22.2 6.1 22.2 6.1 22.2 6.2 C 22.2 6.2 22.2 6.2 22.2 6.2 Z M 23.5 12.3 C 23.6 12.3 23.6 12.3 23.5 12.3 C 23.5 12.3 23.5 12.3 23.5 12.3 Z M 22.0 8.1 C 22.1 8.0 22.1 8.0 22.0 8.1 C 22.0 8.1 22.0 8.1 22.0 8.1 Z M 24.3 15.8 C 24.4 15.7 24.4 15.7 24.3 15.8 C 24.3 15.8 24.3 15.8 24.3 15.8 Z M 21.6 16.2 C 21.6 16.2 21.6 16.2 21.6 16.2 C 21.6 16.2 21.6 16.2 21.6 16.2 Z M 22.8 19.8 C 22.8 19.8 22.8 19.8 22.8 19.8 C 22.8 19.8 22.8 19.8 22.8 19.8 Z M 21.8 14.8 C 21.6 13.0 22.7 15.8 21.8 14.8 C 21.8 14.8 21.8 14.8 21.8 14.8 Z M 24.6 18.9 C 24.6 18.9 24.6 18.9 24.6 18.9 C 24.6 18.9 24.6 18.9 24.6 18.9 Z M 22.6 18.6 C 21.8 17.1 23.9 18.2 22.6 18.6 M 22.0 23.6 C 21.5 22.9 22.6 24.0 22.0 23.6 M 23.6 27.9 C 23.7 27.9 23.7 27.9 23.6 27.9 C 23.6 27.9 23.6 27.9 23.6 27.9 Z M 24.1 27.6 C 24.2 27.6 24.2 27.6 24.1 27.6 C 24.1 27.6 24.1 27.6 24.1 27.6 Z M 21.1 24.1 C 21.1 24.1 21.1 24.1 21.1 24.1 C 21.1 24.1 21.1 24.1 21.1 24.1 Z M 25.2 28.6 C 25.3 28.6 25.3 28.6 25.2 28.6 C 25.2 28.6 25.2 28.6 25.2 28.6 Z M 21.7 16.9 C 21.7 16.9 21.7 16.9 21.7 16.9 C 21.7 16.9 21.7 16.9 21.7 16.9 Z M 21.6 7.5 C 21.6 7.5 21.6 7.5 21.6 7.5 C 21.6 7.5 21.6 7.5 21.6 7.5 Z M 15.8 27.5 C 15.9 27.5 15.9 27.5 15.8 27.5 C 15.8 27.5 15.8 27.5 15.8 27.5 Z M 22.8 16.0 C 22.8 16.0 22.8 16.0 22.8 16.0 C 22.8 16.0 22.8 16.0 22.8 16.0 Z M 21.7 27.7 C 21.8 27.7 21.8 27.7 21.7 27.7 C 21.7 27.7 21.7 27.7 21.7 27.7 Z M 22.5 16.7 C 22.5 16.6 22.5 16.6 22.5 16.7 C 22.5 16.7 22.5 16.7 22.5 16.7 Z M 25.7 13.9 C 25.7 13.8 25.7 13.8 25.7 13.9 C 25.7 13.9 25.7 13.9 25.7 13.9 Z M 26.3 10.7 C 26.4 10.7 26.4 10.7 26.3 10.7 C 26.3 10.7 26.3 10.7 26.3 10.7 Z M 23.8 14.3 C 23.8 14.2 23.8 14.2 23.8 14.3 C 23.8 14.3 23.8 14.3 23.8 14.3 Z M 19.9 26.5 C 14.6 25.6 23.2 26.1 19.9 26.5 M 24.0 13.5 C 23.8 16.7 23.0 11.3 24.0 13.5 C 23.7 13.2 24.0 13.4 24.0 13.5 M 20.9 6.5 C 21.7 6.1 22.4 5.7 22.9 5.3 C 23.5 4.9 23.9 4.5 24.2 4.1 C 24.3 3.9 24.4 3.7 24.5 3.5 C 24.2 3.0 22.4 5.0 23.9 3.3 C 25.9 3.0 25.4 0.7 23.6 2.9 C 21.1 3.2 24.3 1.5 22.2 2.4 C 19.5 2.6 21.2 1.9 19.1 2.1 C 17.5 3.3 18.1 1.5 17.2 2.6 C 18.7 1.4 15.1 3.0 15.1 2.4 C 17.1 1.7 8.3 2.4 13.0 2.8 C 11.3 3.3 11.5 2.3 10.8 2.2 C 10.2 2.9 7.3 1.6 6.5 2.3 C 6.8 2.5 7.4 2.5 7.7 2.8 C 8.3 3.2 6.3 2.7 6.5 2.7 C 6.0 3.0 3.7 3.7 5.8 2.4 C 5.6 1.8 3.4 2.7 3.0 2.2 C 2.2 2.1 1.9 2.2 1.8 2.3 C 2.0 3.2 2.5 2.8 1.9 3.0 C 1.8 4.8 1.8 6.2 2.0 6.3 C 1.9 7.3 1.2 7.0 1.8 8.6 C 0.5 10.0 4.4 11.9 1.8 11.0 C 2.4 12.1 0.7 11.7 2.3 12.5 C 1.6 11.3 1.1 15.8 2.2 14.3 C 2.6 15.0 0.6 17.1 2.2 17.3 C 3.4 18.8 4.6 19.0 5.7 17.5 C 4.8 17.3 6.6 15.9 5.1 16.6 C 4.5 18.1 4.5 13.1 5.1 14.5 C 7.0 15.8 3.9 11.3 5.3 11.2 C 4.5 11.5 4.1 7.2 5.5 9.5 C 5.6 8.9 5.0 8.2 5.8 8.1 C 5.7 10.3 4.3 5.8 5.2 6.8 C 5.4 7.2 5.6 6.8 5.7 6.3 C 6.6 6.4 7.4 6.4 6.9 5.9 C 3.9 4.0 8.0 6.3 8.0 5.6 C 9.6 5.1 8.9 7.2 9.2 5.8 C 9.7 6.0 11.9 6.0 10.6 6.4 C 10.0 6.2 11.4 4.3 12.1 6.0 C 10.1 6.9 14.8 6.5 14.0 6.0 C 9.9 5.1 18.5 4.9 15.1 5.8 C 16.5 6.8 14.6 6.2 16.7 5.8 C 16.6 5.3 18.6 4.8 17.7 5.8 C 17.2 7.4 19.3 3.7 19.5 5.9 C 19.1 6.8 22.7 5.2 20.8 6.2 C 20.7 6.3 20.9 6.5 20.9 6.5 M 20.4 6.3 C 20.9 6.0 20.4 6.8 20.4 6.3 M 21.0 6.0 C 21.0 6.0 21.0 6.0 21.0 6.0 C 21.0 6.0 21.0 6.0 21.0 6.0 Z M 17.1 5.7 C 17.1 5.8 17.1 5.8 17.1 5.7 C 17.1 5.7 17.1 5.7 17.1 5.7 Z M 13.8 1.8 C 13.8 1.8 13.8 1.8 13.8 1.8 C 13.8 1.8 13.8 1.8 13.8 1.8 Z M 14.3 5.7 C 14.3 5.7 14.3 5.7 14.3 5.7 C 14.3 5.7 14.3 5.7 14.3 5.7 Z M 18.7 5.5 C 18.7 5.5 18.7 5.5 18.7 5.5 C 18.7 5.5 18.7 5.5 18.7 5.5 Z M 14.5 6.2 C 14.4 5.6 15.3 6.7 14.5 6.3 C 14.4 6.3 14.6 6.3 14.5 6.2 M 11.2 6.5 C 11.2 6.4 11.2 6.4 11.2 6.5 M 1.3 4.6 C 1.2 4.5 1.2 4.5 1.3 4.6 M 5.9 9.4 C 5.9 9.4 5.9 9.4 5.9 9.4 M 7.5 5.9 C 6.5 5.9 7.0 5.6 7.5 5.9 M 5.6 12.2 C 6.0 11.0 5.9 14.0 5.6 12.2 M 6.0 13.9 C 5.9 14.0 5.9 14.0 6.0 13.9 M 5.7 7.1 C 5.7 7.0 5.7 7.0 5.7 7.1 C 5.7 7.1 5.7 7.1 5.7 7.1 Z M 8.1 6.1 C 9.7 6.4 7.2 6.7 8.1 6.1 M 16.4 6.3 C 15.6 6.6 16.6 5.6 16.4 6.3 M 18.1 6.0 C 18.1 6.0 18.1 6.0 18.1 6.0 C 18.1 6.0 18.1 6.0 18.1 6.0 Z M 5.6 9.9 C 5.6 9.8 5.6 9.8 5.6 9.9 C 5.6 9.9 5.6 9.9 5.6 9.9 Z M 5.7 11.6 C 5.7 11.6 5.7 11.6 5.7 11.6 C 5.7 11.6 5.7 11.6 5.7 11.6 Z M 1.4 11.9 C 1.4 11.8 1.4 11.8 1.4 11.9 C 1.4 11.9 1.4 11.9 1.4 11.9 Z M 17.6 4.2 C 18.7 4.5 15.9 5.6 16.4 4.5 C 16.4 4.1 17.4 4.3 17.6 4.2 M 8.4 4.8 C 7.2 3.3 10.4 6.8 8.4 4.8 M 5.0 13.5 C 3.2 13.7 6.2 12.8 5.0 13.5 M 5.3 16.0 C 4.9 16.5 5.1 11.5 5.6 15.3 C 5.8 15.8 5.5 15.9 5.3 16.0 M 10.9 5.8 C 10.3 4.9 12.7 6.1 10.9 5.8 M 2.7 4.3 C 3.3 5.4 3.7 7.5 2.8 6.0 C 1.7 4.9 2.3 3.1 2.7 4.3 M 20.7 5.5 C 18.9 6.8 21.6 4.4 20.7 5.5 M 16.5 5.4 C 16.4 5.4 16.4 5.4 16.5 5.4 C 16.5 5.4 16.5 5.4 16.5 5.4 Z M 14.7 5.6 C 14.7 5.5 14.7 5.5 14.7 5.6 M 19.2 6.7 C 19.2 6.5 19.2 6.5 19.2 6.7 M 4.1 5.6 C 4.0 5.6 4.0 5.6 4.1 5.6 M 7.6 5.5 C 4.8 4.2 8.3 5.3 7.6 5.5 M 11.0 3.0 C 10.1 2.4 12.3 3.0 11.0 3.0 M 5.4 6.1 C 4.9 6.1 4.6 5.5 4.6 5.1 C 4.5 4.7 4.8 4.5 5.4 6.0 C 5.4 6.0 5.4 6.1 5.4 6.1 M 8.5 5.7 C 8.4 5.7 8.4 5.7 8.5 5.7 C 8.5 5.7 8.5 5.7 8.5 5.7 Z M 2.6 4.7 C 2.6 4.7 2.6 4.7 2.6 4.7 C 2.6 4.7 2.6 4.7 2.6 4.7 Z M 2.7 5.4 C 2.6 5.3 2.6 5.3 2.7 5.4 C 2.7 5.4 2.7 5.4 2.7 5.4 Z M 5.6 7.8 C 5.6 7.7 5.6 7.7 5.6 7.8 C 5.6 7.8 5.6 7.8 5.6 7.8 Z M 19.9 2.6 C 18.4 2.5 21.3 2.4 19.9 2.6 C 19.9 2.6 19.9 2.6 19.9 2.6 Z M 13.3 6.2 C 11.2 5.2 14.6 5.3 13.3 6.2 C 13.3 6.2 13.3 6.2 13.3 6.2 Z M 10.8 4.6 C 10.7 4.6 10.7 4.6 10.8 4.6 C 10.8 4.6 10.8 4.6 10.8 4.6 Z M 6.8 6.8 C 6.7 6.7 6.7 6.7 6.8 6.8 C 6.8 6.8 6.8 6.8 6.8 6.8 Z M 19.2 2.4 C 19.2 2.4 19.2 2.4 19.2 2.4 C 19.2 2.4 19.2 2.4 19.2 2.4 Z M 4.9 10.7 C 4.9 10.7 4.9 10.7 4.9 10.7 C 4.9 10.7 4.9 10.7 4.9 10.7 Z M 4.8 3.0 C 4.7 3.4 4.4 2.6 4.8 3.0 C 4.8 3.0 4.8 3.0 4.8 3.0 Z M 2.6 3.0 C 2.5 3.0 2.5 3.0 2.6 3.0 C 2.6 3.0 2.6 3.0 2.6 3.0 Z M 6.1 14.4 C 6.1 14.4 6.1 14.4 6.1 14.4 C 6.1 14.4 6.1 14.4 6.1 14.4 Z M 1.2 7.3 C 1.2 7.4 1.2 7.4 1.2 7.3 C 1.2 7.3 1.2 7.3 1.2 7.3 Z M 2.7 10.2 C 2.7 10.1 2.7 10.1 2.7 10.2 C 2.7 10.2 2.7 10.2 2.7 10.2 Z M 5.3 7.1 C 5.5 9.2 4.7 6.2 5.3 7.1 C 5.3 7.1 5.3 7.1 5.3 7.1 Z M 3.1 15.5 C 3.0 15.5 3.0 15.5 3.1 15.5 C 3.1 15.5 3.1 15.5 3.1 15.5 Z M 4.8 17.3 C 4.7 17.3 4.7 17.3 4.8 17.3 C 4.8 17.3 4.8 17.3 4.8 17.3 Z M 5.6 18.1 C 5.6 18.1 5.6 18.1 5.6 18.1 C 5.6 18.1 5.6 18.1 5.6 18.1 Z M 15.0 3.8 C 15.0 3.8 15.0 3.8 15.0 3.8 C 15.0 3.8 15.0 3.8 15.0 3.8 Z M 15.3 6.5 C 15.3 6.5 15.3 6.5 15.3 6.5 C 15.3 6.5 15.3 6.5 15.3 6.5 Z M 13.2 6.7 C 13.2 6.7 13.2 6.7 13.2 6.7 C 13.2 6.7 13.2 6.7 13.2 6.7 Z M 15.7 2.1 C 15.8 2.2 15.8 2.2 15.7 2.1 C 15.7 2.1 15.7 2.1 15.7 2.1 Z M 5.4 4.5 C 5.5 4.5 5.5 4.5 5.4 4.5 C 5.4 4.5 5.4 4.5 5.4 4.5 Z M 3.5 3.4 C 3.6 3.4 3.6 3.4 3.5 3.4 C 3.5 3.4 3.5 3.4 3.5 3.4 Z M 5.0 1.9 C 5.0 1.9 5.0 1.9 5.0 1.9 C 5.0 1.9 5.0 1.9 5.0 1.9 Z M 1.8 2.5 C 1.8 2.5 1.8 2.5 1.8 2.5 C 1.8 2.5 1.8 2.5 1.8 2.5 Z M 23.5 2.6 C 23.5 2.6 23.5 2.6 23.5 2.6 C 23.5 2.6 23.5 2.6 23.5 2.6 Z M 22.0 4.7 C 22.1 4.7 22.1 4.7 22.0 4.7 C 22.0 4.7 22.0 4.7 22.0 4.7 Z M 6.5 6.0 C 6.5 6.4 5.1 5.4 6.5 6.0 M 9.5 5.7 C 9.5 5.7 9.5 5.7 9.5 5.7 C 9.5 5.7 9.5 5.7 9.5 5.7 Z M 5.3 10.7 C 4.5 10.6 5.8 9.4 5.3 10.7 C 5.3 10.7 5.3 10.7 5.3 10.7 Z M 1.8 5.8 C 1.8 5.9 1.8 5.9 1.8 5.8 C 1.8 5.8 1.8 5.8 1.8 5.8 Z M 2.2 7.2 C 2.1 7.2 2.1 7.2 2.2 7.2 C 2.2 7.2 2.2 7.2 2.2 7.2 Z M 4.4 14.4 C 4.4 14.5 4.4 14.5 4.4 14.4 M 10.3 6.5 C 9.7 6.1 9.8 6.2 10.3 6.5 M 5.3 11.9 C 5.3 11.8 5.3 11.8 5.3 11.9 C 5.3 11.9 5.3 11.9 5.3 11.9 Z M 4.9 15.9 C 4.9 15.8 4.9 15.8 4.9 15.9 C 4.9 15.9 4.9 15.9 4.9 15.9 Z M 12.3 5.9 C 12.1 4.9 12.6 5.1 12.3 5.9 M 19.0 5.6 C 19.0 5.5 19.0 5.5 19.0 5.6 C 19.0 5.6 19.0 5.6 19.0 5.6 Z M 19.0 5.6 " fill="#FEFFFE"></path></g></svg>