<?xml version="1.0" encoding="UTF-8" standalone="no"?><svg xmlns="http://www.w3.org/2000/svg" xmlns:xlink="http://www.w3.org/1999/xlink" clip-rule="evenodd" stroke-miterlimit="10" viewBox="0 0 32 30"><desc>SVG generated by Keynote</desc><defs></defs><g transform="matrix(1.00, 0.00, -0.00, -1.00, 0.0, 30.0)"><path d="M 18.8 16.1 C 18.8 16.3 18.3 16.8 18.4 16.9 M 18.8 16.1 C 17.4 16.7 16.9 17.5 16.2 18.5 C 15.5 19.7 17.1 18.6 17.4 18.8 C 16.9 20.5 16.3 20.4 15.4 19.9 C 15.7 20.7 13.7 22.0 15.0 22.1 C 16.4 19.6 14.2 24.2 16.2 22.2 C 16.5 22.0 16.4 22.8 16.3 23.1 C 17.2 22.4 16.9 24.1 18.0 22.9 C 18.9 23.0 18.4 23.1 19.5 22.4 C 19.8 22.0 19.4 22.1 19.2 22.0 C 18.4 21.6 20.4 21.0 20.2 20.1 C 21.9 19.5 20.8 18.6 19.9 19.2 C 20.4 18.5 22.2 17.7 21.7 17.0 C 22.6 16.5 23.1 14.6 21.6 15.9 C 20.6 16.7 20.7 15.9 20.4 15.8 C 20.0 16.1 19.9 17.1 19.5 17.2 C 19.5 16.9 19.6 15.7 19.0 17.0 C 18.7 16.6 18.1 17.3 18.8 16.1 C 18.8 16.1 18.8 16.1 18.8 16.1 Z M 15.7 20.5 C 15.4 20.4 15.9 20.1 15.7 20.5 C 15.7 20.5 15.7 20.5 15.7 20.5 Z M 22.0 17.6 C 21.7 17.6 22.3 17.0 22.0 17.6 C 22.0 17.6 22.0 17.6 22.0 17.6 Z M 19.4 21.8 C 19.1 21.7 19.7 21.2 19.4 21.8 C 19.4 21.8 19.4 21.8 19.4 21.8 Z M 16.5 19.4 C 17.1 18.7 16.6 20.1 16.3 20.1 C 16.4 20.0 16.1 19.5 16.5 19.4 C 16.5 19.4 16.5 19.4 16.5 19.4 Z M 18.5 19.6 C 18.4 19.5 18.5 19.2 18.8 19.2 C 18.8 19.5 18.6 19.7 18.5 19.6 C 18.5 19.6 18.5 19.6 18.5 19.6 Z M 15.2 22.9 C 15.1 22.8 15.3 22.5 15.5 22.7 C 15.5 22.9 15.3 23.0 15.2 22.9 C 15.2 22.9 15.2 22.9 15.2 22.9 Z M 17.8 18.7 C 18.0 18.5 18.3 18.5 18.2 18.7 C 18.0 18.8 17.7 19.3 17.8 18.7 C 17.8 18.7 17.8 18.7 17.8 18.7 Z M 17.2 17.5 C 17.7 17.0 17.6 18.2 17.5 18.1 C 17.1 18.3 16.8 17.8 17.2 17.5 C 17.2 17.5 17.2 17.5 17.2 17.5 Z M 18.5 18.4 C 18.9 17.8 18.6 18.6 18.5 18.4 C 18.5 18.4 18.5 18.4 18.5 18.4 Z M 17.6 23.4 C 18.1 22.9 17.7 23.8 17.6 23.4 C 17.6 23.4 17.6 23.4 17.6 23.4 Z M 20.3 20.5 C 20.8 19.9 20.4 20.8 20.3 20.5 C 20.3 20.5 20.3 20.5 20.3 20.5 Z M 16.4 20.8 C 16.0 21.7 15.6 20.7 16.4 20.8 C 16.4 20.8 16.4 20.8 16.4 20.8 Z M 17.8 16.3 C 17.4 17.1 16.8 16.5 17.8 16.3 C 17.8 16.3 17.8 16.3 17.8 16.3 Z M 17.1 21.7 C 17.7 22.4 17.2 19.3 16.5 20.7 C 15.7 21.3 14.6 19.1 15.9 19.5 C 15.7 18.9 15.8 18.9 15.1 18.6 C 15.8 18.5 15.6 17.1 14.9 16.7 C 13.9 16.3 15.2 17.5 14.0 16.7 C 12.8 14.9 13.3 16.8 11.9 16.0 C 11.8 15.9 12.3 15.9 11.9 15.7 C 10.9 15.5 10.9 16.7 9.9 16.1 C 10.3 16.4 10.2 18.1 10.6 17.4 C 11.3 17.2 10.6 19.3 11.8 19.0 C 11.5 19.6 12.6 20.1 12.2 20.7 C 12.3 21.2 12.9 21.0 13.0 20.9 C 13.6 20.8 12.0 21.8 13.4 22.1 C 13.1 22.3 14.2 24.1 13.9 22.6 C 14.0 23.0 14.8 25.1 15.3 23.6 C 15.1 22.1 17.0 24.4 16.3 22.9 C 15.8 21.7 15.5 21.6 16.4 22.2 C 16.5 22.5 17.3 23.7 17.2 22.4 C 16.9 22.2 16.7 21.7 17.1 21.7 C 17.1 21.7 17.1 21.7 17.1 21.7 Z M 15.7 22.6 C 15.3 21.9 16.1 22.4 15.7 22.6 C 15.7 22.6 15.7 22.6 15.7 22.6 Z M 11.9 20.7 C 11.4 19.9 12.3 20.5 11.9 20.7 C 11.9 20.7 11.9 20.7 11.9 20.7 Z M 16.4 19.9 C 15.9 19.6 17.1 19.4 16.4 19.9 C 16.4 19.9 16.4 19.9 16.4 19.9 Z M 13.5 21.7 C 13.5 21.7 13.7 21.8 13.8 21.9 C 13.8 21.9 13.5 21.8 13.5 21.7 C 13.5 21.7 13.5 21.7 13.5 21.7 Z M 15.9 18.9 C 14.8 18.1 16.8 18.6 15.9 18.9 C 15.9 18.9 15.9 18.9 15.9 18.9 Z M 13.7 17.2 C 12.4 17.0 13.5 16.2 13.7 17.2 C 13.7 17.2 13.7 17.2 13.7 17.2 Z M 11.7 18.7 C 12.1 18.8 11.6 18.9 11.7 18.7 C 11.7 18.7 11.7 18.7 11.7 18.7 Z M 14.2 23.6 C 14.5 23.7 14.1 23.9 14.2 23.6 C 14.2 23.6 14.2 23.6 14.2 23.6 Z M 11.1 17.2 C 11.6 17.3 11.0 17.7 11.1 17.2 C 11.1 17.2 11.1 17.2 11.1 17.2 Z M 15.9 19.8 C 17.2 20.4 15.1 21.2 15.9 19.8 C 15.9 19.8 15.9 19.8 15.9 19.8 Z M 16.7 21.2 C 17.2 21.7 16.1 21.3 16.1 21.0 C 16.2 21.0 16.6 21.1 16.7 21.2 C 16.7 21.2 16.7 21.2 16.7 21.2 Z M 15.3 19.0 C 16.1 19.4 15.3 19.5 15.3 19.0 C 15.3 19.0 15.3 19.0 15.3 19.0 Z M 16.6 20.3 C 16.6 20.5 16.3 20.1 16.6 20.3 C 16.6 20.3 16.6 20.3 16.6 20.3 Z M 15.8 17.8 C 15.8 18.1 15.5 17.6 15.8 17.8 C 15.8 17.8 15.8 17.8 15.8 17.8 Z M 17.5 21.7 C 17.6 22.0 17.3 21.5 17.5 21.7 C 17.5 21.7 17.5 21.7 17.5 21.7 Z M 15.2 18.1 C 14.7 18.0 14.2 18.9 14.2 17.4 C 14.4 17.1 15.4 17.7 15.2 18.1 C 15.2 18.1 15.2 18.1 15.2 18.1 Z M 19.7 14.4 C 16.9 17.0 19.8 16.3 20.2 16.4 C 20.7 16.7 21.4 16.3 22.2 15.6 C 24.3 14.7 21.0 14.9 22.9 14.2 C 25.8 12.8 21.3 13.7 24.1 12.7 C 24.7 12.7 24.8 11.6 24.6 11.7 C 26.2 10.7 24.4 10.6 24.1 10.6 C 24.7 10.1 27.2 9.1 26.1 8.5 C 25.9 7.9 28.8 6.2 26.8 7.3 C 29.3 5.6 26.5 7.1 27.5 6.1 C 29.0 4.9 25.7 6.9 28.5 4.9 C 26.9 5.5 29.4 4.7 29.5 2.9 C 29.0 3.7 28.8 3.4 28.9 3.0 C 28.5 3.0 28.3 2.9 29.0 2.6 C 31.3 1.8 27.0 2.9 26.3 2.5 C 25.4 2.9 22.7 3.9 24.0 2.8 C 23.6 1.5 21.9 3.6 22.1 2.5 C 21.9 2.0 21.1 3.0 20.8 2.9 C 20.7 2.1 19.9 2.7 18.1 2.4 C 13.8 2.0 17.1 4.5 16.0 4.8 C 15.8 5.2 16.8 7.9 16.7 5.8 C 16.8 6.4 19.7 4.3 17.6 6.5 C 18.7 5.6 17.2 7.4 18.9 6.4 C 17.3 4.8 21.7 5.8 19.1 6.5 C 19.0 7.0 19.8 6.9 19.6 6.5 C 20.5 5.1 20.1 7.2 21.2 5.4 C 22.0 5.9 23.5 4.4 22.6 5.4 C 20.5 7.3 23.1 5.0 23.1 5.5 C 24.8 5.5 20.4 7.6 23.3 6.2 C 23.3 6.3 23.3 6.3 23.3 6.3 C 21.5 8.2 24.7 5.6 24.8 5.9 C 26.8 4.9 22.4 8.4 22.7 7.4 C 23.5 7.4 21.7 8.1 22.6 8.0 C 24.8 6.5 20.2 9.8 21.8 8.9 C 21.9 9.3 23.2 8.4 23.1 8.6 C 22.6 9.6 21.0 10.1 22.2 9.7 C 22.8 9.6 20.3 11.0 20.8 10.9 C 21.4 9.9 22.2 10.9 21.2 11.4 C 21.4 10.8 18.9 12.4 20.0 12.3 C 23.9 10.6 18.7 13.4 19.7 13.4 C 21.9 12.5 18.9 15.4 18.5 14.7 C 18.6 14.7 19.7 14.4 19.7 14.4 M 21.0 11.0 C 21.6 10.2 21.0 11.7 21.0 11.0 M 20.4 11.2 C 21.3 10.6 19.6 12.1 20.2 11.3 C 20.2 11.3 20.4 11.3 20.4 11.2 M 22.0 8.2 C 22.6 8.0 21.4 8.8 22.0 8.2 M 23.7 6.9 C 24.6 6.0 23.4 7.5 23.7 6.9 M 18.1 6.0 C 20.0 3.9 18.1 7.2 18.1 6.0 M 22.0 6.4 C 23.2 6.1 20.5 7.3 22.0 6.4 M 23.0 5.9 C 23.9 5.5 22.4 6.4 23.0 5.9 M 19.4 6.0 C 19.4 6.0 19.4 6.0 19.4 6.0 C 19.4 6.0 19.4 6.0 19.4 6.0 Z M 17.4 5.9 C 17.4 6.0 17.4 6.0 17.4 5.9 C 17.4 5.9 17.4 5.9 17.4 5.9 Z M 21.6 5.8 C 21.6 6.3 20.4 6.0 21.6 5.8 C 21.6 5.8 21.6 5.8 21.6 5.8 Z M 19.9 2.7 C 20.0 2.7 20.0 2.7 19.9 2.7 C 19.9 2.7 19.9 2.7 19.9 2.7 Z M 22.0 11.1 C 22.1 11.1 22.1 11.1 22.0 11.1 C 22.0 11.1 22.0 11.1 22.0 11.1 Z M 19.6 13.9 C 20.0 13.8 19.1 14.4 19.6 13.9 C 19.6 13.9 19.6 13.9 19.6 13.9 Z M 21.6 15.4 C 21.6 15.5 21.6 15.5 21.6 15.4 C 21.6 15.4 21.6 15.4 21.6 15.4 Z M 23.1 11.4 C 23.2 11.4 23.2 11.4 23.1 11.4 C 23.1 11.4 23.1 11.4 23.1 11.4 Z M 21.2 11.8 C 19.3 12.7 22.1 10.7 21.2 11.8 C 21.2 11.8 21.2 11.8 21.2 11.8 Z M 26.3 2.8 C 25.6 3.3 25.6 2.6 26.3 2.8 C 26.3 2.8 26.3 2.8 26.3 2.8 Z M 24.5 6.3 C 24.1 6.5 24.9 5.8 24.5 6.3 C 24.5 6.3 24.5 6.3 24.5 6.3 Z M 21.3 9.0 C 20.9 9.1 21.7 8.6 21.3 9.0 C 21.3 9.0 21.3 9.0 21.3 9.0 Z M 19.2 14.0 C 19.2 13.9 19.2 13.9 19.2 14.0 C 19.2 14.0 19.2 14.0 19.2 14.0 Z M 20.9 12.8 C 19.1 13.8 22.2 11.5 20.9 12.8 C 20.9 12.8 20.9 12.8 20.9 12.8 Z M 20.7 13.7 C 21.5 13.3 20.1 14.6 20.7 13.7 M 23.3 12.5 C 23.1 11.8 25.4 12.7 23.3 12.5 C 23.3 12.5 23.3 12.5 23.3 12.5 Z M 26.3 7.7 C 26.4 7.6 26.4 7.6 26.3 7.7 C 26.3 7.7 26.3 7.7 26.3 7.7 Z M 21.3 10.3 C 21.7 9.6 21.5 10.5 21.3 10.3 C 21.3 10.3 21.3 10.3 21.3 10.3 Z M 18.1 15.7 C 18.5 15.1 18.2 16.1 18.1 15.7 C 18.1 15.7 18.1 15.7 18.1 15.7 Z M 26.1 6.0 C 26.4 4.9 26.6 6.2 26.1 6.0 C 26.1 6.0 26.1 6.0 26.1 6.0 Z M 22.5 5.3 C 22.5 5.3 22.5 5.3 22.5 5.3 C 22.5 5.3 22.5 5.3 22.5 5.3 Z M 21.2 5.8 C 21.2 5.8 21.2 5.8 21.2 5.8 C 21.2 5.8 21.2 5.8 21.2 5.8 Z M 18.7 4.7 C 18.7 4.6 18.7 4.6 18.7 4.7 C 18.7 4.7 18.7 4.7 18.7 4.7 Z M 20.1 6.3 C 20.1 6.3 20.1 6.3 20.1 6.3 C 20.1 6.3 20.1 6.3 20.1 6.3 Z M 18.4 6.0 C 18.4 6.0 18.4 6.0 18.4 6.0 C 18.4 6.0 18.4 6.0 18.4 6.0 Z M 18.1 7.0 C 18.1 7.0 18.1 7.0 18.1 7.0 C 18.1 7.0 18.1 7.0 18.1 7.0 Z M 28.9 2.2 C 28.8 2.1 28.8 2.1 28.9 2.2 C 28.9 2.2 28.9 2.2 28.9 2.2 Z M 19.3 13.0 C 19.5 12.9 19.5 12.9 19.3 13.0 C 19.3 13.0 19.3 13.0 19.3 13.0 Z M 18.8 5.6 C 18.8 5.6 18.8 5.6 18.8 5.6 C 18.8 5.6 18.8 5.6 18.8 5.6 Z M 25.4 4.7 C 26.9 3.8 23.9 6.0 25.2 4.8 C 25.3 4.7 25.2 4.9 25.4 4.7 M 26.8 3.2 C 26.9 3.1 26.9 3.1 26.8 3.2 C 26.8 3.2 26.8 3.2 26.8 3.2 Z M 28.7 4.1 C 28.7 4.1 28.7 4.1 28.7 4.1 C 28.7 4.1 28.7 4.1 28.7 4.1 Z M 20.2 6.5 C 19.8 7.0 20.1 6.1 20.3 6.5 M 19.4 3.0 C 19.3 3.5 18.6 2.6 19.6 3.0 M 18.2 16.4 C 18.6 16.5 17.7 16.8 18.2 16.4 M 29.1 4.3 C 29.7 4.1 28.5 5.1 29.1 4.3 M 27.9 4.0 C 27.0 4.7 29.0 2.9 27.9 4.1 M 21.9 3.1 C 21.8 3.0 21.8 3.0 21.9 3.1 C 21.9 3.1 21.9 3.1 21.9 3.1 Z M 22.0 9.2 C 22.0 9.2 22.0 9.2 22.0 9.2 C 22.0 9.2 22.0 9.2 22.0 9.2 Z M 25.3 5.4 C 23.9 6.5 26.4 4.4 25.3 5.4 M 23.4 9.2 C 21.8 10.4 24.4 8.0 23.4 9.2 M 17.6 2.8 C 18.2 3.9 16.9 2.2 17.6 2.8 M 20.4 5.5 C 20.0 6.6 20.3 4.9 20.4 5.5 M 23.0 8.3 C 22.1 8.8 23.9 7.4 23.0 8.3 M 18.8 15.0 C 18.4 15.6 18.7 14.4 18.8 15.0 M 24.3 3.0 C 24.3 3.0 24.3 3.0 24.3 3.0 C 24.3 3.0 24.3 3.0 24.3 3.0 Z M 25.4 11.5 C 25.4 11.4 25.4 11.4 25.4 11.5 C 25.4 11.5 25.4 11.5 25.4 11.5 Z M 16.2 6.3 C 16.2 6.3 16.2 6.3 16.2 6.3 C 16.2 6.3 16.2 6.3 16.2 6.3 Z M 21.2 5.0 C 21.2 4.9 21.2 4.9 21.2 5.0 C 21.2 5.0 21.2 5.0 21.2 5.0 Z M 17.2 6.5 C 17.2 6.4 17.2 6.4 17.2 6.5 C 17.2 6.5 17.2 6.5 17.2 6.5 Z M 24.6 4.2 C 24.6 4.1 24.6 4.1 24.6 4.2 C 24.6 4.2 24.6 4.2 24.6 4.2 Z M 21.3 6.9 C 21.3 6.9 21.3 6.9 21.3 6.9 C 21.3 6.9 21.3 6.9 21.3 6.9 Z M 23.9 6.5 C 23.9 6.5 23.9 6.5 23.9 6.5 C 23.9 6.5 23.9 6.5 23.9 6.5 Z M 20.8 6.7 C 19.6 6.9 22.5 5.8 20.8 6.7 C 20.8 6.7 20.8 6.7 20.8 6.7 Z M 27.1 4.0 C 27.1 3.9 27.1 3.9 27.1 4.0 C 27.1 4.0 27.1 4.0 27.1 4.0 Z M 24.0 5.9 C 24.0 5.9 24.0 5.9 24.0 5.9 C 22.2 6.6 25.5 4.7 24.2 5.8 C 24.1 5.8 24.1 5.9 24.0 5.9 M 21.1 9.9 C 20.6 10.0 22.2 9.3 21.1 9.9 M 25.6 9.2 C 25.7 9.2 25.7 9.2 25.6 9.2 C 25.6 9.2 25.6 9.2 25.6 9.2 Z M 25.5 8.9 C 25.5 8.8 25.5 8.8 25.5 8.9 C 25.5 8.9 25.5 8.9 25.5 8.9 Z M 20.5 10.8 C 20.5 10.8 20.5 10.8 20.5 10.8 C 20.5 10.8 20.5 10.8 20.5 10.8 Z M 27.0 8.2 C 27.1 8.1 27.1 8.1 27.0 8.2 C 27.0 8.2 27.0 8.2 27.0 8.2 Z M 21.8 6.8 C 21.8 6.8 21.8 6.8 21.8 6.8 C 21.8 6.8 21.8 6.8 21.8 6.8 Z M 16.7 6.9 C 16.7 6.9 16.7 6.9 16.7 6.9 C 16.7 6.9 16.7 6.9 16.7 6.9 Z M 22.6 14.1 C 22.6 14.1 22.6 14.1 22.6 14.1 C 22.6 14.1 22.6 14.1 22.6 14.1 Z M 22.7 5.8 C 22.7 5.7 22.7 5.7 22.7 5.8 C 22.7 5.8 22.7 5.8 22.7 5.8 Z M 24.8 10.4 C 24.9 10.4 24.9 10.4 24.8 10.4 C 24.8 10.4 24.8 10.4 24.8 10.4 Z M 22.8 6.0 C 22.8 6.0 22.8 6.0 22.8 6.0 C 22.8 6.0 22.8 6.0 22.8 6.0 Z M 24.9 2.8 C 24.8 2.8 24.8 2.8 24.9 2.8 C 24.9 2.8 24.9 2.8 24.9 2.8 Z M 23.1 2.2 C 23.1 2.2 23.1 2.2 23.1 2.2 C 23.1 2.2 23.1 2.2 23.1 2.2 Z M 22.9 4.7 C 22.8 4.7 22.8 4.7 22.9 4.7 C 22.9 4.7 22.9 4.7 22.9 4.7 Z M 22.9 11.5 C 20.1 14.6 23.5 9.5 22.9 11.5 M 22.6 4.5 C 24.5 4.7 19.9 5.6 22.6 4.5 C 22.0 4.8 22.5 4.5 22.6 4.5 M 15.7 6.8 C 16.3 5.8 16.4 4.8 16.0 3.8 C 15.4 3.2 15.6 5.3 15.4 3.5 C 16.7 3.2 14.4 1.0 14.9 3.2 C 13.3 3.5 14.3 1.8 13.4 2.7 C 11.6 2.9 12.2 2.2 10.7 2.4 C 10.8 3.6 9.4 1.8 9.9 2.9 C 9.7 1.7 8.7 3.2 8.0 2.7 C 8.8 1.9 2.9 2.7 6.9 3.0 C 6.3 3.6 5.1 2.6 4.4 2.4 C 4.7 2.8 3.6 2.6 2.6 2.5 C 2.6 2.8 2.7 3.1 3.4 3.7 C 3.6 3.8 3.5 3.4 3.8 3.6 C 4.5 3.9 4.1 4.3 4.1 4.2 C 4.8 4.9 6.9 7.2 3.8 4.3 C 2.8 3.6 5.1 6.0 4.2 5.6 C 5.1 7.3 6.3 6.9 5.3 7.0 C 5.9 8.1 6.3 9.0 6.6 9.1 C 6.7 9.7 5.9 9.5 7.1 10.5 C 6.2 11.5 11.1 12.6 7.9 12.1 C 9.0 12.7 7.0 12.6 9.0 13.0 C 7.8 12.3 8.8 15.3 9.5 14.2 C 10.2 14.6 8.8 16.2 10.5 16.1 C 12.2 16.8 13.6 16.8 14.3 15.8 C 13.2 15.8 14.9 14.9 13.3 15.3 C 13.2 16.3 11.6 13.3 12.7 14.1 C 15.2 14.8 10.4 12.2 11.9 12.2 C 11.1 12.4 9.3 9.7 11.7 11.3 C 11.7 10.9 10.6 10.4 11.6 10.5 C 12.1 11.7 9.1 9.0 10.5 9.6 C 11.4 10.2 11.0 8.7 9.9 8.2 C 7.2 7.4 10.2 8.0 8.8 7.0 C 7.5 5.5 11.6 8.7 8.9 6.6 C 8.9 6.6 8.9 6.4 8.9 6.2 C 9.5 6.3 10.0 6.4 9.9 6.7 C 9.2 6.5 7.6 4.6 10.1 6.2 C 10.1 7.2 12.3 6.7 11.3 6.2 C 7.5 5.3 13.0 5.2 11.8 6.1 C 13.5 7.0 11.8 6.5 12.7 6.1 C 12.1 5.6 12.9 5.0 13.3 6.1 C 14.4 7.7 12.5 4.0 14.5 6.1 C 14.9 7.1 16.0 5.5 15.5 6.5 C 15.5 6.6 15.7 6.8 15.7 6.8 M 15.3 6.6 C 15.4 6.3 15.6 7.0 15.3 6.6 M 15.4 6.3 C 15.4 6.3 15.4 6.3 15.4 6.3 C 15.4 6.3 15.4 6.3 15.4 6.3 Z M 12.8 6.0 C 12.9 6.1 12.9 6.1 12.8 6.0 C 12.8 6.0 12.8 6.0 12.8 6.0 Z M 6.3 2.1 C 6.4 2.1 6.4 2.1 6.3 2.1 C 6.3 2.1 6.3 2.1 6.3 2.1 Z M 11.1 5.9 C 11.1 5.9 11.1 5.9 11.1 5.9 C 11.1 5.9 11.1 5.9 11.1 5.9 Z M 13.6 5.8 C 13.6 5.8 13.6 5.8 13.6 5.8 C 13.6 5.8 13.6 5.8 13.6 5.8 Z M 11.8 6.5 C 11.1 5.9 12.8 6.9 11.9 6.6 C 11.9 6.6 12.0 6.6 11.8 6.5 M 10.2 6.7 C 10.1 6.7 10.1 6.7 10.2 6.7 M 5.1 7.9 C 5.0 7.9 5.0 7.9 5.1 7.9 M 12.2 11.2 C 12.1 11.2 12.1 11.2 12.2 11.2 M 9.6 7.7 C 10.1 8.5 9.2 7.7 9.6 7.7 M 12.6 12.8 C 12.7 12.2 13.5 13.8 12.6 12.8 M 13.5 13.7 C 13.5 13.8 13.5 13.8 13.5 13.7 M 11.2 9.9 C 11.1 9.9 11.1 9.9 11.2 9.9 C 11.2 9.9 11.2 9.9 11.2 9.9 Z M 9.8 7.7 C 9.9 7.1 11.1 9.0 9.8 7.7 M 13.0 6.6 C 12.8 6.9 12.4 5.8 13.0 6.6 M 13.7 6.3 C 13.7 6.2 13.7 6.2 13.7 6.3 C 13.7 6.3 13.7 6.3 13.7 6.3 Z M 11.9 11.5 C 11.9 11.4 11.9 11.4 11.9 11.5 C 11.9 11.5 11.9 11.5 11.9 11.5 Z M 12.6 12.5 C 12.6 12.4 12.6 12.4 12.6 12.5 C 12.6 12.5 12.6 12.5 12.6 12.5 Z M 7.8 12.7 C 7.8 12.6 7.8 12.6 7.8 12.7 C 7.8 12.7 7.8 12.7 7.8 12.7 Z M 11.7 4.4 C 12.7 4.7 12.0 5.9 11.2 4.8 C 10.8 4.4 11.6 4.5 11.7 4.4 M 7.3 5.8 C 5.0 4.6 10.3 7.1 7.3 5.8 M 12.3 13.5 C 10.4 13.7 13.5 13.2 12.3 13.5 M 13.4 15.0 C 13.2 15.3 11.8 12.4 13.5 14.6 C 14.0 14.8 13.6 14.9 13.4 15.0 M 9.1 6.0 C 7.6 5.2 10.6 6.4 9.1 6.0 M 6.7 7.9 C 7.7 8.6 8.9 9.9 7.4 8.9 C 5.7 8.2 5.8 7.1 6.7 7.9 M 14.9 5.8 C 14.8 7.1 14.6 4.7 14.9 5.8 M 12.1 5.7 C 12.2 5.7 12.2 5.7 12.1 5.7 C 12.1 5.7 12.1 5.7 12.1 5.7 Z M 11.3 5.9 C 11.1 5.8 11.1 5.8 11.3 5.9 M 14.9 6.9 C 14.8 6.8 14.8 6.8 14.9 6.9 M 8.8 8.8 C 8.6 8.8 8.6 8.8 8.8 8.8 M 8.9 7.2 C 7.5 7.2 8.2 6.4 8.9 7.2 M 5.7 3.3 C 4.3 2.7 6.6 3.3 5.7 3.3 M 10.6 9.3 C 9.1 9.2 8.2 7.4 10.6 9.3 M 8.9 6.8 C 8.9 6.9 8.9 6.9 8.9 6.8 C 8.9 6.8 8.9 6.8 8.9 6.8 Z M 6.7 8.1 C 6.7 8.1 6.7 8.1 6.7 8.1 C 6.7 8.1 6.7 8.1 6.7 8.1 Z M 7.0 8.5 C 6.9 8.5 6.9 8.5 7.0 8.5 C 7.0 8.5 7.0 8.5 7.0 8.5 Z M 11.2 10.3 C 11.2 10.2 11.2 10.2 11.2 10.3 C 11.2 10.3 11.2 10.3 11.2 10.3 Z M 11.9 2.9 C 10.6 2.8 12.7 2.7 11.9 2.9 C 11.9 2.9 11.9 2.9 11.9 2.9 Z M 11.1 6.5 C 8.6 5.5 10.9 5.6 11.1 6.5 C 11.1 6.5 11.1 6.5 11.1 6.5 Z M 7.5 4.9 C 7.4 4.8 7.4 4.8 7.5 4.9 C 7.5 4.9 7.5 4.9 7.5 4.9 Z M 11.5 9.4 C 11.4 9.4 11.4 9.4 11.5 9.4 C 11.5 9.4 11.5 9.4 11.5 9.4 Z M 11.2 2.7 C 11.1 2.6 11.1 2.6 11.2 2.7 C 11.2 2.7 11.2 2.7 11.2 2.7 Z M 11.4 11.9 C 11.3 11.9 11.3 11.9 11.4 11.9 C 11.4 11.9 11.4 11.9 11.4 11.9 Z M 5.1 5.6 C 6.0 6.3 4.6 5.3 5.1 5.6 C 5.1 5.6 5.1 5.6 5.1 5.6 Z M 5.8 6.9 C 5.9 6.9 5.9 6.9 5.8 6.9 C 5.8 6.9 5.8 6.9 5.8 6.9 Z M 13.8 14.0 C 13.8 14.0 13.8 14.0 13.8 14.0 C 13.8 14.0 13.8 14.0 13.8 14.0 Z M 6.0 9.7 C 6.0 9.8 6.0 9.8 6.0 9.7 C 6.0 9.7 6.0 9.7 6.0 9.7 Z M 8.6 11.5 C 8.6 11.5 8.6 11.5 8.6 11.5 C 8.6 11.5 8.6 11.5 8.6 11.5 Z M 10.7 9.9 C 11.6 11.1 9.7 9.2 10.7 9.9 C 10.7 9.9 10.7 9.9 10.7 9.9 Z M 10.8 14.9 C 10.8 14.9 10.8 14.9 10.8 14.9 C 10.8 14.9 10.8 14.9 10.8 14.9 Z M 13.2 15.8 C 13.1 15.8 13.1 15.8 13.2 15.8 C 13.2 15.8 13.2 15.8 13.2 15.8 Z M 14.4 16.2 C 14.4 16.2 14.4 16.2 14.4 16.2 C 14.4 16.2 14.4 16.2 14.4 16.2 Z M 9.4 4.1 C 9.5 4.1 9.5 4.1 9.4 4.1 C 9.4 4.1 9.4 4.1 9.4 4.1 Z M 12.6 6.8 C 12.6 6.8 12.6 6.8 12.6 6.8 C 12.6 6.8 12.6 6.8 12.6 6.8 Z M 11.6 6.9 C 11.6 6.9 11.6 6.9 11.6 6.9 C 11.6 6.9 11.6 6.9 11.6 6.9 Z M 8.2 2.4 C 8.2 2.4 8.2 2.4 8.2 2.4 C 8.2 2.4 8.2 2.4 8.2 2.4 Z M 7.6 7.1 C 7.7 7.1 7.7 7.1 7.6 7.1 C 7.6 7.1 7.6 7.1 7.6 7.1 Z M 6.2 6.9 C 6.3 6.9 6.3 6.9 6.2 6.9 C 6.2 6.9 6.2 6.9 6.2 6.9 Z M 3.1 4.0 C 3.1 4.0 3.1 4.0 3.1 4.0 C 3.1 4.0 3.1 4.0 3.1 4.0 Z M 5.0 6.6 C 5.1 6.6 5.1 6.6 5.0 6.6 C 5.0 6.6 5.0 6.6 5.0 6.6 Z M 14.6 2.9 C 14.6 2.9 14.6 2.9 14.6 2.9 C 14.6 2.9 14.6 2.9 14.6 2.9 Z M 15.1 5.0 C 15.2 4.9 15.2 4.9 15.1 5.0 C 15.1 5.0 15.1 5.0 15.1 5.0 Z M 10.1 8.5 C 10.9 9.1 9.5 8.6 10.1 8.5 M 8.6 6.2 C 8.5 6.2 8.5 6.2 8.6 6.2 C 8.6 6.2 8.6 6.2 8.6 6.2 Z M 11.8 11.9 C 10.8 11.8 11.9 11.2 11.8 11.9 C 11.8 11.9 11.8 11.9 11.8 11.9 Z M 6.2 8.8 C 6.2 8.8 6.2 8.8 6.2 8.8 C 6.2 8.8 6.2 8.8 6.2 8.8 Z M 7.1 9.7 C 7.0 9.7 7.0 9.7 7.1 9.7 C 7.1 9.7 7.1 9.7 7.1 9.7 Z M 12.0 14.1 C 11.9 14.1 11.9 14.1 12.0 14.1 M 9.7 6.7 C 9.7 6.7 9.7 6.7 9.7 6.7 C 8.7 6.4 8.9 6.4 9.7 6.7 C 9.7 6.7 9.7 6.7 9.7 6.7 M 12.2 12.6 C 12.1 12.6 12.1 12.6 12.2 12.6 C 12.2 12.6 12.2 12.6 12.2 12.6 Z M 12.9 14.9 C 12.9 14.9 12.9 14.9 12.9 14.9 C 12.9 14.9 12.9 14.9 12.9 14.9 Z M 10.1 6.2 C 8.7 5.1 9.4 5.4 10.1 6.2 M 13.9 5.8 C 13.8 5.8 13.8 5.8 13.9 5.8 C 13.9 5.8 13.9 5.8 13.9 5.8 Z M 13.9 5.8 " fill="#FEFFFE"></path></g></svg>