<?xml version="1.0" encoding="UTF-8" standalone="no"?><svg xmlns="http://www.w3.org/2000/svg" xmlns:xlink="http://www.w3.org/1999/xlink" clip-rule="evenodd" stroke-miterlimit="10" viewBox="0 0 31 30"><desc>SVG generated by Keynote</desc><defs></defs><g transform="matrix(1.00, 0.00, -0.00, -1.00, 0.0, 30.0)"><path d="M 18.0 15.2 C 18.0 15.4 17.5 15.9 17.6 16.1 M 18.0 15.2 C 16.6 15.8 16.1 16.6 15.4 17.7 C 14.7 18.8 16.3 17.7 16.6 17.9 C 16.1 19.6 15.5 19.5 14.6 19.0 C 14.9 19.8 12.9 21.1 14.2 21.2 C 15.6 18.7 13.4 23.3 15.3 21.3 C 15.7 21.1 15.6 21.9 15.5 22.2 C 16.4 21.6 16.1 23.3 17.2 22.0 C 18.1 22.1 17.6 22.2 18.7 21.5 C 19.0 21.1 18.6 21.2 18.4 21.2 C 17.6 20.7 19.6 20.1 19.4 19.2 C 21.1 18.6 20.0 17.7 19.1 18.3 C 19.6 17.6 21.4 16.8 20.9 16.1 C 21.8 15.7 22.3 13.8 20.8 15.0 C 19.8 15.8 19.9 15.0 19.6 14.9 C 19.2 15.2 19.1 16.2 18.7 16.4 C 18.7 16.1 18.8 14.8 18.2 16.2 C 17.9 15.8 17.3 16.4 18.0 15.2 C 18.0 15.2 18.0 15.2 18.0 15.2 Z M 14.9 19.6 C 14.6 19.5 15.1 19.2 14.9 19.6 C 14.9 19.6 14.9 19.6 14.9 19.6 Z M 21.2 16.7 C 20.9 16.7 21.5 16.1 21.2 16.7 C 21.2 16.7 21.2 16.7 21.2 16.7 Z M 18.6 20.9 C 18.3 20.8 18.9 20.3 18.6 20.9 C 18.6 20.9 18.6 20.9 18.6 20.9 Z M 15.7 18.5 C 16.3 17.9 15.8 19.2 15.5 19.2 C 15.6 19.1 15.3 18.6 15.7 18.5 C 15.7 18.5 15.7 18.5 15.7 18.5 Z M 17.7 18.7 C 17.6 18.6 17.7 18.3 18.0 18.4 C 18.0 18.6 17.7 18.8 17.7 18.7 C 17.7 18.7 17.7 18.7 17.7 18.7 Z M 14.4 22.0 C 14.3 21.9 14.5 21.6 14.7 21.8 C 14.7 22.0 14.5 22.1 14.4 22.0 C 14.4 22.0 14.4 22.0 14.4 22.0 Z M 17.0 17.8 C 17.2 17.6 17.5 17.6 17.4 17.8 C 17.2 17.9 16.9 18.4 17.0 17.8 C 17.0 17.8 17.0 17.8 17.0 17.8 Z M 16.4 16.7 C 16.9 16.1 16.8 17.3 16.7 17.3 C 16.3 17.4 16.0 17.0 16.4 16.7 C 16.4 16.7 16.4 16.7 16.4 16.7 Z M 17.7 17.5 C 18.1 17.0 17.8 17.7 17.7 17.5 C 17.7 17.5 17.7 17.5 17.7 17.5 Z M 16.8 22.5 C 17.3 22.0 16.9 22.9 16.8 22.5 C 16.8 22.5 16.8 22.5 16.8 22.5 Z M 19.5 19.6 C 20.0 19.0 19.6 19.9 19.5 19.6 C 19.5 19.6 19.5 19.6 19.5 19.6 Z M 15.6 19.9 C 15.2 20.8 14.8 19.8 15.6 19.9 C 15.6 19.9 15.6 19.9 15.6 19.9 Z M 17.0 15.4 C 16.6 16.2 16.0 15.6 17.0 15.4 C 17.0 15.4 17.0 15.4 17.0 15.4 Z M 16.3 20.9 C 16.9 21.6 16.4 18.5 15.7 19.8 C 14.9 20.4 13.8 18.3 15.1 18.6 C 14.9 18.0 15.0 18.0 14.3 17.7 C 15.0 17.6 14.8 16.3 14.1 15.8 C 13.1 15.4 14.4 16.7 13.2 15.9 C 12.0 14.0 12.5 15.9 11.1 15.1 C 11.0 15.0 11.5 15.0 11.1 14.8 C 10.1 14.6 10.1 15.8 9.1 15.2 C 9.5 15.6 9.4 17.2 9.8 16.5 C 10.5 16.3 9.8 18.4 11.0 18.1 C 10.7 18.8 11.8 19.2 11.4 19.9 C 11.5 20.3 12.1 20.2 12.2 20.1 C 12.8 19.9 11.2 20.9 12.6 21.3 C 12.3 21.4 13.4 23.2 13.1 21.7 C 13.2 22.1 14.0 24.2 14.5 22.7 C 14.3 21.2 16.2 23.5 15.5 22.0 C 15.0 20.9 14.7 20.7 15.6 21.3 C 15.7 21.6 16.5 22.8 16.4 21.5 C 16.1 21.4 15.9 20.8 16.3 20.9 C 16.3 20.9 16.3 20.9 16.3 20.9 Z M 14.9 21.7 C 14.5 21.1 15.3 21.5 14.9 21.7 C 14.9 21.7 14.9 21.7 14.9 21.7 Z M 11.1 19.8 C 10.6 19.0 11.5 19.7 11.1 19.8 C 11.1 19.8 11.1 19.8 11.1 19.8 Z M 15.6 19.0 C 15.1 18.8 16.3 18.5 15.6 19.0 C 15.6 19.0 15.6 19.0 15.6 19.0 Z M 12.7 20.9 C 12.6 20.8 12.9 21.0 13.0 21.1 C 12.9 21.1 12.7 20.9 12.7 20.9 C 12.7 20.9 12.7 20.9 12.7 20.9 Z M 15.1 18.0 C 14.0 17.2 16.0 17.8 15.1 18.0 C 15.1 18.0 15.1 18.0 15.1 18.0 Z M 12.9 16.3 C 11.6 16.1 12.7 15.3 12.9 16.3 C 12.9 16.3 12.9 16.3 12.9 16.3 Z M 10.9 17.8 C 11.3 18.0 10.8 18.0 10.9 17.8 C 10.9 17.8 10.9 17.8 10.9 17.8 Z M 13.4 22.8 C 13.7 22.8 13.3 23.0 13.4 22.8 C 13.4 22.8 13.4 22.8 13.4 22.8 Z M 10.3 16.4 C 10.8 16.5 10.2 16.8 10.3 16.4 C 10.3 16.4 10.3 16.4 10.3 16.4 Z M 15.1 18.9 C 16.4 19.5 14.3 20.3 15.1 18.9 C 15.1 18.9 15.1 18.9 15.1 18.9 Z M 15.9 20.3 C 16.4 20.8 15.3 20.4 15.3 20.1 C 15.4 20.1 15.8 20.3 15.9 20.3 C 15.9 20.3 15.9 20.3 15.9 20.3 Z M 14.5 18.1 C 15.3 18.6 14.5 18.6 14.5 18.1 C 14.5 18.1 14.5 18.1 14.5 18.1 Z M 15.8 19.4 C 15.8 19.7 15.5 19.2 15.8 19.4 C 15.8 19.4 15.8 19.4 15.8 19.4 Z M 15.0 16.9 C 15.0 17.2 14.7 16.7 15.0 16.9 C 15.0 16.9 15.0 16.9 15.0 16.9 Z M 16.7 20.8 C 16.8 21.1 16.5 20.7 16.7 20.8 C 16.7 20.8 16.7 20.8 16.7 20.8 Z M 14.4 17.2 C 13.9 17.1 13.4 18.0 13.4 16.5 C 13.6 16.2 14.6 16.8 14.4 17.2 C 14.4 17.2 14.4 17.2 14.4 17.2 Z M 18.9 13.5 C 16.1 16.2 19.0 15.4 19.4 15.5 C 19.9 15.8 20.6 15.4 21.4 14.7 C 23.5 13.8 20.2 14.0 22.1 13.3 C 25.0 11.9 20.5 12.8 23.3 11.8 C 23.9 11.8 24.0 10.7 23.8 10.8 C 25.4 9.8 23.6 9.7 23.3 9.8 C 23.9 9.2 26.4 8.3 25.3 7.7 C 25.1 7.0 28.0 5.3 26.0 6.5 C 28.5 4.7 25.6 6.2 26.7 5.2 C 28.2 4.1 24.9 6.1 27.7 4.0 C 26.1 4.6 28.6 3.8 28.7 2.0 C 28.2 2.8 28.0 2.5 28.1 2.1 C 27.7 2.1 27.5 2.1 28.2 1.8 C 30.5 0.9 26.2 2.1 25.5 1.6 C 24.5 2.0 21.8 3.0 23.2 1.9 C 22.8 0.6 21.1 2.7 21.3 1.6 C 21.1 1.2 20.2 2.1 20.0 2.1 C 19.9 1.2 19.1 1.8 17.3 1.6 C 13.0 1.2 16.3 3.7 15.1 3.9 C 15.0 4.3 16.0 7.0 15.9 5.0 C 16.0 5.5 18.9 3.5 16.8 5.7 C 17.9 4.8 16.4 6.6 18.1 5.5 C 16.5 4.0 20.9 4.9 18.3 5.6 C 18.2 6.1 19.0 6.0 18.8 5.6 C 19.7 4.2 19.3 6.3 20.4 4.6 C 21.2 5.0 22.6 3.5 21.8 4.6 C 19.7 6.4 22.3 4.1 22.3 4.6 C 24.0 4.6 19.6 6.8 22.5 5.4 C 22.5 5.4 22.5 5.4 22.5 5.4 C 20.7 7.3 23.9 4.7 24.0 5.1 C 26.0 4.0 21.6 7.5 21.9 6.5 C 22.7 6.5 20.9 7.2 21.8 7.1 C 24.0 5.6 19.4 9.0 21.0 8.0 C 21.1 8.4 22.4 7.6 22.3 7.7 C 21.8 8.7 20.2 9.2 21.4 8.8 C 22.0 8.7 19.5 10.1 20.0 10.0 C 20.6 9.0 21.4 10.1 20.4 10.5 C 20.6 10.0 18.1 11.6 19.2 11.5 C 23.1 9.7 17.9 12.5 18.9 12.6 C 21.1 11.6 18.1 14.6 17.7 13.8 C 17.8 13.8 18.9 13.5 18.9 13.5 M 20.2 10.1 C 20.8 9.3 20.2 10.8 20.2 10.1 M 19.6 10.4 C 20.5 9.8 18.8 11.2 19.4 10.4 C 19.4 10.4 19.6 10.4 19.6 10.4 M 21.2 7.4 C 21.8 7.1 20.6 8.0 21.2 7.4 M 22.9 6.0 C 23.8 5.1 22.6 6.6 22.9 6.0 M 17.3 5.1 C 19.2 3.0 17.3 6.3 17.3 5.1 M 21.2 5.6 C 22.4 5.3 19.7 6.5 21.2 5.6 M 22.2 5.0 C 23.1 4.7 21.6 5.5 22.2 5.0 M 18.6 5.1 C 18.6 5.1 18.6 5.1 18.6 5.1 C 18.6 5.1 18.6 5.1 18.6 5.1 Z M 16.6 5.1 C 16.6 5.1 16.6 5.1 16.6 5.1 C 16.6 5.1 16.6 5.1 16.6 5.1 Z M 20.8 4.9 C 20.8 5.4 19.6 5.1 20.8 4.9 C 20.8 4.9 20.8 4.9 20.8 4.9 Z M 19.1 1.8 C 19.2 1.8 19.2 1.8 19.1 1.8 C 19.1 1.8 19.1 1.8 19.1 1.8 Z M 21.2 10.2 C 21.3 10.2 21.3 10.2 21.2 10.2 C 21.2 10.2 21.2 10.2 21.2 10.2 Z M 18.8 13.0 C 19.2 12.9 18.3 13.5 18.8 13.0 C 18.8 13.0 18.8 13.0 18.8 13.0 Z M 20.8 14.6 C 20.8 14.6 20.8 14.6 20.8 14.6 C 20.8 14.6 20.8 14.6 20.8 14.6 Z M 22.3 10.5 C 22.4 10.6 22.4 10.6 22.3 10.5 C 22.3 10.5 22.3 10.5 22.3 10.5 Z M 20.4 10.9 C 18.5 11.8 21.3 9.8 20.4 10.9 C 20.4 10.9 20.4 10.9 20.4 10.9 Z M 25.5 1.9 C 24.7 2.5 24.8 1.8 25.5 1.9 C 25.5 1.9 25.5 1.9 25.5 1.9 Z M 23.7 5.5 C 23.3 5.6 24.1 5.0 23.7 5.5 C 23.7 5.5 23.7 5.5 23.7 5.5 Z M 20.5 8.1 C 20.1 8.2 20.9 7.7 20.5 8.1 C 20.5 8.1 20.5 8.1 20.5 8.1 Z M 18.4 13.1 C 18.4 13.0 18.4 13.0 18.4 13.1 C 18.4 13.1 18.4 13.1 18.4 13.1 Z M 20.1 11.9 C 18.3 12.9 21.4 10.7 20.1 11.9 C 20.1 11.9 20.1 11.9 20.1 11.9 Z M 19.9 12.9 C 20.7 12.4 19.3 13.7 19.9 12.9 M 22.5 11.6 C 22.3 10.9 24.6 11.8 22.5 11.6 C 22.5 11.6 22.5 11.6 22.5 11.6 Z M 25.5 6.8 C 25.6 6.8 25.6 6.8 25.5 6.8 C 25.5 6.8 25.5 6.8 25.5 6.8 Z M 20.5 9.4 C 20.9 8.7 20.7 9.6 20.5 9.4 C 20.5 9.4 20.5 9.4 20.5 9.4 Z M 17.3 14.9 C 17.7 14.2 17.4 15.2 17.3 14.9 C 17.3 14.9 17.3 14.9 17.3 14.9 Z M 25.3 5.1 C 25.6 4.0 25.8 5.4 25.3 5.1 C 25.3 5.1 25.3 5.1 25.3 5.1 Z M 21.7 4.5 C 21.7 4.4 21.7 4.4 21.7 4.5 C 21.7 4.5 21.7 4.5 21.7 4.5 Z M 20.4 4.9 C 20.4 4.9 20.4 4.9 20.4 4.9 C 20.4 4.9 20.4 4.9 20.4 4.9 Z M 17.9 3.8 C 17.9 3.7 17.9 3.7 17.9 3.8 C 17.9 3.8 17.9 3.8 17.9 3.8 Z M 19.3 5.5 C 19.3 5.4 19.3 5.4 19.3 5.5 C 19.3 5.5 19.3 5.5 19.3 5.5 Z M 17.6 5.2 C 17.6 5.1 17.6 5.1 17.6 5.2 C 17.6 5.2 17.6 5.2 17.6 5.2 Z M 17.3 6.1 C 17.3 6.1 17.3 6.1 17.3 6.1 C 17.3 6.1 17.3 6.1 17.3 6.1 Z M 28.1 1.3 C 28.0 1.3 28.0 1.3 28.1 1.3 C 28.1 1.3 28.1 1.3 28.1 1.3 Z M 18.5 12.1 C 18.7 12.0 18.7 12.0 18.5 12.1 C 18.5 12.1 18.5 12.1 18.5 12.1 Z M 18.0 4.7 C 18.0 4.7 18.0 4.7 18.0 4.7 C 18.0 4.7 18.0 4.7 18.0 4.7 Z M 24.6 3.9 C 26.0 2.9 23.1 5.1 24.4 3.9 C 24.5 3.9 24.4 4.0 24.6 3.9 M 26.0 2.3 C 26.1 2.3 26.1 2.3 26.0 2.3 C 26.0 2.3 26.0 2.3 26.0 2.3 Z M 27.9 3.2 C 27.9 3.2 27.9 3.2 27.9 3.2 C 27.9 3.2 27.9 3.2 27.9 3.2 Z M 19.4 5.6 C 19.0 6.2 19.3 5.2 19.5 5.6 M 18.6 2.1 C 18.5 2.7 17.8 1.7 18.8 2.1 M 17.4 15.5 C 17.8 15.6 16.9 16.0 17.4 15.5 M 28.3 3.5 C 28.9 3.2 27.7 4.2 28.3 3.5 M 27.1 3.2 C 26.2 3.8 28.2 2.1 27.1 3.2 M 21.1 2.2 C 21.0 2.2 21.0 2.2 21.1 2.2 C 21.1 2.2 21.1 2.2 21.1 2.2 Z M 21.2 8.4 C 21.2 8.3 21.2 8.3 21.2 8.4 C 21.2 8.4 21.2 8.4 21.2 8.4 Z M 24.5 4.5 C 23.1 5.6 25.6 3.5 24.5 4.5 M 22.6 8.3 C 21.0 9.5 23.6 7.2 22.6 8.3 M 16.8 1.9 C 17.4 3.0 16.1 1.3 16.8 1.9 M 19.6 4.6 C 19.2 5.7 19.5 4.0 19.6 4.6 M 22.2 7.5 C 21.3 7.9 23.1 6.5 22.2 7.5 M 18.0 14.1 C 17.6 14.7 17.9 13.5 18.0 14.1 M 23.5 2.1 C 23.5 2.1 23.5 2.1 23.5 2.1 C 23.5 2.1 23.5 2.1 23.5 2.1 Z M 24.6 10.6 C 24.6 10.6 24.6 10.6 24.6 10.6 C 24.6 10.6 24.6 10.6 24.6 10.6 Z M 15.4 5.5 C 15.4 5.4 15.4 5.4 15.4 5.5 C 15.4 5.5 15.4 5.5 15.4 5.5 Z M 20.4 4.1 C 20.4 4.1 20.4 4.1 20.4 4.1 C 20.4 4.1 20.4 4.1 20.4 4.1 Z M 16.4 5.6 C 16.4 5.5 16.4 5.5 16.4 5.6 C 16.4 5.6 16.4 5.6 16.4 5.6 Z M 23.7 3.3 C 23.8 3.3 23.8 3.3 23.7 3.3 C 23.7 3.3 23.7 3.3 23.7 3.3 Z M 20.5 6.0 C 20.5 6.0 20.5 6.0 20.5 6.0 C 20.5 6.0 20.5 6.0 20.5 6.0 Z M 23.1 5.6 C 23.1 5.6 23.1 5.6 23.1 5.6 C 23.1 5.6 23.1 5.6 23.1 5.6 Z M 20.0 5.8 C 18.8 6.0 21.7 4.9 20.0 5.8 C 20.0 5.8 20.0 5.8 20.0 5.8 Z M 26.3 3.1 C 26.3 3.0 26.3 3.0 26.3 3.1 C 26.3 3.1 26.3 3.1 26.3 3.1 Z M 23.2 5.1 C 23.2 5.1 23.2 5.1 23.2 5.1 C 21.4 5.7 24.7 3.8 23.4 4.9 C 23.3 5.0 23.3 5.0 23.2 5.1 M 20.3 9.0 C 19.8 9.1 21.4 8.5 20.3 9.0 M 24.8 8.3 C 24.9 8.3 24.9 8.3 24.8 8.3 C 24.8 8.3 24.8 8.3 24.8 8.3 Z M 24.7 8.0 C 24.7 7.9 24.7 7.9 24.7 8.0 C 24.7 8.0 24.7 8.0 24.7 8.0 Z M 19.7 9.9 C 19.7 9.9 19.7 9.9 19.7 9.9 C 19.7 9.9 19.7 9.9 19.7 9.9 Z M 26.2 7.3 C 26.3 7.2 26.3 7.2 26.2 7.3 C 26.2 7.3 26.2 7.3 26.2 7.3 Z M 20.9 6.0 C 21.0 6.0 21.0 6.0 20.9 6.0 C 20.9 6.0 20.9 6.0 20.9 6.0 Z M 15.9 6.0 C 15.9 6.0 15.9 6.0 15.9 6.0 C 15.9 6.0 15.9 6.0 15.9 6.0 Z M 21.8 13.2 C 21.8 13.2 21.8 13.2 21.8 13.2 C 21.8 13.2 21.8 13.2 21.8 13.2 Z M 21.9 4.9 C 21.9 4.8 21.9 4.8 21.9 4.9 C 21.9 4.9 21.9 4.9 21.9 4.9 Z M 24.0 9.5 C 24.1 9.5 24.1 9.5 24.0 9.5 C 24.0 9.5 24.0 9.5 24.0 9.5 Z M 22.0 5.1 C 22.0 5.1 22.0 5.1 22.0 5.1 C 22.0 5.1 22.0 5.1 22.0 5.1 Z M 24.1 1.9 C 24.0 1.9 24.0 1.9 24.1 1.9 C 24.1 1.9 24.1 1.9 24.1 1.9 Z M 22.3 1.3 C 22.3 1.3 22.3 1.3 22.3 1.3 C 22.3 1.3 22.3 1.3 22.3 1.3 Z M 22.1 3.8 C 22.0 3.8 22.0 3.8 22.1 3.8 C 22.1 3.8 22.1 3.8 22.1 3.8 Z M 22.1 10.6 C 19.3 13.8 22.7 8.6 22.1 10.6 M 21.8 3.6 C 23.7 3.8 19.1 4.7 21.8 3.6 C 21.2 3.9 21.7 3.6 21.8 3.6 M 14.9 5.9 C 15.5 4.9 15.6 3.9 15.2 2.9 C 14.6 2.4 14.8 4.4 14.6 2.7 C 15.9 2.3 13.6 0.1 14.0 2.3 C 12.5 2.6 13.5 0.9 12.6 1.8 C 10.8 2.0 11.4 1.3 9.9 1.5 C 9.9 2.7 8.6 0.9 9.1 2.0 C 8.9 0.8 7.9 2.4 7.2 1.8 C 8.0 1.0 2.1 1.8 6.1 2.2 C 5.5 2.7 4.3 1.7 3.6 1.6 C 3.9 2.0 2.8 1.7 1.8 1.6 C 1.8 1.9 1.9 2.3 2.6 2.9 C 2.8 2.9 2.7 2.6 3.0 2.7 C 3.7 3.0 3.3 3.4 3.3 3.3 C 4.0 4.0 6.0 6.3 3.0 3.4 C 2.0 2.8 4.3 5.2 3.4 4.7 C 4.3 6.4 5.5 6.0 4.5 6.1 C 5.1 7.3 5.5 8.1 5.8 8.2 C 5.9 8.9 5.1 8.7 6.3 9.7 C 5.4 10.6 10.3 11.7 7.1 11.2 C 8.1 11.9 6.2 11.7 8.2 12.2 C 7.0 11.4 8.0 14.4 8.7 13.3 C 9.4 13.7 8.0 15.4 9.7 15.2 C 11.4 16.0 12.8 15.9 13.5 14.9 C 12.4 14.9 14.1 14.0 12.5 14.4 C 12.4 15.4 10.8 12.4 11.9 13.2 C 14.4 13.9 9.6 11.4 11.1 11.3 C 10.3 11.5 8.5 8.9 10.9 10.4 C 10.9 10.0 9.8 9.5 10.8 9.6 C 11.3 10.8 8.3 8.1 9.7 8.8 C 10.6 9.4 10.2 7.8 9.1 7.3 C 6.4 6.5 9.4 7.1 8.0 6.1 C 6.7 4.6 10.8 7.8 8.1 5.7 C 8.1 5.7 8.1 5.5 8.1 5.4 C 8.7 5.5 9.2 5.6 9.1 5.8 C 8.4 5.6 6.8 3.7 9.3 5.4 C 9.3 6.3 11.5 5.9 10.5 5.4 C 6.7 4.5 12.2 4.3 10.9 5.2 C 12.7 6.1 11.0 5.6 11.9 5.2 C 11.3 4.7 12.1 4.2 12.5 5.2 C 13.6 6.8 11.7 3.1 13.7 5.3 C 14.1 6.2 15.2 4.6 14.7 5.6 C 14.7 5.7 14.9 5.9 14.9 5.9 M 14.5 5.7 C 14.6 5.4 14.8 6.2 14.5 5.7 M 14.6 5.4 C 14.6 5.4 14.6 5.4 14.6 5.4 C 14.6 5.4 14.6 5.4 14.6 5.4 Z M 12.0 5.1 C 12.1 5.2 12.1 5.2 12.0 5.1 C 12.0 5.1 12.0 5.1 12.0 5.1 Z M 5.5 1.2 C 5.6 1.2 5.6 1.2 5.5 1.2 C 5.5 1.2 5.5 1.2 5.5 1.2 Z M 10.3 5.1 C 10.3 5.1 10.3 5.1 10.3 5.1 C 10.3 5.1 10.3 5.1 10.3 5.1 Z M 12.8 4.9 C 12.8 4.9 12.8 4.9 12.8 4.9 C 12.8 4.9 12.8 4.9 12.8 4.9 Z M 11.0 5.6 C 10.3 5.0 12.0 6.1 11.1 5.7 C 11.1 5.7 11.1 5.7 11.0 5.6 M 9.4 5.9 C 9.3 5.8 9.3 5.8 9.4 5.9 M 4.3 7.1 C 4.2 7.0 4.2 7.0 4.3 7.1 M 11.4 10.4 C 11.3 10.4 11.3 10.4 11.4 10.4 M 8.8 6.9 C 9.2 7.6 8.4 6.8 8.8 6.9 M 11.8 11.9 C 11.9 11.3 12.7 12.9 11.8 11.9 M 12.7 12.9 C 12.7 12.9 12.7 12.9 12.7 12.9 M 10.4 9.0 C 10.3 9.0 10.3 9.0 10.4 9.0 C 10.4 9.0 10.4 9.0 10.4 9.0 Z M 9.0 6.8 C 9.1 6.2 10.3 8.1 9.0 6.8 M 12.2 5.7 C 12.0 6.0 11.6 5.0 12.2 5.7 M 12.9 5.4 C 12.9 5.3 12.9 5.3 12.9 5.4 C 12.9 5.4 12.9 5.4 12.9 5.4 Z M 11.1 10.6 C 11.1 10.6 11.1 10.6 11.1 10.6 C 11.1 10.6 11.1 10.6 11.1 10.6 Z M 11.8 11.6 C 11.8 11.6 11.8 11.6 11.8 11.6 C 11.8 11.6 11.8 11.6 11.8 11.6 Z M 7.0 11.8 C 7.0 11.8 7.0 11.8 7.0 11.8 C 7.0 11.8 7.0 11.8 7.0 11.8 Z M 10.9 3.6 C 11.9 3.9 11.2 5.0 10.4 3.9 C 10.0 3.5 10.8 3.7 10.9 3.6 M 6.5 4.9 C 4.2 3.7 9.5 6.2 6.5 4.9 M 11.5 12.6 C 9.6 12.8 12.7 12.3 11.5 12.6 M 12.6 14.1 C 12.4 14.4 11.0 11.5 12.7 13.7 C 13.2 14.0 12.8 14.0 12.6 14.1 M 8.3 5.1 C 6.8 4.3 9.8 5.5 8.3 5.1 M 5.9 7.0 C 6.9 7.8 8.1 9.0 6.6 8.0 C 4.9 7.3 5.0 6.2 5.9 7.0 M 14.1 4.9 C 14.0 6.2 13.8 3.8 14.1 4.9 M 11.3 4.8 C 11.4 4.8 11.4 4.8 11.3 4.8 C 11.3 4.8 11.3 4.8 11.3 4.8 Z M 10.5 5.0 C 10.3 4.9 10.3 4.9 10.5 5.0 M 14.1 6.0 C 14.0 5.9 14.0 5.9 14.1 6.0 M 8.0 7.9 C 7.8 7.9 7.8 7.9 8.0 7.9 M 8.1 6.4 C 6.6 6.4 7.4 5.6 8.1 6.4 M 4.8 2.4 C 3.5 1.8 5.8 2.4 4.8 2.4 M 9.8 8.4 C 8.3 8.3 7.4 6.5 9.8 8.4 M 8.1 6.0 C 8.1 6.0 8.1 6.0 8.1 6.0 C 8.1 6.0 8.1 6.0 8.1 6.0 Z M 5.9 7.2 C 5.9 7.2 5.9 7.2 5.9 7.2 C 5.9 7.2 5.9 7.2 5.9 7.2 Z M 6.2 7.7 C 6.1 7.6 6.1 7.6 6.2 7.7 C 6.2 7.7 6.2 7.7 6.2 7.7 Z M 10.4 9.4 C 10.4 9.3 10.4 9.3 10.4 9.4 C 10.4 9.4 10.4 9.4 10.4 9.4 Z M 11.1 2.0 C 9.8 1.9 11.9 1.8 11.1 2.0 C 11.1 2.0 11.1 2.0 11.1 2.0 Z M 10.3 5.6 C 7.8 4.6 10.1 4.7 10.3 5.6 C 10.3 5.6 10.3 5.6 10.3 5.6 Z M 6.7 4.0 C 6.6 3.9 6.6 3.9 6.7 4.0 C 6.7 4.0 6.7 4.0 6.7 4.0 Z M 10.7 8.6 C 10.6 8.5 10.6 8.5 10.7 8.6 C 10.7 8.6 10.7 8.6 10.7 8.6 Z M 10.4 1.8 C 10.3 1.8 10.3 1.8 10.4 1.8 C 10.4 1.8 10.4 1.8 10.4 1.8 Z M 10.6 11.0 C 10.5 11.0 10.5 11.0 10.6 11.0 C 10.6 11.0 10.6 11.0 10.6 11.0 Z M 4.3 4.7 C 5.2 5.4 3.8 4.4 4.3 4.7 C 4.3 4.7 4.3 4.7 4.3 4.7 Z M 5.0 6.0 C 5.1 6.1 5.1 6.1 5.0 6.0 C 5.0 6.0 5.0 6.0 5.0 6.0 Z M 13.0 13.1 C 13.0 13.2 13.0 13.2 13.0 13.1 C 13.0 13.1 13.0 13.1 13.0 13.1 Z M 5.2 8.8 C 5.2 8.9 5.2 8.9 5.2 8.8 C 5.2 8.8 5.2 8.8 5.2 8.8 Z M 7.8 10.7 C 7.8 10.6 7.8 10.6 7.8 10.7 C 7.8 10.7 7.8 10.7 7.8 10.7 Z M 9.9 9.0 C 10.8 10.2 8.9 8.4 9.9 9.0 C 9.9 9.0 9.9 9.0 9.9 9.0 Z M 10.0 14.0 C 10.0 14.0 10.0 14.0 10.0 14.0 C 10.0 14.0 10.0 14.0 10.0 14.0 Z M 12.4 14.9 C 12.3 14.9 12.3 14.9 12.4 14.9 C 12.4 14.9 12.4 14.9 12.4 14.9 Z M 13.6 15.3 C 13.6 15.3 13.6 15.3 13.6 15.3 C 13.6 15.3 13.6 15.3 13.6 15.3 Z M 8.6 3.2 C 8.7 3.2 8.7 3.2 8.6 3.2 C 8.6 3.2 8.6 3.2 8.6 3.2 Z M 11.8 5.9 C 11.8 5.9 11.8 5.9 11.8 5.9 C 11.8 5.9 11.8 5.9 11.8 5.9 Z M 10.8 6.0 C 10.8 6.1 10.8 6.1 10.8 6.0 C 10.8 6.0 10.8 6.0 10.8 6.0 Z M 7.4 1.5 C 7.4 1.6 7.4 1.6 7.4 1.5 C 7.4 1.5 7.4 1.5 7.4 1.5 Z M 6.8 6.3 C 6.9 6.3 6.9 6.3 6.8 6.3 C 6.8 6.3 6.8 6.3 6.8 6.3 Z M 5.4 6.0 C 5.5 6.0 5.5 6.0 5.4 6.0 C 5.4 6.0 5.4 6.0 5.4 6.0 Z M 2.3 3.2 C 2.3 3.2 2.3 3.2 2.3 3.2 C 2.3 3.2 2.3 3.2 2.3 3.2 Z M 4.2 5.8 C 4.3 5.8 4.3 5.8 4.2 5.8 C 4.2 5.8 4.2 5.8 4.2 5.8 Z M 13.8 2.0 C 13.8 2.0 13.8 2.0 13.8 2.0 C 13.8 2.0 13.8 2.0 13.8 2.0 Z M 14.3 4.1 C 14.4 4.1 14.4 4.1 14.3 4.1 C 14.3 4.1 14.3 4.1 14.3 4.1 Z M 9.3 7.7 C 10.1 8.2 8.7 7.7 9.3 7.7 M 7.8 5.4 C 7.7 5.3 7.7 5.3 7.8 5.4 C 7.8 5.4 7.8 5.4 7.8 5.4 Z M 11.0 11.1 C 10.0 10.9 11.1 10.3 11.0 11.1 C 11.0 11.1 11.0 11.1 11.0 11.1 Z M 5.4 7.9 C 5.4 7.9 5.4 7.9 5.4 7.9 C 5.4 7.9 5.4 7.9 5.4 7.9 Z M 6.3 8.8 C 6.2 8.8 6.2 8.8 6.3 8.8 C 6.3 8.8 6.3 8.8 6.3 8.8 Z M 11.2 13.2 C 11.1 13.3 11.1 13.3 11.2 13.2 M 8.9 5.8 C 8.9 5.8 8.9 5.8 8.9 5.8 C 7.9 5.5 8.1 5.6 8.9 5.8 C 8.9 5.8 8.9 5.8 8.9 5.8 M 11.3 11.7 C 11.3 11.7 11.3 11.7 11.3 11.7 C 11.3 11.7 11.3 11.7 11.3 11.7 Z M 12.1 14.0 C 12.1 14.0 12.1 14.0 12.1 14.0 C 12.1 14.0 12.1 14.0 12.1 14.0 Z M 9.3 5.3 C 7.9 4.3 8.6 4.5 9.3 5.3 M 13.1 5.0 C 13.0 4.9 13.0 4.9 13.1 5.0 C 13.1 5.0 13.1 5.0 13.1 5.0 Z M 13.1 5.0 " fill="#FEFFFE"></path></g></svg>