<?xml version="1.0" encoding="UTF-8" standalone="no"?><svg xmlns="http://www.w3.org/2000/svg" xmlns:xlink="http://www.w3.org/1999/xlink" clip-rule="evenodd" stroke-miterlimit="10" viewBox="0 0 82 71"><desc>SVG generated by Keynote</desc><defs></defs><g transform="matrix(1.00, 0.00, -0.00, -1.00, 0.0, 71.0)"><image xlink:href="../../96FF219B-A4D2-4817-98A6-9DC6FFF8C1D6/assets/7E27A04615B3C479F79C21176BC2C653.png" width="79.00" height="68.00" transform="matrix(1.00, 0.00, -0.00, -1.00, 1.1, 69.6)" opacity="0.50"></image><path d="M 47.5 33.8 C 47.7 34.1 46.4 35.3 46.6 35.6 M 47.5 33.8 C 44.0 35.3 42.8 37.0 40.9 39.4 C 39.3 41.8 43.3 39.4 44.1 39.7 C 42.8 43.7 41.1 43.3 39.0 42.3 C 39.8 44.0 34.9 46.6 38.0 47.2 C 41.5 41.5 35.9 52.1 40.7 47.4 C 41.5 47.0 41.3 48.9 40.9 49.5 C 43.2 48.2 42.4 52.3 45.2 49.3 C 47.3 49.5 46.1 49.9 48.9 48.0 C 49.7 47.1 48.8 47.3 48.4 47.3 C 46.4 46.3 51.3 44.7 51.1 42.5 C 55.3 41.0 52.6 39.0 50.3 40.4 C 51.7 38.8 56.5 36.7 55.0 35.0 C 57.4 33.8 59.0 29.3 55.0 32.5 C 52.4 34.6 52.5 32.8 51.8 32.7 C 50.6 33.4 50.4 35.7 49.5 36.1 C 49.3 35.4 49.8 32.7 48.0 35.7 C 47.4 34.9 45.7 36.4 47.5 33.8 C 47.5 33.8 47.5 33.8 47.5 33.8 Z M 39.7 43.5 C 38.9 43.4 40.3 42.7 39.7 43.5 C 39.7 43.5 39.7 43.5 39.7 43.5 Z M 55.9 36.4 C 55.0 36.5 56.8 35.0 55.9 36.4 C 55.9 36.4 55.9 36.4 55.9 36.4 Z M 48.8 46.6 C 48.0 46.4 49.6 45.3 48.8 46.6 C 48.8 46.6 48.8 46.6 48.8 46.6 Z M 41.7 41.2 C 43.4 39.7 42.1 42.6 41.2 42.7 C 41.5 42.4 40.8 41.4 41.7 41.2 C 41.7 41.2 41.7 41.2 41.7 41.2 Z M 46.7 41.5 C 46.5 41.3 46.8 40.5 47.6 40.7 C 47.5 41.2 46.9 41.6 46.7 41.5 C 46.7 41.5 46.7 41.5 46.7 41.5 Z M 38.4 49.1 C 38.3 48.8 38.6 48.1 39.2 48.6 C 39.1 49.1 38.6 49.3 38.4 49.1 C 38.4 49.1 38.4 49.1 38.4 49.1 Z M 45.1 39.5 C 45.5 39.1 46.4 39.0 46.2 39.5 C 45.6 39.7 44.8 40.9 45.1 39.5 C 45.1 39.5 45.1 39.5 45.1 39.5 Z M 43.6 37.1 C 44.8 35.8 44.6 38.4 44.2 38.3 C 43.3 38.8 42.4 37.8 43.6 37.1 C 43.6 37.1 43.6 37.1 43.6 37.1 Z M 46.8 38.7 C 47.9 37.5 47.1 39.3 46.8 38.7 C 46.8 38.7 46.8 38.7 46.8 38.7 Z M 44.2 50.5 C 45.4 49.2 44.3 51.4 44.2 50.5 C 44.2 50.5 44.2 50.5 44.2 50.5 Z M 51.2 43.4 C 52.5 41.9 51.4 44.2 51.2 43.4 C 51.2 43.4 51.2 43.4 51.2 43.4 Z M 41.6 44.4 C 40.3 46.3 39.5 44.1 41.6 44.4 C 41.6 44.4 41.6 44.4 41.6 44.4 Z M 45.0 34.3 C 43.9 36.1 42.4 35.0 45.0 34.3 C 45.0 34.3 45.0 34.3 45.0 34.3 Z M 42.7 46.4 C 44.0 47.9 42.9 41.1 41.2 44.0 C 39.2 45.5 36.4 40.5 39.6 41.5 C 39.1 40.1 39.3 40.1 37.5 39.4 C 39.5 39.2 38.9 36.4 37.1 35.2 C 34.7 34.3 38.0 37.2 34.9 35.2 C 31.8 31.0 32.9 35.2 29.2 33.1 C 29.1 32.9 30.4 33.0 29.4 32.5 C 26.8 31.8 26.9 34.5 24.2 32.9 C 25.1 33.7 25.0 37.6 25.9 36.0 C 27.8 35.6 26.2 40.6 29.3 40.0 C 28.6 41.4 31.5 42.6 30.4 44.1 C 30.7 45.2 32.3 44.9 32.6 44.6 C 34.0 44.2 30.2 46.6 33.6 47.5 C 33.0 47.9 36.0 52.3 35.0 48.5 C 35.3 49.5 37.6 54.6 38.5 50.9 C 37.7 47.3 42.7 52.7 40.8 49.2 C 39.5 46.5 38.6 46.1 41.1 47.5 C 41.3 48.1 43.3 51.0 42.9 47.9 C 42.2 47.6 41.8 46.4 42.7 46.4 C 42.7 46.4 42.7 46.4 42.7 46.4 Z M 39.4 48.5 C 38.3 47.0 40.2 47.9 39.4 48.5 C 39.4 48.5 39.4 48.5 39.4 48.5 Z M 29.6 44.0 C 28.3 42.0 30.6 43.6 29.6 44.0 C 29.6 44.0 29.6 44.0 29.6 44.0 Z M 40.9 42.2 C 39.7 41.7 42.6 41.1 40.9 42.2 C 40.9 42.2 40.9 42.2 40.9 42.2 Z M 33.8 46.6 C 33.7 46.4 34.3 46.8 34.7 47.0 C 34.5 47.0 33.9 46.7 33.8 46.6 C 33.8 46.6 33.8 46.6 33.8 46.6 Z M 39.6 40.1 C 37.0 38.2 41.9 39.6 39.6 40.1 C 39.6 40.1 39.6 40.1 39.6 40.1 Z M 34.1 36.0 C 30.6 35.4 33.6 34.0 34.1 36.0 C 34.1 36.0 34.1 36.0 34.1 36.0 Z M 29.0 39.1 C 29.9 39.6 28.9 39.6 29.0 39.1 C 29.0 39.1 29.0 39.1 29.0 39.1 Z M 35.8 51.1 C 36.6 51.3 35.7 51.7 35.8 51.1 C 35.8 51.1 35.8 51.1 35.8 51.1 Z M 27.2 35.8 C 28.6 36.1 27.2 36.7 27.2 35.8 C 27.2 35.8 27.2 35.8 27.2 35.8 Z M 39.5 42.1 C 42.9 43.3 37.7 45.2 39.5 42.1 C 39.5 42.1 39.5 42.1 39.5 42.1 Z M 41.7 45.2 C 42.9 46.3 40.3 45.5 40.2 44.8 C 40.5 44.8 41.5 45.1 41.7 45.2 C 41.7 45.2 41.7 45.2 41.7 45.2 Z M 38.1 40.2 C 40.1 41.3 38.2 41.4 38.1 40.2 C 38.1 40.2 38.1 40.2 38.1 40.2 Z M 41.3 43.1 C 41.4 43.7 40.7 42.7 41.3 43.1 C 41.3 43.1 41.3 43.1 41.3 43.1 Z M 39.3 37.8 C 39.4 38.4 38.7 37.3 39.3 37.8 C 39.3 37.8 39.3 37.8 39.3 37.8 Z M 43.7 46.3 C 43.8 46.9 43.1 45.9 43.7 46.3 C 43.7 46.3 43.7 46.3 43.7 46.3 Z M 37.9 38.3 C 36.6 38.0 35.3 39.9 35.4 36.6 C 35.9 36.1 38.4 37.5 37.9 38.3 C 37.9 38.3 37.9 38.3 37.9 38.3 Z M 49.3 31.0 C 42.7 35.9 50.2 33.9 51.4 33.9 C 52.8 34.4 54.5 33.5 56.4 32.1 C 61.8 29.9 52.9 31.3 58.0 29.4 C 65.3 26.0 53.5 29.2 60.7 26.5 C 62.3 26.3 62.3 24.3 61.7 24.7 C 65.8 22.3 60.7 22.9 60.1 23.1 C 61.5 22.0 68.2 19.2 64.7 18.8 C 63.9 17.8 71.4 13.6 66.3 16.5 C 72.6 12.3 65.3 16.3 67.9 14.1 C 71.6 11.4 63.2 16.5 70.2 11.6 C 66.7 13.1 70.5 11.6 71.9 9.5 C 71.2 9.5 70.0 9.6 68.0 10.0 C 70.7 10.3 61.9 12.2 65.7 10.4 C 71.1 8.4 61.8 11.1 60.4 9.9 C 58.5 10.9 53.0 13.4 56.0 10.7 C 55.5 7.5 51.6 12.6 52.2 10.0 C 51.9 8.9 50.1 11.3 49.6 11.1 C 49.6 9.1 48.0 10.4 44.4 9.9 C 35.9 8.9 42.4 14.9 40.2 15.6 C 39.9 16.5 41.5 22.9 41.5 18.1 C 41.6 19.4 47.3 14.4 43.0 19.7 C 45.2 17.6 42.2 21.9 45.3 19.4 C 42.7 15.6 50.5 17.9 45.6 19.7 C 45.3 20.8 46.5 20.5 46.5 19.6 C 48.6 16.3 46.9 21.2 49.7 17.1 C 50.9 18.2 54.3 14.5 52.2 17.1 C 47.4 21.5 53.4 15.9 53.2 17.2 C 56.1 17.3 47.0 22.4 53.0 19.0 C 51.6 21.2 56.6 17.1 58.5 16.5 C 60.5 15.4 61.0 15.4 60.6 15.9 C 60.0 16.7 56.8 18.8 54.6 19.2 C 54.6 19.2 54.5 19.3 54.5 19.3 C 54.6 19.2 54.8 19.1 54.9 19.1 C 56.5 18.8 52.1 20.8 54.7 20.0 C 60.2 16.4 48.7 24.1 52.7 21.8 C 53.3 22.2 56.5 20.3 56.4 20.6 C 55.4 22.2 51.1 23.9 54.4 22.6 C 56.0 22.1 49.6 25.6 50.9 25.1 C 52.2 23.4 54.8 24.5 52.4 25.6 C 52.7 24.7 46.3 28.4 49.4 27.7 C 59.4 23.1 46.2 29.8 49.0 29.4 C 54.5 27.1 47.4 32.8 46.2 31.8 C 46.5 31.8 49.4 30.9 49.3 31.0 M 51.5 25.2 C 52.7 23.7 51.7 26.2 51.5 25.2 M 50.0 25.9 C 52.2 24.5 48.0 27.6 49.4 26.1 C 49.5 26.0 49.9 26.0 50.0 25.9 M 52.9 20.8 C 54.5 20.0 51.5 22.0 52.9 20.8 M 57.2 17.7 C 57.5 17.3 57.9 17.3 58.0 17.3 C 58.2 17.4 58.2 17.6 57.3 17.7 C 57.3 17.7 57.3 17.7 57.2 17.7 M 44.0 18.4 C 47.9 13.3 43.7 21.3 44.0 18.4 M 50.6 19.5 C 52.9 18.8 47.5 21.6 50.6 19.5 M 52.7 18.2 C 54.6 17.3 51.3 19.3 52.7 18.2 M 46.3 18.4 C 46.2 18.3 46.2 18.3 46.3 18.4 C 46.3 18.4 46.3 18.4 46.3 18.4 Z M 42.8 18.3 C 42.7 18.4 42.7 18.4 42.8 18.3 C 42.8 18.3 42.8 18.3 42.8 18.3 Z M 50.3 17.9 C 50.1 19.1 48.0 18.4 50.3 17.9 C 50.3 17.9 50.3 17.9 50.3 17.9 Z M 47.9 10.5 C 48.1 10.4 48.1 10.4 47.9 10.5 C 47.9 10.5 47.9 10.5 47.9 10.5 Z M 54.5 24.8 C 54.5 24.8 54.5 24.8 54.5 24.8 C 54.5 24.8 54.5 24.8 54.5 24.8 Z M 49.0 30.2 C 50.0 29.8 47.8 31.1 49.0 30.2 C 49.0 30.2 49.0 30.2 49.0 30.2 Z M 54.7 32.0 C 54.8 32.1 54.8 32.1 54.7 32.0 C 54.7 32.0 54.7 32.0 54.7 32.0 Z M 57.6 24.8 C 57.7 24.8 57.7 24.8 57.6 24.8 C 57.6 24.8 57.6 24.8 57.6 24.8 Z M 52.3 26.3 C 47.6 28.6 54.4 24.2 52.3 26.3 C 52.3 26.3 52.3 26.3 52.3 26.3 Z M 60.3 10.8 C 58.7 12.0 59.0 10.4 60.3 10.8 C 60.3 10.8 60.3 10.8 60.3 10.8 Z M 59.0 16.6 C 57.7 17.3 58.8 16.3 59.0 16.6 C 59.0 16.6 59.0 16.6 59.0 16.6 Z M 51.4 22.3 C 50.4 22.7 52.2 21.5 51.4 22.3 C 51.4 22.3 51.4 22.3 51.4 22.3 Z M 47.9 30.4 C 47.7 30.4 47.7 30.4 47.9 30.4 C 47.9 30.4 47.9 30.4 47.9 30.4 Z M 51.9 27.9 C 47.4 30.2 55.1 25.4 51.9 27.9 C 51.9 27.9 51.9 27.9 51.9 27.9 Z M 51.9 29.5 C 53.7 28.4 50.3 31.1 51.9 29.5 M 58.4 26.5 C 57.7 25.5 64.2 26.1 58.4 26.5 C 58.4 26.5 58.4 26.5 58.4 26.5 Z M 65.2 17.3 C 65.4 17.1 65.4 17.1 65.2 17.3 C 65.2 17.3 65.2 17.3 65.2 17.3 Z M 52.1 24.0 C 52.9 22.8 52.7 24.3 52.1 24.0 C 52.1 24.0 52.1 24.0 52.1 24.0 Z M 45.6 33.5 C 46.4 32.5 46.0 34.1 45.6 33.5 C 45.6 33.5 45.6 33.5 45.6 33.5 Z M 63.7 14.8 C 64.3 13.0 65.3 14.9 63.7 14.8 C 63.7 14.8 63.7 14.8 63.7 14.8 Z M 52.1 16.9 C 52.1 16.8 52.1 16.8 52.1 16.9 C 52.1 16.9 52.1 16.9 52.1 16.9 Z M 49.6 18.0 C 49.6 17.9 49.6 17.9 49.6 18.0 C 49.6 18.0 49.6 18.0 49.6 18.0 Z M 45.4 15.2 C 45.3 15.1 45.3 15.1 45.4 15.2 C 45.4 15.2 45.4 15.2 45.4 15.2 Z M 47.4 19.2 C 47.4 19.2 47.4 19.2 47.4 19.2 C 47.4 19.2 47.4 19.2 47.4 19.2 Z M 44.5 18.5 C 44.5 18.4 44.5 18.4 44.5 18.5 C 44.5 18.5 44.5 18.5 44.5 18.5 Z M 43.8 20.8 C 43.8 20.7 43.8 20.7 43.8 20.8 C 43.8 20.8 43.8 20.8 43.8 20.8 Z M 65.6 9.2 C 65.6 9.2 65.6 9.2 65.6 9.2 C 65.6 9.2 65.6 9.2 65.6 9.2 Z M 47.7 29.0 C 48.1 28.8 48.1 28.8 47.7 29.0 C 47.7 29.0 47.7 29.0 47.7 29.0 Z M 45.3 17.5 C 45.3 17.4 45.3 17.4 45.3 17.5 C 45.3 17.5 45.3 17.5 45.3 17.5 Z M 57.8 15.4 C 61.0 13.1 54.1 18.4 57.3 15.5 C 57.6 15.4 57.3 15.8 57.8 15.4 M 61.2 11.7 C 61.4 11.6 61.4 11.6 61.2 11.7 C 61.2 11.7 61.2 11.7 61.2 11.7 Z M 70.5 10.3 C 70.6 10.3 70.6 10.3 70.6 10.3 C 70.6 10.3 70.6 10.3 70.6 10.3 C 70.6 10.3 70.6 10.3 70.5 10.3 C 70.5 10.3 70.5 10.3 70.5 10.3 Z M 47.5 19.7 C 46.5 20.9 47.5 18.7 47.7 19.6 M 46.9 11.3 C 46.7 12.5 45.5 10.3 47.2 11.2 M 46.0 34.6 C 47.2 34.5 44.9 35.4 46.0 34.6 M 71.9 10.4 C 73.5 9.7 70.3 12.0 71.9 10.4 M 65.9 11.9 C 64.1 13.2 65.8 11.0 66.3 11.9 M 51.7 11.4 C 51.6 11.3 51.6 11.3 51.7 11.4 C 51.7 11.4 51.7 11.4 51.7 11.4 Z M 53.5 22.1 C 53.6 22.1 53.6 22.1 53.5 22.1 C 53.5 22.1 53.5 22.1 53.5 22.1 Z M 58.7 16.0 C 56.6 17.7 59.3 14.9 58.7 16.0 M 57.6 21.2 C 53.5 23.9 59.8 18.9 57.6 21.2 M 43.4 10.7 C 44.6 13.3 42.0 9.3 43.4 10.7 M 48.2 17.2 C 47.1 19.8 48.2 15.8 48.2 17.2 M 56.0 20.2 C 53.6 21.5 58.0 18.4 56.0 20.2 M 47.2 32.2 C 46.3 33.2 46.5 31.2 47.2 32.2 M 56.4 11.3 C 56.4 11.2 56.4 11.2 56.4 11.3 C 56.4 11.3 56.4 11.3 56.4 11.3 Z M 63.7 24.0 C 63.9 23.9 63.9 23.9 63.7 24.0 C 63.7 24.0 63.7 24.0 63.7 24.0 Z M 40.7 19.2 C 40.7 19.2 40.7 19.2 40.7 19.2 C 40.7 19.2 40.7 19.2 40.7 19.2 Z M 49.9 16.0 C 50.0 15.9 50.0 15.9 49.9 16.0 C 49.9 16.0 49.9 16.0 49.9 16.0 Z M 42.4 19.6 C 42.4 19.4 42.4 19.4 42.4 19.6 C 42.4 19.6 42.4 19.6 42.4 19.6 Z M 56.5 14.0 C 56.5 14.0 56.5 14.0 56.5 14.0 C 56.5 14.0 56.5 14.0 56.5 14.0 Z M 49.0 20.6 C 49.0 20.6 49.0 20.6 49.0 20.6 C 49.0 20.6 49.0 20.6 49.0 20.6 Z M 56.4 17.8 C 56.5 17.7 56.5 17.7 56.4 17.8 C 56.4 17.8 56.4 17.8 56.4 17.8 Z M 48.3 20.1 C 46.3 20.5 51.9 17.9 48.3 20.1 C 48.3 20.1 48.3 20.1 48.3 20.1 Z M 61.3 13.5 C 61.4 13.4 61.4 13.4 61.3 13.5 C 61.3 13.5 61.3 13.5 61.3 13.5 Z M 54.6 18.2 C 50.5 20.1 58.5 15.0 54.6 18.2 M 51.4 23.6 C 50.0 24.0 54.1 22.2 51.4 23.6 M 63.7 20.0 C 63.9 20.0 63.9 20.0 63.7 20.0 C 63.7 20.0 63.7 20.0 63.7 20.0 Z M 63.2 19.6 C 63.3 19.5 63.3 19.5 63.2 19.6 C 63.2 19.6 63.2 19.6 63.2 19.6 Z M 49.9 25.3 C 50.0 25.2 50.0 25.2 49.9 25.3 C 49.9 25.3 49.9 25.3 49.9 25.3 Z M 67.2 17.7 C 67.3 17.6 67.3 17.6 67.2 17.7 C 67.2 17.7 67.2 17.7 67.2 17.7 Z M 49.8 20.5 C 49.9 20.4 49.9 20.4 49.8 20.5 C 49.8 20.5 49.8 20.5 49.8 20.5 Z M 41.4 20.5 C 41.4 20.5 41.4 20.5 41.4 20.5 C 41.4 20.5 41.4 20.5 41.4 20.5 Z M 56.9 29.5 C 57.1 29.3 57.1 29.3 56.9 29.5 C 56.9 29.5 56.9 29.5 56.9 29.5 Z M 52.2 17.8 C 52.3 17.7 52.3 17.7 52.2 17.8 C 52.2 17.8 52.2 17.8 52.2 17.8 Z M 61.8 22.4 C 62.0 22.3 62.0 22.3 61.8 22.4 C 61.8 22.4 61.8 22.4 61.8 22.4 Z M 52.2 18.4 C 52.2 18.4 52.2 18.4 52.2 18.4 C 52.2 18.4 52.2 18.4 52.2 18.4 Z M 57.6 10.7 C 57.6 10.7 57.6 10.7 57.6 10.7 C 57.6 10.7 57.6 10.7 57.6 10.7 Z M 54.3 9.2 C 54.3 9.2 54.3 9.2 54.3 9.2 C 54.3 9.2 54.3 9.2 54.3 9.2 Z M 53.1 15.3 C 53.1 15.3 53.1 15.3 53.1 15.3 C 53.1 15.3 53.1 15.3 53.1 15.3 Z M 56.9 25.1 C 50.6 31.1 57.8 21.6 56.9 25.1 M 52.6 14.8 C 56.2 15.3 47.4 17.4 52.6 14.8 C 51.5 15.5 52.5 14.9 52.6 14.8 M 39.9 20.3 C 40.9 17.9 41.0 15.6 40.2 13.1 C 39.1 11.8 39.6 16.7 39.2 12.5 C 41.6 11.8 37.1 6.4 38.1 11.7 C 35.0 12.4 36.9 8.3 35.1 10.4 C 31.6 10.9 32.8 9.3 29.9 9.7 C 30.2 12.6 27.1 8.3 28.4 11.0 C 27.7 8.0 26.1 11.8 24.7 10.5 C 25.9 8.6 14.6 10.4 22.5 11.3 C 21.7 12.7 19.0 10.2 17.5 9.9 C 18.7 11.6 10.4 8.5 11.5 10.2 C 12.5 10.6 13.5 10.7 14.7 11.3 C 17.0 12.4 12.5 11.1 12.8 11.1 C 12.8 11.2 12.8 11.3 12.8 11.5 C 14.8 13.3 17.6 16.2 11.1 10.6 C 8.5 9.0 14.0 14.2 11.8 12.9 C 13.6 16.1 17.1 16.2 14.3 15.7 C 15.6 18.0 16.6 19.6 17.1 19.8 C 17.4 21.0 15.1 20.2 18.3 22.5 C 15.3 23.7 28.4 27.5 19.9 25.4 C 22.5 26.9 17.3 25.9 22.6 27.4 C 19.5 25.7 21.4 31.2 23.6 29.5 C 25.3 30.4 21.1 32.8 25.8 33.1 C 30.1 34.8 33.5 35.0 35.8 33.6 C 33.0 33.3 37.8 32.5 33.5 32.6 C 32.9 34.1 29.6 28.8 32.2 30.5 C 38.7 32.5 26.6 26.6 30.8 27.3 C 28.6 27.2 24.6 22.3 30.7 25.8 C 30.7 25.3 28.0 24.0 30.7 24.6 C 31.6 26.6 24.4 21.0 27.9 22.8 C 30.2 24.2 30.0 21.8 26.9 20.4 C 19.7 17.5 28.0 20.4 24.4 18.0 C 24.4 18.0 24.4 18.0 24.4 18.0 C 24.8 17.0 31.0 22.0 26.5 18.6 C 27.8 19.2 30.1 19.2 30.1 20.1 C 28.9 19.7 24.5 15.0 30.1 19.0 C 31.1 21.2 34.1 20.2 32.1 19.0 C 24.9 16.8 34.9 16.5 32.9 18.7 C 36.2 20.9 33.2 19.5 34.5 18.6 C 33.3 17.4 34.7 16.1 35.6 18.7 C 38.0 22.5 33.6 13.6 37.6 18.8 C 38.6 21.0 40.2 17.1 39.5 19.6 C 39.5 19.9 39.8 20.3 39.9 20.3 M 39.1 19.9 C 39.2 19.0 39.7 20.9 39.1 19.9 M 39.3 19.1 C 39.3 19.1 39.3 19.1 39.3 19.1 C 39.3 19.1 39.3 19.1 39.3 19.1 Z M 34.8 18.5 C 34.9 18.6 34.9 18.6 34.8 18.5 C 34.8 18.5 34.8 18.5 34.8 18.5 Z M 21.1 9.0 C 21.3 9.1 21.3 9.1 21.1 9.0 C 21.1 9.0 21.1 9.0 21.1 9.0 Z M 31.6 18.3 C 31.7 18.3 31.7 18.3 31.6 18.3 C 31.6 18.3 31.6 18.3 31.6 18.3 Z M 36.1 17.9 C 36.1 17.9 36.1 17.9 36.1 17.9 C 36.1 17.9 36.1 17.9 36.1 17.9 Z M 33.3 19.6 C 31.6 18.2 35.0 20.7 33.4 19.9 C 33.3 19.8 33.5 19.8 33.3 19.6 M 30.7 20.2 C 30.5 20.0 30.5 20.0 30.7 20.2 M 13.5 17.2 C 13.2 17.1 13.2 17.1 13.5 17.2 M 31.9 26.0 C 31.7 26.0 31.7 26.0 31.9 26.0 M 26.2 19.5 C 27.2 20.9 25.2 19.2 26.2 19.5 M 32.5 28.5 C 33.0 27.6 34.5 30.4 32.5 28.5 M 34.6 30.3 C 34.4 30.3 34.4 30.3 34.6 30.3 M 29.9 23.6 C 29.7 23.5 29.7 23.5 29.9 23.6 C 29.9 23.6 29.9 23.6 29.9 23.6 Z M 26.9 19.6 C 27.0 19.6 27.0 19.5 27.1 19.5 C 27.7 19.7 27.9 19.9 28.0 20.0 C 28.6 20.6 29.0 21.4 26.9 19.6 M 35.3 19.8 C 35.1 20.5 33.9 18.0 35.3 19.8 M 36.3 19.0 C 36.3 19.0 36.3 19.0 36.3 19.0 C 36.3 19.0 36.3 19.0 36.3 19.0 Z M 31.2 26.2 C 31.1 26.2 31.1 26.2 31.2 26.2 C 31.2 26.2 31.2 26.2 31.2 26.2 Z M 32.6 28.0 C 32.5 28.0 32.5 28.0 32.6 28.0 C 32.6 28.0 32.6 28.0 32.6 28.0 Z M 19.4 26.4 C 19.3 26.3 19.3 26.3 19.4 26.4 C 19.4 26.4 19.4 26.4 19.4 26.4 Z M 32.1 14.7 C 34.2 15.4 33.3 18.1 31.5 15.6 C 30.5 14.5 32.1 14.9 32.1 14.7 M 22.3 16.2 C 15.8 12.6 31.1 21.0 22.3 16.2 M 31.3 29.4 C 26.1 29.0 34.8 29.5 31.3 29.4 M 33.8 32.1 C 33.1 32.6 30.4 27.5 34.2 31.5 C 35.3 32.1 34.3 32.0 33.8 32.1 M 28.2 18.5 C 25.0 16.5 31.1 19.3 28.2 18.5 M 18.1 18.0 C 20.6 19.7 23.5 22.3 19.5 20.0 C 15.1 18.0 15.8 16.2 18.1 18.0 M 38.4 17.9 C 38.5 21.0 37.8 15.2 38.4 17.9 M 33.4 17.6 C 33.5 17.7 33.5 17.7 33.4 17.6 C 33.4 17.6 33.4 17.6 33.4 17.6 Z M 31.9 18.1 C 31.6 17.9 31.6 17.9 31.9 18.1 M 38.5 20.6 C 38.3 20.4 38.3 20.4 38.5 20.6 M 23.4 20.5 C 23.1 20.4 23.1 20.4 23.4 20.5 M 24.6 18.4 C 20.3 17.4 22.8 16.7 24.6 18.4 M 20.3 12.0 C 17.3 10.5 22.0 11.8 20.3 12.0 M 28.3 22.4 C 24.3 21.3 22.5 18.1 28.3 22.4 M 25.3 18.3 C 25.2 18.3 25.2 18.3 25.3 18.3 C 25.3 18.3 25.3 18.3 25.3 18.3 Z M 17.9 18.3 C 17.8 18.3 17.8 18.3 17.9 18.3 C 17.9 18.3 17.9 18.3 17.9 18.3 Z M 18.6 19.2 C 18.4 19.0 18.4 19.0 18.6 19.2 C 18.6 19.2 18.6 19.2 18.6 19.2 Z M 29.8 24.1 C 29.6 24.0 29.6 24.0 29.8 24.1 C 29.8 24.1 29.8 24.1 29.8 24.1 Z M 32.2 10.9 C 29.8 10.7 33.8 10.4 32.2 10.9 C 32.2 10.9 32.2 10.9 32.2 10.9 Z M 32.0 19.6 C 27.0 17.3 31.1 17.4 32.0 19.6 C 32.0 19.6 32.0 19.6 32.0 19.6 Z M 24.6 15.8 C 24.4 15.6 24.4 15.6 24.6 15.8 C 24.6 15.8 24.6 15.8 24.6 15.8 Z M 31.0 23.2 C 30.7 23.0 30.7 23.0 31.0 23.2 C 31.0 23.2 31.0 23.2 31.0 23.2 Z M 30.8 10.5 C 30.7 10.3 30.7 10.3 30.8 10.5 C 30.8 10.5 30.8 10.5 30.8 10.5 Z M 29.4 26.6 C 29.2 26.5 29.2 26.5 29.4 26.6 C 29.4 26.6 29.4 26.6 29.4 26.6 Z M 14.4 13.5 C 16.7 15.1 12.9 12.7 14.4 13.5 C 14.4 13.5 14.4 13.5 14.4 13.5 Z M 15.9 15.9 C 15.9 16.0 15.9 16.0 15.9 15.9 C 15.9 15.9 15.9 15.9 15.9 15.9 Z M 35.1 30.8 C 35.2 30.8 35.2 30.8 35.1 30.8 C 35.1 30.8 35.1 30.8 35.1 30.8 Z M 15.4 20.6 C 15.5 20.7 15.5 20.7 15.4 20.6 C 15.4 20.6 15.4 20.6 15.4 20.6 Z M 22.0 24.8 C 21.9 24.7 21.9 24.7 22.0 24.8 C 22.0 24.8 22.0 24.8 22.0 24.8 Z M 28.4 23.2 C 30.4 25.5 26.0 21.8 28.4 23.2 C 28.4 23.2 28.4 23.2 28.4 23.2 Z M 26.9 31.1 C 26.7 31.1 26.7 31.1 26.9 31.1 C 26.9 31.1 26.9 31.1 26.9 31.1 Z M 33.0 33.3 C 32.8 33.3 32.8 33.3 33.0 33.3 C 33.0 33.3 33.0 33.3 33.0 33.3 Z M 36.1 34.3 C 35.9 34.3 35.9 34.3 36.1 34.3 C 36.1 34.3 36.1 34.3 36.1 34.3 Z M 27.8 13.8 C 28.0 13.9 28.0 13.9 27.8 13.8 C 27.8 13.8 27.8 13.8 27.8 13.8 Z M 34.7 20.3 C 34.7 20.4 34.7 20.4 34.7 20.3 C 34.7 20.3 34.7 20.3 34.7 20.3 Z M 33.1 20.6 C 33.2 20.7 33.2 20.7 33.1 20.6 C 33.1 20.6 33.1 20.6 33.1 20.6 Z M 24.9 9.8 C 25.0 9.9 25.0 9.9 24.9 9.8 C 24.9 9.8 24.9 9.8 24.9 9.8 Z M 20.9 17.4 C 21.1 17.5 21.1 17.5 20.9 17.4 C 20.9 17.4 20.9 17.4 20.9 17.4 Z M 17.1 16.1 C 17.3 16.2 17.3 16.2 17.1 16.1 C 17.1 16.1 17.1 16.1 17.1 16.1 Z M 9.2 9.9 C 9.2 9.9 9.2 9.9 9.2 9.9 C 9.2 9.9 9.2 9.9 9.2 9.9 Z M 13.8 15.1 C 13.8 15.1 13.8 15.1 13.8 15.1 C 13.8 15.1 13.8 15.1 13.8 15.1 Z M 37.5 11.0 C 37.5 10.9 37.5 10.9 37.5 11.0 C 37.5 11.0 37.5 11.0 37.5 11.0 Z M 38.7 16.0 C 38.8 15.9 38.8 15.9 38.7 16.0 C 38.7 16.0 38.7 16.0 38.7 16.0 Z M 27.4 21.0 C 29.5 22.4 25.5 20.6 27.4 21.0 M 26.6 18.4 C 26.5 18.3 26.5 18.3 26.6 18.4 C 26.6 18.4 26.6 18.4 26.6 18.4 Z M 30.7 26.8 C 28.0 26.1 31.3 25.9 30.7 26.8 C 30.7 26.8 30.7 26.8 30.7 26.8 Z M 16.2 19.1 C 16.2 19.2 16.2 19.2 16.2 19.1 C 16.2 19.1 16.2 19.1 16.2 19.1 Z M 18.3 21.0 C 18.1 21.0 18.1 21.0 18.3 21.0 C 18.3 21.0 18.3 21.0 18.3 21.0 Z M 30.3 30.2 C 30.1 30.2 30.1 30.2 30.3 30.2 M 29.8 20.2 C 28.0 19.3 28.4 19.5 29.8 20.2 M 31.3 28.0 C 31.2 27.9 31.2 27.9 31.3 28.0 C 31.3 28.0 31.3 28.0 31.3 28.0 Z M 32.6 31.8 C 32.4 31.8 32.4 31.8 32.6 31.8 C 32.6 31.8 32.6 31.8 32.6 31.8 Z M 30.1 18.8 C 27.0 16.4 28.3 17.0 30.1 18.8 M 36.5 18.1 C 36.4 17.9 36.4 17.9 36.5 18.1 C 36.5 18.1 36.5 18.1 36.5 18.1 Z M 36.5 18.1 " fill="#FEFFFF"></path></g></svg>