<?xml version="1.0" encoding="UTF-8" standalone="no"?><svg xmlns="http://www.w3.org/2000/svg" xmlns:xlink="http://www.w3.org/1999/xlink" clip-rule="evenodd" stroke-miterlimit="10" viewBox="0 0 32 30"><desc>SVG generated by Keynote</desc><defs></defs><g transform="matrix(1.00, 0.00, -0.00, -1.00, 0.0, 30.0)"><path d="M 18.7 15.7 C 18.8 15.9 18.3 16.4 18.4 16.5 M 18.7 15.7 C 17.4 16.3 16.9 17.1 16.2 18.2 C 15.5 19.3 17.1 18.2 17.4 18.4 C 16.9 20.1 16.2 20.0 15.4 19.5 C 15.7 20.3 13.7 21.6 15.0 21.7 C 16.4 19.2 14.2 23.8 16.1 21.8 C 16.4 21.6 16.4 22.4 16.2 22.7 C 17.2 22.1 16.9 23.8 18.0 22.5 C 18.8 22.6 18.4 22.7 19.5 22.0 C 19.8 21.6 19.4 21.7 19.2 21.7 C 18.4 21.2 20.4 20.6 20.2 19.7 C 21.9 19.1 20.8 18.2 19.9 18.8 C 20.4 18.1 22.2 17.3 21.6 16.6 C 22.5 16.1 23.1 14.2 21.6 15.5 C 20.6 16.3 20.7 15.5 20.4 15.4 C 19.9 15.7 19.8 16.7 19.5 16.9 C 19.4 16.6 19.6 15.3 18.9 16.7 C 18.7 16.3 18.1 16.9 18.7 15.7 C 18.7 15.7 18.7 15.7 18.7 15.7 Z M 15.7 20.1 C 15.3 20.0 15.9 19.7 15.7 20.1 C 15.7 20.1 15.7 20.1 15.7 20.1 Z M 22.0 17.2 C 21.6 17.2 22.3 16.6 22.0 17.2 C 22.0 17.2 22.0 17.2 22.0 17.2 Z M 19.4 21.4 C 19.1 21.3 19.7 20.8 19.4 21.4 C 19.4 21.4 19.4 21.4 19.4 21.4 Z M 16.5 19.0 C 17.1 18.4 16.6 19.7 16.3 19.7 C 16.4 19.6 16.1 19.1 16.5 19.0 C 16.5 19.0 16.5 19.0 16.5 19.0 Z M 18.4 19.2 C 18.4 19.1 18.5 18.8 18.8 18.9 C 18.8 19.1 18.5 19.3 18.4 19.2 C 18.4 19.2 18.4 19.2 18.4 19.2 Z M 15.2 22.5 C 15.1 22.4 15.2 22.1 15.5 22.3 C 15.5 22.5 15.3 22.6 15.2 22.5 C 15.2 22.5 15.2 22.5 15.2 22.5 Z M 17.8 18.3 C 17.9 18.1 18.3 18.1 18.2 18.3 C 18.0 18.4 17.7 18.9 17.8 18.3 C 17.8 18.3 17.8 18.3 17.8 18.3 Z M 17.2 17.2 C 17.7 16.6 17.6 17.8 17.4 17.7 C 17.1 17.9 16.8 17.5 17.2 17.2 C 17.2 17.2 17.2 17.2 17.2 17.2 Z M 18.5 18.0 C 18.9 17.5 18.6 18.2 18.5 18.0 C 18.5 18.0 18.5 18.0 18.5 18.0 Z M 17.6 23.0 C 18.1 22.5 17.7 23.4 17.6 23.0 C 17.6 23.0 17.6 23.0 17.6 23.0 Z M 20.3 20.1 C 20.8 19.5 20.4 20.4 20.3 20.1 C 20.3 20.1 20.3 20.1 20.3 20.1 Z M 16.4 20.4 C 15.9 21.3 15.6 20.3 16.4 20.4 C 16.4 20.4 16.4 20.4 16.4 20.4 Z M 17.8 15.9 C 17.3 16.7 16.8 16.1 17.8 15.9 C 17.8 15.9 17.8 15.9 17.8 15.9 Z M 17.1 21.4 C 17.6 22.0 17.2 19.0 16.5 20.3 C 15.7 20.9 14.6 18.7 15.9 19.1 C 15.7 18.5 15.7 18.5 15.1 18.2 C 15.8 18.1 15.5 16.8 14.8 16.3 C 13.9 15.9 15.2 17.2 14.0 16.4 C 12.8 14.5 13.3 16.4 11.8 15.6 C 11.8 15.5 12.3 15.5 11.9 15.3 C 10.9 15.1 10.9 16.3 9.9 15.7 C 10.2 16.1 10.2 17.7 10.6 17.0 C 11.3 16.8 10.6 18.9 11.8 18.6 C 11.5 19.3 12.6 19.7 12.2 20.4 C 12.2 20.8 12.9 20.7 13.0 20.6 C 13.6 20.4 12.0 21.4 13.3 21.8 C 13.1 21.9 14.2 23.7 13.9 22.2 C 14.0 22.6 14.8 24.7 15.3 23.2 C 15.0 21.7 17.0 24.0 16.2 22.5 C 15.8 21.4 15.4 21.2 16.4 21.8 C 16.5 22.1 17.3 23.3 17.1 22.0 C 16.9 21.9 16.7 21.3 17.1 21.4 C 17.1 21.4 17.1 21.4 17.1 21.4 Z M 15.7 22.2 C 15.3 21.6 16.1 22.0 15.7 22.2 C 15.7 22.2 15.7 22.2 15.7 22.2 Z M 11.9 20.3 C 11.4 19.5 12.3 20.2 11.9 20.3 C 11.9 20.3 11.9 20.3 11.9 20.3 Z M 16.4 19.5 C 15.9 19.3 17.0 19.0 16.4 19.5 C 16.4 19.5 16.4 19.5 16.4 19.5 Z M 13.5 21.4 C 13.4 21.3 13.7 21.5 13.8 21.6 C 13.7 21.6 13.5 21.4 13.5 21.4 C 13.5 21.4 13.5 21.4 13.5 21.4 Z M 15.9 18.5 C 14.8 17.7 16.8 18.3 15.9 18.5 C 15.9 18.5 15.9 18.5 15.9 18.5 Z M 13.7 16.8 C 12.3 16.6 13.5 15.8 13.7 16.8 C 13.7 16.8 13.7 16.8 13.7 16.8 Z M 11.7 18.3 C 12.1 18.4 11.6 18.5 11.7 18.3 C 11.7 18.3 11.7 18.3 11.7 18.3 Z M 14.1 23.2 C 14.5 23.3 14.1 23.5 14.1 23.2 C 14.1 23.2 14.1 23.2 14.1 23.2 Z M 11.1 16.9 C 11.6 17.0 11.0 17.3 11.1 16.9 C 11.1 16.9 11.1 16.9 11.1 16.9 Z M 15.8 19.4 C 17.2 20.0 15.1 20.8 15.8 19.4 C 15.8 19.4 15.8 19.4 15.8 19.4 Z M 16.7 20.8 C 17.2 21.3 16.1 20.9 16.1 20.6 C 16.2 20.6 16.6 20.8 16.7 20.8 C 16.7 20.8 16.7 20.8 16.7 20.8 Z M 15.3 18.6 C 16.0 19.1 15.3 19.1 15.3 18.6 C 15.3 18.6 15.3 18.6 15.3 18.6 Z M 16.5 19.9 C 16.6 20.2 16.3 19.7 16.5 19.9 C 16.5 19.9 16.5 19.9 16.5 19.9 Z M 15.8 17.4 C 15.8 17.7 15.5 17.2 15.8 17.4 C 15.8 17.4 15.8 17.4 15.8 17.4 Z M 17.5 21.3 C 17.5 21.6 17.3 21.2 17.5 21.3 C 17.5 21.3 17.5 21.3 17.5 21.3 Z M 15.2 17.7 C 14.7 17.6 14.2 18.5 14.2 17.0 C 14.4 16.7 15.4 17.3 15.2 17.7 C 15.2 17.7 15.2 17.7 15.2 17.7 Z M 19.7 14.0 C 16.8 16.7 19.8 15.9 20.2 16.0 C 20.7 16.3 21.4 15.9 22.2 15.2 C 24.3 14.3 20.9 14.5 22.9 13.8 C 25.8 12.4 21.3 13.3 24.1 12.3 C 24.7 12.3 24.8 11.2 24.6 11.3 C 26.2 10.3 24.4 10.2 24.1 10.3 C 24.7 9.7 27.2 8.8 26.0 8.2 C 25.9 7.5 28.7 5.8 26.8 7.0 C 29.2 5.2 26.4 6.7 27.5 5.7 C 28.9 4.6 25.7 6.6 28.5 4.5 C 26.9 5.1 29.4 4.3 29.5 2.5 C 29.0 3.3 28.7 3.0 28.9 2.6 C 28.5 2.6 28.3 2.5 29.0 2.3 C 31.3 1.4 27.0 2.6 26.2 2.1 C 25.3 2.5 22.6 3.5 24.0 2.4 C 23.6 1.1 21.9 3.2 22.1 2.1 C 21.9 1.7 21.0 2.6 20.8 2.6 C 20.7 1.7 19.9 2.3 18.1 2.1 C 13.8 1.6 17.1 4.1 15.9 4.4 C 15.8 4.8 16.7 7.5 16.6 5.5 C 16.7 6.0 19.7 3.9 17.6 6.2 C 18.7 5.3 17.2 7.1 18.9 6.0 C 17.3 4.5 21.7 5.4 19.1 6.1 C 19.0 6.6 19.7 6.5 19.6 6.1 C 20.5 4.7 20.1 6.8 21.2 5.0 C 22.0 5.5 23.4 4.0 22.6 5.1 C 20.5 6.9 23.1 4.6 23.1 5.1 C 24.8 5.1 20.4 7.3 23.3 5.9 C 23.3 5.9 23.3 5.9 23.3 5.9 C 21.5 7.8 24.7 5.2 24.8 5.6 C 26.8 4.5 22.4 8.0 22.7 7.0 C 23.5 7.0 21.6 7.7 22.6 7.6 C 24.7 6.1 20.2 9.5 21.8 8.5 C 21.9 8.9 23.1 8.1 23.1 8.2 C 22.6 9.2 21.0 9.7 22.2 9.3 C 22.8 9.2 20.3 10.6 20.8 10.5 C 21.4 9.5 22.2 10.5 21.2 11.0 C 21.4 10.5 18.9 12.1 20.0 12.0 C 23.9 10.2 18.7 13.0 19.7 13.1 C 21.8 12.1 18.8 15.1 18.5 14.3 C 18.6 14.3 19.7 14.0 19.7 14.0 M 21.0 10.6 C 21.6 9.8 20.9 11.3 21.0 10.6 M 20.4 10.9 C 21.3 10.2 19.5 11.7 20.2 10.9 C 20.2 10.9 20.3 10.9 20.4 10.9 M 21.9 7.9 C 22.5 7.6 21.4 8.5 21.9 7.9 M 23.7 6.5 C 24.6 5.6 23.4 7.1 23.7 6.5 M 18.1 5.6 C 20.0 3.5 18.1 6.8 18.1 5.6 M 22.0 6.1 C 23.2 5.8 20.5 6.9 22.0 6.1 M 23.0 5.5 C 23.9 5.2 22.4 6.0 23.0 5.5 M 19.4 5.6 C 19.3 5.6 19.3 5.6 19.4 5.6 C 19.4 5.6 19.4 5.6 19.4 5.6 Z M 17.4 5.6 C 17.4 5.6 17.4 5.6 17.4 5.6 C 17.4 5.6 17.4 5.6 17.4 5.6 Z M 21.6 5.4 C 21.6 5.9 20.3 5.6 21.6 5.4 C 21.6 5.4 21.6 5.4 21.6 5.4 Z M 19.9 2.3 C 20.0 2.3 20.0 2.3 19.9 2.3 C 19.9 2.3 19.9 2.3 19.9 2.3 Z M 22.0 10.7 C 22.1 10.7 22.1 10.7 22.0 10.7 C 22.0 10.7 22.0 10.7 22.0 10.7 Z M 19.6 13.5 C 20.0 13.4 19.1 14.0 19.6 13.5 C 19.6 13.5 19.6 13.5 19.6 13.5 Z M 21.6 15.1 C 21.6 15.1 21.6 15.1 21.6 15.1 C 21.6 15.1 21.6 15.1 21.6 15.1 Z M 23.1 11.0 C 23.2 11.1 23.2 11.1 23.1 11.0 C 23.1 11.0 23.1 11.0 23.1 11.0 Z M 21.1 11.4 C 19.3 12.3 22.1 10.3 21.1 11.4 C 21.1 11.4 21.1 11.4 21.1 11.4 Z M 26.2 2.4 C 25.5 2.9 25.5 2.3 26.2 2.4 C 26.2 2.4 26.2 2.4 26.2 2.4 Z M 24.5 6.0 C 24.1 6.1 24.9 5.5 24.5 6.0 C 24.5 6.0 24.5 6.0 24.5 6.0 Z M 21.3 8.6 C 20.9 8.7 21.7 8.2 21.3 8.6 C 21.3 8.6 21.3 8.6 21.3 8.6 Z M 19.2 13.6 C 19.2 13.5 19.2 13.5 19.2 13.6 C 19.2 13.6 19.2 13.6 19.2 13.6 Z M 20.9 12.4 C 19.1 13.4 22.2 11.2 20.9 12.4 C 20.9 12.4 20.9 12.4 20.9 12.4 Z M 20.7 13.4 C 21.4 12.9 20.0 14.2 20.7 13.4 M 23.3 12.1 C 23.1 11.4 25.4 12.3 23.3 12.1 C 23.3 12.1 23.3 12.1 23.3 12.1 Z M 26.3 7.3 C 26.4 7.2 26.4 7.2 26.3 7.3 C 26.3 7.3 26.3 7.3 26.3 7.3 Z M 21.3 9.9 C 21.7 9.2 21.5 10.1 21.3 9.9 C 21.3 9.9 21.3 9.9 21.3 9.9 Z M 18.1 15.4 C 18.5 14.7 18.2 15.7 18.1 15.4 C 18.1 15.4 18.1 15.4 18.1 15.4 Z M 26.0 5.6 C 26.4 4.5 26.6 5.8 26.0 5.6 C 26.0 5.6 26.0 5.6 26.0 5.6 Z M 22.5 5.0 C 22.5 4.9 22.5 4.9 22.5 5.0 C 22.5 5.0 22.5 5.0 22.5 5.0 Z M 21.2 5.4 C 21.2 5.4 21.2 5.4 21.2 5.4 C 21.2 5.4 21.2 5.4 21.2 5.4 Z M 18.7 4.3 C 18.7 4.2 18.7 4.2 18.7 4.3 C 18.7 4.3 18.7 4.3 18.7 4.3 Z M 20.1 5.9 C 20.1 5.9 20.1 5.9 20.1 5.9 C 20.1 5.9 20.1 5.9 20.1 5.9 Z M 18.4 5.7 C 18.4 5.6 18.4 5.6 18.4 5.7 C 18.4 5.7 18.4 5.7 18.4 5.7 Z M 18.1 6.6 C 18.1 6.6 18.1 6.6 18.1 6.6 C 18.1 6.6 18.1 6.6 18.1 6.6 Z M 28.8 1.8 C 28.8 1.8 28.8 1.8 28.8 1.8 C 28.8 1.8 28.8 1.8 28.8 1.8 Z M 19.3 12.6 C 19.5 12.5 19.5 12.5 19.3 12.6 C 19.3 12.6 19.3 12.6 19.3 12.6 Z M 18.8 5.2 C 18.7 5.2 18.7 5.2 18.8 5.2 C 18.8 5.2 18.8 5.2 18.8 5.2 Z M 25.4 4.4 C 26.8 3.4 23.8 5.6 25.2 4.4 C 25.3 4.4 25.2 4.5 25.4 4.4 M 26.8 2.8 C 26.9 2.8 26.9 2.8 26.8 2.8 C 26.8 2.8 26.8 2.8 26.8 2.8 Z M 28.7 3.7 C 28.7 3.7 28.7 3.7 28.7 3.7 C 28.7 3.7 28.7 3.7 28.7 3.7 Z M 20.2 6.1 C 19.8 6.7 20.1 5.7 20.3 6.1 M 19.4 2.6 C 19.3 3.2 18.6 2.2 19.5 2.6 M 18.2 16.0 C 18.6 16.1 17.7 16.5 18.2 16.0 M 29.1 3.9 C 29.7 3.7 28.5 4.7 29.1 3.9 M 27.9 3.7 C 27.0 4.3 29.0 2.6 27.9 3.7 M 21.9 2.7 C 21.8 2.7 21.8 2.7 21.9 2.7 C 21.9 2.7 21.9 2.7 21.9 2.7 Z M 22.0 8.9 C 22.0 8.8 22.0 8.8 22.0 8.9 C 22.0 8.9 22.0 8.9 22.0 8.9 Z M 25.3 5.0 C 23.9 6.1 26.3 4.0 25.3 5.0 M 23.4 8.8 C 21.8 10.0 24.4 7.7 23.4 8.8 M 17.6 2.4 C 18.2 3.5 16.9 1.8 17.6 2.4 M 20.3 5.1 C 20.0 6.2 20.3 4.5 20.3 5.1 M 23.0 8.0 C 22.1 8.4 23.8 7.0 23.0 8.0 M 18.8 14.6 C 18.4 15.2 18.7 14.0 18.8 14.6 M 24.3 2.6 C 24.3 2.6 24.3 2.6 24.3 2.6 C 24.3 2.6 24.3 2.6 24.3 2.6 Z M 25.3 11.1 C 25.4 11.1 25.4 11.1 25.3 11.1 C 25.3 11.1 25.3 11.1 25.3 11.1 Z M 16.2 6.0 C 16.2 5.9 16.2 5.9 16.2 6.0 C 16.2 6.0 16.2 6.0 16.2 6.0 Z M 21.2 4.6 C 21.2 4.6 21.2 4.6 21.2 4.6 C 21.2 4.6 21.2 4.6 21.2 4.6 Z M 17.2 6.1 C 17.2 6.0 17.2 6.0 17.2 6.1 C 17.2 6.1 17.2 6.1 17.2 6.1 Z M 24.5 3.8 C 24.5 3.8 24.5 3.8 24.5 3.8 C 24.5 3.8 24.5 3.8 24.5 3.8 Z M 21.3 6.5 C 21.3 6.5 21.3 6.5 21.3 6.5 C 21.3 6.5 21.3 6.5 21.3 6.5 Z M 23.8 6.1 C 23.9 6.1 23.9 6.1 23.8 6.1 C 23.8 6.1 23.8 6.1 23.8 6.1 Z M 20.8 6.3 C 19.6 6.5 22.5 5.4 20.8 6.3 C 20.8 6.3 20.8 6.3 20.8 6.3 Z M 27.0 3.6 C 27.1 3.5 27.1 3.5 27.0 3.6 C 27.0 3.6 27.0 3.6 27.0 3.6 Z M 24.0 5.5 C 24.0 5.5 24.0 5.5 23.9 5.5 C 22.2 6.2 25.5 4.3 24.2 5.4 C 24.1 5.4 24.1 5.5 24.0 5.5 M 21.1 9.5 C 20.6 9.6 22.2 9.0 21.1 9.5 M 25.6 8.8 C 25.7 8.8 25.7 8.8 25.6 8.8 C 25.6 8.8 25.6 8.8 25.6 8.8 Z M 25.4 8.5 C 25.5 8.4 25.5 8.4 25.4 8.5 C 25.4 8.5 25.4 8.5 25.4 8.5 Z M 20.5 10.4 C 20.5 10.4 20.5 10.4 20.5 10.4 C 20.5 10.4 20.5 10.4 20.5 10.4 Z M 27.0 7.8 C 27.0 7.7 27.0 7.7 27.0 7.8 C 27.0 7.8 27.0 7.8 27.0 7.8 Z M 21.7 6.5 C 21.7 6.4 21.7 6.4 21.7 6.5 C 21.7 6.5 21.7 6.5 21.7 6.5 Z M 16.6 6.5 C 16.6 6.5 16.6 6.5 16.6 6.5 C 16.6 6.5 16.6 6.5 16.6 6.5 Z M 22.6 13.7 C 22.6 13.7 22.6 13.7 22.6 13.7 C 22.6 13.7 22.6 13.7 22.6 13.7 Z M 22.7 5.4 C 22.7 5.3 22.7 5.3 22.7 5.4 C 22.7 5.4 22.7 5.4 22.7 5.4 Z M 24.8 10.0 C 24.8 10.0 24.8 10.0 24.8 10.0 C 24.8 10.0 24.8 10.0 24.8 10.0 Z M 22.8 5.6 C 22.8 5.6 22.8 5.6 22.8 5.6 C 22.8 5.6 22.8 5.6 22.8 5.6 Z M 24.8 2.4 C 24.8 2.4 24.8 2.4 24.8 2.4 C 24.8 2.4 24.8 2.4 24.8 2.4 Z M 23.1 1.8 C 23.1 1.8 23.1 1.8 23.1 1.8 C 23.1 1.8 23.1 1.8 23.1 1.8 Z M 22.8 4.3 C 22.8 4.3 22.8 4.3 22.8 4.3 C 22.8 4.3 22.8 4.3 22.8 4.3 Z M 22.8 11.1 C 20.1 14.3 23.4 9.1 22.8 11.1 M 22.5 4.1 C 24.5 4.3 19.9 5.2 22.5 4.1 C 22.0 4.4 22.5 4.1 22.5 4.1 M 15.7 6.4 C 16.3 5.4 16.4 4.4 15.9 3.4 C 15.4 2.9 15.6 4.9 15.4 3.2 C 16.6 2.8 14.4 0.6 14.8 2.8 C 13.3 3.1 14.3 1.4 13.3 2.3 C 11.5 2.5 12.2 1.8 10.7 2.0 C 10.7 3.2 9.4 1.4 9.9 2.5 C 9.7 1.3 8.7 2.9 8.0 2.3 C 8.7 1.5 2.9 2.3 6.8 2.7 C 6.3 3.2 5.1 2.2 4.4 2.1 C 4.6 2.5 3.5 2.2 2.6 2.1 C 2.6 2.4 2.7 2.8 3.4 3.3 C 3.6 3.4 3.5 3.1 3.8 3.2 C 4.5 3.5 4.1 3.9 4.1 3.8 C 4.7 4.5 6.8 6.8 3.8 3.9 C 2.8 3.3 5.1 5.7 4.2 5.2 C 5.1 6.9 6.2 6.5 5.3 6.6 C 5.9 7.8 6.3 8.6 6.5 8.7 C 6.7 9.4 5.8 9.2 7.1 10.2 C 6.1 11.1 11.1 12.2 7.9 11.7 C 8.9 12.4 7.0 12.2 9.0 12.7 C 7.8 11.9 8.8 14.9 9.5 13.8 C 10.2 14.2 8.7 15.9 10.5 15.7 C 12.2 16.4 13.5 16.4 14.3 15.4 C 13.2 15.4 14.9 14.5 13.3 14.9 C 13.2 15.9 11.6 12.9 12.7 13.7 C 15.2 14.4 10.4 11.9 11.9 11.8 C 11.1 12.0 9.3 9.4 11.7 10.9 C 11.6 10.5 10.6 10.0 11.6 10.1 C 12.1 11.3 9.1 8.6 10.4 9.3 C 11.3 9.8 11.0 8.3 9.9 7.8 C 7.2 7.0 10.2 7.6 8.8 6.6 C 7.5 5.1 11.6 8.3 8.8 6.2 C 8.9 6.2 8.9 6.0 8.9 5.9 C 9.4 6.0 10.0 6.1 9.9 6.3 C 9.2 6.1 7.5 4.2 10.1 5.9 C 10.0 6.8 12.2 6.4 11.2 5.9 C 7.5 5.0 13.0 4.8 11.7 5.7 C 13.4 6.6 11.8 6.1 12.7 5.7 C 12.1 5.2 12.9 4.7 13.3 5.7 C 14.4 7.3 12.5 3.6 14.4 5.8 C 14.9 6.7 15.9 5.1 15.5 6.1 C 15.5 6.2 15.7 6.4 15.7 6.4 M 15.3 6.2 C 15.4 5.9 15.6 6.7 15.3 6.2 M 15.4 5.9 C 15.4 5.9 15.4 5.9 15.4 5.9 C 15.4 5.9 15.4 5.9 15.4 5.9 Z M 12.8 5.6 C 12.9 5.7 12.9 5.7 12.8 5.6 C 12.8 5.6 12.8 5.6 12.8 5.6 Z M 6.3 1.7 C 6.4 1.7 6.4 1.7 6.3 1.7 C 6.3 1.7 6.3 1.7 6.3 1.7 Z M 11.1 5.5 C 11.1 5.6 11.1 5.6 11.1 5.5 C 11.1 5.5 11.1 5.5 11.1 5.5 Z M 13.6 5.4 C 13.6 5.4 13.6 5.4 13.6 5.4 C 13.6 5.4 13.6 5.4 13.6 5.4 Z M 11.8 6.1 C 11.1 5.5 12.7 6.6 11.9 6.2 C 11.8 6.2 11.9 6.2 11.8 6.1 M 10.2 6.4 C 10.1 6.3 10.1 6.3 10.2 6.4 M 5.1 7.6 C 5.0 7.5 5.0 7.5 5.1 7.6 M 12.1 10.9 C 12.1 10.9 12.1 10.9 12.1 10.9 M 9.5 7.3 C 10.0 8.1 9.2 7.3 9.5 7.3 M 12.6 12.4 C 12.7 11.8 13.5 13.4 12.6 12.4 M 13.5 13.4 C 13.4 13.4 13.4 13.4 13.5 13.4 M 11.2 9.5 C 11.1 9.5 11.1 9.5 11.2 9.5 C 11.2 9.5 11.2 9.5 11.2 9.5 Z M 9.8 7.3 C 9.8 6.7 11.1 8.6 9.8 7.3 M 13.0 6.2 C 12.8 6.5 12.4 5.4 13.0 6.2 M 13.7 5.9 C 13.6 5.8 13.6 5.8 13.7 5.9 C 13.7 5.9 13.7 5.9 13.7 5.9 Z M 11.9 11.1 C 11.9 11.0 11.9 11.0 11.9 11.1 C 11.9 11.1 11.9 11.1 11.9 11.1 Z M 12.6 12.1 C 12.5 12.1 12.5 12.1 12.6 12.1 C 12.6 12.1 12.6 12.1 12.6 12.1 Z M 7.8 12.3 C 7.7 12.3 7.7 12.3 7.8 12.3 C 7.8 12.3 7.8 12.3 7.8 12.3 Z M 11.6 4.1 C 12.7 4.4 12.0 5.5 11.2 4.4 C 10.8 4.0 11.6 4.2 11.6 4.1 M 7.3 5.4 C 5.0 4.2 10.3 6.7 7.3 5.4 M 12.3 13.1 C 10.4 13.3 13.5 12.8 12.3 13.1 M 13.4 14.6 C 13.2 14.9 11.8 12.0 13.5 14.2 C 13.9 14.5 13.6 14.5 13.4 14.6 M 9.1 5.6 C 7.6 4.8 10.6 6.0 9.1 5.6 M 6.7 7.5 C 7.7 8.2 8.9 9.5 7.4 8.5 C 5.7 7.8 5.8 6.7 6.7 7.5 M 14.9 5.4 C 14.8 6.7 14.6 4.3 14.9 5.4 M 12.1 5.3 C 12.1 5.3 12.1 5.3 12.1 5.3 C 12.1 5.3 12.1 5.3 12.1 5.3 Z M 11.2 5.5 C 11.1 5.4 11.1 5.4 11.2 5.5 M 14.9 6.5 C 14.8 6.4 14.8 6.4 14.9 6.5 M 8.7 8.4 C 8.6 8.4 8.6 8.4 8.7 8.4 M 8.9 6.9 C 7.4 6.9 8.2 6.1 8.9 6.9 M 5.6 2.9 C 4.2 2.3 6.5 2.9 5.6 2.9 M 10.5 8.9 C 9.1 8.8 8.2 7.0 10.5 8.9 M 8.8 6.5 C 8.9 6.5 8.9 6.5 8.8 6.5 C 8.8 6.5 8.8 6.5 8.8 6.5 Z M 6.7 7.7 C 6.6 7.7 6.6 7.7 6.7 7.7 C 6.7 7.7 6.7 7.7 6.7 7.7 Z M 7.0 8.2 C 6.9 8.1 6.9 8.1 7.0 8.2 C 7.0 8.2 7.0 8.2 7.0 8.2 Z M 11.2 9.9 C 11.2 9.8 11.2 9.8 11.2 9.9 C 11.2 9.9 11.2 9.9 11.2 9.9 Z M 11.8 2.5 C 10.6 2.4 12.7 2.3 11.8 2.5 C 11.8 2.5 11.8 2.5 11.8 2.5 Z M 11.1 6.1 C 8.6 5.1 10.8 5.2 11.1 6.1 C 11.1 6.1 11.1 6.1 11.1 6.1 Z M 7.5 4.5 C 7.4 4.4 7.4 4.4 7.5 4.5 C 7.5 4.5 7.5 4.5 7.5 4.5 Z M 11.5 9.1 C 11.4 9.0 11.4 9.0 11.5 9.1 C 11.5 9.1 11.5 9.1 11.5 9.1 Z M 11.1 2.3 C 11.1 2.3 11.1 2.3 11.1 2.3 C 11.1 2.3 11.1 2.3 11.1 2.3 Z M 11.3 11.5 C 11.2 11.5 11.2 11.5 11.3 11.5 C 11.3 11.5 11.3 11.5 11.3 11.5 Z M 5.1 5.2 C 6.0 5.9 4.5 4.9 5.1 5.2 C 5.1 5.2 5.1 5.2 5.1 5.2 Z M 5.8 6.5 C 5.8 6.6 5.8 6.6 5.8 6.5 C 5.8 6.5 5.8 6.5 5.8 6.5 Z M 13.7 13.6 C 13.8 13.7 13.8 13.7 13.7 13.6 C 13.7 13.6 13.7 13.6 13.7 13.6 Z M 6.0 9.3 C 6.0 9.4 6.0 9.4 6.0 9.3 C 6.0 9.3 6.0 9.3 6.0 9.3 Z M 8.6 11.2 C 8.6 11.1 8.6 11.1 8.6 11.2 C 8.6 11.2 8.6 11.2 8.6 11.2 Z M 10.7 9.5 C 11.6 10.7 9.7 8.9 10.7 9.5 C 10.7 9.5 10.7 9.5 10.7 9.5 Z M 10.8 14.5 C 10.7 14.5 10.7 14.5 10.8 14.5 C 10.8 14.5 10.8 14.5 10.8 14.5 Z M 13.2 15.4 C 13.1 15.4 13.1 15.4 13.2 15.4 C 13.2 15.4 13.2 15.4 13.2 15.4 Z M 14.4 15.8 C 14.3 15.8 14.3 15.8 14.4 15.8 C 14.4 15.8 14.4 15.8 14.4 15.8 Z M 9.4 3.7 C 9.5 3.7 9.5 3.7 9.4 3.7 C 9.4 3.7 9.4 3.7 9.4 3.7 Z M 12.6 6.4 C 12.6 6.4 12.6 6.4 12.6 6.4 C 12.6 6.4 12.6 6.4 12.6 6.4 Z M 11.5 6.5 C 11.6 6.6 11.6 6.6 11.5 6.5 C 11.5 6.5 11.5 6.5 11.5 6.5 Z M 8.2 2.0 C 8.2 2.1 8.2 2.1 8.2 2.0 C 8.2 2.0 8.2 2.0 8.2 2.0 Z M 7.6 6.8 C 7.7 6.8 7.7 6.8 7.6 6.8 C 7.6 6.8 7.6 6.8 7.6 6.8 Z M 6.2 6.5 C 6.3 6.5 6.3 6.5 6.2 6.5 C 6.2 6.5 6.2 6.5 6.2 6.5 Z M 3.1 3.7 C 3.1 3.7 3.1 3.7 3.1 3.7 C 3.1 3.7 3.1 3.7 3.1 3.7 Z M 5.0 6.3 C 5.1 6.3 5.1 6.3 5.0 6.3 C 5.0 6.3 5.0 6.3 5.0 6.3 Z M 14.6 2.5 C 14.6 2.5 14.6 2.5 14.6 2.5 C 14.6 2.5 14.6 2.5 14.6 2.5 Z M 15.1 4.6 C 15.1 4.6 15.1 4.6 15.1 4.6 C 15.1 4.6 15.1 4.6 15.1 4.6 Z M 10.1 8.2 C 10.9 8.7 9.4 8.2 10.1 8.2 M 8.6 5.8 C 8.5 5.8 8.5 5.8 8.6 5.8 C 8.6 5.8 8.6 5.8 8.6 5.8 Z M 11.8 11.5 C 10.8 11.4 11.9 10.8 11.8 11.5 C 11.8 11.5 11.8 11.5 11.8 11.5 Z M 6.2 8.4 C 6.2 8.4 6.2 8.4 6.2 8.4 C 6.2 8.4 6.2 8.4 6.2 8.4 Z M 7.0 9.3 C 7.0 9.3 7.0 9.3 7.0 9.3 C 7.0 9.3 7.0 9.3 7.0 9.3 Z M 12.0 13.7 C 11.9 13.8 11.9 13.8 12.0 13.7 M 9.7 6.3 C 9.7 6.3 9.7 6.3 9.6 6.3 C 8.7 6.0 8.9 6.0 9.6 6.3 C 9.7 6.3 9.7 6.3 9.7 6.3 M 12.1 12.2 C 12.1 12.2 12.1 12.2 12.1 12.2 C 12.1 12.2 12.1 12.2 12.1 12.2 Z M 12.9 14.5 C 12.9 14.5 12.9 14.5 12.9 14.5 C 12.9 14.5 12.9 14.5 12.9 14.5 Z M 10.1 5.8 C 8.7 4.8 9.3 5.0 10.1 5.8 M 13.8 5.5 C 13.8 5.4 13.8 5.4 13.8 5.5 C 13.8 5.5 13.8 5.5 13.8 5.5 Z M 13.8 5.5 " fill="#FEFFFE"></path></g></svg>