<?xml version="1.0" encoding="UTF-8" standalone="no"?><svg xmlns="http://www.w3.org/2000/svg" xmlns:xlink="http://www.w3.org/1999/xlink" clip-rule="evenodd" stroke-miterlimit="10" viewBox="0 0 32 30"><desc>SVG generated by Keynote</desc><defs></defs><g transform="matrix(1.00, 0.00, -0.00, -1.00, 0.0, 30.0)"><path d="M 18.5 15.4 C 18.6 15.6 18.1 16.1 18.2 16.2 M 18.5 15.4 C 17.2 16.0 16.7 16.8 15.9 17.8 C 15.3 19.0 16.9 17.9 17.2 18.0 C 16.7 19.8 16.0 19.6 15.1 19.2 C 15.5 19.9 13.5 21.2 14.8 21.4 C 16.2 18.8 14.0 23.5 15.9 21.4 C 16.2 21.2 16.2 22.1 16.0 22.3 C 16.9 21.7 16.7 23.4 17.8 22.2 C 18.6 22.2 18.2 22.4 19.3 21.6 C 19.6 21.2 19.2 21.3 19.0 21.3 C 18.2 20.9 20.1 20.3 20.0 19.4 C 21.7 18.8 20.5 17.9 19.7 18.4 C 20.2 17.8 22.0 17.0 21.4 16.2 C 22.3 15.8 22.9 13.9 21.4 15.1 C 20.4 16.0 20.4 15.2 20.2 15.1 C 19.7 15.4 19.6 16.4 19.3 16.5 C 19.2 16.2 19.4 15.0 18.7 16.3 C 18.5 15.9 17.8 16.6 18.5 15.4 C 18.5 15.4 18.5 15.4 18.5 15.4 Z M 15.5 19.7 C 15.1 19.7 15.7 19.3 15.5 19.7 C 15.5 19.7 15.5 19.7 15.5 19.7 Z M 21.8 16.9 C 21.4 16.9 22.1 16.3 21.8 16.9 C 21.8 16.9 21.8 16.9 21.8 16.9 Z M 19.2 21.1 C 18.9 21.0 19.5 20.5 19.2 21.1 C 19.2 21.1 19.2 21.1 19.2 21.1 Z M 16.3 18.7 C 16.9 18.0 16.4 19.3 16.1 19.4 C 16.2 19.2 15.9 18.8 16.3 18.7 C 16.3 18.7 16.3 18.7 16.3 18.7 Z M 18.2 18.9 C 18.1 18.8 18.3 18.4 18.6 18.5 C 18.6 18.7 18.3 18.9 18.2 18.9 C 18.2 18.9 18.2 18.9 18.2 18.9 Z M 15.0 22.2 C 14.9 22.1 15.0 21.8 15.3 22.0 C 15.3 22.2 15.1 22.3 15.0 22.2 C 15.0 22.2 15.0 22.2 15.0 22.2 Z M 17.6 18.0 C 17.7 17.8 18.1 17.7 18.0 18.0 C 17.8 18.1 17.5 18.6 17.6 18.0 C 17.6 18.0 17.6 18.0 17.6 18.0 Z M 17.0 16.8 C 17.5 16.3 17.4 17.4 17.2 17.4 C 16.9 17.6 16.5 17.1 17.0 16.8 C 17.0 16.8 17.0 16.8 17.0 16.8 Z M 18.2 17.6 C 18.7 17.1 18.4 17.9 18.2 17.6 C 18.2 17.6 18.2 17.6 18.2 17.6 Z M 17.4 22.7 C 17.8 22.1 17.5 23.0 17.4 22.7 C 17.4 22.7 17.4 22.7 17.4 22.7 Z M 20.1 19.7 C 20.6 19.1 20.2 20.0 20.1 19.7 C 20.1 19.7 20.1 19.7 20.1 19.7 Z M 16.2 20.1 C 15.7 21.0 15.4 20.0 16.2 20.1 C 16.2 20.1 16.2 20.1 16.2 20.1 Z M 17.6 15.5 C 17.1 16.3 16.6 15.7 17.6 15.5 C 17.6 15.5 17.6 15.5 17.6 15.5 Z M 16.9 21.0 C 17.4 21.7 17.0 18.6 16.3 20.0 C 15.4 20.6 14.4 18.4 15.7 18.8 C 15.5 18.2 15.5 18.2 14.8 17.9 C 15.6 17.7 15.3 16.4 14.6 15.9 C 13.7 15.6 15.0 16.8 13.8 16.0 C 12.6 14.2 13.0 16.1 11.6 15.3 C 11.6 15.2 12.1 15.2 11.7 15.0 C 10.7 14.8 10.7 16.0 9.7 15.4 C 10.0 15.7 9.9 17.4 10.3 16.7 C 11.1 16.5 10.3 18.6 11.6 18.3 C 11.3 18.9 12.4 19.4 12.0 20.0 C 12.0 20.5 12.7 20.3 12.8 20.2 C 13.4 20.0 11.8 21.0 13.1 21.4 C 12.9 21.6 14.0 23.4 13.7 21.9 C 13.8 22.3 14.6 24.4 15.1 22.9 C 14.8 21.3 16.8 23.7 16.0 22.2 C 15.6 21.0 15.2 20.9 16.2 21.5 C 16.3 21.8 17.1 23.0 16.9 21.7 C 16.7 21.5 16.5 21.0 16.9 21.0 C 16.9 21.0 16.9 21.0 16.9 21.0 Z M 15.5 21.9 C 15.1 21.2 15.8 21.7 15.5 21.9 C 15.5 21.9 15.5 21.9 15.5 21.9 Z M 11.6 20.0 C 11.2 19.2 12.0 19.8 11.6 20.0 C 11.6 20.0 11.6 20.0 11.6 20.0 Z M 16.2 19.1 C 15.7 18.9 16.8 18.6 16.2 19.1 C 16.2 19.1 16.2 19.1 16.2 19.1 Z M 13.2 21.0 C 13.2 21.0 13.5 21.1 13.6 21.2 C 13.5 21.2 13.3 21.1 13.2 21.0 C 13.2 21.0 13.2 21.0 13.2 21.0 Z M 15.7 18.2 C 14.6 17.4 16.5 17.9 15.7 18.2 C 15.7 18.2 15.7 18.2 15.7 18.2 Z M 13.5 16.4 C 12.1 16.3 13.3 15.5 13.5 16.4 C 13.5 16.4 13.5 16.4 13.5 16.4 Z M 11.5 17.9 C 11.8 18.1 11.4 18.1 11.5 17.9 C 11.5 17.9 11.5 17.9 11.5 17.9 Z M 13.9 22.9 C 14.2 23.0 13.9 23.2 13.9 22.9 C 13.9 22.9 13.9 22.9 13.9 22.9 Z M 10.8 16.5 C 11.4 16.6 10.8 16.9 10.8 16.5 C 10.8 16.5 10.8 16.5 10.8 16.5 Z M 15.6 19.1 C 17.0 19.6 14.8 20.4 15.6 19.1 C 15.6 19.1 15.6 19.1 15.6 19.1 Z M 16.5 20.5 C 17.0 21.0 15.9 20.6 15.9 20.3 C 16.0 20.3 16.4 20.4 16.5 20.5 C 16.5 20.5 16.5 20.5 16.5 20.5 Z M 15.1 18.2 C 15.8 18.7 15.1 18.8 15.1 18.2 C 15.1 18.2 15.1 18.2 15.1 18.2 Z M 16.3 19.5 C 16.4 19.8 16.1 19.3 16.3 19.5 C 16.3 19.5 16.3 19.5 16.3 19.5 Z M 15.5 17.1 C 15.6 17.4 15.3 16.9 15.5 17.1 C 15.5 17.1 15.5 17.1 15.5 17.1 Z M 17.3 21.0 C 17.3 21.3 17.1 20.8 17.3 21.0 C 17.3 21.0 17.3 21.0 17.3 21.0 Z M 15.0 17.3 C 14.5 17.3 13.9 18.2 14.0 16.6 C 14.2 16.4 15.2 17.0 15.0 17.3 C 15.0 17.3 15.0 17.3 15.0 17.3 Z M 19.5 13.7 C 16.6 16.3 19.6 15.6 20.0 15.6 C 20.5 16.0 21.2 15.6 22.0 14.9 C 24.1 14.0 20.7 14.2 22.7 13.4 C 25.6 12.0 21.1 13.0 23.9 12.0 C 24.5 12.0 24.6 10.8 24.4 11.0 C 26.0 10.0 24.1 9.8 23.9 9.9 C 24.5 9.4 27.0 8.4 25.8 7.8 C 25.6 7.2 28.5 5.5 26.5 6.6 C 29.0 4.9 26.2 6.4 27.3 5.3 C 28.7 4.2 25.5 6.2 28.2 4.2 C 26.6 4.7 29.2 4.0 29.2 2.1 C 28.7 2.9 28.5 2.6 28.7 2.2 C 28.3 2.3 28.1 2.2 28.8 1.9 C 31.1 1.1 26.8 2.2 26.0 1.7 C 25.1 2.2 22.4 3.2 23.8 2.1 C 23.4 0.7 21.6 2.9 21.9 1.8 C 21.7 1.3 20.8 2.3 20.5 2.2 C 20.5 1.4 19.7 2.0 17.9 1.7 C 13.5 1.3 16.9 3.8 15.7 4.1 C 15.6 4.5 16.5 7.1 16.4 5.1 C 16.5 5.7 19.5 3.6 17.4 5.8 C 18.5 4.9 16.9 6.7 18.6 5.7 C 17.1 4.1 21.5 5.0 18.9 5.8 C 18.8 6.2 19.5 6.2 19.4 5.8 C 20.3 4.4 19.9 6.4 20.9 4.7 C 21.8 5.2 23.2 3.6 22.3 4.7 C 20.3 6.6 22.9 4.2 22.9 4.8 C 24.5 4.8 20.2 6.9 23.1 5.5 C 23.1 5.5 23.1 5.6 23.1 5.6 C 21.3 7.5 24.5 4.9 24.6 5.2 C 26.5 4.2 22.1 7.7 22.5 6.7 C 23.2 6.7 21.4 7.3 22.4 7.3 C 24.5 5.7 20.0 9.1 21.5 8.2 C 21.7 8.6 22.9 7.7 22.9 7.9 C 22.4 8.8 20.8 9.3 22.0 8.9 C 22.6 8.8 20.1 10.2 20.6 10.1 C 21.2 9.2 22.0 10.2 21.0 10.7 C 21.2 10.1 18.7 11.7 19.8 11.6 C 23.7 9.9 18.5 12.7 19.5 12.7 C 21.6 11.8 18.6 14.7 18.3 14.0 C 18.4 14.0 19.5 13.7 19.5 13.7 M 20.8 10.3 C 21.3 9.4 20.7 10.9 20.8 10.3 M 20.2 10.5 C 21.1 9.9 19.3 11.4 20.0 10.6 C 20.0 10.6 20.1 10.6 20.2 10.5 M 21.7 7.5 C 22.3 7.3 21.1 8.1 21.7 7.5 M 23.5 6.1 C 24.4 5.3 23.2 6.8 23.5 6.1 M 17.9 5.3 C 19.8 3.1 17.9 6.5 17.9 5.3 M 21.8 5.7 C 23.0 5.4 20.3 6.6 21.8 5.7 M 22.8 5.2 C 23.7 4.8 22.1 5.7 22.8 5.2 M 19.2 5.3 C 19.1 5.2 19.1 5.2 19.2 5.3 C 19.2 5.3 19.2 5.3 19.2 5.3 Z M 17.2 5.2 C 17.1 5.2 17.1 5.2 17.2 5.2 C 17.2 5.2 17.2 5.2 17.2 5.2 Z M 21.4 5.1 C 21.4 5.6 20.1 5.2 21.4 5.1 C 21.4 5.1 21.4 5.1 21.4 5.1 Z M 19.7 2.0 C 19.7 1.9 19.7 1.9 19.7 2.0 C 19.7 2.0 19.7 2.0 19.7 2.0 Z M 21.8 10.4 C 21.8 10.4 21.8 10.4 21.8 10.4 C 21.8 10.4 21.8 10.4 21.8 10.4 Z M 19.4 13.2 C 19.8 13.0 18.9 13.7 19.4 13.2 C 19.4 13.2 19.4 13.2 19.4 13.2 Z M 21.4 14.7 C 21.4 14.8 21.4 14.8 21.4 14.7 C 21.4 14.7 21.4 14.7 21.4 14.7 Z M 22.9 10.7 C 22.9 10.7 22.9 10.7 22.9 10.7 C 22.9 10.7 22.9 10.7 22.9 10.7 Z M 20.9 11.1 C 19.1 12.0 21.9 10.0 20.9 11.1 C 20.9 11.1 20.9 11.1 20.9 11.1 Z M 26.0 2.1 C 25.3 2.6 25.3 1.9 26.0 2.1 C 26.0 2.1 26.0 2.1 26.0 2.1 Z M 24.3 5.6 C 23.9 5.8 24.7 5.1 24.3 5.6 C 24.3 5.6 24.3 5.6 24.3 5.6 Z M 21.1 8.3 C 20.7 8.4 21.4 7.9 21.1 8.3 C 21.1 8.3 21.1 8.3 21.1 8.3 Z M 19.0 13.2 C 18.9 13.2 18.9 13.2 19.0 13.2 C 19.0 13.2 19.0 13.2 19.0 13.2 Z M 20.7 12.1 C 18.9 13.0 22.0 10.8 20.7 12.1 C 20.7 12.1 20.7 12.1 20.7 12.1 Z M 20.5 13.0 C 21.2 12.5 19.8 13.9 20.5 13.0 M 23.1 11.8 C 22.9 11.1 25.2 12.0 23.1 11.8 C 23.1 11.8 23.1 11.8 23.1 11.8 Z M 26.1 7.0 C 26.2 6.9 26.2 6.9 26.1 7.0 C 26.1 7.0 26.1 7.0 26.1 7.0 Z M 21.1 9.6 C 21.5 8.9 21.3 9.8 21.1 9.6 C 21.1 9.6 21.1 9.6 21.1 9.6 Z M 17.9 15.0 C 18.3 14.4 18.0 15.4 17.9 15.0 C 17.9 15.0 17.9 15.0 17.9 15.0 Z M 25.8 5.2 C 26.2 4.2 26.3 5.5 25.8 5.2 C 25.8 5.2 25.8 5.2 25.8 5.2 Z M 22.3 4.6 C 22.3 4.6 22.3 4.6 22.3 4.6 C 22.3 4.6 22.3 4.6 22.3 4.6 Z M 21.0 5.1 C 21.0 5.1 21.0 5.1 21.0 5.1 C 21.0 5.1 21.0 5.1 21.0 5.1 Z M 18.5 3.9 C 18.5 3.9 18.5 3.9 18.5 3.9 C 18.5 3.9 18.5 3.9 18.5 3.9 Z M 19.9 5.6 C 19.9 5.6 19.9 5.6 19.9 5.6 C 19.9 5.6 19.9 5.6 19.9 5.6 Z M 18.2 5.3 C 18.1 5.3 18.1 5.3 18.2 5.3 C 18.2 5.3 18.2 5.3 18.2 5.3 Z M 17.9 6.3 C 17.9 6.2 17.9 6.2 17.9 6.3 C 17.9 6.3 17.9 6.3 17.9 6.3 Z M 28.6 1.5 C 28.6 1.4 28.6 1.4 28.6 1.5 C 28.6 1.5 28.6 1.5 28.6 1.5 Z M 19.1 12.3 C 19.3 12.2 19.3 12.2 19.1 12.3 C 19.1 12.3 19.1 12.3 19.1 12.3 Z M 18.5 4.9 C 18.5 4.9 18.5 4.9 18.5 4.9 C 18.5 4.9 18.5 4.9 18.5 4.9 Z M 25.2 4.0 C 26.6 3.1 23.6 5.3 24.9 4.1 C 25.0 4.0 25.0 4.2 25.2 4.0 M 26.6 2.5 C 26.7 2.4 26.7 2.4 26.6 2.5 C 26.6 2.5 26.6 2.5 26.6 2.5 Z M 28.5 3.4 C 28.5 3.4 28.5 3.4 28.5 3.4 C 28.5 3.4 28.5 3.4 28.5 3.4 Z M 20.0 5.8 C 19.5 6.3 19.9 5.4 20.1 5.8 M 19.2 2.3 C 19.1 2.8 18.4 1.9 19.3 2.3 M 18.0 15.7 C 18.4 15.7 17.5 16.1 18.0 15.7 M 28.9 3.6 C 29.5 3.4 28.2 4.4 28.9 3.6 M 27.7 3.3 C 26.8 3.9 28.8 2.2 27.7 3.4 M 21.6 2.3 C 21.6 2.3 21.6 2.3 21.6 2.3 C 21.6 2.3 21.6 2.3 21.6 2.3 Z M 21.8 8.5 C 21.8 8.5 21.8 8.5 21.8 8.5 C 21.8 8.5 21.8 8.5 21.8 8.5 Z M 25.1 4.7 C 23.7 5.8 26.1 3.7 25.1 4.7 M 23.2 8.5 C 21.6 9.6 24.2 7.3 23.2 8.5 M 17.3 2.1 C 18.0 3.2 16.7 1.5 17.3 2.1 M 20.1 4.8 C 19.8 5.9 20.1 4.2 20.1 4.8 M 22.8 7.6 C 21.9 8.1 23.6 6.7 22.8 7.6 M 18.6 14.3 C 18.2 14.9 18.5 13.6 18.6 14.3 M 24.1 2.3 C 24.1 2.3 24.1 2.3 24.1 2.3 C 24.1 2.3 24.1 2.3 24.1 2.3 Z M 25.1 10.8 C 25.2 10.7 25.2 10.7 25.1 10.8 C 25.1 10.8 25.1 10.8 25.1 10.8 Z M 16.0 5.6 C 16.0 5.6 16.0 5.6 16.0 5.6 C 16.0 5.6 16.0 5.6 16.0 5.6 Z M 21.0 4.3 C 21.0 4.2 21.0 4.2 21.0 4.3 C 21.0 4.3 21.0 4.3 21.0 4.3 Z M 17.0 5.8 C 17.0 5.7 17.0 5.7 17.0 5.8 C 17.0 5.8 17.0 5.8 17.0 5.8 Z M 24.3 3.4 C 24.3 3.4 24.3 3.4 24.3 3.4 C 24.3 3.4 24.3 3.4 24.3 3.4 Z M 21.0 6.2 C 21.1 6.2 21.1 6.2 21.0 6.2 C 21.0 6.2 21.0 6.2 21.0 6.2 Z M 23.6 5.8 C 23.7 5.7 23.7 5.7 23.6 5.8 C 23.6 5.8 23.6 5.8 23.6 5.8 Z M 20.6 6.0 C 19.4 6.1 22.3 5.1 20.6 6.0 C 20.6 6.0 20.6 6.0 20.6 6.0 Z M 26.8 3.2 C 26.9 3.2 26.9 3.2 26.8 3.2 C 26.8 3.2 26.8 3.2 26.8 3.2 Z M 23.8 5.2 C 23.8 5.2 23.7 5.2 23.7 5.2 C 22.0 5.9 25.3 4.0 24.0 5.1 C 23.9 5.1 23.8 5.2 23.8 5.2 M 20.9 9.2 C 20.4 9.3 22.0 8.6 20.9 9.2 M 25.4 8.5 C 25.5 8.4 25.5 8.4 25.4 8.5 C 25.4 8.5 25.4 8.5 25.4 8.5 Z M 25.2 8.2 C 25.3 8.1 25.3 8.1 25.2 8.2 C 25.2 8.2 25.2 8.2 25.2 8.2 Z M 20.2 10.1 C 20.3 10.1 20.3 10.1 20.2 10.1 C 20.2 10.1 20.2 10.1 20.2 10.1 Z M 26.8 7.5 C 26.8 7.4 26.8 7.4 26.8 7.5 C 26.8 7.5 26.8 7.5 26.8 7.5 Z M 21.5 6.1 C 21.5 6.1 21.5 6.1 21.5 6.1 C 21.5 6.1 21.5 6.1 21.5 6.1 Z M 16.4 6.2 C 16.4 6.1 16.4 6.1 16.4 6.2 C 16.4 6.2 16.4 6.2 16.4 6.2 Z M 22.3 13.4 C 22.4 13.3 22.4 13.3 22.3 13.4 C 22.3 13.4 22.3 13.4 22.3 13.4 Z M 22.4 5.0 C 22.5 5.0 22.5 5.0 22.4 5.0 C 22.4 5.0 22.4 5.0 22.4 5.0 Z M 24.6 9.7 C 24.6 9.6 24.6 9.6 24.6 9.7 C 24.6 9.7 24.6 9.7 24.6 9.7 Z M 22.5 5.3 C 22.5 5.3 22.5 5.3 22.5 5.3 C 22.5 5.3 22.5 5.3 22.5 5.3 Z M 24.6 2.1 C 24.6 2.0 24.6 2.0 24.6 2.1 C 24.6 2.1 24.6 2.1 24.6 2.1 Z M 22.9 1.4 C 22.9 1.4 22.9 1.4 22.9 1.4 C 22.9 1.4 22.9 1.4 22.9 1.4 Z M 22.6 4.0 C 22.6 4.0 22.6 4.0 22.6 4.0 C 22.6 4.0 22.6 4.0 22.6 4.0 Z M 22.6 10.8 C 19.9 13.9 23.2 8.8 22.6 10.8 M 22.3 3.8 C 24.3 4.0 19.7 4.8 22.3 3.8 C 21.8 4.0 22.3 3.8 22.3 3.8 M 15.5 6.1 C 16.1 5.1 16.1 4.1 15.7 3.0 C 15.2 2.5 15.4 4.5 15.2 2.8 C 16.4 2.5 14.2 0.3 14.6 2.5 C 13.0 2.8 14.0 1.1 13.1 1.9 C 11.3 2.2 12.0 1.5 10.5 1.6 C 10.5 2.8 9.1 1.0 9.6 2.2 C 9.5 0.9 8.4 2.5 7.8 2.0 C 8.5 1.2 2.7 2.0 6.6 2.3 C 6.1 2.9 4.9 1.9 4.2 1.7 C 4.4 2.1 3.3 1.9 2.4 1.7 C 2.4 2.0 2.5 2.4 3.2 3.0 C 3.4 3.0 3.3 2.7 3.6 2.9 C 4.3 3.1 3.9 3.5 3.9 3.5 C 4.5 4.1 6.6 6.5 3.6 3.5 C 2.6 2.9 4.8 5.3 4.0 4.8 C 4.8 6.5 6.0 6.2 5.0 6.2 C 5.7 7.4 6.1 8.3 6.3 8.4 C 6.5 9.0 5.6 8.8 6.9 9.8 C 5.9 10.8 10.9 11.9 7.7 11.4 C 8.7 12.0 6.8 11.9 8.8 12.3 C 7.6 11.6 8.6 14.6 9.3 13.5 C 9.9 13.9 8.5 15.5 10.3 15.4 C 12.0 16.1 13.3 16.1 14.1 15.0 C 13.0 15.0 14.7 14.1 13.1 14.6 C 13.0 15.5 11.4 12.6 12.5 13.4 C 15.0 14.0 10.2 11.5 11.7 11.5 C 10.9 11.7 9.1 9.0 11.5 10.5 C 11.4 10.2 10.4 9.7 11.4 9.8 C 11.9 11.0 8.9 8.2 10.2 8.9 C 11.1 9.5 10.8 7.9 9.6 7.5 C 7.0 6.7 10.0 7.3 8.6 6.3 C 7.3 4.7 11.3 7.9 8.6 5.8 C 8.7 5.8 8.7 5.7 8.7 5.5 C 9.2 5.6 9.8 5.7 9.6 6.0 C 9.0 5.8 7.3 3.9 9.8 5.5 C 9.8 6.4 12.0 6.0 11.0 5.5 C 7.3 4.6 12.8 4.5 11.5 5.4 C 13.2 6.3 11.6 5.7 12.5 5.4 C 11.9 4.8 12.7 4.3 13.1 5.4 C 14.2 7.0 12.3 3.3 14.2 5.4 C 14.7 6.4 15.7 4.7 15.3 5.8 C 15.2 5.9 15.5 6.1 15.5 6.1 M 15.1 5.9 C 15.1 5.5 15.4 6.3 15.1 5.9 M 15.2 5.5 C 15.2 5.6 15.2 5.6 15.2 5.5 C 15.2 5.5 15.2 5.5 15.2 5.5 Z M 12.6 5.3 C 12.7 5.3 12.7 5.3 12.6 5.3 C 12.6 5.3 12.6 5.3 12.6 5.3 Z M 6.1 1.3 C 6.1 1.4 6.1 1.4 6.1 1.3 C 6.1 1.3 6.1 1.3 6.1 1.3 Z M 10.8 5.2 C 10.9 5.2 10.9 5.2 10.8 5.2 C 10.8 5.2 10.8 5.2 10.8 5.2 Z M 13.4 5.0 C 13.4 5.0 13.4 5.0 13.4 5.0 C 13.4 5.0 13.4 5.0 13.4 5.0 Z M 11.6 5.8 C 10.8 5.2 12.5 6.2 11.7 5.9 C 11.6 5.8 11.7 5.8 11.6 5.8 M 10.0 6.0 C 9.9 5.9 9.9 5.9 10.0 6.0 M 4.9 7.2 C 4.8 7.2 4.8 7.2 4.9 7.2 M 11.9 10.5 C 11.9 10.5 11.9 10.5 11.9 10.5 M 9.3 7.0 C 9.8 7.8 9.0 6.9 9.3 7.0 M 12.4 12.1 C 12.5 11.4 13.3 13.1 12.4 12.1 M 13.3 13.0 C 13.2 13.1 13.2 13.1 13.3 13.0 M 11.0 9.2 C 10.9 9.1 10.9 9.1 11.0 9.2 C 11.0 9.2 11.0 9.2 11.0 9.2 Z M 9.6 6.9 C 9.6 6.4 10.9 8.3 9.6 6.9 M 12.8 5.9 C 12.6 6.2 12.2 5.1 12.8 5.9 M 13.4 5.5 C 13.4 5.5 13.4 5.5 13.4 5.5 C 13.4 5.5 13.4 5.5 13.4 5.5 Z M 11.7 10.7 C 11.7 10.7 11.7 10.7 11.7 10.7 C 11.7 10.7 11.7 10.7 11.7 10.7 Z M 12.4 11.8 C 12.3 11.7 12.3 11.7 12.4 11.8 C 12.4 11.8 12.4 11.8 12.4 11.8 Z M 7.6 12.0 C 7.5 11.9 7.5 11.9 7.6 12.0 C 7.6 12.0 7.6 12.0 7.6 12.0 Z M 11.4 3.7 C 12.5 4.0 11.8 5.1 11.0 4.1 C 10.5 3.6 11.4 3.8 11.4 3.7 M 7.1 5.1 C 4.8 3.9 10.0 6.3 7.1 5.1 M 12.1 12.8 C 10.2 13.0 13.3 12.4 12.1 12.8 M 13.2 14.3 C 13.0 14.6 11.6 11.6 13.3 13.9 C 13.7 14.1 13.3 14.2 13.2 14.3 M 8.9 5.3 C 7.4 4.5 10.4 5.7 8.9 5.3 M 6.5 7.2 C 7.5 7.9 8.7 9.2 7.2 8.2 C 5.5 7.5 5.6 6.4 6.5 7.2 M 14.7 5.0 C 14.6 6.4 14.4 3.9 14.7 5.0 M 11.9 4.9 C 11.9 5.0 11.9 5.0 11.9 4.9 C 11.9 4.9 11.9 4.9 11.9 4.9 Z M 11.0 5.1 C 10.9 5.0 10.9 5.0 11.0 5.1 M 14.6 6.2 C 14.6 6.1 14.6 6.1 14.6 6.2 M 8.5 8.1 C 8.4 8.1 8.4 8.1 8.5 8.1 M 8.7 6.5 C 7.2 6.5 8.0 5.7 8.7 6.5 M 5.4 2.6 C 4.0 2.0 6.3 2.5 5.4 2.6 M 10.3 8.6 C 8.9 8.5 8.0 6.7 10.3 8.6 M 8.6 6.1 C 8.7 6.2 8.7 6.2 8.6 6.1 C 8.6 6.1 8.6 6.1 8.6 6.1 Z M 6.5 7.4 C 6.4 7.4 6.4 7.4 6.5 7.4 C 6.5 7.4 6.5 7.4 6.5 7.4 Z M 6.8 7.8 C 6.7 7.8 6.7 7.8 6.8 7.8 C 6.8 7.8 6.8 7.8 6.8 7.8 Z M 11.0 9.5 C 10.9 9.5 10.9 9.5 11.0 9.5 C 11.0 9.5 11.0 9.5 11.0 9.5 Z M 11.6 2.1 C 10.4 2.1 12.5 1.9 11.6 2.1 C 11.6 2.1 11.6 2.1 11.6 2.1 Z M 10.9 5.8 C 8.4 4.8 10.6 4.8 10.9 5.8 C 10.9 5.8 10.9 5.8 10.9 5.8 Z M 7.3 4.2 C 7.2 4.1 7.2 4.1 7.3 4.2 C 7.3 4.2 7.3 4.2 7.3 4.2 Z M 11.3 8.7 C 11.2 8.7 11.2 8.7 11.3 8.7 C 11.3 8.7 11.3 8.7 11.3 8.7 Z M 10.9 2.0 C 10.9 1.9 10.9 1.9 10.9 2.0 C 10.9 2.0 10.9 2.0 10.9 2.0 Z M 11.1 11.2 C 11.0 11.2 11.0 11.2 11.1 11.2 C 11.1 11.2 11.1 11.2 11.1 11.2 Z M 4.9 4.8 C 5.8 5.6 4.3 4.6 4.9 4.8 C 4.9 4.8 4.9 4.8 4.9 4.8 Z M 5.6 6.2 C 5.6 6.2 5.6 6.2 5.6 6.2 C 5.6 6.2 5.6 6.2 5.6 6.2 Z M 13.5 13.3 C 13.6 13.3 13.6 13.3 13.5 13.3 C 13.5 13.3 13.5 13.3 13.5 13.3 Z M 5.8 9.0 C 5.8 9.0 5.8 9.0 5.8 9.0 C 5.8 9.0 5.8 9.0 5.8 9.0 Z M 8.4 10.8 C 8.4 10.8 8.4 10.8 8.4 10.8 C 8.4 10.8 8.4 10.8 8.4 10.8 Z M 10.5 9.1 C 11.4 10.3 9.5 8.5 10.5 9.1 C 10.5 9.1 10.5 9.1 10.5 9.1 Z M 10.6 14.1 C 10.5 14.2 10.5 14.2 10.6 14.1 C 10.6 14.1 10.6 14.1 10.6 14.1 Z M 13.0 15.0 C 12.9 15.1 12.9 15.1 13.0 15.0 C 13.0 15.0 13.0 15.0 13.0 15.0 Z M 14.2 15.4 C 14.1 15.5 14.1 15.5 14.2 15.4 C 14.2 15.4 14.2 15.4 14.2 15.4 Z M 9.2 3.3 C 9.3 3.4 9.3 3.4 9.2 3.3 C 9.2 3.3 9.2 3.3 9.2 3.3 Z M 12.3 6.1 C 12.4 6.1 12.4 6.1 12.3 6.1 C 12.3 6.1 12.3 6.1 12.3 6.1 Z M 11.3 6.2 C 11.4 6.2 11.4 6.2 11.3 6.2 C 11.3 6.2 11.3 6.2 11.3 6.2 Z M 7.9 1.7 C 8.0 1.7 8.0 1.7 7.9 1.7 C 7.9 1.7 7.9 1.7 7.9 1.7 Z M 7.4 6.4 C 7.5 6.4 7.5 6.4 7.4 6.4 C 7.4 6.4 7.4 6.4 7.4 6.4 Z M 6.0 6.1 C 6.1 6.1 6.1 6.1 6.0 6.1 C 6.0 6.1 6.0 6.1 6.0 6.1 Z M 2.9 3.3 C 2.9 3.3 2.9 3.3 2.9 3.3 C 2.9 3.3 2.9 3.3 2.9 3.3 Z M 4.8 5.9 C 4.8 5.9 4.8 5.9 4.8 5.9 C 4.8 5.9 4.8 5.9 4.8 5.9 Z M 14.3 2.2 C 14.3 2.2 14.3 2.2 14.3 2.2 C 14.3 2.2 14.3 2.2 14.3 2.2 Z M 14.9 4.3 C 14.9 4.2 14.9 4.2 14.9 4.3 C 14.9 4.3 14.9 4.3 14.9 4.3 Z M 9.9 7.8 C 10.7 8.4 9.2 7.9 9.9 7.8 M 8.4 5.5 C 8.3 5.5 8.3 5.5 8.4 5.5 C 8.4 5.5 8.4 5.5 8.4 5.5 Z M 11.6 11.2 C 10.6 11.1 11.7 10.5 11.6 11.2 C 11.6 11.2 11.6 11.2 11.6 11.2 Z M 6.0 8.1 C 6.0 8.1 6.0 8.1 6.0 8.1 C 6.0 8.1 6.0 8.1 6.0 8.1 Z M 6.8 9.0 C 6.7 9.0 6.7 9.0 6.8 9.0 C 6.8 9.0 6.8 9.0 6.8 9.0 Z M 11.8 13.4 C 11.7 13.4 11.7 13.4 11.8 13.4 M 9.5 6.0 C 9.5 6.0 9.4 6.0 9.4 6.0 C 8.5 5.6 8.7 5.7 9.4 6.0 C 9.4 6.0 9.5 6.0 9.5 6.0 M 11.9 11.9 C 11.9 11.8 11.9 11.8 11.9 11.9 C 11.9 11.9 11.9 11.9 11.9 11.9 Z M 12.7 14.2 C 12.7 14.2 12.7 14.2 12.7 14.2 C 12.7 14.2 12.7 14.2 12.7 14.2 Z M 9.9 5.4 C 8.5 4.4 9.1 4.7 9.9 5.4 M 13.6 5.1 C 13.6 5.0 13.6 5.0 13.6 5.1 C 13.6 5.1 13.6 5.1 13.6 5.1 Z M 13.6 5.1 " fill="#FEFFFE"></path></g></svg>