<?xml version="1.0" encoding="UTF-8" standalone="no"?><svg xmlns="http://www.w3.org/2000/svg" xmlns:xlink="http://www.w3.org/1999/xlink" clip-rule="evenodd" stroke-miterlimit="10" viewBox="0 0 28 30"><desc>SVG generated by Keynote</desc><defs></defs><g transform="matrix(1.00, 0.00, -0.00, -1.00, 0.0, 30.0)"><path d="M 11.9 24.7 C 11.8 24.8 11.1 24.6 11.0 24.7 M 11.9 24.7 C 11.0 23.7 10.0 23.7 8.7 23.5 C 7.2 23.5 8.9 24.4 8.9 24.7 C 7.0 25.1 6.8 24.4 6.9 23.4 C 6.3 24.1 4.1 22.9 4.6 24.2 C 7.7 24.2 2.4 24.5 5.1 25.2 C 5.4 25.4 4.6 25.7 4.3 25.7 C 5.3 26.2 3.7 26.8 5.3 27.2 C 5.5 28.0 5.2 27.6 6.3 28.2 C 6.8 28.3 6.6 28.0 6.5 27.9 C 6.5 26.9 7.8 28.4 8.6 27.8 C 9.7 29.0 10.1 27.6 9.3 27.1 C 10.1 27.2 11.4 28.5 11.9 27.6 C 12.6 28.2 14.5 27.8 12.9 27.1 C 11.9 26.6 12.7 26.2 12.7 25.9 C 12.3 25.7 11.3 26.1 11.0 25.8 C 11.3 25.6 12.6 25.2 11.0 25.3 C 11.4 24.8 10.5 24.6 11.9 24.7 C 11.9 24.7 11.9 24.7 11.9 24.7 Z M 6.5 24.0 C 6.5 23.7 7.0 24.0 6.5 24.0 C 6.5 24.0 6.5 24.0 6.5 24.0 Z M 11.4 28.2 C 11.3 27.9 12.0 28.2 11.4 28.2 C 11.4 28.2 11.4 28.2 11.4 28.2 Z M 6.8 27.9 C 6.7 27.6 7.4 27.9 6.8 27.9 C 6.8 27.9 6.8 27.9 6.8 27.9 Z M 7.9 24.2 C 8.8 24.4 7.3 24.6 7.1 24.3 C 7.3 24.4 7.6 23.9 7.9 24.2 C 7.9 24.2 7.9 24.2 7.9 24.2 Z M 8.4 26.0 C 8.5 25.9 8.8 25.9 8.9 26.2 C 8.6 26.3 8.4 26.1 8.4 26.0 C 8.4 26.0 8.4 26.0 8.4 26.0 Z M 4.0 24.7 C 4.0 24.6 4.4 24.6 4.4 24.9 C 4.1 25.0 3.9 24.8 4.0 24.7 C 4.0 24.7 4.0 24.7 4.0 24.7 Z M 9.1 25.0 C 9.3 25.1 9.4 25.4 9.2 25.4 C 9.0 25.3 8.4 25.2 9.1 25.0 C 9.1 25.0 9.1 25.0 9.1 25.0 Z M 10.0 24.0 C 10.8 24.1 9.5 24.6 9.5 24.4 C 9.2 24.2 9.6 23.7 10.0 24.0 C 10.0 24.0 10.0 24.0 10.0 24.0 Z M 9.6 25.5 C 10.2 25.6 9.4 25.7 9.6 25.5 C 9.6 25.5 9.6 25.5 9.6 25.5 Z M 4.6 27.1 C 5.3 27.2 4.4 27.3 4.6 27.1 C 4.6 27.1 4.6 27.1 4.6 27.1 Z M 8.3 28.0 C 9.0 28.2 8.0 28.3 8.3 28.0 C 8.3 28.0 8.3 28.0 8.3 28.0 Z M 6.5 24.8 C 5.5 24.8 6.2 24.0 6.5 24.8 C 6.5 24.8 6.5 24.8 6.5 24.8 Z M 11.5 23.9 C 10.6 23.9 11.1 23.1 11.5 23.9 C 11.5 23.9 11.5 23.9 11.5 23.9 Z M 5.5 24.6 C 5.7 25.5 6.7 22.2 5.5 23.3 C 4.4 23.6 4.5 21.0 5.5 21.9 C 5.6 21.2 5.6 21.2 5.2 20.7 C 5.9 20.8 6.3 19.3 5.9 18.5 C 5.3 18.0 5.8 19.6 5.1 18.4 C 4.9 16.2 4.4 18.3 3.6 17.2 C 3.6 17.1 4.0 17.2 3.7 16.9 C 3.0 16.5 2.4 17.6 1.8 16.8 C 1.9 17.2 1.1 18.7 1.8 18.2 C 2.5 18.2 0.9 19.9 2.1 20.0 C 1.5 20.5 2.3 21.3 1.6 21.7 C 1.5 22.1 2.1 22.2 2.3 22.2 C 2.9 22.2 1.0 22.5 2.0 23.4 C 1.7 23.4 1.8 25.4 2.3 24.0 C 2.2 24.4 1.9 26.6 3.0 25.4 C 3.5 24.0 4.2 27.0 4.2 25.3 C 4.3 24.0 4.1 23.7 4.7 24.7 C 4.6 25.0 4.7 26.5 5.2 25.2 C 5.1 25.0 5.2 24.4 5.5 24.6 C 5.5 24.6 5.5 24.6 5.5 24.6 Z M 3.9 24.7 C 3.8 24.0 4.3 24.7 3.9 24.7 C 3.9 24.7 3.9 24.7 3.9 24.7 Z M 1.4 21.5 C 1.3 20.7 1.8 21.6 1.4 21.5 C 1.4 21.5 1.4 21.5 1.4 21.5 Z M 5.8 22.4 C 5.4 22.0 6.6 22.1 5.8 22.4 C 5.8 22.4 5.8 22.4 5.8 22.4 Z M 2.3 23.1 C 2.3 23.0 2.4 23.2 2.5 23.4 C 2.4 23.3 2.3 23.1 2.3 23.1 C 2.3 23.1 2.3 23.1 2.3 23.1 Z M 5.8 21.2 C 5.2 20.1 6.6 21.3 5.8 21.2 C 5.8 21.2 5.8 21.2 5.8 21.2 Z M 4.7 18.8 C 3.5 18.3 4.9 17.8 4.7 18.8 C 4.7 18.8 4.7 18.8 4.7 18.8 Z M 2.2 19.7 C 2.4 19.9 2.0 19.8 2.2 19.7 C 2.2 19.7 2.2 19.7 2.2 19.7 Z M 2.0 25.0 C 2.2 25.2 1.9 25.2 2.0 25.0 C 2.0 25.0 2.0 25.0 2.0 25.0 Z M 2.3 18.2 C 2.7 18.4 2.0 18.6 2.3 18.2 C 2.3 18.2 2.3 18.2 2.3 18.2 Z M 5.3 22.1 C 6.2 23.2 4.0 23.2 5.3 22.1 C 5.3 22.1 5.3 22.1 5.3 22.1 Z M 5.4 23.9 C 5.6 24.6 4.8 23.7 5.0 23.4 C 5.1 23.5 5.3 23.8 5.4 23.9 C 5.4 23.9 5.4 23.9 5.4 23.9 Z M 5.2 21.1 C 5.7 21.9 5.0 21.7 5.2 21.1 C 5.2 21.1 5.2 21.1 5.2 21.1 Z M 5.7 22.9 C 5.6 23.2 5.6 22.6 5.7 22.9 C 5.7 22.9 5.7 22.9 5.7 22.9 Z M 6.1 20.1 C 6.0 20.3 6.0 19.8 6.1 20.1 C 6.1 20.1 6.1 20.1 6.1 20.1 Z M 5.9 24.7 C 5.8 25.0 5.7 24.4 5.9 24.7 C 5.9 24.7 5.9 24.7 5.9 24.7 Z M 5.5 20.2 C 5.1 19.9 4.2 20.7 5.0 19.1 C 5.3 18.9 5.9 19.8 5.5 20.2 C 5.5 20.2 5.5 20.2 5.5 20.2 Z M 15.0 24.7 C 10.2 23.4 12.1 25.6 12.0 26.1 C 11.6 26.7 12.4 27.1 13.6 27.5 C 15.3 28.9 14.4 26.0 15.9 27.4 C 18.4 29.3 16.4 25.8 18.2 27.8 C 18.3 28.3 20.0 27.9 19.8 27.7 C 21.5 28.7 21.5 27.0 21.4 26.8 C 22.3 27.1 23.9 28.9 24.7 27.5 C 25.0 27.4 25.4 27.4 25.8 27.5 C 26.0 26.9 26.7 27.3 25.8 26.8 C 27.2 26.7 25.4 25.6 25.9 24.7 C 26.6 24.4 24.7 23.8 26.2 23.4 C 25.0 22.0 27.0 24.6 26.1 19.8 C 26.0 21.8 25.2 17.6 26.0 18.6 C 26.8 20.4 25.7 16.6 26.2 14.8 C 25.7 14.3 24.7 12.3 25.8 12.4 C 27.2 10.0 25.0 10.7 26.1 9.5 C 26.6 8.6 25.6 8.8 25.7 8.3 C 26.5 7.2 25.9 6.9 26.2 4.3 C 26.3 2.7 26.2 2.1 26.0 2.0 C 25.3 2.2 25.1 2.7 24.8 3.1 C 24.6 3.5 24.4 3.8 23.9 4.0 C 23.8 4.1 23.7 4.1 23.5 4.1 C 23.3 4.2 23.2 4.6 23.1 4.9 C 22.3 6.2 21.4 7.8 22.8 6.0 C 22.2 6.8 24.3 8.7 22.1 8.4 C 23.0 9.0 21.2 8.8 22.2 10.4 C 23.8 5.9 22.9 14.0 22.1 11.0 C 21.6 11.7 21.7 12.9 22.1 11.9 C 23.5 11.0 21.5 14.2 23.2 12.6 C 22.7 14.8 24.3 14.1 23.2 14.8 C 21.3 15.3 23.7 14.7 23.1 15.8 C 23.1 18.4 21.0 16.1 22.4 17.7 C 21.5 19.6 23.2 18.5 23.4 19.5 C 24.7 20.4 22.4 21.5 22.3 19.6 C 23.0 21.0 21.7 19.4 22.5 21.0 C 23.6 20.8 21.2 21.4 22.2 21.8 C 22.5 23.0 23.2 23.1 23.2 23.4 C 23.2 25.0 22.0 23.4 22.9 24.5 C 23.0 24.6 23.0 24.7 23.0 24.8 C 22.6 24.8 21.0 23.7 21.1 24.0 C 22.8 24.1 20.9 25.3 20.2 24.6 C 21.1 24.5 18.4 23.1 18.5 24.0 C 21.5 26.6 16.7 23.3 16.6 24.2 C 18.3 25.7 13.2 24.4 14.4 23.8 C 14.4 23.9 15.0 24.7 15.0 24.7 M 20.9 24.2 C 22.3 24.3 19.7 24.5 20.9 24.2 M 20.5 23.8 C 21.5 24.3 18.9 23.5 20.4 23.7 C 20.4 23.7 20.3 23.8 20.5 23.8 M 22.0 20.5 C 22.4 20.8 21.8 20.9 22.0 20.5 M 22.9 20.0 C 23.3 19.3 23.0 21.2 22.9 20.0 M 22.6 8.5 C 24.8 8.5 21.4 10.4 22.6 8.5 M 22.2 16.0 C 22.5 17.4 21.3 15.4 22.2 16.0 M 22.7 16.4 C 23.1 17.2 22.2 16.5 22.7 16.4 M 22.6 10.7 C 22.7 10.6 22.7 10.6 22.6 10.7 C 22.6 10.7 22.6 10.7 22.6 10.7 Z M 22.7 7.3 C 22.6 7.3 22.6 7.3 22.7 7.3 C 22.7 7.3 22.7 7.3 22.7 7.3 Z M 22.8 13.9 C 22.3 15.0 22.6 12.2 22.8 13.9 C 22.8 13.9 22.8 13.9 22.8 13.9 Z M 25.9 6.9 C 26.0 6.9 26.0 6.9 25.9 6.9 C 25.9 6.9 25.9 6.9 25.9 6.9 Z M 20.6 25.2 C 20.6 25.2 20.6 25.2 20.6 25.2 C 20.6 25.2 20.6 25.2 20.6 25.2 Z M 15.9 24.4 C 16.1 24.7 15.0 24.2 15.9 24.4 C 15.9 24.4 15.9 24.4 15.9 24.4 Z M 13.7 26.8 C 13.7 26.9 13.7 26.9 13.7 26.8 C 13.7 26.8 13.7 26.8 13.7 26.8 Z M 20.1 26.3 C 20.1 26.4 20.1 26.4 20.1 26.3 C 20.1 26.3 20.1 26.3 20.1 26.3 Z M 19.5 24.7 C 17.9 23.5 21.3 25.0 19.5 24.7 C 19.5 24.7 19.5 24.7 19.5 24.7 Z M 25.8 15.3 C 25.3 15.3 26.0 14.2 25.8 15.3 C 25.8 15.3 25.8 15.3 25.8 15.3 Z M 23.4 20.1 C 23.1 19.8 23.5 19.5 23.4 20.1 C 23.4 20.1 23.4 20.1 23.4 20.1 Z M 21.8 21.2 C 21.5 20.8 21.9 20.8 21.8 21.2 C 21.8 21.2 21.8 21.2 21.8 21.2 Z M 15.7 24.1 C 15.8 24.0 15.8 24.0 15.7 24.1 C 15.7 24.1 15.7 24.1 15.7 24.1 Z M 17.8 25.0 C 16.0 23.8 19.9 25.5 17.8 25.0 C 17.8 25.0 17.8 25.0 17.8 25.0 Z M 16.2 25.3 C 17.1 25.7 14.7 25.1 16.2 25.3 M 18.4 27.0 C 19.5 26.5 18.4 28.9 18.4 27.0 C 18.4 27.0 18.4 27.0 18.4 27.0 Z M 25.6 27.0 C 25.7 26.9 25.7 26.9 25.6 27.0 C 25.6 27.0 25.6 27.0 25.6 27.0 Z M 22.1 24.2 C 22.3 24.2 22.4 24.2 22.4 24.2 C 22.4 24.1 22.5 24.2 22.5 24.3 C 22.4 24.3 21.8 24.3 22.1 24.2 C 22.1 24.2 22.1 24.2 22.1 24.2 Z M 12.6 23.9 C 13.7 24.0 12.0 24.2 12.6 23.9 C 12.6 23.9 12.6 23.9 12.6 23.9 Z M 24.6 21.8 C 24.4 19.7 25.1 23.5 24.6 21.8 C 24.6 21.8 24.6 21.8 24.6 21.8 Z M 23.3 14.5 C 23.3 14.4 23.3 14.4 23.3 14.5 C 23.3 14.5 23.3 14.5 23.3 14.5 Z M 22.8 13.3 C 22.8 13.3 22.8 13.3 22.8 13.3 C 22.8 13.3 22.8 13.3 22.8 13.3 Z M 24.0 7.8 C 24.0 7.6 24.0 7.6 24.0 7.8 C 24.0 7.8 24.0 7.8 24.0 7.8 Z M 22.3 12.4 C 22.3 12.4 22.3 12.4 22.3 12.4 C 22.3 12.4 22.3 12.4 22.3 12.4 Z M 22.6 9.1 C 22.6 9.0 22.6 9.0 22.6 9.1 C 22.6 9.1 22.6 9.1 22.6 9.1 Z M 21.6 10.1 C 21.7 10.0 21.7 10.0 21.6 10.1 C 21.6 10.1 21.6 10.1 21.6 10.1 Z M 26.4 17.6 C 26.5 17.5 26.5 17.5 26.4 17.6 C 26.4 17.6 26.4 17.6 26.4 17.6 Z M 17.4 23.7 C 17.5 23.8 17.5 23.8 17.4 23.7 C 17.4 23.7 17.4 23.7 17.4 23.7 Z M 23.0 9.1 C 23.0 9.0 23.0 9.0 23.0 9.1 C 23.0 9.1 23.0 9.1 23.0 9.1 Z M 23.9 17.7 C 24.8 17.9 22.6 18.0 23.8 17.4 C 23.9 17.5 23.7 17.7 23.9 17.7 M 25.4 16.7 C 25.5 16.8 25.5 16.8 25.4 16.7 C 25.4 16.7 25.4 16.7 25.4 16.7 Z M 26.0 21.7 C 26.1 21.8 26.1 21.8 26.0 21.7 C 26.0 21.7 26.0 21.7 26.0 21.7 Z M 22.1 13.0 C 21.6 13.3 22.5 12.1 22.1 13.1 M 25.6 6.6 C 25.1 7.2 26.0 5.1 25.6 6.8 M 11.5 24.3 C 11.5 24.7 10.7 24.0 11.5 24.3 M 26.5 23.1 C 26.9 23.6 26.3 23.9 26.5 23.1 M 25.3 20.2 C 24.8 20.2 25.7 19.2 25.3 20.4 M 25.6 9.9 C 25.6 9.9 25.6 9.9 25.6 9.9 C 25.6 9.9 25.6 9.9 25.6 9.9 Z M 22.5 23.0 C 22.5 23.0 22.5 23.0 22.5 23.0 C 22.5 23.0 22.5 23.0 22.5 23.0 Z M 23.6 19.1 C 22.9 19.4 24.1 18.4 23.6 19.1 M 23.7 25.5 C 23.0 25.2 23.1 25.2 23.5 25.2 C 24.0 25.4 24.9 25.7 23.8 25.5 C 23.8 25.5 23.7 25.5 23.7 25.5 M 25.8 4.0 C 24.7 6.1 26.4 2.5 25.8 4.0 M 23.1 11.4 C 22.0 12.7 23.7 10.4 23.1 11.4 M 23.0 22.5 C 22.4 22.1 23.3 21.7 23.0 22.5 M 13.9 24.2 C 12.9 24.1 15.0 23.8 13.9 24.2 M 25.6 13.1 C 25.6 13.0 25.6 13.0 25.6 13.1 C 25.6 13.1 25.6 13.1 25.6 13.1 Z M 20.2 28.3 C 20.3 28.4 20.3 28.4 20.2 28.3 C 20.2 28.3 20.2 28.3 20.2 28.3 Z M 22.3 5.8 C 22.3 5.7 22.3 5.7 22.3 5.8 C 22.3 5.8 22.3 5.8 22.3 5.8 Z M 23.6 11.9 C 23.7 11.9 23.7 11.9 23.6 11.9 C 23.6 11.9 23.6 11.9 23.6 11.9 Z M 22.1 7.7 C 22.2 7.6 22.2 7.6 22.1 7.7 C 22.1 7.7 22.1 7.7 22.1 7.7 Z M 24.5 15.3 C 24.5 15.3 24.5 15.3 24.5 15.3 C 24.5 15.3 24.5 15.3 24.5 15.3 Z M 21.7 15.8 C 21.7 15.8 21.7 15.8 21.7 15.8 C 21.7 15.8 21.7 15.8 21.7 15.8 Z M 22.9 19.4 C 22.9 19.4 22.9 19.4 22.9 19.4 C 22.9 19.4 22.9 19.4 22.9 19.4 Z M 21.9 14.4 C 21.8 12.6 22.8 15.4 21.9 14.4 C 21.9 14.4 21.9 14.4 21.9 14.4 Z M 24.7 18.5 C 24.7 18.5 24.7 18.5 24.7 18.5 C 24.7 18.5 24.7 18.5 24.7 18.5 Z M 22.7 18.1 C 21.9 16.7 24.1 17.8 22.7 18.1 M 22.1 23.2 C 21.7 22.5 22.7 23.6 22.1 23.2 M 23.7 27.5 C 23.8 27.5 23.8 27.5 23.7 27.5 C 23.7 27.5 23.7 27.5 23.7 27.5 Z M 24.2 27.2 C 24.3 27.2 24.3 27.2 24.2 27.2 C 24.2 27.2 24.2 27.2 24.2 27.2 Z M 21.2 23.7 C 21.2 23.7 21.2 23.7 21.2 23.7 C 21.2 23.7 21.2 23.7 21.2 23.7 Z M 25.3 28.2 C 25.4 28.2 25.4 28.2 25.3 28.2 C 25.3 28.2 25.3 28.2 25.3 28.2 Z M 21.8 16.5 C 21.8 16.5 21.8 16.5 21.8 16.5 C 21.8 16.5 21.8 16.5 21.8 16.5 Z M 21.7 7.1 C 21.8 7.1 21.8 7.1 21.7 7.1 C 21.7 7.1 21.7 7.1 21.7 7.1 Z M 15.9 27.1 C 16.0 27.1 16.0 27.1 15.9 27.1 C 15.9 27.1 15.9 27.1 15.9 27.1 Z M 22.9 15.6 C 22.9 15.6 22.9 15.6 22.9 15.6 C 22.9 15.6 22.9 15.6 22.9 15.6 Z M 21.8 27.3 C 21.9 27.3 21.9 27.3 21.8 27.3 C 21.8 27.3 21.8 27.3 21.8 27.3 Z M 22.6 16.3 C 22.6 16.2 22.6 16.2 22.6 16.3 C 22.6 16.3 22.6 16.3 22.6 16.3 Z M 25.8 13.5 C 25.8 13.4 25.8 13.4 25.8 13.5 C 25.8 13.5 25.8 13.5 25.8 13.5 Z M 26.5 10.3 C 26.5 10.3 26.5 10.3 26.5 10.3 C 26.5 10.3 26.5 10.3 26.5 10.3 Z M 23.9 13.9 C 23.9 13.8 23.9 13.8 23.9 13.9 C 23.9 13.9 23.9 13.9 23.9 13.9 Z M 20.0 26.1 C 14.7 25.2 23.3 25.7 20.0 26.1 M 24.1 13.0 C 23.9 16.3 23.1 10.8 24.1 13.0 C 23.9 12.7 24.1 13.0 24.1 13.0 M 21.0 6.1 C 21.8 5.7 22.5 5.3 23.0 4.9 C 23.6 4.5 24.0 4.1 24.3 3.7 C 24.4 3.5 24.5 3.3 24.6 3.1 C 24.3 2.6 22.5 4.6 24.0 2.9 C 26.0 2.5 25.5 0.3 23.7 2.5 C 21.2 2.8 24.4 1.1 22.3 2.0 C 19.6 2.2 21.3 1.5 19.2 1.7 C 17.6 2.9 18.2 1.1 17.4 2.2 C 18.8 1.0 15.3 2.6 15.2 2.0 C 17.2 1.2 8.5 2.0 13.2 2.4 C 11.4 2.9 11.6 1.9 10.9 1.8 C 10.3 2.5 7.4 1.2 6.6 1.9 C 6.9 2.1 7.5 2.1 7.8 2.4 C 8.4 2.8 6.5 2.3 6.6 2.3 C 6.1 2.6 3.8 3.3 5.9 2.0 C 5.7 1.4 3.5 2.3 3.1 1.7 C 2.3 1.7 2.0 1.8 1.9 1.9 C 2.2 2.7 2.6 2.4 2.0 2.6 C 2.0 4.4 2.0 5.8 2.1 5.9 C 2.0 6.9 1.3 6.6 1.9 8.2 C 0.6 9.6 4.5 11.5 1.9 10.6 C 2.5 11.6 0.8 11.3 2.4 12.1 C 1.7 10.9 1.2 15.4 2.3 13.9 C 2.7 14.6 0.7 16.7 2.3 16.9 C 3.5 18.4 4.7 18.6 5.8 17.0 C 4.9 16.9 6.8 15.5 5.2 16.2 C 4.6 17.7 4.6 12.7 5.2 14.1 C 7.1 15.4 4.0 10.9 5.4 10.8 C 4.6 11.1 4.2 6.7 5.6 9.1 C 5.8 8.5 5.1 7.7 5.9 7.7 C 5.8 9.9 4.4 5.4 5.3 6.4 C 5.5 6.8 5.7 6.4 5.8 5.9 C 6.7 6.0 7.5 6.0 7.0 5.5 C 4.1 3.6 8.1 5.9 8.1 5.1 C 9.7 4.7 9.0 6.8 9.3 5.4 C 9.8 5.6 12.0 5.6 10.8 6.0 C 10.1 5.8 11.5 3.9 12.2 5.6 C 10.2 6.5 14.9 6.1 14.1 5.6 C 10.0 4.7 18.7 4.5 15.2 5.4 C 16.6 6.3 14.7 5.8 16.8 5.4 C 16.7 4.9 18.7 4.4 17.8 5.4 C 17.4 7.0 19.5 3.3 19.6 5.5 C 19.2 6.4 22.8 4.8 21.0 5.8 C 20.8 5.9 21.0 6.1 21.0 6.1 M 20.5 5.9 C 21.0 5.6 20.5 6.4 20.5 5.9 M 21.1 5.6 C 21.1 5.6 21.1 5.6 21.1 5.6 C 21.1 5.6 21.1 5.6 21.1 5.6 Z M 17.2 5.3 C 17.2 5.4 17.2 5.4 17.2 5.3 C 17.2 5.3 17.2 5.3 17.2 5.3 Z M 13.9 1.4 C 13.9 1.4 13.9 1.4 13.9 1.4 C 13.9 1.4 13.9 1.4 13.9 1.4 Z M 14.4 5.3 C 14.5 5.3 14.5 5.3 14.4 5.3 C 14.4 5.3 14.4 5.3 14.4 5.3 Z M 18.8 5.1 C 18.8 5.1 18.8 5.1 18.8 5.1 C 18.8 5.1 18.8 5.1 18.8 5.1 Z M 14.6 5.8 C 14.5 5.2 15.4 6.3 14.6 5.9 C 14.5 5.9 14.7 5.9 14.6 5.8 M 11.3 6.1 C 11.3 6.0 11.3 6.0 11.3 6.1 M 1.4 4.1 C 1.3 4.1 1.3 4.1 1.4 4.1 M 6.0 9.0 C 6.0 9.0 6.0 9.0 6.0 9.0 M 7.6 5.5 C 6.6 5.5 7.1 5.2 7.6 5.5 M 5.7 11.8 C 6.1 10.6 6.0 13.6 5.7 11.8 M 6.1 13.5 C 6.0 13.5 6.0 13.5 6.1 13.5 M 5.8 6.7 C 5.8 6.6 5.8 6.6 5.8 6.7 C 5.8 6.7 5.8 6.7 5.8 6.7 Z M 8.2 5.7 C 9.8 6.0 7.3 6.3 8.2 5.7 M 16.5 5.9 C 15.7 6.2 16.7 5.2 16.5 5.9 M 18.2 5.6 C 18.2 5.5 18.2 5.5 18.2 5.6 C 18.2 5.6 18.2 5.6 18.2 5.6 Z M 5.8 9.5 C 5.7 9.4 5.7 9.4 5.8 9.5 C 5.8 9.5 5.8 9.5 5.8 9.5 Z M 5.9 11.2 C 5.8 11.2 5.8 11.2 5.9 11.2 C 5.9 11.2 5.9 11.2 5.9 11.2 Z M 1.5 11.5 C 1.5 11.4 1.5 11.4 1.5 11.5 C 1.5 11.5 1.5 11.5 1.5 11.5 Z M 17.7 3.8 C 18.8 4.1 16.0 5.2 16.5 4.1 C 16.5 3.7 17.5 3.9 17.7 3.8 M 8.5 4.4 C 7.3 2.9 10.6 6.4 8.5 4.4 M 5.1 13.1 C 3.3 13.3 6.3 12.4 5.1 13.1 M 5.4 15.6 C 5.0 16.1 5.2 11.1 5.7 14.9 C 5.9 15.4 5.6 15.5 5.4 15.6 M 11.0 5.3 C 10.4 4.5 12.8 5.7 11.0 5.3 M 2.8 3.9 C 3.4 5.0 3.8 7.1 2.9 5.6 C 1.8 4.5 2.4 2.7 2.8 3.9 M 20.8 5.1 C 19.1 6.4 21.7 4.0 20.8 5.1 M 16.6 5.0 C 16.5 5.0 16.5 5.0 16.6 5.0 C 16.6 5.0 16.6 5.0 16.6 5.0 Z M 14.8 5.2 C 14.8 5.1 14.8 5.1 14.8 5.2 M 19.3 6.2 C 19.3 6.1 19.3 6.1 19.3 6.2 M 4.2 5.2 C 4.1 5.2 4.1 5.2 4.2 5.2 M 7.7 5.1 C 4.9 3.8 8.4 4.9 7.7 5.1 M 11.1 2.6 C 10.3 2.0 12.4 2.6 11.1 2.6 M 5.6 5.7 C 5.0 5.7 4.7 5.1 4.7 4.7 C 4.6 4.3 4.9 4.1 5.5 5.5 C 5.5 5.6 5.5 5.6 5.6 5.7 M 8.6 5.3 C 8.5 5.3 8.5 5.3 8.6 5.3 C 8.6 5.3 8.6 5.3 8.6 5.3 Z M 2.7 4.3 C 2.7 4.2 2.7 4.2 2.7 4.3 C 2.7 4.3 2.7 4.3 2.7 4.3 Z M 2.8 5.0 C 2.7 4.9 2.7 4.9 2.8 5.0 C 2.8 5.0 2.8 5.0 2.8 5.0 Z M 5.7 7.3 C 5.7 7.3 5.7 7.3 5.7 7.3 C 5.7 7.3 5.7 7.3 5.7 7.3 Z M 20.0 2.2 C 18.5 2.1 21.4 2.0 20.0 2.2 C 20.0 2.2 20.0 2.2 20.0 2.2 Z M 13.4 5.8 C 11.3 4.8 14.7 4.9 13.4 5.8 C 13.4 5.8 13.4 5.8 13.4 5.8 Z M 10.9 4.2 C 10.9 4.1 10.9 4.1 10.9 4.2 C 10.9 4.2 10.9 4.2 10.9 4.2 Z M 6.9 6.4 C 6.8 6.3 6.8 6.3 6.9 6.4 C 6.9 6.4 6.9 6.4 6.9 6.4 Z M 19.3 2.0 C 19.4 2.0 19.4 2.0 19.3 2.0 C 19.3 2.0 19.3 2.0 19.3 2.0 Z M 5.0 10.3 C 5.0 10.3 5.0 10.3 5.0 10.3 C 5.0 10.3 5.0 10.3 5.0 10.3 Z M 4.9 2.6 C 4.8 3.0 4.5 2.2 4.9 2.6 C 4.9 2.6 4.9 2.6 4.9 2.6 Z M 2.7 2.6 C 2.6 2.6 2.6 2.6 2.7 2.6 C 2.7 2.6 2.7 2.6 2.7 2.6 Z M 6.2 14.0 C 6.2 14.0 6.2 14.0 6.2 14.0 C 6.2 14.0 6.2 14.0 6.2 14.0 Z M 1.3 6.9 C 1.3 7.0 1.3 7.0 1.3 6.9 C 1.3 6.9 1.3 6.9 1.3 6.9 Z M 2.8 9.8 C 2.8 9.7 2.8 9.7 2.8 9.8 C 2.8 9.8 2.8 9.8 2.8 9.8 Z M 5.4 6.7 C 5.6 8.8 4.8 5.8 5.4 6.7 C 5.4 6.7 5.4 6.7 5.4 6.7 Z M 3.2 15.1 C 3.1 15.1 3.1 15.1 3.2 15.1 C 3.2 15.1 3.2 15.1 3.2 15.1 Z M 4.9 16.9 C 4.8 16.9 4.8 16.9 4.9 16.9 C 4.9 16.9 4.9 16.9 4.9 16.9 Z M 5.8 17.7 C 5.7 17.7 5.7 17.7 5.8 17.7 C 5.8 17.7 5.8 17.7 5.8 17.7 Z M 15.1 3.4 C 15.1 3.4 15.1 3.4 15.1 3.4 C 15.1 3.4 15.1 3.4 15.1 3.4 Z M 15.4 6.1 C 15.4 6.1 15.4 6.1 15.4 6.1 C 15.4 6.1 15.4 6.1 15.4 6.1 Z M 13.3 6.2 C 13.3 6.3 13.3 6.3 13.3 6.2 C 13.3 6.2 13.3 6.2 13.3 6.2 Z M 15.8 1.7 C 15.9 1.8 15.9 1.8 15.8 1.7 C 15.8 1.7 15.8 1.7 15.8 1.7 Z M 5.6 4.0 C 5.6 4.1 5.6 4.1 5.6 4.0 C 5.6 4.0 5.6 4.0 5.6 4.0 Z M 3.6 2.9 C 3.7 3.0 3.7 3.0 3.6 2.9 C 3.6 2.9 3.6 2.9 3.6 2.9 Z M 5.1 1.5 C 5.1 1.5 5.1 1.5 5.1 1.5 C 5.1 1.5 5.1 1.5 5.1 1.5 Z M 1.9 2.1 C 2.0 2.1 2.0 2.1 1.9 2.1 C 1.9 2.1 1.9 2.1 1.9 2.1 Z M 23.6 2.2 C 23.6 2.2 23.6 2.2 23.6 2.2 C 23.6 2.2 23.6 2.2 23.6 2.2 Z M 22.1 4.3 C 22.2 4.3 22.2 4.3 22.1 4.3 C 22.1 4.3 22.1 4.3 22.1 4.3 Z M 6.6 5.6 C 6.6 6.0 5.2 5.0 6.6 5.6 M 9.7 5.3 C 9.7 5.3 9.7 5.3 9.7 5.3 C 9.7 5.3 9.7 5.3 9.7 5.3 Z M 5.4 10.3 C 4.6 10.1 5.9 9.0 5.4 10.3 C 5.4 10.3 5.4 10.3 5.4 10.3 Z M 1.9 5.4 C 1.9 5.4 1.9 5.4 1.9 5.4 C 1.9 5.4 1.9 5.4 1.9 5.4 Z M 2.3 6.8 C 2.2 6.8 2.2 6.8 2.3 6.8 C 2.3 6.8 2.3 6.8 2.3 6.8 Z M 4.5 14.0 C 4.5 14.1 4.5 14.1 4.5 14.0 M 10.4 6.0 C 9.8 5.7 9.9 5.8 10.4 6.0 M 5.4 11.5 C 5.4 11.4 5.4 11.4 5.4 11.5 C 5.4 11.5 5.4 11.5 5.4 11.5 Z M 5.0 15.4 C 5.0 15.4 5.0 15.4 5.0 15.4 C 5.0 15.4 5.0 15.4 5.0 15.4 Z M 12.4 5.5 C 12.2 4.5 12.7 4.7 12.4 5.5 M 19.1 5.2 C 19.1 5.1 19.1 5.1 19.1 5.2 C 19.1 5.2 19.1 5.2 19.1 5.2 Z M 19.1 5.2 " fill="#FEFFFE"></path></g></svg>