<?xml version="1.0" encoding="UTF-8" standalone="no"?><svg xmlns="http://www.w3.org/2000/svg" xmlns:xlink="http://www.w3.org/1999/xlink" clip-rule="evenodd" stroke-miterlimit="10" viewBox="0 0 31 30"><desc>SVG generated by Keynote</desc><defs></defs><g transform="matrix(1.00, 0.00, -0.00, -1.00, 0.0, 30.0)"><path d="M 18.1 15.8 C 18.2 16.0 17.7 16.5 17.8 16.6 M 18.1 15.8 C 16.8 16.4 16.3 17.2 15.5 18.2 C 14.9 19.4 16.5 18.3 16.8 18.5 C 16.3 20.2 15.6 20.1 14.7 19.6 C 15.1 20.3 13.1 21.6 14.4 21.8 C 15.7 19.2 13.6 23.9 15.5 21.8 C 15.8 21.7 15.8 22.5 15.6 22.7 C 16.5 22.1 16.3 23.8 17.4 22.6 C 18.2 22.7 17.8 22.8 18.9 22.0 C 19.2 21.6 18.8 21.7 18.6 21.7 C 17.8 21.3 19.7 20.7 19.6 19.8 C 21.2 19.2 20.1 18.3 19.3 18.9 C 19.8 18.2 21.6 17.4 21.0 16.7 C 21.9 16.2 22.5 14.3 21.0 15.6 C 20.0 16.4 20.0 15.6 19.8 15.5 C 19.3 15.8 19.2 16.8 18.9 16.9 C 18.8 16.6 19.0 15.4 18.3 16.7 C 18.1 16.3 17.4 17.0 18.1 15.8 C 18.1 15.8 18.1 15.8 18.1 15.8 Z M 15.0 20.2 C 14.7 20.1 15.3 19.8 15.0 20.2 C 15.0 20.2 15.0 20.2 15.0 20.2 Z M 21.4 17.3 C 21.0 17.3 21.7 16.7 21.4 17.3 C 21.4 17.3 21.4 17.3 21.4 17.3 Z M 18.8 21.5 C 18.5 21.4 19.1 20.9 18.8 21.5 C 18.8 21.5 18.8 21.5 18.8 21.5 Z M 15.8 19.1 C 16.5 18.4 16.0 19.7 15.6 19.8 C 15.8 19.6 15.5 19.2 15.8 19.1 C 15.8 19.1 15.8 19.1 15.8 19.1 Z M 17.8 19.3 C 17.7 19.2 17.9 18.9 18.2 18.9 C 18.2 19.2 17.9 19.3 17.8 19.3 C 17.8 19.3 17.8 19.3 17.8 19.3 Z M 14.6 22.6 C 14.5 22.5 14.6 22.2 14.9 22.4 C 14.9 22.6 14.6 22.7 14.6 22.6 C 14.6 22.6 14.6 22.6 14.6 22.6 Z M 17.2 18.4 C 17.3 18.2 17.7 18.2 17.6 18.4 C 17.4 18.5 17.0 19.0 17.2 18.4 C 17.2 18.4 17.2 18.4 17.2 18.4 Z M 16.6 17.2 C 17.1 16.7 17.0 17.8 16.8 17.8 C 16.5 18.0 16.1 17.5 16.6 17.2 C 16.6 17.2 16.6 17.2 16.6 17.2 Z M 17.8 18.1 C 18.3 17.5 18.0 18.3 17.8 18.1 C 17.8 18.1 17.8 18.1 17.8 18.1 Z M 17.0 23.1 C 17.4 22.6 17.0 23.4 17.0 23.1 C 17.0 23.1 17.0 23.1 17.0 23.1 Z M 19.7 20.1 C 20.1 19.5 19.7 20.5 19.7 20.1 C 19.7 20.1 19.7 20.1 19.7 20.1 Z M 15.8 20.5 C 15.3 21.4 14.9 20.4 15.8 20.5 C 15.8 20.5 15.8 20.5 15.8 20.5 Z M 17.2 15.9 C 16.7 16.8 16.2 16.1 17.2 15.9 C 17.2 15.9 17.2 15.9 17.2 15.9 Z M 16.4 21.4 C 17.0 22.1 16.5 19.0 15.9 20.4 C 15.0 21.0 14.0 18.8 15.3 19.2 C 15.1 18.6 15.1 18.6 14.4 18.3 C 15.2 18.2 14.9 16.8 14.2 16.3 C 13.3 16.0 14.6 17.2 13.4 16.4 C 12.2 14.6 12.6 16.5 11.2 15.7 C 11.2 15.6 11.7 15.6 11.3 15.4 C 10.3 15.2 10.3 16.4 9.3 15.8 C 9.6 16.1 9.5 17.8 9.9 17.1 C 10.7 16.9 9.9 19.0 11.2 18.7 C 10.9 19.3 12.0 19.8 11.5 20.4 C 11.6 20.9 12.3 20.7 12.4 20.6 C 13.0 20.5 11.4 21.5 12.7 21.8 C 12.5 22.0 13.6 23.8 13.3 22.3 C 13.4 22.7 14.2 24.8 14.6 23.3 C 14.4 21.8 16.4 24.1 15.6 22.6 C 15.1 21.4 14.8 21.3 15.8 21.9 C 15.9 22.2 16.6 23.4 16.5 22.1 C 16.3 21.9 16.1 21.4 16.4 21.4 C 16.4 21.4 16.4 21.4 16.4 21.4 Z M 15.1 22.3 C 14.7 21.6 15.4 22.1 15.1 22.3 C 15.1 22.3 15.1 22.3 15.1 22.3 Z M 11.2 20.4 C 10.7 19.6 11.6 20.2 11.2 20.4 C 11.2 20.4 11.2 20.4 11.2 20.4 Z M 15.8 19.6 C 15.3 19.3 16.4 19.0 15.8 19.6 C 15.8 19.6 15.8 19.6 15.8 19.6 Z M 12.8 21.4 C 12.8 21.4 13.0 21.5 13.2 21.6 C 13.1 21.6 12.9 21.5 12.8 21.4 C 12.8 21.4 12.8 21.4 12.8 21.4 Z M 15.3 18.6 C 14.2 17.8 16.1 18.3 15.3 18.6 C 15.3 18.6 15.3 18.6 15.3 18.6 Z M 13.1 16.8 C 11.7 16.7 12.9 15.9 13.1 16.8 C 13.1 16.8 13.1 16.8 13.1 16.8 Z M 11.1 18.3 C 11.4 18.5 11.0 18.6 11.1 18.3 C 11.1 18.3 11.1 18.3 11.1 18.3 Z M 13.5 23.3 C 13.8 23.4 13.5 23.6 13.5 23.3 C 13.5 23.3 13.5 23.3 13.5 23.3 Z M 10.4 16.9 C 10.9 17.0 10.4 17.4 10.4 16.9 C 10.4 16.9 10.4 16.9 10.4 16.9 Z M 15.2 19.5 C 16.5 20.1 14.4 20.8 15.2 19.5 C 15.2 19.5 15.2 19.5 15.2 19.5 Z M 16.1 20.9 C 16.5 21.4 15.5 21.0 15.5 20.7 C 15.6 20.7 16.0 20.8 16.1 20.9 C 16.1 20.9 16.1 20.9 16.1 20.9 Z M 14.6 18.6 C 15.4 19.1 14.7 19.2 14.6 18.6 C 14.6 18.6 14.6 18.6 14.6 18.6 Z M 15.9 19.9 C 15.9 20.2 15.7 19.7 15.9 19.9 C 15.9 19.9 15.9 19.9 15.9 19.9 Z M 15.1 17.5 C 15.1 17.8 14.9 17.3 15.1 17.5 C 15.1 17.5 15.1 17.5 15.1 17.5 Z M 16.9 21.4 C 16.9 21.7 16.6 21.2 16.9 21.4 C 16.9 21.4 16.9 21.4 16.9 21.4 Z M 14.6 17.8 C 14.1 17.7 13.5 18.6 13.6 17.1 C 13.8 16.8 14.8 17.4 14.6 17.8 C 14.6 17.8 14.6 17.8 14.6 17.8 Z M 19.1 14.1 C 16.2 16.7 19.2 16.0 19.6 16.1 C 20.1 16.4 20.8 16.0 21.6 15.3 C 23.7 14.4 20.3 14.6 22.3 13.8 C 25.2 12.4 20.7 13.4 23.5 12.4 C 24.1 12.4 24.2 11.3 24.0 11.4 C 25.6 10.4 23.7 10.2 23.5 10.3 C 24.1 9.8 26.6 8.8 25.4 8.2 C 25.2 7.6 28.1 5.9 26.1 7.0 C 28.6 5.3 25.8 6.8 26.9 5.8 C 28.3 4.6 25.1 6.6 27.8 4.6 C 26.2 5.1 28.8 4.4 28.8 2.5 C 28.3 3.4 28.1 3.0 28.3 2.6 C 27.8 2.7 27.7 2.6 28.4 2.3 C 30.7 1.5 26.4 2.6 25.6 2.1 C 24.7 2.6 22.0 3.6 23.4 2.5 C 23.0 1.1 21.2 3.3 21.4 2.2 C 21.2 1.7 20.4 2.7 20.1 2.6 C 20.0 1.8 19.3 2.4 17.5 2.1 C 13.1 1.7 16.5 4.2 15.3 4.5 C 15.1 4.9 16.1 7.5 16.0 5.5 C 16.1 6.1 19.0 4.0 17.0 6.2 C 18.1 5.3 16.5 7.1 18.2 6.1 C 16.7 4.5 21.1 5.5 18.5 6.2 C 18.4 6.7 19.1 6.6 19.0 6.2 C 19.9 4.8 19.5 6.8 20.5 5.1 C 21.3 5.6 22.8 4.1 21.9 5.1 C 19.9 7.0 22.5 4.7 22.5 5.2 C 24.1 5.2 19.8 7.3 22.7 5.9 C 22.7 6.0 22.7 6.0 22.7 6.0 C 20.9 7.9 24.1 5.3 24.1 5.6 C 26.1 4.6 21.7 8.1 22.1 7.1 C 22.8 7.1 21.0 7.7 22.0 7.7 C 24.1 6.2 19.6 9.5 21.1 8.6 C 21.3 9.0 22.5 8.1 22.5 8.3 C 22.0 9.3 20.4 9.8 21.6 9.4 C 22.2 9.3 19.7 10.7 20.2 10.5 C 20.8 9.6 21.6 10.6 20.6 11.1 C 20.8 10.5 18.3 12.1 19.4 12.0 C 23.3 10.3 18.1 13.1 19.1 13.1 C 21.2 12.2 18.2 15.1 17.9 14.4 C 18.0 14.4 19.1 14.1 19.1 14.1 M 20.3 10.7 C 20.9 9.8 20.3 11.4 20.3 10.7 M 19.8 10.9 C 20.7 10.3 18.9 11.8 19.6 11.0 C 19.6 11.0 19.7 11.0 19.8 10.9 M 21.3 7.9 C 21.9 7.7 20.7 8.5 21.3 7.9 M 23.1 6.5 C 24.0 5.7 22.8 7.2 23.1 6.5 M 17.5 5.7 C 19.4 3.5 17.5 6.9 17.5 5.7 M 21.4 6.1 C 22.6 5.8 19.9 7.0 21.4 6.1 M 22.4 5.6 C 23.3 5.2 21.7 6.1 22.4 5.6 M 18.8 5.7 C 18.7 5.6 18.7 5.6 18.8 5.7 C 18.8 5.7 18.8 5.7 18.8 5.7 Z M 16.7 5.6 C 16.7 5.7 16.7 5.7 16.7 5.6 C 16.7 5.6 16.7 5.6 16.7 5.6 Z M 21.0 5.5 C 21.0 6.0 19.7 5.7 21.0 5.5 C 21.0 5.5 21.0 5.5 21.0 5.5 Z M 19.3 2.4 C 19.3 2.3 19.3 2.3 19.3 2.4 C 19.3 2.4 19.3 2.4 19.3 2.4 Z M 21.4 10.8 C 21.4 10.8 21.4 10.8 21.4 10.8 C 21.4 10.8 21.4 10.8 21.4 10.8 Z M 19.0 13.6 C 19.4 13.5 18.5 14.1 19.0 13.6 C 19.0 13.6 19.0 13.6 19.0 13.6 Z M 20.9 15.1 C 21.0 15.2 21.0 15.2 20.9 15.1 C 20.9 15.1 20.9 15.1 20.9 15.1 Z M 22.5 11.1 C 22.5 11.1 22.5 11.1 22.5 11.1 C 22.5 11.1 22.5 11.1 22.5 11.1 Z M 20.5 11.5 C 18.7 12.4 21.4 10.4 20.5 11.5 C 20.5 11.5 20.5 11.5 20.5 11.5 Z M 25.6 2.5 C 24.9 3.0 24.9 2.3 25.6 2.5 C 25.6 2.5 25.6 2.5 25.6 2.5 Z M 23.9 6.0 C 23.5 6.2 24.3 5.5 23.9 6.0 C 23.9 6.0 23.9 6.0 23.9 6.0 Z M 20.7 8.7 C 20.3 8.8 21.0 8.3 20.7 8.7 C 20.7 8.7 20.7 8.7 20.7 8.7 Z M 18.6 13.6 C 18.5 13.6 18.5 13.6 18.6 13.6 C 18.6 13.6 18.6 13.6 18.6 13.6 Z M 20.2 12.5 C 18.5 13.5 21.6 11.2 20.2 12.5 C 20.2 12.5 20.2 12.5 20.2 12.5 Z M 20.1 13.4 C 20.8 12.9 19.4 14.3 20.1 13.4 M 22.6 12.2 C 22.5 11.5 24.8 12.4 22.6 12.2 C 22.6 12.2 22.6 12.2 22.6 12.2 Z M 25.7 7.4 C 25.8 7.3 25.8 7.3 25.7 7.4 C 25.7 7.4 25.7 7.4 25.7 7.4 Z M 20.7 10.0 C 21.1 9.3 20.8 10.2 20.7 10.0 C 20.7 10.0 20.7 10.0 20.7 10.0 Z M 17.5 15.4 C 17.9 14.8 17.6 15.8 17.5 15.4 C 17.5 15.4 17.5 15.4 17.5 15.4 Z M 25.4 5.6 C 25.8 4.6 25.9 5.9 25.4 5.6 C 25.4 5.6 25.4 5.6 25.4 5.6 Z M 21.8 5.0 C 21.9 5.0 21.9 5.0 21.8 5.0 C 21.8 5.0 21.8 5.0 21.8 5.0 Z M 20.6 5.5 C 20.6 5.5 20.6 5.5 20.6 5.5 C 20.6 5.5 20.6 5.5 20.6 5.5 Z M 18.1 4.4 C 18.0 4.3 18.0 4.3 18.1 4.4 C 18.1 4.4 18.1 4.4 18.1 4.4 Z M 19.4 6.0 C 19.4 6.0 19.4 6.0 19.4 6.0 C 19.4 6.0 19.4 6.0 19.4 6.0 Z M 17.8 5.7 C 17.7 5.7 17.7 5.7 17.8 5.7 C 17.8 5.7 17.8 5.7 17.8 5.7 Z M 17.5 6.7 C 17.5 6.6 17.5 6.6 17.5 6.7 C 17.5 6.7 17.5 6.7 17.5 6.7 Z M 28.2 1.9 C 28.2 1.8 28.2 1.8 28.2 1.9 C 28.2 1.9 28.2 1.9 28.2 1.9 Z M 18.7 12.7 C 18.8 12.6 18.8 12.6 18.7 12.7 C 18.7 12.7 18.7 12.7 18.7 12.7 Z M 18.1 5.3 C 18.1 5.3 18.1 5.3 18.1 5.3 C 18.1 5.3 18.1 5.3 18.1 5.3 Z M 24.8 4.4 C 26.2 3.5 23.2 5.7 24.5 4.5 C 24.6 4.4 24.6 4.6 24.8 4.4 M 26.2 2.9 C 26.2 2.8 26.2 2.8 26.2 2.9 C 26.2 2.9 26.2 2.9 26.2 2.9 Z M 28.1 3.8 C 28.1 3.8 28.1 3.8 28.1 3.8 C 28.1 3.8 28.1 3.8 28.1 3.8 Z M 19.6 6.2 C 19.1 6.7 19.5 5.8 19.7 6.2 M 18.8 2.7 C 18.7 3.2 18.0 2.3 18.9 2.7 M 17.6 16.1 C 18.0 16.1 17.1 16.5 17.6 16.1 M 28.5 4.0 C 29.1 3.8 27.8 4.8 28.5 4.0 M 27.3 3.7 C 26.4 4.4 28.3 2.6 27.3 3.8 M 21.2 2.7 C 21.2 2.7 21.2 2.7 21.2 2.7 C 21.2 2.7 21.2 2.7 21.2 2.7 Z M 21.3 8.9 C 21.4 8.9 21.4 8.9 21.3 8.9 C 21.3 8.9 21.3 8.9 21.3 8.9 Z M 24.6 5.1 C 23.3 6.2 25.7 4.1 24.6 5.1 M 22.8 8.9 C 21.2 10.1 23.7 7.7 22.8 8.9 M 16.9 2.5 C 17.6 3.6 16.2 1.9 16.9 2.5 M 19.7 5.2 C 19.3 6.3 19.6 4.6 19.7 5.2 M 22.4 8.0 C 21.5 8.5 23.2 7.1 22.4 8.0 M 18.2 14.7 C 17.8 15.3 18.0 14.0 18.2 14.7 M 23.6 2.7 C 23.6 2.7 23.6 2.7 23.6 2.7 C 23.6 2.7 23.6 2.7 23.6 2.7 Z M 24.7 11.2 C 24.8 11.1 24.8 11.1 24.7 11.2 C 24.7 11.2 24.7 11.2 24.7 11.2 Z M 15.6 6.0 C 15.6 6.0 15.6 6.0 15.6 6.0 C 15.6 6.0 15.6 6.0 15.6 6.0 Z M 20.6 4.7 C 20.6 4.6 20.6 4.6 20.6 4.7 C 20.6 4.7 20.6 4.7 20.6 4.7 Z M 16.6 6.2 C 16.6 6.1 16.6 6.1 16.6 6.2 C 16.6 6.2 16.6 6.2 16.6 6.2 Z M 23.9 3.9 C 23.9 3.8 23.9 3.8 23.9 3.9 C 23.9 3.9 23.9 3.9 23.9 3.9 Z M 20.6 6.6 C 20.7 6.6 20.7 6.6 20.6 6.6 C 20.6 6.6 20.6 6.6 20.6 6.6 Z M 23.2 6.2 C 23.3 6.2 23.3 6.2 23.2 6.2 C 23.2 6.2 23.2 6.2 23.2 6.2 Z M 20.1 6.4 C 19.0 6.6 21.9 5.5 20.1 6.4 C 20.1 6.4 20.1 6.4 20.1 6.4 Z M 26.4 3.6 C 26.4 3.6 26.4 3.6 26.4 3.6 C 26.4 3.6 26.4 3.6 26.4 3.6 Z M 23.4 5.6 C 23.3 5.6 23.3 5.6 23.3 5.6 C 21.6 6.3 24.9 4.4 23.6 5.5 C 23.5 5.5 23.4 5.6 23.4 5.6 M 20.5 9.6 C 20.0 9.7 21.5 9.0 20.5 9.6 M 25.0 8.9 C 25.1 8.8 25.1 8.8 25.0 8.9 C 25.0 8.9 25.0 8.9 25.0 8.9 Z M 24.8 8.6 C 24.9 8.5 24.9 8.5 24.8 8.6 C 24.8 8.6 24.8 8.6 24.8 8.6 Z M 19.8 10.5 C 19.9 10.5 19.9 10.5 19.8 10.5 C 19.8 10.5 19.8 10.5 19.8 10.5 Z M 26.4 7.9 C 26.4 7.8 26.4 7.8 26.4 7.9 C 26.4 7.9 26.4 7.9 26.4 7.9 Z M 21.1 6.5 C 21.1 6.5 21.1 6.5 21.1 6.5 C 21.1 6.5 21.1 6.5 21.1 6.5 Z M 16.0 6.6 C 16.0 6.6 16.0 6.6 16.0 6.6 C 16.0 6.6 16.0 6.6 16.0 6.6 Z M 21.9 13.8 C 22.0 13.8 22.0 13.8 21.9 13.8 C 21.9 13.8 21.9 13.8 21.9 13.8 Z M 22.0 5.4 C 22.1 5.4 22.1 5.4 22.0 5.4 C 22.0 5.4 22.0 5.4 22.0 5.4 Z M 24.1 10.1 C 24.2 10.1 24.2 10.1 24.1 10.1 C 24.1 10.1 24.1 10.1 24.1 10.1 Z M 22.1 5.7 C 22.1 5.7 22.1 5.7 22.1 5.7 C 22.1 5.7 22.1 5.7 22.1 5.7 Z M 24.2 2.5 C 24.2 2.5 24.2 2.5 24.2 2.5 C 24.2 2.5 24.2 2.5 24.2 2.5 Z M 22.5 1.9 C 22.4 1.8 22.4 1.8 22.5 1.9 C 22.5 1.9 22.5 1.9 22.5 1.9 Z M 22.2 4.4 C 22.2 4.4 22.2 4.4 22.2 4.4 C 22.2 4.4 22.2 4.4 22.2 4.4 Z M 22.2 11.2 C 19.5 14.3 22.8 9.2 22.2 11.2 M 21.9 4.2 C 23.9 4.4 19.3 5.2 21.9 4.2 C 21.4 4.4 21.8 4.2 21.9 4.2 M 15.1 6.5 C 15.7 5.5 15.7 4.5 15.3 3.4 C 14.8 2.9 15.0 5.0 14.8 3.2 C 16.0 2.9 13.8 0.7 14.2 2.9 C 12.6 3.2 13.6 1.5 12.7 2.3 C 10.9 2.6 11.6 1.9 10.1 2.0 C 10.1 3.2 8.7 1.5 9.2 2.6 C 9.1 1.3 8.0 2.9 7.4 2.4 C 8.1 1.6 2.2 2.4 6.2 2.7 C 5.7 3.3 4.5 2.3 3.8 2.1 C 4.0 2.5 2.9 2.3 1.9 2.1 C 2.0 2.5 2.1 2.8 2.8 3.4 C 3.0 3.4 2.9 3.1 3.2 3.3 C 3.9 3.5 3.4 3.9 3.4 3.9 C 4.1 4.6 6.2 6.9 3.2 4.0 C 2.2 3.3 4.4 5.7 3.6 5.3 C 4.4 7.0 5.6 6.6 4.6 6.7 C 5.2 7.8 5.7 8.7 5.9 8.8 C 6.1 9.4 5.2 9.2 6.5 10.2 C 5.5 11.2 10.4 12.3 7.3 11.8 C 8.3 12.4 6.3 12.3 8.4 12.7 C 7.1 12.0 8.2 15.0 8.9 13.9 C 9.5 14.3 8.1 15.9 9.9 15.8 C 11.6 16.5 12.9 16.5 13.6 15.5 C 12.6 15.4 14.2 14.6 12.7 15.0 C 12.6 15.9 11.0 13.0 12.0 13.8 C 14.5 14.5 9.7 11.9 11.3 11.9 C 10.5 12.1 8.7 9.4 11.1 10.9 C 11.0 10.6 10.0 10.1 10.9 10.2 C 11.5 11.4 8.5 8.7 9.8 9.3 C 10.7 9.9 10.4 8.3 9.2 7.9 C 6.6 7.1 9.6 7.7 8.2 6.7 C 6.9 5.2 10.9 8.3 8.2 6.3 C 8.3 6.3 8.3 6.1 8.3 5.9 C 8.8 6.0 9.4 6.1 9.2 6.4 C 8.6 6.2 6.9 4.3 9.4 5.9 C 9.4 6.9 11.6 6.4 10.6 5.9 C 6.9 5.0 12.4 4.9 11.1 5.8 C 12.8 6.7 11.2 6.2 12.1 5.8 C 11.5 5.2 12.3 4.7 12.7 5.8 C 13.8 7.4 11.8 3.7 13.8 5.8 C 14.3 6.8 15.3 5.2 14.8 6.2 C 14.8 6.3 15.0 6.5 15.1 6.5 M 14.6 6.3 C 14.7 5.9 15.0 6.7 14.6 6.3 M 14.8 6.0 C 14.8 6.0 14.8 6.0 14.8 6.0 C 14.8 6.0 14.8 6.0 14.8 6.0 Z M 12.2 5.7 C 12.2 5.8 12.2 5.8 12.2 5.7 C 12.2 5.7 12.2 5.7 12.2 5.7 Z M 5.6 1.7 C 5.7 1.8 5.7 1.8 5.6 1.7 C 5.6 1.7 5.6 1.7 5.6 1.7 Z M 10.4 5.6 C 10.5 5.6 10.5 5.6 10.4 5.6 C 10.4 5.6 10.4 5.6 10.4 5.6 Z M 13.0 5.5 C 13.0 5.5 13.0 5.5 13.0 5.5 C 13.0 5.5 13.0 5.5 13.0 5.5 Z M 11.2 6.2 C 10.4 5.6 12.1 6.6 11.3 6.3 C 11.2 6.3 11.3 6.3 11.2 6.2 M 9.6 6.4 C 9.5 6.4 9.5 6.4 9.6 6.4 M 4.5 7.6 C 4.4 7.6 4.4 7.6 4.5 7.6 M 11.5 10.9 C 11.4 10.9 11.4 10.9 11.5 10.9 M 8.9 7.4 C 9.4 8.2 8.5 7.3 8.9 7.4 M 12.0 12.5 C 12.1 11.8 12.9 13.5 12.0 12.5 M 12.9 13.4 C 12.8 13.5 12.8 13.5 12.9 13.4 M 10.6 9.6 C 10.5 9.6 10.5 9.6 10.6 9.6 C 10.6 9.6 10.6 9.6 10.6 9.6 Z M 9.2 7.4 C 9.2 6.8 10.5 8.7 9.2 7.4 M 12.4 6.3 C 12.2 6.6 11.8 5.5 12.4 6.3 M 13.0 5.9 C 13.0 5.9 13.0 5.9 13.0 5.9 C 13.0 5.9 13.0 5.9 13.0 5.9 Z M 11.3 11.2 C 11.3 11.1 11.3 11.1 11.3 11.2 C 11.3 11.2 11.3 11.2 11.3 11.2 Z M 12.0 12.2 C 11.9 12.1 11.9 12.1 12.0 12.2 C 12.0 12.2 12.0 12.2 12.0 12.2 Z M 7.2 12.4 C 7.1 12.3 7.1 12.3 7.2 12.4 C 7.2 12.4 7.2 12.4 7.2 12.4 Z M 11.0 4.1 C 12.1 4.4 11.4 5.6 10.6 4.5 C 10.1 4.1 11.0 4.2 11.0 4.1 M 6.7 5.5 C 4.3 4.3 9.6 6.8 6.7 5.5 M 11.6 13.2 C 9.7 13.4 12.9 12.9 11.6 13.2 M 12.8 14.7 C 12.5 15.0 11.1 12.1 12.8 14.3 C 13.3 14.5 12.9 14.6 12.8 14.7 M 8.5 5.7 C 7.0 4.9 10.0 6.1 8.5 5.7 M 6.1 7.6 C 7.1 8.3 8.3 9.6 6.7 8.6 C 5.1 7.9 5.2 6.8 6.1 7.6 M 14.3 5.5 C 14.2 6.8 14.0 4.3 14.3 5.5 M 11.5 5.3 C 11.5 5.4 11.5 5.4 11.5 5.3 C 11.5 5.3 11.5 5.3 11.5 5.3 Z M 10.6 5.6 C 10.5 5.5 10.5 5.5 10.6 5.6 M 14.2 6.6 C 14.2 6.5 14.2 6.5 14.2 6.6 M 8.1 8.5 C 8.0 8.5 8.0 8.5 8.1 8.5 M 8.3 6.9 C 6.8 6.9 7.5 6.1 8.3 6.9 M 5.0 3.0 C 3.6 2.4 5.9 2.9 5.0 3.0 M 9.9 9.0 C 8.5 8.9 7.6 7.1 9.9 9.0 M 8.2 6.5 C 8.2 6.6 8.2 6.6 8.2 6.5 C 8.2 6.5 8.2 6.5 8.2 6.5 Z M 6.1 7.8 C 6.0 7.8 6.0 7.8 6.1 7.8 C 6.1 7.8 6.1 7.8 6.1 7.8 Z M 6.4 8.2 C 6.3 8.2 6.3 8.2 6.4 8.2 C 6.4 8.2 6.4 8.2 6.4 8.2 Z M 10.6 9.9 C 10.5 9.9 10.5 9.9 10.6 9.9 C 10.6 9.9 10.6 9.9 10.6 9.9 Z M 11.2 2.6 C 10.0 2.5 12.0 2.4 11.2 2.6 C 11.2 2.6 11.2 2.6 11.2 2.6 Z M 10.5 6.2 C 8.0 5.2 10.2 5.3 10.5 6.2 C 10.5 6.2 10.5 6.2 10.5 6.2 Z M 6.9 4.6 C 6.8 4.5 6.8 4.5 6.9 4.6 C 6.9 4.6 6.9 4.6 6.9 4.6 Z M 10.9 9.1 C 10.7 9.1 10.7 9.1 10.9 9.1 C 10.9 9.1 10.9 9.1 10.9 9.1 Z M 10.5 2.4 C 10.5 2.3 10.5 2.3 10.5 2.4 C 10.5 2.4 10.5 2.4 10.5 2.4 Z M 10.7 11.6 C 10.6 11.6 10.6 11.6 10.7 11.6 C 10.7 11.6 10.7 11.6 10.7 11.6 Z M 4.5 5.3 C 5.4 6.0 3.9 5.0 4.5 5.3 C 4.5 5.3 4.5 5.3 4.5 5.3 Z M 5.2 6.6 C 5.2 6.6 5.2 6.6 5.2 6.6 C 5.2 6.6 5.2 6.6 5.2 6.6 Z M 13.1 13.7 C 13.1 13.7 13.1 13.7 13.1 13.7 C 13.1 13.7 13.1 13.7 13.1 13.7 Z M 5.4 9.4 C 5.4 9.4 5.4 9.4 5.4 9.4 C 5.4 9.4 5.4 9.4 5.4 9.4 Z M 8.0 11.2 C 7.9 11.2 7.9 11.2 8.0 11.2 C 8.0 11.2 8.0 11.2 8.0 11.2 Z M 10.0 9.6 C 11.0 10.8 9.1 8.9 10.0 9.6 C 10.0 9.6 10.0 9.6 10.0 9.6 Z M 10.2 14.6 C 10.1 14.6 10.1 14.6 10.2 14.6 C 10.2 14.6 10.2 14.6 10.2 14.6 Z M 12.6 15.5 C 12.5 15.5 12.5 15.5 12.6 15.5 C 12.6 15.5 12.6 15.5 12.6 15.5 Z M 13.8 15.8 C 13.7 15.9 13.7 15.9 13.8 15.8 C 13.8 15.8 13.8 15.8 13.8 15.8 Z M 8.8 3.7 C 8.9 3.8 8.9 3.8 8.8 3.7 C 8.8 3.7 8.8 3.7 8.8 3.7 Z M 11.9 6.5 C 12.0 6.5 12.0 6.5 11.9 6.5 C 11.9 6.5 11.9 6.5 11.9 6.5 Z M 10.9 6.6 C 11.0 6.6 11.0 6.6 10.9 6.6 C 10.9 6.6 10.9 6.6 10.9 6.6 Z M 7.5 2.1 C 7.6 2.1 7.6 2.1 7.5 2.1 C 7.5 2.1 7.5 2.1 7.5 2.1 Z M 7.0 6.8 C 7.1 6.8 7.1 6.8 7.0 6.8 C 7.0 6.8 7.0 6.8 7.0 6.8 Z M 5.6 6.5 C 5.7 6.6 5.7 6.6 5.6 6.5 C 5.6 6.5 5.6 6.5 5.6 6.5 Z M 2.4 3.7 C 2.5 3.7 2.5 3.7 2.4 3.7 C 2.4 3.7 2.4 3.7 2.4 3.7 Z M 4.4 6.3 C 4.4 6.3 4.4 6.3 4.4 6.3 C 4.4 6.3 4.4 6.3 4.4 6.3 Z M 13.9 2.6 C 13.9 2.6 13.9 2.6 13.9 2.6 C 13.9 2.6 13.9 2.6 13.9 2.6 Z M 14.5 4.7 C 14.5 4.6 14.5 4.6 14.5 4.7 C 14.5 4.7 14.5 4.7 14.5 4.7 Z M 9.5 8.2 C 10.3 8.8 8.8 8.3 9.5 8.2 M 7.9 5.9 C 7.9 5.9 7.9 5.9 7.9 5.9 C 7.9 5.9 7.9 5.9 7.9 5.9 Z M 11.2 11.6 C 10.2 11.5 11.3 10.9 11.2 11.6 C 11.2 11.6 11.2 11.6 11.2 11.6 Z M 5.5 8.5 C 5.5 8.5 5.5 8.5 5.5 8.5 C 5.5 8.5 5.5 8.5 5.5 8.5 Z M 6.4 9.4 C 6.3 9.4 6.3 9.4 6.4 9.4 C 6.4 9.4 6.4 9.4 6.4 9.4 Z M 11.3 13.8 C 11.3 13.8 11.3 13.8 11.3 13.8 M 9.1 6.4 C 9.0 6.4 9.0 6.4 9.0 6.4 C 8.1 6.1 8.3 6.1 9.0 6.4 C 9.0 6.4 9.0 6.4 9.1 6.4 M 11.5 12.3 C 11.5 12.3 11.5 12.3 11.5 12.3 C 11.5 12.3 11.5 12.3 11.5 12.3 Z M 12.3 14.6 C 12.2 14.6 12.2 14.6 12.3 14.6 C 12.3 14.6 12.3 14.6 12.3 14.6 Z M 9.5 5.9 C 8.1 4.8 8.7 5.1 9.5 5.9 M 13.2 5.5 C 13.2 5.5 13.2 5.5 13.2 5.5 C 13.2 5.5 13.2 5.5 13.2 5.5 Z M 13.2 5.5 " fill="#FEFFFE"></path></g></svg>