<?xml version="1.0" encoding="UTF-8" standalone="no"?><svg xmlns="http://www.w3.org/2000/svg" xmlns:xlink="http://www.w3.org/1999/xlink" clip-rule="evenodd" stroke-miterlimit="10" viewBox="0 0 32 30"><desc>SVG generated by Keynote</desc><defs></defs><g transform="matrix(1.00, 0.00, -0.00, -1.00, 0.0, 30.0)"><path d="M 18.7 15.3 C 18.8 15.4 18.3 15.9 18.4 16.1 M 18.7 15.3 C 17.4 15.8 16.9 16.6 16.1 17.7 C 15.5 18.8 17.1 17.7 17.4 17.9 C 16.9 19.7 16.2 19.5 15.3 19.0 C 15.7 19.8 13.7 21.1 15.0 21.3 C 16.3 18.7 14.2 23.4 16.1 21.3 C 16.4 21.1 16.3 21.9 16.2 22.2 C 17.1 21.6 16.9 23.3 18.0 22.0 C 18.8 22.1 18.3 22.3 19.4 21.5 C 19.7 21.1 19.4 21.2 19.2 21.2 C 18.4 20.8 20.3 20.1 20.2 19.2 C 21.8 18.6 20.7 17.7 19.8 18.3 C 20.4 17.6 22.2 16.8 21.6 16.1 C 22.5 15.7 23.1 13.8 21.6 15.0 C 20.6 15.8 20.6 15.0 20.3 14.9 C 19.9 15.2 19.8 16.2 19.5 16.4 C 19.4 16.1 19.6 14.8 18.9 16.2 C 18.6 15.8 18.0 16.4 18.7 15.3 C 18.7 15.3 18.7 15.3 18.7 15.3 Z M 15.6 19.6 C 15.3 19.5 15.9 19.2 15.6 19.6 C 15.6 19.6 15.6 19.6 15.6 19.6 Z M 22.0 16.7 C 21.6 16.7 22.3 16.2 22.0 16.7 C 22.0 16.7 22.0 16.7 22.0 16.7 Z M 19.4 20.9 C 19.0 20.8 19.7 20.4 19.4 20.9 C 19.4 20.9 19.4 20.9 19.4 20.9 Z M 16.4 18.5 C 17.1 17.9 16.6 19.2 16.2 19.2 C 16.3 19.1 16.1 18.6 16.4 18.5 C 16.4 18.5 16.4 18.5 16.4 18.5 Z M 18.4 18.7 C 18.3 18.6 18.4 18.3 18.8 18.4 C 18.7 18.6 18.5 18.8 18.4 18.7 C 18.4 18.7 18.4 18.7 18.4 18.7 Z M 15.2 22.1 C 15.1 21.9 15.2 21.6 15.5 21.8 C 15.5 22.0 15.2 22.2 15.2 22.1 C 15.2 22.1 15.2 22.1 15.2 22.1 Z M 17.8 17.8 C 17.9 17.6 18.3 17.6 18.2 17.8 C 18.0 17.9 17.6 18.4 17.8 17.8 C 17.8 17.8 17.8 17.8 17.8 17.8 Z M 17.2 16.7 C 17.7 16.1 17.6 17.3 17.4 17.3 C 17.1 17.4 16.7 17.0 17.2 16.7 C 17.2 16.7 17.2 16.7 17.2 16.7 Z M 18.4 17.5 C 18.9 17.0 18.6 17.7 18.4 17.5 C 18.4 17.5 18.4 17.5 18.4 17.5 Z M 17.6 22.5 C 18.0 22.0 17.6 22.9 17.6 22.5 C 17.6 22.5 17.6 22.5 17.6 22.5 Z M 20.2 19.6 C 20.7 19.0 20.3 19.9 20.2 19.6 C 20.2 19.6 20.2 19.6 20.2 19.6 Z M 16.4 20.0 C 15.9 20.8 15.5 19.8 16.4 20.0 C 16.4 20.0 16.4 20.0 16.4 20.0 Z M 17.8 15.4 C 17.3 16.2 16.8 15.6 17.8 15.4 C 17.8 15.4 17.8 15.4 17.8 15.4 Z M 17.0 20.9 C 17.6 21.6 17.1 18.5 16.4 19.8 C 15.6 20.5 14.6 18.3 15.8 18.7 C 15.6 18.0 15.7 18.0 15.0 17.8 C 15.8 17.6 15.5 16.3 14.8 15.8 C 13.9 15.4 15.2 16.7 14.0 15.9 C 12.8 14.0 13.2 15.9 11.8 15.1 C 11.8 15.0 12.2 15.1 11.9 14.8 C 10.9 14.7 10.9 15.8 9.9 15.2 C 10.2 15.6 10.1 17.2 10.5 16.5 C 11.2 16.3 10.5 18.4 11.8 18.2 C 11.4 18.8 12.6 19.2 12.1 19.9 C 12.2 20.3 12.9 20.2 13.0 20.1 C 13.5 19.9 12.0 20.9 13.3 21.3 C 13.1 21.4 14.2 23.2 13.8 21.7 C 14.0 22.1 14.8 24.2 15.2 22.7 C 15.0 21.2 17.0 23.6 16.2 22.0 C 15.7 20.9 15.4 20.7 16.4 21.3 C 16.5 21.6 17.2 22.8 17.1 21.5 C 16.8 21.4 16.7 20.9 17.0 20.9 C 17.0 20.9 17.0 20.9 17.0 20.9 Z M 15.7 21.7 C 15.3 21.1 16.0 21.5 15.7 21.7 C 15.7 21.7 15.7 21.7 15.7 21.7 Z M 11.8 19.8 C 11.3 19.0 12.2 19.7 11.8 19.8 C 11.8 19.8 11.8 19.8 11.8 19.8 Z M 16.4 19.0 C 15.9 18.8 17.0 18.5 16.4 19.0 C 16.4 19.0 16.4 19.0 16.4 19.0 Z M 13.4 20.9 C 13.4 20.8 13.6 21.0 13.8 21.1 C 13.7 21.1 13.5 20.9 13.4 20.9 C 13.4 20.9 13.4 20.9 13.4 20.9 Z M 15.8 18.0 C 14.8 17.2 16.7 17.8 15.8 18.0 C 15.8 18.0 15.8 18.0 15.8 18.0 Z M 13.7 16.3 C 12.3 16.1 13.5 15.3 13.7 16.3 C 13.7 16.3 13.7 16.3 13.7 16.3 Z M 11.6 17.8 C 12.0 18.0 11.6 18.0 11.6 17.8 C 11.6 17.8 11.6 17.8 11.6 17.8 Z M 14.1 22.8 C 14.4 22.9 14.1 23.0 14.1 22.8 C 14.1 22.8 14.1 22.8 14.1 22.8 Z M 11.0 16.4 C 11.5 16.5 11.0 16.8 11.0 16.4 C 11.0 16.4 11.0 16.4 11.0 16.4 Z M 15.8 18.9 C 17.1 19.5 15.0 20.3 15.8 18.9 C 15.8 18.9 15.8 18.9 15.8 18.9 Z M 16.7 20.4 C 17.1 20.8 16.1 20.4 16.1 20.1 C 16.2 20.1 16.6 20.3 16.7 20.4 C 16.7 20.4 16.7 20.4 16.7 20.4 Z M 15.2 18.1 C 16.0 18.6 15.3 18.6 15.2 18.1 C 15.2 18.1 15.2 18.1 15.2 18.1 Z M 16.5 19.4 C 16.5 19.7 16.3 19.2 16.5 19.4 C 16.5 19.4 16.5 19.4 16.5 19.4 Z M 15.7 17.0 C 15.7 17.2 15.5 16.7 15.7 17.0 C 15.7 17.0 15.7 17.0 15.7 17.0 Z M 17.5 20.8 C 17.5 21.1 17.2 20.7 17.5 20.8 C 17.5 20.8 17.5 20.8 17.5 20.8 Z M 15.2 17.2 C 14.7 17.1 14.1 18.0 14.2 16.5 C 14.4 16.3 15.3 16.8 15.2 17.2 C 15.2 17.2 15.2 17.2 15.2 17.2 Z M 19.6 13.6 C 16.8 16.2 19.7 15.4 20.2 15.5 C 20.7 15.8 21.3 15.4 22.2 14.8 C 24.3 13.8 20.9 14.0 22.9 13.3 C 25.8 11.9 21.3 12.8 24.1 11.8 C 24.7 11.8 24.8 10.7 24.5 10.9 C 26.2 9.8 24.3 9.7 24.1 9.8 C 24.7 9.2 27.2 8.3 26.0 7.7 C 25.8 7.0 28.7 5.3 26.7 6.5 C 29.2 4.7 26.4 6.3 27.5 5.2 C 28.9 4.1 25.7 6.1 28.4 4.0 C 26.8 4.6 29.4 3.8 29.4 2.0 C 28.9 2.8 28.7 2.5 28.8 2.1 C 28.4 2.1 28.2 2.1 28.9 1.8 C 31.3 1.0 27.0 2.1 26.2 1.6 C 25.3 2.0 22.6 3.0 24.0 1.9 C 23.6 0.6 21.8 2.7 22.0 1.6 C 21.8 1.2 21.0 2.2 20.7 2.1 C 20.6 1.3 19.9 1.8 18.1 1.6 C 13.7 1.2 17.1 3.7 15.9 3.9 C 15.7 4.3 16.7 7.0 16.6 5.0 C 16.7 5.5 19.6 3.5 17.5 5.7 C 18.7 4.8 17.1 6.6 18.8 5.5 C 17.3 4.0 21.7 4.9 19.1 5.7 C 19.0 6.1 19.7 6.0 19.6 5.6 C 20.5 4.2 20.1 6.3 21.1 4.6 C 21.9 5.0 23.4 3.5 22.5 4.6 C 20.4 6.4 23.0 4.1 23.1 4.6 C 24.7 4.7 20.4 6.8 23.3 5.4 C 23.2 5.4 23.2 5.4 23.2 5.5 C 21.4 7.3 24.6 4.8 24.7 5.1 C 26.7 4.0 22.3 7.5 22.6 6.5 C 23.4 6.5 21.6 7.2 22.6 7.1 C 24.7 5.6 20.2 9.0 21.7 8.0 C 21.9 8.4 23.1 7.6 23.0 7.8 C 22.6 8.7 21.0 9.2 22.2 8.8 C 22.8 8.7 20.3 10.1 20.8 10.0 C 21.4 9.0 22.2 10.1 21.2 10.5 C 21.4 10.0 18.9 11.6 20.0 11.5 C 23.8 9.7 18.7 12.5 19.7 12.6 C 21.8 11.6 18.8 14.6 18.4 13.8 C 18.6 13.8 19.7 13.5 19.6 13.6 M 20.9 10.1 C 21.5 9.3 20.9 10.8 20.9 10.1 M 20.4 10.4 C 21.2 9.8 19.5 11.3 20.2 10.4 C 20.2 10.4 20.3 10.4 20.4 10.4 M 21.9 7.4 C 22.5 7.1 21.3 8.0 21.9 7.4 M 23.7 6.0 C 24.6 5.1 23.4 6.6 23.7 6.0 M 18.0 5.1 C 20.0 3.0 18.1 6.3 18.0 5.1 M 21.9 5.6 C 23.2 5.3 20.5 6.5 21.9 5.6 M 23.0 5.0 C 23.9 4.7 22.3 5.5 23.0 5.0 M 19.3 5.1 C 19.3 5.1 19.3 5.1 19.3 5.1 C 19.3 5.1 19.3 5.1 19.3 5.1 Z M 17.3 5.1 C 17.3 5.1 17.3 5.1 17.3 5.1 C 17.3 5.1 17.3 5.1 17.3 5.1 Z M 21.6 4.9 C 21.6 5.4 20.3 5.1 21.6 4.9 C 21.6 4.9 21.6 4.9 21.6 4.9 Z M 19.8 1.8 C 19.9 1.8 19.9 1.8 19.8 1.8 C 19.8 1.8 19.8 1.8 19.8 1.8 Z M 22.0 10.2 C 22.0 10.2 22.0 10.2 22.0 10.2 C 22.0 10.2 22.0 10.2 22.0 10.2 Z M 19.6 13.0 C 20.0 12.9 19.1 13.5 19.6 13.0 C 19.6 13.0 19.6 13.0 19.6 13.0 Z M 21.5 14.6 C 21.6 14.6 21.6 14.6 21.5 14.6 C 21.5 14.6 21.5 14.6 21.5 14.6 Z M 23.1 10.6 C 23.1 10.6 23.1 10.6 23.1 10.6 C 23.1 10.6 23.1 10.6 23.1 10.6 Z M 21.1 10.9 C 19.3 11.9 22.0 9.8 21.1 10.9 C 21.1 10.9 21.1 10.9 21.1 10.9 Z M 26.2 1.9 C 25.5 2.5 25.5 1.8 26.2 1.9 C 26.2 1.9 26.2 1.9 26.2 1.9 Z M 24.5 5.5 C 24.1 5.6 24.9 5.0 24.5 5.5 C 24.5 5.5 24.5 5.5 24.5 5.5 Z M 21.2 8.1 C 20.9 8.3 21.6 7.7 21.2 8.1 C 21.2 8.1 21.2 8.1 21.2 8.1 Z M 19.2 13.1 C 19.1 13.1 19.1 13.1 19.2 13.1 C 19.2 13.1 19.2 13.1 19.2 13.1 Z M 20.8 11.9 C 19.1 12.9 22.2 10.7 20.8 11.9 C 20.8 11.9 20.8 11.9 20.8 11.9 Z M 20.7 12.9 C 21.4 12.4 20.0 13.7 20.7 12.9 M 23.2 11.6 C 23.1 11.0 25.4 11.8 23.2 11.6 C 23.2 11.6 23.2 11.6 23.2 11.6 Z M 26.3 6.9 C 26.4 6.8 26.4 6.8 26.3 6.9 C 26.3 6.9 26.3 6.9 26.3 6.9 Z M 21.3 9.4 C 21.7 8.8 21.4 9.7 21.3 9.4 C 21.3 9.4 21.3 9.4 21.3 9.4 Z M 18.1 14.9 C 18.5 14.3 18.2 15.2 18.1 14.9 C 18.1 14.9 18.1 14.9 18.1 14.9 Z M 26.0 5.1 C 26.4 4.0 26.5 5.4 26.0 5.1 C 26.0 5.1 26.0 5.1 26.0 5.1 Z M 22.4 4.5 C 22.4 4.4 22.4 4.4 22.4 4.5 C 22.4 4.5 22.4 4.5 22.4 4.5 Z M 21.2 4.9 C 21.2 4.9 21.2 4.9 21.2 4.9 C 21.2 4.9 21.2 4.9 21.2 4.9 Z M 18.7 3.8 C 18.6 3.8 18.6 3.8 18.7 3.8 C 18.7 3.8 18.7 3.8 18.7 3.8 Z M 20.0 5.5 C 20.0 5.4 20.0 5.4 20.0 5.5 C 20.0 5.5 20.0 5.5 20.0 5.5 Z M 18.3 5.2 C 18.3 5.1 18.3 5.1 18.3 5.2 C 18.3 5.2 18.3 5.2 18.3 5.2 Z M 18.1 6.1 C 18.1 6.1 18.1 6.1 18.1 6.1 C 18.1 6.1 18.1 6.1 18.1 6.1 Z M 28.8 1.3 C 28.8 1.3 28.8 1.3 28.8 1.3 C 28.8 1.3 28.8 1.3 28.8 1.3 Z M 19.3 12.1 C 19.4 12.1 19.4 12.1 19.3 12.1 C 19.3 12.1 19.3 12.1 19.3 12.1 Z M 18.7 4.7 C 18.7 4.7 18.7 4.7 18.7 4.7 C 18.7 4.7 18.7 4.7 18.7 4.7 Z M 25.3 3.9 C 26.8 2.9 23.8 5.1 25.1 3.9 C 25.2 3.9 25.2 4.0 25.3 3.9 M 26.7 2.3 C 26.8 2.3 26.8 2.3 26.7 2.3 C 26.7 2.3 26.7 2.3 26.7 2.3 Z M 28.6 3.2 C 28.7 3.2 28.7 3.2 28.6 3.2 C 28.6 3.2 28.6 3.2 28.6 3.2 Z M 20.2 5.7 C 19.7 6.2 20.1 5.2 20.3 5.6 M 19.4 2.2 C 19.3 2.7 18.6 1.7 19.5 2.1 M 18.1 15.5 C 18.6 15.6 17.6 16.0 18.1 15.5 M 29.1 3.5 C 29.7 3.2 28.4 4.2 29.1 3.5 M 27.9 3.2 C 27.0 3.8 28.9 2.1 27.9 3.3 M 21.8 2.2 C 21.8 2.2 21.8 2.2 21.8 2.2 C 21.8 2.2 21.8 2.2 21.8 2.2 Z M 21.9 8.4 C 22.0 8.3 22.0 8.3 21.9 8.4 C 21.9 8.4 21.9 8.4 21.9 8.4 Z M 25.2 4.6 C 23.8 5.6 26.3 3.5 25.2 4.6 M 23.4 8.4 C 21.8 9.5 24.3 7.2 23.4 8.4 M 17.5 1.9 C 18.2 3.0 16.8 1.3 17.5 1.9 M 20.3 4.6 C 19.9 5.7 20.2 4.0 20.3 4.6 M 22.9 7.5 C 22.1 7.9 23.8 6.6 22.9 7.5 M 18.8 14.1 C 18.4 14.7 18.6 13.5 18.8 14.1 M 24.2 2.2 C 24.2 2.1 24.2 2.1 24.2 2.2 C 24.2 2.2 24.2 2.2 24.2 2.2 Z M 25.3 10.6 C 25.4 10.6 25.4 10.6 25.3 10.6 C 25.3 10.6 25.3 10.6 25.3 10.6 Z M 16.2 5.5 C 16.1 5.4 16.1 5.4 16.2 5.5 C 16.2 5.5 16.2 5.5 16.2 5.5 Z M 21.1 4.1 C 21.2 4.1 21.2 4.1 21.1 4.1 C 21.1 4.1 21.1 4.1 21.1 4.1 Z M 17.2 5.6 C 17.2 5.5 17.2 5.5 17.2 5.6 C 17.2 5.6 17.2 5.6 17.2 5.6 Z M 24.5 3.3 C 24.5 3.3 24.5 3.3 24.5 3.3 C 24.5 3.3 24.5 3.3 24.5 3.3 Z M 21.2 6.1 C 21.2 6.0 21.2 6.0 21.2 6.1 C 21.2 6.1 21.2 6.1 21.2 6.1 Z M 23.8 5.6 C 23.9 5.6 23.9 5.6 23.8 5.6 C 23.8 5.6 23.8 5.6 23.8 5.6 Z M 20.7 5.8 C 19.5 6.0 22.5 4.9 20.7 5.8 C 20.7 5.8 20.7 5.8 20.7 5.8 Z M 27.0 3.1 C 27.0 3.1 27.0 3.1 27.0 3.1 C 27.0 3.1 27.0 3.1 27.0 3.1 Z M 23.9 5.1 C 23.9 5.1 23.9 5.1 23.9 5.1 C 22.2 5.7 25.4 3.8 24.1 4.9 C 24.1 5.0 24.0 5.0 23.9 5.1 M 21.1 9.0 C 20.6 9.1 22.1 8.5 21.1 9.0 M 25.6 8.3 C 25.6 8.3 25.6 8.3 25.6 8.3 C 25.6 8.3 25.6 8.3 25.6 8.3 Z M 25.4 8.0 C 25.5 7.9 25.5 7.9 25.4 8.0 C 25.4 8.0 25.4 8.0 25.4 8.0 Z M 20.4 10.0 C 20.5 9.9 20.5 9.9 20.4 10.0 C 20.4 10.0 20.4 10.0 20.4 10.0 Z M 27.0 7.3 C 27.0 7.3 27.0 7.3 27.0 7.3 C 27.0 7.3 27.0 7.3 27.0 7.3 Z M 21.7 6.0 C 21.7 6.0 21.7 6.0 21.7 6.0 C 21.7 6.0 21.7 6.0 21.7 6.0 Z M 16.6 6.0 C 16.6 6.0 16.6 6.0 16.6 6.0 C 16.6 6.0 16.6 6.0 16.6 6.0 Z M 22.5 13.3 C 22.6 13.2 22.6 13.2 22.5 13.3 C 22.5 13.3 22.5 13.3 22.5 13.3 Z M 22.6 4.9 C 22.7 4.8 22.7 4.8 22.6 4.9 C 22.6 4.9 22.6 4.9 22.6 4.9 Z M 24.7 9.5 C 24.8 9.5 24.8 9.5 24.7 9.5 C 24.7 9.5 24.7 9.5 24.7 9.5 Z M 22.7 5.1 C 22.7 5.1 22.7 5.1 22.7 5.1 C 22.7 5.1 22.7 5.1 22.7 5.1 Z M 24.8 1.9 C 24.8 1.9 24.8 1.9 24.8 1.9 C 24.8 1.9 24.8 1.9 24.8 1.9 Z M 23.1 1.3 C 23.0 1.3 23.0 1.3 23.1 1.3 C 23.1 1.3 23.1 1.3 23.1 1.3 Z M 22.8 3.8 C 22.8 3.8 22.8 3.8 22.8 3.8 C 22.8 3.8 22.8 3.8 22.8 3.8 Z M 22.8 10.6 C 20.1 13.8 23.4 8.6 22.8 10.6 M 22.5 3.6 C 24.5 3.8 19.9 4.7 22.5 3.6 C 22.0 3.9 22.4 3.6 22.5 3.6 M 15.7 5.9 C 16.3 4.9 16.3 3.9 15.9 2.9 C 15.3 2.4 15.6 4.4 15.4 2.7 C 16.6 2.4 14.4 0.1 14.8 2.3 C 13.2 2.6 14.2 0.9 13.3 1.8 C 11.5 2.0 12.2 1.3 10.7 1.5 C 10.7 2.7 9.3 0.9 9.8 2.0 C 9.6 0.8 8.6 2.4 8.0 1.8 C 8.7 1.1 2.8 1.8 6.8 2.2 C 6.2 2.8 5.1 1.7 4.4 1.6 C 4.6 2.0 3.5 1.7 2.5 1.6 C 2.6 1.9 2.7 2.3 3.4 2.9 C 3.6 2.9 3.4 2.6 3.8 2.7 C 4.5 3.0 4.0 3.4 4.0 3.3 C 4.7 4.0 6.8 6.3 3.8 3.4 C 2.7 2.8 5.0 5.2 4.2 4.7 C 5.0 6.4 6.2 6.0 5.2 6.1 C 5.8 7.3 6.3 8.1 6.5 8.2 C 6.7 8.9 5.8 8.7 7.1 9.7 C 6.1 10.6 11.0 11.7 7.9 11.2 C 8.9 11.9 6.9 11.7 9.0 12.2 C 7.7 11.4 8.7 14.4 9.5 13.3 C 10.1 13.7 8.7 15.4 10.5 15.2 C 12.2 16.0 13.5 15.9 14.2 14.9 C 13.2 14.9 14.8 14.0 13.3 14.4 C 13.2 15.4 11.6 12.4 12.6 13.2 C 15.1 13.9 10.3 11.4 11.8 11.4 C 11.1 11.5 9.3 8.9 11.6 10.4 C 11.6 10.1 10.6 9.6 11.5 9.6 C 12.0 10.8 9.1 8.1 10.4 8.8 C 11.3 9.4 11.0 7.8 9.8 7.3 C 7.2 6.5 10.2 7.2 8.8 6.1 C 7.5 4.6 11.5 7.8 8.8 5.7 C 8.9 5.7 8.9 5.5 8.8 5.4 C 9.4 5.5 9.9 5.6 9.8 5.8 C 9.2 5.6 7.5 3.7 10.0 5.4 C 10.0 6.3 12.2 5.9 11.2 5.4 C 7.5 4.5 13.0 4.3 11.7 5.2 C 13.4 6.2 11.8 5.6 12.6 5.2 C 12.1 4.7 12.9 4.2 13.2 5.2 C 14.4 6.8 12.4 3.1 14.4 5.3 C 14.8 6.2 15.9 4.6 15.4 5.6 C 15.4 5.7 15.6 5.9 15.7 5.9 M 15.2 5.7 C 15.3 5.4 15.6 6.2 15.2 5.7 M 15.3 5.4 C 15.4 5.4 15.4 5.4 15.3 5.4 C 15.3 5.4 15.3 5.4 15.3 5.4 Z M 12.8 5.2 C 12.8 5.2 12.8 5.2 12.8 5.2 C 12.8 5.2 12.8 5.2 12.8 5.2 Z M 6.2 1.2 C 6.3 1.2 6.3 1.2 6.2 1.2 C 6.2 1.2 6.2 1.2 6.2 1.2 Z M 11.0 5.1 C 11.0 5.1 11.0 5.1 11.0 5.1 C 11.0 5.1 11.0 5.1 11.0 5.1 Z M 13.6 4.9 C 13.6 4.9 13.6 4.9 13.6 4.9 C 13.6 4.9 13.6 4.9 13.6 4.9 Z M 11.8 5.6 C 11.0 5.0 12.7 6.1 11.9 5.7 C 11.8 5.7 11.9 5.7 11.8 5.6 M 10.2 5.9 C 10.1 5.8 10.1 5.8 10.2 5.9 M 5.0 7.1 C 5.0 7.0 5.0 7.0 5.0 7.1 M 12.1 10.4 C 12.0 10.4 12.0 10.4 12.1 10.4 M 9.5 6.9 C 10.0 7.6 9.1 6.8 9.5 6.9 M 12.6 11.9 C 12.6 11.3 13.5 12.9 12.6 11.9 M 13.4 12.9 C 13.4 12.9 13.4 12.9 13.4 12.9 M 11.2 9.0 C 11.1 9.0 11.1 9.0 11.2 9.0 C 11.2 9.0 11.2 9.0 11.2 9.0 Z M 9.7 6.8 C 9.8 6.2 11.1 8.1 9.7 6.8 M 12.9 5.7 C 12.8 6.0 12.3 5.0 12.9 5.7 M 13.6 5.4 C 13.6 5.4 13.6 5.4 13.6 5.4 C 13.6 5.4 13.6 5.4 13.6 5.4 Z M 11.9 10.6 C 11.9 10.6 11.9 10.6 11.9 10.6 C 11.9 10.6 11.9 10.6 11.9 10.6 Z M 12.5 11.6 C 12.5 11.6 12.5 11.6 12.5 11.6 C 12.5 11.6 12.5 11.6 12.5 11.6 Z M 7.7 11.8 C 7.7 11.8 7.7 11.8 7.7 11.8 C 7.7 11.8 7.7 11.8 7.7 11.8 Z M 11.6 3.6 C 12.6 3.9 12.0 5.0 11.2 3.9 C 10.7 3.5 11.6 3.7 11.6 3.6 M 7.3 4.9 C 4.9 3.7 10.2 6.2 7.3 4.9 M 12.2 12.7 C 10.3 12.8 13.5 12.3 12.2 12.7 M 13.4 14.1 C 13.1 14.4 11.7 11.5 13.4 13.7 C 13.9 14.0 13.5 14.0 13.4 14.1 M 9.1 5.2 C 7.6 4.3 10.6 5.5 9.1 5.2 M 6.7 7.0 C 7.7 7.8 8.9 9.0 7.3 8.1 C 5.7 7.3 5.8 6.2 6.7 7.0 M 14.8 4.9 C 14.8 6.2 14.6 3.8 14.8 4.9 M 12.1 4.8 C 12.1 4.8 12.1 4.8 12.1 4.8 C 12.1 4.8 12.1 4.8 12.1 4.8 Z M 11.2 5.0 C 11.1 4.9 11.1 4.9 11.2 5.0 M 14.8 6.1 C 14.7 6.0 14.7 6.0 14.8 6.1 M 8.7 7.9 C 8.6 7.9 8.6 7.9 8.7 7.9 M 8.9 6.4 C 7.4 6.4 8.1 5.6 8.9 6.4 M 5.6 2.4 C 4.2 1.8 6.5 2.4 5.6 2.4 M 10.5 8.4 C 9.1 8.3 8.2 6.5 10.5 8.4 M 8.8 6.0 C 8.8 6.0 8.8 6.0 8.8 6.0 C 8.8 6.0 8.8 6.0 8.8 6.0 Z M 6.6 7.2 C 6.6 7.2 6.6 7.2 6.6 7.2 C 6.6 7.2 6.6 7.2 6.6 7.2 Z M 6.9 7.7 C 6.9 7.6 6.9 7.6 6.9 7.7 C 6.9 7.7 6.9 7.7 6.9 7.7 Z M 11.2 9.4 C 11.1 9.3 11.1 9.3 11.2 9.4 C 11.2 9.4 11.2 9.4 11.2 9.4 Z M 11.8 2.0 C 10.6 1.9 12.6 1.8 11.8 2.0 C 11.8 2.0 11.8 2.0 11.8 2.0 Z M 11.1 5.6 C 8.6 4.7 10.8 4.7 11.1 5.6 C 11.1 5.6 11.1 5.6 11.1 5.6 Z M 7.5 4.0 C 7.4 4.0 7.4 4.0 7.5 4.0 C 7.5 4.0 7.5 4.0 7.5 4.0 Z M 11.4 8.6 C 11.3 8.5 11.3 8.5 11.4 8.6 C 11.4 8.6 11.4 8.6 11.4 8.6 Z M 11.1 1.8 C 11.1 1.8 11.1 1.8 11.1 1.8 C 11.1 1.8 11.1 1.8 11.1 1.8 Z M 11.3 11.0 C 11.2 11.0 11.2 11.0 11.3 11.0 C 11.3 11.0 11.3 11.0 11.3 11.0 Z M 5.1 4.7 C 6.0 5.4 4.5 4.5 5.1 4.7 C 5.1 4.7 5.1 4.7 5.1 4.7 Z M 5.8 6.0 C 5.8 6.1 5.8 6.1 5.8 6.0 C 5.8 6.0 5.8 6.0 5.8 6.0 Z M 13.7 13.2 C 13.7 13.2 13.7 13.2 13.7 13.2 C 13.7 13.2 13.7 13.2 13.7 13.2 Z M 6.0 8.9 C 6.0 8.9 6.0 8.9 6.0 8.9 C 6.0 8.9 6.0 8.9 6.0 8.9 Z M 8.6 10.7 C 8.5 10.7 8.5 10.7 8.6 10.7 C 8.6 10.7 8.6 10.7 8.6 10.7 Z M 10.6 9.0 C 11.5 10.2 9.7 8.4 10.6 9.0 C 10.6 9.0 10.6 9.0 10.6 9.0 Z M 10.8 14.0 C 10.7 14.0 10.7 14.0 10.8 14.0 C 10.8 14.0 10.8 14.0 10.8 14.0 Z M 13.2 14.9 C 13.1 14.9 13.1 14.9 13.2 14.9 C 13.2 14.9 13.2 14.9 13.2 14.9 Z M 14.4 15.3 C 14.3 15.3 14.3 15.3 14.4 15.3 C 14.4 15.3 14.4 15.3 14.4 15.3 Z M 9.4 3.2 C 9.5 3.2 9.5 3.2 9.4 3.2 C 9.4 3.2 9.4 3.2 9.4 3.2 Z M 12.5 5.9 C 12.6 5.9 12.6 5.9 12.5 5.9 C 12.5 5.9 12.5 5.9 12.5 5.9 Z M 11.5 6.1 C 11.6 6.1 11.6 6.1 11.5 6.1 C 11.5 6.1 11.5 6.1 11.5 6.1 Z M 8.1 1.5 C 8.2 1.6 8.2 1.6 8.1 1.5 C 8.1 1.5 8.1 1.5 8.1 1.5 Z M 7.6 6.3 C 7.7 6.3 7.7 6.3 7.6 6.3 C 7.6 6.3 7.6 6.3 7.6 6.3 Z M 6.2 6.0 C 6.3 6.0 6.3 6.0 6.2 6.0 C 6.2 6.0 6.2 6.0 6.2 6.0 Z M 3.0 3.2 C 3.1 3.2 3.1 3.2 3.0 3.2 C 3.0 3.2 3.0 3.2 3.0 3.2 Z M 5.0 5.8 C 5.0 5.8 5.0 5.8 5.0 5.8 C 5.0 5.8 5.0 5.8 5.0 5.8 Z M 14.5 2.0 C 14.5 2.0 14.5 2.0 14.5 2.0 C 14.5 2.0 14.5 2.0 14.5 2.0 Z M 15.1 4.1 C 15.1 4.1 15.1 4.1 15.1 4.1 C 15.1 4.1 15.1 4.1 15.1 4.1 Z M 10.1 7.7 C 10.9 8.3 9.4 7.7 10.1 7.7 M 8.5 5.4 C 8.5 5.3 8.5 5.3 8.5 5.4 C 8.5 5.4 8.5 5.4 8.5 5.4 Z M 11.8 11.1 C 10.8 10.9 11.9 10.3 11.8 11.1 C 11.8 11.1 11.8 11.1 11.8 11.1 Z M 6.1 7.9 C 6.1 7.9 6.1 7.9 6.1 7.9 C 6.1 7.9 6.1 7.9 6.1 7.9 Z M 7.0 8.8 C 6.9 8.8 6.9 8.8 7.0 8.8 C 7.0 8.8 7.0 8.8 7.0 8.8 Z M 11.9 13.2 C 11.9 13.3 11.9 13.3 11.9 13.2 M 9.6 5.9 C 9.6 5.9 9.6 5.8 9.6 5.8 C 8.7 5.5 8.8 5.6 9.6 5.8 C 9.6 5.8 9.6 5.9 9.6 5.9 M 12.1 11.7 C 12.0 11.7 12.0 11.7 12.1 11.7 C 12.1 11.7 12.1 11.7 12.1 11.7 Z M 12.9 14.0 C 12.8 14.0 12.8 14.0 12.9 14.0 C 12.9 14.0 12.9 14.0 12.9 14.0 Z M 10.1 5.3 C 8.7 4.3 9.3 4.5 10.1 5.3 M 13.8 5.0 C 13.8 4.9 13.8 4.9 13.8 5.0 C 13.8 5.0 13.8 5.0 13.8 5.0 Z M 13.8 5.0 " fill="#FEFFFE"></path></g></svg>