<?xml version="1.0" encoding="UTF-8" standalone="no"?><svg xmlns="http://www.w3.org/2000/svg" xmlns:xlink="http://www.w3.org/1999/xlink" clip-rule="evenodd" stroke-miterlimit="10" viewBox="0 0 28 30"><desc>SVG generated by Keynote</desc><defs></defs><g transform="matrix(1.00, 0.00, -0.00, -1.00, 0.0, 30.0)"><path d="M 11.9 25.2 C 11.8 25.3 11.1 25.1 11.0 25.3 M 11.9 25.2 C 11.0 24.3 10.0 24.2 8.6 24.0 C 7.2 24.0 8.9 24.9 8.8 25.3 C 6.9 25.6 6.8 25.0 6.9 24.0 C 6.3 24.6 4.1 23.5 4.6 24.7 C 7.7 24.7 2.3 25.0 5.1 25.7 C 5.4 25.9 4.6 26.2 4.3 26.2 C 5.3 26.7 3.7 27.3 5.2 27.7 C 5.5 28.5 5.2 28.1 6.3 28.8 C 6.8 28.8 6.5 28.6 6.5 28.4 C 6.5 27.5 7.8 28.9 8.6 28.3 C 9.7 29.5 10.1 28.1 9.3 27.6 C 10.1 27.8 11.4 29.0 11.9 28.1 C 12.5 28.7 14.5 28.3 12.9 27.6 C 11.8 27.1 12.6 26.8 12.7 26.5 C 12.3 26.2 11.2 26.6 11.0 26.4 C 11.3 26.2 12.5 25.7 11.0 25.8 C 11.4 25.4 10.5 25.1 11.9 25.2 C 11.9 25.2 11.9 25.2 11.9 25.2 Z M 6.5 24.5 C 6.4 24.2 7.0 24.5 6.5 24.5 C 6.5 24.5 6.5 24.5 6.5 24.5 Z M 11.4 28.7 C 11.3 28.4 12.0 28.8 11.4 28.7 C 11.4 28.7 11.4 28.7 11.4 28.7 Z M 6.8 28.4 C 6.7 28.1 7.4 28.4 6.8 28.4 C 6.8 28.4 6.8 28.4 6.8 28.4 Z M 7.9 24.7 C 8.8 25.0 7.3 25.2 7.1 24.9 C 7.3 24.9 7.6 24.4 7.9 24.7 C 7.9 24.7 7.9 24.7 7.9 24.7 Z M 8.4 26.5 C 8.5 26.4 8.8 26.4 8.8 26.7 C 8.6 26.8 8.4 26.7 8.4 26.5 C 8.4 26.5 8.4 26.5 8.4 26.5 Z M 4.0 25.2 C 4.0 25.1 4.4 25.1 4.3 25.4 C 4.1 25.5 3.9 25.4 4.0 25.2 C 4.0 25.2 4.0 25.2 4.0 25.2 Z M 9.0 25.5 C 9.3 25.6 9.4 25.9 9.2 25.9 C 9.0 25.8 8.4 25.7 9.0 25.5 C 9.0 25.5 9.0 25.5 9.0 25.5 Z M 10.0 24.5 C 10.7 24.7 9.5 25.1 9.5 25.0 C 9.2 24.7 9.6 24.2 10.0 24.5 C 10.0 24.5 10.0 24.5 10.0 24.5 Z M 9.6 26.0 C 10.2 26.1 9.4 26.2 9.6 26.0 C 9.6 26.0 9.6 26.0 9.6 26.0 Z M 4.6 27.6 C 5.3 27.7 4.4 27.8 4.6 27.6 C 4.6 27.6 4.6 27.6 4.6 27.6 Z M 8.3 28.6 C 9.0 28.7 8.0 28.8 8.3 28.6 C 8.3 28.6 8.3 28.6 8.3 28.6 Z M 6.5 25.3 C 5.4 25.3 6.2 24.5 6.5 25.3 C 6.5 25.3 6.5 25.3 6.5 25.3 Z M 11.5 24.4 C 10.6 24.4 11.1 23.6 11.5 24.4 C 11.5 24.4 11.5 24.4 11.5 24.4 Z M 5.5 25.1 C 5.6 26.0 6.7 22.7 5.4 23.8 C 4.4 24.1 4.5 21.6 5.4 22.4 C 5.6 21.7 5.6 21.7 5.1 21.2 C 5.9 21.3 6.3 19.8 5.9 19.1 C 5.2 18.5 5.8 20.1 5.1 19.0 C 4.9 16.8 4.4 18.9 3.5 17.7 C 3.5 17.6 4.0 17.7 3.7 17.4 C 2.9 17.0 2.4 18.2 1.8 17.3 C 1.9 17.7 1.1 19.3 1.7 18.7 C 2.5 18.7 0.8 20.4 2.1 20.6 C 1.5 21.0 2.3 21.8 1.6 22.2 C 1.5 22.7 2.1 22.8 2.3 22.7 C 2.8 22.8 1.0 23.1 2.0 23.9 C 1.7 23.9 1.8 25.9 2.3 24.5 C 2.2 24.9 1.9 27.1 3.0 26.0 C 3.5 24.5 4.1 27.5 4.2 25.8 C 4.3 24.5 4.1 24.2 4.7 25.2 C 4.6 25.5 4.7 27.0 5.2 25.8 C 5.1 25.5 5.2 24.9 5.5 25.1 C 5.5 25.1 5.5 25.1 5.5 25.1 Z M 3.8 25.3 C 3.8 24.5 4.3 25.2 3.8 25.3 C 3.8 25.3 3.8 25.3 3.8 25.3 Z M 1.3 22.1 C 1.3 21.2 1.8 22.1 1.3 22.1 C 1.3 22.1 1.3 22.1 1.3 22.1 Z M 5.7 23.0 C 5.4 22.5 6.6 22.7 5.7 23.0 C 5.7 23.0 5.7 23.0 5.7 23.0 Z M 2.3 23.6 C 2.3 23.5 2.4 23.8 2.5 23.9 C 2.4 23.9 2.3 23.7 2.3 23.6 C 2.3 23.6 2.3 23.6 2.3 23.6 Z M 5.7 21.8 C 5.2 20.6 6.6 21.8 5.7 21.8 C 5.7 21.8 5.7 21.8 5.7 21.8 Z M 4.7 19.3 C 3.5 18.8 4.9 18.3 4.7 19.3 C 4.7 19.3 4.7 19.3 4.7 19.3 Z M 2.1 20.2 C 2.4 20.5 2.0 20.4 2.1 20.2 C 2.1 20.2 2.1 20.2 2.1 20.2 Z M 2.0 25.5 C 2.2 25.7 1.8 25.7 2.0 25.5 C 2.0 25.5 2.0 25.5 2.0 25.5 Z M 2.3 18.7 C 2.7 18.9 2.0 19.1 2.3 18.7 C 2.3 18.7 2.3 18.7 2.3 18.7 Z M 5.3 22.7 C 6.2 23.8 4.0 23.7 5.3 22.7 C 5.3 22.7 5.3 22.7 5.3 22.7 Z M 5.4 24.4 C 5.6 25.1 4.8 24.2 4.9 24.0 C 5.0 24.0 5.3 24.3 5.4 24.4 C 5.4 24.4 5.4 24.4 5.4 24.4 Z M 5.2 21.6 C 5.6 22.4 4.9 22.2 5.2 21.6 C 5.2 21.6 5.2 21.6 5.2 21.6 Z M 5.7 23.4 C 5.6 23.7 5.6 23.1 5.7 23.4 C 5.7 23.4 5.7 23.4 5.7 23.4 Z M 6.1 20.6 C 6.0 20.9 6.0 20.3 6.1 20.6 C 6.1 20.6 6.1 20.6 6.1 20.6 Z M 5.8 25.3 C 5.7 25.6 5.7 25.0 5.8 25.3 C 5.8 25.3 5.8 25.3 5.8 25.3 Z M 5.5 20.7 C 5.1 20.5 4.2 21.2 5.0 19.7 C 5.3 19.5 5.9 20.4 5.5 20.7 C 5.5 20.7 5.5 20.7 5.5 20.7 Z M 15.0 25.2 C 10.2 23.9 12.1 26.2 12.0 26.6 C 11.6 27.2 12.4 27.6 13.6 28.0 C 15.3 29.4 14.4 26.5 15.9 28.0 C 18.4 29.9 16.4 26.3 18.2 28.3 C 18.3 28.8 20.0 28.4 19.7 28.3 C 21.5 29.2 21.5 27.5 21.4 27.4 C 22.2 27.6 23.8 29.4 24.7 28.1 C 25.0 27.9 25.4 28.0 25.7 28.1 C 26.0 27.4 26.7 27.8 25.8 27.3 C 27.2 27.2 25.4 26.1 25.9 25.3 C 26.6 24.9 24.7 24.4 26.2 23.9 C 25.0 22.5 26.9 25.2 26.1 20.4 C 26.0 22.3 25.2 18.2 26.0 19.2 C 26.8 20.9 25.7 17.1 26.1 15.3 C 25.7 14.8 24.7 12.8 25.8 12.9 C 27.1 10.5 25.0 11.2 26.1 10.0 C 26.6 9.1 25.6 9.3 25.7 8.9 C 26.5 7.7 25.9 7.4 26.2 4.8 C 26.3 3.3 26.2 2.6 26.0 2.5 C 25.2 2.8 25.0 3.2 24.8 3.7 C 24.6 4.0 24.4 4.4 23.9 4.5 C 23.8 4.6 23.6 4.6 23.5 4.7 C 23.3 4.8 23.1 5.1 23.0 5.4 C 22.2 6.7 21.3 8.3 22.8 6.5 C 22.2 7.3 24.3 9.2 22.1 8.9 C 23.0 9.6 21.2 9.4 22.2 10.9 C 23.8 6.4 22.8 14.6 22.1 11.6 C 21.6 12.2 21.7 13.4 22.1 12.4 C 23.5 11.6 21.4 14.7 23.2 13.1 C 22.7 15.3 24.2 14.7 23.2 15.3 C 21.3 15.8 23.6 15.2 23.1 16.4 C 23.1 18.9 21.0 16.6 22.4 18.3 C 21.4 20.1 23.2 19.1 23.4 20.1 C 24.7 20.9 22.4 22.0 22.3 20.1 C 22.9 21.5 21.6 20.0 22.5 21.5 C 23.6 21.4 21.2 21.9 22.1 22.3 C 22.4 23.5 23.1 23.6 23.2 23.9 C 23.2 25.5 22.0 23.9 22.9 25.1 C 23.0 25.2 23.0 25.2 23.0 25.3 C 22.6 25.3 21.0 24.2 21.1 24.5 C 22.8 24.6 20.9 25.8 20.2 25.1 C 21.1 25.1 18.4 23.6 18.5 24.5 C 21.5 27.1 16.7 23.9 16.6 24.8 C 18.3 26.2 13.2 24.9 14.4 24.3 C 14.4 24.4 15.0 25.2 15.0 25.2 M 20.8 24.7 C 22.3 24.9 19.7 25.0 20.8 24.7 M 20.4 24.4 C 21.5 24.8 18.9 24.0 20.4 24.2 C 20.4 24.2 20.3 24.3 20.4 24.4 M 22.0 21.0 C 22.4 21.4 21.8 21.5 22.0 21.0 M 22.9 20.5 C 23.3 19.8 23.0 21.7 22.9 20.5 M 22.6 9.1 C 24.7 9.0 21.4 10.9 22.6 9.1 M 22.2 16.5 C 22.5 17.9 21.3 16.0 22.2 16.5 M 22.7 17.0 C 23.1 17.7 22.2 17.0 22.7 17.0 M 22.6 11.2 C 22.6 11.1 22.6 11.1 22.6 11.2 C 22.6 11.2 22.6 11.2 22.6 11.2 Z M 22.7 7.8 C 22.6 7.8 22.6 7.8 22.7 7.8 C 22.7 7.8 22.7 7.8 22.7 7.8 Z M 22.8 14.4 C 22.3 15.5 22.6 12.8 22.8 14.4 C 22.8 14.4 22.8 14.4 22.8 14.4 Z M 25.9 7.4 C 25.9 7.5 25.9 7.5 25.9 7.4 C 25.9 7.4 25.9 7.4 25.9 7.4 Z M 20.6 25.7 C 20.6 25.7 20.6 25.7 20.6 25.7 C 20.6 25.7 20.6 25.7 20.6 25.7 Z M 15.9 24.9 C 16.1 25.2 15.0 24.7 15.9 24.9 C 15.9 24.9 15.9 24.9 15.9 24.9 Z M 13.7 27.4 C 13.6 27.4 13.6 27.4 13.7 27.4 C 13.7 27.4 13.7 27.4 13.7 27.4 Z M 20.1 26.8 C 20.1 26.9 20.1 26.9 20.1 26.8 C 20.1 26.8 20.1 26.8 20.1 26.8 Z M 19.4 25.3 C 17.8 24.1 21.3 25.6 19.4 25.3 C 19.4 25.3 19.4 25.3 19.4 25.3 Z M 25.8 15.9 C 25.3 15.8 26.0 14.7 25.8 15.9 C 25.8 15.9 25.8 15.9 25.8 15.9 Z M 23.4 20.6 C 23.1 20.3 23.5 20.1 23.4 20.6 C 23.4 20.6 23.4 20.6 23.4 20.6 Z M 21.8 21.7 C 21.5 21.4 21.9 21.3 21.8 21.7 C 21.8 21.7 21.8 21.7 21.8 21.7 Z M 15.7 24.6 C 15.8 24.5 15.8 24.5 15.7 24.6 C 15.7 24.6 15.7 24.6 15.7 24.6 Z M 17.8 25.5 C 16.0 24.4 19.9 26.1 17.8 25.5 C 17.8 25.5 17.8 25.5 17.8 25.5 Z M 16.2 25.8 C 17.1 26.2 14.7 25.6 16.2 25.8 M 18.4 27.5 C 19.5 27.0 18.4 29.5 18.4 27.5 C 18.4 27.5 18.4 27.5 18.4 27.5 Z M 25.6 27.5 C 25.7 27.5 25.7 27.5 25.6 27.5 C 25.6 27.5 25.6 27.5 25.6 27.5 Z M 22.1 24.7 C 22.2 24.7 22.4 24.7 22.4 24.7 C 22.4 24.7 22.5 24.7 22.5 24.8 C 22.3 24.8 21.8 24.9 22.1 24.7 C 22.1 24.7 22.1 24.7 22.1 24.7 Z M 12.6 24.5 C 13.7 24.5 12.0 24.7 12.6 24.5 C 12.6 24.5 12.6 24.5 12.6 24.5 Z M 24.5 22.4 C 24.4 20.3 25.1 24.0 24.5 22.4 C 24.5 22.4 24.5 22.4 24.5 22.4 Z M 23.3 15.0 C 23.3 15.0 23.3 15.0 23.3 15.0 C 23.3 15.0 23.3 15.0 23.3 15.0 Z M 22.8 13.9 C 22.8 13.8 22.8 13.8 22.8 13.9 C 22.8 13.9 22.8 13.9 22.8 13.9 Z M 23.9 8.3 C 24.0 8.2 24.0 8.2 23.9 8.3 C 23.9 8.3 23.9 8.3 23.9 8.3 Z M 22.3 13.0 C 22.3 12.9 22.3 12.9 22.3 13.0 C 22.3 13.0 22.3 13.0 22.3 13.0 Z M 22.6 9.6 C 22.6 9.5 22.6 9.5 22.6 9.6 C 22.6 9.6 22.6 9.6 22.6 9.6 Z M 21.6 10.6 C 21.6 10.5 21.6 10.5 21.6 10.6 C 21.6 10.6 21.6 10.6 21.6 10.6 Z M 26.4 18.1 C 26.5 18.1 26.5 18.1 26.4 18.1 C 26.4 18.1 26.4 18.1 26.4 18.1 Z M 17.3 24.2 C 17.5 24.3 17.5 24.3 17.3 24.2 C 17.3 24.2 17.3 24.2 17.3 24.2 Z M 23.0 9.6 C 23.0 9.6 23.0 9.6 23.0 9.6 C 23.0 9.6 23.0 9.6 23.0 9.6 Z M 23.9 18.2 C 24.8 18.4 22.6 18.6 23.8 18.0 C 23.9 18.0 23.7 18.2 23.9 18.2 M 25.4 17.2 C 25.5 17.3 25.5 17.3 25.4 17.2 C 25.4 17.2 25.4 17.2 25.4 17.2 Z M 26.0 22.2 C 26.0 22.3 26.0 22.3 26.0 22.2 C 26.0 22.2 26.0 22.2 26.0 22.2 Z M 22.1 13.6 C 21.6 13.8 22.5 12.6 22.1 13.7 M 25.6 7.2 C 25.1 7.7 26.0 5.7 25.6 7.3 M 11.5 24.8 C 11.5 25.2 10.7 24.6 11.5 24.8 M 26.5 23.6 C 26.9 24.1 26.3 24.5 26.5 23.6 M 25.3 20.7 C 24.8 20.7 25.7 19.7 25.3 20.9 M 25.5 10.5 C 25.6 10.4 25.6 10.4 25.5 10.5 C 25.5 10.5 25.5 10.5 25.5 10.5 Z M 22.5 23.6 C 22.5 23.5 22.5 23.5 22.5 23.6 C 22.5 23.6 22.5 23.6 22.5 23.6 Z M 23.6 19.6 C 22.9 19.9 24.1 18.9 23.6 19.6 M 23.7 26.1 C 23.0 25.7 23.1 25.7 23.4 25.8 C 24.0 25.9 24.8 26.2 23.8 26.1 C 23.7 26.1 23.7 26.1 23.7 26.1 M 25.8 4.5 C 24.7 6.6 26.4 3.0 25.8 4.5 M 23.1 12.0 C 22.0 13.2 23.7 10.9 23.1 12.0 M 23.0 23.0 C 22.4 22.7 23.3 22.2 23.0 23.0 M 13.9 24.7 C 12.9 24.6 15.0 24.3 13.9 24.7 M 25.6 13.6 C 25.6 13.5 25.6 13.5 25.6 13.6 C 25.6 13.6 25.6 13.6 25.6 13.6 Z M 20.1 28.8 C 20.2 28.9 20.2 28.9 20.1 28.8 C 20.1 28.8 20.1 28.8 20.1 28.8 Z M 22.3 6.3 C 22.3 6.2 22.3 6.2 22.3 6.3 C 22.3 6.3 22.3 6.3 22.3 6.3 Z M 23.6 12.4 C 23.7 12.4 23.7 12.4 23.6 12.4 C 23.6 12.4 23.6 12.4 23.6 12.4 Z M 22.1 8.2 C 22.2 8.1 22.2 8.1 22.1 8.2 C 22.1 8.2 22.1 8.2 22.1 8.2 Z M 24.4 15.9 C 24.5 15.9 24.5 15.9 24.4 15.9 C 24.4 15.9 24.4 15.9 24.4 15.9 Z M 21.7 16.3 C 21.7 16.3 21.7 16.3 21.7 16.3 C 21.7 16.3 21.7 16.3 21.7 16.3 Z M 22.9 19.9 C 22.9 19.9 22.9 19.9 22.9 19.9 C 22.9 19.9 22.9 19.9 22.9 19.9 Z M 21.9 14.9 C 21.7 13.1 22.8 15.9 21.9 14.9 C 21.9 14.9 21.9 14.9 21.9 14.9 Z M 24.6 19.0 C 24.7 19.0 24.7 19.0 24.6 19.0 C 24.6 19.0 24.6 19.0 24.6 19.0 Z M 22.7 18.7 C 21.9 17.2 24.0 18.4 22.7 18.7 M 22.1 23.7 C 21.6 23.0 22.7 24.1 22.1 23.7 M 23.7 28.0 C 23.8 28.0 23.8 28.0 23.7 28.0 C 23.7 28.0 23.7 28.0 23.7 28.0 Z M 24.2 27.7 C 24.3 27.7 24.3 27.7 24.2 27.7 C 24.2 27.7 24.2 27.7 24.2 27.7 Z M 21.2 24.2 C 21.2 24.2 21.2 24.2 21.2 24.2 C 21.2 24.2 21.2 24.2 21.2 24.2 Z M 25.3 28.7 C 25.4 28.8 25.4 28.8 25.3 28.7 C 25.3 28.7 25.3 28.7 25.3 28.7 Z M 21.8 17.0 C 21.8 17.0 21.8 17.0 21.8 17.0 C 21.8 17.0 21.8 17.0 21.8 17.0 Z M 21.7 7.7 C 21.7 7.6 21.7 7.6 21.7 7.7 C 21.7 7.7 21.7 7.7 21.7 7.7 Z M 15.8 27.6 C 15.9 27.6 15.9 27.6 15.8 27.6 C 15.8 27.6 15.8 27.6 15.8 27.6 Z M 22.8 16.1 C 22.9 16.1 22.9 16.1 22.8 16.1 C 22.8 16.1 22.8 16.1 22.8 16.1 Z M 21.8 27.8 C 21.8 27.9 21.8 27.9 21.8 27.8 C 21.8 27.8 21.8 27.8 21.8 27.8 Z M 22.6 16.8 C 22.6 16.8 22.6 16.8 22.6 16.8 C 22.6 16.8 22.6 16.8 22.6 16.8 Z M 25.8 14.0 C 25.8 14.0 25.8 14.0 25.8 14.0 C 25.8 14.0 25.8 14.0 25.8 14.0 Z M 26.4 10.8 C 26.4 10.8 26.4 10.8 26.4 10.8 C 26.4 10.8 26.4 10.8 26.4 10.8 Z M 23.9 14.4 C 23.9 14.3 23.9 14.3 23.9 14.4 C 23.9 14.4 23.9 14.4 23.9 14.4 Z M 19.9 26.6 C 14.7 25.7 23.3 26.2 19.9 26.6 M 24.1 13.6 C 23.9 16.8 23.0 11.4 24.1 13.6 C 23.8 13.3 24.1 13.5 24.1 13.6 M 21.0 6.6 C 21.8 6.2 22.5 5.8 23.0 5.4 C 23.6 5.0 24.0 4.6 24.3 4.2 C 24.4 4.0 24.5 3.8 24.6 3.6 C 24.3 3.1 22.5 5.1 24.0 3.4 C 26.0 3.1 25.5 0.8 23.6 3.0 C 21.2 3.4 24.4 1.6 22.3 2.5 C 19.6 2.7 21.3 2.1 19.2 2.2 C 17.6 3.4 18.2 1.6 17.3 2.8 C 18.8 1.5 15.2 3.1 15.2 2.5 C 17.2 1.8 8.4 2.5 13.1 2.9 C 11.4 3.5 11.5 2.4 10.9 2.3 C 10.2 3.0 7.4 1.7 6.6 2.4 C 6.9 2.6 7.5 2.6 7.8 2.9 C 8.3 3.4 6.4 2.8 6.6 2.8 C 6.1 3.1 3.8 3.8 5.9 2.5 C 5.7 1.9 3.5 2.8 3.1 2.3 C 2.3 2.3 2.0 2.4 1.8 2.5 C 2.1 3.3 2.6 2.9 2.0 3.1 C 1.9 5.0 1.9 6.3 2.1 6.4 C 1.9 7.4 1.3 7.1 1.9 8.7 C 0.6 10.1 4.5 12.0 1.9 11.1 C 2.5 12.2 0.8 11.8 2.4 12.6 C 1.7 11.4 1.2 15.9 2.3 14.4 C 2.7 15.2 0.7 17.3 2.3 17.4 C 3.5 18.9 4.7 19.1 5.8 17.6 C 4.9 17.4 6.7 16.1 5.2 16.7 C 4.6 18.2 4.6 13.2 5.2 14.6 C 7.0 15.9 4.0 11.4 5.3 11.3 C 4.6 11.7 4.2 7.3 5.6 9.6 C 5.7 9.0 5.1 8.3 5.9 8.2 C 5.8 10.4 4.4 5.9 5.3 6.9 C 5.5 7.3 5.7 7.0 5.8 6.4 C 6.7 6.6 7.5 6.5 7.0 6.0 C 4.0 4.1 8.1 6.4 8.1 5.7 C 9.7 5.3 8.9 7.3 9.3 5.9 C 9.7 6.2 12.0 6.2 10.7 6.6 C 10.1 6.4 11.5 4.4 12.1 6.1 C 10.2 7.0 14.9 6.6 14.1 6.1 C 10.0 5.2 18.6 5.1 15.2 6.0 C 16.6 6.9 14.7 6.3 16.8 5.9 C 16.7 5.4 18.7 4.9 17.8 6.0 C 17.3 7.5 19.4 3.9 19.6 6.0 C 19.2 6.9 22.8 5.3 20.9 6.4 C 20.8 6.5 21.0 6.6 21.0 6.6 M 20.5 6.5 C 21.0 6.1 20.5 6.9 20.5 6.5 M 21.1 6.1 C 21.1 6.1 21.1 6.1 21.1 6.1 C 21.1 6.1 21.1 6.1 21.1 6.1 Z M 17.1 5.9 C 17.1 5.9 17.1 5.9 17.1 5.9 C 17.1 5.9 17.1 5.9 17.1 5.9 Z M 13.9 1.9 C 13.9 2.0 13.9 2.0 13.9 1.9 C 13.9 1.9 13.9 1.9 13.9 1.9 Z M 14.4 5.8 C 14.4 5.8 14.4 5.8 14.4 5.8 C 14.4 5.8 14.4 5.8 14.4 5.8 Z M 18.7 5.6 C 18.8 5.6 18.8 5.6 18.7 5.6 C 18.7 5.6 18.7 5.6 18.7 5.6 Z M 14.6 6.4 C 14.4 5.8 15.4 6.8 14.6 6.5 C 14.5 6.4 14.7 6.4 14.6 6.4 M 11.3 6.6 C 11.3 6.5 11.3 6.5 11.3 6.6 M 1.3 4.7 C 1.3 4.6 1.3 4.6 1.3 4.7 M 6.0 9.5 C 6.0 9.6 6.0 9.6 6.0 9.5 M 7.6 6.0 C 6.6 6.1 7.1 5.7 7.6 6.0 M 5.7 12.3 C 6.1 11.2 6.0 14.1 5.7 12.3 M 6.0 14.0 C 6.0 14.1 6.0 14.1 6.0 14.0 M 5.8 7.2 C 5.8 7.2 5.8 7.2 5.8 7.2 C 5.8 7.2 5.8 7.2 5.8 7.2 Z M 8.2 6.2 C 9.8 6.6 7.3 6.8 8.2 6.2 M 16.5 6.4 C 15.7 6.7 16.7 5.7 16.5 6.4 M 18.2 6.1 C 18.2 6.1 18.2 6.1 18.2 6.1 C 18.2 6.1 18.2 6.1 18.2 6.1 Z M 5.7 10.0 C 5.7 9.9 5.7 9.9 5.7 10.0 C 5.7 10.0 5.7 10.0 5.7 10.0 Z M 5.8 11.8 C 5.8 11.7 5.8 11.7 5.8 11.8 C 5.8 11.8 5.8 11.8 5.8 11.8 Z M 1.5 12.0 C 1.5 11.9 1.5 11.9 1.5 12.0 C 1.5 12.0 1.5 12.0 1.5 12.0 Z M 17.7 4.3 C 18.8 4.6 16.0 5.7 16.5 4.7 C 16.5 4.2 17.5 4.4 17.7 4.3 M 8.5 4.9 C 7.3 3.4 10.5 6.9 8.5 4.9 M 5.1 13.6 C 3.3 13.8 6.3 13.0 5.1 13.6 M 5.4 16.1 C 5.0 16.7 5.2 11.6 5.6 15.5 C 5.9 15.9 5.6 16.0 5.4 16.1 M 11.0 5.9 C 10.4 5.1 12.8 6.2 11.0 5.9 M 2.8 4.5 C 3.3 5.6 3.8 7.6 2.9 6.1 C 1.8 5.1 2.4 3.2 2.8 4.5 M 20.8 5.6 C 19.0 6.9 21.7 4.5 20.8 5.6 M 16.6 5.5 C 16.5 5.6 16.5 5.6 16.6 5.5 C 16.6 5.5 16.6 5.5 16.6 5.5 Z M 14.8 5.7 C 14.8 5.6 14.8 5.6 14.8 5.7 M 19.3 6.8 C 19.3 6.7 19.3 6.7 19.3 6.8 M 4.2 5.7 C 4.1 5.7 4.1 5.7 4.2 5.7 M 7.7 5.7 C 4.9 4.4 8.4 5.4 7.7 5.7 M 11.1 3.2 C 10.2 2.5 12.4 3.1 11.1 3.2 M 5.5 6.2 C 5.0 6.3 4.7 5.6 4.6 5.3 C 4.6 4.8 4.9 4.6 5.5 6.1 C 5.5 6.1 5.5 6.2 5.5 6.2 M 8.6 5.8 C 8.5 5.8 8.5 5.8 8.6 5.8 C 8.6 5.8 8.6 5.8 8.6 5.8 Z M 2.7 4.8 C 2.7 4.8 2.7 4.8 2.7 4.8 C 2.7 4.8 2.7 4.8 2.7 4.8 Z M 2.7 5.5 C 2.7 5.4 2.7 5.4 2.7 5.5 C 2.7 5.5 2.7 5.5 2.7 5.5 Z M 5.7 7.9 C 5.6 7.8 5.6 7.8 5.7 7.9 C 5.7 7.9 5.7 7.9 5.7 7.9 Z M 20.0 2.7 C 18.5 2.6 21.3 2.5 20.0 2.7 C 20.0 2.7 20.0 2.7 20.0 2.7 Z M 13.4 6.3 C 11.3 5.4 14.7 5.4 13.4 6.3 C 13.4 6.3 13.4 6.3 13.4 6.3 Z M 10.9 4.7 C 10.8 4.7 10.8 4.7 10.9 4.7 C 10.9 4.7 10.9 4.7 10.9 4.7 Z M 6.9 6.9 C 6.8 6.8 6.8 6.8 6.9 6.9 C 6.9 6.9 6.9 6.9 6.9 6.9 Z M 19.3 2.6 C 19.3 2.5 19.3 2.5 19.3 2.6 C 19.3 2.6 19.3 2.6 19.3 2.6 Z M 5.0 10.8 C 4.9 10.8 4.9 10.8 5.0 10.8 C 5.0 10.8 5.0 10.8 5.0 10.8 Z M 4.9 3.1 C 4.7 3.6 4.5 2.7 4.9 3.1 C 4.9 3.1 4.9 3.1 4.9 3.1 Z M 2.6 3.1 C 2.6 3.1 2.6 3.1 2.6 3.1 C 2.6 3.1 2.6 3.1 2.6 3.1 Z M 6.1 14.5 C 6.1 14.5 6.1 14.5 6.1 14.5 C 6.1 14.5 6.1 14.5 6.1 14.5 Z M 1.3 7.4 C 1.3 7.5 1.3 7.5 1.3 7.4 C 1.3 7.4 1.3 7.4 1.3 7.4 Z M 2.8 10.3 C 2.7 10.2 2.7 10.2 2.8 10.3 C 2.8 10.3 2.8 10.3 2.8 10.3 Z M 5.4 7.3 C 5.6 9.3 4.8 6.3 5.4 7.3 C 5.4 7.3 5.4 7.3 5.4 7.3 Z M 3.2 15.6 C 3.1 15.7 3.1 15.7 3.2 15.6 C 3.2 15.6 3.2 15.6 3.2 15.6 Z M 4.8 17.4 C 4.8 17.4 4.8 17.4 4.8 17.4 C 4.8 17.4 4.8 17.4 4.8 17.4 Z M 5.7 18.2 C 5.7 18.3 5.7 18.3 5.7 18.2 C 5.7 18.2 5.7 18.2 5.7 18.2 Z M 15.0 3.9 C 15.1 4.0 15.1 4.0 15.0 3.9 C 15.0 3.9 15.0 3.9 15.0 3.9 Z M 15.4 6.6 C 15.4 6.7 15.4 6.7 15.4 6.6 C 15.4 6.6 15.4 6.6 15.4 6.6 Z M 13.3 6.8 C 13.3 6.8 13.3 6.8 13.3 6.8 C 13.3 6.8 13.3 6.8 13.3 6.8 Z M 15.8 2.3 C 15.8 2.3 15.8 2.3 15.8 2.3 C 15.8 2.3 15.8 2.3 15.8 2.3 Z M 5.5 4.6 C 5.6 4.6 5.6 4.6 5.5 4.6 C 5.5 4.6 5.5 4.6 5.5 4.6 Z M 3.6 3.5 C 3.7 3.5 3.7 3.5 3.6 3.5 C 3.6 3.5 3.6 3.5 3.6 3.5 Z M 5.1 2.0 C 5.1 2.0 5.1 2.0 5.1 2.0 C 5.1 2.0 5.1 2.0 5.1 2.0 Z M 1.9 2.6 C 1.9 2.6 1.9 2.6 1.9 2.6 C 1.9 2.6 1.9 2.6 1.9 2.6 Z M 23.6 2.8 C 23.6 2.7 23.6 2.7 23.6 2.8 C 23.6 2.8 23.6 2.8 23.6 2.8 Z M 22.1 4.9 C 22.2 4.8 22.2 4.8 22.1 4.9 C 22.1 4.9 22.1 4.9 22.1 4.9 Z M 6.6 6.1 C 6.6 6.5 5.2 5.5 6.6 6.1 M 9.6 5.8 C 9.6 5.8 9.6 5.8 9.6 5.8 C 9.6 5.8 9.6 5.8 9.6 5.8 Z M 5.4 10.8 C 4.6 10.7 5.8 9.5 5.4 10.8 C 5.4 10.8 5.4 10.8 5.4 10.8 Z M 1.9 6.0 C 1.9 6.0 1.9 6.0 1.9 6.0 C 1.9 6.0 1.9 6.0 1.9 6.0 Z M 2.3 7.3 C 2.2 7.3 2.2 7.3 2.3 7.3 C 2.3 7.3 2.3 7.3 2.3 7.3 Z M 4.5 14.6 C 4.5 14.6 4.5 14.6 4.5 14.6 M 10.4 6.6 C 9.7 6.2 9.9 6.3 10.4 6.6 M 5.4 12.0 C 5.4 12.0 5.4 12.0 5.4 12.0 C 5.4 12.0 5.4 12.0 5.4 12.0 Z M 5.0 16.0 C 5.0 15.9 5.0 15.9 5.0 16.0 C 5.0 16.0 5.0 16.0 5.0 16.0 Z M 12.4 6.0 C 12.2 5.0 12.7 5.2 12.4 6.0 M 19.0 5.7 C 19.1 5.6 19.1 5.6 19.0 5.7 C 19.0 5.7 19.0 5.7 19.0 5.7 Z M 19.0 5.7 " fill="#FEFFFE"></path></g></svg>