<?xml version="1.0" encoding="UTF-8" standalone="no"?><svg xmlns="http://www.w3.org/2000/svg" xmlns:xlink="http://www.w3.org/1999/xlink" clip-rule="evenodd" stroke-miterlimit="10" viewBox="0 0 28 30"><desc>SVG generated by Keynote</desc><defs></defs><g transform="matrix(1.00, 0.00, -0.00, -1.00, 0.0, 30.0)"><path d="M 12.1 24.6 C 12.0 24.7 11.3 24.5 11.2 24.6 M 12.1 24.6 C 11.2 23.7 10.2 23.6 8.9 23.4 C 7.4 23.4 9.1 24.3 9.1 24.6 C 7.2 25.0 7.1 24.4 7.1 23.4 C 6.6 24.0 4.4 22.9 4.8 24.1 C 7.9 24.1 2.6 24.4 5.3 25.1 C 5.6 25.3 4.8 25.6 4.5 25.6 C 5.5 26.1 3.9 26.7 5.5 27.1 C 5.7 27.9 5.4 27.5 6.5 28.1 C 7.0 28.2 6.8 28.0 6.7 27.8 C 6.7 26.9 8.0 28.3 8.8 27.7 C 9.9 28.9 10.3 27.5 9.5 27.0 C 10.3 27.1 11.6 28.4 12.1 27.5 C 12.8 28.1 14.7 27.7 13.1 27.0 C 12.1 26.5 12.9 26.1 12.9 25.9 C 12.5 25.6 11.5 26.0 11.2 25.8 C 11.5 25.6 12.8 25.1 11.3 25.2 C 11.6 24.8 10.7 24.5 12.1 24.6 C 12.1 24.6 12.1 24.6 12.1 24.6 Z M 6.7 23.9 C 6.7 23.6 7.2 23.9 6.7 23.9 C 6.7 23.9 6.7 23.9 6.7 23.9 Z M 11.6 28.1 C 11.5 27.8 12.2 28.1 11.6 28.1 C 11.6 28.1 11.6 28.1 11.6 28.1 Z M 7.0 27.8 C 6.9 27.5 7.6 27.8 7.0 27.8 C 7.0 27.8 7.0 27.8 7.0 27.8 Z M 8.1 24.1 C 9.0 24.4 7.5 24.5 7.3 24.2 C 7.5 24.3 7.8 23.8 8.1 24.1 C 8.1 24.1 8.1 24.1 8.1 24.1 Z M 8.6 25.9 C 8.7 25.8 9.0 25.8 9.1 26.1 C 8.9 26.2 8.6 26.0 8.6 25.9 C 8.6 25.9 8.6 25.9 8.6 25.9 Z M 4.2 24.6 C 4.2 24.5 4.6 24.5 4.6 24.8 C 4.3 24.9 4.1 24.7 4.2 24.6 C 4.2 24.6 4.2 24.6 4.2 24.6 Z M 9.3 24.9 C 9.5 25.0 9.6 25.3 9.4 25.3 C 9.2 25.2 8.6 25.1 9.3 24.9 C 9.3 24.9 9.3 24.9 9.3 24.9 Z M 10.2 23.9 C 11.0 24.0 9.7 24.5 9.7 24.4 C 9.4 24.1 9.8 23.6 10.2 23.9 C 10.2 23.9 10.2 23.9 10.2 23.9 Z M 9.8 25.4 C 10.4 25.5 9.6 25.6 9.8 25.4 C 9.8 25.4 9.8 25.4 9.8 25.4 Z M 4.8 27.0 C 5.5 27.1 4.6 27.2 4.8 27.0 C 4.8 27.0 4.8 27.0 4.8 27.0 Z M 8.5 28.0 C 9.2 28.1 8.2 28.2 8.5 28.0 C 8.5 28.0 8.5 28.0 8.5 28.0 Z M 6.7 24.7 C 5.7 24.7 6.4 23.9 6.7 24.7 C 6.7 24.7 6.7 24.7 6.7 24.7 Z M 11.8 23.8 C 10.8 23.8 11.3 23.0 11.8 23.8 C 11.8 23.8 11.8 23.8 11.8 23.8 Z M 5.7 24.5 C 5.9 25.4 6.9 22.1 5.7 23.2 C 4.6 23.5 4.7 21.0 5.7 21.8 C 5.8 21.1 5.8 21.1 5.4 20.6 C 6.1 20.7 6.5 19.2 6.1 18.5 C 5.5 17.9 6.0 19.5 5.3 18.4 C 5.1 16.1 4.6 18.2 3.8 17.1 C 3.8 17.0 4.2 17.1 3.9 16.8 C 3.2 16.4 2.6 17.6 2.0 16.7 C 2.1 17.1 1.3 18.6 2.0 18.1 C 2.7 18.1 1.1 19.8 2.3 20.0 C 1.7 20.4 2.5 21.2 1.8 21.6 C 1.7 22.1 2.3 22.2 2.5 22.1 C 3.1 22.2 1.2 22.5 2.2 23.3 C 1.9 23.3 2.0 25.3 2.5 23.9 C 2.4 24.3 2.1 26.5 3.2 25.4 C 3.7 23.9 4.4 26.9 4.4 25.2 C 4.5 23.9 4.3 23.6 4.9 24.6 C 4.8 24.9 4.9 26.4 5.4 25.1 C 5.3 24.9 5.4 24.3 5.7 24.5 C 5.7 24.5 5.7 24.5 5.7 24.5 Z M 4.1 24.7 C 4.0 23.9 4.5 24.6 4.1 24.7 C 4.1 24.7 4.1 24.7 4.1 24.7 Z M 1.6 21.5 C 1.5 20.6 2.0 21.5 1.6 21.5 C 1.6 21.5 1.6 21.5 1.6 21.5 Z M 6.0 22.3 C 5.6 21.9 6.8 22.1 6.0 22.3 C 6.0 22.3 6.0 22.3 6.0 22.3 Z M 2.5 23.0 C 2.5 22.9 2.6 23.1 2.7 23.3 C 2.6 23.3 2.5 23.1 2.5 23.0 C 2.5 23.0 2.5 23.0 2.5 23.0 Z M 6.0 21.2 C 5.4 20.0 6.9 21.2 6.0 21.2 C 6.0 21.2 6.0 21.2 6.0 21.2 Z M 4.9 18.7 C 3.7 18.2 5.1 17.7 4.9 18.7 C 4.9 18.7 4.9 18.7 4.9 18.7 Z M 2.4 19.6 C 2.6 19.9 2.2 19.8 2.4 19.6 C 2.4 19.6 2.4 19.6 2.4 19.6 Z M 2.2 24.9 C 2.4 25.1 2.1 25.1 2.2 24.9 C 2.2 24.9 2.2 24.9 2.2 24.9 Z M 2.5 18.1 C 2.9 18.3 2.3 18.5 2.5 18.1 C 2.5 18.1 2.5 18.1 2.5 18.1 Z M 5.5 22.1 C 6.4 23.2 4.2 23.1 5.5 22.1 C 5.5 22.1 5.5 22.1 5.5 22.1 Z M 5.6 23.8 C 5.8 24.5 5.0 23.6 5.2 23.3 C 5.3 23.4 5.5 23.7 5.6 23.8 C 5.6 23.8 5.6 23.8 5.6 23.8 Z M 5.4 21.0 C 5.9 21.8 5.2 21.6 5.4 21.0 C 5.4 21.0 5.4 21.0 5.4 21.0 Z M 5.9 22.8 C 5.8 23.1 5.8 22.5 5.9 22.8 C 5.9 22.8 5.9 22.8 5.9 22.8 Z M 6.3 20.0 C 6.2 20.3 6.2 19.7 6.3 20.0 C 6.3 20.0 6.3 20.0 6.3 20.0 Z M 6.1 24.6 C 6.0 25.0 5.9 24.4 6.1 24.6 C 6.1 24.6 6.1 24.6 6.1 24.6 Z M 5.7 20.1 C 5.3 19.9 4.4 20.6 5.2 19.1 C 5.5 18.9 6.1 19.8 5.7 20.1 C 5.7 20.1 5.7 20.1 5.7 20.1 Z M 15.2 24.6 C 10.4 23.3 12.3 25.6 12.2 26.0 C 11.8 26.6 12.6 27.0 13.8 27.4 C 15.5 28.8 14.6 25.9 16.1 27.3 C 18.6 29.2 16.6 25.7 18.4 27.7 C 18.5 28.2 20.2 27.8 20.0 27.7 C 21.7 28.6 21.7 26.9 21.6 26.7 C 22.5 27.0 24.1 28.8 24.9 27.5 C 25.2 27.3 25.6 27.4 26.0 27.4 C 26.2 26.8 26.9 27.2 26.0 26.7 C 27.4 26.6 25.7 25.5 26.1 24.7 C 26.8 24.3 24.9 23.7 26.4 23.3 C 25.3 21.9 27.2 24.6 26.3 19.7 C 26.2 21.7 25.4 17.6 26.2 18.5 C 27.0 20.3 25.9 16.5 26.4 14.7 C 25.9 14.2 24.9 12.2 26.0 12.3 C 27.4 9.9 25.2 10.6 26.3 9.4 C 26.8 8.5 25.8 8.7 25.9 8.2 C 26.7 7.1 26.1 6.8 26.4 4.2 C 26.5 2.7 26.4 2.0 26.2 1.9 C 25.5 2.1 25.3 2.6 25.0 3.1 C 24.8 3.4 24.6 3.8 24.1 3.9 C 24.0 4.0 23.9 4.0 23.7 4.0 C 23.5 4.2 23.4 4.5 23.3 4.8 C 22.5 6.1 21.6 7.7 23.0 5.9 C 22.4 6.7 24.5 8.6 22.3 8.3 C 23.2 9.0 21.4 8.7 22.4 10.3 C 24.0 5.8 23.1 14.0 22.3 11.0 C 21.9 11.6 21.9 12.8 22.3 11.8 C 23.7 11.0 21.7 14.1 23.4 12.5 C 22.9 14.7 24.5 14.1 23.4 14.7 C 21.5 15.2 23.9 14.6 23.3 15.7 C 23.3 18.3 21.2 16.0 22.6 17.7 C 21.7 19.5 23.4 18.5 23.6 19.5 C 24.9 20.3 22.6 21.4 22.5 19.5 C 23.2 20.9 21.9 19.4 22.7 20.9 C 23.9 20.8 21.4 21.3 22.4 21.7 C 22.7 22.9 23.4 23.0 23.4 23.3 C 23.4 24.9 22.2 23.3 23.1 24.4 C 23.2 24.6 23.2 24.6 23.2 24.7 C 22.8 24.7 21.2 23.6 21.3 23.9 C 23.0 24.0 21.1 25.2 20.4 24.5 C 21.3 24.5 18.6 23.0 18.7 23.9 C 21.7 26.5 16.9 23.2 16.8 24.2 C 18.5 25.6 13.4 24.3 14.6 23.7 C 14.6 23.8 15.2 24.6 15.2 24.6 M 21.1 24.1 C 22.5 24.3 19.9 24.4 21.1 24.1 M 20.7 23.8 C 21.7 24.2 19.1 23.4 20.6 23.6 C 20.6 23.6 20.5 23.7 20.7 23.8 M 22.2 20.4 C 22.6 20.8 22.0 20.9 22.2 20.4 M 23.1 19.9 C 23.5 19.2 23.2 21.1 23.1 19.9 M 22.8 8.5 C 25.0 8.4 21.6 10.3 22.8 8.5 M 22.4 15.9 C 22.7 17.3 21.5 15.4 22.4 15.9 M 22.9 16.4 C 23.3 17.1 22.4 16.4 22.9 16.4 M 22.8 10.6 C 22.9 10.5 22.9 10.5 22.8 10.6 C 22.8 10.6 22.8 10.6 22.8 10.6 Z M 22.9 7.2 C 22.8 7.2 22.8 7.2 22.9 7.2 C 22.9 7.2 22.9 7.2 22.9 7.2 Z M 23.0 13.8 C 22.5 14.9 22.9 12.2 23.0 13.8 C 23.0 13.8 23.0 13.8 23.0 13.8 Z M 26.1 6.8 C 26.2 6.9 26.2 6.9 26.1 6.8 C 26.1 6.8 26.1 6.8 26.1 6.8 Z M 20.9 25.1 C 20.8 25.1 20.8 25.1 20.9 25.1 C 20.9 25.1 20.9 25.1 20.9 25.1 Z M 16.1 24.3 C 16.3 24.6 15.2 24.1 16.1 24.3 C 16.1 24.3 16.1 24.3 16.1 24.3 Z M 13.9 26.7 C 13.9 26.8 13.9 26.8 13.9 26.7 C 13.9 26.7 13.9 26.7 13.9 26.7 Z M 20.3 26.2 C 20.3 26.3 20.3 26.3 20.3 26.2 C 20.3 26.2 20.3 26.2 20.3 26.2 Z M 19.7 24.7 C 18.1 23.5 21.5 25.0 19.7 24.7 C 19.7 24.7 19.7 24.7 19.7 24.7 Z M 26.0 15.3 C 25.5 15.2 26.2 14.1 26.0 15.3 C 26.0 15.3 26.0 15.3 26.0 15.3 Z M 23.6 20.0 C 23.3 19.7 23.7 19.5 23.6 20.0 C 23.6 20.0 23.6 20.0 23.6 20.0 Z M 22.0 21.1 C 21.7 20.8 22.1 20.7 22.0 21.1 C 22.0 21.1 22.0 21.1 22.0 21.1 Z M 15.9 24.0 C 16.0 23.9 16.0 23.9 15.9 24.0 C 15.9 24.0 15.9 24.0 15.9 24.0 Z M 18.0 24.9 C 16.2 23.8 20.1 25.5 18.0 24.9 C 18.0 24.9 18.0 24.9 18.0 24.9 Z M 16.4 25.2 C 17.3 25.6 14.9 25.0 16.4 25.2 M 18.6 26.9 C 19.7 26.4 18.6 28.9 18.6 26.9 C 18.6 26.9 18.6 26.9 18.6 26.9 Z M 25.8 26.9 C 25.9 26.8 25.9 26.8 25.8 26.9 C 25.8 26.9 25.8 26.9 25.8 26.9 Z M 22.3 24.1 C 22.5 24.1 22.6 24.1 22.6 24.1 C 22.7 24.1 22.7 24.1 22.7 24.2 C 22.6 24.2 22.0 24.3 22.3 24.1 C 22.3 24.1 22.3 24.1 22.3 24.1 Z M 12.8 23.8 C 13.9 23.9 12.2 24.1 12.8 23.8 C 12.8 23.8 12.8 23.8 12.8 23.8 Z M 24.8 21.7 C 24.6 19.7 25.3 23.4 24.8 21.7 C 24.8 21.7 24.8 21.7 24.8 21.7 Z M 23.5 14.4 C 23.5 14.4 23.5 14.4 23.5 14.4 C 23.5 14.4 23.5 14.4 23.5 14.4 Z M 23.0 13.3 C 23.0 13.2 23.0 13.2 23.0 13.3 C 23.0 13.3 23.0 13.3 23.0 13.3 Z M 24.2 7.7 C 24.2 7.6 24.2 7.6 24.2 7.7 C 24.2 7.7 24.2 7.7 24.2 7.7 Z M 22.5 12.4 C 22.5 12.3 22.5 12.3 22.5 12.4 C 22.5 12.4 22.5 12.4 22.5 12.4 Z M 22.8 9.0 C 22.8 8.9 22.8 8.9 22.8 9.0 C 22.8 9.0 22.8 9.0 22.8 9.0 Z M 21.8 10.0 C 21.9 9.9 21.9 9.9 21.8 10.0 C 21.8 10.0 21.8 10.0 21.8 10.0 Z M 26.6 17.5 C 26.7 17.5 26.7 17.5 26.6 17.5 C 26.6 17.5 26.6 17.5 26.6 17.5 Z M 17.6 23.6 C 17.7 23.7 17.7 23.7 17.6 23.6 C 17.6 23.6 17.6 23.6 17.6 23.6 Z M 23.2 9.0 C 23.2 9.0 23.2 9.0 23.2 9.0 C 23.2 9.0 23.2 9.0 23.2 9.0 Z M 24.1 17.6 C 25.0 17.8 22.8 18.0 24.0 17.4 C 24.1 17.4 23.9 17.6 24.1 17.6 M 25.6 16.6 C 25.7 16.7 25.7 16.7 25.6 16.6 C 25.6 16.6 25.6 16.6 25.6 16.6 Z M 26.2 21.6 C 26.3 21.7 26.3 21.7 26.2 21.6 C 26.2 21.6 26.2 21.6 26.2 21.6 Z M 22.3 12.9 C 21.8 13.2 22.7 12.0 22.3 13.1 M 25.8 6.6 C 25.3 7.1 26.2 5.1 25.8 6.7 M 11.7 24.2 C 11.7 24.6 10.9 24.0 11.7 24.2 M 26.7 23.0 C 27.1 23.5 26.5 23.8 26.7 23.0 M 25.5 20.1 C 25.0 20.1 25.9 19.1 25.6 20.3 M 25.8 9.9 C 25.8 9.8 25.8 9.8 25.8 9.9 C 25.8 9.9 25.8 9.9 25.8 9.9 Z M 22.7 23.0 C 22.7 22.9 22.7 22.9 22.7 23.0 C 22.7 23.0 22.7 23.0 22.7 23.0 Z M 23.8 19.0 C 23.1 19.3 24.3 18.3 23.8 19.0 M 23.9 25.5 C 23.2 25.1 23.3 25.1 23.7 25.2 C 24.2 25.3 25.1 25.6 24.0 25.5 C 24.0 25.5 24.0 25.5 23.9 25.5 M 26.0 3.9 C 24.9 6.0 26.6 2.4 26.0 3.9 M 23.3 11.3 C 22.2 12.6 23.9 10.3 23.3 11.3 M 23.2 22.4 C 22.6 22.0 23.5 21.6 23.2 22.4 M 14.1 24.1 C 13.1 24.0 15.2 23.7 14.1 24.1 M 25.8 13.0 C 25.8 12.9 25.8 12.9 25.8 13.0 C 25.8 13.0 25.8 13.0 25.8 13.0 Z M 20.4 28.2 C 20.5 28.3 20.5 28.3 20.4 28.2 C 20.4 28.2 20.4 28.2 20.4 28.2 Z M 22.5 5.7 C 22.5 5.6 22.5 5.6 22.5 5.7 C 22.5 5.7 22.5 5.7 22.5 5.7 Z M 23.8 11.8 C 23.9 11.8 23.9 11.8 23.8 11.8 C 23.8 11.8 23.8 11.8 23.8 11.8 Z M 22.3 7.6 C 22.4 7.5 22.4 7.5 22.3 7.6 C 22.3 7.6 22.3 7.6 22.3 7.6 Z M 24.7 15.3 C 24.7 15.2 24.7 15.2 24.7 15.3 C 24.7 15.3 24.7 15.3 24.7 15.3 Z M 21.9 15.7 C 21.9 15.7 21.9 15.7 21.9 15.7 C 21.9 15.7 21.9 15.7 21.9 15.7 Z M 23.1 19.3 C 23.1 19.3 23.1 19.3 23.1 19.3 C 23.1 19.3 23.1 19.3 23.1 19.3 Z M 22.1 14.3 C 22.0 12.5 23.0 15.3 22.1 14.3 C 22.1 14.3 22.1 14.3 22.1 14.3 Z M 24.9 18.4 C 24.9 18.4 24.9 18.4 24.9 18.4 C 24.9 18.4 24.9 18.4 24.9 18.4 Z M 22.9 18.1 C 22.1 16.6 24.3 17.7 22.9 18.1 M 22.3 23.1 C 21.9 22.4 22.9 23.5 22.3 23.1 M 23.9 27.4 C 24.0 27.4 24.0 27.4 23.9 27.4 C 23.9 27.4 23.9 27.4 23.9 27.4 Z M 24.4 27.1 C 24.5 27.1 24.5 27.1 24.4 27.1 C 24.4 27.1 24.4 27.1 24.4 27.1 Z M 21.4 23.6 C 21.4 23.6 21.4 23.6 21.4 23.6 C 21.4 23.6 21.4 23.6 21.4 23.6 Z M 25.5 28.1 C 25.6 28.2 25.6 28.2 25.5 28.1 C 25.5 28.1 25.5 28.1 25.5 28.1 Z M 22.0 16.4 C 22.0 16.4 22.0 16.4 22.0 16.4 C 22.0 16.4 22.0 16.4 22.0 16.4 Z M 21.9 7.1 C 22.0 7.0 22.0 7.0 21.9 7.1 C 21.9 7.1 21.9 7.1 21.9 7.1 Z M 16.1 27.0 C 16.2 27.0 16.2 27.0 16.1 27.0 C 16.1 27.0 16.1 27.0 16.1 27.0 Z M 23.1 15.5 C 23.1 15.5 23.1 15.5 23.1 15.5 C 23.1 15.5 23.1 15.5 23.1 15.5 Z M 22.0 27.2 C 22.1 27.3 22.1 27.3 22.0 27.2 C 22.0 27.2 22.0 27.2 22.0 27.2 Z M 22.8 16.2 C 22.8 16.2 22.8 16.2 22.8 16.2 C 22.8 16.2 22.8 16.2 22.8 16.2 Z M 26.0 13.4 C 26.0 13.4 26.0 13.4 26.0 13.4 C 26.0 13.4 26.0 13.4 26.0 13.4 Z M 26.7 10.2 C 26.7 10.2 26.7 10.2 26.7 10.2 C 26.7 10.2 26.7 10.2 26.7 10.2 Z M 24.1 13.8 C 24.1 13.7 24.1 13.7 24.1 13.8 C 24.1 13.8 24.1 13.8 24.1 13.8 Z M 20.2 26.0 C 14.9 25.1 23.5 25.6 20.2 26.0 M 24.3 13.0 C 24.1 16.2 23.3 10.8 24.3 13.0 C 24.1 12.7 24.3 12.9 24.3 13.0 M 21.2 6.0 C 22.0 5.6 22.7 5.2 23.2 4.8 C 23.8 4.4 24.2 4.0 24.5 3.6 C 24.6 3.4 24.7 3.2 24.8 3.0 C 24.5 2.5 22.7 4.5 24.3 2.8 C 26.2 2.5 25.7 0.2 23.9 2.4 C 21.4 2.7 24.6 1.0 22.5 1.9 C 19.8 2.1 21.5 1.4 19.4 1.6 C 17.8 2.8 18.4 1.0 17.6 2.2 C 19.0 0.9 15.5 2.5 15.5 1.9 C 17.5 1.2 8.7 1.9 13.4 2.3 C 11.6 2.9 11.8 1.8 11.1 1.7 C 10.5 2.4 7.6 1.1 6.8 1.8 C 7.1 2.0 7.7 2.0 8.0 2.3 C 8.6 2.8 6.7 2.2 6.8 2.2 C 6.3 2.5 4.1 3.2 6.1 1.9 C 5.9 1.3 3.7 2.2 3.3 1.7 C 2.5 1.7 2.2 1.7 2.1 1.8 C 2.4 2.7 2.8 2.3 2.2 2.5 C 2.2 4.4 2.2 5.7 2.3 5.8 C 2.2 6.8 1.5 6.5 2.2 8.1 C 0.8 9.5 4.7 11.4 2.1 10.5 C 2.7 11.6 1.0 11.2 2.6 12.0 C 1.9 10.8 1.4 15.3 2.5 13.8 C 2.9 14.5 0.9 16.7 2.5 16.8 C 3.7 18.3 4.9 18.5 6.0 17.0 C 5.1 16.8 7.0 15.4 5.4 16.1 C 4.9 17.6 4.8 12.6 5.4 14.0 C 7.3 15.3 4.2 10.8 5.6 10.7 C 4.8 11.0 4.4 6.7 5.8 9.0 C 6.0 8.4 5.3 7.7 6.1 7.6 C 6.0 9.8 4.6 5.3 5.5 6.3 C 5.7 6.7 5.9 6.3 6.0 5.8 C 6.9 5.9 7.7 5.9 7.2 5.4 C 4.3 3.5 8.3 5.8 8.3 5.1 C 9.9 4.7 9.2 6.7 9.5 5.3 C 10.0 5.5 12.2 5.6 11.0 5.9 C 10.4 5.8 11.7 3.8 12.4 5.5 C 10.4 6.4 15.1 6.0 14.4 5.5 C 10.2 4.6 18.9 4.4 15.4 5.4 C 16.8 6.3 14.9 5.7 17.0 5.3 C 16.9 4.8 18.9 4.3 18.0 5.3 C 17.6 6.9 19.7 3.2 19.8 5.4 C 19.4 6.3 23.0 4.7 21.2 5.7 C 21.0 5.9 21.2 6.0 21.2 6.0 M 20.7 5.8 C 21.2 5.5 20.7 6.3 20.7 5.8 M 21.3 5.5 C 21.3 5.5 21.3 5.5 21.3 5.5 C 21.3 5.5 21.3 5.5 21.3 5.5 Z M 17.4 5.3 C 17.4 5.3 17.4 5.3 17.4 5.3 C 17.4 5.3 17.4 5.3 17.4 5.3 Z M 14.1 1.3 C 14.1 1.4 14.1 1.4 14.1 1.3 C 14.1 1.3 14.1 1.3 14.1 1.3 Z M 14.6 5.2 C 14.7 5.2 14.7 5.2 14.6 5.2 C 14.6 5.2 14.6 5.2 14.6 5.2 Z M 19.0 5.0 C 19.0 5.0 19.0 5.0 19.0 5.0 C 19.0 5.0 19.0 5.0 19.0 5.0 Z M 14.8 5.8 C 14.7 5.2 15.6 6.2 14.8 5.8 C 14.7 5.8 14.9 5.8 14.8 5.8 M 11.5 6.0 C 11.5 5.9 11.5 5.9 11.5 6.0 M 1.6 4.1 C 1.5 4.0 1.5 4.0 1.6 4.1 M 6.3 8.9 C 6.2 8.9 6.2 8.9 6.3 8.9 M 7.8 5.4 C 6.8 5.5 7.3 5.1 7.8 5.4 M 5.9 11.7 C 6.3 10.5 6.2 13.5 5.9 11.7 M 6.3 13.4 C 6.2 13.5 6.2 13.5 6.3 13.4 M 6.0 6.6 C 6.0 6.5 6.0 6.5 6.0 6.6 C 6.0 6.6 6.0 6.6 6.0 6.6 Z M 8.4 5.6 C 10.0 5.9 7.5 6.2 8.4 5.6 M 16.7 5.8 C 15.9 6.1 16.9 5.1 16.7 5.8 M 18.4 5.5 C 18.4 5.5 18.4 5.5 18.4 5.5 C 18.4 5.5 18.4 5.5 18.4 5.5 Z M 6.0 9.4 C 5.9 9.3 5.9 9.3 6.0 9.4 C 6.0 9.4 6.0 9.4 6.0 9.4 Z M 6.1 11.2 C 6.0 11.1 6.0 11.1 6.1 11.2 C 6.1 11.2 6.1 11.2 6.1 11.2 Z M 1.7 11.4 C 1.7 11.3 1.7 11.3 1.7 11.4 C 1.7 11.4 1.7 11.4 1.7 11.4 Z M 17.9 3.7 C 19.0 4.0 16.2 5.1 16.7 4.1 C 16.7 3.6 17.7 3.8 17.9 3.7 M 8.7 4.3 C 7.5 2.8 10.8 6.3 8.7 4.3 M 5.3 13.0 C 3.5 13.2 6.5 12.4 5.3 13.0 M 5.6 15.5 C 5.2 16.1 5.4 11.0 5.9 14.8 C 6.2 15.3 5.8 15.4 5.6 15.5 M 11.2 5.3 C 10.6 4.4 13.0 5.6 11.2 5.3 M 3.0 3.8 C 3.6 5.0 4.0 7.0 3.1 5.5 C 2.0 4.5 2.6 2.6 3.0 3.8 M 21.0 5.0 C 19.3 6.3 21.9 3.9 21.0 5.0 M 16.8 4.9 C 16.7 5.0 16.7 5.0 16.8 4.9 C 16.8 4.9 16.8 4.9 16.8 4.9 Z M 15.0 5.1 C 15.0 5.0 15.0 5.0 15.0 5.1 M 19.5 6.2 C 19.5 6.1 19.5 6.1 19.5 6.2 M 4.4 5.1 C 4.3 5.1 4.3 5.1 4.4 5.1 M 7.9 5.0 C 5.1 3.7 8.6 4.8 7.9 5.0 M 11.3 2.5 C 10.5 1.9 12.6 2.5 11.3 2.5 M 5.8 5.6 C 5.2 5.6 4.9 5.0 4.9 4.6 C 4.8 4.2 5.1 4.0 5.7 5.5 C 5.7 5.5 5.7 5.6 5.8 5.6 M 8.8 5.2 C 8.7 5.2 8.7 5.2 8.8 5.2 C 8.8 5.2 8.8 5.2 8.8 5.2 Z M 2.9 4.2 C 2.9 4.2 2.9 4.2 2.9 4.2 C 2.9 4.2 2.9 4.2 2.9 4.2 Z M 3.0 4.9 C 2.9 4.8 2.9 4.8 3.0 4.9 C 3.0 4.9 3.0 4.9 3.0 4.9 Z M 5.9 7.3 C 5.9 7.2 5.9 7.2 5.9 7.3 C 5.9 7.3 5.9 7.3 5.9 7.3 Z M 20.2 2.1 C 18.7 2.0 21.6 1.9 20.2 2.1 C 20.2 2.1 20.2 2.1 20.2 2.1 Z M 13.6 5.7 C 11.5 4.8 14.9 4.8 13.6 5.7 C 13.6 5.7 13.6 5.7 13.6 5.7 Z M 11.1 4.1 C 11.1 4.1 11.1 4.1 11.1 4.1 C 11.1 4.1 11.1 4.1 11.1 4.1 Z M 7.1 6.3 C 7.0 6.2 7.0 6.2 7.1 6.3 C 7.1 6.3 7.1 6.3 7.1 6.3 Z M 19.5 1.9 C 19.6 1.9 19.6 1.9 19.5 1.9 C 19.5 1.9 19.5 1.9 19.5 1.9 Z M 5.2 10.2 C 5.2 10.2 5.2 10.2 5.2 10.2 C 5.2 10.2 5.2 10.2 5.2 10.2 Z M 5.1 2.5 C 5.0 3.0 4.7 2.1 5.1 2.5 C 5.1 2.5 5.1 2.5 5.1 2.5 Z M 2.9 2.5 C 2.8 2.5 2.8 2.5 2.9 2.5 C 2.9 2.5 2.9 2.5 2.9 2.5 Z M 6.4 13.9 C 6.4 13.9 6.4 13.9 6.4 13.9 C 6.4 13.9 6.4 13.9 6.4 13.9 Z M 1.5 6.8 C 1.5 6.9 1.5 6.9 1.5 6.8 C 1.5 6.8 1.5 6.8 1.5 6.8 Z M 3.0 9.7 C 3.0 9.6 3.0 9.6 3.0 9.7 C 3.0 9.7 3.0 9.7 3.0 9.7 Z M 5.6 6.7 C 5.8 8.7 5.1 5.7 5.6 6.7 C 5.6 6.7 5.6 6.7 5.6 6.7 Z M 3.4 15.0 C 3.3 15.0 3.3 15.0 3.4 15.0 C 3.4 15.0 3.4 15.0 3.4 15.0 Z M 5.1 16.8 C 5.0 16.8 5.0 16.8 5.1 16.8 C 5.1 16.8 5.1 16.8 5.1 16.8 Z M 6.0 17.6 C 5.9 17.7 5.9 17.7 6.0 17.6 C 6.0 17.6 6.0 17.6 6.0 17.6 Z M 15.3 3.3 C 15.3 3.4 15.3 3.4 15.3 3.3 C 15.3 3.3 15.3 3.3 15.3 3.3 Z M 15.6 6.0 C 15.6 6.1 15.6 6.1 15.6 6.0 C 15.6 6.0 15.6 6.0 15.6 6.0 Z M 13.5 6.2 C 13.5 6.2 13.5 6.2 13.5 6.2 C 13.5 6.2 13.5 6.2 13.5 6.2 Z M 16.0 1.6 C 16.1 1.7 16.1 1.7 16.0 1.6 C 16.0 1.6 16.0 1.6 16.0 1.6 Z M 5.8 4.0 C 5.8 4.0 5.8 4.0 5.8 4.0 C 5.8 4.0 5.8 4.0 5.8 4.0 Z M 3.8 2.9 C 3.9 2.9 3.9 2.9 3.8 2.9 C 3.8 2.9 3.8 2.9 3.8 2.9 Z M 5.3 1.4 C 5.3 1.4 5.3 1.4 5.3 1.4 C 5.3 1.4 5.3 1.4 5.3 1.4 Z M 2.1 2.0 C 2.2 2.0 2.2 2.0 2.1 2.0 C 2.1 2.0 2.1 2.0 2.1 2.0 Z M 23.8 2.2 C 23.8 2.1 23.8 2.1 23.8 2.2 C 23.8 2.2 23.8 2.2 23.8 2.2 Z M 22.3 4.3 C 22.4 4.2 22.4 4.2 22.3 4.3 C 22.3 4.3 22.3 4.3 22.3 4.3 Z M 6.8 5.5 C 6.8 5.9 5.4 4.9 6.8 5.5 M 9.9 5.2 C 9.9 5.2 9.9 5.2 9.9 5.2 C 9.9 5.2 9.9 5.2 9.9 5.2 Z M 5.6 10.2 C 4.8 10.1 6.1 8.9 5.6 10.2 C 5.6 10.2 5.6 10.2 5.6 10.2 Z M 2.1 5.3 C 2.1 5.4 2.1 5.4 2.1 5.3 C 2.1 5.3 2.1 5.3 2.1 5.3 Z M 2.5 6.7 C 2.4 6.7 2.4 6.7 2.5 6.7 C 2.5 6.7 2.5 6.7 2.5 6.7 Z M 4.8 13.9 C 4.7 14.0 4.7 14.0 4.8 13.9 M 10.6 6.0 C 10.0 5.6 10.1 5.7 10.6 6.0 M 5.6 11.4 C 5.6 11.3 5.6 11.3 5.6 11.4 C 5.6 11.4 5.6 11.4 5.6 11.4 Z M 5.2 15.4 C 5.2 15.3 5.2 15.3 5.2 15.4 C 5.2 15.4 5.2 15.4 5.2 15.4 Z M 12.6 5.4 C 12.4 4.4 12.9 4.6 12.6 5.4 M 19.3 5.1 C 19.3 5.0 19.3 5.0 19.3 5.1 C 19.3 5.1 19.3 5.1 19.3 5.1 Z M 19.3 5.1 " fill="#FEFFFE"></path></g></svg>