<?xml version="1.0" encoding="UTF-8" standalone="no"?><svg xmlns="http://www.w3.org/2000/svg" xmlns:xlink="http://www.w3.org/1999/xlink" clip-rule="evenodd" stroke-miterlimit="10" viewBox="0 0 32 30"><desc>SVG generated by Keynote</desc><defs></defs><g transform="matrix(1.00, 0.00, -0.00, -1.00, 0.0, 30.0)"><path d="M 18.4 16.1 C 18.5 16.3 18.0 16.8 18.1 16.9 M 18.4 16.1 C 17.1 16.6 16.6 17.4 15.8 18.5 C 15.2 19.6 16.8 18.5 17.1 18.7 C 16.6 20.5 15.9 20.3 15.0 19.9 C 15.4 20.6 13.4 21.9 14.7 22.1 C 16.0 19.5 13.9 24.2 15.8 22.1 C 16.1 21.9 16.1 22.8 15.9 23.0 C 16.8 22.4 16.6 24.1 17.7 22.8 C 18.5 22.9 18.1 23.1 19.2 22.3 C 19.5 21.9 19.1 22.0 18.9 22.0 C 18.1 21.6 20.0 21.0 19.9 20.0 C 21.5 19.5 20.4 18.6 19.6 19.1 C 20.1 18.5 21.9 17.7 21.3 16.9 C 22.2 16.5 22.8 14.6 21.3 15.8 C 20.3 16.7 20.3 15.8 20.1 15.8 C 19.6 16.1 19.5 17.1 19.2 17.2 C 19.1 16.9 19.3 15.7 18.6 17.0 C 18.4 16.6 17.7 17.3 18.4 16.1 C 18.4 16.1 18.4 16.1 18.4 16.1 Z M 15.3 20.4 C 15.0 20.4 15.6 20.0 15.3 20.4 C 15.3 20.4 15.3 20.4 15.3 20.4 Z M 21.7 17.5 C 21.3 17.5 22.0 17.0 21.7 17.5 C 21.7 17.5 21.7 17.5 21.7 17.5 Z M 19.1 21.7 C 18.8 21.7 19.4 21.2 19.1 21.7 C 19.1 21.7 19.1 21.7 19.1 21.7 Z M 16.1 19.4 C 16.8 18.7 16.3 20.0 15.9 20.1 C 16.1 19.9 15.8 19.5 16.1 19.4 C 16.1 19.4 16.1 19.4 16.1 19.4 Z M 18.1 19.5 C 18.0 19.5 18.2 19.1 18.5 19.2 C 18.5 19.4 18.2 19.6 18.1 19.5 C 18.1 19.5 18.1 19.5 18.1 19.5 Z M 14.9 22.9 C 14.8 22.8 14.9 22.5 15.2 22.6 C 15.2 22.9 14.9 23.0 14.9 22.9 C 14.9 22.9 14.9 22.9 14.9 22.9 Z M 17.5 18.7 C 17.6 18.5 18.0 18.4 17.9 18.7 C 17.7 18.8 17.4 19.3 17.5 18.7 C 17.5 18.7 17.5 18.7 17.5 18.7 Z M 16.9 17.5 C 17.4 16.9 17.3 18.1 17.1 18.1 C 16.8 18.3 16.4 17.8 16.9 17.5 C 16.9 17.5 16.9 17.5 16.9 17.5 Z M 18.1 18.3 C 18.6 17.8 18.3 18.6 18.1 18.3 C 18.1 18.3 18.1 18.3 18.1 18.3 Z M 17.3 23.4 C 17.7 22.8 17.4 23.7 17.3 23.4 C 17.3 23.4 17.3 23.4 17.3 23.4 Z M 20.0 20.4 C 20.4 19.8 20.0 20.7 20.0 20.4 C 20.0 20.4 20.0 20.4 20.0 20.4 Z M 16.1 20.8 C 15.6 21.7 15.2 20.7 16.1 20.8 C 16.1 20.8 16.1 20.8 16.1 20.8 Z M 17.5 16.2 C 17.0 17.0 16.5 16.4 17.5 16.2 C 17.5 16.2 17.5 16.2 17.5 16.2 Z M 16.8 21.7 C 17.3 22.4 16.8 19.3 16.2 20.6 C 15.3 21.3 14.3 19.1 15.6 19.5 C 15.4 18.9 15.4 18.9 14.7 18.6 C 15.5 18.4 15.2 17.1 14.5 16.6 C 13.6 16.3 14.9 17.5 13.7 16.7 C 12.5 14.9 12.9 16.8 11.5 16.0 C 11.5 15.9 12.0 15.9 11.6 15.7 C 10.6 15.5 10.6 16.7 9.6 16.1 C 9.9 16.4 9.8 18.1 10.2 17.4 C 11.0 17.1 10.2 19.3 11.5 19.0 C 11.2 19.6 12.3 20.1 11.8 20.7 C 11.9 21.2 12.6 21.0 12.7 20.9 C 13.3 20.7 11.7 21.7 13.0 22.1 C 12.8 22.3 13.9 24.1 13.6 22.5 C 13.7 22.9 14.5 25.1 14.9 23.6 C 14.7 22.0 16.7 24.4 15.9 22.9 C 15.4 21.7 15.1 21.6 16.1 22.2 C 16.2 22.4 16.9 23.7 16.8 22.4 C 16.6 22.2 16.4 21.7 16.8 21.7 C 16.8 21.7 16.8 21.7 16.8 21.7 Z M 15.4 22.6 C 15.0 21.9 15.7 22.3 15.4 22.6 C 15.4 22.6 15.4 22.6 15.4 22.6 Z M 11.5 20.6 C 11.1 19.9 11.9 20.5 11.5 20.6 C 11.5 20.6 11.5 20.6 11.5 20.6 Z M 16.1 19.8 C 15.6 19.6 16.7 19.3 16.1 19.8 C 16.1 19.8 16.1 19.8 16.1 19.8 Z M 13.1 21.7 C 13.1 21.7 13.3 21.8 13.5 21.9 C 13.4 21.9 13.2 21.8 13.1 21.7 C 13.1 21.7 13.1 21.7 13.1 21.7 Z M 15.6 18.9 C 14.5 18.1 16.4 18.6 15.6 18.9 C 15.6 18.9 15.6 18.9 15.6 18.9 Z M 13.4 17.1 C 12.0 17.0 13.2 16.2 13.4 17.1 C 13.4 17.1 13.4 17.1 13.4 17.1 Z M 11.4 18.6 C 11.7 18.8 11.3 18.8 11.4 18.6 C 11.4 18.6 11.4 18.6 11.4 18.6 Z M 13.8 23.6 C 14.1 23.7 13.8 23.9 13.8 23.6 C 13.8 23.6 13.8 23.6 13.8 23.6 Z M 10.7 17.2 C 11.3 17.3 10.7 17.6 10.7 17.2 C 10.7 17.2 10.7 17.2 10.7 17.2 Z M 15.5 19.8 C 16.9 20.3 14.7 21.1 15.5 19.8 C 15.5 19.8 15.5 19.8 15.5 19.8 Z M 16.4 21.2 C 16.8 21.7 15.8 21.3 15.8 21.0 C 15.9 21.0 16.3 21.1 16.4 21.2 C 16.4 21.2 16.4 21.2 16.4 21.2 Z M 15.0 18.9 C 15.7 19.4 15.0 19.5 15.0 18.9 C 15.0 18.9 15.0 18.9 15.0 18.9 Z M 16.2 20.2 C 16.2 20.5 16.0 20.0 16.2 20.2 C 16.2 20.2 16.2 20.2 16.2 20.2 Z M 15.4 17.8 C 15.4 18.1 15.2 17.6 15.4 17.8 C 15.4 17.8 15.4 17.8 15.4 17.8 Z M 17.2 21.7 C 17.2 22.0 16.9 21.5 17.2 21.7 C 17.2 21.7 17.2 21.7 17.2 21.7 Z M 14.9 18.0 C 14.4 18.0 13.8 18.9 13.9 17.3 C 14.1 17.1 15.1 17.7 14.9 18.0 C 14.9 18.0 14.9 18.0 14.9 18.0 Z M 19.4 14.4 C 16.5 17.0 19.5 16.2 19.9 16.3 C 20.4 16.7 21.1 16.2 21.9 15.6 C 24.0 14.7 20.6 14.9 22.6 14.1 C 25.5 12.7 21.0 13.7 23.8 12.7 C 24.4 12.7 24.5 11.5 24.3 11.7 C 25.9 10.6 24.0 10.5 23.8 10.6 C 24.4 10.1 26.9 9.1 25.7 8.5 C 25.5 7.8 28.4 6.2 26.4 7.3 C 28.9 5.6 26.1 7.1 27.2 6.0 C 28.6 4.9 25.4 6.9 28.1 4.9 C 26.5 5.4 29.1 4.7 29.1 2.8 C 28.6 3.6 28.4 3.3 28.6 2.9 C 28.1 3.0 28.0 2.9 28.7 2.6 C 31.0 1.8 26.7 2.9 25.9 2.4 C 25.0 2.8 22.3 3.9 23.7 2.7 C 23.3 1.4 21.5 3.5 21.8 2.5 C 21.5 2.0 20.7 3.0 20.4 2.9 C 20.4 2.1 19.6 2.6 17.8 2.4 C 13.4 2.0 16.8 4.5 15.6 4.8 C 15.5 5.2 16.4 7.8 16.3 5.8 C 16.4 6.4 19.4 4.3 17.3 6.5 C 18.4 5.6 16.8 7.4 18.5 6.4 C 17.0 4.8 21.4 5.7 18.8 6.5 C 18.7 6.9 19.4 6.9 19.3 6.5 C 20.2 5.1 19.8 7.1 20.8 5.4 C 21.6 5.9 23.1 4.3 22.2 5.4 C 20.2 7.3 22.8 4.9 22.8 5.5 C 24.4 5.5 20.1 7.6 23.0 6.2 C 23.0 6.2 23.0 6.3 23.0 6.3 C 21.2 8.2 24.4 5.6 24.4 5.9 C 26.4 4.9 22.0 8.3 22.4 7.4 C 23.1 7.4 21.3 8.0 22.3 8.0 C 24.4 6.4 19.9 9.8 21.4 8.9 C 21.6 9.3 22.8 8.4 22.8 8.6 C 22.3 9.5 20.7 10.0 21.9 9.6 C 22.5 9.5 20.0 10.9 20.5 10.8 C 21.1 9.9 21.9 10.9 20.9 11.3 C 21.1 10.8 18.6 12.4 19.7 12.3 C 23.6 10.5 18.4 13.4 19.4 13.4 C 21.5 12.5 18.5 15.4 18.2 14.7 C 18.3 14.7 19.4 14.4 19.4 14.4 M 20.7 11.0 C 21.2 10.1 20.6 11.6 20.7 11.0 M 20.1 11.2 C 21.0 10.6 19.2 12.1 19.9 11.3 C 19.9 11.2 20.0 11.3 20.1 11.2 M 21.6 8.2 C 22.2 8.0 21.0 8.8 21.6 8.2 M 23.4 6.8 C 24.3 5.9 23.1 7.5 23.4 6.8 M 17.8 6.0 C 19.7 3.8 17.8 7.2 17.8 6.0 M 21.7 6.4 C 22.9 6.1 20.2 7.3 21.7 6.4 M 22.7 5.9 C 23.6 5.5 22.0 6.4 22.7 5.9 M 19.1 6.0 C 19.0 5.9 19.0 5.9 19.1 6.0 C 19.1 6.0 19.1 6.0 19.1 6.0 Z M 17.1 5.9 C 17.0 5.9 17.0 5.9 17.1 5.9 C 17.1 5.9 17.1 5.9 17.1 5.9 Z M 21.3 5.7 C 21.3 6.2 20.0 5.9 21.3 5.7 C 21.3 5.7 21.3 5.7 21.3 5.7 Z M 19.6 2.7 C 19.6 2.6 19.6 2.6 19.6 2.7 C 19.6 2.7 19.6 2.7 19.6 2.7 Z M 21.7 11.1 C 21.7 11.1 21.7 11.1 21.7 11.1 C 21.7 11.1 21.7 11.1 21.7 11.1 Z M 19.3 13.9 C 19.7 13.7 18.8 14.3 19.3 13.9 C 19.3 13.9 19.3 13.9 19.3 13.9 Z M 21.2 15.4 C 21.3 15.4 21.3 15.4 21.2 15.4 C 21.2 15.4 21.2 15.4 21.2 15.4 Z M 22.8 11.4 C 22.8 11.4 22.8 11.4 22.8 11.4 C 22.8 11.4 22.8 11.4 22.8 11.4 Z M 20.8 11.8 C 19.0 12.7 21.8 10.7 20.8 11.8 C 20.8 11.8 20.8 11.8 20.8 11.8 Z M 25.9 2.8 C 25.2 3.3 25.2 2.6 25.9 2.8 C 25.9 2.8 25.9 2.8 25.9 2.8 Z M 24.2 6.3 C 23.8 6.4 24.6 5.8 24.2 6.3 C 24.2 6.3 24.2 6.3 24.2 6.3 Z M 21.0 9.0 C 20.6 9.1 21.3 8.5 21.0 9.0 C 21.0 9.0 21.0 9.0 21.0 9.0 Z M 18.9 13.9 C 18.8 13.9 18.8 13.9 18.9 13.9 C 18.9 13.9 18.9 13.9 18.9 13.9 Z M 20.5 12.7 C 18.8 13.7 21.9 11.5 20.5 12.7 C 20.5 12.7 20.5 12.7 20.5 12.7 Z M 20.4 13.7 C 21.1 13.2 19.7 14.6 20.4 13.7 M 23.0 12.5 C 22.8 11.8 25.1 12.7 23.0 12.5 C 23.0 12.5 23.0 12.5 23.0 12.5 Z M 26.0 7.7 C 26.1 7.6 26.1 7.6 26.0 7.7 C 26.0 7.7 26.0 7.7 26.0 7.7 Z M 21.0 10.2 C 21.4 9.6 21.2 10.5 21.0 10.2 C 21.0 10.2 21.0 10.2 21.0 10.2 Z M 17.8 15.7 C 18.2 15.1 17.9 16.1 17.8 15.7 C 17.8 15.7 17.8 15.7 17.8 15.7 Z M 25.7 5.9 C 26.1 4.9 26.2 6.2 25.7 5.9 C 25.7 5.9 25.7 5.9 25.7 5.9 Z M 22.2 5.3 C 22.2 5.3 22.2 5.3 22.2 5.3 C 22.2 5.3 22.2 5.3 22.2 5.3 Z M 20.9 5.8 C 20.9 5.7 20.9 5.7 20.9 5.8 C 20.9 5.8 20.9 5.8 20.9 5.8 Z M 18.4 4.6 C 18.4 4.6 18.4 4.6 18.4 4.6 C 18.4 4.6 18.4 4.6 18.4 4.6 Z M 19.8 6.3 C 19.8 6.3 19.8 6.3 19.8 6.3 C 19.8 6.3 19.8 6.3 19.8 6.3 Z M 18.1 6.0 C 18.0 6.0 18.0 6.0 18.1 6.0 C 18.1 6.0 18.1 6.0 18.1 6.0 Z M 17.8 7.0 C 17.8 6.9 17.8 6.9 17.8 7.0 C 17.8 7.0 17.8 7.0 17.8 7.0 Z M 28.5 2.1 C 28.5 2.1 28.5 2.1 28.5 2.1 C 28.5 2.1 28.5 2.1 28.5 2.1 Z M 19.0 13.0 C 19.1 12.9 19.1 12.9 19.0 13.0 C 19.0 13.0 19.0 13.0 19.0 13.0 Z M 18.4 5.6 C 18.4 5.6 18.4 5.6 18.4 5.6 C 18.4 5.6 18.4 5.6 18.4 5.6 Z M 25.1 4.7 C 26.5 3.8 23.5 5.9 24.8 4.8 C 24.9 4.7 24.9 4.9 25.1 4.7 M 26.5 3.1 C 26.6 3.1 26.6 3.1 26.5 3.1 C 26.5 3.1 26.5 3.1 26.5 3.1 Z M 28.4 4.1 C 28.4 4.1 28.4 4.1 28.4 4.1 C 28.4 4.1 28.4 4.1 28.4 4.1 Z M 19.9 6.5 C 19.4 7.0 19.8 6.1 20.0 6.5 M 19.1 3.0 C 19.0 3.5 18.3 2.6 19.2 3.0 M 17.9 16.4 C 18.3 16.4 17.4 16.8 17.9 16.4 M 28.8 4.3 C 29.4 4.1 28.1 5.1 28.8 4.3 M 27.6 4.0 C 26.7 4.6 28.6 2.9 27.6 4.1 M 21.5 3.0 C 21.5 3.0 21.5 3.0 21.5 3.0 C 21.5 3.0 21.5 3.0 21.5 3.0 Z M 21.7 9.2 C 21.7 9.2 21.7 9.2 21.7 9.2 C 21.7 9.2 21.7 9.2 21.7 9.2 Z M 24.9 5.4 C 23.6 6.5 26.0 4.4 24.9 5.4 M 23.1 9.2 C 21.5 10.3 24.0 8.0 23.1 9.2 M 17.2 2.8 C 17.9 3.8 16.5 2.2 17.2 2.8 M 20.0 5.5 C 19.6 6.5 20.0 4.9 20.0 5.5 M 22.7 8.3 C 21.8 8.8 23.5 7.4 22.7 8.3 M 18.5 15.0 C 18.1 15.6 18.3 14.3 18.5 15.0 M 23.9 3.0 C 23.9 2.9 23.9 2.9 23.9 3.0 C 23.9 3.0 23.9 3.0 23.9 3.0 Z M 25.0 11.5 C 25.1 11.4 25.1 11.4 25.0 11.5 C 25.0 11.5 25.0 11.5 25.0 11.5 Z M 15.9 6.3 C 15.9 6.3 15.9 6.3 15.9 6.3 C 15.9 6.3 15.9 6.3 15.9 6.3 Z M 20.9 5.0 C 20.9 4.9 20.9 4.9 20.9 5.0 C 20.9 5.0 20.9 5.0 20.9 5.0 Z M 16.9 6.5 C 16.9 6.4 16.9 6.4 16.9 6.5 C 16.9 6.5 16.9 6.5 16.9 6.5 Z M 24.2 4.1 C 24.2 4.1 24.2 4.1 24.2 4.1 C 24.2 4.1 24.2 4.1 24.2 4.1 Z M 20.9 6.9 C 21.0 6.9 21.0 6.9 20.9 6.9 C 20.9 6.9 20.9 6.9 20.9 6.9 Z M 23.5 6.5 C 23.6 6.4 23.6 6.4 23.5 6.5 C 23.5 6.5 23.5 6.5 23.5 6.5 Z M 20.4 6.7 C 19.3 6.8 22.2 5.7 20.4 6.7 C 20.4 6.7 20.4 6.7 20.4 6.7 Z M 26.7 3.9 C 26.7 3.9 26.7 3.9 26.7 3.9 C 26.7 3.9 26.7 3.9 26.7 3.9 Z M 23.7 5.9 C 23.6 5.9 23.6 5.9 23.6 5.9 C 21.9 6.6 25.2 4.7 23.9 5.8 C 23.8 5.8 23.7 5.8 23.7 5.9 M 20.8 9.9 C 20.3 9.9 21.8 9.3 20.8 9.9 M 25.3 9.1 C 25.4 9.1 25.4 9.1 25.3 9.1 C 25.3 9.1 25.3 9.1 25.3 9.1 Z M 25.1 8.8 C 25.2 8.8 25.2 8.8 25.1 8.8 C 25.1 8.8 25.1 8.8 25.1 8.8 Z M 20.1 10.8 C 20.2 10.8 20.2 10.8 20.1 10.8 C 20.1 10.8 20.1 10.8 20.1 10.8 Z M 26.7 8.2 C 26.7 8.1 26.7 8.1 26.7 8.2 C 26.7 8.2 26.7 8.2 26.7 8.2 Z M 21.4 6.8 C 21.4 6.8 21.4 6.8 21.4 6.8 C 21.4 6.8 21.4 6.8 21.4 6.8 Z M 16.3 6.8 C 16.3 6.8 16.3 6.8 16.3 6.8 C 16.3 6.8 16.3 6.8 16.3 6.8 Z M 22.2 14.1 C 22.3 14.0 22.3 14.0 22.2 14.1 C 22.2 14.1 22.2 14.1 22.2 14.1 Z M 22.3 5.7 C 22.4 5.7 22.4 5.7 22.3 5.7 C 22.3 5.7 22.3 5.7 22.3 5.7 Z M 24.4 10.4 C 24.5 10.3 24.5 10.3 24.4 10.4 C 24.4 10.4 24.4 10.4 24.4 10.4 Z M 22.4 6.0 C 22.4 5.9 22.4 5.9 22.4 6.0 C 22.4 6.0 22.4 6.0 22.4 6.0 Z M 24.5 2.8 C 24.5 2.7 24.5 2.7 24.5 2.8 C 24.5 2.8 24.5 2.8 24.5 2.8 Z M 22.8 2.1 C 22.7 2.1 22.7 2.1 22.8 2.1 C 22.8 2.1 22.8 2.1 22.8 2.1 Z M 22.5 4.7 C 22.5 4.7 22.5 4.7 22.5 4.7 C 22.5 4.7 22.5 4.7 22.5 4.7 Z M 22.5 11.5 C 19.8 14.6 23.1 9.4 22.5 11.5 M 22.2 4.4 C 24.2 4.7 19.6 5.5 22.2 4.4 C 21.7 4.7 22.1 4.5 22.2 4.4 M 15.4 6.8 C 16.0 5.7 16.0 4.8 15.6 3.7 C 15.1 3.2 15.3 5.2 15.1 3.5 C 16.3 3.2 14.1 0.9 14.5 3.2 C 12.9 3.5 13.9 1.7 13.0 2.6 C 11.2 2.8 11.9 2.2 10.4 2.3 C 10.4 3.5 9.0 1.7 9.5 2.9 C 9.4 1.6 8.3 3.2 7.7 2.7 C 8.4 1.9 2.5 2.6 6.5 3.0 C 6.0 3.6 4.8 2.6 4.1 2.4 C 4.3 2.8 3.2 2.6 2.2 2.4 C 2.3 2.7 2.4 3.1 3.1 3.7 C 3.3 3.7 3.2 3.4 3.5 3.5 C 4.2 3.8 3.7 4.2 3.7 4.1 C 4.4 4.8 6.5 7.2 3.5 4.2 C 2.5 3.6 4.7 6.0 3.9 5.5 C 4.7 7.2 5.9 6.9 4.9 6.9 C 5.5 8.1 6.0 9.0 6.2 9.1 C 6.4 9.7 5.5 9.5 6.8 10.5 C 5.8 11.5 10.7 12.6 7.6 12.1 C 8.6 12.7 6.6 12.6 8.7 13.0 C 7.5 12.3 8.5 15.3 9.2 14.2 C 9.8 14.6 8.4 16.2 10.2 16.1 C 11.9 16.8 13.2 16.8 13.9 15.7 C 12.9 15.7 14.5 14.8 13.0 15.3 C 12.9 16.2 11.3 13.3 12.4 14.1 C 14.8 14.7 10.0 12.2 11.6 12.2 C 10.8 12.3 9.0 9.7 11.4 11.2 C 11.3 10.9 10.3 10.4 11.3 10.4 C 11.8 11.7 8.8 8.9 10.1 9.6 C 11.0 10.2 10.7 8.6 9.5 8.2 C 6.9 7.4 9.9 8.0 8.5 7.0 C 7.2 5.4 11.2 8.6 8.5 6.5 C 8.6 6.5 8.6 6.4 8.6 6.2 C 9.1 6.3 9.7 6.4 9.5 6.7 C 8.9 6.5 7.2 4.5 9.7 6.2 C 9.7 7.1 11.9 6.7 10.9 6.2 C 7.2 5.3 12.7 5.2 11.4 6.1 C 13.1 7.0 11.5 6.4 12.4 6.0 C 11.8 5.5 12.6 5.0 13.0 6.1 C 14.1 7.6 12.1 4.0 14.1 6.1 C 14.6 7.0 15.6 5.4 15.1 6.5 C 15.1 6.6 15.3 6.8 15.4 6.8 M 15.0 6.6 C 15.0 6.2 15.3 7.0 15.0 6.6 M 15.1 6.2 C 15.1 6.3 15.1 6.3 15.1 6.2 C 15.1 6.2 15.1 6.2 15.1 6.2 Z M 12.5 6.0 C 12.6 6.0 12.6 6.0 12.5 6.0 C 12.5 6.0 12.5 6.0 12.5 6.0 Z M 5.9 2.0 C 6.0 2.1 6.0 2.1 5.9 2.0 C 5.9 2.0 5.9 2.0 5.9 2.0 Z M 10.7 5.9 C 10.8 5.9 10.8 5.9 10.7 5.9 C 10.7 5.9 10.7 5.9 10.7 5.9 Z M 13.3 5.7 C 13.3 5.7 13.3 5.7 13.3 5.7 C 13.3 5.7 13.3 5.7 13.3 5.7 Z M 11.5 6.5 C 10.7 5.9 12.4 6.9 11.6 6.6 C 11.5 6.5 11.6 6.5 11.5 6.5 M 9.9 6.7 C 9.8 6.6 9.8 6.6 9.9 6.7 M 4.8 7.9 C 4.7 7.9 4.7 7.9 4.8 7.9 M 11.8 11.2 C 11.7 11.2 11.7 11.2 11.8 11.2 M 9.2 7.7 C 9.7 8.5 8.8 7.6 9.2 7.7 M 12.3 12.8 C 12.4 12.1 13.2 13.8 12.3 12.8 M 13.2 13.7 C 13.1 13.8 13.1 13.8 13.2 13.7 M 10.9 9.9 C 10.8 9.8 10.8 9.8 10.9 9.9 C 10.9 9.9 10.9 9.9 10.9 9.9 Z M 9.5 7.6 C 9.5 7.1 10.8 9.0 9.5 7.6 M 12.7 6.6 C 12.5 6.8 12.1 5.8 12.7 6.6 M 13.3 6.2 C 13.3 6.2 13.3 6.2 13.3 6.2 C 13.3 6.2 13.3 6.2 13.3 6.2 Z M 11.6 11.4 C 11.6 11.4 11.6 11.4 11.6 11.4 C 11.6 11.4 11.6 11.4 11.6 11.4 Z M 12.3 12.4 C 12.2 12.4 12.2 12.4 12.3 12.4 C 12.3 12.4 12.3 12.4 12.3 12.4 Z M 7.5 12.7 C 7.4 12.6 7.4 12.6 7.5 12.7 C 7.5 12.7 7.5 12.7 7.5 12.7 Z M 11.3 4.4 C 12.4 4.7 11.7 5.8 10.9 4.8 C 10.4 4.3 11.3 4.5 11.3 4.4 M 7.0 5.7 C 4.7 4.6 9.9 7.0 7.0 5.7 M 11.9 13.5 C 10.1 13.7 13.2 13.1 11.9 13.5 M 13.1 15.0 C 12.8 15.3 11.5 12.3 13.2 14.5 C 13.6 14.8 13.2 14.9 13.1 15.0 M 8.8 6.0 C 7.3 5.2 10.3 6.3 8.8 6.0 M 6.4 7.9 C 7.4 8.6 8.6 9.9 7.0 8.9 C 5.4 8.2 5.5 7.0 6.4 7.9 M 14.6 5.7 C 14.5 7.0 14.3 4.6 14.6 5.7 M 11.8 5.6 C 11.8 5.7 11.8 5.7 11.8 5.6 C 11.8 5.6 11.8 5.6 11.8 5.6 Z M 10.9 5.8 C 10.8 5.7 10.8 5.7 10.9 5.8 M 14.5 6.9 C 14.5 6.8 14.5 6.8 14.5 6.9 M 8.4 8.8 C 8.3 8.8 8.3 8.8 8.4 8.8 M 8.6 7.2 C 7.1 7.2 7.8 6.4 8.6 7.2 M 5.3 3.3 C 3.9 2.7 6.2 3.2 5.3 3.3 M 10.2 9.3 C 8.8 9.1 7.9 7.3 10.2 9.3 M 8.5 6.8 C 8.5 6.9 8.5 6.9 8.5 6.8 C 8.5 6.8 8.5 6.8 8.5 6.8 Z M 6.4 8.1 C 6.3 8.0 6.3 8.0 6.4 8.1 C 6.4 8.1 6.4 8.1 6.4 8.1 Z M 6.7 8.5 C 6.6 8.4 6.6 8.4 6.7 8.5 C 6.7 8.5 6.7 8.5 6.7 8.5 Z M 10.9 10.2 C 10.8 10.2 10.8 10.2 10.9 10.2 C 10.9 10.2 10.9 10.2 10.9 10.2 Z M 11.5 2.8 C 10.3 2.7 12.3 2.6 11.5 2.8 C 11.5 2.8 11.5 2.8 11.5 2.8 Z M 10.8 6.5 C 8.3 5.5 10.5 5.5 10.8 6.5 C 10.8 6.5 10.8 6.5 10.8 6.5 Z M 7.2 4.9 C 7.1 4.8 7.1 4.8 7.2 4.9 C 7.2 4.9 7.2 4.9 7.2 4.9 Z M 11.2 9.4 C 11.1 9.3 11.1 9.3 11.2 9.4 C 11.2 9.4 11.2 9.4 11.2 9.4 Z M 10.8 2.7 C 10.8 2.6 10.8 2.6 10.8 2.7 C 10.8 2.7 10.8 2.7 10.8 2.7 Z M 11.0 11.9 C 10.9 11.8 10.9 11.8 11.0 11.9 C 11.0 11.9 11.0 11.9 11.0 11.9 Z M 4.8 5.5 C 5.7 6.2 4.2 5.3 4.8 5.5 C 4.8 5.5 4.8 5.5 4.8 5.5 Z M 5.5 6.9 C 5.5 6.9 5.5 6.9 5.5 6.9 C 5.5 6.9 5.5 6.9 5.5 6.9 Z M 13.4 14.0 C 13.4 14.0 13.4 14.0 13.4 14.0 C 13.4 14.0 13.4 14.0 13.4 14.0 Z M 5.7 9.7 C 5.7 9.7 5.7 9.7 5.7 9.7 C 5.7 9.7 5.7 9.7 5.7 9.7 Z M 8.3 11.5 C 8.2 11.5 8.2 11.5 8.3 11.5 C 8.3 11.5 8.3 11.5 8.3 11.5 Z M 10.4 9.8 C 11.3 11.0 9.4 9.2 10.4 9.8 C 10.4 9.8 10.4 9.8 10.4 9.8 Z M 10.5 14.8 C 10.4 14.9 10.4 14.9 10.5 14.8 C 10.5 14.8 10.5 14.8 10.5 14.8 Z M 12.9 15.7 C 12.8 15.7 12.8 15.7 12.9 15.7 C 12.9 15.7 12.9 15.7 12.9 15.7 Z M 14.1 16.1 C 14.0 16.1 14.0 16.1 14.1 16.1 C 14.1 16.1 14.1 16.1 14.1 16.1 Z M 9.1 4.0 C 9.2 4.1 9.2 4.1 9.1 4.0 C 9.1 4.0 9.1 4.0 9.1 4.0 Z M 12.2 6.8 C 12.3 6.8 12.3 6.8 12.2 6.8 C 12.2 6.8 12.2 6.8 12.2 6.8 Z M 11.2 6.9 C 11.3 6.9 11.3 6.9 11.2 6.9 C 11.2 6.9 11.2 6.9 11.2 6.9 Z M 7.8 2.4 C 7.9 2.4 7.9 2.4 7.8 2.4 C 7.8 2.4 7.8 2.4 7.8 2.4 Z M 7.3 7.1 C 7.4 7.1 7.4 7.1 7.3 7.1 C 7.3 7.1 7.3 7.1 7.3 7.1 Z M 5.9 6.8 C 6.0 6.8 6.0 6.8 5.9 6.8 C 5.9 6.8 5.9 6.8 5.9 6.8 Z M 2.7 4.0 C 2.8 4.0 2.8 4.0 2.7 4.0 C 2.7 4.0 2.7 4.0 2.7 4.0 Z M 4.7 6.6 C 4.7 6.6 4.7 6.6 4.7 6.6 C 4.7 6.6 4.7 6.6 4.7 6.6 Z M 14.2 2.9 C 14.2 2.8 14.2 2.8 14.2 2.9 C 14.2 2.9 14.2 2.9 14.2 2.9 Z M 14.8 5.0 C 14.8 4.9 14.8 4.9 14.8 5.0 C 14.8 5.0 14.8 5.0 14.8 5.0 Z M 9.8 8.5 C 10.6 9.1 9.1 8.5 9.8 8.5 M 8.2 6.2 C 8.2 6.2 8.2 6.2 8.2 6.2 C 8.2 6.2 8.2 6.2 8.2 6.2 Z M 11.5 11.9 C 10.5 11.8 11.6 11.2 11.5 11.9 C 11.5 11.9 11.5 11.9 11.5 11.9 Z M 5.8 8.7 C 5.8 8.8 5.8 8.8 5.8 8.7 C 5.8 8.7 5.8 8.7 5.8 8.7 Z M 6.7 9.6 C 6.6 9.6 6.6 9.6 6.7 9.6 C 6.7 9.6 6.7 9.6 6.7 9.6 Z M 11.6 14.1 C 11.6 14.1 11.6 14.1 11.6 14.1 M 9.4 6.7 C 9.3 6.7 9.3 6.7 9.3 6.7 C 8.4 6.3 8.6 6.4 9.3 6.7 C 9.3 6.7 9.3 6.7 9.4 6.7 M 11.8 12.6 C 11.8 12.5 11.8 12.5 11.8 12.6 C 11.8 12.6 11.8 12.6 11.8 12.6 Z M 12.6 14.9 C 12.6 14.8 12.6 14.8 12.6 14.9 C 12.6 14.9 12.6 14.9 12.6 14.9 Z M 9.8 6.1 C 8.4 5.1 9.0 5.4 9.8 6.1 M 13.5 5.8 C 13.5 5.7 13.5 5.7 13.5 5.8 C 13.5 5.8 13.5 5.8 13.5 5.8 Z M 13.5 5.8 " fill="#FEFFFE"></path></g></svg>