<?xml version="1.0" encoding="UTF-8" standalone="no"?><svg xmlns="http://www.w3.org/2000/svg" xmlns:xlink="http://www.w3.org/1999/xlink" clip-rule="evenodd" stroke-miterlimit="10" viewBox="0 0 32 30"><desc>SVG generated by Keynote</desc><defs></defs><g transform="matrix(1.00, 0.00, -0.00, -1.00, 0.0, 30.0)"><path d="M 18.8 16.0 C 18.9 16.1 18.4 16.7 18.4 16.8 M 18.8 16.0 C 17.5 16.5 17.0 17.3 16.2 18.4 C 15.6 19.5 17.1 18.4 17.5 18.6 C 16.9 20.4 16.3 20.2 15.4 19.8 C 15.8 20.5 13.7 21.8 15.0 22.0 C 16.4 19.4 14.3 24.1 16.2 22.0 C 16.5 21.8 16.4 22.6 16.3 22.9 C 17.2 22.3 17.0 24.0 18.0 22.7 C 18.9 22.8 18.4 23.0 19.5 22.2 C 19.8 21.8 19.5 21.9 19.3 21.9 C 18.5 21.5 20.4 20.8 20.2 19.9 C 21.9 19.4 20.8 18.5 19.9 19.0 C 20.4 18.4 22.3 17.6 21.7 16.8 C 22.6 16.4 23.1 14.5 21.6 15.7 C 20.7 16.5 20.7 15.7 20.4 15.7 C 20.0 15.9 19.9 16.9 19.5 17.1 C 19.5 16.8 19.6 15.6 19.0 16.9 C 18.7 16.5 18.1 17.1 18.8 16.0 C 18.8 16.0 18.8 16.0 18.8 16.0 Z M 15.7 20.3 C 15.4 20.2 15.9 19.9 15.7 20.3 C 15.7 20.3 15.7 20.3 15.7 20.3 Z M 22.0 17.4 C 21.7 17.4 22.4 16.9 22.0 17.4 C 22.0 17.4 22.0 17.4 22.0 17.4 Z M 19.4 21.6 C 19.1 21.6 19.7 21.1 19.4 21.6 C 19.4 21.6 19.4 21.6 19.4 21.6 Z M 16.5 19.2 C 17.2 18.6 16.7 19.9 16.3 19.9 C 16.4 19.8 16.1 19.4 16.5 19.2 C 16.5 19.2 16.5 19.2 16.5 19.2 Z M 18.5 19.4 C 18.4 19.4 18.5 19.0 18.8 19.1 C 18.8 19.3 18.6 19.5 18.5 19.4 C 18.5 19.4 18.5 19.4 18.5 19.4 Z M 15.2 22.8 C 15.2 22.7 15.3 22.4 15.6 22.5 C 15.5 22.8 15.3 22.9 15.2 22.8 C 15.2 22.8 15.2 22.8 15.2 22.8 Z M 17.8 18.5 C 18.0 18.4 18.3 18.3 18.3 18.6 C 18.1 18.6 17.7 19.2 17.8 18.5 C 17.8 18.5 17.8 18.5 17.8 18.5 Z M 17.2 17.4 C 17.7 16.8 17.6 18.0 17.5 18.0 C 17.1 18.2 16.8 17.7 17.2 17.4 C 17.2 17.4 17.2 17.4 17.2 17.4 Z M 18.5 18.2 C 19.0 17.7 18.6 18.5 18.5 18.2 C 18.5 18.2 18.5 18.2 18.5 18.2 Z M 17.6 23.3 C 18.1 22.7 17.7 23.6 17.6 23.3 C 17.6 23.3 17.6 23.3 17.6 23.3 Z M 20.3 20.3 C 20.8 19.7 20.4 20.6 20.3 20.3 C 20.3 20.3 20.3 20.3 20.3 20.3 Z M 16.5 20.7 C 16.0 21.5 15.6 20.6 16.5 20.7 C 16.5 20.7 16.5 20.7 16.5 20.7 Z M 17.8 16.1 C 17.4 16.9 16.8 16.3 17.8 16.1 C 17.8 16.1 17.8 16.1 17.8 16.1 Z M 17.1 21.6 C 17.7 22.3 17.2 19.2 16.5 20.5 C 15.7 21.2 14.6 19.0 15.9 19.4 C 15.7 18.8 15.8 18.8 15.1 18.5 C 15.9 18.3 15.6 17.0 14.9 16.5 C 14.0 16.2 15.3 17.4 14.0 16.6 C 12.9 14.8 13.3 16.7 11.9 15.8 C 11.8 15.8 12.3 15.8 11.9 15.6 C 11.0 15.4 11.0 16.6 10.0 15.9 C 10.3 16.3 10.2 18.0 10.6 17.2 C 11.3 17.0 10.6 19.2 11.8 18.9 C 11.5 19.5 12.6 19.9 12.2 20.6 C 12.3 21.1 12.9 20.9 13.1 20.8 C 13.6 20.6 12.0 21.6 13.4 22.0 C 13.1 22.1 14.2 24.0 13.9 22.4 C 14.0 22.8 14.9 25.0 15.3 23.5 C 15.1 21.9 17.0 24.3 16.3 22.8 C 15.8 21.6 15.5 21.4 16.5 22.1 C 16.5 22.3 17.3 23.6 17.2 22.3 C 16.9 22.1 16.8 21.6 17.1 21.6 C 17.1 21.6 17.1 21.6 17.1 21.6 Z M 15.7 22.4 C 15.3 21.8 16.1 22.2 15.7 22.4 C 15.7 22.4 15.7 22.4 15.7 22.4 Z M 11.9 20.5 C 11.4 19.8 12.3 20.4 11.9 20.5 C 11.9 20.5 11.9 20.5 11.9 20.5 Z M 16.4 19.7 C 15.9 19.5 17.1 19.2 16.4 19.7 C 16.4 19.7 16.4 19.7 16.4 19.7 Z M 13.5 21.6 C 13.5 21.6 13.7 21.7 13.8 21.8 C 13.8 21.8 13.5 21.7 13.5 21.6 C 13.5 21.6 13.5 21.6 13.5 21.6 Z M 15.9 18.8 C 14.9 17.9 16.8 18.5 15.9 18.8 C 15.9 18.8 15.9 18.8 15.9 18.8 Z M 13.8 17.0 C 12.4 16.9 13.5 16.1 13.8 17.0 C 13.8 17.0 13.8 17.0 13.8 17.0 Z M 11.7 18.5 C 12.1 18.7 11.7 18.7 11.7 18.5 C 11.7 18.5 11.7 18.5 11.7 18.5 Z M 14.2 23.5 C 14.5 23.6 14.2 23.7 14.2 23.5 C 14.2 23.5 14.2 23.5 14.2 23.5 Z M 11.1 17.1 C 11.6 17.2 11.1 17.5 11.1 17.1 C 11.1 17.1 11.1 17.1 11.1 17.1 Z M 15.9 19.7 C 17.2 20.2 15.1 21.0 15.9 19.7 C 15.9 19.7 15.9 19.7 15.9 19.7 Z M 16.7 21.1 C 17.2 21.6 16.1 21.2 16.1 20.9 C 16.2 20.9 16.6 21.0 16.7 21.1 C 16.7 21.1 16.7 21.1 16.7 21.1 Z M 15.3 18.8 C 16.1 19.3 15.3 19.4 15.3 18.8 C 15.3 18.8 15.3 18.8 15.3 18.8 Z M 16.6 20.1 C 16.6 20.4 16.3 19.9 16.6 20.1 C 16.6 20.1 16.6 20.1 16.6 20.1 Z M 15.8 17.7 C 15.8 17.9 15.5 17.5 15.8 17.7 C 15.8 17.7 15.8 17.7 15.8 17.7 Z M 17.5 21.6 C 17.6 21.9 17.3 21.4 17.5 21.6 C 17.5 21.6 17.5 21.6 17.5 21.6 Z M 15.2 17.9 C 14.7 17.9 14.2 18.7 14.2 17.2 C 14.4 17.0 15.4 17.6 15.2 17.9 C 15.2 17.9 15.2 17.9 15.2 17.9 Z M 19.7 14.3 C 16.9 16.9 19.8 16.1 20.3 16.2 C 20.8 16.6 21.4 16.1 22.2 15.5 C 24.3 14.6 21.0 14.8 23.0 14.0 C 25.9 12.6 21.4 13.5 24.1 12.6 C 24.7 12.5 24.9 11.4 24.6 11.6 C 26.3 10.5 24.4 10.4 24.2 10.5 C 24.7 10.0 27.3 9.0 26.1 8.4 C 25.9 7.7 28.8 6.1 26.8 7.2 C 29.3 5.4 26.5 7.0 27.5 5.9 C 29.0 4.8 25.8 6.8 28.5 4.7 C 26.9 5.3 29.5 4.6 29.5 2.7 C 29.0 3.5 28.8 3.2 28.9 2.8 C 28.5 2.9 28.3 2.8 29.0 2.5 C 31.3 1.7 27.1 2.8 26.3 2.3 C 25.4 2.7 22.7 3.8 24.1 2.6 C 23.6 1.3 21.9 3.4 22.1 2.4 C 21.9 1.9 21.1 2.9 20.8 2.8 C 20.7 2.0 19.9 2.5 18.1 2.3 C 13.8 1.9 17.2 4.4 16.0 4.7 C 15.8 5.0 16.8 7.7 16.7 5.7 C 16.8 6.3 19.7 4.2 17.6 6.4 C 18.7 5.5 17.2 7.3 18.9 6.2 C 17.3 4.7 21.7 5.6 19.1 6.4 C 19.1 6.8 19.8 6.7 19.6 6.4 C 20.5 5.0 20.1 7.0 21.2 5.3 C 22.0 5.8 23.5 4.2 22.6 5.3 C 20.5 7.2 23.1 4.8 23.2 5.4 C 24.8 5.4 20.5 7.5 23.3 6.1 C 23.3 6.1 23.3 6.2 23.3 6.2 C 21.5 8.0 24.7 5.5 24.8 5.8 C 26.8 4.8 22.4 8.2 22.7 7.3 C 23.5 7.3 21.7 7.9 22.6 7.9 C 24.8 6.3 20.2 9.7 21.8 8.8 C 21.9 9.1 23.2 8.3 23.1 8.5 C 22.6 9.4 21.1 9.9 22.2 9.5 C 22.8 9.4 20.4 10.8 20.8 10.7 C 21.4 9.8 22.2 10.8 21.3 11.2 C 21.5 10.7 18.9 12.3 20.0 12.2 C 23.9 10.4 18.7 13.2 19.7 13.3 C 21.9 12.3 18.9 15.3 18.5 14.5 C 18.7 14.6 19.7 14.3 19.7 14.3 M 21.0 10.8 C 21.6 10.0 21.0 11.5 21.0 10.8 M 20.5 11.1 C 21.3 10.5 19.6 12.0 20.2 11.2 C 20.3 11.1 20.4 11.2 20.5 11.1 M 22.0 8.1 C 22.6 7.8 21.4 8.7 22.0 8.1 M 23.7 6.7 C 24.6 5.8 23.5 7.4 23.7 6.7 M 18.1 5.9 C 20.0 3.7 18.2 7.1 18.1 5.9 M 22.0 6.3 C 23.2 6.0 20.6 7.2 22.0 6.3 M 23.0 5.7 C 24.0 5.4 22.4 6.2 23.0 5.7 M 19.4 5.9 C 19.4 5.8 19.4 5.8 19.4 5.9 C 19.4 5.9 19.4 5.9 19.4 5.9 Z M 17.4 5.8 C 17.4 5.8 17.4 5.8 17.4 5.8 C 17.4 5.8 17.4 5.8 17.4 5.8 Z M 21.6 5.6 C 21.7 6.1 20.4 5.8 21.6 5.6 C 21.6 5.6 21.6 5.6 21.6 5.6 Z M 19.9 2.5 C 20.0 2.5 20.0 2.5 19.9 2.5 C 19.9 2.5 19.9 2.5 19.9 2.5 Z M 22.1 10.9 C 22.1 11.0 22.1 11.0 22.1 10.9 C 22.1 10.9 22.1 10.9 22.1 10.9 Z M 19.7 13.7 C 20.1 13.6 19.2 14.2 19.7 13.7 C 19.7 13.7 19.7 13.7 19.7 13.7 Z M 21.6 15.3 C 21.6 15.3 21.6 15.3 21.6 15.3 C 21.6 15.3 21.6 15.3 21.6 15.3 Z M 23.2 11.3 C 23.2 11.3 23.2 11.3 23.2 11.3 C 23.2 11.3 23.2 11.3 23.2 11.3 Z M 21.2 11.6 C 19.3 12.6 22.1 10.5 21.2 11.6 C 21.2 11.6 21.2 11.6 21.2 11.6 Z M 26.3 2.7 C 25.6 3.2 25.6 2.5 26.3 2.7 C 26.3 2.7 26.3 2.7 26.3 2.7 Z M 24.5 6.2 C 24.2 6.3 24.9 5.7 24.5 6.2 C 24.5 6.2 24.5 6.2 24.5 6.2 Z M 21.3 8.9 C 21.0 9.0 21.7 8.4 21.3 8.9 C 21.3 8.9 21.3 8.9 21.3 8.9 Z M 19.3 13.8 C 19.2 13.8 19.2 13.8 19.3 13.8 C 19.3 13.8 19.3 13.8 19.3 13.8 Z M 20.9 12.6 C 19.1 13.6 22.2 11.4 20.9 12.6 C 20.9 12.6 20.9 12.6 20.9 12.6 Z M 20.8 13.6 C 21.5 13.1 20.1 14.5 20.8 13.6 M 23.3 12.4 C 23.2 11.7 25.5 12.6 23.3 12.4 C 23.3 12.4 23.3 12.4 23.3 12.4 Z M 26.4 7.6 C 26.5 7.5 26.5 7.5 26.4 7.6 C 26.4 7.6 26.4 7.6 26.4 7.6 Z M 21.4 10.1 C 21.7 9.5 21.5 10.4 21.4 10.1 C 21.4 10.1 21.4 10.1 21.4 10.1 Z M 18.2 15.6 C 18.5 15.0 18.3 16.0 18.2 15.6 C 18.2 15.6 18.2 15.6 18.2 15.6 Z M 26.1 5.8 C 26.4 4.8 26.6 6.1 26.1 5.8 C 26.1 5.8 26.1 5.8 26.1 5.8 Z M 22.5 5.2 C 22.5 5.2 22.5 5.2 22.5 5.2 C 22.5 5.2 22.5 5.2 22.5 5.2 Z M 21.3 5.7 C 21.3 5.6 21.3 5.6 21.3 5.7 C 21.3 5.7 21.3 5.7 21.3 5.7 Z M 18.8 4.5 C 18.7 4.5 18.7 4.5 18.8 4.5 C 18.8 4.5 18.8 4.5 18.8 4.5 Z M 20.1 6.2 C 20.1 6.2 20.1 6.2 20.1 6.2 C 20.1 6.2 20.1 6.2 20.1 6.2 Z M 18.4 5.9 C 18.4 5.9 18.4 5.9 18.4 5.9 C 18.4 5.9 18.4 5.9 18.4 5.9 Z M 18.2 6.9 C 18.2 6.8 18.2 6.8 18.2 6.9 C 18.2 6.9 18.2 6.9 18.2 6.9 Z M 28.9 2.0 C 28.9 2.0 28.9 2.0 28.9 2.0 C 28.9 2.0 28.9 2.0 28.9 2.0 Z M 19.3 12.9 C 19.5 12.8 19.5 12.8 19.3 12.9 C 19.3 12.9 19.3 12.9 19.3 12.9 Z M 18.8 5.5 C 18.8 5.4 18.8 5.4 18.8 5.5 C 18.8 5.5 18.8 5.5 18.8 5.5 Z M 25.4 4.6 C 26.9 3.7 23.9 5.8 25.2 4.6 C 25.3 4.6 25.2 4.7 25.4 4.6 M 26.8 3.0 C 26.9 3.0 26.9 3.0 26.8 3.0 C 26.8 3.0 26.8 3.0 26.8 3.0 Z M 28.7 4.0 C 28.8 4.0 28.8 4.0 28.7 4.0 C 28.7 4.0 28.7 4.0 28.7 4.0 Z M 20.3 6.4 C 19.8 6.9 20.1 6.0 20.4 6.3 M 19.4 2.9 C 19.3 3.4 18.7 2.5 19.6 2.8 M 18.2 16.3 C 18.7 16.3 17.7 16.7 18.2 16.3 M 29.2 4.2 C 29.8 4.0 28.5 5.0 29.2 4.2 M 28.0 3.9 C 27.0 4.5 29.0 2.8 27.9 4.0 M 21.9 2.9 C 21.8 2.9 21.8 2.9 21.9 2.9 C 21.9 2.9 21.9 2.9 21.9 2.9 Z M 22.0 9.1 C 22.1 9.1 22.1 9.1 22.0 9.1 C 22.0 9.1 22.0 9.1 22.0 9.1 Z M 25.3 5.3 C 23.9 6.4 26.4 4.3 25.3 5.3 M 23.5 9.1 C 21.8 10.2 24.4 7.9 23.5 9.1 M 17.6 2.7 C 18.3 3.7 16.9 2.1 17.6 2.7 M 20.4 5.4 C 20.0 6.4 20.3 4.8 20.4 5.4 M 23.0 8.2 C 22.1 8.7 23.9 7.3 23.0 8.2 M 18.9 14.9 C 18.4 15.4 18.7 14.2 18.9 14.9 M 24.3 2.9 C 24.3 2.8 24.3 2.8 24.3 2.9 C 24.3 2.9 24.3 2.9 24.3 2.9 Z M 25.4 11.4 C 25.5 11.3 25.5 11.3 25.4 11.4 C 25.4 11.4 25.4 11.4 25.4 11.4 Z M 16.3 6.2 C 16.2 6.2 16.2 6.2 16.3 6.2 C 16.3 6.2 16.3 6.2 16.3 6.2 Z M 21.2 4.9 C 21.3 4.8 21.3 4.8 21.2 4.9 C 21.2 4.9 21.2 4.9 21.2 4.9 Z M 17.3 6.3 C 17.3 6.3 17.3 6.3 17.3 6.3 C 17.3 6.3 17.3 6.3 17.3 6.3 Z M 24.6 4.0 C 24.6 4.0 24.6 4.0 24.6 4.0 C 24.6 4.0 24.6 4.0 24.6 4.0 Z M 21.3 6.8 C 21.3 6.7 21.3 6.7 21.3 6.8 C 21.3 6.8 21.3 6.8 21.3 6.8 Z M 23.9 6.4 C 23.9 6.3 23.9 6.3 23.9 6.4 C 23.9 6.4 23.9 6.4 23.9 6.4 Z M 20.8 6.6 C 19.6 6.7 22.5 5.6 20.8 6.6 C 20.8 6.6 20.8 6.6 20.8 6.6 Z M 27.1 3.8 C 27.1 3.8 27.1 3.8 27.1 3.8 C 27.1 3.8 27.1 3.8 27.1 3.8 Z M 24.0 5.8 C 24.0 5.8 24.0 5.8 24.0 5.8 C 22.3 6.5 25.5 4.6 24.2 5.6 C 24.2 5.7 24.1 5.7 24.0 5.8 M 21.2 9.8 C 20.7 9.8 22.2 9.2 21.2 9.8 M 25.6 9.0 C 25.7 9.0 25.7 9.0 25.6 9.0 C 25.6 9.0 25.6 9.0 25.6 9.0 Z M 25.5 8.7 C 25.6 8.7 25.6 8.7 25.5 8.7 C 25.5 8.7 25.5 8.7 25.5 8.7 Z M 20.5 10.7 C 20.5 10.7 20.5 10.7 20.5 10.7 C 20.5 10.7 20.5 10.7 20.5 10.7 Z M 27.0 8.0 C 27.1 8.0 27.1 8.0 27.0 8.0 C 27.0 8.0 27.0 8.0 27.0 8.0 Z M 21.8 6.7 C 21.8 6.7 21.8 6.7 21.8 6.7 C 21.8 6.7 21.8 6.7 21.8 6.7 Z M 16.7 6.7 C 16.7 6.7 16.7 6.7 16.7 6.7 C 16.7 6.7 16.7 6.7 16.7 6.7 Z M 22.6 14.0 C 22.7 13.9 22.7 13.9 22.6 14.0 C 22.6 14.0 22.6 14.0 22.6 14.0 Z M 22.7 5.6 C 22.7 5.6 22.7 5.6 22.7 5.6 C 22.7 5.6 22.7 5.6 22.7 5.6 Z M 24.8 10.3 C 24.9 10.2 24.9 10.2 24.8 10.3 C 24.8 10.3 24.8 10.3 24.8 10.3 Z M 22.8 5.8 C 22.8 5.8 22.8 5.8 22.8 5.8 C 22.8 5.8 22.8 5.8 22.8 5.8 Z M 24.9 2.6 C 24.9 2.6 24.9 2.6 24.9 2.6 C 24.9 2.6 24.9 2.6 24.9 2.6 Z M 23.1 2.0 C 23.1 2.0 23.1 2.0 23.1 2.0 C 23.1 2.0 23.1 2.0 23.1 2.0 Z M 22.9 4.6 C 22.9 4.5 22.9 4.5 22.9 4.6 C 22.9 4.6 22.9 4.6 22.9 4.6 Z M 22.9 11.4 C 20.2 14.5 23.5 9.3 22.9 11.4 M 22.6 4.3 C 24.5 4.6 20.0 5.4 22.6 4.3 C 22.0 4.6 22.5 4.4 22.6 4.3 M 15.7 6.6 C 16.4 5.6 16.4 4.7 16.0 3.6 C 15.4 3.1 15.6 5.1 15.4 3.4 C 16.7 3.1 14.4 0.8 14.9 3.0 C 13.3 3.4 14.3 1.6 13.4 2.5 C 11.6 2.7 12.2 2.1 10.8 2.2 C 10.8 3.4 9.4 1.6 9.9 2.8 C 9.7 1.5 8.7 3.1 8.1 2.5 C 8.8 1.8 2.9 2.5 6.9 2.9 C 6.3 3.5 5.1 2.4 4.4 2.3 C 4.7 2.7 3.6 2.5 2.6 2.3 C 2.6 2.6 2.8 3.0 3.4 3.6 C 3.6 3.6 3.5 3.3 3.9 3.4 C 4.5 3.7 4.1 4.1 4.1 4.0 C 4.8 4.7 6.9 7.1 3.8 4.1 C 2.8 3.5 5.1 5.9 4.2 5.4 C 5.1 7.1 6.3 6.8 5.3 6.8 C 5.9 8.0 6.4 8.9 6.6 8.9 C 6.8 9.6 5.9 9.4 7.2 10.4 C 6.2 11.4 11.1 12.4 7.9 12.0 C 9.0 12.6 7.0 12.5 9.0 12.9 C 7.8 12.2 8.8 15.2 9.6 14.1 C 10.2 14.5 8.8 16.1 10.5 16.0 C 12.3 16.7 13.6 16.6 14.3 15.6 C 13.3 15.6 14.9 14.7 13.4 15.2 C 13.3 16.1 11.7 13.2 12.7 13.9 C 15.2 14.6 10.4 12.1 11.9 12.1 C 11.2 12.2 9.3 9.6 11.7 11.1 C 11.7 10.8 10.7 10.3 11.6 10.3 C 12.1 11.6 9.1 8.8 10.5 9.5 C 11.4 10.1 11.0 8.5 9.9 8.1 C 7.3 7.3 10.3 7.9 8.8 6.9 C 7.6 5.3 11.6 8.5 8.9 6.4 C 9.0 6.4 8.9 6.3 8.9 6.1 C 9.5 6.2 10.0 6.3 9.9 6.6 C 9.2 6.4 7.6 4.4 10.1 6.1 C 10.1 7.0 12.3 6.6 11.3 6.1 C 7.6 5.2 13.1 5.1 11.8 6.0 C 13.5 6.9 11.8 6.3 12.7 5.9 C 12.1 5.4 13.0 4.9 13.3 6.0 C 14.5 7.5 12.5 3.9 14.5 6.0 C 14.9 6.9 16.0 5.3 15.5 6.4 C 15.5 6.5 15.7 6.6 15.7 6.6 M 15.3 6.5 C 15.4 6.1 15.6 6.9 15.3 6.5 M 15.4 6.1 C 15.4 6.1 15.4 6.1 15.4 6.1 C 15.4 6.1 15.4 6.1 15.4 6.1 Z M 12.9 5.9 C 12.9 5.9 12.9 5.9 12.9 5.9 C 12.9 5.9 12.9 5.9 12.9 5.9 Z M 6.3 1.9 C 6.4 2.0 6.4 2.0 6.3 1.9 C 6.3 1.9 6.3 1.9 6.3 1.9 Z M 11.1 5.8 C 11.1 5.8 11.1 5.8 11.1 5.8 C 11.1 5.8 11.1 5.8 11.1 5.8 Z M 13.6 5.6 C 13.7 5.6 13.7 5.6 13.6 5.6 C 13.6 5.6 13.6 5.6 13.6 5.6 Z M 11.9 6.4 C 11.1 5.8 12.8 6.8 11.9 6.5 C 11.9 6.4 12.0 6.4 11.9 6.4 M 10.3 6.6 C 10.1 6.5 10.1 6.5 10.3 6.6 M 5.1 7.8 C 5.0 7.8 5.0 7.8 5.1 7.8 M 12.2 11.1 C 12.1 11.1 12.1 11.1 12.2 11.1 M 9.6 7.6 C 10.1 8.3 9.2 7.5 9.6 7.6 M 12.6 12.6 C 12.7 12.0 13.5 13.7 12.6 12.6 M 13.5 13.6 C 13.5 13.6 13.5 13.6 13.5 13.6 M 11.2 9.8 C 11.2 9.7 11.2 9.7 11.2 9.8 C 11.2 9.8 11.2 9.8 11.2 9.8 Z M 9.8 7.5 C 9.9 6.9 11.2 8.8 9.8 7.5 M 13.0 6.4 C 12.9 6.7 12.4 5.7 13.0 6.4 M 13.7 6.1 C 13.7 6.1 13.7 6.1 13.7 6.1 C 13.7 6.1 13.7 6.1 13.7 6.1 Z M 12.0 11.3 C 11.9 11.3 11.9 11.3 12.0 11.3 C 12.0 11.3 12.0 11.3 12.0 11.3 Z M 12.6 12.3 C 12.6 12.3 12.6 12.3 12.6 12.3 C 12.6 12.3 12.6 12.3 12.6 12.3 Z M 7.8 12.6 C 7.8 12.5 7.8 12.5 7.8 12.6 C 7.8 12.6 7.8 12.6 7.8 12.6 Z M 11.7 4.3 C 12.7 4.6 12.0 5.7 11.3 4.7 C 10.8 4.2 11.7 4.4 11.7 4.3 M 7.3 5.6 C 5.0 4.4 10.3 6.9 7.3 5.6 M 12.3 13.4 C 10.4 13.6 13.5 13.0 12.3 13.4 M 13.4 14.8 C 13.2 15.2 11.8 12.2 13.5 14.4 C 14.0 14.7 13.6 14.7 13.4 14.8 M 9.1 5.9 C 7.7 5.1 10.6 6.2 9.1 5.9 M 6.8 7.7 C 7.8 8.5 9.0 9.8 7.4 8.8 C 5.7 8.1 5.8 6.9 6.8 7.7 M 14.9 5.6 C 14.9 6.9 14.7 4.5 14.9 5.6 M 12.1 5.5 C 12.2 5.6 12.2 5.6 12.1 5.5 C 12.1 5.5 12.1 5.5 12.1 5.5 Z M 11.3 5.7 C 11.1 5.6 11.1 5.6 11.3 5.7 M 14.9 6.8 C 14.8 6.7 14.8 6.7 14.9 6.8 M 8.8 8.7 C 8.7 8.6 8.7 8.6 8.8 8.7 M 8.9 7.1 C 7.5 7.1 8.2 6.3 8.9 7.1 M 5.7 3.2 C 4.3 2.5 6.6 3.1 5.7 3.2 M 10.6 9.2 C 9.1 9.0 8.3 7.2 10.6 9.2 M 8.9 6.7 C 8.9 6.8 8.9 6.8 8.9 6.7 C 8.9 6.7 8.9 6.7 8.9 6.7 Z M 6.7 8.0 C 6.7 7.9 6.7 7.9 6.7 8.0 C 6.7 8.0 6.7 8.0 6.7 8.0 Z M 7.0 8.4 C 7.0 8.3 7.0 8.3 7.0 8.4 C 7.0 8.4 7.0 8.4 7.0 8.4 Z M 11.3 10.1 C 11.2 10.1 11.2 10.1 11.3 10.1 C 11.3 10.1 11.3 10.1 11.3 10.1 Z M 11.9 2.7 C 10.6 2.6 12.7 2.5 11.9 2.7 C 11.9 2.7 11.9 2.7 11.9 2.7 Z M 11.1 6.3 C 8.7 5.4 10.9 5.4 11.1 6.3 C 11.1 6.3 11.1 6.3 11.1 6.3 Z M 7.5 4.7 C 7.4 4.7 7.4 4.7 7.5 4.7 C 7.5 4.7 7.5 4.7 7.5 4.7 Z M 11.5 9.3 C 11.4 9.2 11.4 9.2 11.5 9.3 C 11.5 9.3 11.5 9.3 11.5 9.3 Z M 11.2 2.6 C 11.1 2.5 11.1 2.5 11.2 2.6 C 11.2 2.6 11.2 2.6 11.2 2.6 Z M 11.4 11.8 C 11.3 11.7 11.3 11.7 11.4 11.8 C 11.4 11.8 11.4 11.8 11.4 11.8 Z M 5.2 5.4 C 6.1 6.1 4.6 5.2 5.2 5.4 C 5.2 5.4 5.2 5.4 5.2 5.4 Z M 5.8 6.7 C 5.9 6.8 5.9 6.8 5.8 6.7 C 5.8 6.7 5.8 6.7 5.8 6.7 Z M 13.8 13.9 C 13.8 13.9 13.8 13.9 13.8 13.9 C 13.8 13.9 13.8 13.9 13.8 13.9 Z M 6.0 9.6 C 6.1 9.6 6.1 9.6 6.0 9.6 C 6.0 9.6 6.0 9.6 6.0 9.6 Z M 8.6 11.4 C 8.6 11.4 8.6 11.4 8.6 11.4 C 8.6 11.4 8.6 11.4 8.6 11.4 Z M 10.7 9.7 C 11.6 10.9 9.8 9.1 10.7 9.7 C 10.7 9.7 10.7 9.7 10.7 9.7 Z M 10.9 14.7 C 10.8 14.7 10.8 14.7 10.9 14.7 C 10.9 14.7 10.9 14.7 10.9 14.7 Z M 13.2 15.6 C 13.2 15.6 13.2 15.6 13.2 15.6 C 13.2 15.6 13.2 15.6 13.2 15.6 Z M 14.5 16.0 C 14.4 16.0 14.4 16.0 14.5 16.0 C 14.5 16.0 14.5 16.0 14.5 16.0 Z M 9.4 3.9 C 9.5 4.0 9.5 4.0 9.4 3.9 C 9.4 3.9 9.4 3.9 9.4 3.9 Z M 12.6 6.6 C 12.6 6.7 12.6 6.7 12.6 6.6 C 12.6 6.6 12.6 6.6 12.6 6.6 Z M 11.6 6.8 C 11.6 6.8 11.6 6.8 11.6 6.8 C 11.6 6.8 11.6 6.8 11.6 6.8 Z M 8.2 2.3 C 8.3 2.3 8.3 2.3 8.2 2.3 C 8.2 2.3 8.2 2.3 8.2 2.3 Z M 7.7 7.0 C 7.7 7.0 7.7 7.0 7.7 7.0 C 7.7 7.0 7.7 7.0 7.7 7.0 Z M 6.3 6.7 C 6.3 6.7 6.3 6.7 6.3 6.7 C 6.3 6.7 6.3 6.7 6.3 6.7 Z M 3.1 3.9 C 3.1 3.9 3.1 3.9 3.1 3.9 C 3.1 3.9 3.1 3.9 3.1 3.9 Z M 5.1 6.5 C 5.1 6.5 5.1 6.5 5.1 6.5 C 5.1 6.5 5.1 6.5 5.1 6.5 Z M 14.6 2.8 C 14.6 2.7 14.6 2.7 14.6 2.8 C 14.6 2.8 14.6 2.8 14.6 2.8 Z M 15.2 4.9 C 15.2 4.8 15.2 4.8 15.2 4.9 C 15.2 4.9 15.2 4.9 15.2 4.9 Z M 10.1 8.4 C 11.0 9.0 9.5 8.4 10.1 8.4 M 8.6 6.1 C 8.5 6.0 8.5 6.0 8.6 6.1 C 8.6 6.1 8.6 6.1 8.6 6.1 Z M 11.9 11.8 C 10.8 11.7 12.0 11.1 11.9 11.8 C 11.9 11.8 11.9 11.8 11.9 11.8 Z M 6.2 8.6 C 6.2 8.7 6.2 8.7 6.2 8.6 C 6.2 8.6 6.2 8.6 6.2 8.6 Z M 7.1 9.5 C 7.0 9.5 7.0 9.5 7.1 9.5 C 7.1 9.5 7.1 9.5 7.1 9.5 Z M 12.0 14.0 C 11.9 14.0 11.9 14.0 12.0 14.0 M 9.7 6.6 C 9.7 6.6 9.7 6.6 9.7 6.6 C 8.7 6.2 8.9 6.3 9.7 6.6 C 9.7 6.6 9.7 6.6 9.7 6.6 M 12.2 12.5 C 12.1 12.4 12.1 12.4 12.2 12.5 C 12.2 12.5 12.2 12.5 12.2 12.5 Z M 13.0 14.8 C 12.9 14.7 12.9 14.7 13.0 14.8 C 13.0 14.8 13.0 14.8 13.0 14.8 Z M 10.2 6.0 C 8.7 5.0 9.4 5.2 10.2 6.0 M 13.9 5.7 C 13.8 5.6 13.8 5.6 13.9 5.7 C 13.9 5.7 13.9 5.7 13.9 5.7 Z M 13.9 5.7 " fill="#FEFFFE"></path></g></svg>