<?xml version="1.0" encoding="UTF-8" standalone="no"?><svg xmlns="http://www.w3.org/2000/svg" xmlns:xlink="http://www.w3.org/1999/xlink" clip-rule="evenodd" stroke-miterlimit="10" viewBox="0 0 32 30"><desc>SVG generated by Keynote</desc><defs></defs><g transform="matrix(1.00, 0.00, -0.00, -1.00, 0.0, 30.0)"><path d="M 18.5 15.6 C 18.5 15.8 18.0 16.3 18.1 16.4 M 18.5 15.6 C 17.1 16.2 16.6 17.0 15.9 18.0 C 15.2 19.2 16.8 18.1 17.1 18.3 C 16.6 20.0 15.9 19.9 15.1 19.4 C 15.4 20.1 13.4 21.4 14.7 21.6 C 16.1 19.0 13.9 23.7 15.8 21.6 C 16.2 21.4 16.1 22.3 15.9 22.5 C 16.9 21.9 16.6 23.6 17.7 22.4 C 18.5 22.5 18.1 22.6 19.2 21.8 C 19.5 21.4 19.1 21.5 18.9 21.5 C 18.1 21.1 20.1 20.5 19.9 19.6 C 21.6 19.0 20.5 18.1 19.6 18.7 C 20.1 18.0 21.9 17.2 21.3 16.5 C 22.3 16.0 22.8 14.1 21.3 15.4 C 20.3 16.2 20.4 15.4 20.1 15.3 C 19.6 15.6 19.5 16.6 19.2 16.7 C 19.1 16.4 19.3 15.2 18.6 16.5 C 18.4 16.1 17.8 16.8 18.5 15.6 C 18.5 15.6 18.5 15.6 18.5 15.6 Z M 15.4 20.0 C 15.1 19.9 15.6 19.6 15.4 20.0 C 15.4 20.0 15.4 20.0 15.4 20.0 Z M 21.7 17.1 C 21.3 17.1 22.0 16.5 21.7 17.1 C 21.7 17.1 21.7 17.1 21.7 17.1 Z M 19.1 21.3 C 18.8 21.2 19.4 20.7 19.1 21.3 C 19.1 21.3 19.1 21.3 19.1 21.3 Z M 16.2 18.9 C 16.8 18.2 16.3 19.5 16.0 19.6 C 16.1 19.4 15.8 19.0 16.2 18.9 C 16.2 18.9 16.2 18.9 16.2 18.9 Z M 18.2 19.1 C 18.1 19.0 18.2 18.7 18.5 18.7 C 18.5 19.0 18.2 19.1 18.2 19.1 C 18.2 19.1 18.2 19.1 18.2 19.1 Z M 14.9 22.4 C 14.8 22.3 14.9 22.0 15.2 22.2 C 15.2 22.4 15.0 22.5 14.9 22.4 C 14.9 22.4 14.9 22.4 14.9 22.4 Z M 17.5 18.2 C 17.7 18.0 18.0 17.9 17.9 18.2 C 17.7 18.3 17.4 18.8 17.5 18.2 C 17.5 18.2 17.5 18.2 17.5 18.2 Z M 16.9 17.0 C 17.4 16.5 17.3 17.6 17.2 17.6 C 16.8 17.8 16.5 17.3 16.9 17.0 C 16.9 17.0 16.9 17.0 16.9 17.0 Z M 18.2 17.9 C 18.6 17.3 18.3 18.1 18.2 17.9 C 18.2 17.9 18.2 17.9 18.2 17.9 Z M 17.3 22.9 C 17.8 22.4 17.4 23.2 17.3 22.9 C 17.3 22.9 17.3 22.9 17.3 22.9 Z M 20.0 19.9 C 20.5 19.3 20.1 20.3 20.0 19.9 C 20.0 19.9 20.0 19.9 20.0 19.9 Z M 16.1 20.3 C 15.7 21.2 15.3 20.2 16.1 20.3 C 16.1 20.3 16.1 20.3 16.1 20.3 Z M 17.5 15.7 C 17.1 16.6 16.5 15.9 17.5 15.7 C 17.5 15.7 17.5 15.7 17.5 15.7 Z M 16.8 21.2 C 17.3 21.9 16.9 18.8 16.2 20.2 C 15.4 20.8 14.3 18.6 15.6 19.0 C 15.4 18.4 15.4 18.4 14.8 18.1 C 15.5 18.0 15.3 16.6 14.5 16.1 C 13.6 15.8 14.9 17.0 13.7 16.2 C 12.5 14.4 13.0 16.3 11.5 15.5 C 11.5 15.4 12.0 15.4 11.6 15.2 C 10.6 15.0 10.6 16.2 9.6 15.6 C 10.0 15.9 9.9 17.6 10.3 16.9 C 11.0 16.7 10.3 18.8 11.5 18.5 C 11.2 19.1 12.3 19.6 11.9 20.2 C 12.0 20.7 12.6 20.5 12.7 20.4 C 13.3 20.3 11.7 21.3 13.1 21.6 C 12.8 21.8 13.9 23.6 13.6 22.1 C 13.7 22.5 14.5 24.6 15.0 23.1 C 14.7 21.6 16.7 23.9 16.0 22.4 C 15.5 21.2 15.1 21.1 16.1 21.7 C 16.2 22.0 17.0 23.2 16.8 21.9 C 16.6 21.7 16.4 21.2 16.8 21.2 C 16.8 21.2 16.8 21.2 16.8 21.2 Z M 15.4 22.1 C 15.0 21.4 15.8 21.9 15.4 22.1 C 15.4 22.1 15.4 22.1 15.4 22.1 Z M 11.6 20.2 C 11.1 19.4 12.0 20.0 11.6 20.2 C 11.6 20.2 11.6 20.2 11.6 20.2 Z M 16.1 19.4 C 15.6 19.1 16.8 18.8 16.1 19.4 C 16.1 19.4 16.1 19.4 16.1 19.4 Z M 13.2 21.2 C 13.1 21.2 13.4 21.3 13.5 21.4 C 13.4 21.4 13.2 21.3 13.2 21.2 C 13.2 21.2 13.2 21.2 13.2 21.2 Z M 15.6 18.4 C 14.5 17.6 16.5 18.1 15.6 18.4 C 15.6 18.4 15.6 18.4 15.6 18.4 Z M 13.4 16.6 C 12.1 16.5 13.2 15.7 13.4 16.6 C 13.4 16.6 13.4 16.6 13.4 16.6 Z M 11.4 18.1 C 11.8 18.3 11.3 18.3 11.4 18.1 C 11.4 18.1 11.4 18.1 11.4 18.1 Z M 13.8 23.1 C 14.2 23.2 13.8 23.4 13.8 23.1 C 13.8 23.1 13.8 23.1 13.8 23.1 Z M 10.8 16.7 C 11.3 16.8 10.7 17.2 10.8 16.7 C 10.8 16.7 10.8 16.7 10.8 16.7 Z M 15.5 19.3 C 16.9 19.8 14.8 20.6 15.5 19.3 C 15.5 19.3 15.5 19.3 15.5 19.3 Z M 16.4 20.7 C 16.9 21.2 15.8 20.8 15.8 20.5 C 15.9 20.5 16.3 20.6 16.4 20.7 C 16.4 20.7 16.4 20.7 16.4 20.7 Z M 15.0 18.4 C 15.8 18.9 15.0 19.0 15.0 18.4 C 15.0 18.4 15.0 18.4 15.0 18.4 Z M 16.2 19.7 C 16.3 20.0 16.0 19.5 16.2 19.7 C 16.2 19.7 16.2 19.7 16.2 19.7 Z M 15.5 17.3 C 15.5 17.6 15.2 17.1 15.5 17.3 C 15.5 17.3 15.5 17.3 15.5 17.3 Z M 17.2 21.2 C 17.2 21.5 17.0 21.0 17.2 21.2 C 17.2 21.2 17.2 21.2 17.2 21.2 Z M 14.9 17.6 C 14.4 17.5 13.9 18.4 13.9 16.9 C 14.1 16.6 15.1 17.2 14.9 17.6 C 14.9 17.6 14.9 17.6 14.9 17.6 Z M 19.4 13.9 C 16.6 16.5 19.5 15.8 19.9 15.9 C 20.4 16.2 21.1 15.8 21.9 15.1 C 24.0 14.2 20.6 14.4 22.6 13.6 C 25.5 12.2 21.0 13.2 23.8 12.2 C 24.4 12.2 24.5 11.0 24.3 11.2 C 25.9 10.2 24.1 10.0 23.8 10.1 C 24.4 9.6 26.9 8.6 25.7 8.0 C 25.6 7.4 28.5 5.7 26.5 6.8 C 29.0 5.1 26.1 6.6 27.2 5.6 C 28.7 4.4 25.4 6.4 28.2 4.4 C 26.6 4.9 29.1 4.2 29.2 2.3 C 28.7 3.2 28.5 2.8 28.6 2.4 C 28.2 2.5 28.0 2.4 28.7 2.1 C 31.0 1.3 26.7 2.4 25.9 1.9 C 25.0 2.4 22.3 3.4 23.7 2.3 C 23.3 0.9 21.6 3.1 21.8 2.0 C 21.6 1.5 20.7 2.5 20.5 2.4 C 20.4 1.6 19.6 2.2 17.8 1.9 C 13.5 1.5 16.8 4.0 15.6 4.3 C 15.5 4.7 16.5 7.3 16.3 5.3 C 16.4 5.9 19.4 3.8 17.3 6.0 C 18.4 5.1 16.9 6.9 18.6 5.9 C 17.0 4.3 21.4 5.2 18.8 6.0 C 18.7 6.5 19.5 6.4 19.3 6.0 C 20.2 4.6 19.8 6.6 20.9 4.9 C 21.7 5.4 23.1 3.9 22.3 4.9 C 20.2 6.8 22.8 4.5 22.8 5.0 C 24.5 5.0 20.1 7.1 23.0 5.7 C 23.0 5.8 23.0 5.8 23.0 5.8 C 21.2 7.7 24.4 5.1 24.5 5.4 C 26.5 4.4 22.1 7.9 22.4 6.9 C 23.2 6.9 21.3 7.5 22.3 7.5 C 24.5 6.0 19.9 9.3 21.5 8.4 C 21.6 8.8 22.9 7.9 22.8 8.1 C 22.3 9.1 20.7 9.6 21.9 9.2 C 22.5 9.1 20.0 10.5 20.5 10.3 C 21.1 9.4 21.9 10.4 20.9 10.9 C 21.1 10.3 18.6 11.9 19.7 11.8 C 23.6 10.1 18.4 12.9 19.4 12.9 C 21.5 12.0 18.5 14.9 18.2 14.2 C 18.3 14.2 19.4 13.9 19.4 13.9 M 20.7 10.5 C 21.3 9.6 20.6 11.2 20.7 10.5 M 20.1 10.7 C 21.0 10.1 19.2 11.6 19.9 10.8 C 19.9 10.8 20.1 10.8 20.1 10.7 M 21.7 7.7 C 22.2 7.5 21.1 8.3 21.7 7.7 M 23.4 6.3 C 24.3 5.5 23.1 7.0 23.4 6.3 M 17.8 5.5 C 19.7 3.3 17.8 6.7 17.8 5.5 M 21.7 5.9 C 22.9 5.6 20.2 6.8 21.7 5.9 M 22.7 5.4 C 23.6 5.0 22.1 5.9 22.7 5.4 M 19.1 5.5 C 19.1 5.4 19.1 5.4 19.1 5.5 C 19.1 5.5 19.1 5.5 19.1 5.5 Z M 17.1 5.4 C 17.1 5.5 17.1 5.5 17.1 5.4 C 17.1 5.4 17.1 5.4 17.1 5.4 Z M 21.3 5.3 C 21.3 5.8 20.1 5.5 21.3 5.3 C 21.3 5.3 21.3 5.3 21.3 5.3 Z M 19.6 2.2 C 19.7 2.1 19.7 2.1 19.6 2.2 C 19.6 2.2 19.6 2.2 19.6 2.2 Z M 21.7 10.6 C 21.8 10.6 21.8 10.6 21.7 10.6 C 21.7 10.6 21.7 10.6 21.7 10.6 Z M 19.3 13.4 C 19.7 13.3 18.8 13.9 19.3 13.4 C 19.3 13.4 19.3 13.4 19.3 13.4 Z M 21.3 14.9 C 21.3 15.0 21.3 15.0 21.3 14.9 C 21.3 14.9 21.3 14.9 21.3 14.9 Z M 22.8 10.9 C 22.9 10.9 22.9 10.9 22.8 10.9 C 22.8 10.9 22.8 10.9 22.8 10.9 Z M 20.8 11.3 C 19.0 12.2 21.8 10.2 20.8 11.3 C 20.8 11.3 20.8 11.3 20.8 11.3 Z M 25.9 2.3 C 25.2 2.8 25.2 2.1 25.9 2.3 C 25.9 2.3 25.9 2.3 25.9 2.3 Z M 24.2 5.8 C 23.8 6.0 24.6 5.3 24.2 5.8 C 24.2 5.8 24.2 5.8 24.2 5.8 Z M 21.0 8.5 C 20.6 8.6 21.4 8.1 21.0 8.5 C 21.0 8.5 21.0 8.5 21.0 8.5 Z M 18.9 13.4 C 18.9 13.4 18.9 13.4 18.9 13.4 C 18.9 13.4 18.9 13.4 18.9 13.4 Z M 20.6 12.3 C 18.8 13.3 21.9 11.0 20.6 12.3 C 20.6 12.3 20.6 12.3 20.6 12.3 Z M 20.4 13.2 C 21.2 12.7 19.7 14.1 20.4 13.2 M 23.0 12.0 C 22.8 11.3 25.1 12.2 23.0 12.0 C 23.0 12.0 23.0 12.0 23.0 12.0 Z M 26.0 7.2 C 26.1 7.1 26.1 7.1 26.0 7.2 C 26.0 7.2 26.0 7.2 26.0 7.2 Z M 21.0 9.8 C 21.4 9.1 21.2 10.0 21.0 9.8 C 21.0 9.8 21.0 9.8 21.0 9.8 Z M 17.8 15.2 C 18.2 14.6 17.9 15.6 17.8 15.2 C 17.8 15.2 17.8 15.2 17.8 15.2 Z M 25.7 5.4 C 26.1 4.4 26.3 5.7 25.7 5.4 C 25.7 5.4 25.7 5.4 25.7 5.4 Z M 22.2 4.8 C 22.2 4.8 22.2 4.8 22.2 4.8 C 22.2 4.8 22.2 4.8 22.2 4.8 Z M 20.9 5.3 C 20.9 5.3 20.9 5.3 20.9 5.3 C 20.9 5.3 20.9 5.3 20.9 5.3 Z M 18.4 4.2 C 18.4 4.1 18.4 4.1 18.4 4.2 C 18.4 4.2 18.4 4.2 18.4 4.2 Z M 19.8 5.8 C 19.8 5.8 19.8 5.8 19.8 5.8 C 19.8 5.8 19.8 5.8 19.8 5.8 Z M 18.1 5.5 C 18.1 5.5 18.1 5.5 18.1 5.5 C 18.1 5.5 18.1 5.5 18.1 5.5 Z M 17.8 6.5 C 17.8 6.4 17.8 6.4 17.8 6.5 C 17.8 6.5 17.8 6.5 17.8 6.5 Z M 28.5 1.7 C 28.5 1.6 28.5 1.6 28.5 1.7 C 28.5 1.7 28.5 1.7 28.5 1.7 Z M 19.0 12.5 C 19.2 12.4 19.2 12.4 19.0 12.5 C 19.0 12.5 19.0 12.5 19.0 12.5 Z M 18.5 5.1 C 18.5 5.1 18.5 5.1 18.5 5.1 C 18.5 5.1 18.5 5.1 18.5 5.1 Z M 25.1 4.2 C 26.5 3.3 23.6 5.5 24.9 4.3 C 25.0 4.2 24.9 4.4 25.1 4.2 M 26.5 2.7 C 26.6 2.6 26.6 2.6 26.5 2.7 C 26.5 2.7 26.5 2.7 26.5 2.7 Z M 28.4 3.6 C 28.4 3.6 28.4 3.6 28.4 3.6 C 28.4 3.6 28.4 3.6 28.4 3.6 Z M 19.9 6.0 C 19.5 6.5 19.8 5.6 20.0 6.0 M 19.1 2.5 C 19.0 3.0 18.3 2.1 19.3 2.5 M 17.9 15.9 C 18.3 15.9 17.4 16.3 17.9 15.9 M 28.8 3.8 C 29.4 3.6 28.2 4.6 28.8 3.8 M 27.6 3.5 C 26.7 4.1 28.7 2.4 27.6 3.6 M 21.6 2.5 C 21.5 2.5 21.5 2.5 21.6 2.5 C 21.6 2.5 21.6 2.5 21.6 2.5 Z M 21.7 8.7 C 21.7 8.7 21.7 8.7 21.7 8.7 C 21.7 8.7 21.7 8.7 21.7 8.7 Z M 25.0 4.9 C 23.6 6.0 26.0 3.9 25.0 4.9 M 23.1 8.7 C 21.5 9.9 24.1 7.5 23.1 8.7 M 17.3 2.3 C 17.9 3.4 16.6 1.7 17.3 2.3 M 20.0 5.0 C 19.7 6.1 20.0 4.4 20.0 5.0 M 22.7 7.8 C 21.8 8.3 23.5 6.9 22.7 7.8 M 18.5 14.5 C 18.1 15.1 18.4 13.8 18.5 14.5 M 24.0 2.5 C 24.0 2.5 24.0 2.5 24.0 2.5 C 24.0 2.5 24.0 2.5 24.0 2.5 Z M 25.1 11.0 C 25.1 10.9 25.1 10.9 25.1 11.0 C 25.1 11.0 25.1 11.0 25.1 11.0 Z M 15.9 5.8 C 15.9 5.8 15.9 5.8 15.9 5.8 C 15.9 5.8 15.9 5.8 15.9 5.8 Z M 20.9 4.5 C 20.9 4.4 20.9 4.4 20.9 4.5 C 20.9 4.5 20.9 4.5 20.9 4.5 Z M 16.9 6.0 C 16.9 5.9 16.9 5.9 16.9 6.0 C 16.9 6.0 16.9 6.0 16.9 6.0 Z M 24.2 3.6 C 24.3 3.6 24.3 3.6 24.2 3.6 C 24.2 3.6 24.2 3.6 24.2 3.6 Z M 21.0 6.4 C 21.0 6.4 21.0 6.4 21.0 6.4 C 21.0 6.4 21.0 6.4 21.0 6.4 Z M 23.6 6.0 C 23.6 6.0 23.6 6.0 23.6 6.0 C 23.6 6.0 23.6 6.0 23.6 6.0 Z M 20.5 6.2 C 19.3 6.4 22.2 5.3 20.5 6.2 C 20.5 6.2 20.5 6.2 20.5 6.2 Z M 26.7 3.4 C 26.8 3.4 26.8 3.4 26.7 3.4 C 26.7 3.4 26.7 3.4 26.7 3.4 Z M 23.7 5.4 C 23.7 5.4 23.7 5.4 23.6 5.4 C 21.9 6.1 25.2 4.2 23.9 5.3 C 23.8 5.3 23.8 5.4 23.7 5.4 M 20.8 9.4 C 20.3 9.5 21.9 8.8 20.8 9.4 M 25.3 8.7 C 25.4 8.6 25.4 8.6 25.3 8.7 C 25.3 8.7 25.3 8.7 25.3 8.7 Z M 25.2 8.4 C 25.2 8.3 25.2 8.3 25.2 8.4 C 25.2 8.4 25.2 8.4 25.2 8.4 Z M 20.2 10.3 C 20.2 10.3 20.2 10.3 20.2 10.3 C 20.2 10.3 20.2 10.3 20.2 10.3 Z M 26.7 7.7 C 26.8 7.6 26.8 7.6 26.7 7.7 C 26.7 7.7 26.7 7.7 26.7 7.7 Z M 21.4 6.3 C 21.4 6.3 21.4 6.3 21.4 6.3 C 21.4 6.3 21.4 6.3 21.4 6.3 Z M 16.4 6.4 C 16.3 6.4 16.3 6.4 16.4 6.4 C 16.4 6.4 16.4 6.4 16.4 6.4 Z M 22.3 13.6 C 22.3 13.6 22.3 13.6 22.3 13.6 C 22.3 13.6 22.3 13.6 22.3 13.6 Z M 22.4 5.2 C 22.4 5.2 22.4 5.2 22.4 5.2 C 22.4 5.2 22.4 5.2 22.4 5.2 Z M 24.5 9.9 C 24.5 9.8 24.5 9.8 24.5 9.9 C 24.5 9.9 24.5 9.9 24.5 9.9 Z M 22.5 5.5 C 22.5 5.5 22.5 5.5 22.5 5.5 C 22.5 5.5 22.5 5.5 22.5 5.5 Z M 24.5 2.3 C 24.5 2.3 24.5 2.3 24.5 2.3 C 24.5 2.3 24.5 2.3 24.5 2.3 Z M 22.8 1.7 C 22.8 1.6 22.8 1.6 22.8 1.7 C 22.8 1.7 22.8 1.7 22.8 1.7 Z M 22.5 4.2 C 22.5 4.2 22.5 4.2 22.5 4.2 C 22.5 4.2 22.5 4.2 22.5 4.2 Z M 22.5 11.0 C 19.8 14.1 23.1 9.0 22.5 11.0 M 22.2 4.0 C 24.2 4.2 19.6 5.0 22.2 4.0 C 21.7 4.2 22.2 4.0 22.2 4.0 M 15.4 6.3 C 16.0 5.3 16.1 4.3 15.6 3.2 C 15.1 2.7 15.3 4.8 15.1 3.0 C 16.4 2.7 14.1 0.5 14.5 2.7 C 13.0 3.0 14.0 1.3 13.1 2.1 C 11.2 2.4 11.9 1.7 10.4 1.8 C 10.4 3.0 9.1 1.3 9.6 2.4 C 9.4 1.1 8.4 2.7 7.7 2.2 C 8.4 1.4 2.6 2.2 6.6 2.5 C 6.0 3.1 4.8 2.1 4.1 1.9 C 4.3 2.3 3.3 2.1 2.3 1.9 C 2.3 2.3 2.4 2.6 3.1 3.2 C 3.3 3.2 3.2 2.9 3.5 3.1 C 4.2 3.3 3.8 3.7 3.8 3.7 C 4.4 4.4 6.5 6.7 3.5 3.7 C 2.5 3.1 4.8 5.5 3.9 5.1 C 4.8 6.8 5.9 6.4 5.0 6.5 C 5.6 7.6 6.0 8.5 6.2 8.6 C 6.4 9.2 5.5 9.0 6.8 10.0 C 5.9 11.0 10.8 12.1 7.6 11.6 C 8.6 12.2 6.7 12.1 8.7 12.5 C 7.5 11.8 8.5 14.8 9.2 13.7 C 9.9 14.1 8.4 15.7 10.2 15.6 C 11.9 16.3 13.2 16.3 14.0 15.3 C 12.9 15.2 14.6 14.4 13.0 14.8 C 12.9 15.7 11.3 12.8 12.4 13.6 C 14.9 14.3 10.1 11.7 11.6 11.7 C 10.8 11.9 9.0 9.2 11.4 10.7 C 11.3 10.4 10.3 9.9 11.3 10.0 C 11.8 11.2 8.8 8.5 10.1 9.1 C 11.1 9.7 10.7 8.1 9.6 7.7 C 6.9 6.9 9.9 7.5 8.5 6.5 C 7.2 4.9 11.3 8.1 8.5 6.1 C 8.6 6.1 8.6 5.9 8.6 5.7 C 9.1 5.8 9.7 5.9 9.6 6.2 C 8.9 6.0 7.3 4.1 9.8 5.7 C 9.8 6.7 12.0 6.2 10.9 5.7 C 7.2 4.8 12.7 4.7 11.4 5.6 C 13.2 6.5 11.5 6.0 12.4 5.6 C 11.8 5.0 12.6 4.5 13.0 5.6 C 14.1 7.2 12.2 3.5 14.1 5.6 C 14.6 6.6 15.6 5.0 15.2 6.0 C 15.2 6.1 15.4 6.3 15.4 6.3 M 15.0 6.1 C 15.1 5.7 15.3 6.5 15.0 6.1 M 15.1 5.7 C 15.1 5.8 15.1 5.8 15.1 5.7 C 15.1 5.7 15.1 5.7 15.1 5.7 Z M 12.5 5.5 C 12.6 5.6 12.6 5.6 12.5 5.5 C 12.5 5.5 12.5 5.5 12.5 5.5 Z M 6.0 1.5 C 6.1 1.6 6.1 1.6 6.0 1.5 C 6.0 1.5 6.0 1.5 6.0 1.5 Z M 10.8 5.4 C 10.8 5.4 10.8 5.4 10.8 5.4 C 10.8 5.4 10.8 5.4 10.8 5.4 Z M 13.3 5.3 C 13.3 5.3 13.3 5.3 13.3 5.3 C 13.3 5.3 13.3 5.3 13.3 5.3 Z M 11.5 6.0 C 10.8 5.4 12.5 6.4 11.6 6.1 C 11.5 6.0 11.6 6.0 11.5 6.0 M 9.9 6.2 C 9.8 6.2 9.8 6.2 9.9 6.2 M 4.8 7.4 C 4.7 7.4 4.7 7.4 4.8 7.4 M 11.8 10.7 C 11.8 10.7 11.8 10.7 11.8 10.7 M 9.3 7.2 C 9.7 8.0 8.9 7.1 9.3 7.2 M 12.3 12.3 C 12.4 11.6 13.2 13.3 12.3 12.3 M 13.2 13.2 C 13.2 13.3 13.2 13.3 13.2 13.2 M 10.9 9.4 C 10.8 9.3 10.8 9.3 10.9 9.4 C 10.9 9.4 10.9 9.4 10.9 9.4 Z M 9.5 7.1 C 9.5 6.6 10.8 8.5 9.5 7.1 M 12.7 6.1 C 12.5 6.4 12.1 5.3 12.7 6.1 M 13.4 5.7 C 13.4 5.7 13.4 5.7 13.4 5.7 C 13.4 5.7 13.4 5.7 13.4 5.7 Z M 11.6 11.0 C 11.6 10.9 11.6 10.9 11.6 11.0 C 11.6 11.0 11.6 11.0 11.6 11.0 Z M 12.3 12.0 C 12.3 11.9 12.3 11.9 12.3 12.0 C 12.3 12.0 12.3 12.0 12.3 12.0 Z M 7.5 12.2 C 7.4 12.1 7.4 12.1 7.5 12.2 C 7.5 12.2 7.5 12.2 7.5 12.2 Z M 11.3 3.9 C 12.4 4.2 11.7 5.4 10.9 4.3 C 10.5 3.9 11.3 4.0 11.3 3.9 M 7.0 5.3 C 4.7 4.1 10.0 6.6 7.0 5.3 M 12.0 13.0 C 10.1 13.2 13.2 12.7 12.0 13.0 M 13.1 14.5 C 12.9 14.8 11.5 11.9 13.2 14.1 C 13.6 14.3 13.3 14.4 13.1 14.5 M 8.8 5.5 C 7.3 4.7 10.3 5.9 8.8 5.5 M 6.4 7.4 C 7.4 8.1 8.6 9.4 7.1 8.4 C 5.4 7.7 5.5 6.6 6.4 7.4 M 14.6 5.3 C 14.5 6.6 14.3 4.1 14.6 5.3 M 11.8 5.1 C 11.9 5.2 11.9 5.2 11.8 5.1 C 11.8 5.1 11.8 5.1 11.8 5.1 Z M 11.0 5.4 C 10.8 5.2 10.8 5.2 11.0 5.4 M 14.6 6.4 C 14.5 6.3 14.5 6.3 14.6 6.4 M 8.5 8.3 C 8.3 8.3 8.3 8.3 8.5 8.3 M 8.6 6.7 C 7.1 6.7 7.9 5.9 8.6 6.7 M 5.3 2.8 C 3.9 2.2 6.3 2.7 5.3 2.8 M 10.3 8.8 C 8.8 8.7 7.9 6.9 10.3 8.8 M 8.5 6.3 C 8.6 6.4 8.6 6.4 8.5 6.3 C 8.5 6.3 8.5 6.3 8.5 6.3 Z M 6.4 7.6 C 6.4 7.6 6.4 7.6 6.4 7.6 C 6.4 7.6 6.4 7.6 6.4 7.6 Z M 6.7 8.0 C 6.6 8.0 6.6 8.0 6.7 8.0 C 6.7 8.0 6.7 8.0 6.7 8.0 Z M 10.9 9.7 C 10.9 9.7 10.9 9.7 10.9 9.7 C 10.9 9.7 10.9 9.7 10.9 9.7 Z M 11.5 2.4 C 10.3 2.3 12.4 2.2 11.5 2.4 C 11.5 2.4 11.5 2.4 11.5 2.4 Z M 10.8 6.0 C 8.3 5.0 10.5 5.1 10.8 6.0 C 10.8 6.0 10.8 6.0 10.8 6.0 Z M 7.2 4.4 C 7.1 4.3 7.1 4.3 7.2 4.4 C 7.2 4.4 7.2 4.4 7.2 4.4 Z M 11.2 8.9 C 11.1 8.9 11.1 8.9 11.2 8.9 C 11.2 8.9 11.2 8.9 11.2 8.9 Z M 10.9 2.2 C 10.8 2.1 10.8 2.1 10.9 2.2 C 10.9 2.2 10.9 2.2 10.9 2.2 Z M 11.1 11.4 C 11.0 11.4 11.0 11.4 11.1 11.4 C 11.1 11.4 11.1 11.4 11.1 11.4 Z M 4.8 5.1 C 5.7 5.8 4.3 4.8 4.8 5.1 C 4.8 5.1 4.8 5.1 4.8 5.1 Z M 5.5 6.4 C 5.5 6.4 5.5 6.4 5.5 6.4 C 5.5 6.4 5.5 6.4 5.5 6.4 Z M 13.4 13.5 C 13.5 13.5 13.5 13.5 13.4 13.5 C 13.4 13.5 13.4 13.5 13.4 13.5 Z M 5.7 9.2 C 5.7 9.2 5.7 9.2 5.7 9.2 C 5.7 9.2 5.7 9.2 5.7 9.2 Z M 8.3 11.0 C 8.3 11.0 8.3 11.0 8.3 11.0 C 8.3 11.0 8.3 11.0 8.3 11.0 Z M 10.4 9.4 C 11.3 10.6 9.4 8.7 10.4 9.4 C 10.4 9.4 10.4 9.4 10.4 9.4 Z M 10.5 14.4 C 10.4 14.4 10.4 14.4 10.5 14.4 C 10.5 14.4 10.5 14.4 10.5 14.4 Z M 12.9 15.2 C 12.8 15.3 12.8 15.3 12.9 15.2 C 12.9 15.2 12.9 15.2 12.9 15.2 Z M 14.1 15.6 C 14.0 15.7 14.0 15.7 14.1 15.6 C 14.1 15.6 14.1 15.6 14.1 15.6 Z M 9.1 3.5 C 9.2 3.6 9.2 3.6 9.1 3.5 C 9.1 3.5 9.1 3.5 9.1 3.5 Z M 12.3 6.3 C 12.3 6.3 12.3 6.3 12.3 6.3 C 12.3 6.3 12.3 6.3 12.3 6.3 Z M 11.3 6.4 C 11.3 6.4 11.3 6.4 11.3 6.4 C 11.3 6.4 11.3 6.4 11.3 6.4 Z M 7.9 1.9 C 7.9 1.9 7.9 1.9 7.9 1.9 C 7.9 1.9 7.9 1.9 7.9 1.9 Z M 7.3 6.6 C 7.4 6.6 7.4 6.6 7.3 6.6 C 7.3 6.6 7.3 6.6 7.3 6.6 Z M 5.9 6.3 C 6.0 6.4 6.0 6.4 5.9 6.3 C 5.9 6.3 5.9 6.3 5.9 6.3 Z M 2.8 3.5 C 2.8 3.5 2.8 3.5 2.8 3.5 C 2.8 3.5 2.8 3.5 2.8 3.5 Z M 4.7 6.1 C 4.8 6.1 4.8 6.1 4.7 6.1 C 4.7 6.1 4.7 6.1 4.7 6.1 Z M 14.3 2.4 C 14.3 2.4 14.3 2.4 14.3 2.4 C 14.3 2.4 14.3 2.4 14.3 2.4 Z M 14.8 4.5 C 14.8 4.4 14.8 4.4 14.8 4.5 C 14.8 4.5 14.8 4.5 14.8 4.5 Z M 9.8 8.0 C 10.6 8.6 9.1 8.1 9.8 8.0 M 8.3 5.7 C 8.2 5.7 8.2 5.7 8.3 5.7 C 8.3 5.7 8.3 5.7 8.3 5.7 Z M 11.5 11.4 C 10.5 11.3 11.6 10.7 11.5 11.4 C 11.5 11.4 11.5 11.4 11.5 11.4 Z M 5.9 8.3 C 5.9 8.3 5.9 8.3 5.9 8.3 C 5.9 8.3 5.9 8.3 5.9 8.3 Z M 6.8 9.2 C 6.7 9.2 6.7 9.2 6.8 9.2 C 6.8 9.2 6.8 9.2 6.8 9.2 Z M 11.7 13.6 C 11.6 13.6 11.6 13.6 11.7 13.6 M 9.4 6.2 C 9.4 6.2 9.4 6.2 9.4 6.2 C 8.4 5.9 8.6 5.9 9.4 6.2 C 9.4 6.2 9.4 6.2 9.4 6.2 M 11.8 12.1 C 11.8 12.1 11.8 12.1 11.8 12.1 C 11.8 12.1 11.8 12.1 11.8 12.1 Z M 12.6 14.4 C 12.6 14.4 12.6 14.4 12.6 14.4 C 12.6 14.4 12.6 14.4 12.6 14.4 Z M 9.8 5.6 C 8.4 4.6 9.0 4.9 9.8 5.6 M 13.5 5.3 C 13.5 5.3 13.5 5.3 13.5 5.3 C 13.5 5.3 13.5 5.3 13.5 5.3 Z M 13.5 5.3 " fill="#FEFFFE"></path></g></svg>