<?xml version="1.0" encoding="UTF-8" standalone="no"?><svg xmlns="http://www.w3.org/2000/svg" xmlns:xlink="http://www.w3.org/1999/xlink" clip-rule="evenodd" stroke-miterlimit="10" viewBox="0 0 48 47"><desc>SVG generated by Keynote</desc><defs></defs><g transform="matrix(1.00, 0.00, -0.00, -1.00, 0.0, 47.0)"><path d="M 26.2 36.1 C 25.9 36.4 24.3 36.0 24.1 36.3 M 26.2 36.1 C 23.6 33.9 21.3 33.7 18.2 33.3 C 15.0 33.3 19.1 35.4 19.0 36.3 C 14.7 37.2 14.3 35.6 14.3 33.2 C 13.1 34.8 8.0 32.0 9.1 34.9 C 16.2 34.9 3.8 35.6 10.3 37.4 C 11.1 37.8 9.3 38.6 8.5 38.6 C 10.9 39.8 7.0 41.3 10.9 42.2 C 11.6 44.0 10.8 43.2 13.6 44.7 C 14.8 44.9 14.2 44.2 14.0 43.8 C 14.0 41.6 17.4 45.0 19.2 43.6 C 22.2 46.5 22.9 43.1 20.8 41.9 C 22.8 42.3 26.4 45.2 27.3 43.2 C 29.2 44.6 33.9 43.7 29.7 41.9 C 26.9 40.7 28.7 39.9 28.6 39.2 C 27.5 38.6 25.2 39.5 24.5 38.9 C 25.1 38.5 28.0 37.5 24.4 37.5 C 25.0 36.6 22.9 36.0 26.2 36.1 C 26.2 36.1 26.2 36.1 26.2 36.1 Z M 13.5 34.5 C 13.3 33.7 14.6 34.5 13.5 34.5 C 13.5 34.5 13.5 34.5 13.5 34.5 Z M 26.4 44.6 C 26.0 43.9 27.9 44.7 26.4 44.6 C 26.4 44.6 26.4 44.6 26.4 44.6 Z M 14.7 43.9 C 14.5 43.1 16.2 43.9 14.7 43.9 C 14.7 43.9 14.7 43.9 14.7 43.9 Z M 16.7 35.0 C 18.8 35.6 15.4 36.0 14.9 35.3 C 15.3 35.4 16.0 34.3 16.7 35.0 C 16.7 35.0 16.7 35.0 16.7 35.0 Z M 18.4 39.4 C 18.5 39.1 19.3 39.0 19.5 39.8 C 19.0 40.0 18.3 39.6 18.4 39.4 C 18.4 39.4 18.4 39.4 18.4 39.4 Z M 7.7 36.2 C 7.8 36.0 8.6 35.9 8.5 36.6 C 8.0 36.8 7.5 36.5 7.7 36.2 C 7.7 36.2 7.7 36.2 7.7 36.2 Z M 19.6 37.0 C 20.1 37.1 20.6 37.8 20.0 37.9 C 19.6 37.6 18.1 37.4 19.6 37.0 C 19.6 37.0 19.6 37.0 19.6 37.0 Z M 21.5 34.4 C 23.2 34.8 20.6 36.0 20.5 35.6 C 19.7 35.1 20.3 33.8 21.5 34.4 C 21.5 34.4 21.5 34.4 21.5 34.4 Z M 21.0 38.0 C 22.6 38.4 20.6 38.6 21.0 38.0 C 21.0 38.0 21.0 38.0 21.0 38.0 Z M 9.3 41.9 C 11.0 42.2 8.7 42.4 9.3 41.9 C 9.3 41.9 9.3 41.9 9.3 41.9 Z M 18.5 44.2 C 20.3 44.6 17.9 44.8 18.5 44.2 C 18.5 44.2 18.5 44.2 18.5 44.2 Z M 13.5 36.5 C 11.1 36.4 12.8 34.5 13.5 36.5 C 13.5 36.5 13.5 36.5 13.5 36.5 Z M 24.9 34.3 C 22.7 34.2 23.5 32.3 24.9 34.3 C 24.9 34.3 24.9 34.3 24.9 34.3 Z M 11.3 36.1 C 11.7 38.2 14.2 31.1 11.2 33.2 C 8.7 33.6 9.0 27.7 11.2 30.0 C 11.5 28.5 11.7 28.5 10.5 27.2 C 12.3 27.7 13.2 24.6 12.3 22.8 C 10.7 21.0 12.1 25.1 10.4 22.0 C 10.0 16.8 8.7 21.3 6.7 18.0 C 6.7 17.7 7.7 18.3 7.1 17.4 C 5.2 15.9 3.9 18.5 2.5 16.0 C 2.8 17.1 0.7 20.6 2.4 19.5 C 4.1 19.9 0.2 23.6 3.1 24.3 C 1.8 25.3 3.7 27.5 2.0 28.4 C 1.7 29.5 3.2 29.9 3.6 29.8 C 5.0 30.1 0.5 30.4 2.9 32.7 C 2.2 32.7 2.5 37.8 3.6 34.2 C 3.4 35.2 2.7 40.7 5.4 38.0 C 6.6 34.5 8.1 41.6 8.2 37.6 C 8.5 34.6 8.0 33.9 9.4 36.3 C 9.2 37.0 9.5 40.5 10.7 37.6 C 10.3 36.9 10.6 35.6 11.3 36.1 C 11.3 36.1 11.3 36.1 11.3 36.1 Z M 7.4 36.3 C 7.3 34.5 8.4 36.3 7.4 36.3 C 7.4 36.3 7.4 36.3 7.4 36.3 Z M 1.4 27.9 C 1.3 25.7 2.4 28.1 1.4 27.9 C 1.4 27.9 1.4 27.9 1.4 27.9 Z M 12.0 31.3 C 11.1 30.3 13.9 31.0 12.0 31.3 C 12.0 31.3 12.0 31.3 12.0 31.3 Z M 3.6 32.0 C 3.6 31.9 3.9 32.4 4.1 32.8 C 4.0 32.7 3.6 32.2 3.6 32.0 C 3.6 32.0 3.6 32.0 3.6 32.0 Z M 11.9 28.7 C 10.6 25.8 14.1 29.1 11.9 28.7 C 11.9 28.7 11.9 28.7 11.9 28.7 Z M 9.3 22.6 C 6.6 20.7 9.9 20.3 9.3 22.6 C 9.3 22.6 9.3 22.6 9.3 22.6 Z M 3.3 23.4 C 3.9 24.2 3.0 23.8 3.3 23.4 C 3.3 23.4 3.3 23.4 3.3 23.4 Z M 2.9 36.8 C 3.5 37.3 2.6 37.3 2.9 36.8 C 2.9 36.8 2.9 36.8 2.9 36.8 Z M 3.6 19.8 C 4.6 20.6 3.0 20.6 3.6 19.8 C 3.6 19.8 3.6 19.8 3.6 19.8 Z M 10.8 30.6 C 13.0 33.3 7.7 32.5 10.8 30.6 C 10.8 30.6 10.8 30.6 10.8 30.6 Z M 11.1 34.5 C 11.5 36.1 9.7 34.0 10.0 33.4 C 10.3 33.5 10.9 34.3 11.1 34.5 C 11.1 34.5 11.1 34.5 11.1 34.5 Z M 10.6 28.1 C 11.7 30.0 10.0 29.4 10.6 28.1 C 10.6 28.1 10.6 28.1 10.6 28.1 Z M 11.8 32.3 C 11.5 33.0 11.5 31.6 11.8 32.3 C 11.8 32.3 11.8 32.3 11.8 32.3 Z M 12.9 26.3 C 12.6 26.9 12.6 25.6 12.9 26.3 C 12.9 26.3 12.9 26.3 12.9 26.3 Z M 12.2 36.5 C 11.9 37.2 11.9 35.8 12.2 36.5 C 12.2 36.5 12.2 36.5 12.2 36.5 Z M 11.4 26.2 C 10.4 25.5 8.3 26.7 10.1 23.6 C 10.8 23.3 12.2 25.6 11.4 26.2 C 11.4 26.2 11.4 26.2 11.4 26.2 Z M 29.7 36.2 C 22.5 33.1 26.9 38.5 27.2 39.5 C 27.2 40.9 28.6 41.9 30.5 42.9 C 34.2 46.3 30.3 39.4 33.6 42.8 C 38.9 47.3 32.6 38.8 37.1 43.6 C 37.8 44.8 39.7 43.8 39.2 43.5 C 42.5 45.8 40.8 41.7 40.4 41.3 C 41.7 41.9 45.0 45.2 45.7 43.9 C 45.5 43.4 45.2 42.8 44.8 42.0 C 43.7 38.7 48.0 41.0 45.0 39.4 C 48.3 40.0 44.1 37.4 45.2 36.5 C 47.0 36.3 42.4 34.6 45.8 34.6 C 43.1 32.2 47.7 36.7 45.7 29.4 C 45.5 32.3 43.5 26.2 45.4 27.6 C 47.3 30.3 44.6 24.7 45.8 22.0 C 44.8 21.3 42.3 18.8 45.0 18.6 C 48.2 14.6 43.1 16.5 45.7 14.3 C 46.8 12.8 44.5 13.6 44.6 12.9 C 46.6 10.7 45.3 10.6 45.8 6.6 C 46.1 4.3 45.9 3.5 45.4 3.4 C 44.1 4.1 43.3 5.2 42.6 6.3 C 41.9 7.1 41.2 8.0 40.4 8.4 C 40.2 8.5 40.0 8.6 39.8 8.6 C 39.4 8.9 38.9 9.7 38.3 10.5 C 36.4 12.9 34.3 15.8 37.7 12.1 C 36.3 13.7 41.3 14.2 36.0 15.6 C 38.1 15.6 33.8 17.0 36.4 17.8 C 40.1 10.9 37.9 21.7 36.1 18.5 C 35.0 19.6 35.2 20.8 36.1 19.5 C 39.5 17.7 34.5 22.2 38.7 19.8 C 37.5 22.6 41.2 21.5 38.6 22.6 C 34.2 23.3 39.8 22.3 38.5 23.8 C 38.4 27.0 33.4 24.1 36.7 26.0 C 34.5 27.7 38.7 27.2 39.2 28.5 C 42.3 29.9 36.9 30.4 36.5 28.1 C 38.1 30.0 35.0 27.7 36.9 29.8 C 39.8 30.2 33.9 29.3 36.2 30.5 C 36.9 32.1 38.6 32.7 38.7 33.2 C 38.7 35.1 35.9 32.2 38.0 34.3 C 39.1 35.7 35.5 33.2 36.4 34.2 C 36.5 33.4 37.4 34.8 38.0 36.1 C 37.7 36.5 37.0 36.7 36.3 36.0 C 37.4 35.8 32.2 32.3 33.5 34.5 C 40.3 40.7 30.4 32.9 31.4 35.1 C 35.1 38.6 27.2 35.5 28.1 33.9 C 28.2 34.2 29.8 36.2 29.7 36.2 M 36.7 35.1 C 36.8 35.1 36.9 35.1 36.9 35.1 C 37.5 35.2 37.5 35.3 37.2 35.4 C 36.8 35.5 36.0 35.5 36.7 35.1 M 35.7 34.1 C 37.7 35.3 33.4 33.3 35.4 33.8 C 35.5 33.8 35.5 34.1 35.7 34.1 M 35.8 29.0 C 36.8 29.6 35.3 29.3 35.8 29.0 M 38.0 28.8 C 38.9 28.1 38.1 30.3 38.0 28.8 M 37.3 15.3 C 42.4 13.7 34.4 18.3 37.3 15.3 M 36.2 24.0 C 36.9 25.6 34.1 23.5 36.2 24.0 M 37.5 24.6 C 38.4 25.5 36.4 24.6 37.5 24.6 M 37.3 17.8 C 37.4 17.6 37.4 17.6 37.3 17.8 C 37.3 17.8 37.3 17.8 37.3 17.8 Z M 37.4 13.8 C 37.4 13.8 37.4 13.8 37.4 13.8 C 37.4 13.8 37.4 13.8 37.4 13.8 Z M 37.8 21.5 C 36.6 22.9 37.4 19.6 37.8 21.5 C 37.8 21.5 37.8 21.5 37.8 21.5 Z M 45.2 10.6 C 45.3 10.7 45.3 10.7 45.2 10.6 C 45.2 10.6 45.2 10.6 45.2 10.6 Z M 37.6 37.4 C 37.6 37.5 37.6 37.5 37.6 37.4 C 37.6 37.4 37.6 37.4 37.6 37.4 Z M 30.6 35.5 C 31.2 36.1 29.2 34.9 30.6 35.5 C 30.6 35.5 30.6 35.5 30.6 35.5 Z M 30.1 41.3 C 30.1 41.4 30.1 41.4 30.1 41.3 C 30.1 41.3 30.1 41.3 30.1 41.3 Z M 38.2 40.1 C 38.2 40.2 38.2 40.2 38.2 40.1 C 38.2 40.1 38.2 40.1 38.2 40.1 Z M 35.5 36.3 C 32.1 33.5 38.3 37.0 35.5 36.3 C 35.5 36.3 35.5 36.3 35.5 36.3 Z M 44.9 22.9 C 43.7 22.9 45.4 21.1 44.9 22.9 C 44.9 22.9 44.9 22.9 44.9 22.9 Z M 39.1 29.1 C 38.5 28.7 39.4 28.5 39.1 29.1 C 39.1 29.1 39.1 29.1 39.1 29.1 Z M 35.3 29.6 C 34.6 29.1 35.6 29.2 35.3 29.6 C 35.3 29.6 35.3 29.6 35.3 29.6 Z M 30.0 34.7 C 30.0 34.5 30.0 34.5 30.0 34.7 C 30.0 34.7 30.0 34.7 30.0 34.7 Z M 33.7 36.8 C 30.2 34.2 37.0 38.2 33.7 36.8 C 33.7 36.8 33.7 36.8 33.7 36.8 Z M 31.9 37.6 C 33.5 38.6 29.8 37.1 31.9 37.6 M 36.6 41.6 C 37.5 40.5 38.5 46.4 36.6 41.6 C 36.6 41.6 36.6 41.6 36.6 41.6 Z M 44.5 39.5 C 44.6 39.5 44.6 39.5 44.5 39.5 C 44.5 39.5 44.5 39.5 44.5 39.5 Z M 36.8 33.8 C 36.9 32.7 37.4 35.1 36.8 33.8 C 36.8 33.8 36.8 33.8 36.8 33.8 Z M 26.0 34.4 C 27.4 34.5 25.5 35.0 26.0 34.4 C 26.0 34.4 26.0 34.4 26.0 34.4 Z M 41.9 31.8 C 41.5 29.0 43.4 34.3 41.9 31.8 C 41.9 31.8 41.9 31.8 41.9 31.8 Z M 38.9 22.2 C 38.9 22.1 38.9 22.1 38.9 22.2 C 38.9 22.2 38.9 22.2 38.9 22.2 Z M 37.8 20.9 C 37.8 20.8 37.8 20.8 37.8 20.9 C 37.8 20.9 37.8 20.9 37.8 20.9 Z M 40.5 13.2 C 40.6 13.1 40.6 13.1 40.5 13.2 C 40.5 13.2 40.5 13.2 40.5 13.2 Z M 36.5 20.0 C 36.6 20.0 36.6 20.0 36.5 20.0 C 36.5 20.0 36.5 20.0 36.5 20.0 Z M 37.2 16.0 C 37.3 15.8 37.3 15.8 37.2 16.0 C 37.2 16.0 37.2 16.0 37.2 16.0 Z M 34.9 17.9 C 35.0 17.7 35.0 17.7 34.9 17.9 C 34.9 17.9 34.9 17.9 34.9 17.9 Z M 46.5 26.2 C 46.6 26.0 46.6 26.0 46.5 26.2 C 46.5 26.2 46.5 26.2 46.5 26.2 Z M 31.7 33.8 C 32.0 34.0 32.0 34.0 31.7 33.8 C 31.7 33.8 31.7 33.8 31.7 33.8 Z M 38.2 15.6 C 38.3 15.6 38.3 15.6 38.2 15.6 C 38.2 15.6 38.2 15.6 38.2 15.6 Z M 40.3 26.2 C 42.6 26.5 37.3 26.4 40.2 25.9 C 40.3 25.9 40.0 26.2 40.3 26.2 M 44.1 24.8 C 44.1 24.9 44.1 24.9 44.1 24.8 C 44.1 24.8 44.1 24.8 44.1 24.8 Z M 45.5 32.1 C 45.5 32.3 45.5 32.3 45.5 32.1 C 45.5 32.1 45.5 32.1 45.5 32.1 Z M 36.1 20.8 C 34.8 21.2 37.0 19.5 36.1 20.9 M 44.5 10.5 C 43.2 11.6 45.4 8.1 44.5 10.7 M 25.0 35.2 C 25.3 36.2 23.7 34.7 25.0 35.2 M 46.7 34.3 C 47.6 35.1 46.1 35.4 46.7 34.3 M 43.8 29.8 C 42.5 29.6 44.8 28.4 43.8 30.1 M 44.4 15.2 C 44.4 15.1 44.4 15.1 44.4 15.2 C 44.4 15.2 44.4 15.2 44.4 15.2 Z M 37.0 32.2 C 37.1 32.2 37.1 32.2 37.0 32.2 C 37.0 32.2 37.0 32.2 37.0 32.2 Z M 39.7 27.9 C 38.0 28.1 40.8 27.1 39.7 27.9 M 40.1 36.3 C 37.9 35.5 40.8 34.8 40.1 36.3 M 45.0 6.5 C 42.4 10.4 46.4 3.8 45.0 6.5 M 38.5 18.4 C 35.9 20.4 39.9 16.8 38.5 18.4 M 38.1 31.9 C 36.8 31.1 38.9 31.1 38.1 31.9 M 27.9 35.0 C 26.5 34.8 28.8 34.0 27.9 35.0 M 44.5 19.7 C 44.6 19.6 44.6 19.6 44.5 19.7 C 44.5 19.7 44.5 19.7 44.5 19.7 Z M 40.3 44.9 C 40.5 45.0 40.5 45.0 40.3 44.9 C 40.3 44.9 40.3 44.9 40.3 44.9 Z M 36.5 12.5 C 36.6 12.3 36.6 12.3 36.5 12.5 C 36.5 12.5 36.5 12.5 36.5 12.5 Z M 39.7 18.8 C 39.9 18.7 39.9 18.7 39.7 18.8 C 39.7 18.8 39.7 18.8 39.7 18.8 Z M 36.1 14.8 C 36.3 14.6 36.3 14.6 36.1 14.8 C 36.1 14.8 36.1 14.8 36.1 14.8 Z M 41.7 23.1 C 41.8 23.0 41.8 23.0 41.7 23.1 C 41.7 23.1 41.7 23.1 41.7 23.1 Z M 35.1 23.8 C 35.2 23.8 35.2 23.8 35.1 23.8 C 35.1 23.8 35.1 23.8 35.1 23.8 Z M 37.9 28.1 C 38.0 28.1 38.0 28.1 37.9 28.1 C 37.9 28.1 37.9 28.1 37.9 28.1 Z M 35.6 22.3 C 35.2 20.4 37.8 23.3 35.6 22.3 C 35.6 22.3 35.6 22.3 35.6 22.3 Z M 42.2 27.3 C 42.3 27.3 42.3 27.3 42.2 27.3 C 42.2 27.3 42.2 27.3 42.2 27.3 Z M 37.5 26.6 C 35.7 24.8 40.7 26.4 37.5 26.6 M 36.0 32.0 C 35.0 30.9 37.5 33.1 36.0 32.0 M 44.3 42.8 C 44.4 42.9 44.4 42.9 44.3 42.8 C 44.3 42.8 44.3 42.8 44.3 42.8 Z M 44.0 41.4 C 44.1 41.4 44.1 41.4 44.0 41.4 C 44.0 41.4 44.0 41.4 44.0 41.4 Z M 35.6 33.1 C 35.6 33.1 35.6 33.1 35.6 33.1 C 35.6 33.1 35.6 33.1 35.6 33.1 Z M 46.5 43.7 C 46.5 43.6 46.5 43.6 46.5 43.7 C 46.5 43.7 46.5 43.7 46.5 43.7 Z M 35.3 24.6 C 35.3 24.6 35.3 24.6 35.3 24.6 C 35.3 24.6 35.3 24.6 35.3 24.6 Z M 35.2 14.6 C 35.2 14.6 35.2 14.6 35.2 14.6 C 35.2 14.6 35.2 14.6 35.2 14.6 Z M 33.2 41.9 C 33.4 42.0 33.4 42.0 33.2 41.9 C 33.2 41.9 33.2 41.9 33.2 41.9 Z M 37.9 23.6 C 38.0 23.5 38.0 23.5 37.9 23.6 C 37.9 23.6 37.9 23.6 37.9 23.6 Z M 41.5 42.4 C 41.6 42.5 41.6 42.5 41.5 42.4 C 41.5 42.4 41.5 42.4 41.5 42.4 Z M 37.3 24.3 C 37.4 24.3 37.4 24.3 37.3 24.3 C 37.3 24.3 37.3 24.3 37.3 24.3 Z M 45.0 20.2 C 45.0 20.1 45.0 20.1 45.0 20.2 C 45.0 20.2 45.0 20.2 45.0 20.2 Z M 46.5 15.4 C 46.5 15.3 46.5 15.3 46.5 15.4 C 46.5 15.4 46.5 15.4 46.5 15.4 Z M 40.4 21.2 C 40.5 21.1 40.5 21.1 40.4 21.2 C 40.4 21.2 40.4 21.2 40.4 21.2 Z M 37.7 39.6 C 29.8 37.3 41.7 38.6 37.7 39.6 M 40.9 20.1 C 40.4 24.4 38.4 17.7 40.9 20.1 C 40.3 19.8 40.9 20.0 40.9 20.1 M 34.5 13.4 C 35.9 12.4 37.2 11.5 38.3 10.5 C 39.5 9.5 40.5 8.5 41.3 7.5 C 41.7 7.1 42.0 6.6 42.3 6.1 C 42.5 4.9 38.0 9.8 41.8 5.6 C 44.8 4.9 46.2 -0.5 41.6 4.8 C 37.9 5.5 44.0 1.4 40.1 3.5 C 36.2 4.0 39.1 2.4 36.0 2.8 C 33.0 5.7 35.0 1.4 33.0 4.1 C 35.9 1.1 29.9 4.9 30.2 3.6 C 33.5 1.7 20.7 3.5 27.1 4.4 C 24.5 5.8 25.1 3.3 24.1 3.0 C 23.0 4.7 19.3 1.6 18.0 3.3 C 18.4 3.7 19.3 3.8 19.7 4.4 C 20.3 5.5 17.8 4.2 18.1 4.2 C 17.2 4.9 14.1 6.7 17.1 3.6 C 16.8 2.1 13.6 4.2 13.1 2.9 C 8.9 2.9 13.6 5.8 10.7 3.6 C 7.8 3.6 5.7 3.6 6.1 3.9 C 4.4 3.7 2.8 2.5 2.2 3.0 C 2.3 3.3 2.5 3.7 2.8 4.2 C -0.4 4.6 8.9 12.0 2.7 7.6 C 4.2 9.7 0.1 7.2 3.9 10.3 C 2.2 7.7 1.0 13.5 3.7 12.7 C 4.7 14.1 -0.2 14.9 3.7 16.8 C 6.5 19.9 9.3 21.4 12.0 20.7 C 9.8 19.4 14.3 20.0 10.6 18.9 C 9.3 20.2 9.2 13.8 10.6 16.2 C 15.1 20.2 7.8 10.7 11.0 12.4 C 10.3 12.2 9.8 11.2 9.5 10.3 C 10.2 9.9 12.1 10.3 13.1 12.4 C 14.1 12.7 13.0 11.1 15.4 13.1 C 12.8 12.8 13.9 9.5 15.1 11.6 C 15.6 12.9 19.5 13.9 18.3 12.0 C 14.4 7.3 19.7 13.0 19.7 11.1 C 21.7 10.1 20.7 15.1 21.1 11.7 C 21.6 12.3 24.3 12.3 22.7 13.2 C 22.0 12.8 24.3 8.1 24.5 12.1 C 22.0 14.3 27.5 13.3 26.9 12.1 C 22.1 9.9 33.1 9.6 28.2 11.8 C 29.2 14.0 27.4 12.6 30.2 11.7 C 30.4 10.5 33.3 9.2 31.3 11.8 C 29.5 15.6 35.1 6.7 33.5 11.9 C 32.1 14.1 38.2 10.2 34.7 12.7 C 34.4 13.0 34.4 13.4 34.5 13.4 M 34.1 13.0 C 35.1 12.1 33.6 14.0 34.1 13.0 M 35.1 12.2 C 35.1 12.2 35.1 12.2 35.1 12.2 C 35.1 12.2 35.1 12.2 35.1 12.2 Z M 30.6 11.6 C 30.6 11.7 30.6 11.7 30.6 11.6 C 30.6 11.6 30.6 11.6 30.6 11.6 Z M 28.6 2.1 C 28.6 2.2 28.6 2.2 28.6 2.1 C 28.6 2.1 28.6 2.1 28.6 2.1 Z M 27.4 11.4 C 27.4 11.4 27.4 11.4 27.4 11.4 C 27.4 11.4 27.4 11.4 27.4 11.4 Z M 32.8 11.0 C 32.8 11.0 32.8 11.0 32.8 11.0 C 32.8 11.0 32.8 11.0 32.8 11.0 Z M 27.3 12.7 C 27.4 11.3 28.0 13.8 27.2 13.0 C 27.2 12.9 27.4 12.9 27.3 12.7 M 23.4 13.3 C 23.3 13.1 23.3 13.1 23.4 13.3 M 6.3 2.2 C 6.1 2.0 6.1 2.0 6.3 2.2 M 14.4 13.4 C 14.2 13.2 14.2 13.2 14.4 13.4 M 19.1 11.9 C 17.8 12.0 18.4 11.2 19.1 11.9 M 11.8 14.1 C 12.8 13.2 12.6 16.8 11.8 14.1 M 12.7 16.6 C 12.5 16.7 12.5 16.7 12.7 16.6 M 16.2 12.9 C 16.2 12.8 16.2 12.8 16.2 12.9 C 16.2 12.9 16.2 12.9 16.2 12.9 Z M 19.8 12.4 C 21.6 13.2 18.8 13.8 19.8 12.4 M 29.4 12.9 C 28.3 13.6 30.3 11.1 29.4 12.9 M 31.7 12.1 C 31.7 12.1 31.7 12.1 31.7 12.1 C 31.7 12.1 31.7 12.1 31.7 12.1 Z M 13.1 12.7 C 13.1 12.7 13.1 12.7 13.1 12.7 C 13.1 12.7 13.1 12.7 13.1 12.7 Z M 12.2 13.6 C 12.1 13.5 12.1 13.5 12.2 13.6 C 12.2 13.6 12.2 13.6 12.2 13.6 Z M 1.8 8.3 C 1.7 8.2 1.7 8.2 1.8 8.3 C 1.8 8.3 1.8 8.3 1.8 8.3 Z M 32.4 7.8 C 33.7 8.5 29.4 11.2 30.7 8.7 C 31.0 7.6 32.1 8.0 32.4 7.8 M 20.2 9.3 C 18.9 5.7 22.4 14.1 20.2 9.3 M 10.3 14.9 C 6.1 12.9 13.3 15.8 10.3 14.9 M 11.1 18.4 C 10.2 18.7 10.6 12.5 11.7 17.9 C 12.4 18.9 11.5 18.5 11.1 18.4 M 23.2 11.6 C 22.7 9.6 25.2 12.4 23.2 11.6 M 11.3 5.7 C 11.3 7.0 10.0 8.1 9.2 5.9 C 7.1 3.2 11.8 4.6 11.3 5.7 M 35.4 11.0 C 31.9 14.1 37.6 8.3 35.4 11.0 M 30.2 10.7 C 30.1 10.8 30.1 10.8 30.2 10.7 C 30.2 10.7 30.2 10.7 30.2 10.7 Z M 27.9 11.2 C 27.9 11.0 27.9 11.0 27.9 11.2 M 32.4 13.7 C 32.5 13.5 32.5 13.5 32.4 13.7 M 13.5 9.0 C 13.2 8.7 13.2 8.7 13.5 9.0 M 19.1 11.0 C 15.6 7.9 20.0 10.4 19.1 11.0 M 24.1 5.1 C 23.2 3.6 26.0 4.9 24.1 5.1 M 16.5 12.2 C 13.1 9.3 17.0 9.4 16.5 12.2 M 20.2 11.4 C 20.1 11.4 20.1 11.4 20.2 11.4 C 20.2 11.4 20.2 11.4 20.2 11.4 Z M 10.3 5.4 C 10.3 5.3 10.3 5.3 10.3 5.4 C 10.3 5.4 10.3 5.4 10.3 5.4 Z M 9.6 5.5 C 9.6 5.4 9.6 5.4 9.6 5.5 C 9.6 5.5 9.6 5.5 9.6 5.5 Z M 15.1 12.6 C 15.1 12.5 15.1 12.5 15.1 12.6 C 15.1 12.6 15.1 12.6 15.1 12.6 Z M 36.8 4.0 C 34.8 3.8 38.8 3.5 36.8 4.0 C 36.8 4.0 36.8 4.0 36.8 4.0 Z M 25.9 12.7 C 23.7 10.4 27.9 10.5 25.9 12.7 C 25.9 12.7 25.9 12.7 25.9 12.7 Z M 23.3 8.9 C 23.3 8.7 23.3 8.7 23.3 8.9 C 23.3 8.9 23.3 8.9 23.3 8.9 Z M 18.3 14.1 C 18.2 13.9 18.2 13.9 18.3 14.1 C 18.3 14.1 18.3 14.1 18.3 14.1 Z M 35.9 3.6 C 36.0 3.4 36.0 3.4 35.9 3.6 C 35.9 3.6 35.9 3.6 35.9 3.6 Z M 10.2 11.3 C 10.0 11.2 10.0 11.2 10.2 11.3 C 10.2 11.3 10.2 11.3 10.2 11.3 Z M 15.6 4.9 C 15.4 6.0 15.1 4.0 15.6 4.9 C 15.6 4.9 15.6 4.9 15.6 4.9 Z M 12.5 4.9 C 12.4 4.9 12.4 4.9 12.5 4.9 C 12.5 4.9 12.5 4.9 12.5 4.9 Z M 12.9 17.4 C 12.9 17.4 12.9 17.4 12.9 17.4 C 12.9 17.4 12.9 17.4 12.9 17.4 Z M 1.9 2.1 C 1.8 2.1 1.8 2.1 1.9 2.1 C 1.9 2.1 1.9 2.1 1.9 2.1 Z M 4.8 7.5 C 4.8 7.4 4.8 7.4 4.8 7.5 C 4.8 7.5 4.8 7.5 4.8 7.5 Z M 15.0 11.8 C 13.5 12.4 14.6 10.5 15.0 11.8 C 15.0 11.8 15.0 11.8 15.0 11.8 Z M 5.8 15.2 C 5.6 15.2 5.6 15.2 5.8 15.2 C 5.8 15.2 5.8 15.2 5.8 15.2 Z M 9.8 19.4 C 9.6 19.3 9.6 19.3 9.8 19.4 C 9.8 19.4 9.8 19.4 9.8 19.4 Z M 11.9 21.5 C 11.7 21.4 11.7 21.4 11.9 21.5 C 11.9 21.5 11.9 21.5 11.9 21.5 Z M 29.2 6.9 C 29.2 7.0 29.2 7.0 29.2 6.9 C 29.2 6.9 29.2 6.9 29.2 6.9 Z M 28.0 13.4 C 28.0 13.5 28.0 13.5 28.0 13.4 C 28.0 13.4 28.0 13.4 28.0 13.4 Z M 25.6 13.7 C 25.6 13.8 25.6 13.8 25.6 13.7 C 25.6 13.7 25.6 13.7 25.6 13.7 Z M 31.2 2.9 C 31.2 3.0 31.2 3.0 31.2 2.9 C 31.2 2.9 31.2 2.9 31.2 2.9 Z M 16.4 8.5 C 16.5 8.6 16.5 8.6 16.4 8.5 C 16.4 8.5 16.4 8.5 16.4 8.5 Z M 13.8 5.8 C 13.9 5.9 13.9 5.9 13.8 5.8 C 13.8 5.8 13.8 5.8 13.8 5.8 Z M 16.0 2.3 C 16.1 2.3 16.1 2.3 16.0 2.3 C 16.0 2.3 16.0 2.3 16.0 2.3 Z M 11.3 3.5 C 11.4 3.6 11.4 3.6 11.3 3.5 C 11.3 3.5 11.3 3.5 11.3 3.5 Z M 41.8 4.1 C 41.8 4.0 41.8 4.0 41.8 4.1 C 41.8 4.1 41.8 4.1 41.8 4.1 Z M 37.7 9.1 C 37.9 9.0 37.9 9.0 37.7 9.1 C 37.7 9.1 37.7 9.1 37.7 9.1 Z M 17.8 12.1 C 17.9 13.2 16.1 10.7 17.8 12.1 M 21.5 11.5 C 21.5 11.4 21.5 11.4 21.5 11.5 C 21.5 11.5 21.5 11.5 21.5 11.5 Z M 11.2 11.9 C 11.1 11.9 11.1 11.8 11.0 11.8 C 10.7 11.5 10.6 11.4 10.5 11.3 C 10.4 10.9 13.4 12.8 11.2 11.9 C 11.2 11.9 11.2 11.9 11.2 11.9 Z M 6.2 3.5 C 6.1 3.5 6.1 3.5 6.2 3.5 C 6.2 3.5 6.2 3.5 6.2 3.5 Z M 5.3 4.4 C 5.0 4.2 5.0 4.2 5.3 4.4 C 5.3 4.4 5.3 4.4 5.3 4.4 Z M 9.0 15.4 C 8.9 15.4 8.9 15.4 9.0 15.4 M 22.3 13.3 C 21.6 12.4 21.8 12.6 22.3 13.3 M 11.1 13.3 C 11.0 13.2 11.0 13.2 11.1 13.3 C 11.1 13.3 11.1 13.3 11.1 13.3 Z M 10.2 17.8 C 10.1 17.7 10.1 17.7 10.2 17.8 C 10.2 17.8 10.2 17.8 10.2 17.8 Z M 24.9 11.9 C 24.9 9.5 25.5 10.1 24.9 11.9 M 33.1 11.1 C 33.2 11.0 33.2 11.0 33.1 11.1 C 33.1 11.1 33.1 11.1 33.1 11.1 Z M 33.1 11.1 " fill="#FEFFFE"></path></g></svg>