<?xml version="1.0" encoding="UTF-8" standalone="no"?><svg xmlns="http://www.w3.org/2000/svg" xmlns:xlink="http://www.w3.org/1999/xlink" clip-rule="evenodd" stroke-miterlimit="10" viewBox="0 0 32 30"><desc>SVG generated by Keynote</desc><defs></defs><g transform="matrix(1.00, 0.00, -0.00, -1.00, 0.0, 30.0)"><path d="M 18.6 15.2 C 18.6 15.4 18.1 15.9 18.2 16.0 M 18.6 15.2 C 17.2 15.8 16.7 16.6 16.0 17.6 C 15.3 18.8 16.9 17.7 17.2 17.8 C 16.7 19.6 16.1 19.4 15.2 19.0 C 15.5 19.7 13.5 21.0 14.8 21.2 C 16.2 18.6 14.0 23.3 15.9 21.2 C 16.3 21.0 16.2 21.9 16.1 22.1 C 17.0 21.5 16.7 23.2 17.8 22.0 C 18.7 22.0 18.2 22.2 19.3 21.4 C 19.6 21.0 19.2 21.1 19.0 21.1 C 18.2 20.7 20.2 20.1 20.0 19.2 C 21.7 18.6 20.6 17.7 19.7 18.2 C 20.2 17.6 22.0 16.8 21.5 16.0 C 22.4 15.6 22.9 13.7 21.4 14.9 C 20.4 15.8 20.5 15.0 20.2 14.9 C 19.8 15.2 19.6 16.2 19.3 16.3 C 19.3 16.0 19.4 14.8 18.8 16.1 C 18.5 15.7 17.9 16.4 18.6 15.2 C 18.6 15.2 18.6 15.2 18.6 15.2 Z M 15.5 19.5 C 15.2 19.5 15.7 19.1 15.5 19.5 C 15.5 19.5 15.5 19.5 15.5 19.5 Z M 21.8 16.7 C 21.5 16.7 22.1 16.1 21.8 16.7 C 21.8 16.7 21.8 16.7 21.8 16.7 Z M 19.2 20.9 C 18.9 20.8 19.5 20.3 19.2 20.9 C 19.2 20.9 19.2 20.9 19.2 20.9 Z M 16.3 18.5 C 16.9 17.8 16.4 19.1 16.1 19.2 C 16.2 19.0 15.9 18.6 16.3 18.5 C 16.3 18.5 16.3 18.5 16.3 18.5 Z M 18.3 18.7 C 18.2 18.6 18.3 18.2 18.6 18.3 C 18.6 18.5 18.3 18.7 18.3 18.7 C 18.3 18.7 18.3 18.7 18.3 18.7 Z M 15.0 22.0 C 14.9 21.9 15.1 21.6 15.3 21.8 C 15.3 22.0 15.1 22.1 15.0 22.0 C 15.0 22.0 15.0 22.0 15.0 22.0 Z M 17.6 17.8 C 17.8 17.6 18.1 17.5 18.0 17.8 C 17.8 17.9 17.5 18.4 17.6 17.8 C 17.6 17.8 17.6 17.8 17.6 17.8 Z M 17.0 16.6 C 17.5 16.1 17.4 17.2 17.3 17.2 C 16.9 17.4 16.6 16.9 17.0 16.6 C 17.0 16.6 17.0 16.6 17.0 16.6 Z M 18.3 17.4 C 18.7 16.9 18.4 17.7 18.3 17.4 C 18.3 17.4 18.3 17.4 18.3 17.4 Z M 17.4 22.5 C 17.9 21.9 17.5 22.8 17.4 22.5 C 17.4 22.5 17.4 22.5 17.4 22.5 Z M 20.1 19.5 C 20.6 18.9 20.2 19.8 20.1 19.5 C 20.1 19.5 20.1 19.5 20.1 19.5 Z M 16.2 19.9 C 15.8 20.8 15.4 19.8 16.2 19.9 C 16.2 19.9 16.2 19.9 16.2 19.9 Z M 17.6 15.3 C 17.2 16.1 16.6 15.5 17.6 15.3 C 17.6 15.3 17.6 15.3 17.6 15.3 Z M 16.9 20.8 C 17.5 21.5 17.0 18.4 16.3 19.8 C 15.5 20.4 14.4 18.2 15.7 18.6 C 15.5 18.0 15.6 18.0 14.9 17.7 C 15.6 17.5 15.4 16.2 14.7 15.7 C 13.7 15.4 15.0 16.6 13.8 15.8 C 12.6 14.0 13.1 15.9 11.7 15.1 C 11.6 15.0 12.1 15.0 11.7 14.8 C 10.7 14.6 10.7 15.8 9.7 15.2 C 10.1 15.5 10.0 17.2 10.4 16.5 C 11.1 16.3 10.4 18.4 11.6 18.1 C 11.3 18.7 12.4 19.2 12.0 19.8 C 12.1 20.3 12.7 20.1 12.8 20.0 C 13.4 19.8 11.8 20.8 13.2 21.2 C 12.9 21.4 14.0 23.2 13.7 21.7 C 13.8 22.1 14.6 24.2 15.1 22.7 C 14.9 21.1 16.8 23.5 16.1 22.0 C 15.6 20.8 15.2 20.7 16.2 21.3 C 16.3 21.6 17.1 22.8 17.0 21.5 C 16.7 21.3 16.5 20.8 16.9 20.8 C 16.9 20.8 16.9 20.8 16.9 20.8 Z M 15.5 21.7 C 15.1 21.0 15.9 21.5 15.5 21.7 C 15.5 21.7 15.5 21.7 15.5 21.7 Z M 11.7 19.8 C 11.2 19.0 12.1 19.6 11.7 19.8 C 11.7 19.8 11.7 19.8 11.7 19.8 Z M 16.2 18.9 C 15.7 18.7 16.9 18.4 16.2 18.9 C 16.2 18.9 16.2 18.9 16.2 18.9 Z M 13.3 20.8 C 13.2 20.8 13.5 20.9 13.6 21.0 C 13.5 21.0 13.3 20.9 13.3 20.8 C 13.3 20.8 13.3 20.8 13.3 20.8 Z M 15.7 18.0 C 14.6 17.2 16.6 17.7 15.7 18.0 C 15.7 18.0 15.7 18.0 15.7 18.0 Z M 13.5 16.2 C 12.2 16.1 13.3 15.3 13.5 16.2 C 13.5 16.2 13.5 16.2 13.5 16.2 Z M 11.5 17.7 C 11.9 17.9 11.4 17.9 11.5 17.7 C 11.5 17.7 11.5 17.7 11.5 17.7 Z M 14.0 22.7 C 14.3 22.8 13.9 23.0 14.0 22.7 C 14.0 22.7 14.0 22.7 14.0 22.7 Z M 10.9 16.3 C 11.4 16.4 10.8 16.7 10.9 16.3 C 10.9 16.3 10.9 16.3 10.9 16.3 Z M 15.7 18.9 C 17.0 19.4 14.9 20.2 15.7 18.9 C 15.7 18.9 15.7 18.9 15.7 18.9 Z M 16.5 20.3 C 17.0 20.8 15.9 20.4 15.9 20.1 C 16.0 20.1 16.4 20.2 16.5 20.3 C 16.5 20.3 16.5 20.3 16.5 20.3 Z M 15.1 18.0 C 15.9 18.5 15.1 18.6 15.1 18.0 C 15.1 18.0 15.1 18.0 15.1 18.0 Z M 16.4 19.3 C 16.4 19.6 16.1 19.1 16.4 19.3 C 16.4 19.3 16.4 19.3 16.4 19.3 Z M 15.6 16.9 C 15.6 17.2 15.3 16.7 15.6 16.9 C 15.6 16.9 15.6 16.9 15.6 16.9 Z M 17.3 20.8 C 17.4 21.1 17.1 20.6 17.3 20.8 C 17.3 20.8 17.3 20.8 17.3 20.8 Z M 15.0 17.1 C 14.5 17.1 14.0 18.0 14.0 16.4 C 14.2 16.2 15.2 16.8 15.0 17.1 C 15.0 17.1 15.0 17.1 15.0 17.1 Z M 19.5 13.5 C 16.7 16.1 19.6 15.4 20.0 15.4 C 20.5 15.8 21.2 15.4 22.0 14.7 C 24.1 13.8 20.8 14.0 22.7 13.2 C 25.6 11.8 21.1 12.8 23.9 11.8 C 24.5 11.8 24.6 10.6 24.4 10.8 C 26.0 9.8 24.2 9.6 23.9 9.7 C 24.5 9.2 27.0 8.2 25.9 7.6 C 25.7 7.0 28.6 5.3 26.6 6.4 C 29.1 4.7 26.2 6.2 27.3 5.1 C 28.8 4.0 25.5 6.0 28.3 4.0 C 26.7 4.5 29.2 3.8 29.3 1.9 C 28.8 2.7 28.6 2.4 28.7 2.0 C 28.3 2.1 28.1 2.0 28.8 1.7 C 31.1 0.9 26.8 2.0 26.1 1.5 C 25.1 2.0 22.4 3.0 23.8 1.9 C 23.4 0.5 21.7 2.7 21.9 1.6 C 21.7 1.1 20.8 2.1 20.6 2.0 C 20.5 1.2 19.7 1.8 17.9 1.5 C 13.6 1.1 16.9 3.6 15.7 3.9 C 15.6 4.3 16.6 6.9 16.5 4.9 C 16.6 5.5 19.5 3.4 17.4 5.6 C 18.5 4.7 17.0 6.5 18.7 5.5 C 17.1 3.9 21.5 4.8 18.9 5.6 C 18.8 6.0 19.6 6.0 19.4 5.6 C 20.3 4.2 19.9 6.2 21.0 4.5 C 21.8 5.0 23.2 3.4 22.4 4.5 C 20.3 6.4 22.9 4.0 22.9 4.6 C 24.6 4.6 20.2 6.7 23.1 5.3 C 23.1 5.3 23.1 5.4 23.1 5.4 C 21.3 7.3 24.5 4.7 24.6 5.0 C 26.6 4.0 22.2 7.5 22.5 6.5 C 23.3 6.5 21.5 7.1 22.4 7.1 C 24.6 5.5 20.0 8.9 21.6 8.0 C 21.7 8.4 23.0 7.5 22.9 7.7 C 22.4 8.6 20.8 9.1 22.0 8.7 C 22.6 8.6 20.1 10.0 20.6 9.9 C 21.2 9.0 22.0 10.0 21.0 10.5 C 21.2 9.9 18.7 11.5 19.8 11.4 C 23.7 9.7 18.5 12.5 19.5 12.5 C 21.7 11.6 18.7 14.5 18.3 13.8 C 18.4 13.8 19.5 13.5 19.5 13.5 M 20.8 10.1 C 21.4 9.2 20.8 10.7 20.8 10.1 M 20.2 10.3 C 21.1 9.7 19.4 11.2 20.0 10.4 C 20.0 10.4 20.2 10.4 20.2 10.3 M 21.8 7.3 C 22.4 7.1 21.2 7.9 21.8 7.3 M 23.5 5.9 C 24.4 5.1 23.2 6.6 23.5 5.9 M 17.9 5.1 C 19.8 2.9 17.9 6.3 17.9 5.1 M 21.8 5.5 C 23.0 5.2 20.3 6.4 21.8 5.5 M 22.8 5.0 C 23.7 4.6 22.2 5.5 22.8 5.0 M 19.2 5.1 C 19.2 5.0 19.2 5.0 19.2 5.1 C 19.2 5.1 19.2 5.1 19.2 5.1 Z M 17.2 5.0 C 17.2 5.1 17.2 5.1 17.2 5.0 C 17.2 5.0 17.2 5.0 17.2 5.0 Z M 21.4 4.9 C 21.4 5.4 20.2 5.0 21.4 4.9 C 21.4 4.9 21.4 4.9 21.4 4.9 Z M 19.7 1.8 C 19.8 1.7 19.8 1.7 19.7 1.8 C 19.7 1.8 19.7 1.8 19.7 1.8 Z M 21.8 10.2 C 21.9 10.2 21.9 10.2 21.8 10.2 C 21.8 10.2 21.8 10.2 21.8 10.2 Z M 19.4 13.0 C 19.8 12.8 18.9 13.5 19.4 13.0 C 19.4 13.0 19.4 13.0 19.4 13.0 Z M 21.4 14.5 C 21.4 14.6 21.4 14.6 21.4 14.5 C 21.4 14.5 21.4 14.5 21.4 14.5 Z M 22.9 10.5 C 23.0 10.5 23.0 10.5 22.9 10.5 C 22.9 10.5 22.9 10.5 22.9 10.5 Z M 21.0 10.9 C 19.1 11.8 21.9 9.8 21.0 10.9 C 21.0 10.9 21.0 10.9 21.0 10.9 Z M 26.0 1.9 C 25.3 2.4 25.4 1.7 26.0 1.9 C 26.0 1.9 26.0 1.9 26.0 1.9 Z M 24.3 5.4 C 23.9 5.6 24.7 4.9 24.3 5.4 C 24.3 5.4 24.3 5.4 24.3 5.4 Z M 21.1 8.1 C 20.7 8.2 21.5 7.7 21.1 8.1 C 21.1 8.1 21.1 8.1 21.1 8.1 Z M 19.0 13.0 C 19.0 13.0 19.0 13.0 19.0 13.0 C 19.0 13.0 19.0 13.0 19.0 13.0 Z M 20.7 11.9 C 18.9 12.8 22.0 10.6 20.7 11.9 C 20.7 11.9 20.7 11.9 20.7 11.9 Z M 20.5 12.8 C 21.3 12.3 19.8 13.7 20.5 12.8 M 23.1 11.6 C 22.9 10.9 25.2 11.8 23.1 11.6 C 23.1 11.6 23.1 11.6 23.1 11.6 Z M 26.1 6.8 C 26.2 6.7 26.2 6.7 26.1 6.8 C 26.1 6.8 26.1 6.8 26.1 6.8 Z M 21.1 9.4 C 21.5 8.7 21.3 9.6 21.1 9.4 C 21.1 9.4 21.1 9.4 21.1 9.4 Z M 17.9 14.8 C 18.3 14.2 18.0 15.2 17.9 14.8 C 17.9 14.8 17.9 14.8 17.9 14.8 Z M 25.9 5.0 C 26.2 4.0 26.4 5.3 25.9 5.0 C 25.9 5.0 25.9 5.0 25.9 5.0 Z M 22.3 4.4 C 22.3 4.4 22.3 4.4 22.3 4.4 C 22.3 4.4 22.3 4.4 22.3 4.4 Z M 21.0 4.9 C 21.0 4.9 21.0 4.9 21.0 4.9 C 21.0 4.9 21.0 4.9 21.0 4.9 Z M 18.5 3.7 C 18.5 3.7 18.5 3.7 18.5 3.7 C 18.5 3.7 18.5 3.7 18.5 3.7 Z M 19.9 5.4 C 19.9 5.4 19.9 5.4 19.9 5.4 C 19.9 5.4 19.9 5.4 19.9 5.4 Z M 18.2 5.1 C 18.2 5.1 18.2 5.1 18.2 5.1 C 18.2 5.1 18.2 5.1 18.2 5.1 Z M 17.9 6.1 C 17.9 6.0 17.9 6.0 17.9 6.1 C 17.9 6.1 17.9 6.1 17.9 6.1 Z M 28.6 1.3 C 28.6 1.2 28.6 1.2 28.6 1.3 C 28.6 1.3 28.6 1.3 28.6 1.3 Z M 19.1 12.1 C 19.3 12.0 19.3 12.0 19.1 12.1 C 19.1 12.1 19.1 12.1 19.1 12.1 Z M 18.6 4.7 C 18.6 4.7 18.6 4.7 18.6 4.7 C 18.6 4.7 18.6 4.7 18.6 4.7 Z M 25.2 3.8 C 26.6 2.9 23.7 5.1 25.0 3.9 C 25.1 3.8 25.0 4.0 25.2 3.8 M 26.6 2.3 C 26.7 2.2 26.7 2.2 26.6 2.3 C 26.6 2.3 26.6 2.3 26.6 2.3 Z M 28.5 3.2 C 28.5 3.2 28.5 3.2 28.5 3.2 C 28.5 3.2 28.5 3.2 28.5 3.2 Z M 20.0 5.6 C 19.6 6.1 19.9 5.2 20.1 5.6 M 19.2 2.1 C 19.1 2.6 18.4 1.7 19.4 2.1 M 18.0 15.5 C 18.4 15.5 17.5 15.9 18.0 15.5 M 28.9 3.4 C 29.5 3.2 28.3 4.2 28.9 3.4 M 27.7 3.1 C 26.8 3.7 28.8 2.0 27.7 3.2 M 21.7 2.1 C 21.6 2.1 21.6 2.1 21.7 2.1 C 21.7 2.1 21.7 2.1 21.7 2.1 Z M 21.8 8.3 C 21.8 8.3 21.8 8.3 21.8 8.3 C 21.8 8.3 21.8 8.3 21.8 8.3 Z M 25.1 4.5 C 23.7 5.6 26.2 3.5 25.1 4.5 M 23.2 8.3 C 21.6 9.4 24.2 7.1 23.2 8.3 M 17.4 1.9 C 18.0 3.0 16.7 1.3 17.4 1.9 M 20.2 4.6 C 19.8 5.7 20.1 4.0 20.2 4.6 M 22.8 7.4 C 21.9 7.9 23.7 6.5 22.8 7.4 M 18.6 14.1 C 18.2 14.7 18.5 13.4 18.6 14.1 M 24.1 2.1 C 24.1 2.1 24.1 2.1 24.1 2.1 C 24.1 2.1 24.1 2.1 24.1 2.1 Z M 25.2 10.6 C 25.2 10.5 25.2 10.5 25.2 10.6 C 25.2 10.6 25.2 10.6 25.2 10.6 Z M 16.0 5.4 C 16.0 5.4 16.0 5.4 16.0 5.4 C 16.0 5.4 16.0 5.4 16.0 5.4 Z M 21.0 4.1 C 21.0 4.0 21.0 4.0 21.0 4.1 C 21.0 4.1 21.0 4.1 21.0 4.1 Z M 17.0 5.6 C 17.0 5.5 17.0 5.5 17.0 5.6 C 17.0 5.6 17.0 5.6 17.0 5.6 Z M 24.3 3.2 C 24.4 3.2 24.4 3.2 24.3 3.2 C 24.3 3.2 24.3 3.2 24.3 3.2 Z M 21.1 6.0 C 21.1 6.0 21.1 6.0 21.1 6.0 C 21.1 6.0 21.1 6.0 21.1 6.0 Z M 23.7 5.6 C 23.7 5.5 23.7 5.5 23.7 5.6 C 23.7 5.6 23.7 5.6 23.7 5.6 Z M 20.6 5.8 C 19.4 5.9 22.3 4.9 20.6 5.8 C 20.6 5.8 20.6 5.8 20.6 5.8 Z M 26.9 3.0 C 26.9 3.0 26.9 3.0 26.9 3.0 C 26.9 3.0 26.9 3.0 26.9 3.0 Z M 23.8 5.0 C 23.8 5.0 23.8 5.0 23.8 5.0 C 22.0 5.7 25.3 3.8 24.0 4.9 C 23.9 4.9 23.9 5.0 23.8 5.0 M 20.9 9.0 C 20.4 9.1 22.0 8.4 20.9 9.0 M 25.4 8.3 C 25.5 8.2 25.5 8.2 25.4 8.3 C 25.4 8.3 25.4 8.3 25.4 8.3 Z M 25.3 8.0 C 25.3 7.9 25.3 7.9 25.3 8.0 C 25.3 8.0 25.3 8.0 25.3 8.0 Z M 20.3 9.9 C 20.3 9.9 20.3 9.9 20.3 9.9 C 20.3 9.9 20.3 9.9 20.3 9.9 Z M 26.8 7.3 C 26.9 7.2 26.9 7.2 26.8 7.3 C 26.8 7.3 26.8 7.3 26.8 7.3 Z M 21.5 5.9 C 21.6 5.9 21.6 5.9 21.5 5.9 C 21.5 5.9 21.5 5.9 21.5 5.9 Z M 16.5 6.0 C 16.5 5.9 16.5 5.9 16.5 6.0 C 16.5 6.0 16.5 6.0 16.5 6.0 Z M 22.4 13.2 C 22.4 13.1 22.4 13.1 22.4 13.2 C 22.4 13.2 22.4 13.2 22.4 13.2 Z M 22.5 4.8 C 22.5 4.8 22.5 4.8 22.5 4.8 C 22.5 4.8 22.5 4.8 22.5 4.8 Z M 24.6 9.5 C 24.7 9.4 24.7 9.4 24.6 9.5 C 24.6 9.5 24.6 9.5 24.6 9.5 Z M 22.6 5.1 C 22.6 5.1 22.6 5.1 22.6 5.1 C 22.6 5.1 22.6 5.1 22.6 5.1 Z M 24.7 1.9 C 24.6 1.9 24.6 1.9 24.7 1.9 C 24.7 1.9 24.7 1.9 24.7 1.9 Z M 22.9 1.2 C 22.9 1.2 22.9 1.2 22.9 1.2 C 22.9 1.2 22.9 1.2 22.9 1.2 Z M 22.7 3.8 C 22.6 3.8 22.6 3.8 22.7 3.8 C 22.7 3.8 22.7 3.8 22.7 3.8 Z M 22.7 10.6 C 19.9 13.7 23.3 8.6 22.7 10.6 M 22.4 3.6 C 24.3 3.8 19.7 4.6 22.4 3.6 C 21.8 3.8 22.3 3.6 22.4 3.6 M 15.5 5.9 C 16.1 4.9 16.2 3.9 15.8 2.8 C 15.2 2.3 15.4 4.3 15.2 2.6 C 16.5 2.3 14.2 0.1 14.6 2.3 C 13.1 2.6 14.1 0.9 13.2 1.7 C 11.4 2.0 12.0 1.3 10.5 1.4 C 10.5 2.6 9.2 0.8 9.7 2.0 C 9.5 0.7 8.5 2.3 7.8 1.8 C 8.6 1.0 2.7 1.8 6.7 2.1 C 6.1 2.7 4.9 1.7 4.2 1.5 C 4.5 1.9 3.4 1.7 2.4 1.5 C 2.4 1.8 2.5 2.2 3.2 2.8 C 3.4 2.8 3.3 2.5 3.6 2.7 C 4.3 2.9 3.9 3.3 3.9 3.3 C 4.6 3.9 6.6 6.3 3.6 3.3 C 2.6 2.7 4.9 5.1 4.0 4.6 C 4.9 6.3 6.1 6.0 5.1 6.0 C 5.7 7.2 6.1 8.1 6.4 8.2 C 6.5 8.8 5.7 8.6 6.9 9.6 C 6.0 10.6 10.9 11.7 7.7 11.2 C 8.7 11.8 6.8 11.7 8.8 12.1 C 7.6 11.4 8.6 14.4 9.3 13.3 C 10.0 13.7 8.6 15.3 10.3 15.2 C 12.0 15.9 13.4 15.9 14.1 14.9 C 13.0 14.8 14.7 13.9 13.1 14.4 C 13.0 15.3 11.4 12.4 12.5 13.2 C 15.0 13.9 10.2 11.3 11.7 11.3 C 10.9 11.5 9.1 8.8 11.5 10.3 C 11.5 10.0 10.4 9.5 11.4 9.6 C 11.9 10.8 8.9 8.0 10.3 8.7 C 11.2 9.3 10.8 7.7 9.7 7.3 C 7.0 6.5 10.0 7.1 8.6 6.1 C 7.3 4.5 11.4 7.7 8.6 5.6 C 8.7 5.6 8.7 5.5 8.7 5.3 C 9.3 5.4 9.8 5.5 9.7 5.8 C 9.0 5.6 7.4 3.7 9.9 5.3 C 9.9 6.2 12.1 5.8 11.1 5.3 C 7.3 4.4 12.8 4.3 11.5 5.2 C 13.3 6.1 11.6 5.5 12.5 5.2 C 11.9 4.6 12.7 4.1 13.1 5.2 C 14.2 6.8 12.3 3.1 14.3 5.2 C 14.7 6.2 15.8 4.5 15.3 5.6 C 15.3 5.7 15.5 5.9 15.5 5.9 M 15.1 5.7 C 15.2 5.3 15.4 6.1 15.1 5.7 M 15.2 5.3 C 15.2 5.4 15.2 5.4 15.2 5.3 C 15.2 5.3 15.2 5.3 15.2 5.3 Z M 12.6 5.1 C 12.7 5.1 12.7 5.1 12.6 5.1 C 12.6 5.1 12.6 5.1 12.6 5.1 Z M 6.1 1.1 C 6.2 1.2 6.2 1.2 6.1 1.1 C 6.1 1.1 6.1 1.1 6.1 1.1 Z M 10.9 5.0 C 10.9 5.0 10.9 5.0 10.9 5.0 C 10.9 5.0 10.9 5.0 10.9 5.0 Z M 13.4 4.8 C 13.4 4.9 13.4 4.9 13.4 4.8 C 13.4 4.8 13.4 4.8 13.4 4.8 Z M 11.6 5.6 C 10.9 5.0 12.6 6.0 11.7 5.7 C 11.6 5.6 11.7 5.6 11.6 5.6 M 10.0 5.8 C 9.9 5.7 9.9 5.7 10.0 5.8 M 4.9 7.0 C 4.8 7.0 4.8 7.0 4.9 7.0 M 12.0 10.3 C 11.9 10.3 11.9 10.3 12.0 10.3 M 9.4 6.8 C 9.8 7.6 9.0 6.7 9.4 6.8 M 12.4 11.9 C 12.5 11.2 13.3 12.9 12.4 11.9 M 13.3 12.8 C 13.3 12.9 13.3 12.9 13.3 12.8 M 11.0 9.0 C 10.9 8.9 10.9 8.9 11.0 9.0 C 11.0 9.0 11.0 9.0 11.0 9.0 Z M 9.6 6.7 C 9.7 6.2 10.9 8.1 9.6 6.7 M 12.8 5.7 C 12.6 6.0 12.2 4.9 12.8 5.7 M 13.5 5.3 C 13.5 5.3 13.5 5.3 13.5 5.3 C 13.5 5.3 13.5 5.3 13.5 5.3 Z M 11.7 10.5 C 11.7 10.5 11.7 10.5 11.7 10.5 C 11.7 10.5 11.7 10.5 11.7 10.5 Z M 12.4 11.6 C 12.4 11.5 12.4 11.5 12.4 11.6 C 12.4 11.6 12.4 11.6 12.4 11.6 Z M 7.6 11.8 C 7.6 11.7 7.6 11.7 7.6 11.8 C 7.6 11.8 7.6 11.8 7.6 11.8 Z M 11.5 3.5 C 12.5 3.8 11.8 4.9 11.0 3.9 C 10.6 3.4 11.4 3.6 11.5 3.5 M 7.1 4.9 C 4.8 3.7 10.1 6.1 7.1 4.9 M 12.1 12.6 C 10.2 12.8 13.3 12.2 12.1 12.6 M 13.2 14.1 C 13.0 14.4 11.6 11.4 13.3 13.7 C 13.8 13.9 13.4 14.0 13.2 14.1 M 8.9 5.1 C 7.4 4.3 10.4 5.5 8.9 5.1 M 6.5 7.0 C 7.5 7.7 8.7 9.0 7.2 8.0 C 5.5 7.3 5.6 6.2 6.5 7.0 M 14.7 4.8 C 14.6 6.2 14.4 3.7 14.7 4.8 M 11.9 4.7 C 12.0 4.8 12.0 4.8 11.9 4.7 C 11.9 4.7 11.9 4.7 11.9 4.7 Z M 11.1 4.9 C 10.9 4.8 10.9 4.8 11.1 4.9 M 14.7 6.0 C 14.6 5.9 14.6 5.9 14.7 6.0 M 8.6 7.9 C 8.4 7.9 8.4 7.9 8.6 7.9 M 8.7 6.3 C 7.2 6.3 8.0 5.5 8.7 6.3 M 5.4 2.4 C 4.1 1.8 6.4 2.3 5.4 2.4 M 10.4 8.4 C 8.9 8.3 8.0 6.5 10.4 8.4 M 8.7 5.9 C 8.7 6.0 8.7 6.0 8.7 5.9 C 8.7 5.9 8.7 5.9 8.7 5.9 Z M 6.5 7.2 C 6.5 7.2 6.5 7.2 6.5 7.2 C 6.5 7.2 6.5 7.2 6.5 7.2 Z M 6.8 7.6 C 6.7 7.6 6.7 7.6 6.8 7.6 C 6.8 7.6 6.8 7.6 6.8 7.6 Z M 11.0 9.3 C 11.0 9.3 11.0 9.3 11.0 9.3 C 11.0 9.3 11.0 9.3 11.0 9.3 Z M 11.6 1.9 C 10.4 1.9 12.5 1.7 11.6 1.9 C 11.6 1.9 11.6 1.9 11.6 1.9 Z M 10.9 5.6 C 8.4 4.6 10.7 4.6 10.9 5.6 C 10.9 5.6 10.9 5.6 10.9 5.6 Z M 7.3 4.0 C 7.2 3.9 7.2 3.9 7.3 4.0 C 7.3 4.0 7.3 4.0 7.3 4.0 Z M 11.3 8.5 C 11.2 8.5 11.2 8.5 11.3 8.5 C 11.3 8.5 11.3 8.5 11.3 8.5 Z M 11.0 1.8 C 10.9 1.7 10.9 1.7 11.0 1.8 C 11.0 1.8 11.0 1.8 11.0 1.8 Z M 11.2 11.0 C 11.1 11.0 11.1 11.0 11.2 11.0 C 11.2 11.0 11.2 11.0 11.2 11.0 Z M 4.9 4.6 C 5.8 5.4 4.4 4.4 4.9 4.6 C 4.9 4.6 4.9 4.6 4.9 4.6 Z M 5.6 6.0 C 5.7 6.0 5.7 6.0 5.6 6.0 C 5.6 6.0 5.6 6.0 5.6 6.0 Z M 13.6 13.1 C 13.6 13.1 13.6 13.1 13.6 13.1 C 13.6 13.1 13.6 13.1 13.6 13.1 Z M 5.8 8.8 C 5.8 8.8 5.8 8.8 5.8 8.8 C 5.8 8.8 5.8 8.8 5.8 8.8 Z M 8.4 10.6 C 8.4 10.6 8.4 10.6 8.4 10.6 C 8.4 10.6 8.4 10.6 8.4 10.6 Z M 10.5 8.9 C 11.4 10.1 9.5 8.3 10.5 8.9 C 10.5 8.9 10.5 8.9 10.5 8.9 Z M 10.6 13.9 C 10.6 14.0 10.6 14.0 10.6 13.9 C 10.6 13.9 10.6 13.9 10.6 13.9 Z M 13.0 14.8 C 12.9 14.9 12.9 14.9 13.0 14.8 C 13.0 14.8 13.0 14.8 13.0 14.8 Z M 14.2 15.2 C 14.2 15.3 14.2 15.3 14.2 15.2 C 14.2 15.2 14.2 15.2 14.2 15.2 Z M 9.2 3.1 C 9.3 3.2 9.3 3.2 9.2 3.1 C 9.2 3.1 9.2 3.1 9.2 3.1 Z M 12.4 5.9 C 12.4 5.9 12.4 5.9 12.4 5.9 C 12.4 5.9 12.4 5.9 12.4 5.9 Z M 11.4 6.0 C 11.4 6.0 11.4 6.0 11.4 6.0 C 11.4 6.0 11.4 6.0 11.4 6.0 Z M 8.0 1.5 C 8.0 1.5 8.0 1.5 8.0 1.5 C 8.0 1.5 8.0 1.5 8.0 1.5 Z M 7.4 6.2 C 7.5 6.2 7.5 6.2 7.4 6.2 C 7.4 6.2 7.4 6.2 7.4 6.2 Z M 6.0 5.9 C 6.1 5.9 6.1 5.9 6.0 5.9 C 6.0 5.9 6.0 5.9 6.0 5.9 Z M 2.9 3.1 C 2.9 3.1 2.9 3.1 2.9 3.1 C 2.9 3.1 2.9 3.1 2.9 3.1 Z M 4.8 5.7 C 4.9 5.7 4.9 5.7 4.8 5.7 C 4.8 5.7 4.8 5.7 4.8 5.7 Z M 14.4 2.0 C 14.4 2.0 14.4 2.0 14.4 2.0 C 14.4 2.0 14.4 2.0 14.4 2.0 Z M 14.9 4.1 C 15.0 4.0 15.0 4.0 14.9 4.1 C 14.9 4.1 14.9 4.1 14.9 4.1 Z M 9.9 7.6 C 10.7 8.2 9.3 7.7 9.9 7.6 M 8.4 5.3 C 8.3 5.3 8.3 5.3 8.4 5.3 C 8.4 5.3 8.4 5.3 8.4 5.3 Z M 11.6 11.0 C 10.6 10.9 11.7 10.3 11.6 11.0 C 11.6 11.0 11.6 11.0 11.6 11.0 Z M 6.0 7.9 C 6.0 7.9 6.0 7.9 6.0 7.9 C 6.0 7.9 6.0 7.9 6.0 7.9 Z M 6.9 8.8 C 6.8 8.8 6.8 8.8 6.9 8.8 C 6.9 8.8 6.9 8.8 6.9 8.8 Z M 11.8 13.2 C 11.7 13.2 11.7 13.2 11.8 13.2 M 9.5 5.8 C 9.5 5.8 9.5 5.8 9.5 5.8 C 8.5 5.4 8.7 5.5 9.5 5.8 C 9.5 5.8 9.5 5.8 9.5 5.8 M 11.9 11.7 C 11.9 11.6 11.9 11.6 11.9 11.7 C 11.9 11.7 11.9 11.7 11.9 11.7 Z M 12.7 14.0 C 12.7 14.0 12.7 14.0 12.7 14.0 C 12.7 14.0 12.7 14.0 12.7 14.0 Z M 9.9 5.2 C 8.5 4.2 9.2 4.5 9.9 5.2 M 13.7 4.9 C 13.6 4.8 13.6 4.8 13.7 4.9 C 13.7 4.9 13.7 4.9 13.7 4.9 Z M 13.7 4.9 " fill="#FEFFFE"></path></g></svg>