<?xml version="1.0" encoding="UTF-8" standalone="no"?><svg xmlns="http://www.w3.org/2000/svg" xmlns:xlink="http://www.w3.org/1999/xlink" clip-rule="evenodd" stroke-miterlimit="10" viewBox="0 0 29 30"><desc>SVG generated by Keynote</desc><defs></defs><g transform="matrix(1.00, 0.00, -0.00, -1.00, 0.0, 30.0)"><path d="M 12.4 25.2 C 12.3 25.4 11.6 25.2 11.5 25.3 M 12.4 25.2 C 11.5 24.3 10.5 24.3 9.1 24.1 C 7.7 24.1 9.4 24.9 9.3 25.3 C 7.4 25.7 7.3 25.0 7.4 24.0 C 6.8 24.7 4.6 23.5 5.1 24.8 C 8.2 24.8 2.8 25.1 5.6 25.8 C 5.9 26.0 5.1 26.3 4.8 26.3 C 5.8 26.8 4.2 27.4 5.7 27.8 C 6.0 28.5 5.7 28.2 6.8 28.8 C 7.3 28.9 7.0 28.6 7.0 28.4 C 7.0 27.5 8.3 29.0 9.1 28.4 C 10.2 29.6 10.6 28.2 9.8 27.7 C 10.6 27.8 11.9 29.1 12.4 28.2 C 13.0 28.8 15.0 28.4 13.4 27.7 C 12.3 27.2 13.1 26.8 13.1 26.5 C 12.8 26.3 11.7 26.7 11.5 26.4 C 11.8 26.2 13.0 25.8 11.5 25.8 C 11.9 25.4 11.0 25.2 12.4 25.2 C 12.4 25.2 12.4 25.2 12.4 25.2 Z M 7.0 24.6 C 6.9 24.2 7.5 24.6 7.0 24.6 C 7.0 24.6 7.0 24.6 7.0 24.6 Z M 11.9 28.8 C 11.8 28.5 12.5 28.8 11.9 28.8 C 11.9 28.8 11.9 28.8 11.9 28.8 Z M 7.3 28.5 C 7.2 28.2 7.9 28.5 7.3 28.5 C 7.3 28.5 7.3 28.5 7.3 28.5 Z M 8.4 24.8 C 9.3 25.0 7.8 25.2 7.6 24.9 C 7.8 25.0 8.1 24.5 8.4 24.8 C 8.4 24.8 8.4 24.8 8.4 24.8 Z M 8.9 26.6 C 9.0 26.5 9.3 26.4 9.3 26.8 C 9.1 26.8 8.9 26.7 8.9 26.6 C 8.9 26.6 8.9 26.6 8.9 26.6 Z M 4.5 25.3 C 4.5 25.2 4.9 25.1 4.8 25.5 C 4.6 25.5 4.4 25.4 4.5 25.3 C 4.5 25.3 4.5 25.3 4.5 25.3 Z M 9.5 25.6 C 9.8 25.7 9.9 26.0 9.7 26.0 C 9.5 25.8 8.9 25.8 9.5 25.6 C 9.5 25.6 9.5 25.6 9.5 25.6 Z M 10.5 24.5 C 11.2 24.7 10.0 25.2 10.0 25.0 C 9.7 24.8 10.1 24.3 10.5 24.5 C 10.5 24.5 10.5 24.5 10.5 24.5 Z M 10.1 26.0 C 10.7 26.2 9.9 26.3 10.1 26.0 C 10.1 26.0 10.1 26.0 10.1 26.0 Z M 5.1 27.6 C 5.8 27.8 4.9 27.9 5.1 27.6 C 5.1 27.6 5.1 27.6 5.1 27.6 Z M 8.8 28.6 C 9.5 28.8 8.5 28.9 8.8 28.6 C 8.8 28.6 8.8 28.6 8.8 28.6 Z M 7.0 25.4 C 5.9 25.4 6.7 24.6 7.0 25.4 C 7.0 25.4 7.0 25.4 7.0 25.4 Z M 12.0 24.5 C 11.1 24.5 11.6 23.7 12.0 24.5 C 12.0 24.5 12.0 24.5 12.0 24.5 Z M 6.0 25.2 C 6.1 26.1 7.2 22.8 5.9 23.9 C 4.9 24.1 5.0 21.6 5.9 22.5 C 6.1 21.8 6.1 21.8 5.6 21.3 C 6.4 21.4 6.8 19.8 6.4 19.1 C 5.7 18.5 6.3 20.2 5.6 19.0 C 5.4 16.8 4.9 18.9 4.0 17.7 C 4.0 17.6 4.5 17.8 4.2 17.5 C 3.4 17.1 2.9 18.2 2.3 17.4 C 2.4 17.8 1.6 19.3 2.2 18.8 C 3.0 18.8 1.3 20.5 2.6 20.6 C 2.0 21.1 2.8 21.9 2.1 22.3 C 1.9 22.7 2.6 22.8 2.8 22.8 C 3.3 22.8 1.5 23.1 2.5 24.0 C 2.2 24.0 2.3 26.0 2.7 24.5 C 2.7 25.0 2.4 27.1 3.5 26.0 C 4.0 24.6 4.6 27.6 4.7 25.9 C 4.8 24.6 4.6 24.3 5.2 25.3 C 5.1 25.6 5.2 27.1 5.7 25.8 C 5.6 25.5 5.7 25.0 6.0 25.2 C 6.0 25.2 6.0 25.2 6.0 25.2 Z M 4.3 25.3 C 4.3 24.6 4.8 25.3 4.3 25.3 C 4.3 25.3 4.3 25.3 4.3 25.3 Z M 1.8 22.1 C 1.8 21.3 2.3 22.1 1.8 22.1 C 1.8 22.1 1.8 22.1 1.8 22.1 Z M 6.2 23.0 C 5.9 22.6 7.1 22.7 6.2 23.0 C 6.2 23.0 6.2 23.0 6.2 23.0 Z M 2.8 23.7 C 2.8 23.6 2.9 23.8 3.0 24.0 C 2.9 23.9 2.8 23.7 2.8 23.7 C 2.8 23.7 2.8 23.7 2.8 23.7 Z M 6.2 21.8 C 5.7 20.7 7.1 21.9 6.2 21.8 C 6.2 21.8 6.2 21.8 6.2 21.8 Z M 5.2 19.4 C 4.0 18.9 5.4 18.4 5.2 19.4 C 5.2 19.4 5.2 19.4 5.2 19.4 Z M 2.6 20.3 C 2.9 20.5 2.5 20.4 2.6 20.3 C 2.6 20.3 2.6 20.3 2.6 20.3 Z M 2.5 25.6 C 2.7 25.8 2.3 25.8 2.5 25.6 C 2.5 25.6 2.5 25.6 2.5 25.6 Z M 2.8 18.8 C 3.2 19.0 2.5 19.2 2.8 18.8 C 2.8 18.8 2.8 18.8 2.8 18.8 Z M 5.8 22.7 C 6.7 23.8 4.4 23.7 5.8 22.7 C 5.8 22.7 5.8 22.7 5.8 22.7 Z M 5.9 24.5 C 6.1 25.1 5.3 24.3 5.4 24.0 C 5.5 24.1 5.8 24.4 5.9 24.5 C 5.9 24.5 5.9 24.5 5.9 24.5 Z M 5.7 21.7 C 6.1 22.4 5.4 22.3 5.7 21.7 C 5.7 21.7 5.7 21.7 5.7 21.7 Z M 6.2 23.5 C 6.1 23.8 6.1 23.2 6.2 23.5 C 6.2 23.5 6.2 23.5 6.2 23.5 Z M 6.6 20.7 C 6.5 20.9 6.5 20.4 6.6 20.7 C 6.6 20.7 6.6 20.7 6.6 20.7 Z M 6.3 25.3 C 6.2 25.6 6.2 25.0 6.3 25.3 C 6.3 25.3 6.3 25.3 6.3 25.3 Z M 6.0 20.8 C 5.6 20.5 4.7 21.3 5.5 19.7 C 5.8 19.5 6.4 20.4 6.0 20.8 C 6.0 20.8 6.0 20.8 6.0 20.8 Z M 15.5 25.3 C 10.7 24.0 12.6 26.2 12.5 26.7 C 12.1 27.3 12.9 27.6 14.1 28.1 C 15.8 29.5 14.9 26.6 16.4 28.0 C 18.9 29.9 16.9 26.4 18.7 28.4 C 18.8 28.9 20.5 28.5 20.2 28.3 C 22.0 29.3 22.0 27.6 21.9 27.4 C 22.7 27.7 24.3 29.5 25.2 28.1 C 25.5 28.0 25.9 28.0 26.2 28.1 C 26.5 27.5 27.2 27.8 26.3 27.4 C 27.7 27.3 25.9 26.2 26.4 25.3 C 27.1 25.0 25.2 24.4 26.7 24.0 C 25.5 22.6 27.4 25.2 26.6 20.4 C 26.5 22.4 25.7 18.2 26.5 19.2 C 27.3 21.0 26.1 17.2 26.6 15.4 C 26.2 14.8 25.2 12.8 26.3 13.0 C 27.6 10.6 25.5 11.3 26.6 10.1 C 27.1 9.2 26.1 9.4 26.2 8.9 C 27.0 7.8 26.4 7.5 26.7 4.9 C 26.8 3.3 26.7 2.7 26.5 2.5 C 25.7 2.8 25.5 3.3 25.3 3.7 C 25.1 4.1 24.9 4.4 24.4 4.6 C 24.3 4.7 24.1 4.7 24.0 4.7 C 23.8 4.8 23.6 5.1 23.5 5.5 C 22.7 6.8 21.8 8.4 23.3 6.6 C 22.7 7.4 24.8 9.3 22.6 9.0 C 23.4 9.6 21.7 9.4 22.7 11.0 C 24.3 6.5 23.3 14.6 22.6 11.6 C 22.1 12.3 22.2 13.5 22.6 12.5 C 24.0 11.6 21.9 14.7 23.7 13.2 C 23.2 15.4 24.7 14.7 23.7 15.4 C 21.8 15.8 24.1 15.3 23.6 16.4 C 23.6 19.0 21.5 16.7 22.9 18.3 C 21.9 20.1 23.7 19.1 23.9 20.1 C 25.2 21.0 22.9 22.1 22.8 20.2 C 23.4 21.6 22.1 20.0 23.0 21.5 C 24.1 21.4 21.7 21.9 22.6 22.4 C 22.9 23.6 23.6 23.7 23.7 24.0 C 23.7 25.6 22.5 24.0 23.4 25.1 C 23.5 25.2 23.5 25.3 23.5 25.4 C 23.1 25.4 21.5 24.3 21.6 24.6 C 23.3 24.7 21.4 25.8 20.7 25.2 C 21.6 25.1 18.9 23.7 19.0 24.6 C 22.0 27.2 17.2 23.9 17.1 24.8 C 18.8 26.3 13.7 25.0 14.9 24.3 C 14.9 24.5 15.5 25.3 15.5 25.3 M 21.3 24.8 C 22.8 24.9 20.2 25.1 21.3 24.8 M 20.9 24.4 C 22.0 24.9 19.4 24.1 20.9 24.3 C 20.9 24.3 20.8 24.4 20.9 24.4 M 22.5 21.0 C 22.9 21.4 22.3 21.5 22.5 21.0 M 23.4 20.6 C 23.8 19.9 23.5 21.8 23.4 20.6 M 23.1 9.1 C 25.2 9.1 21.9 11.0 23.1 9.1 M 22.7 16.6 C 23.0 17.9 21.8 16.0 22.7 16.6 M 23.2 17.0 C 23.6 17.8 22.7 17.1 23.2 17.0 M 23.1 11.3 C 23.1 11.2 23.1 11.2 23.1 11.3 C 23.1 11.3 23.1 11.3 23.1 11.3 Z M 23.2 7.9 C 23.1 7.9 23.1 7.9 23.2 7.9 C 23.2 7.9 23.2 7.9 23.2 7.9 Z M 23.3 14.5 C 22.8 15.6 23.1 12.8 23.3 14.5 C 23.3 14.5 23.3 14.5 23.3 14.5 Z M 26.4 7.5 C 26.4 7.5 26.4 7.5 26.4 7.5 C 26.4 7.5 26.4 7.5 26.4 7.5 Z M 21.1 25.8 C 21.1 25.8 21.1 25.8 21.1 25.8 C 21.1 25.8 21.1 25.8 21.1 25.8 Z M 16.4 25.0 C 16.6 25.3 15.5 24.8 16.4 25.0 C 16.4 25.0 16.4 25.0 16.4 25.0 Z M 14.2 27.4 C 14.1 27.5 14.1 27.5 14.2 27.4 C 14.2 27.4 14.2 27.4 14.2 27.4 Z M 20.6 26.9 C 20.6 26.9 20.6 26.9 20.6 26.9 C 20.6 26.9 20.6 26.9 20.6 26.9 Z M 19.9 25.3 C 18.3 24.1 21.8 25.6 19.9 25.3 C 19.9 25.3 19.9 25.3 19.9 25.3 Z M 26.3 15.9 C 25.8 15.9 26.5 14.7 26.3 15.9 C 26.3 15.9 26.3 15.9 26.3 15.9 Z M 23.9 20.7 C 23.6 20.4 24.0 20.1 23.9 20.7 C 23.9 20.7 23.9 20.7 23.9 20.7 Z M 22.3 21.8 C 22.0 21.4 22.4 21.4 22.3 21.8 C 22.3 21.8 22.3 21.8 22.3 21.8 Z M 16.2 24.6 C 16.2 24.6 16.2 24.6 16.2 24.6 C 16.2 24.6 16.2 24.6 16.2 24.6 Z M 18.3 25.5 C 16.5 24.4 20.4 26.1 18.3 25.5 C 18.3 25.5 18.3 25.5 18.3 25.5 Z M 16.7 25.9 C 17.6 26.3 15.2 25.7 16.7 25.9 M 18.9 27.5 C 20.0 27.1 18.9 29.5 18.9 27.5 C 18.9 27.5 18.9 27.5 18.9 27.5 Z M 26.1 27.6 C 26.2 27.5 26.2 27.5 26.1 27.6 C 26.1 27.6 26.1 27.6 26.1 27.6 Z M 22.6 24.8 C 22.7 24.8 22.8 24.8 22.9 24.8 C 22.9 24.7 22.9 24.8 23.0 24.8 C 22.8 24.9 22.3 24.9 22.6 24.8 C 22.6 24.8 22.6 24.8 22.6 24.8 Z M 13.1 24.5 C 14.2 24.6 12.5 24.8 13.1 24.5 C 13.1 24.5 13.1 24.5 13.1 24.5 Z M 25.0 22.4 C 24.9 20.3 25.6 24.1 25.0 22.4 C 25.0 22.4 25.0 22.4 25.0 22.4 Z M 23.8 15.1 C 23.8 15.0 23.8 15.0 23.8 15.1 C 23.8 15.1 23.8 15.1 23.8 15.1 Z M 23.3 13.9 C 23.3 13.9 23.3 13.9 23.3 13.9 C 23.3 13.9 23.3 13.9 23.3 13.9 Z M 24.4 8.4 C 24.5 8.2 24.5 8.2 24.4 8.4 C 24.4 8.4 24.4 8.4 24.4 8.4 Z M 22.8 13.0 C 22.8 13.0 22.8 13.0 22.8 13.0 C 22.8 13.0 22.8 13.0 22.8 13.0 Z M 23.1 9.7 C 23.1 9.6 23.1 9.6 23.1 9.7 C 23.1 9.7 23.1 9.7 23.1 9.7 Z M 22.1 10.7 C 22.1 10.6 22.1 10.6 22.1 10.7 C 22.1 10.7 22.1 10.7 22.1 10.7 Z M 26.9 18.2 C 27.0 18.1 27.0 18.1 26.9 18.2 C 26.9 18.2 26.9 18.2 26.9 18.2 Z M 17.8 24.3 C 18.0 24.4 18.0 24.4 17.8 24.3 C 17.8 24.3 17.8 24.3 17.8 24.3 Z M 23.5 9.7 C 23.5 9.6 23.5 9.6 23.5 9.7 C 23.5 9.7 23.5 9.7 23.5 9.7 Z M 24.4 18.3 C 25.3 18.5 23.1 18.6 24.3 18.0 C 24.4 18.1 24.2 18.3 24.4 18.3 M 25.9 17.3 C 26.0 17.3 26.0 17.3 25.9 17.3 C 25.9 17.3 25.9 17.3 25.9 17.3 Z M 26.5 22.3 C 26.5 22.4 26.5 22.4 26.5 22.3 C 26.5 22.3 26.5 22.3 26.5 22.3 Z M 22.6 13.6 C 22.1 13.9 23.0 12.6 22.6 13.7 M 26.1 7.2 C 25.6 7.8 26.5 5.7 26.1 7.4 M 12.0 24.9 C 12.0 25.3 11.2 24.6 12.0 24.9 M 27.0 23.7 C 27.4 24.2 26.8 24.5 27.0 23.7 M 25.8 20.8 C 25.3 20.7 26.2 19.8 25.8 21.0 M 26.0 10.5 C 26.1 10.5 26.1 10.5 26.0 10.5 C 26.0 10.5 26.0 10.5 26.0 10.5 Z M 23.0 23.6 C 23.0 23.6 23.0 23.6 23.0 23.6 C 23.0 23.6 23.0 23.6 23.0 23.6 Z M 24.1 19.7 C 23.4 20.0 24.6 18.9 24.1 19.7 M 24.2 26.1 C 23.5 25.8 23.6 25.7 23.9 25.8 C 24.4 25.9 25.3 26.3 24.3 26.1 C 24.2 26.1 24.2 26.1 24.2 26.1 M 26.3 4.6 C 25.2 6.7 26.9 3.1 26.3 4.6 M 23.6 12.0 C 22.5 13.3 24.2 11.0 23.6 12.0 M 23.5 23.1 C 22.9 22.7 23.8 22.3 23.5 23.1 M 14.4 24.8 C 13.4 24.7 15.5 24.3 14.4 24.8 M 26.1 13.7 C 26.1 13.6 26.1 13.6 26.1 13.7 C 26.1 13.7 26.1 13.7 26.1 13.7 Z M 20.6 28.9 C 20.7 28.9 20.7 28.9 20.6 28.9 C 20.6 28.9 20.6 28.9 20.6 28.9 Z M 22.8 6.4 C 22.8 6.3 22.8 6.3 22.8 6.4 C 22.8 6.4 22.8 6.4 22.8 6.4 Z M 24.1 12.5 C 24.2 12.4 24.2 12.4 24.1 12.5 C 24.1 12.5 24.1 12.5 24.1 12.5 Z M 22.6 8.3 C 22.7 8.2 22.7 8.2 22.6 8.3 C 22.6 8.3 22.6 8.3 22.6 8.3 Z M 24.9 15.9 C 25.0 15.9 25.0 15.9 24.9 15.9 C 24.9 15.9 24.9 15.9 24.9 15.9 Z M 22.2 16.4 C 22.2 16.4 22.2 16.4 22.2 16.4 C 22.2 16.4 22.2 16.4 22.2 16.4 Z M 23.4 20.0 C 23.4 20.0 23.4 20.0 23.4 20.0 C 23.4 20.0 23.4 20.0 23.4 20.0 Z M 22.4 15.0 C 22.2 13.2 23.3 16.0 22.4 15.0 C 22.4 15.0 22.4 15.0 22.4 15.0 Z M 25.1 19.1 C 25.2 19.0 25.2 19.0 25.1 19.1 C 25.1 19.1 25.1 19.1 25.1 19.1 Z M 23.2 18.7 C 22.4 17.3 24.5 18.4 23.2 18.7 M 22.6 23.8 C 22.1 23.1 23.2 24.2 22.6 23.8 M 24.2 28.0 C 24.3 28.1 24.3 28.1 24.2 28.0 C 24.2 28.0 24.2 28.0 24.2 28.0 Z M 24.7 27.8 C 24.8 27.8 24.8 27.8 24.7 27.8 C 24.7 27.8 24.7 27.8 24.7 27.8 Z M 21.7 24.3 C 21.7 24.3 21.7 24.3 21.7 24.3 C 21.7 24.3 21.7 24.3 21.7 24.3 Z M 25.8 28.8 C 25.9 28.8 25.9 28.8 25.8 28.8 C 25.8 28.8 25.8 28.8 25.8 28.8 Z M 22.3 17.1 C 22.3 17.1 22.3 17.1 22.3 17.1 C 22.3 17.1 22.3 17.1 22.3 17.1 Z M 22.2 7.7 C 22.2 7.7 22.2 7.7 22.2 7.7 C 22.2 7.7 22.2 7.7 22.2 7.7 Z M 16.3 27.7 C 16.4 27.7 16.4 27.7 16.3 27.7 C 16.3 27.7 16.3 27.7 16.3 27.7 Z M 23.3 16.2 C 23.4 16.2 23.4 16.2 23.3 16.2 C 23.3 16.2 23.3 16.2 23.3 16.2 Z M 22.3 27.9 C 22.3 27.9 22.3 27.9 22.3 27.9 C 22.3 27.9 22.3 27.9 22.3 27.9 Z M 23.1 16.8 C 23.1 16.8 23.1 16.8 23.1 16.8 C 23.1 16.8 23.1 16.8 23.1 16.8 Z M 26.3 14.1 C 26.3 14.0 26.3 14.0 26.3 14.1 C 26.3 14.1 26.3 14.1 26.3 14.1 Z M 26.9 10.9 C 26.9 10.9 26.9 10.9 26.9 10.9 C 26.9 10.9 26.9 10.9 26.9 10.9 Z M 24.4 14.5 C 24.4 14.4 24.4 14.4 24.4 14.5 C 24.4 14.5 24.4 14.5 24.4 14.5 Z M 20.4 26.7 C 15.2 25.8 23.8 26.3 20.4 26.7 M 24.6 13.6 C 24.4 16.9 23.5 11.4 24.6 13.6 C 24.3 13.3 24.6 13.6 24.6 13.6 M 21.5 6.7 C 22.3 6.3 23.0 5.9 23.5 5.5 C 24.1 5.1 24.5 4.7 24.8 4.3 C 24.9 4.1 25.0 3.9 25.1 3.7 C 24.8 3.2 23.0 5.2 24.5 3.5 C 26.5 3.1 26.0 0.9 24.1 3.1 C 21.7 3.4 24.9 1.7 22.8 2.6 C 20.1 2.8 21.8 2.1 19.7 2.3 C 18.1 3.5 18.7 1.7 17.8 2.8 C 19.3 1.6 15.7 3.2 15.7 2.6 C 17.7 1.8 8.9 2.6 13.6 3.0 C 11.9 3.5 12.0 2.5 11.4 2.4 C 10.7 3.1 7.9 1.8 7.1 2.5 C 7.4 2.7 8.0 2.7 8.3 2.9 C 8.8 3.4 6.9 2.9 7.1 2.9 C 6.6 3.1 4.3 3.9 6.4 2.6 C 6.2 2.0 4.0 2.9 3.6 2.3 C 2.8 2.3 2.5 2.4 2.3 2.5 C 2.6 3.3 3.1 3.0 2.5 3.2 C 2.4 5.0 2.4 6.4 2.6 6.5 C 2.4 7.5 1.8 7.2 2.4 8.7 C 1.1 10.2 5.0 12.1 2.4 11.2 C 3.0 12.2 1.3 11.9 2.9 12.7 C 2.2 11.5 1.7 16.0 2.8 14.5 C 3.2 15.2 1.2 17.3 2.8 17.5 C 4.0 18.9 5.2 19.2 6.3 17.6 C 5.4 17.5 7.2 16.1 5.7 16.8 C 5.1 18.3 5.1 13.3 5.7 14.6 C 7.5 16.0 4.5 11.5 5.8 11.4 C 5.1 11.7 4.7 7.3 6.1 9.7 C 6.2 9.1 5.6 8.3 6.4 8.3 C 6.3 10.5 4.9 6.0 5.8 7.0 C 6.0 7.4 6.2 7.0 6.3 6.5 C 7.2 6.6 8.0 6.6 7.5 6.1 C 4.5 4.2 8.6 6.5 8.6 5.7 C 10.2 5.3 9.4 7.4 9.8 6.0 C 10.2 6.2 12.5 6.2 11.2 6.6 C 10.6 6.4 12.0 4.5 12.6 6.2 C 10.7 7.1 15.4 6.7 14.6 6.1 C 10.5 5.2 19.1 5.1 15.7 6.0 C 17.1 6.9 15.2 6.4 17.3 6.0 C 17.2 5.5 19.2 5.0 18.3 6.0 C 17.8 7.6 19.9 3.9 20.1 6.1 C 19.7 7.0 23.3 5.4 21.4 6.4 C 21.3 6.5 21.5 6.7 21.5 6.7 M 21.0 6.5 C 21.5 6.2 21.0 7.0 21.0 6.5 M 21.5 6.2 C 21.6 6.2 21.6 6.2 21.5 6.2 C 21.5 6.2 21.5 6.2 21.5 6.2 Z M 17.6 5.9 C 17.6 6.0 17.6 6.0 17.6 5.9 C 17.6 5.9 17.6 5.9 17.6 5.9 Z M 14.4 2.0 C 14.4 2.0 14.4 2.0 14.4 2.0 C 14.4 2.0 14.4 2.0 14.4 2.0 Z M 14.9 5.8 C 14.9 5.8 14.9 5.8 14.9 5.8 C 14.9 5.8 14.9 5.8 14.9 5.8 Z M 19.2 5.7 C 19.3 5.7 19.3 5.7 19.2 5.7 C 19.2 5.7 19.2 5.7 19.2 5.7 Z M 15.1 6.4 C 14.9 5.8 15.9 6.9 15.1 6.5 C 15.0 6.5 15.2 6.5 15.1 6.4 M 11.8 6.7 C 11.8 6.6 11.8 6.6 11.8 6.7 M 1.8 4.7 C 1.8 4.7 1.8 4.7 1.8 4.7 M 6.5 9.6 C 6.5 9.6 6.5 9.6 6.5 9.6 M 8.1 6.1 C 7.1 6.1 7.6 5.8 8.1 6.1 M 6.2 12.4 C 6.6 11.2 6.5 14.2 6.2 12.4 M 6.5 14.0 C 6.5 14.1 6.5 14.1 6.5 14.0 M 6.3 7.3 C 6.3 7.2 6.3 7.2 6.3 7.3 C 6.3 7.3 6.3 7.3 6.3 7.3 Z M 8.7 6.3 C 10.3 6.6 7.8 6.8 8.7 6.3 M 17.0 6.5 C 16.2 6.8 17.2 5.7 17.0 6.5 M 18.7 6.2 C 18.7 6.1 18.7 6.1 18.7 6.2 C 18.7 6.2 18.7 6.2 18.7 6.2 Z M 6.2 10.1 C 6.2 10.0 6.2 10.0 6.2 10.1 C 6.2 10.1 6.2 10.1 6.2 10.1 Z M 6.3 11.8 C 6.3 11.8 6.3 11.8 6.3 11.8 C 6.3 11.8 6.3 11.8 6.3 11.8 Z M 2.0 12.1 C 2.0 12.0 2.0 12.0 2.0 12.1 C 2.0 12.1 2.0 12.1 2.0 12.1 Z M 18.2 4.4 C 19.2 4.7 16.5 5.8 17.0 4.7 C 17.0 4.3 18.0 4.5 18.2 4.4 M 9.0 5.0 C 7.8 3.5 11.0 7.0 9.0 5.0 M 5.6 13.7 C 3.8 13.8 6.8 13.0 5.6 13.7 M 5.9 16.2 C 5.5 16.7 5.7 11.7 6.1 15.5 C 6.4 16.0 6.1 16.1 5.9 16.2 M 11.5 5.9 C 10.9 5.1 13.3 6.3 11.5 5.9 M 3.3 4.5 C 3.8 5.6 4.3 7.7 3.4 6.2 C 2.3 5.1 2.9 3.3 3.3 4.5 M 21.3 5.7 C 19.5 7.0 22.2 4.6 21.3 5.7 M 17.1 5.6 C 17.0 5.6 17.0 5.6 17.1 5.6 C 17.1 5.6 17.1 5.6 17.1 5.6 Z M 15.3 5.8 C 15.3 5.7 15.3 5.7 15.3 5.8 M 19.8 6.8 C 19.8 6.7 19.8 6.7 19.8 6.8 M 4.7 5.8 C 4.6 5.8 4.6 5.8 4.7 5.8 M 8.2 5.7 C 5.4 4.4 8.9 5.4 8.2 5.7 M 11.6 3.2 C 10.7 2.6 12.9 3.2 11.6 3.2 M 6.0 6.3 C 5.5 6.3 5.2 5.7 5.1 5.3 C 5.1 4.9 5.4 4.7 6.0 6.1 C 6.0 6.2 6.0 6.2 6.0 6.3 M 9.1 5.8 C 9.0 5.8 9.0 5.8 9.1 5.8 C 9.1 5.8 9.1 5.8 9.1 5.8 Z M 3.2 4.9 C 3.2 4.8 3.2 4.8 3.2 4.9 C 3.2 4.9 3.2 4.9 3.2 4.9 Z M 3.2 5.6 C 3.2 5.5 3.2 5.5 3.2 5.6 C 3.2 5.6 3.2 5.6 3.2 5.6 Z M 6.2 7.9 C 6.1 7.8 6.1 7.8 6.2 7.9 C 6.2 7.9 6.2 7.9 6.2 7.9 Z M 20.5 2.8 C 19.0 2.7 21.8 2.6 20.5 2.8 C 20.5 2.8 20.5 2.8 20.5 2.8 Z M 13.9 6.4 C 11.8 5.4 15.2 5.5 13.9 6.4 C 13.9 6.4 13.9 6.4 13.9 6.4 Z M 11.4 4.8 C 11.3 4.7 11.3 4.7 11.4 4.8 C 11.4 4.8 11.4 4.8 11.4 4.8 Z M 7.4 7.0 C 7.3 6.9 7.3 6.9 7.4 7.0 C 7.4 7.0 7.4 7.0 7.4 7.0 Z M 19.8 2.6 C 19.8 2.5 19.8 2.5 19.8 2.6 C 19.8 2.6 19.8 2.6 19.8 2.6 Z M 5.5 10.9 C 5.4 10.9 5.4 10.9 5.5 10.9 C 5.5 10.9 5.5 10.9 5.5 10.9 Z M 5.4 3.2 C 5.2 3.6 5.0 2.8 5.4 3.2 C 5.4 3.2 5.4 3.2 5.4 3.2 Z M 3.1 3.1 C 3.1 3.2 3.1 3.2 3.1 3.1 C 3.1 3.1 3.1 3.1 3.1 3.1 Z M 6.6 14.6 C 6.6 14.6 6.6 14.6 6.6 14.6 C 6.6 14.6 6.6 14.6 6.6 14.6 Z M 1.8 7.5 C 1.8 7.5 1.8 7.5 1.8 7.5 C 1.8 7.5 1.8 7.5 1.8 7.5 Z M 3.3 10.3 C 3.2 10.3 3.2 10.3 3.3 10.3 C 3.3 10.3 3.3 10.3 3.3 10.3 Z M 5.9 7.3 C 6.1 9.4 5.3 6.4 5.9 7.3 C 5.9 7.3 5.9 7.3 5.9 7.3 Z M 3.7 15.7 C 3.6 15.7 3.6 15.7 3.7 15.7 C 3.7 15.7 3.7 15.7 3.7 15.7 Z M 5.3 17.5 C 5.3 17.5 5.3 17.5 5.3 17.5 C 5.3 17.5 5.3 17.5 5.3 17.5 Z M 6.2 18.3 C 6.2 18.3 6.2 18.3 6.2 18.3 C 6.2 18.3 6.2 18.3 6.2 18.3 Z M 15.5 4.0 C 15.6 4.0 15.6 4.0 15.5 4.0 C 15.5 4.0 15.5 4.0 15.5 4.0 Z M 15.9 6.7 C 15.9 6.7 15.9 6.7 15.9 6.7 C 15.9 6.7 15.9 6.7 15.9 6.7 Z M 13.8 6.8 C 13.8 6.9 13.8 6.9 13.8 6.8 C 13.8 6.8 13.8 6.8 13.8 6.8 Z M 16.3 2.3 C 16.3 2.3 16.3 2.3 16.3 2.3 C 16.3 2.3 16.3 2.3 16.3 2.3 Z M 6.0 4.6 C 6.1 4.7 6.1 4.7 6.0 4.6 C 6.0 4.6 6.0 4.6 6.0 4.6 Z M 4.1 3.5 C 4.2 3.6 4.2 3.6 4.1 3.5 C 4.1 3.5 4.1 3.5 4.1 3.5 Z M 5.6 2.1 C 5.6 2.1 5.6 2.1 5.6 2.1 C 5.6 2.1 5.6 2.1 5.6 2.1 Z M 2.4 2.7 C 2.4 2.7 2.4 2.7 2.4 2.7 C 2.4 2.7 2.4 2.7 2.4 2.7 Z M 24.1 2.8 C 24.1 2.8 24.1 2.8 24.1 2.8 C 24.1 2.8 24.1 2.8 24.1 2.8 Z M 22.6 4.9 C 22.7 4.9 22.7 4.9 22.6 4.9 C 22.6 4.9 22.6 4.9 22.6 4.9 Z M 7.1 6.2 C 7.1 6.6 5.7 5.6 7.1 6.2 M 10.1 5.9 C 10.1 5.9 10.1 5.9 10.1 5.9 C 10.1 5.9 10.1 5.9 10.1 5.9 Z M 5.9 10.9 C 5.1 10.7 6.3 9.6 5.9 10.9 C 5.9 10.9 5.9 10.9 5.9 10.9 Z M 2.4 6.0 C 2.4 6.0 2.4 6.0 2.4 6.0 C 2.4 6.0 2.4 6.0 2.4 6.0 Z M 2.8 7.4 C 2.7 7.4 2.7 7.4 2.8 7.4 C 2.8 7.4 2.8 7.4 2.8 7.4 Z M 5.0 14.6 C 5.0 14.7 5.0 14.7 5.0 14.6 M 10.9 6.6 C 10.2 6.3 10.4 6.3 10.9 6.6 M 5.9 12.1 C 5.9 12.0 5.9 12.0 5.9 12.1 C 5.9 12.1 5.9 12.1 5.9 12.1 Z M 5.5 16.0 C 5.5 16.0 5.5 16.0 5.5 16.0 C 5.5 16.0 5.5 16.0 5.5 16.0 Z M 12.9 6.1 C 12.7 5.1 13.2 5.3 12.9 6.1 M 19.5 5.8 C 19.6 5.7 19.6 5.7 19.5 5.8 C 19.5 5.8 19.5 5.8 19.5 5.8 Z M 19.5 5.8 " fill="#FEFFFE"></path></g></svg>