<?xml version="1.0" encoding="UTF-8" standalone="no"?><svg xmlns="http://www.w3.org/2000/svg" xmlns:xlink="http://www.w3.org/1999/xlink" clip-rule="evenodd" stroke-miterlimit="10" viewBox="0 0 31 30"><desc>SVG generated by Keynote</desc><defs></defs><g transform="matrix(1.00, 0.00, -0.00, -1.00, 0.0, 30.0)"><path d="M 18.1 15.3 C 18.2 15.4 17.7 15.9 17.7 16.1 M 18.1 15.3 C 16.7 15.8 16.2 16.6 15.5 17.7 C 14.9 18.8 16.4 17.7 16.8 17.9 C 16.2 19.7 15.6 19.5 14.7 19.1 C 15.1 19.8 13.0 21.1 14.3 21.3 C 15.7 18.7 13.6 23.4 15.5 21.3 C 15.8 21.1 15.7 21.9 15.6 22.2 C 16.5 21.6 16.2 23.3 17.3 22.0 C 18.2 22.1 17.7 22.3 18.8 21.5 C 19.1 21.1 18.8 21.2 18.6 21.2 C 17.8 20.8 19.7 20.1 19.5 19.2 C 21.2 18.7 20.1 17.8 19.2 18.3 C 19.7 17.7 21.6 16.9 21.0 16.1 C 21.9 15.7 22.4 13.8 20.9 15.0 C 20.0 15.8 20.0 15.0 19.7 15.0 C 19.3 15.2 19.2 16.2 18.8 16.4 C 18.8 16.1 18.9 14.9 18.3 16.2 C 18.0 15.8 17.4 16.4 18.1 15.3 C 18.1 15.3 18.1 15.3 18.1 15.3 Z M 15.0 19.6 C 14.7 19.5 15.2 19.2 15.0 19.6 C 15.0 19.6 15.0 19.6 15.0 19.6 Z M 21.3 16.7 C 21.0 16.7 21.7 16.2 21.3 16.7 C 21.3 16.7 21.3 16.7 21.3 16.7 Z M 18.7 20.9 C 18.4 20.9 19.0 20.4 18.7 20.9 C 18.7 20.9 18.7 20.9 18.7 20.9 Z M 15.8 18.5 C 16.5 17.9 16.0 19.2 15.6 19.2 C 15.7 19.1 15.4 18.7 15.8 18.5 C 15.8 18.5 15.8 18.5 15.8 18.5 Z M 17.8 18.7 C 17.7 18.7 17.8 18.3 18.1 18.4 C 18.1 18.6 17.9 18.8 17.8 18.7 C 17.8 18.7 17.8 18.7 17.8 18.7 Z M 14.5 22.1 C 14.5 22.0 14.6 21.7 14.9 21.8 C 14.8 22.1 14.6 22.2 14.5 22.1 C 14.5 22.1 14.5 22.1 14.5 22.1 Z M 17.1 17.8 C 17.3 17.7 17.6 17.6 17.6 17.9 C 17.4 17.9 17.0 18.5 17.1 17.8 C 17.1 17.8 17.1 17.8 17.1 17.8 Z M 16.5 16.7 C 17.0 16.1 16.9 17.3 16.8 17.3 C 16.4 17.5 16.1 17.0 16.5 16.7 C 16.5 16.7 16.5 16.7 16.5 16.7 Z M 17.8 17.5 C 18.2 17.0 17.9 17.8 17.8 17.5 C 17.8 17.5 17.8 17.5 17.8 17.5 Z M 16.9 22.6 C 17.4 22.0 17.0 22.9 16.9 22.6 C 16.9 22.6 16.9 22.6 16.9 22.6 Z M 19.6 19.6 C 20.1 19.0 19.7 19.9 19.6 19.6 C 19.6 19.6 19.6 19.6 19.6 19.6 Z M 15.8 20.0 C 15.3 20.8 14.9 19.9 15.8 20.0 C 15.8 20.0 15.8 20.0 15.8 20.0 Z M 17.1 15.4 C 16.7 16.2 16.1 15.6 17.1 15.4 C 17.1 15.4 17.1 15.4 17.1 15.4 Z M 16.4 20.9 C 17.0 21.6 16.5 18.5 15.8 19.8 C 15.0 20.5 13.9 18.3 15.2 18.7 C 15.0 18.1 15.1 18.1 14.4 17.8 C 15.2 17.6 14.9 16.3 14.2 15.8 C 13.3 15.5 14.6 16.7 13.3 15.9 C 12.2 14.1 12.6 16.0 11.2 15.1 C 11.1 15.1 11.6 15.1 11.2 14.9 C 10.2 14.7 10.3 15.9 9.3 15.2 C 9.6 15.6 9.5 17.3 9.9 16.5 C 10.6 16.3 9.9 18.5 11.1 18.2 C 10.8 18.8 11.9 19.2 11.5 19.9 C 11.6 20.4 12.2 20.2 12.4 20.1 C 12.9 19.9 11.3 20.9 12.7 21.3 C 12.4 21.4 13.5 23.3 13.2 21.7 C 13.3 22.1 14.2 24.3 14.6 22.8 C 14.4 21.2 16.3 23.6 15.6 22.1 C 15.1 20.9 14.8 20.7 15.8 21.4 C 15.8 21.6 16.6 22.9 16.5 21.6 C 16.2 21.4 16.1 20.9 16.4 20.9 C 16.4 20.9 16.4 20.9 16.4 20.9 Z M 15.0 21.7 C 14.6 21.1 15.4 21.5 15.0 21.7 C 15.0 21.7 15.0 21.7 15.0 21.7 Z M 11.2 19.8 C 10.7 19.1 11.6 19.7 11.2 19.8 C 11.2 19.8 11.2 19.8 11.2 19.8 Z M 15.7 19.0 C 15.2 18.8 16.4 18.5 15.7 19.0 C 15.7 19.0 15.7 19.0 15.7 19.0 Z M 12.8 20.9 C 12.8 20.9 13.0 21.0 13.1 21.1 C 13.1 21.1 12.8 21.0 12.8 20.9 C 12.8 20.9 12.8 20.9 12.8 20.9 Z M 15.2 18.1 C 14.2 17.2 16.1 17.8 15.2 18.1 C 15.2 18.1 15.2 18.1 15.2 18.1 Z M 13.1 16.3 C 11.7 16.2 12.8 15.4 13.1 16.3 C 13.1 16.3 13.1 16.3 13.1 16.3 Z M 11.0 17.8 C 11.4 18.0 11.0 18.0 11.0 17.8 C 11.0 17.8 11.0 17.8 11.0 17.8 Z M 13.5 22.8 C 13.8 22.9 13.5 23.0 13.5 22.8 C 13.5 22.8 13.5 22.8 13.5 22.8 Z M 10.4 16.4 C 10.9 16.5 10.4 16.8 10.4 16.4 C 10.4 16.4 10.4 16.4 10.4 16.4 Z M 15.2 18.9 C 16.5 19.5 14.4 20.3 15.2 18.9 C 15.2 18.9 15.2 18.9 15.2 18.9 Z M 16.0 20.4 C 16.5 20.8 15.4 20.5 15.4 20.2 C 15.5 20.2 15.9 20.3 16.0 20.4 C 16.0 20.4 16.0 20.4 16.0 20.4 Z M 14.6 18.1 C 15.4 18.6 14.6 18.7 14.6 18.1 C 14.6 18.1 14.6 18.1 14.6 18.1 Z M 15.9 19.4 C 15.9 19.7 15.6 19.2 15.9 19.4 C 15.9 19.4 15.9 19.4 15.9 19.4 Z M 15.1 17.0 C 15.1 17.2 14.8 16.8 15.1 17.0 C 15.1 17.0 15.1 17.0 15.1 17.0 Z M 16.8 20.9 C 16.9 21.2 16.6 20.7 16.8 20.9 C 16.8 20.9 16.8 20.9 16.8 20.9 Z M 14.5 17.2 C 14.0 17.2 13.5 18.0 13.5 16.5 C 13.7 16.3 14.7 16.9 14.5 17.2 C 14.5 17.2 14.5 17.2 14.5 17.2 Z M 19.0 13.6 C 16.2 16.2 19.1 15.4 19.5 15.5 C 20.0 15.9 20.7 15.4 21.5 14.8 C 23.6 13.9 20.3 14.1 22.3 13.3 C 25.2 11.9 20.6 12.8 23.4 11.9 C 24.0 11.8 24.1 10.7 23.9 10.9 C 25.5 9.8 23.7 9.7 23.5 9.8 C 24.0 9.3 26.6 8.3 25.4 7.7 C 25.2 7.0 28.1 5.4 26.1 6.5 C 28.6 4.7 25.8 6.3 26.8 5.2 C 28.3 4.1 25.1 6.1 27.8 4.0 C 26.2 4.6 28.8 3.9 28.8 2.0 C 28.3 2.8 28.1 2.5 28.2 2.1 C 27.8 2.1 27.6 2.1 28.3 1.8 C 30.6 1.0 26.4 2.1 25.6 1.6 C 24.7 2.0 22.0 3.1 23.4 1.9 C 22.9 0.6 21.2 2.7 21.4 1.7 C 21.2 1.2 20.4 2.2 20.1 2.1 C 20.0 1.3 19.2 1.8 17.4 1.6 C 13.1 1.2 16.5 3.7 15.3 4.0 C 15.1 4.3 16.1 7.0 16.0 5.0 C 16.1 5.6 19.0 3.5 16.9 5.7 C 18.0 4.8 16.5 6.6 18.2 5.5 C 16.6 4.0 21.0 4.9 18.4 5.7 C 18.4 6.1 19.1 6.0 18.9 5.7 C 19.8 4.3 19.4 6.3 20.5 4.6 C 21.3 5.1 22.8 3.5 21.9 4.6 C 19.8 6.5 22.4 4.1 22.5 4.7 C 24.1 4.7 19.8 6.8 22.6 5.4 C 22.6 5.4 22.6 5.5 22.6 5.5 C 20.8 7.3 24.0 4.8 24.1 5.1 C 26.1 4.1 21.7 7.5 22.0 6.6 C 22.8 6.6 21.0 7.2 21.9 7.2 C 24.1 5.6 19.5 9.0 21.1 8.1 C 21.2 8.4 22.5 7.6 22.4 7.8 C 21.9 8.7 20.3 9.2 21.5 8.8 C 22.1 8.7 19.7 10.1 20.1 10.0 C 20.7 9.0 21.5 10.1 20.6 10.5 C 20.8 10.0 18.2 11.6 19.3 11.5 C 23.2 9.7 18.0 12.5 19.0 12.6 C 21.2 11.6 18.2 14.6 17.8 13.8 C 17.9 13.9 19.0 13.6 19.0 13.6 M 20.3 10.1 C 20.9 9.3 20.3 10.8 20.3 10.1 M 19.7 10.4 C 20.6 9.8 18.9 11.3 19.5 10.4 C 19.6 10.4 19.7 10.5 19.7 10.4 M 21.3 7.4 C 21.9 7.1 20.7 8.0 21.3 7.4 M 23.0 6.0 C 23.9 5.1 22.8 6.7 23.0 6.0 M 17.4 5.2 C 19.3 3.0 17.4 6.4 17.4 5.2 M 21.3 5.6 C 22.5 5.3 19.9 6.5 21.3 5.6 M 22.3 5.0 C 23.3 4.7 21.7 5.5 22.3 5.0 M 18.7 5.2 C 18.7 5.1 18.7 5.1 18.7 5.2 C 18.7 5.2 18.7 5.2 18.7 5.2 Z M 16.7 5.1 C 16.7 5.1 16.7 5.1 16.7 5.1 C 16.7 5.1 16.7 5.1 16.7 5.1 Z M 20.9 4.9 C 21.0 5.4 19.7 5.1 20.9 4.9 C 20.9 4.9 20.9 4.9 20.9 4.9 Z M 19.2 1.8 C 19.3 1.8 19.3 1.8 19.2 1.8 C 19.2 1.8 19.2 1.8 19.2 1.8 Z M 21.4 10.2 C 21.4 10.3 21.4 10.3 21.4 10.2 C 21.4 10.2 21.4 10.2 21.4 10.2 Z M 19.0 13.0 C 19.4 12.9 18.4 13.5 19.0 13.0 C 19.0 13.0 19.0 13.0 19.0 13.0 Z M 20.9 14.6 C 20.9 14.6 20.9 14.6 20.9 14.6 C 20.9 14.6 20.9 14.6 20.9 14.6 Z M 22.5 10.6 C 22.5 10.6 22.5 10.6 22.5 10.6 C 22.5 10.6 22.5 10.6 22.5 10.6 Z M 20.5 10.9 C 18.6 11.9 21.4 9.8 20.5 10.9 C 20.5 10.9 20.5 10.9 20.5 10.9 Z M 25.6 2.0 C 24.9 2.5 24.9 1.8 25.6 2.0 C 25.6 2.0 25.6 2.0 25.6 2.0 Z M 23.8 5.5 C 23.5 5.6 24.2 5.0 23.8 5.5 C 23.8 5.5 23.8 5.5 23.8 5.5 Z M 20.6 8.2 C 20.3 8.3 21.0 7.7 20.6 8.2 C 20.6 8.2 20.6 8.2 20.6 8.2 Z M 18.6 13.1 C 18.5 13.1 18.5 13.1 18.6 13.1 C 18.6 13.1 18.6 13.1 18.6 13.1 Z M 20.2 11.9 C 18.4 12.9 21.5 10.7 20.2 11.9 C 20.2 11.9 20.2 11.9 20.2 11.9 Z M 20.0 12.9 C 20.8 12.4 19.4 13.8 20.0 12.9 M 22.6 11.7 C 22.4 11.0 24.7 11.9 22.6 11.7 C 22.6 11.7 22.6 11.7 22.6 11.7 Z M 25.7 6.9 C 25.8 6.8 25.8 6.8 25.7 6.9 C 25.7 6.9 25.7 6.9 25.7 6.9 Z M 20.6 9.4 C 21.0 8.8 20.8 9.7 20.6 9.4 C 20.6 9.4 20.6 9.4 20.6 9.4 Z M 17.5 14.9 C 17.8 14.3 17.6 15.3 17.5 14.9 C 17.5 14.9 17.5 14.9 17.5 14.9 Z M 25.4 5.1 C 25.7 4.1 25.9 5.4 25.4 5.1 C 25.4 5.1 25.4 5.1 25.4 5.1 Z M 21.8 4.5 C 21.8 4.5 21.8 4.5 21.8 4.5 C 21.8 4.5 21.8 4.5 21.8 4.5 Z M 20.5 5.0 C 20.5 4.9 20.5 4.9 20.5 5.0 C 20.5 5.0 20.5 5.0 20.5 5.0 Z M 18.1 3.8 C 18.0 3.8 18.0 3.8 18.1 3.8 C 18.1 3.8 18.1 3.8 18.1 3.8 Z M 19.4 5.5 C 19.4 5.5 19.4 5.5 19.4 5.5 C 19.4 5.5 19.4 5.5 19.4 5.5 Z M 17.7 5.2 C 17.7 5.2 17.7 5.2 17.7 5.2 C 17.7 5.2 17.7 5.2 17.7 5.2 Z M 17.5 6.2 C 17.5 6.1 17.5 6.1 17.5 6.2 C 17.5 6.2 17.5 6.2 17.5 6.2 Z M 28.2 1.3 C 28.2 1.3 28.2 1.3 28.2 1.3 C 28.2 1.3 28.2 1.3 28.2 1.3 Z M 18.6 12.2 C 18.8 12.1 18.8 12.1 18.6 12.2 C 18.6 12.2 18.6 12.2 18.6 12.2 Z M 18.1 4.8 C 18.1 4.7 18.1 4.7 18.1 4.8 C 18.1 4.8 18.1 4.8 18.1 4.8 Z M 24.7 3.9 C 26.2 2.9 23.2 5.1 24.5 3.9 C 24.6 3.9 24.5 4.0 24.7 3.9 M 26.1 2.3 C 26.2 2.3 26.2 2.3 26.1 2.3 C 26.1 2.3 26.1 2.3 26.1 2.3 Z M 28.0 3.3 C 28.1 3.3 28.1 3.3 28.0 3.3 C 28.0 3.3 28.0 3.3 28.0 3.3 Z M 19.6 5.7 C 19.1 6.2 19.4 5.3 19.7 5.6 M 18.7 2.2 C 18.6 2.7 18.0 1.8 18.9 2.1 M 17.5 15.6 C 17.9 15.6 17.0 16.0 17.5 15.6 M 28.5 3.5 C 29.0 3.3 27.8 4.2 28.5 3.5 M 27.3 3.2 C 26.3 3.8 28.3 2.1 27.2 3.3 M 21.2 2.2 C 21.1 2.2 21.1 2.2 21.2 2.2 C 21.2 2.2 21.2 2.2 21.2 2.2 Z M 21.3 8.4 C 21.3 8.4 21.3 8.4 21.3 8.4 C 21.3 8.4 21.3 8.4 21.3 8.4 Z M 24.6 4.6 C 23.2 5.7 25.7 3.6 24.6 4.6 M 22.8 8.4 C 21.1 9.5 23.7 7.2 22.8 8.4 M 16.9 2.0 C 17.6 3.0 16.2 1.4 16.9 2.0 M 19.7 4.7 C 19.3 5.7 19.6 4.1 19.7 4.7 M 22.3 7.5 C 21.4 8.0 23.2 6.6 22.3 7.5 M 18.2 14.2 C 17.7 14.7 18.0 13.5 18.2 14.2 M 23.6 2.2 C 23.6 2.1 23.6 2.1 23.6 2.2 C 23.6 2.2 23.6 2.2 23.6 2.2 Z M 24.7 10.7 C 24.8 10.6 24.8 10.6 24.7 10.7 C 24.7 10.7 24.7 10.7 24.7 10.7 Z M 15.6 5.5 C 15.5 5.5 15.5 5.5 15.6 5.5 C 15.6 5.5 15.6 5.5 15.6 5.5 Z M 20.5 4.2 C 20.6 4.1 20.6 4.1 20.5 4.2 C 20.5 4.2 20.5 4.2 20.5 4.2 Z M 16.6 5.6 C 16.6 5.6 16.6 5.6 16.6 5.6 C 16.6 5.6 16.6 5.6 16.6 5.6 Z M 23.9 3.3 C 23.9 3.3 23.9 3.3 23.9 3.3 C 23.9 3.3 23.9 3.3 23.9 3.3 Z M 20.6 6.1 C 20.6 6.0 20.6 6.0 20.6 6.1 C 20.6 6.1 20.6 6.1 20.6 6.1 Z M 23.2 5.7 C 23.2 5.6 23.2 5.6 23.2 5.7 C 23.2 5.7 23.2 5.7 23.2 5.7 Z M 20.1 5.9 C 18.9 6.0 21.8 4.9 20.1 5.9 C 20.1 5.9 20.1 5.9 20.1 5.9 Z M 26.4 3.1 C 26.4 3.1 26.4 3.1 26.4 3.1 C 26.4 3.1 26.4 3.1 26.4 3.1 Z M 23.3 5.1 C 23.3 5.1 23.3 5.1 23.3 5.1 C 21.6 5.8 24.8 3.9 23.5 4.9 C 23.5 5.0 23.4 5.0 23.3 5.1 M 20.5 9.1 C 20.0 9.1 21.5 8.5 20.5 9.1 M 24.9 8.3 C 25.0 8.3 25.0 8.3 24.9 8.3 C 24.9 8.3 24.9 8.3 24.9 8.3 Z M 24.8 8.0 C 24.9 8.0 24.9 8.0 24.8 8.0 C 24.8 8.0 24.8 8.0 24.8 8.0 Z M 19.8 10.0 C 19.8 10.0 19.8 10.0 19.8 10.0 C 19.8 10.0 19.8 10.0 19.8 10.0 Z M 26.3 7.3 C 26.4 7.3 26.4 7.3 26.3 7.3 C 26.3 7.3 26.3 7.3 26.3 7.3 Z M 21.1 6.0 C 21.1 6.0 21.1 6.0 21.1 6.0 C 21.1 6.0 21.1 6.0 21.1 6.0 Z M 16.0 6.0 C 16.0 6.0 16.0 6.0 16.0 6.0 C 16.0 6.0 16.0 6.0 16.0 6.0 Z M 21.9 13.3 C 22.0 13.2 22.0 13.2 21.9 13.3 C 21.9 13.3 21.9 13.3 21.9 13.3 Z M 22.0 4.9 C 22.0 4.9 22.0 4.9 22.0 4.9 C 22.0 4.9 22.0 4.9 22.0 4.9 Z M 24.1 9.6 C 24.2 9.5 24.2 9.5 24.1 9.6 C 24.1 9.6 24.1 9.6 24.1 9.6 Z M 22.1 5.1 C 22.1 5.1 22.1 5.1 22.1 5.1 C 22.1 5.1 22.1 5.1 22.1 5.1 Z M 24.2 1.9 C 24.2 1.9 24.2 1.9 24.2 1.9 C 24.2 1.9 24.2 1.9 24.2 1.9 Z M 22.4 1.3 C 22.4 1.3 22.4 1.3 22.4 1.3 C 22.4 1.3 22.4 1.3 22.4 1.3 Z M 22.2 3.9 C 22.2 3.8 22.2 3.8 22.2 3.9 C 22.2 3.9 22.2 3.9 22.2 3.9 Z M 22.2 10.7 C 19.5 13.8 22.8 8.6 22.2 10.7 M 21.9 3.6 C 23.8 3.9 19.3 4.7 21.9 3.6 C 21.3 3.9 21.8 3.7 21.9 3.6 M 15.0 5.9 C 15.7 4.9 15.7 4.0 15.3 2.9 C 14.7 2.4 14.9 4.4 14.7 2.7 C 16.0 2.4 13.7 0.1 14.2 2.3 C 12.6 2.7 13.6 0.9 12.7 1.8 C 10.9 2.0 11.5 1.4 10.0 1.5 C 10.1 2.7 8.7 0.9 9.2 2.1 C 9.0 0.8 8.0 2.4 7.4 1.8 C 8.1 1.1 2.2 1.8 6.2 2.2 C 5.6 2.8 4.4 1.7 3.7 1.6 C 4.0 2.0 2.9 1.8 1.9 1.6 C 1.9 1.9 2.1 2.3 2.7 2.9 C 2.9 2.9 2.8 2.6 3.2 2.7 C 3.8 3.0 3.4 3.4 3.4 3.3 C 4.1 4.0 6.2 6.4 3.1 3.4 C 2.1 2.8 4.4 5.2 3.5 4.7 C 4.4 6.4 5.6 6.1 4.6 6.1 C 5.2 7.3 5.7 8.2 5.9 8.2 C 6.1 8.9 5.2 8.7 6.5 9.7 C 5.5 10.7 10.4 11.7 7.2 11.3 C 8.3 11.9 6.3 11.8 8.3 12.2 C 7.1 11.5 8.1 14.4 8.9 13.3 C 9.5 13.8 8.1 15.4 9.8 15.3 C 11.6 16.0 12.9 15.9 13.6 14.9 C 12.6 14.9 14.2 14.0 12.7 14.5 C 12.6 15.4 10.9 12.5 12.0 13.2 C 14.5 13.9 9.7 11.4 11.2 11.4 C 10.5 11.5 8.6 8.9 11.0 10.4 C 11.0 10.1 10.0 9.6 10.9 9.6 C 11.4 10.9 8.4 8.1 9.8 8.8 C 10.7 9.4 10.3 7.8 9.2 7.4 C 6.6 6.6 9.6 7.2 8.1 6.2 C 6.8 4.6 10.9 7.8 8.2 5.7 C 8.3 5.7 8.2 5.6 8.2 5.4 C 8.8 5.5 9.3 5.6 9.2 5.9 C 8.5 5.7 6.9 3.7 9.4 5.4 C 9.4 6.3 11.6 5.9 10.6 5.4 C 6.9 4.5 12.4 4.4 11.1 5.3 C 12.8 6.2 11.1 5.6 12.0 5.2 C 11.4 4.7 12.2 4.2 12.6 5.3 C 13.8 6.8 11.8 3.2 13.8 5.3 C 14.2 6.2 15.3 4.6 14.8 5.7 C 14.8 5.8 15.0 5.9 15.0 5.9 M 14.6 5.8 C 14.7 5.4 14.9 6.2 14.6 5.8 M 14.7 5.4 C 14.7 5.4 14.7 5.4 14.7 5.4 C 14.7 5.4 14.7 5.4 14.7 5.4 Z M 12.2 5.2 C 12.2 5.2 12.2 5.2 12.2 5.2 C 12.2 5.2 12.2 5.2 12.2 5.2 Z M 5.6 1.2 C 5.7 1.3 5.7 1.3 5.6 1.2 C 5.6 1.2 5.6 1.2 5.6 1.2 Z M 10.4 5.1 C 10.4 5.1 10.4 5.1 10.4 5.1 C 10.4 5.1 10.4 5.1 10.4 5.1 Z M 12.9 4.9 C 13.0 4.9 13.0 4.9 12.9 4.9 C 12.9 4.9 12.9 4.9 12.9 4.9 Z M 11.2 5.7 C 10.4 5.1 12.1 6.1 11.2 5.8 C 11.2 5.7 11.3 5.7 11.2 5.7 M 9.6 5.9 C 9.4 5.8 9.4 5.8 9.6 5.9 M 4.4 7.1 C 4.3 7.1 4.3 7.1 4.4 7.1 M 11.5 10.4 C 11.4 10.4 11.4 10.4 11.5 10.4 M 8.9 6.9 C 9.4 7.6 8.5 6.8 8.9 6.9 M 11.9 11.9 C 12.0 11.3 12.8 13.0 11.9 11.9 M 12.8 12.9 C 12.8 12.9 12.8 12.9 12.8 12.9 M 10.5 9.1 C 10.5 9.0 10.5 9.0 10.5 9.1 C 10.5 9.1 10.5 9.1 10.5 9.1 Z M 9.1 6.8 C 9.2 6.2 10.5 8.1 9.1 6.8 M 12.3 5.7 C 12.2 6.0 11.7 5.0 12.3 5.7 M 13.0 5.4 C 13.0 5.4 13.0 5.4 13.0 5.4 C 13.0 5.4 13.0 5.4 13.0 5.4 Z M 11.3 10.6 C 11.2 10.6 11.2 10.6 11.3 10.6 C 11.3 10.6 11.3 10.6 11.3 10.6 Z M 11.9 11.6 C 11.9 11.6 11.9 11.6 11.9 11.6 C 11.9 11.6 11.9 11.6 11.9 11.6 Z M 7.1 11.8 C 7.1 11.8 7.1 11.8 7.1 11.8 C 7.1 11.8 7.1 11.8 7.1 11.8 Z M 11.0 3.6 C 12.0 3.9 11.3 5.0 10.6 4.0 C 10.1 3.5 10.9 3.7 11.0 3.6 M 6.6 4.9 C 4.3 3.7 9.6 6.2 6.6 4.9 M 11.6 12.7 C 9.7 12.9 12.8 12.3 11.6 12.7 M 12.7 14.1 C 12.5 14.5 11.1 11.5 12.8 13.7 C 13.3 14.0 12.9 14.0 12.7 14.1 M 8.4 5.2 C 7.0 4.4 9.9 5.5 8.4 5.2 M 6.1 7.0 C 7.0 7.8 8.3 9.1 6.7 8.1 C 5.0 7.4 5.1 6.2 6.1 7.0 M 14.2 4.9 C 14.2 6.2 14.0 3.8 14.2 4.9 M 11.4 4.8 C 11.5 4.9 11.5 4.9 11.4 4.8 C 11.4 4.8 11.4 4.8 11.4 4.8 Z M 10.6 5.0 C 10.4 4.9 10.4 4.9 10.6 5.0 M 14.2 6.1 C 14.1 6.0 14.1 6.0 14.2 6.1 M 8.1 8.0 C 8.0 7.9 8.0 7.9 8.1 8.0 M 8.2 6.4 C 6.8 6.4 7.5 5.6 8.2 6.4 M 5.0 2.5 C 3.6 1.8 5.9 2.4 5.0 2.5 M 9.9 8.5 C 8.4 8.3 7.5 6.5 9.9 8.5 M 8.2 6.0 C 8.2 6.1 8.2 6.1 8.2 6.0 C 8.2 6.0 8.2 6.0 8.2 6.0 Z M 6.0 7.3 C 6.0 7.2 6.0 7.2 6.0 7.3 C 6.0 7.3 6.0 7.3 6.0 7.3 Z M 6.3 7.7 C 6.2 7.6 6.2 7.6 6.3 7.7 C 6.3 7.7 6.3 7.7 6.3 7.7 Z M 10.6 9.4 C 10.5 9.4 10.5 9.4 10.6 9.4 C 10.6 9.4 10.6 9.4 10.6 9.4 Z M 11.2 2.0 C 9.9 1.9 12.0 1.8 11.2 2.0 C 11.2 2.0 11.2 2.0 11.2 2.0 Z M 10.4 5.6 C 8.0 4.7 10.2 4.7 10.4 5.6 C 10.4 5.6 10.4 5.6 10.4 5.6 Z M 6.8 4.0 C 6.7 4.0 6.7 4.0 6.8 4.0 C 6.8 4.0 6.8 4.0 6.8 4.0 Z M 10.8 8.6 C 10.7 8.5 10.7 8.5 10.8 8.6 C 10.8 8.6 10.8 8.6 10.8 8.6 Z M 10.5 1.9 C 10.4 1.8 10.4 1.8 10.5 1.9 C 10.5 1.9 10.5 1.9 10.5 1.9 Z M 10.7 11.1 C 10.6 11.0 10.6 11.0 10.7 11.1 C 10.7 11.1 10.7 11.1 10.7 11.1 Z M 4.5 4.7 C 5.4 5.4 3.9 4.5 4.5 4.7 C 4.5 4.7 4.5 4.7 4.5 4.7 Z M 5.1 6.0 C 5.2 6.1 5.2 6.1 5.1 6.0 C 5.1 6.0 5.1 6.0 5.1 6.0 Z M 13.1 13.2 C 13.1 13.2 13.1 13.2 13.1 13.2 C 13.1 13.2 13.1 13.2 13.1 13.2 Z M 5.3 8.9 C 5.4 8.9 5.4 8.9 5.3 8.9 C 5.3 8.9 5.3 8.9 5.3 8.9 Z M 7.9 10.7 C 7.9 10.7 7.9 10.7 7.9 10.7 C 7.9 10.7 7.9 10.7 7.9 10.7 Z M 10.0 9.0 C 10.9 10.2 9.1 8.4 10.0 9.0 C 10.0 9.0 10.0 9.0 10.0 9.0 Z M 10.2 14.0 C 10.1 14.0 10.1 14.0 10.2 14.0 C 10.2 14.0 10.2 14.0 10.2 14.0 Z M 12.5 14.9 C 12.5 14.9 12.5 14.9 12.5 14.9 C 12.5 14.9 12.5 14.9 12.5 14.9 Z M 13.8 15.3 C 13.7 15.3 13.7 15.3 13.8 15.3 C 13.8 15.3 13.8 15.3 13.8 15.3 Z M 8.7 3.2 C 8.8 3.3 8.8 3.3 8.7 3.2 C 8.7 3.2 8.7 3.2 8.7 3.2 Z M 11.9 5.9 C 11.9 6.0 11.9 6.0 11.9 5.9 C 11.9 5.9 11.9 5.9 11.9 5.9 Z M 10.9 6.1 C 10.9 6.1 10.9 6.1 10.9 6.1 C 10.9 6.1 10.9 6.1 10.9 6.1 Z M 7.5 1.6 C 7.6 1.6 7.6 1.6 7.5 1.6 C 7.5 1.6 7.5 1.6 7.5 1.6 Z M 7.0 6.3 C 7.0 6.3 7.0 6.3 7.0 6.3 C 7.0 6.3 7.0 6.3 7.0 6.3 Z M 5.6 6.0 C 5.6 6.0 5.6 6.0 5.6 6.0 C 5.6 6.0 5.6 6.0 5.6 6.0 Z M 2.4 3.2 C 2.4 3.2 2.4 3.2 2.4 3.2 C 2.4 3.2 2.4 3.2 2.4 3.2 Z M 4.4 5.8 C 4.4 5.8 4.4 5.8 4.4 5.8 C 4.4 5.8 4.4 5.8 4.4 5.8 Z M 13.9 2.1 C 13.9 2.0 13.9 2.0 13.9 2.1 C 13.9 2.1 13.9 2.1 13.9 2.1 Z M 14.5 4.2 C 14.5 4.1 14.5 4.1 14.5 4.2 C 14.5 4.2 14.5 4.2 14.5 4.2 Z M 9.4 7.7 C 10.2 8.3 8.8 7.7 9.4 7.7 M 7.9 5.4 C 7.8 5.3 7.8 5.3 7.9 5.4 C 7.9 5.4 7.9 5.4 7.9 5.4 Z M 11.2 11.1 C 10.1 11.0 11.2 10.4 11.2 11.1 C 11.2 11.1 11.2 11.1 11.2 11.1 Z M 5.5 7.9 C 5.5 7.9 5.5 7.9 5.5 7.9 C 5.5 7.9 5.5 7.9 5.5 7.9 Z M 6.4 8.8 C 6.3 8.8 6.3 8.8 6.4 8.8 C 6.4 8.8 6.4 8.8 6.4 8.8 Z M 11.3 13.3 C 11.2 13.3 11.2 13.3 11.3 13.3 M 9.0 5.9 C 9.0 5.9 9.0 5.9 9.0 5.9 C 8.0 5.5 8.2 5.6 9.0 5.9 C 9.0 5.9 9.0 5.9 9.0 5.9 M 11.5 11.8 C 11.4 11.7 11.4 11.7 11.5 11.8 C 11.5 11.8 11.5 11.8 11.5 11.8 Z M 12.3 14.1 C 12.2 14.0 12.2 14.0 12.3 14.1 C 12.3 14.1 12.3 14.1 12.3 14.1 Z M 9.5 5.3 C 8.0 4.3 8.7 4.5 9.5 5.3 M 13.2 5.0 C 13.1 4.9 13.1 4.9 13.2 5.0 C 13.2 5.0 13.2 5.0 13.2 5.0 Z M 13.2 5.0 " fill="#FEFFFE"></path></g></svg>