<?xml version="1.0" encoding="UTF-8" standalone="no"?><svg xmlns="http://www.w3.org/2000/svg" xmlns:xlink="http://www.w3.org/1999/xlink" clip-rule="evenodd" stroke-miterlimit="10" viewBox="0 0 82 71"><desc>SVG generated by Keynote</desc><defs></defs><g transform="matrix(1.00, 0.00, -0.00, -1.00, 0.0, 71.0)"><image xlink:href="../../96FF219B-A4D2-4817-98A6-9DC6FFF8C1D6/assets/7E27A04615B3C479F79C21176BC2C653.png" width="79.00" height="68.00" transform="matrix(1.00, 0.00, -0.00, -1.00, 1.0, 69.1)" opacity="0.50"></image><path d="M 47.5 33.3 C 47.6 33.6 46.3 34.8 46.6 35.1 M 47.5 33.3 C 44.0 34.8 42.7 36.5 40.9 38.8 C 39.3 41.3 43.2 38.8 44.1 39.2 C 42.7 43.2 41.1 42.8 38.9 41.8 C 39.8 43.5 34.8 46.1 38.0 46.7 C 41.4 41.0 35.9 51.5 40.7 46.9 C 41.5 46.5 41.2 48.4 40.8 49.0 C 43.1 47.7 42.3 51.7 45.2 48.8 C 47.2 49.0 46.0 49.3 48.9 47.5 C 49.7 46.5 48.8 46.8 48.3 46.8 C 46.3 45.8 51.3 44.2 51.0 42.0 C 55.3 40.5 52.5 38.5 50.3 39.9 C 51.7 38.3 56.4 36.1 55.0 34.5 C 57.4 33.3 59.0 28.8 55.0 32.0 C 52.4 34.1 52.5 32.3 51.7 32.2 C 50.6 32.9 50.3 35.1 49.4 35.5 C 49.3 34.9 49.7 32.2 48.0 35.2 C 47.3 34.4 45.7 35.9 47.5 33.3 C 47.5 33.3 47.5 33.3 47.5 33.3 Z M 39.6 43.0 C 38.9 42.8 40.2 42.1 39.6 43.0 C 39.6 43.0 39.6 43.0 39.6 43.0 Z M 55.9 35.9 C 54.9 35.9 56.7 34.5 55.9 35.9 C 55.9 35.9 55.9 35.9 55.9 35.9 Z M 48.7 46.1 C 48.0 45.9 49.6 44.8 48.7 46.1 C 48.7 46.1 48.7 46.1 48.7 46.1 Z M 41.7 40.6 C 43.3 39.2 42.0 42.1 41.1 42.2 C 41.4 41.9 40.7 40.9 41.7 40.6 C 41.7 40.6 41.7 40.6 41.7 40.6 Z M 46.6 41.0 C 46.4 40.8 46.7 40.0 47.5 40.2 C 47.5 40.7 46.8 41.1 46.6 41.0 C 46.6 41.0 46.6 41.0 46.6 41.0 Z M 38.4 48.6 C 38.2 48.3 38.5 47.6 39.1 48.0 C 39.1 48.6 38.5 48.8 38.4 48.6 C 38.4 48.6 38.4 48.6 38.4 48.6 Z M 45.0 39.0 C 45.4 38.6 46.3 38.4 46.1 39.0 C 45.6 39.2 44.7 40.4 45.0 39.0 C 45.0 39.0 45.0 39.0 45.0 39.0 Z M 43.5 36.6 C 44.7 35.3 44.5 37.9 44.1 37.8 C 43.2 38.2 42.4 37.3 43.5 36.6 C 43.5 36.6 43.5 36.6 43.5 36.6 Z M 46.7 38.2 C 47.9 37.0 47.0 38.7 46.7 38.2 C 46.7 38.2 46.7 38.2 46.7 38.2 Z M 44.1 50.0 C 45.3 48.7 44.2 50.9 44.1 50.0 C 44.1 50.0 44.1 50.0 44.1 50.0 Z M 51.1 42.9 C 52.4 41.4 51.3 43.7 51.1 42.9 C 51.1 42.9 51.1 42.9 51.1 42.9 Z M 41.5 43.9 C 40.3 45.8 39.4 43.6 41.5 43.9 C 41.5 43.9 41.5 43.9 41.5 43.9 Z M 45.0 33.8 C 43.8 35.6 42.3 34.5 45.0 33.8 C 45.0 33.8 45.0 33.8 45.0 33.8 Z M 42.6 45.9 C 44.0 47.4 42.8 40.6 41.1 43.5 C 39.1 45.0 36.3 40.0 39.6 40.9 C 39.1 39.6 39.2 39.6 37.5 38.9 C 39.4 38.7 38.8 35.8 37.0 34.7 C 34.6 33.7 37.9 36.6 34.8 34.7 C 31.8 30.5 32.8 34.7 29.1 32.6 C 29.0 32.4 30.3 32.5 29.3 32.0 C 26.7 31.3 26.8 34.0 24.1 32.3 C 25.0 33.2 24.9 37.1 25.9 35.5 C 27.7 35.1 26.1 40.0 29.2 39.5 C 28.5 40.9 31.4 42.1 30.4 43.6 C 30.6 44.7 32.2 44.3 32.5 44.1 C 33.9 43.7 30.1 46.1 33.5 47.0 C 32.9 47.4 35.9 51.7 34.9 48.0 C 35.3 49.0 37.6 54.1 38.4 50.4 C 37.7 46.8 42.7 52.2 40.7 48.6 C 39.4 46.0 38.6 45.6 41.0 47.0 C 41.2 47.6 43.2 50.4 42.8 47.4 C 42.2 47.0 41.7 45.9 42.6 45.9 C 42.6 45.9 42.6 45.9 42.6 45.9 Z M 39.3 48.0 C 38.3 46.5 40.2 47.4 39.3 48.0 C 39.3 48.0 39.3 48.0 39.3 48.0 Z M 29.6 43.4 C 28.3 41.5 30.6 43.1 29.6 43.4 C 29.6 43.4 29.6 43.4 29.6 43.4 Z M 40.9 41.7 C 39.6 41.2 42.5 40.6 40.9 41.7 C 40.9 41.7 40.9 41.7 40.9 41.7 Z M 33.7 46.0 C 33.7 45.9 34.2 46.3 34.6 46.5 C 34.4 46.5 33.8 46.2 33.7 46.0 C 33.7 46.0 33.7 46.0 33.7 46.0 Z M 39.6 39.6 C 36.9 37.7 41.8 39.1 39.6 39.6 C 39.6 39.6 39.6 39.6 39.6 39.6 Z M 34.1 35.5 C 30.5 34.9 33.5 33.5 34.1 35.5 C 34.1 35.5 34.1 35.5 34.1 35.5 Z M 28.9 38.6 C 29.9 39.1 28.8 39.1 28.9 38.6 C 28.9 38.6 28.9 38.6 28.9 38.6 Z M 35.7 50.6 C 36.5 50.8 35.7 51.2 35.7 50.6 C 35.7 50.6 35.7 50.6 35.7 50.6 Z M 27.2 35.3 C 28.5 35.6 27.1 36.2 27.2 35.3 C 27.2 35.3 27.2 35.3 27.2 35.3 Z M 39.5 41.5 C 42.8 42.8 37.6 44.6 39.5 41.5 C 39.5 41.5 39.5 41.5 39.5 41.5 Z M 41.6 44.7 C 42.8 45.7 40.2 44.9 40.2 44.3 C 40.4 44.2 41.4 44.5 41.6 44.7 C 41.6 44.7 41.6 44.7 41.6 44.7 Z M 38.0 39.7 C 40.0 40.8 38.1 40.9 38.0 39.7 C 38.0 39.7 38.0 39.7 38.0 39.7 Z M 41.2 42.6 C 41.3 43.2 40.6 42.1 41.2 42.6 C 41.2 42.6 41.2 42.6 41.2 42.6 Z M 39.3 37.3 C 39.3 37.8 38.7 36.8 39.3 37.3 C 39.3 37.3 39.3 37.3 39.3 37.3 Z M 43.6 45.8 C 43.7 46.4 43.0 45.4 43.6 45.8 C 43.6 45.8 43.6 45.8 43.6 45.8 Z M 37.9 37.7 C 36.6 37.5 35.2 39.4 35.3 36.1 C 35.8 35.6 38.4 37.0 37.9 37.7 C 37.9 37.7 37.9 37.7 37.9 37.7 Z M 49.2 30.4 C 42.7 35.4 50.2 33.4 51.3 33.4 C 52.7 33.9 54.4 33.0 56.4 31.6 C 61.7 29.4 52.8 30.8 57.9 28.9 C 65.3 25.5 53.4 28.7 60.6 26.0 C 62.2 25.8 62.2 23.8 61.6 24.2 C 65.8 21.7 60.6 22.3 60.0 22.6 C 61.4 21.4 68.1 18.7 64.6 18.3 C 63.9 17.3 71.4 13.1 66.2 16.0 C 72.6 11.8 65.2 15.8 67.8 13.5 C 71.5 10.9 63.1 15.9 70.1 11.1 C 66.7 12.6 70.4 11.1 71.8 9.0 C 71.1 9.0 69.9 9.1 67.9 9.5 C 70.6 9.7 61.8 11.7 65.7 9.8 C 71.0 7.9 61.7 10.6 60.4 9.4 C 58.4 10.4 52.9 12.9 55.9 10.2 C 55.4 7.0 51.5 12.1 52.2 9.5 C 51.8 8.4 50.0 10.8 49.5 10.6 C 49.5 8.6 47.9 9.9 44.4 9.4 C 35.8 8.4 42.4 14.4 40.1 15.0 C 39.9 16.0 41.4 22.4 41.4 17.5 C 41.6 18.9 47.2 13.9 43.0 19.2 C 45.1 17.1 42.1 21.4 45.2 18.8 C 42.7 15.1 50.4 17.3 45.5 19.2 C 45.2 20.2 46.5 20.0 46.4 19.1 C 48.5 15.7 46.9 20.7 49.6 16.5 C 50.8 17.7 54.2 14.0 52.1 16.6 C 47.4 21.0 53.3 15.4 53.1 16.7 C 56.0 16.8 46.9 21.9 52.9 18.5 C 51.5 20.7 56.5 16.5 58.5 16.0 C 60.4 14.9 60.9 14.9 60.5 15.3 C 59.9 16.2 56.8 18.3 54.6 18.7 C 54.5 18.7 54.5 18.7 54.4 18.7 C 54.6 18.7 54.7 18.6 54.9 18.6 C 56.4 18.2 52.0 20.2 54.6 19.5 C 60.1 15.9 48.6 23.6 52.7 21.3 C 53.3 21.7 56.4 19.7 56.3 20.0 C 55.4 21.7 51.1 23.4 54.3 22.1 C 55.9 21.6 49.5 25.0 50.9 24.6 C 52.1 22.9 54.8 24.0 52.3 25.1 C 52.6 24.2 46.3 27.9 49.3 27.2 C 59.3 22.6 46.1 29.3 48.9 28.9 C 54.4 26.5 47.4 32.3 46.1 31.3 C 46.5 31.3 49.3 30.4 49.2 30.4 M 51.4 24.7 C 52.7 23.2 51.6 25.7 51.4 24.7 M 49.9 25.4 C 52.1 24.0 47.9 27.1 49.4 25.6 C 49.4 25.5 49.8 25.5 49.9 25.4 M 52.9 20.3 C 54.5 19.5 51.5 21.5 52.9 20.3 M 57.2 17.2 C 57.4 16.8 57.8 16.7 58.0 16.8 C 58.2 16.9 58.1 17.1 57.3 17.2 C 57.2 17.2 57.2 17.2 57.2 17.2 M 43.9 17.9 C 47.9 12.8 43.7 20.8 43.9 17.9 M 50.5 19.0 C 52.8 18.3 47.4 21.1 50.5 19.0 M 52.6 17.7 C 54.5 16.8 51.2 18.8 52.6 17.7 M 46.2 17.9 C 46.2 17.8 46.2 17.8 46.2 17.9 C 46.2 17.9 46.2 17.9 46.2 17.9 Z M 42.7 17.8 C 42.7 17.8 42.7 17.8 42.7 17.8 C 42.7 17.8 42.7 17.8 42.7 17.8 Z M 50.2 17.4 C 50.0 18.6 47.9 17.8 50.2 17.4 C 50.2 17.4 50.2 17.4 50.2 17.4 Z M 47.9 10.0 C 48.0 9.9 48.0 9.9 47.9 10.0 C 47.9 10.0 47.9 10.0 47.9 10.0 Z M 54.4 24.3 C 54.5 24.3 54.5 24.3 54.4 24.3 C 54.4 24.3 54.4 24.3 54.4 24.3 Z M 48.9 29.6 C 49.9 29.3 47.7 30.6 48.9 29.6 C 48.9 29.6 48.9 29.6 48.9 29.6 Z M 54.6 31.5 C 54.7 31.5 54.7 31.5 54.6 31.5 C 54.6 31.5 54.6 31.5 54.6 31.5 Z M 57.6 24.3 C 57.6 24.3 57.6 24.3 57.6 24.3 C 57.6 24.3 57.6 24.3 57.6 24.3 Z M 52.2 25.8 C 47.5 28.1 54.4 23.7 52.2 25.8 C 52.2 25.8 52.2 25.8 52.2 25.8 Z M 60.2 10.3 C 58.7 11.5 58.9 9.8 60.2 10.3 C 60.2 10.3 60.2 10.3 60.2 10.3 Z M 58.9 16.1 C 57.6 16.7 58.7 15.8 58.9 16.1 C 58.9 16.1 58.9 16.1 58.9 16.1 Z M 51.3 21.8 C 50.3 22.2 52.2 20.9 51.3 21.8 C 51.3 21.8 51.3 21.8 51.3 21.8 Z M 47.8 29.9 C 47.6 29.9 47.6 29.9 47.8 29.9 C 47.8 29.9 47.8 29.9 47.8 29.9 Z M 51.8 27.4 C 47.4 29.7 55.0 24.9 51.8 27.4 C 51.8 27.4 51.8 27.4 51.8 27.4 Z M 51.8 29.0 C 53.6 27.9 50.3 30.6 51.8 29.0 M 58.3 26.0 C 57.7 24.9 64.1 25.6 58.3 26.0 C 58.3 26.0 58.3 26.0 58.3 26.0 Z M 65.1 16.8 C 65.4 16.6 65.4 16.6 65.1 16.8 C 65.1 16.8 65.1 16.8 65.1 16.8 Z M 52.0 23.5 C 52.8 22.3 52.6 23.7 52.0 23.5 C 52.0 23.5 52.0 23.5 52.0 23.5 Z M 45.6 33.0 C 46.3 31.9 46.0 33.6 45.6 33.0 C 45.6 33.0 45.6 33.0 45.6 33.0 Z M 63.6 14.3 C 64.2 12.5 65.2 14.3 63.6 14.3 C 63.6 14.3 63.6 14.3 63.6 14.3 Z M 52.0 16.3 C 52.1 16.3 52.1 16.3 52.0 16.3 C 52.0 16.3 52.0 16.3 52.0 16.3 Z M 49.5 17.4 C 49.6 17.4 49.6 17.4 49.5 17.4 C 49.5 17.4 49.5 17.4 49.5 17.4 Z M 45.3 14.7 C 45.3 14.6 45.3 14.6 45.3 14.7 C 45.3 14.7 45.3 14.7 45.3 14.7 Z M 47.3 18.7 C 47.3 18.7 47.3 18.7 47.3 18.7 C 47.3 18.7 47.3 18.7 47.3 18.7 Z M 44.5 18.0 C 44.4 17.9 44.4 17.9 44.5 18.0 C 44.5 18.0 44.5 18.0 44.5 18.0 Z M 43.8 20.3 C 43.8 20.2 43.8 20.2 43.8 20.3 C 43.8 20.3 43.8 20.3 43.8 20.3 Z M 65.6 8.7 C 65.6 8.6 65.6 8.6 65.6 8.7 C 65.6 8.7 65.6 8.7 65.6 8.7 Z M 47.7 28.5 C 48.1 28.3 48.1 28.3 47.7 28.5 C 47.7 28.5 47.7 28.5 47.7 28.5 Z M 45.2 17.0 C 45.2 16.9 45.2 16.9 45.2 17.0 C 45.2 17.0 45.2 17.0 45.2 17.0 Z M 57.7 14.9 C 61.0 12.6 54.1 17.9 57.3 15.0 C 57.5 14.9 57.3 15.2 57.7 14.9 M 61.2 11.1 C 61.3 11.1 61.3 11.1 61.2 11.1 C 61.2 11.1 61.2 11.1 61.2 11.1 Z M 70.5 9.7 C 70.5 9.7 70.5 9.7 70.5 9.7 C 70.6 9.7 70.6 9.7 70.5 9.7 C 70.5 9.7 70.5 9.7 70.5 9.7 C 70.5 9.7 70.5 9.7 70.5 9.7 Z M 47.4 19.2 C 46.4 20.4 47.4 18.2 47.6 19.1 M 46.9 10.8 C 46.6 12.0 45.4 9.8 47.1 10.7 M 46.0 34.0 C 47.1 34.0 44.8 34.9 46.0 34.0 M 71.8 9.8 C 73.4 9.1 70.2 11.5 71.8 9.8 M 65.9 11.4 C 64.0 12.7 65.7 10.5 66.2 11.4 M 51.6 10.8 C 51.5 10.8 51.5 10.8 51.6 10.8 C 51.6 10.8 51.6 10.8 51.6 10.8 Z M 53.5 21.6 C 53.5 21.5 53.5 21.5 53.5 21.6 C 53.5 21.6 53.5 21.6 53.5 21.6 Z M 58.6 15.5 C 56.5 17.2 59.3 14.4 58.6 15.5 M 57.5 20.7 C 53.4 23.3 59.7 18.4 57.5 20.7 M 43.3 10.2 C 44.5 12.8 42.0 8.8 43.3 10.2 M 48.1 16.7 C 47.0 19.3 48.2 15.3 48.1 16.7 M 55.9 19.7 C 53.6 20.9 58.0 17.8 55.9 19.7 M 47.1 31.6 C 46.2 32.7 46.5 30.7 47.1 31.6 M 56.3 10.8 C 56.3 10.7 56.3 10.7 56.3 10.8 C 56.3 10.8 56.3 10.8 56.3 10.8 Z M 63.6 23.5 C 63.8 23.4 63.8 23.4 63.6 23.5 C 63.6 23.5 63.6 23.5 63.6 23.5 Z M 40.7 18.7 C 40.6 18.6 40.6 18.6 40.7 18.7 C 40.7 18.7 40.7 18.7 40.7 18.7 Z M 49.8 15.5 C 49.9 15.4 49.9 15.4 49.8 15.5 C 49.8 15.5 49.8 15.5 49.8 15.5 Z M 42.4 19.1 C 42.4 18.9 42.4 18.9 42.4 19.1 C 42.4 19.1 42.4 19.1 42.4 19.1 Z M 56.4 13.5 C 56.5 13.4 56.5 13.4 56.4 13.5 C 56.4 13.5 56.4 13.5 56.4 13.5 Z M 48.9 20.1 C 49.0 20.0 49.0 20.0 48.9 20.1 C 48.9 20.1 48.9 20.1 48.9 20.1 Z M 56.4 17.3 C 56.4 17.2 56.4 17.2 56.4 17.3 C 56.4 17.3 56.4 17.3 56.4 17.3 Z M 48.3 19.6 C 46.2 20.0 51.8 17.4 48.3 19.6 C 48.3 19.6 48.3 19.6 48.3 19.6 Z M 61.3 13.0 C 61.3 12.9 61.3 12.9 61.3 13.0 C 61.3 13.0 61.3 13.0 61.3 13.0 Z M 54.5 17.7 C 50.5 19.5 58.4 14.5 54.5 17.7 M 51.3 23.1 C 49.9 23.5 54.0 21.6 51.3 23.1 M 63.6 19.5 C 63.8 19.4 63.8 19.4 63.6 19.5 C 63.6 19.5 63.6 19.5 63.6 19.5 Z M 63.1 19.1 C 63.3 19.0 63.3 19.0 63.1 19.1 C 63.1 19.1 63.1 19.1 63.1 19.1 Z M 49.9 24.8 C 49.9 24.7 49.9 24.7 49.9 24.8 C 49.9 24.8 49.9 24.8 49.9 24.8 Z M 67.1 17.2 C 67.3 17.1 67.3 17.1 67.1 17.2 C 67.1 17.2 67.1 17.2 67.1 17.2 Z M 49.8 19.9 C 49.8 19.9 49.8 19.9 49.8 19.9 C 49.8 19.9 49.8 19.9 49.8 19.9 Z M 41.4 20.0 C 41.3 20.0 41.3 20.0 41.4 20.0 C 41.4 20.0 41.4 20.0 41.4 20.0 Z M 56.9 28.9 C 57.0 28.8 57.0 28.8 56.9 28.9 C 56.9 28.9 56.9 28.9 56.9 28.9 Z M 52.1 17.3 C 52.2 17.2 52.2 17.2 52.1 17.3 C 52.1 17.3 52.1 17.3 52.1 17.3 Z M 61.7 21.9 C 61.9 21.8 61.9 21.8 61.7 21.9 C 61.7 21.9 61.7 21.9 61.7 21.9 Z M 52.2 17.9 C 52.2 17.8 52.2 17.8 52.2 17.9 C 52.2 17.9 52.2 17.9 52.2 17.9 Z M 57.5 10.2 C 57.5 10.2 57.5 10.2 57.5 10.2 C 57.5 10.2 57.5 10.2 57.5 10.2 Z M 54.2 8.7 C 54.2 8.7 54.2 8.7 54.2 8.7 C 54.2 8.7 54.2 8.7 54.2 8.7 Z M 53.0 14.8 C 53.0 14.8 53.0 14.8 53.0 14.8 C 53.0 14.8 53.0 14.8 53.0 14.8 Z M 56.8 24.6 C 50.5 30.6 57.7 21.1 56.8 24.6 M 52.5 14.3 C 56.1 14.8 47.3 16.8 52.5 14.3 C 51.4 14.9 52.4 14.3 52.5 14.3 M 39.8 19.8 C 40.9 17.4 40.9 15.0 40.2 12.5 C 39.1 11.3 39.5 16.2 39.1 12.0 C 41.5 11.2 37.0 5.9 38.0 11.2 C 35.0 11.9 36.8 7.8 35.1 9.9 C 31.6 10.4 32.7 8.8 29.9 9.2 C 30.1 12.1 27.1 7.8 28.3 10.5 C 27.7 7.5 26.0 11.3 24.7 10.0 C 25.9 8.1 14.5 9.9 22.5 10.8 C 21.6 12.2 18.9 9.7 17.4 9.4 C 18.6 11.1 10.4 8.0 11.4 9.7 C 12.4 10.1 13.5 10.2 14.7 10.8 C 17.0 11.9 12.4 10.6 12.8 10.6 C 12.8 10.7 12.8 10.8 12.7 10.9 C 14.7 12.8 17.6 15.6 11.1 10.1 C 8.4 8.5 14.0 13.7 11.7 12.4 C 13.6 15.6 17.0 15.7 14.2 15.2 C 15.5 17.4 16.5 19.1 17.1 19.3 C 17.4 20.5 15.0 19.7 18.2 21.9 C 15.3 23.2 28.3 27.0 19.9 24.9 C 22.5 26.3 17.2 25.4 22.5 26.9 C 19.4 25.2 21.3 30.7 23.6 29.0 C 25.2 29.9 21.0 32.3 25.7 32.6 C 30.0 34.2 33.5 34.5 35.8 33.1 C 33.0 32.7 37.8 32.0 33.4 32.1 C 32.8 33.6 29.5 28.3 32.1 29.9 C 38.6 32.0 26.5 26.1 30.7 26.8 C 28.5 26.7 24.5 21.8 30.6 25.3 C 30.6 24.8 28.0 23.5 30.6 24.1 C 31.5 26.1 24.3 20.5 27.8 22.3 C 30.1 23.6 29.9 21.3 26.8 19.9 C 19.6 17.0 28.0 19.9 24.3 17.5 C 24.3 17.5 24.3 17.5 24.3 17.5 C 24.8 16.5 31.0 21.5 26.4 18.1 C 27.7 18.6 30.1 18.7 30.0 19.6 C 28.8 19.1 24.5 14.5 30.0 18.5 C 31.0 20.7 34.0 19.7 32.0 18.5 C 24.9 16.3 34.8 16.0 32.8 18.2 C 36.2 20.4 33.1 19.0 34.5 18.1 C 33.2 16.9 34.6 15.6 35.5 18.1 C 38.0 21.9 33.5 13.1 37.6 18.3 C 38.5 20.5 40.2 16.6 39.4 19.1 C 39.4 19.4 39.8 19.8 39.8 19.8 M 39.1 19.4 C 39.2 18.5 39.6 20.4 39.1 19.4 M 39.2 18.5 C 39.2 18.6 39.2 18.6 39.2 18.5 C 39.2 18.5 39.2 18.5 39.2 18.5 Z M 34.7 18.0 C 34.8 18.1 34.8 18.1 34.7 18.0 C 34.7 18.0 34.7 18.0 34.7 18.0 Z M 21.0 8.5 C 21.2 8.6 21.2 8.6 21.0 8.5 C 21.0 8.5 21.0 8.5 21.0 8.5 Z M 31.6 17.7 C 31.6 17.8 31.6 17.8 31.6 17.7 C 31.6 17.7 31.6 17.7 31.6 17.7 Z M 36.0 17.4 C 36.0 17.4 36.0 17.4 36.0 17.4 C 36.0 17.4 36.0 17.4 36.0 17.4 Z M 33.2 19.1 C 31.6 17.7 35.0 20.2 33.4 19.3 C 33.2 19.3 33.4 19.3 33.2 19.1 M 30.7 19.7 C 30.4 19.5 30.4 19.5 30.7 19.7 M 13.4 16.7 C 13.2 16.6 13.2 16.6 13.4 16.7 M 31.9 25.5 C 31.7 25.5 31.7 25.5 31.9 25.5 M 26.1 19.0 C 27.2 20.4 25.1 18.6 26.1 19.0 M 32.4 28.0 C 33.0 27.1 34.5 29.9 32.4 28.0 M 34.5 29.8 C 34.4 29.8 34.4 29.8 34.5 29.8 M 29.8 23.1 C 29.6 23.0 29.6 23.0 29.8 23.1 C 29.8 23.1 29.8 23.1 29.8 23.1 Z M 26.9 19.1 C 26.9 19.0 27.0 19.0 27.0 19.0 C 27.6 19.2 27.9 19.4 27.9 19.5 C 28.6 20.1 28.9 20.8 26.9 19.1 M 35.2 19.3 C 35.1 20.0 33.9 17.5 35.2 19.3 M 36.2 18.5 C 36.2 18.4 36.2 18.4 36.2 18.5 C 36.2 18.5 36.2 18.5 36.2 18.5 Z M 31.2 25.7 C 31.1 25.6 31.1 25.6 31.2 25.7 C 31.2 25.7 31.2 25.7 31.2 25.7 Z M 32.5 27.5 C 32.5 27.4 32.5 27.4 32.5 27.5 C 32.5 27.5 32.5 27.5 32.5 27.5 Z M 19.4 25.8 C 19.3 25.7 19.3 25.7 19.4 25.8 C 19.4 25.8 19.4 25.8 19.4 25.8 Z M 32.1 14.2 C 34.1 14.9 33.2 17.6 31.4 15.1 C 30.4 14.0 32.1 14.4 32.1 14.2 M 22.2 15.7 C 15.7 12.1 31.0 20.5 22.2 15.7 M 31.2 28.9 C 26.0 28.5 34.7 28.9 31.2 28.9 M 33.7 31.6 C 33.0 32.0 30.4 26.9 34.1 31.0 C 35.3 31.6 34.2 31.5 33.7 31.6 M 28.2 18.0 C 25.0 16.0 31.0 18.8 28.2 18.0 M 18.0 17.5 C 20.5 19.2 23.4 21.8 19.4 19.4 C 15.0 17.4 15.7 15.7 18.0 17.5 M 38.3 17.4 C 38.4 20.5 37.7 14.7 38.3 17.4 M 33.3 17.1 C 33.4 17.2 33.4 17.2 33.3 17.1 C 33.3 17.1 33.3 17.1 33.3 17.1 Z M 31.9 17.6 C 31.5 17.3 31.5 17.3 31.9 17.6 M 38.4 20.1 C 38.3 19.9 38.3 19.9 38.4 20.1 M 23.4 20.0 C 23.0 19.9 23.0 19.9 23.4 20.0 M 24.5 17.9 C 20.3 16.9 22.7 16.2 24.5 17.9 M 20.2 11.4 C 17.2 10.0 22.0 11.3 20.2 11.4 M 28.3 21.8 C 24.2 20.8 22.4 17.6 28.3 21.8 M 25.2 17.7 C 25.1 17.7 25.1 17.7 25.2 17.7 C 25.2 17.7 25.2 17.7 25.2 17.7 Z M 17.8 17.8 C 17.7 17.7 17.7 17.7 17.8 17.8 C 17.8 17.8 17.8 17.8 17.8 17.8 Z M 18.5 18.6 C 18.3 18.5 18.3 18.5 18.5 18.6 C 18.5 18.6 18.5 18.6 18.5 18.6 Z M 29.7 23.6 C 29.6 23.5 29.6 23.5 29.7 23.6 C 29.7 23.6 29.7 23.6 29.7 23.6 Z M 32.1 10.4 C 29.7 10.2 33.7 9.9 32.1 10.4 C 32.1 10.4 32.1 10.4 32.1 10.4 Z M 31.9 19.1 C 27.0 16.8 31.0 16.9 31.9 19.1 C 31.9 19.1 31.9 19.1 31.9 19.1 Z M 24.5 15.2 C 24.3 15.1 24.3 15.1 24.5 15.2 C 24.5 15.2 24.5 15.2 24.5 15.2 Z M 30.9 22.7 C 30.6 22.5 30.6 22.5 30.9 22.7 C 30.9 22.7 30.9 22.7 30.9 22.7 Z M 30.8 10.0 C 30.7 9.8 30.7 9.8 30.8 10.0 C 30.8 10.0 30.8 10.0 30.8 10.0 Z M 29.4 26.1 C 29.1 26.0 29.1 26.0 29.4 26.1 C 29.4 26.1 29.4 26.1 29.4 26.1 Z M 14.4 13.0 C 16.7 14.6 12.8 12.2 14.4 13.0 C 14.4 13.0 14.4 13.0 14.4 13.0 Z M 15.8 15.4 C 15.9 15.5 15.9 15.5 15.8 15.4 C 15.8 15.4 15.8 15.4 15.8 15.4 Z M 35.1 30.3 C 35.1 30.3 35.1 30.3 35.1 30.3 C 35.1 30.3 35.1 30.3 35.1 30.3 Z M 15.4 20.1 C 15.5 20.2 15.5 20.2 15.4 20.1 C 15.4 20.1 15.4 20.1 15.4 20.1 Z M 21.9 24.2 C 21.8 24.2 21.8 24.2 21.9 24.2 C 21.9 24.2 21.9 24.2 21.9 24.2 Z M 28.4 22.7 C 30.4 25.0 25.9 21.2 28.4 22.7 C 28.4 22.7 28.4 22.7 28.4 22.7 Z M 26.9 30.5 C 26.6 30.5 26.6 30.5 26.9 30.5 C 26.9 30.5 26.9 30.5 26.9 30.5 Z M 32.9 32.8 C 32.7 32.8 32.7 32.8 32.9 32.8 C 32.9 32.8 32.9 32.8 32.9 32.8 Z M 36.0 33.7 C 35.8 33.8 35.8 33.8 36.0 33.7 C 36.0 33.7 36.0 33.7 36.0 33.7 Z M 27.7 13.3 C 27.9 13.4 27.9 13.4 27.7 13.3 C 27.7 13.3 27.7 13.3 27.7 13.3 Z M 34.6 19.8 C 34.6 19.9 34.6 19.9 34.6 19.8 C 34.6 19.8 34.6 19.8 34.6 19.8 Z M 33.0 20.1 C 33.1 20.2 33.1 20.2 33.0 20.1 C 33.0 20.1 33.0 20.1 33.0 20.1 Z M 24.8 9.3 C 25.0 9.4 25.0 9.4 24.8 9.3 C 24.8 9.3 24.8 9.3 24.8 9.3 Z M 20.9 16.9 C 21.1 16.9 21.1 16.9 20.9 16.9 C 20.9 16.9 20.9 16.9 20.9 16.9 Z M 17.0 15.6 C 17.2 15.7 17.2 15.7 17.0 15.6 C 17.0 15.6 17.0 15.6 17.0 15.6 Z M 9.1 9.3 C 9.2 9.4 9.2 9.4 9.1 9.3 C 9.1 9.3 9.1 9.3 9.1 9.3 Z M 13.7 14.6 C 13.8 14.6 13.8 14.6 13.7 14.6 C 13.7 14.6 13.7 14.6 13.7 14.6 Z M 37.5 10.5 C 37.5 10.4 37.5 10.4 37.5 10.5 C 37.5 10.5 37.5 10.5 37.5 10.5 Z M 38.7 15.5 C 38.7 15.4 38.7 15.4 38.7 15.5 C 38.7 15.5 38.7 15.5 38.7 15.5 Z M 27.3 20.5 C 29.4 21.8 25.4 20.1 27.3 20.5 M 26.5 17.9 C 26.4 17.8 26.4 17.8 26.5 17.9 C 26.5 17.9 26.5 17.9 26.5 17.9 Z M 30.6 26.3 C 27.9 25.6 31.2 25.3 30.6 26.3 C 30.6 26.3 30.6 26.3 30.6 26.3 Z M 16.2 18.6 C 16.1 18.6 16.1 18.6 16.2 18.6 C 16.2 18.6 16.2 18.6 16.2 18.6 Z M 18.3 20.5 C 18.0 20.5 18.0 20.5 18.3 20.5 C 18.3 20.5 18.3 20.5 18.3 20.5 Z M 30.2 29.7 C 30.0 29.7 30.0 29.7 30.2 29.7 M 29.8 19.6 C 27.9 18.8 28.3 18.9 29.8 19.6 M 31.2 27.5 C 31.1 27.4 31.1 27.4 31.2 27.5 C 31.2 27.5 31.2 27.5 31.2 27.5 Z M 32.5 31.3 C 32.4 31.2 32.4 31.2 32.5 31.3 C 32.5 31.3 32.5 31.3 32.5 31.3 Z M 30.1 18.3 C 26.9 15.9 28.2 16.4 30.1 18.3 M 36.4 17.5 C 36.4 17.4 36.4 17.4 36.4 17.5 C 36.4 17.5 36.4 17.5 36.4 17.5 Z M 36.4 17.5 " fill="#FEFFFF"></path></g></svg>