<?xml version="1.0" encoding="UTF-8" standalone="no"?><svg xmlns="http://www.w3.org/2000/svg" xmlns:xlink="http://www.w3.org/1999/xlink" clip-rule="evenodd" stroke-miterlimit="10" viewBox="0 0 28 30"><desc>SVG generated by Keynote</desc><defs></defs><g transform="matrix(1.00, 0.00, -0.00, -1.00, 0.0, 30.0)"><path d="M 11.8 24.8 C 11.6 24.9 11.0 24.7 10.8 24.9 M 11.8 24.8 C 10.8 23.9 9.8 23.8 8.5 23.6 C 7.1 23.6 8.8 24.5 8.7 24.9 C 6.8 25.2 6.7 24.6 6.8 23.6 C 6.2 24.2 4.0 23.1 4.5 24.3 C 7.5 24.3 2.2 24.6 4.9 25.3 C 5.3 25.5 4.5 25.8 4.2 25.8 C 5.1 26.3 3.5 26.9 5.1 27.3 C 5.4 28.1 5.1 27.7 6.2 28.4 C 6.6 28.4 6.4 28.2 6.3 28.0 C 6.4 27.1 7.7 28.5 8.4 27.9 C 9.5 29.1 9.9 27.7 9.1 27.2 C 9.9 27.4 11.2 28.6 11.7 27.7 C 12.4 28.3 14.3 27.9 12.8 27.2 C 11.7 26.7 12.5 26.4 12.5 26.1 C 12.1 25.8 11.1 26.2 10.8 26.0 C 11.1 25.8 12.4 25.3 10.9 25.4 C 11.2 25.0 10.4 24.7 11.8 24.8 C 11.8 24.8 11.8 24.8 11.8 24.8 Z M 6.3 24.1 C 6.3 23.8 6.8 24.1 6.3 24.1 C 6.3 24.1 6.3 24.1 6.3 24.1 Z M 11.3 28.3 C 11.2 28.0 11.9 28.4 11.3 28.3 C 11.3 28.3 11.3 28.3 11.3 28.3 Z M 6.6 28.0 C 6.6 27.7 7.2 28.0 6.6 28.0 C 6.6 28.0 6.6 28.0 6.6 28.0 Z M 7.7 24.3 C 8.6 24.6 7.1 24.8 7.0 24.4 C 7.1 24.5 7.5 24.0 7.7 24.3 C 7.7 24.3 7.7 24.3 7.7 24.3 Z M 8.3 26.1 C 8.3 26.0 8.7 26.0 8.7 26.3 C 8.5 26.4 8.2 26.2 8.3 26.1 C 8.3 26.1 8.3 26.1 8.3 26.1 Z M 3.8 24.8 C 3.9 24.7 4.2 24.7 4.2 25.0 C 4.0 25.1 3.7 24.9 3.8 24.8 C 3.8 24.8 3.8 24.8 3.8 24.8 Z M 8.9 25.1 C 9.1 25.2 9.3 25.5 9.0 25.5 C 8.9 25.4 8.2 25.3 8.9 25.1 C 8.9 25.1 8.9 25.1 8.9 25.1 Z M 9.9 24.1 C 10.6 24.2 9.4 24.7 9.3 24.6 C 9.0 24.3 9.4 23.8 9.9 24.1 C 9.9 24.1 9.9 24.1 9.9 24.1 Z M 9.4 25.6 C 10.1 25.7 9.2 25.8 9.4 25.6 C 9.4 25.6 9.4 25.6 9.4 25.6 Z M 4.5 27.2 C 5.1 27.3 4.2 27.4 4.5 27.2 C 4.5 27.2 4.5 27.2 4.5 27.2 Z M 8.1 28.2 C 8.8 28.3 7.9 28.4 8.1 28.2 C 8.1 28.2 8.1 28.2 8.1 28.2 Z M 6.3 24.9 C 5.3 24.9 6.1 24.1 6.3 24.9 C 6.3 24.9 6.3 24.9 6.3 24.9 Z M 11.4 24.0 C 10.4 24.0 10.9 23.2 11.4 24.0 C 11.4 24.0 11.4 24.0 11.4 24.0 Z M 5.3 24.7 C 5.5 25.6 6.5 22.3 5.3 23.4 C 4.3 23.7 4.3 21.2 5.3 22.0 C 5.4 21.3 5.5 21.3 5.0 20.8 C 5.7 20.9 6.1 19.4 5.7 18.7 C 5.1 18.1 5.6 19.7 5.0 18.6 C 4.8 16.3 4.2 18.5 3.4 17.3 C 3.4 17.2 3.8 17.3 3.6 17.0 C 2.8 16.6 2.2 17.8 1.6 16.9 C 1.8 17.3 0.9 18.9 1.6 18.3 C 2.3 18.3 0.7 20.0 1.9 20.2 C 1.4 20.6 2.1 21.4 1.4 21.8 C 1.3 22.3 1.9 22.4 2.1 22.3 C 2.7 22.4 0.8 22.7 1.8 23.5 C 1.5 23.5 1.7 25.5 2.1 24.1 C 2.0 24.5 1.7 26.7 2.8 25.6 C 3.4 24.1 4.0 27.1 4.0 25.4 C 4.2 24.1 3.9 23.8 4.5 24.8 C 4.4 25.1 4.6 26.6 5.1 25.4 C 4.9 25.1 5.0 24.5 5.3 24.7 C 5.3 24.7 5.3 24.7 5.3 24.7 Z M 3.7 24.9 C 3.6 24.1 4.1 24.8 3.7 24.9 C 3.7 24.9 3.7 24.9 3.7 24.9 Z M 1.2 21.7 C 1.1 20.8 1.6 21.7 1.2 21.7 C 1.2 21.7 1.2 21.7 1.2 21.7 Z M 5.6 22.5 C 5.2 22.1 6.4 22.3 5.6 22.5 C 5.6 22.5 5.6 22.5 5.6 22.5 Z M 2.1 23.2 C 2.1 23.1 2.3 23.3 2.3 23.5 C 2.3 23.5 2.1 23.3 2.1 23.2 C 2.1 23.2 2.1 23.2 2.1 23.2 Z M 5.6 21.4 C 5.0 20.2 6.5 21.4 5.6 21.4 C 5.6 21.4 5.6 21.4 5.6 21.4 Z M 4.5 18.9 C 3.4 18.4 4.7 17.9 4.5 18.9 C 4.5 18.9 4.5 18.9 4.5 18.9 Z M 2.0 19.8 C 2.2 20.1 1.9 20.0 2.0 19.8 C 2.0 19.8 2.0 19.8 2.0 19.8 Z M 1.8 25.1 C 2.1 25.3 1.7 25.3 1.8 25.1 C 1.8 25.1 1.8 25.1 1.8 25.1 Z M 2.1 18.3 C 2.5 18.5 1.9 18.7 2.1 18.3 C 2.1 18.3 2.1 18.3 2.1 18.3 Z M 5.1 22.3 C 6.0 23.4 3.8 23.3 5.1 22.3 C 5.1 22.3 5.1 22.3 5.1 22.3 Z M 5.2 24.0 C 5.4 24.7 4.7 23.8 4.8 23.6 C 4.9 23.6 5.2 23.9 5.2 24.0 C 5.2 24.0 5.2 24.0 5.2 24.0 Z M 5.0 21.2 C 5.5 22.0 4.8 21.8 5.0 21.2 C 5.0 21.2 5.0 21.2 5.0 21.2 Z M 5.5 23.0 C 5.4 23.3 5.4 22.7 5.5 23.0 C 5.5 23.0 5.5 23.0 5.5 23.0 Z M 6.0 20.2 C 5.9 20.5 5.9 19.9 6.0 20.2 C 6.0 20.2 6.0 20.2 6.0 20.2 Z M 5.7 24.9 C 5.6 25.2 5.6 24.6 5.7 24.9 C 5.7 24.9 5.7 24.9 5.7 24.9 Z M 5.4 20.3 C 5.0 20.1 4.1 20.8 4.8 19.3 C 5.1 19.1 5.7 20.0 5.4 20.3 C 5.4 20.3 5.4 20.3 5.4 20.3 Z M 14.8 24.8 C 10.0 23.5 11.9 25.8 11.9 26.2 C 11.5 26.8 12.3 27.2 13.4 27.6 C 15.2 29.0 14.2 26.1 15.7 27.5 C 18.2 29.4 16.2 25.9 18.0 27.9 C 18.2 28.4 19.9 28.0 19.6 27.9 C 21.3 28.8 21.4 27.1 21.2 27.0 C 22.1 27.2 23.7 29.0 24.6 27.7 C 24.9 27.5 25.2 27.6 25.6 27.7 C 25.8 27.0 26.6 27.4 25.7 26.9 C 27.0 26.8 25.3 25.7 25.7 24.9 C 26.5 24.5 24.6 23.9 26.0 23.5 C 24.9 22.1 26.8 24.8 26.0 20.0 C 25.9 21.9 25.0 17.8 25.8 18.7 C 26.6 20.5 25.5 16.7 26.0 14.9 C 25.6 14.4 24.5 12.4 25.7 12.5 C 27.0 10.1 24.9 10.8 25.9 9.6 C 26.4 8.7 25.4 8.9 25.5 8.5 C 26.3 7.3 25.8 7.0 26.0 4.4 C 26.1 2.9 26.0 2.2 25.8 2.1 C 25.1 2.3 24.9 2.8 24.6 3.3 C 24.4 3.6 24.2 4.0 23.8 4.1 C 23.6 4.2 23.5 4.2 23.3 4.2 C 23.1 4.4 23.0 4.7 22.9 5.0 C 22.1 6.3 21.2 7.9 22.6 6.1 C 22.0 6.9 24.1 8.8 21.9 8.5 C 22.8 9.2 21.0 9.0 22.1 10.5 C 23.6 6.0 22.7 14.2 21.9 11.2 C 21.5 11.8 21.6 13.0 21.9 12.0 C 23.4 11.2 21.3 14.3 23.0 12.7 C 22.5 14.9 24.1 14.3 23.0 14.9 C 21.2 15.4 23.5 14.8 22.9 15.9 C 22.9 18.5 20.8 16.2 22.2 17.9 C 21.3 19.7 23.0 18.7 23.3 19.7 C 24.5 20.5 22.3 21.6 22.1 19.7 C 22.8 21.1 21.5 19.6 22.3 21.1 C 23.5 21.0 21.0 21.5 22.0 21.9 C 22.3 23.1 23.0 23.2 23.0 23.5 C 23.0 25.1 21.9 23.5 22.7 24.6 C 22.8 24.8 22.8 24.8 22.8 24.9 C 22.5 24.9 20.8 23.8 20.9 24.1 C 22.6 24.2 20.7 25.4 20.0 24.7 C 20.9 24.7 18.2 23.2 18.4 24.1 C 21.3 26.7 16.5 23.4 16.5 24.4 C 18.2 25.8 13.0 24.5 14.2 23.9 C 14.2 24.0 14.9 24.8 14.8 24.8 M 20.7 24.3 C 22.1 24.5 19.5 24.6 20.7 24.3 M 20.3 24.0 C 21.3 24.4 18.8 23.6 20.2 23.8 C 20.2 23.8 20.2 23.9 20.3 24.0 M 21.8 20.6 C 22.3 21.0 21.6 21.1 21.8 20.6 M 22.7 20.1 C 23.1 19.4 22.8 21.3 22.7 20.1 M 22.4 8.7 C 24.6 8.6 21.3 10.5 22.4 8.7 M 22.0 16.1 C 22.3 17.5 21.1 15.6 22.0 16.1 M 22.6 16.6 C 22.9 17.3 22.1 16.6 22.6 16.6 M 22.5 10.8 C 22.5 10.7 22.5 10.7 22.5 10.8 C 22.5 10.8 22.5 10.8 22.5 10.8 Z M 22.5 7.4 C 22.5 7.4 22.5 7.4 22.5 7.4 C 22.5 7.4 22.5 7.4 22.5 7.4 Z M 22.7 14.0 C 22.2 15.1 22.5 12.4 22.7 14.0 C 22.7 14.0 22.7 14.0 22.7 14.0 Z M 25.8 7.0 C 25.8 7.1 25.8 7.1 25.8 7.0 C 25.8 7.0 25.8 7.0 25.8 7.0 Z M 20.5 25.3 C 20.5 25.3 20.5 25.3 20.5 25.3 C 20.5 25.3 20.5 25.3 20.5 25.3 Z M 15.7 24.5 C 15.9 24.8 14.8 24.3 15.7 24.5 C 15.7 24.5 15.7 24.5 15.7 24.5 Z M 13.5 27.0 C 13.5 27.0 13.5 27.0 13.5 27.0 C 13.5 27.0 13.5 27.0 13.5 27.0 Z M 19.9 26.4 C 19.9 26.5 19.9 26.5 19.9 26.4 C 19.9 26.4 19.9 26.4 19.9 26.4 Z M 19.3 24.9 C 17.7 23.7 21.2 25.2 19.3 24.9 C 19.3 24.9 19.3 24.9 19.3 24.9 Z M 25.6 15.5 C 25.1 15.4 25.8 14.3 25.6 15.5 C 25.6 15.5 25.6 15.5 25.6 15.5 Z M 23.2 20.2 C 22.9 19.9 23.3 19.7 23.2 20.2 C 23.2 20.2 23.2 20.2 23.2 20.2 Z M 21.6 21.3 C 21.3 21.0 21.7 20.9 21.6 21.3 C 21.6 21.3 21.6 21.3 21.6 21.3 Z M 15.6 24.2 C 15.6 24.1 15.6 24.1 15.6 24.2 C 15.6 24.2 15.6 24.2 15.6 24.2 Z M 17.6 25.1 C 15.9 24.0 19.7 25.7 17.6 25.1 C 17.6 25.1 17.6 25.1 17.6 25.1 Z M 16.1 25.4 C 16.9 25.8 14.6 25.2 16.1 25.4 M 18.3 27.1 C 19.3 26.6 18.2 29.1 18.3 27.1 C 18.3 27.1 18.3 27.1 18.3 27.1 Z M 25.5 27.1 C 25.5 27.0 25.5 27.0 25.5 27.1 C 25.5 27.1 25.5 27.1 25.5 27.1 Z M 21.9 24.3 C 22.1 24.3 22.2 24.3 22.3 24.3 C 22.3 24.3 22.3 24.3 22.3 24.4 C 22.2 24.4 21.6 24.5 21.9 24.3 C 21.9 24.3 21.9 24.3 21.9 24.3 Z M 12.4 24.1 C 13.5 24.1 11.9 24.3 12.4 24.1 C 12.4 24.1 12.4 24.1 12.4 24.1 Z M 24.4 21.9 C 24.2 19.9 25.0 23.6 24.4 21.9 C 24.4 21.9 24.4 21.9 24.4 21.9 Z M 23.1 14.6 C 23.1 14.6 23.1 14.6 23.1 14.6 C 23.1 14.6 23.1 14.6 23.1 14.6 Z M 22.7 13.5 C 22.7 13.4 22.7 13.4 22.7 13.5 C 22.7 13.5 22.7 13.5 22.7 13.5 Z M 23.8 7.9 C 23.8 7.8 23.8 7.8 23.8 7.9 C 23.8 7.9 23.8 7.9 23.8 7.9 Z M 22.1 12.6 C 22.1 12.5 22.1 12.5 22.1 12.6 C 22.1 12.6 22.1 12.6 22.1 12.6 Z M 22.4 9.2 C 22.5 9.1 22.5 9.1 22.4 9.2 C 22.4 9.2 22.4 9.2 22.4 9.2 Z M 21.5 10.2 C 21.5 10.1 21.5 10.1 21.5 10.2 C 21.5 10.2 21.5 10.2 21.5 10.2 Z M 26.3 17.7 C 26.3 17.7 26.3 17.7 26.3 17.7 C 26.3 17.7 26.3 17.7 26.3 17.7 Z M 17.2 23.8 C 17.3 23.9 17.3 23.9 17.2 23.8 C 17.2 23.8 17.2 23.8 17.2 23.8 Z M 22.8 9.2 C 22.9 9.2 22.9 9.2 22.8 9.2 C 22.8 9.2 22.8 9.2 22.8 9.2 Z M 23.7 17.8 C 24.7 18.0 22.5 18.2 23.7 17.6 C 23.7 17.6 23.6 17.8 23.7 17.8 M 25.3 16.8 C 25.3 16.9 25.3 16.9 25.3 16.8 C 25.3 16.8 25.3 16.8 25.3 16.8 Z M 25.9 21.8 C 25.9 21.9 25.9 21.9 25.9 21.8 C 25.9 21.8 25.9 21.8 25.9 21.8 Z M 21.9 13.2 C 21.4 13.4 22.3 12.2 22.0 13.3 M 25.4 6.8 C 24.9 7.3 25.8 5.3 25.5 6.9 M 11.4 24.4 C 11.4 24.8 10.5 24.2 11.4 24.4 M 26.4 23.2 C 26.8 23.7 26.1 24.0 26.4 23.2 M 25.2 20.3 C 24.6 20.3 25.6 19.3 25.2 20.5 M 25.4 10.1 C 25.4 10.0 25.4 10.0 25.4 10.1 C 25.4 10.1 25.4 10.1 25.4 10.1 Z M 22.3 23.2 C 22.4 23.1 22.4 23.1 22.3 23.2 C 22.3 23.2 22.3 23.2 22.3 23.2 Z M 23.5 19.2 C 22.7 19.5 23.9 18.5 23.5 19.2 M 23.6 25.7 C 22.8 25.3 23.0 25.3 23.3 25.4 C 23.8 25.5 24.7 25.8 23.6 25.7 C 23.6 25.7 23.6 25.7 23.6 25.7 M 25.7 4.1 C 24.6 6.2 26.2 2.6 25.7 4.1 M 23.0 11.5 C 21.9 12.8 23.5 10.5 23.0 11.5 M 22.8 22.6 C 22.2 22.3 23.1 21.8 22.8 22.6 M 13.8 24.3 C 12.7 24.2 14.8 23.9 13.8 24.3 M 25.4 13.2 C 25.5 13.1 25.5 13.1 25.4 13.2 C 25.4 13.2 25.4 13.2 25.4 13.2 Z M 20.0 28.4 C 20.1 28.5 20.1 28.5 20.0 28.4 C 20.0 28.4 20.0 28.4 20.0 28.4 Z M 22.1 5.9 C 22.1 5.8 22.1 5.8 22.1 5.9 C 22.1 5.9 22.1 5.9 22.1 5.9 Z M 23.4 12.0 C 23.5 12.0 23.5 12.0 23.4 12.0 C 23.4 12.0 23.4 12.0 23.4 12.0 Z M 22.0 7.8 C 22.0 7.7 22.0 7.7 22.0 7.8 C 22.0 7.8 22.0 7.8 22.0 7.8 Z M 24.3 15.5 C 24.3 15.4 24.3 15.4 24.3 15.5 C 24.3 15.5 24.3 15.5 24.3 15.5 Z M 21.5 15.9 C 21.6 15.9 21.6 15.9 21.5 15.9 C 21.5 15.9 21.5 15.9 21.5 15.9 Z M 22.7 19.5 C 22.7 19.5 22.7 19.5 22.7 19.5 C 22.7 19.5 22.7 19.5 22.7 19.5 Z M 21.8 14.5 C 21.6 12.7 22.7 15.5 21.8 14.5 C 21.8 14.5 21.8 14.5 21.8 14.5 Z M 24.5 18.6 C 24.5 18.6 24.5 18.6 24.5 18.6 C 24.5 18.6 24.5 18.6 24.5 18.6 Z M 22.6 18.3 C 21.8 16.8 23.9 18.0 22.6 18.3 M 21.9 23.3 C 21.5 22.6 22.6 23.7 21.9 23.3 M 23.6 27.6 C 23.6 27.6 23.6 27.6 23.6 27.6 C 23.6 27.6 23.6 27.6 23.6 27.6 Z M 24.0 27.3 C 24.2 27.3 24.2 27.3 24.0 27.3 C 24.0 27.3 24.0 27.3 24.0 27.3 Z M 21.0 23.8 C 21.1 23.8 21.1 23.8 21.0 23.8 C 21.0 23.8 21.0 23.8 21.0 23.8 Z M 25.1 28.3 C 25.2 28.4 25.2 28.4 25.1 28.3 C 25.1 28.3 25.1 28.3 25.1 28.3 Z M 21.6 16.6 C 21.6 16.6 21.6 16.6 21.6 16.6 C 21.6 16.6 21.6 16.6 21.6 16.6 Z M 21.6 7.3 C 21.6 7.2 21.6 7.2 21.6 7.3 C 21.6 7.3 21.6 7.3 21.6 7.3 Z M 15.7 27.2 C 15.8 27.2 15.8 27.2 15.7 27.2 C 15.7 27.2 15.7 27.2 15.7 27.2 Z M 22.7 15.7 C 22.7 15.7 22.7 15.7 22.7 15.7 C 22.7 15.7 22.7 15.7 22.7 15.7 Z M 21.6 27.4 C 21.7 27.5 21.7 27.5 21.6 27.4 C 21.6 27.4 21.6 27.4 21.6 27.4 Z M 22.5 16.4 C 22.5 16.4 22.5 16.4 22.5 16.4 C 22.5 16.4 22.5 16.4 22.5 16.4 Z M 25.7 13.6 C 25.7 13.6 25.7 13.6 25.7 13.6 C 25.7 13.6 25.7 13.6 25.7 13.6 Z M 26.3 10.4 C 26.3 10.4 26.3 10.4 26.3 10.4 C 26.3 10.4 26.3 10.4 26.3 10.4 Z M 23.7 14.0 C 23.8 13.9 23.8 13.9 23.7 14.0 C 23.7 14.0 23.7 14.0 23.7 14.0 Z M 19.8 26.2 C 14.5 25.3 23.1 25.8 19.8 26.2 M 24.0 13.2 C 23.8 16.4 22.9 11.0 24.0 13.2 C 23.7 12.9 23.9 13.1 24.0 13.2 M 20.9 6.2 C 21.7 5.8 22.3 5.4 22.9 5.0 C 23.4 4.6 23.8 4.2 24.1 3.8 C 24.2 3.6 24.3 3.4 24.4 3.2 C 24.2 2.7 22.4 4.7 23.9 3.0 C 25.8 2.7 25.3 0.4 23.5 2.6 C 21.0 2.9 24.3 1.2 22.1 2.1 C 19.5 2.3 21.1 1.7 19.0 1.8 C 17.5 3.0 18.1 1.2 17.2 2.4 C 18.6 1.1 15.1 2.7 15.1 2.1 C 17.1 1.4 8.3 2.1 13.0 2.5 C 11.3 3.1 11.4 2.0 10.7 1.9 C 10.1 2.6 7.2 1.3 6.4 2.0 C 6.7 2.2 7.3 2.2 7.6 2.5 C 8.2 3.0 6.3 2.4 6.5 2.4 C 5.9 2.7 3.7 3.4 5.7 2.1 C 5.5 1.5 3.3 2.4 2.9 1.9 C 2.1 1.9 1.8 1.9 1.7 2.0 C 2.0 2.9 2.5 2.5 1.8 2.7 C 1.8 4.6 1.8 5.9 1.9 6.0 C 1.8 7.0 1.1 6.7 1.8 8.3 C 0.5 9.7 4.3 11.6 1.7 10.7 C 2.3 11.8 0.7 11.4 2.3 12.2 C 1.5 11.0 1.0 15.5 2.2 14.0 C 2.6 14.7 0.5 16.9 2.2 17.0 C 3.3 18.5 4.5 18.7 5.6 17.2 C 4.7 17.0 6.6 15.7 5.0 16.3 C 4.5 17.8 4.4 12.8 5.0 14.2 C 6.9 15.5 3.8 11.0 5.2 10.9 C 4.4 11.2 4.1 6.9 5.5 9.2 C 5.6 8.6 4.9 7.9 5.7 7.8 C 5.6 10.0 4.3 5.5 5.1 6.5 C 5.4 6.9 5.6 6.5 5.7 6.0 C 6.5 6.2 7.4 6.1 6.8 5.6 C 3.9 3.7 7.9 6.0 7.9 5.3 C 9.5 4.9 8.8 6.9 9.1 5.5 C 9.6 5.8 11.9 5.8 10.6 6.2 C 10.0 6.0 11.4 4.0 12.0 5.7 C 10.0 6.6 14.7 6.2 14.0 5.7 C 9.8 4.8 18.5 4.7 15.0 5.6 C 16.4 6.5 14.5 5.9 16.7 5.5 C 16.5 5.0 18.5 4.5 17.6 5.5 C 17.2 7.1 19.3 3.4 19.5 5.6 C 19.0 6.5 22.7 4.9 20.8 5.9 C 20.6 6.1 20.8 6.2 20.9 6.2 M 20.3 6.0 C 20.9 5.7 20.4 6.5 20.3 6.0 M 20.9 5.7 C 20.9 5.7 20.9 5.7 20.9 5.7 C 20.9 5.7 20.9 5.7 20.9 5.7 Z M 17.0 5.5 C 17.0 5.5 17.0 5.5 17.0 5.5 C 17.0 5.5 17.0 5.5 17.0 5.5 Z M 13.7 1.5 C 13.8 1.6 13.8 1.6 13.7 1.5 C 13.7 1.5 13.7 1.5 13.7 1.5 Z M 14.2 5.4 C 14.3 5.4 14.3 5.4 14.2 5.4 C 14.2 5.4 14.2 5.4 14.2 5.4 Z M 18.6 5.2 C 18.6 5.2 18.6 5.2 18.6 5.2 C 18.6 5.2 18.6 5.2 18.6 5.2 Z M 14.5 6.0 C 14.3 5.4 15.3 6.4 14.4 6.0 C 14.4 6.0 14.5 6.0 14.5 6.0 M 11.2 6.2 C 11.1 6.1 11.1 6.1 11.2 6.2 M 1.2 4.3 C 1.1 4.2 1.1 4.2 1.2 4.3 M 5.9 9.1 C 5.8 9.2 5.8 9.2 5.9 9.1 M 7.5 5.6 C 6.4 5.7 7.0 5.3 7.5 5.6 M 5.5 11.9 C 5.9 10.8 5.9 13.7 5.5 11.9 M 5.9 13.6 C 5.8 13.7 5.8 13.7 5.9 13.6 M 5.7 6.8 C 5.6 6.8 5.6 6.8 5.7 6.8 C 5.7 6.8 5.7 6.8 5.7 6.8 Z M 8.1 5.8 C 9.6 6.2 7.1 6.4 8.1 5.8 M 16.3 6.0 C 15.5 6.3 16.6 5.3 16.3 6.0 M 18.0 5.7 C 18.0 5.7 18.0 5.7 18.0 5.7 C 18.0 5.7 18.0 5.7 18.0 5.7 Z M 5.6 9.6 C 5.6 9.5 5.6 9.5 5.6 9.6 C 5.6 9.6 5.6 9.6 5.6 9.6 Z M 5.7 11.4 C 5.7 11.3 5.7 11.3 5.7 11.4 C 5.7 11.4 5.7 11.4 5.7 11.4 Z M 1.3 11.6 C 1.3 11.5 1.3 11.5 1.3 11.6 C 1.3 11.6 1.3 11.6 1.3 11.6 Z M 17.5 3.9 C 18.6 4.2 15.9 5.3 16.4 4.3 C 16.3 3.8 17.3 4.0 17.5 3.9 M 8.3 4.5 C 7.1 3.0 10.4 6.5 8.3 4.5 M 4.9 13.2 C 3.2 13.4 6.2 12.6 4.9 13.2 M 5.2 15.7 C 4.9 16.3 5.0 11.2 5.5 15.0 C 5.8 15.5 5.4 15.6 5.2 15.7 M 10.9 5.5 C 10.3 4.7 12.6 5.8 10.9 5.5 M 2.7 4.0 C 3.2 5.2 3.7 7.2 2.8 5.7 C 1.6 4.7 2.2 2.8 2.7 4.0 M 20.7 5.2 C 18.9 6.5 21.6 4.1 20.7 5.2 M 16.4 5.1 C 16.4 5.2 16.4 5.2 16.4 5.1 C 16.4 5.1 16.4 5.1 16.4 5.1 Z M 14.7 5.3 C 14.6 5.2 14.6 5.2 14.7 5.3 M 19.2 6.4 C 19.2 6.3 19.2 6.3 19.2 6.4 M 4.0 5.3 C 3.9 5.3 3.9 5.3 4.0 5.3 M 7.5 5.2 C 4.7 3.9 8.2 5.0 7.5 5.2 M 10.9 2.8 C 10.1 2.1 12.2 2.7 10.9 2.8 M 5.4 5.8 C 4.8 5.8 4.5 5.2 4.5 4.8 C 4.5 4.4 4.7 4.2 5.3 5.7 C 5.3 5.7 5.4 5.8 5.4 5.8 M 8.4 5.4 C 8.3 5.4 8.3 5.4 8.4 5.4 C 8.4 5.4 8.4 5.4 8.4 5.4 Z M 2.5 4.4 C 2.5 4.4 2.5 4.4 2.5 4.4 C 2.5 4.4 2.5 4.4 2.5 4.4 Z M 2.6 5.1 C 2.6 5.0 2.6 5.0 2.6 5.1 C 2.6 5.1 2.6 5.1 2.6 5.1 Z M 5.5 7.5 C 5.5 7.4 5.5 7.4 5.5 7.5 C 5.5 7.5 5.5 7.5 5.5 7.5 Z M 19.9 2.3 C 18.3 2.2 21.2 2.1 19.9 2.3 C 19.9 2.3 19.9 2.3 19.9 2.3 Z M 13.2 5.9 C 11.2 5.0 14.5 5.0 13.2 5.9 C 13.2 5.9 13.2 5.9 13.2 5.9 Z M 10.7 4.3 C 10.7 4.3 10.7 4.3 10.7 4.3 C 10.7 4.3 10.7 4.3 10.7 4.3 Z M 6.7 6.5 C 6.7 6.4 6.7 6.4 6.7 6.5 C 6.7 6.5 6.7 6.5 6.7 6.5 Z M 19.2 2.2 C 19.2 2.1 19.2 2.1 19.2 2.2 C 19.2 2.2 19.2 2.2 19.2 2.2 Z M 4.9 10.4 C 4.8 10.4 4.8 10.4 4.9 10.4 C 4.9 10.4 4.9 10.4 4.9 10.4 Z M 4.8 2.7 C 4.6 3.2 4.3 2.3 4.8 2.7 C 4.8 2.7 4.8 2.7 4.8 2.7 Z M 2.5 2.7 C 2.4 2.7 2.4 2.7 2.5 2.7 C 2.5 2.7 2.5 2.7 2.5 2.7 Z M 6.0 14.1 C 6.0 14.1 6.0 14.1 6.0 14.1 C 6.0 14.1 6.0 14.1 6.0 14.1 Z M 1.2 7.0 C 1.2 7.1 1.2 7.1 1.2 7.0 C 1.2 7.0 1.2 7.0 1.2 7.0 Z M 2.6 9.9 C 2.6 9.8 2.6 9.8 2.6 9.9 C 2.6 9.9 2.6 9.9 2.6 9.9 Z M 5.2 6.9 C 5.5 8.9 4.7 5.9 5.2 6.9 C 5.2 6.9 5.2 6.9 5.2 6.9 Z M 3.0 15.2 C 2.9 15.2 2.9 15.2 3.0 15.2 C 3.0 15.2 3.0 15.2 3.0 15.2 Z M 4.7 17.0 C 4.6 17.0 4.6 17.0 4.7 17.0 C 4.7 17.0 4.7 17.0 4.7 17.0 Z M 5.6 17.8 C 5.5 17.9 5.5 17.9 5.6 17.8 C 5.6 17.8 5.6 17.8 5.6 17.8 Z M 14.9 3.5 C 14.9 3.6 14.9 3.6 14.9 3.5 C 14.9 3.5 14.9 3.5 14.9 3.5 Z M 15.2 6.2 C 15.2 6.3 15.2 6.3 15.2 6.2 C 15.2 6.2 15.2 6.2 15.2 6.2 Z M 13.1 6.4 C 13.2 6.4 13.2 6.4 13.1 6.4 C 13.1 6.4 13.1 6.4 13.1 6.4 Z M 15.7 1.8 C 15.7 1.9 15.7 1.9 15.7 1.8 C 15.7 1.8 15.7 1.8 15.7 1.8 Z M 5.4 4.2 C 5.5 4.2 5.5 4.2 5.4 4.2 C 5.4 4.2 5.4 4.2 5.4 4.2 Z M 3.4 3.1 C 3.5 3.1 3.5 3.1 3.4 3.1 C 3.4 3.1 3.4 3.1 3.4 3.1 Z M 4.9 1.6 C 5.0 1.6 5.0 1.6 4.9 1.6 C 4.9 1.6 4.9 1.6 4.9 1.6 Z M 1.8 2.2 C 1.8 2.2 1.8 2.2 1.8 2.2 C 1.8 2.2 1.8 2.2 1.8 2.2 Z M 23.4 2.4 C 23.5 2.3 23.5 2.3 23.4 2.4 C 23.4 2.4 23.4 2.4 23.4 2.4 Z M 21.9 4.5 C 22.0 4.4 22.0 4.4 21.9 4.5 C 21.9 4.5 21.9 4.5 21.9 4.5 Z M 6.4 5.7 C 6.4 6.1 5.1 5.1 6.4 5.7 M 9.5 5.4 C 9.5 5.4 9.5 5.4 9.5 5.4 C 9.5 5.4 9.5 5.4 9.5 5.4 Z M 5.3 10.4 C 4.4 10.3 5.7 9.1 5.3 10.4 C 5.3 10.4 5.3 10.4 5.3 10.4 Z M 1.8 5.5 C 1.8 5.6 1.8 5.6 1.8 5.5 C 1.8 5.5 1.8 5.5 1.8 5.5 Z M 2.1 6.9 C 2.0 6.9 2.0 6.9 2.1 6.9 C 2.1 6.9 2.1 6.9 2.1 6.9 Z M 4.4 14.1 C 4.3 14.2 4.3 14.2 4.4 14.1 M 10.2 6.2 C 9.6 5.8 9.7 5.9 10.2 6.2 M 5.2 11.6 C 5.2 11.5 5.2 11.5 5.2 11.6 C 5.2 11.6 5.2 11.6 5.2 11.6 Z M 4.8 15.6 C 4.8 15.5 4.8 15.5 4.8 15.6 C 4.8 15.6 4.8 15.6 4.8 15.6 Z M 12.3 5.6 C 12.0 4.6 12.5 4.8 12.3 5.6 M 18.9 5.3 C 18.9 5.2 18.9 5.2 18.9 5.3 C 18.9 5.3 18.9 5.3 18.9 5.3 Z M 18.9 5.3 " fill="#FEFFFE"></path></g></svg>