<?xml version="1.0" encoding="UTF-8" standalone="no"?><svg xmlns="http://www.w3.org/2000/svg" xmlns:xlink="http://www.w3.org/1999/xlink" clip-rule="evenodd" stroke-miterlimit="10" viewBox="0 0 207 158"><desc>SVG generated by Keynote</desc><defs></defs><g transform="matrix(1.00, 0.00, -0.00, -1.00, 0.0, 158.0)"><path d="M 54.7 128.1 C 55.1 128.7 54.6 130.5 55.0 130.9 M 54.7 128.1 C 52.2 130.2 52.0 133.1 51.5 137.1 C 51.4 141.4 53.9 136.7 55.0 137.1 C 56.0 142.7 54.1 142.9 51.4 142.3 C 51.8 142.8 51.8 142.9 52.0 144.9 C 52.2 146.9 52.8 149.0 53.8 150.6 C 55.9 153.8 58.7 154.7 58.4 152.6 C 54.6 150.4 54.5 148.5 54.6 148.5 C 54.8 148.6 55.7 149.9 57.1 150.8 C 58.4 151.7 60.0 152.1 60.5 151.9 C 60.9 151.6 59.9 151.3 58.3 149.1 C 57.9 147.9 60.5 149.0 61.4 149.3 C 60.3 148.1 61.3 147.6 61.8 147.0 C 62.2 146.4 62.2 145.8 62.2 145.0 C 62.9 144.2 63.2 144.0 63.4 143.9 C 63.6 143.7 63.8 143.4 64.7 143.7 C 65.0 144.0 64.2 143.9 63.7 144.0 C 61.2 144.3 65.1 141.2 63.5 139.1 C 66.9 136.7 63.0 135.0 61.5 136.9 C 62.0 134.9 65.4 132.0 63.0 130.2 C 64.7 128.8 63.5 123.5 61.5 127.1 C 60.1 129.7 59.1 127.2 58.4 127.0 C 57.6 127.9 58.7 131.0 58.1 131.6 C 57.5 130.7 56.3 126.8 56.4 131.1 C 55.3 129.9 54.6 132.2 54.7 128.1 C 54.7 128.1 54.7 128.1 54.7 128.1 Z M 52.8 143.7 C 51.9 143.8 52.9 142.3 52.8 143.7 C 52.8 143.7 52.8 143.7 52.8 143.7 Z M 64.7 131.8 C 63.8 131.9 64.7 130.2 64.7 131.8 C 64.7 131.8 64.7 131.8 64.7 131.8 Z M 63.8 143.9 C 62.9 144.0 63.8 142.3 63.8 143.9 C 63.8 143.9 63.8 143.9 63.8 143.9 Z M 53.4 139.7 C 54.2 137.2 54.7 141.6 53.8 142.0 C 53.9 141.5 52.7 140.3 53.4 139.7 C 53.4 139.7 53.4 139.7 53.4 139.7 Z M 58.5 138.9 C 58.2 138.7 58.1 137.7 59.0 137.8 C 59.2 138.4 58.9 139.1 58.5 138.9 C 58.5 138.9 58.5 138.9 58.5 138.9 Z M 62.1 152.3 C 61.8 152.5 60.1 152.2 60.5 151.4 C 61.5 151.5 62.5 152.0 62.1 152.3 C 62.1 152.3 62.1 152.3 62.1 152.3 Z M 55.8 136.7 C 55.9 136.1 56.7 135.7 56.8 136.5 C 56.4 136.9 56.3 138.6 55.8 136.7 C 55.8 136.7 55.8 136.7 55.8 136.7 Z M 52.8 133.3 C 53.2 131.2 54.6 135.1 54.2 135.1 C 53.5 135.8 52.1 134.5 52.8 133.3 C 52.8 133.3 52.8 133.3 52.8 133.3 Z M 57.0 135.4 C 57.4 133.6 57.6 136.0 57.0 135.4 C 57.0 135.4 57.0 135.4 57.0 135.4 Z M 62.4 145.6 C 62.1 144.9 62.9 145.1 62.4 145.6 C 62.4 145.6 62.4 145.6 62.4 145.6 Z M 64.2 140.0 C 64.6 138.2 64.9 140.7 64.2 140.0 C 64.2 140.0 64.2 140.0 64.2 140.0 Z M 55.2 144.1 C 55.2 146.6 55.0 146.9 54.6 146.4 C 54.2 146.0 54.0 144.5 55.2 144.1 C 55.2 144.1 55.2 144.1 55.2 144.1 Z M 52.6 128.7 C 52.5 131.6 50.3 129.4 52.6 128.7 C 52.6 128.7 52.6 128.7 52.6 128.7 Z M 67.2 153.8 C 64.5 154.3 75.2 157.2 71.1 153.8 C 70.0 150.9 77.2 151.1 75.3 153.8 C 77.5 154.1 77.5 154.3 78.7 152.9 C 79.0 155.0 84.1 156.1 85.9 155.0 C 87.0 153.2 82.5 154.8 85.4 152.8 C 91.7 152.3 85.0 150.9 87.5 148.4 C 87.7 148.5 87.8 149.6 88.4 149.0 C 88.7 146.8 85.1 145.2 86.7 143.6 C 85.8 143.9 81.2 141.5 83.1 143.4 C 83.7 145.5 78.1 140.9 78.5 144.3 C 77.0 142.8 75.4 144.9 74.0 143.0 C 72.8 142.6 72.8 144.4 73.0 144.9 C 73.1 146.5 71.6 141.3 69.8 144.1 C 69.6 143.3 64.5 143.6 68.3 144.8 C 67.2 144.6 61.4 143.9 64.5 146.9 C 68.5 148.4 60.2 150.1 65.0 150.3 C 68.7 150.6 69.4 150.0 66.7 151.6 C 65.8 151.4 61.6 151.7 65.2 153.1 C 66.0 152.7 67.7 153.0 67.2 153.8 C 67.2 153.8 67.2 153.8 67.2 153.8 Z M 66.5 149.3 C 68.6 149.2 66.6 150.5 66.5 149.3 C 66.5 149.3 66.5 149.3 66.5 149.3 Z M 74.3 142.3 C 76.4 142.2 74.4 143.5 74.3 142.3 C 74.3 142.3 74.3 142.3 74.3 142.3 Z M 73.9 154.6 C 74.9 153.7 75.2 156.9 73.9 154.6 C 73.9 154.6 73.9 154.6 73.9 154.6 Z M 70.7 144.9 C 70.8 144.9 70.3 145.3 69.9 145.5 C 70.0 145.3 70.5 144.9 70.7 144.9 C 70.7 144.9 70.7 144.9 70.7 144.9 Z M 77.5 154.6 C 80.6 153.1 78.0 157.1 77.5 154.6 C 77.5 154.6 77.5 154.6 77.5 154.6 Z M 83.9 151.6 C 84.3 148.4 87.2 152.3 83.9 151.6 C 83.9 151.6 83.9 151.6 83.9 151.6 Z M 79.5 144.6 C 79.0 145.2 79.0 144.2 79.5 144.6 C 79.5 144.6 79.5 144.6 79.5 144.6 Z M 65.6 144.1 C 65.1 144.8 65.1 143.7 65.6 144.1 C 65.6 144.1 65.6 144.1 65.6 144.1 Z M 83.5 144.9 C 83.2 146.0 82.3 144.2 83.5 144.9 C 83.5 144.9 83.5 144.9 83.5 144.9 Z M 74.5 153.3 C 71.5 155.9 71.0 149.6 74.5 153.3 C 74.5 153.3 74.5 153.3 74.5 153.3 Z M 69.3 153.6 C 67.3 154.1 69.6 152.0 70.5 152.4 C 70.4 152.7 69.6 153.5 69.3 153.6 C 69.3 153.6 69.3 153.6 69.3 153.6 Z M 77.5 153.1 C 75.5 154.3 75.7 152.4 77.5 153.1 C 77.5 153.1 77.5 153.1 77.5 153.1 Z M 72.5 154.5 C 71.5 154.2 73.3 154.1 72.5 154.5 C 72.5 154.5 72.5 154.5 72.5 154.5 Z M 81.4 155.7 C 80.4 155.4 82.2 155.4 81.4 155.7 C 81.4 155.7 81.4 155.7 81.4 155.7 Z M 66.8 154.9 C 65.8 154.6 67.6 154.6 66.8 154.9 C 66.8 154.9 66.8 154.9 66.8 154.9 Z M 80.6 154.0 C 80.9 152.9 78.1 150.4 83.2 152.5 C 84.0 153.3 81.9 155.0 80.6 154.0 C 80.6 154.0 80.6 154.0 80.6 154.0 Z M 54.8 118.7 C 51.3 132.6 57.5 128.4 58.7 128.9 C 60.4 130.5 61.5 128.4 62.6 125.5 C 66.6 121.7 58.6 121.9 62.5 119.0 C 67.8 113.9 57.9 115.8 63.5 112.8 C 64.9 113.0 63.8 107.8 63.4 108.4 C 66.0 104.8 61.3 102.4 60.8 102.5 C 61.6 100.4 66.5 98.5 62.8 94.1 C 61.5 90.3 66.4 86.3 63.0 88.9 C 66.9 84.0 61.9 87.2 63.2 83.4 C 65.3 80.2 59.9 84.8 64.0 78.9 C 60.8 78.7 66.1 79.8 63.8 69.9 C 63.5 75.3 61.3 66.3 63.4 67.1 C 65.7 69.6 62.5 62.5 63.9 56.7 C 62.8 56.1 59.9 52.1 63.0 51.0 C 66.7 43.2 60.8 47.4 63.8 43.0 C 65.1 40.4 62.4 41.7 62.6 40.4 C 64.8 36.9 63.3 36.4 64.0 29.5 C 65.1 14.7 58.1 32.3 57.4 27.7 C 56.3 27.8 48.8 41.3 54.4 33.8 C 52.8 36.1 58.7 42.3 52.5 41.7 C 55.0 43.8 50.0 42.8 52.9 48.6 C 57.3 33.9 54.7 60.1 52.6 50.8 C 51.3 53.5 51.5 57.7 52.6 53.8 C 56.5 49.8 50.8 62.6 55.6 55.0 C 54.3 62.8 58.6 58.2 55.5 62.1 C 50.4 67.0 56.9 60.9 55.4 65.4 C 55.3 73.6 49.4 70.8 53.3 73.4 C 50.7 82.6 55.6 73.9 56.3 76.3 C 59.8 75.2 53.5 85.9 53.0 80.1 C 54.9 82.3 51.3 81.5 53.6 83.9 C 56.9 79.6 50.1 90.2 52.7 87.9 C 53.6 90.8 55.5 88.3 55.6 89.2 C 55.6 94.1 52.4 94.0 54.8 94.0 C 56.2 94.5 51.9 98.5 52.9 98.8 C 53.1 93.7 56.4 101.6 54.6 102.7 C 54.4 99.7 50.3 105.8 52.9 106.8 C 60.2 101.9 51.0 111.7 53.6 113.2 C 57.6 109.9 54.1 123.9 52.2 119.5 C 52.6 119.7 54.9 118.7 54.8 118.7 M 53.5 99.9 C 53.8 95.7 54.3 104.1 53.5 99.9 M 52.4 100.5 C 53.8 98.2 51.5 104.7 52.0 100.5 C 52.0 100.4 52.4 100.8 52.4 100.5 M 52.3 83.8 C 53.4 83.8 51.6 86.4 52.3 83.8 M 54.8 79.3 C 55.9 76.0 55.0 82.9 54.8 79.3 M 54.0 42.2 C 60.0 41.5 50.6 48.7 54.0 42.2 M 52.8 67.8 C 53.6 71.8 50.3 67.7 52.8 67.8 M 54.3 68.2 C 55.3 69.8 52.9 69.5 54.3 68.2 M 54.0 49.3 C 54.1 48.9 54.1 48.9 54.0 49.3 C 54.0 49.3 54.0 49.3 54.0 49.3 Z M 54.2 38.1 C 54.1 38.1 54.1 38.1 54.2 38.1 C 54.2 38.1 54.2 38.1 54.2 38.1 Z M 54.6 59.7 C 53.2 64.1 54.1 54.5 54.6 59.7 C 54.6 59.7 54.6 59.7 54.6 59.7 Z M 63.3 36.4 C 63.4 36.5 63.4 36.5 63.3 36.4 C 63.3 36.4 63.3 36.4 63.3 36.4 Z M 56.2 102.2 C 56.3 102.4 56.3 102.4 56.2 102.2 C 56.2 102.2 56.2 102.2 56.2 102.2 Z M 54.0 115.7 C 54.8 115.3 53.4 118.1 54.0 115.7 C 54.0 115.7 54.0 115.7 54.0 115.7 Z M 60.8 124.6 C 60.9 124.8 60.9 124.8 60.8 124.6 C 60.8 124.6 60.8 124.6 60.8 124.6 Z M 59.4 105.5 C 59.5 105.7 59.5 105.7 59.4 105.5 C 59.4 105.5 59.4 105.5 59.4 105.5 Z M 55.0 105.1 C 51.7 108.2 55.8 100.0 55.0 105.1 C 55.0 105.1 55.0 105.1 55.0 105.1 Z M 62.9 58.8 C 61.5 59.6 63.4 55.4 62.9 58.8 C 62.9 58.8 62.9 58.8 62.9 58.8 Z M 56.1 78.1 C 55.4 78.0 56.5 76.1 56.1 78.1 C 56.1 78.1 56.1 78.1 56.1 78.1 Z M 51.7 87.3 C 50.9 87.1 52.0 85.3 51.7 87.3 C 51.7 87.3 51.7 87.3 51.7 87.3 Z M 53.1 115.7 C 52.9 115.5 52.9 115.5 53.1 115.7 C 53.1 115.7 53.1 115.7 53.1 115.7 Z M 55.6 110.5 C 52.5 114.4 57.2 105.0 55.6 110.5 C 55.6 110.5 55.6 110.5 55.6 110.5 Z M 56.5 115.7 C 57.7 113.6 55.9 119.9 56.5 115.7 M 61.2 111.2 C 59.9 107.6 66.7 113.5 61.2 111.2 C 61.2 111.2 61.2 111.2 61.2 111.2 Z M 62.4 90.2 C 62.6 89.9 62.6 89.9 62.4 90.2 C 62.4 90.2 62.4 90.2 62.4 90.2 Z M 53.4 96.0 C 53.5 92.6 54.1 97.9 53.4 96.0 C 53.4 96.0 53.4 96.0 53.4 96.0 Z M 52.7 125.4 C 52.8 122.0 53.4 127.4 52.7 125.4 C 52.7 125.4 52.7 125.4 52.7 125.4 Z M 59.4 79.7 C 58.9 74.2 61.1 82.5 59.4 79.7 C 59.4 79.7 59.4 79.7 59.4 79.7 Z M 55.8 60.9 C 55.9 60.7 55.9 60.7 55.8 60.9 C 55.8 60.9 55.8 60.9 55.8 60.9 Z M 54.6 57.9 C 54.6 57.7 54.6 57.7 54.6 57.9 C 54.6 57.9 54.6 57.9 54.6 57.9 Z M 57.7 39.6 C 57.9 39.3 57.9 39.3 57.7 39.6 C 57.7 39.6 57.7 39.6 57.7 39.6 Z M 53.1 55.5 C 53.1 55.3 53.1 55.3 53.1 55.5 C 53.1 55.5 53.1 55.5 53.1 55.5 Z M 53.9 44.0 C 54.0 43.7 54.0 43.7 53.9 44.0 C 53.9 44.0 53.9 44.0 53.9 44.0 Z M 51.2 47.6 C 51.3 47.3 51.3 47.3 51.2 47.6 C 51.2 47.6 51.2 47.6 51.2 47.6 Z M 64.7 63.5 C 64.8 63.2 64.8 63.2 64.7 63.5 C 64.7 63.5 64.7 63.5 64.7 63.5 Z M 52.0 110.1 C 52.3 109.7 52.3 109.7 52.0 110.1 C 52.0 110.1 52.0 110.1 52.0 110.1 Z M 55.1 44.0 C 55.2 43.8 55.2 43.8 55.1 44.0 C 55.1 44.0 55.1 44.0 55.1 44.0 Z M 57.5 69.5 C 60.2 67.8 54.1 73.7 57.4 68.8 C 57.5 68.9 57.1 69.9 57.5 69.5 M 61.9 63.2 C 62.0 63.3 62.0 63.3 61.9 63.2 C 61.9 63.2 61.9 63.2 61.9 63.2 Z M 63.5 75.1 C 63.6 75.2 63.6 75.2 63.5 75.1 C 63.5 75.1 63.5 75.1 63.5 75.1 Z M 52.6 57.7 C 51.1 59.2 53.7 54.0 52.6 58.1 M 62.4 35.9 C 60.9 37.6 63.5 31.9 62.4 36.3 M 53.7 129.0 C 54.8 129.3 53.0 131.4 53.7 129.0 M 64.9 77.3 C 66.1 77.2 64.3 80.0 64.9 77.3 M 61.6 73.0 C 60.1 74.3 62.7 69.2 61.6 73.4 M 62.3 44.8 C 62.3 44.6 62.3 44.6 62.3 44.8 C 62.3 44.8 62.3 44.8 62.3 44.8 Z M 53.7 90.7 C 53.7 90.6 53.7 90.6 53.7 90.7 C 53.7 90.7 53.7 90.7 53.7 90.7 Z M 56.8 74.3 C 54.8 77.4 58.1 70.9 56.8 74.3 M 57.2 93.6 C 54.7 97.5 58.0 88.5 57.2 93.6 M 63.0 28.8 C 59.9 34.7 64.6 24.9 63.0 28.8 M 55.4 51.4 C 52.4 56.7 57.0 47.7 55.4 51.4 M 55.0 87.2 C 53.4 88.1 55.9 83.4 55.0 87.2 M 53.4 121.4 C 53.2 124.6 52.2 117.6 53.4 121.4 M 62.4 53.2 C 62.5 52.9 62.5 52.9 62.4 53.2 C 62.4 53.2 62.4 53.2 62.4 53.2 Z M 65.0 108.0 C 65.1 107.8 65.1 107.8 65.0 108.0 C 65.0 108.0 65.0 108.0 65.0 108.0 Z M 53.1 32.8 C 53.1 32.5 53.1 32.5 53.1 32.8 C 53.1 32.8 53.1 32.8 53.1 32.8 Z M 56.8 52.4 C 57.0 52.2 57.0 52.2 56.8 52.4 C 56.8 52.4 56.8 52.4 56.8 52.4 Z M 52.6 39.3 C 52.8 39.0 52.8 39.0 52.6 39.3 C 52.6 39.3 52.6 39.3 52.6 39.3 Z M 59.1 61.4 C 59.2 61.2 59.2 61.2 59.1 61.4 C 59.1 61.4 59.1 61.4 59.1 61.4 Z M 51.4 68.2 C 51.5 68.0 51.5 68.0 51.4 68.2 C 51.4 68.2 51.4 68.2 51.4 68.2 Z M 54.7 77.4 C 54.8 77.3 54.8 77.3 54.7 77.4 C 54.7 77.4 54.7 77.4 54.7 77.4 Z M 52.0 62.8 C 51.6 56.5 54.6 64.5 52.0 62.8 C 52.0 62.8 52.0 62.8 52.0 62.8 Z M 59.7 69.8 C 59.8 69.7 59.8 69.7 59.7 69.8 C 59.7 69.8 59.7 69.8 59.7 69.8 Z M 54.3 73.8 C 52.1 70.9 58.0 69.5 54.3 73.8 M 52.5 93.2 C 51.3 92.4 54.3 91.8 52.5 93.2 M 62.6 96.8 C 62.7 96.8 62.7 96.8 62.6 96.8 C 62.6 96.8 62.6 96.8 62.6 96.8 Z M 61.8 95.0 C 61.9 94.8 61.9 94.8 61.8 95.0 C 61.8 95.0 61.8 95.0 61.8 95.0 Z M 52.0 97.9 C 52.1 97.7 52.1 97.7 52.0 97.9 C 52.0 97.9 52.0 97.9 52.0 97.9 Z M 64.7 93.6 C 64.8 93.4 64.8 93.4 64.7 93.6 C 64.7 93.6 64.7 93.6 64.7 93.6 Z M 51.6 70.5 C 51.7 70.4 51.7 70.4 51.6 70.5 C 51.6 70.5 51.6 70.5 51.6 70.5 Z M 51.5 37.0 C 51.6 36.9 51.6 36.9 51.5 37.0 C 51.5 37.0 51.5 37.0 51.5 37.0 Z M 61.5 118.7 C 61.6 118.4 61.6 118.4 61.5 118.7 C 61.5 118.7 61.5 118.7 61.5 118.7 Z M 54.7 65.2 C 54.8 65.0 54.8 65.0 54.7 65.2 C 54.7 65.2 54.7 65.2 54.7 65.2 Z M 62.1 102.1 C 62.2 101.9 62.2 101.9 62.1 102.1 C 62.1 102.1 62.1 102.1 62.1 102.1 Z M 54.0 67.8 C 54.1 67.7 54.1 67.7 54.0 67.8 C 54.0 67.8 54.0 67.8 54.0 67.8 Z M 63.0 53.9 C 63.0 53.7 63.0 53.7 63.0 53.9 C 63.0 53.9 63.0 53.9 63.0 53.9 Z M 64.7 44.8 C 64.8 44.7 64.8 44.7 64.7 44.8 C 64.7 44.8 64.7 44.8 64.7 44.8 Z M 57.6 57.9 C 57.7 57.7 57.7 57.7 57.6 57.9 C 57.6 57.9 57.6 57.9 57.6 57.9 Z M 58.8 105.7 C 56.2 120.2 57.6 95.1 58.8 105.7 M 58.3 55.2 C 57.6 65.2 55.3 49.6 58.3 55.2 C 57.5 54.6 58.2 55.1 58.3 55.2 M 50.4 31.8 C 51.4 31.5 52.3 31.2 53.1 30.9 C 55.5 31.2 57.8 29.0 60.3 25.4 C 60.5 25.0 60.5 24.7 60.5 24.5 C 59.1 24.4 55.5 27.7 59.5 24.0 C 60.3 24.0 61.0 23.9 61.5 23.7 C 62.5 23.3 63.0 22.7 63.3 22.1 C 63.9 20.7 62.1 19.6 58.5 22.9 C 51.5 22.7 61.2 19.3 55.1 20.9 C 47.8 20.4 52.8 19.2 47.2 18.8 C 41.7 21.4 45.2 16.9 41.6 19.6 C 46.8 16.8 35.5 19.6 36.3 18.2 C 42.5 16.9 18.1 15.5 30.1 18.2 C 24.3 19.0 26.6 16.5 25.0 15.8 C 22.0 17.4 17.1 13.0 13.3 14.5 C 13.8 15.0 15.3 15.4 15.6 16.1 C 16.0 17.5 12.2 15.3 12.6 15.5 C 10.4 15.9 2.0 16.8 11.3 14.5 C 12.1 12.9 4.0 14.2 4.5 12.7 C 4.2 12.7 3.8 12.6 3.5 12.6 L 3.5 24.1 C 9.4 23.0 4.1 20.8 7.5 22.7 C 12.7 22.0 16.5 21.4 16.3 21.0 C 19.6 20.9 20.7 22.7 23.1 20.4 C 30.5 23.1 25.6 12.9 30.0 19.6 C 31.3 17.6 34.5 21.9 32.9 17.7 C 31.3 20.0 44.9 19.4 38.1 17.1 C 39.2 15.9 49.6 20.1 46.6 15.9 C 48.2 12.4 46.3 9.3 39.1 7.2 C 40.7 9.5 31.8 5.6 37.8 9.1 C 43.6 9.8 28.8 12.1 31.4 10.1 C 30.5 4.9 25.2 14.3 21.0 11.1 C 24.1 12.8 12.2 15.6 14.9 11.2 C 12.6 11.2 12.5 13.1 9.6 11.2 C 16.8 10.5 7.6 15.7 7.6 13.3 C 8.2 12.3 4.5 12.0 1.8 12.4 L 1.8 24.3 C 3.5 24.5 4.9 24.4 4.7 23.4 C 1.8 17.5 7.1 24.9 9.3 23.1 C 15.4 22.8 7.3 27.5 12.5 24.2 C 13.4 25.0 20.8 26.1 15.7 26.5 C 14.1 25.7 22.7 21.5 21.4 26.0 C 12.5 27.4 29.6 28.7 27.8 27.0 C 16.5 22.7 43.1 26.3 31.4 27.1 C 35.1 30.3 29.2 27.8 36.7 27.8 C 36.8 26.4 43.4 25.9 39.8 28.3 C 37.4 32.5 46.4 23.4 45.7 29.4 C 44.0 31.7 55.9 28.9 50.0 31.0 C 49.6 31.2 50.2 31.8 50.4 31.8 M 48.5 31.1 C 50.3 30.3 48.8 32.3 48.5 31.1 M 50.4 30.4 C 50.4 30.4 50.4 30.4 50.4 30.4 C 50.4 30.4 50.4 30.4 50.4 30.4 Z M 37.8 27.8 C 37.8 28.0 37.8 28.0 37.8 27.8 C 37.8 27.8 37.8 27.8 37.8 27.8 Z M 33.6 16.0 C 33.6 16.1 33.6 16.1 33.6 16.0 C 33.6 16.0 33.6 16.0 33.6 16.0 Z M 29.1 26.3 C 29.3 26.3 29.3 26.3 29.1 26.3 C 29.1 26.3 29.1 26.3 29.1 26.3 Z M 43.1 27.9 C 43.2 27.9 43.2 27.9 43.1 27.9 C 43.1 27.9 43.1 27.9 43.1 27.9 Z M 29.0 27.9 C 29.3 26.3 31.2 29.5 28.7 28.1 C 28.6 28.0 29.2 28.1 29.0 27.9 M 17.5 26.9 C 17.5 26.7 17.5 26.7 17.5 26.9 M 13.7 23.5 C 13.8 23.7 13.8 23.7 13.7 23.5 M 13.2 10.3 C 13.5 10.4 13.5 10.4 13.2 10.3 M 6.8 23.6 C 3.3 23.3 6.1 22.7 6.8 23.6 M 23.0 9.8 C 18.2 9.4 27.6 8.2 23.0 9.8 M 27.2 8.2 C 27.6 8.3 27.6 8.3 27.2 8.2 M 6.7 11.9 C 6.7 12.0 6.7 12.0 6.7 11.9 C 6.7 11.9 6.7 11.9 6.7 11.9 Z M 8.1 24.5 C 12.4 26.0 3.3 25.3 8.1 24.5 M 35.1 29.0 C 32.1 29.4 36.7 27.1 35.1 29.0 M 40.9 29.0 C 41.1 28.9 41.1 28.9 40.9 29.0 C 40.9 29.0 40.9 29.0 40.9 29.0 Z M 15.6 10.8 C 15.5 10.8 15.5 10.8 15.6 10.8 C 15.6 10.8 15.6 10.8 15.6 10.8 Z M 20.8 9.7 C 20.7 9.8 20.7 9.8 20.8 9.7 C 20.8 9.7 20.8 9.7 20.8 9.7 Z M 33.4 20.2 C 33.2 20.2 33.2 20.2 33.4 20.2 C 33.4 20.2 33.4 20.2 33.4 20.2 Z M 40.8 23.8 C 43.8 25.1 34.4 26.9 37.1 24.3 C 37.6 23.1 40.2 24.0 40.8 23.8 M 12.6 21.4 C 12.8 17.2 14.0 27.3 12.6 21.4 M 28.6 10.7 C 33.8 14.9 23.1 8.0 28.6 10.7 M 35.6 8.8 C 38.1 9.5 22.3 11.4 32.8 8.5 C 33.6 7.6 34.7 8.4 35.6 8.8 M 18.2 25.0 C 18.1 22.6 23.1 26.7 18.2 25.0 M 8.5 20.1 C 10.0 18.4 14.5 16.4 12.9 19.2 C 13.5 22.3 6.5 21.6 8.5 20.1 M 49.6 28.9 C 43.6 31.7 52.6 26.1 49.6 28.9 M 36.3 26.6 C 36.2 26.7 36.2 26.7 36.3 26.6 C 36.3 26.6 36.3 26.6 36.3 26.6 Z M 30.6 26.3 C 30.5 26.0 30.5 26.0 30.6 26.3 M 44.6 31.4 C 44.6 31.1 44.6 31.1 44.6 31.4 M 7.7 16.4 C 8.1 16.6 8.1 16.6 7.7 16.4 M 8.1 22.8 C 3.5 18.5 11.1 22.5 8.1 22.8 M 23.9 18.1 C 22.9 16.2 27.6 18.5 23.9 18.1 M 4.7 13.0 C 9.1 15.8 -0.1 17.0 4.7 13.0 M 10.5 23.6 C 10.3 23.5 10.3 23.5 10.5 23.6 C 10.5 23.6 10.5 23.6 10.5 23.6 Z M 10.0 20.3 C 9.9 20.3 9.9 20.3 10.0 20.3 C 10.0 20.3 10.0 20.3 10.0 20.3 Z M 11.7 19.8 C 11.6 19.9 11.6 19.9 11.7 19.8 C 11.7 19.8 11.7 19.8 11.7 19.8 Z M 9.2 11.9 C 9.1 12.0 9.1 12.0 9.2 11.9 C 9.2 11.9 9.2 11.9 9.2 11.9 Z M 48.9 20.5 C 44.9 19.7 52.6 20.5 48.9 20.5 C 48.9 20.5 48.9 20.5 48.9 20.5 Z M 24.9 27.3 C 20.2 23.8 30.6 25.5 24.9 27.3 C 24.9 27.3 24.9 27.3 24.9 27.3 Z M 20.1 22.0 C 20.2 21.8 20.2 21.8 20.1 22.0 C 20.1 22.0 20.1 22.0 20.1 22.0 Z M 1.9 11.2 C 1.9 11.4 1.9 11.4 1.9 11.2 C 1.9 11.2 1.9 11.2 1.9 11.2 Z M 47.1 19.8 C 47.3 19.6 47.3 19.6 47.1 19.8 C 47.1 19.8 47.1 19.8 47.1 19.8 Z M 20.5 12.1 C 20.5 12.3 20.5 12.3 20.5 12.1 C 20.5 12.1 20.5 12.1 20.5 12.1 Z M 7.2 15.5 C 5.4 16.5 7.1 14.4 7.2 15.5 C 7.2 15.5 7.2 15.5 7.2 15.5 Z M 5.3 21.5 C 5.5 21.5 5.5 21.5 5.3 21.5 C 5.3 21.5 5.3 21.5 5.3 21.5 Z M 28.5 7.7 C 28.6 7.7 28.6 7.7 28.5 7.7 C 28.5 7.7 28.5 7.7 28.5 7.7 Z M 21.3 22.4 C 21.4 22.4 21.4 22.4 21.3 22.4 C 21.3 22.4 21.3 22.4 21.3 22.4 Z M 25.3 17.8 C 25.2 17.8 25.2 17.8 25.3 17.8 C 25.3 17.8 25.3 17.8 25.3 17.8 Z M 8.4 12.9 C 13.9 11.4 7.3 14.6 8.4 12.9 C 8.4 12.9 8.4 12.9 8.4 12.9 Z M 39.5 14.5 C 39.8 14.7 39.8 14.7 39.5 14.5 C 39.5 14.5 39.5 14.5 39.5 14.5 Z M 40.8 9.6 C 41.0 9.8 41.0 9.8 40.8 9.6 C 40.8 9.6 40.8 9.6 40.8 9.6 Z M 41.3 7.0 C 41.5 7.2 41.5 7.2 41.3 7.0 C 41.3 7.0 41.3 7.0 41.3 7.0 Z M 33.8 21.7 C 33.8 21.9 33.8 21.9 33.8 21.7 C 33.8 21.7 33.8 21.7 33.8 21.7 Z M 31.2 29.0 C 31.2 29.1 31.2 29.1 31.2 29.0 C 31.2 29.0 31.2 29.0 31.2 29.0 Z M 23.9 28.3 C 23.9 28.4 23.9 28.4 23.9 28.3 C 23.9 28.3 23.9 28.3 23.9 28.3 Z M 38.2 17.6 C 38.2 17.7 38.2 17.7 38.2 17.6 C 38.2 17.6 38.2 17.6 38.2 17.6 Z M 4.7 19.3 C 4.8 19.4 4.8 19.4 4.7 19.3 C 4.7 19.3 4.7 19.3 4.7 19.3 Z M 3.6 20.7 C 3.5 20.5 3.5 20.5 3.6 20.7 C 3.6 20.7 3.6 20.7 3.6 20.7 Z M 10.5 12.8 C 10.5 12.9 10.5 12.9 10.5 12.8 C 10.5 12.8 10.5 12.8 10.5 12.8 Z M 6.3 23.0 C 6.2 22.9 6.2 22.9 6.3 23.0 C 6.3 23.0 6.3 23.0 6.3 23.0 Z M 58.5 22.1 C 58.6 22.0 58.6 22.0 58.5 22.1 C 58.5 22.1 58.5 22.1 58.5 22.1 Z M 53.6 27.3 C 53.9 27.1 53.9 27.1 53.6 27.3 C 53.6 27.3 53.6 27.3 53.6 27.3 Z M 3.1 23.4 C 2.6 23.7 2.2 23.6 1.9 23.3 L 1.9 13.3 C 2.3 13.6 2.5 13.9 2.0 14.0 L 2.0 22.7 C 2.3 22.7 2.6 22.9 3.1 23.4 M 13.8 24.2 C 13.9 24.1 13.9 24.1 13.8 24.2 C 13.8 24.2 13.8 24.2 13.8 24.2 Z M 19.2 11.1 C 21.2 13.2 13.8 10.7 19.2 11.1 C 19.2 11.1 19.2 11.1 19.2 11.1 Z M 15.5 21.6 C 15.6 21.6 15.6 21.6 15.5 21.6 C 15.5 21.6 15.5 21.6 15.5 21.6 Z M 18.3 20.2 C 18.6 20.4 18.6 20.4 18.3 20.2 C 18.3 20.2 18.3 20.2 18.3 20.2 Z M 33.0 11.6 C 33.3 11.8 33.3 11.8 33.0 11.6 M 14.4 26.4 C 13.2 25.2 13.5 25.4 14.4 26.4 M 22.9 10.7 C 22.8 10.8 22.8 10.8 22.9 10.7 C 22.9 10.7 22.9 10.7 22.9 10.7 Z M 36.1 9.9 C 36.0 9.9 36.0 9.9 36.1 9.9 C 36.1 9.9 36.1 9.9 36.1 9.9 Z M 22.4 26.0 C 23.5 23.3 24.7 24.1 22.4 26.0 M 44.0 28.2 C 44.1 28.1 44.1 28.1 44.0 28.2 C 44.0 28.2 44.0 28.2 44.0 28.2 Z M 52.7 5.3 C 45.5 3.3 47.3 7.4 47.4 7.6 C 45.5 1.8 42.9 10.6 44.6 11.5 C 44.7 12.3 53.8 21.5 55.5 14.9 C 56.4 13.9 57.9 15.6 58.8 15.6 C 66.1 14.3 52.8 13.3 60.7 12.0 C 60.8 11.9 61.1 11.6 61.2 11.6 C 61.8 11.6 62.6 12.8 63.3 13.4 C 63.9 14.1 60.2 14.7 63.5 13.0 C 63.6 13.5 69.2 15.3 67.6 13.0 C 69.8 15.3 72.6 12.6 75.5 12.0 C 77.6 13.4 72.3 15.6 82.1 12.9 C 84.7 17.0 88.3 9.9 90.3 14.3 C 92.5 14.5 98.2 7.1 91.7 11.3 C 92.6 10.8 90.5 7.3 97.1 8.5 C 95.8 9.5 89.6 17.0 101.8 13.4 C 103.6 13.6 108.4 11.7 109.1 12.5 C 103.1 13.3 115.9 15.8 115.2 13.5 C 123.6 15.1 119.5 11.7 125.2 14.2 C 130.4 14.3 124.4 10.8 130.4 12.8 C 135.4 12.4 131.5 14.3 131.1 14.2 C 135.2 14.5 137.2 13.2 138.6 13.3 C 139.5 13.6 141.0 15.2 142.5 13.3 C 147.9 9.9 144.7 6.5 147.6 3.1 C 144.8 1.4 145.5 5.7 143.9 3.1 C 141.7 5.3 143.7 2.9 134.7 3.4 C 134.8 3.9 136.5 5.4 134.3 5.6 C 130.9 5.4 134.9 -0.4 128.1 3.7 C 134.5 4.9 118.1 5.5 124.0 6.7 C 116.0 7.4 121.9 6.3 116.6 4.9 C 115.8 8.8 117.4 0.7 114.4 3.8 C 114.3 2.2 105.2 2.9 110.9 5.3 C 101.3 6.3 107.8 4.1 105.1 2.1 C 100.9 1.8 102.9 8.4 101.7 3.6 C 96.8 1.4 100.7 6.0 97.8 2.2 C 98.6 5.6 93.8 2.2 94.2 5.8 C 84.6 6.1 96.5 2.0 89.1 4.5 C 91.1 4.6 91.8 -0.2 86.7 2.9 C 86.7 8.6 83.0 -2.2 83.6 5.5 C 69.6 7.6 82.3 2.3 75.1 2.3 C 73.2 2.3 76.3 4.8 74.6 4.8 C 65.5 3.7 74.0 1.8 67.9 5.5 C 63.1 5.9 62.2 5.2 62.6 4.2 C 62.8 3.7 63.3 3.2 63.2 2.8 C 63.2 2.4 62.3 1.8 59.8 2.5 C 59.6 2.9 59.1 3.4 58.7 4.0 L 57.1 4.8 C 56.8 6.5 54.9 8.4 52.7 5.3 M 64.2 4.7 C 66.5 3.5 65.0 5.9 64.2 4.7 M 42.8 6.9 C 44.1 5.5 44.4 7.9 42.8 6.9 M 72.2 3.6 C 75.2 2.3 72.4 5.6 72.2 3.6 M 121.7 5.4 C 118.2 5.4 123.5 4.4 121.7 5.4 M 49.8 5.6 C 51.7 3.8 51.4 7.4 49.8 5.6 M 47.7 8.9 C 47.9 8.9 47.9 8.9 47.7 8.9 M 127.5 2.3 C 127.6 2.4 127.6 2.4 127.5 2.3 M 114.1 2.3 C 116.9 2.4 112.3 3.1 114.1 2.3 M 110.0 14.8 C 112.9 14.9 108.1 15.6 110.0 14.8 M 134.8 2.2 C 137.9 1.2 135.3 3.6 134.8 2.2 M 141.5 4.9 C 144.4 3.8 142.9 6.2 141.5 4.9 M 61.4 9.4 C 61.4 9.6 61.4 9.6 61.4 9.4 C 61.4 9.4 61.4 9.4 61.4 9.4 Z M 84.8 12.2 C 82.2 10.9 87.9 13.7 84.8 12.2 M 82.8 3.9 C 84.0 6.5 79.1 3.8 82.8 3.9 C 82.8 3.9 82.8 3.9 82.8 3.9 Z M 78.1 5.1 C 78.0 5.2 78.0 5.2 78.1 5.1 C 78.1 5.1 78.1 5.1 78.1 5.1 Z M 92.0 5.3 C 91.8 5.3 91.8 5.3 92.0 5.3 C 92.0 5.3 92.0 5.3 92.0 5.3 Z M 89.0 5.5 C 87.8 6.0 87.6 5.0 89.0 5.5 C 89.0 5.5 89.0 5.5 89.0 5.5 Z M 106.8 13.6 C 105.5 14.1 105.4 13.0 106.8 13.6 C 106.8 13.6 106.8 13.6 106.8 13.6 Z M 84.4 6.3 C 83.2 8.9 82.9 4.7 84.4 6.3 C 84.4 6.3 84.4 6.3 84.4 6.3 Z M 97.5 12.4 C 98.9 11.7 99.3 14.8 97.5 12.4 M 130.2 2.8 C 131.6 2.1 132.1 5.2 130.2 2.8 M 101.1 2.1 C 102.5 1.4 102.9 4.5 101.1 2.1 M 66.2 3.6 C 66.4 3.8 66.4 3.8 66.2 3.6 M 79.0 14.6 C 81.2 13.7 79.6 15.7 79.0 14.6 M 56.1 15.9 C 57.6 14.7 57.6 16.8 56.1 15.9 M 122.7 14.6 C 122.8 13.9 125.6 14.9 122.7 14.6 M 103.3 6.1 C 105.8 6.4 108.0 7.8 102.7 7.7 C 102.5 7.1 104.3 6.7 103.3 6.1 C 103.3 6.1 103.3 6.1 103.3 6.1 Z M 110.9 12.0 C 111.2 12.2 111.2 12.2 110.9 12.0 M 108.6 3.8 C 108.9 4.0 108.9 4.0 108.6 3.8 M 123.5 4.0 C 123.7 4.4 123.7 4.4 123.5 4.0 M 125.6 3.3 C 125.5 3.4 125.5 3.4 125.6 3.3 C 125.6 3.3 125.6 3.3 125.6 3.3 Z M 142.3 2.3 C 142.3 2.4 142.3 2.4 142.3 2.3 C 142.3 2.3 142.3 2.3 142.3 2.3 Z M 118.6 4.4 C 118.5 4.5 118.5 4.5 118.6 4.4 C 118.6 4.4 118.6 4.4 118.6 4.4 Z M 129.5 14.1 C 129.5 14.2 129.5 14.2 129.5 14.1 C 129.5 14.1 129.5 14.1 129.5 14.1 Z M 128.2 12.5 C 128.2 12.6 128.2 12.6 128.2 12.5 C 128.2 12.5 128.2 12.5 128.2 12.5 Z M 54.0 5.2 C 55.3 3.2 57.2 9.2 54.0 5.2 M 135.6 12.6 C 137.3 14.3 131.6 12.9 135.6 12.6 C 135.6 12.6 135.6 12.6 135.6 12.6 Z M 116.2 6.5 C 116.3 6.8 116.3 6.8 116.2 6.5 M 126.5 3.5 C 126.6 3.9 126.6 3.9 126.5 3.5 M 83.4 1.6 C 83.5 2.0 83.5 2.0 83.4 1.6 M 137.9 4.0 C 144.7 4.7 133.7 7.7 137.9 4.0 M 79.5 4.1 C 79.4 3.8 79.4 3.8 79.5 4.1 M 93.8 8.8 C 98.5 8.6 91.6 10.2 93.8 8.8 M 106.7 5.6 C 106.5 5.7 106.5 5.7 106.7 5.6 C 106.7 5.6 106.7 5.6 106.7 5.6 Z M 99.7 5.6 C 96.2 5.9 99.1 4.9 99.7 5.6 C 99.7 5.6 99.7 5.6 99.7 5.6 Z M 58.8 6.5 C 61.9 4.7 60.1 6.1 58.7 7.1 C 57.3 7.5 56.3 7.6 58.1 6.9 C 58.7 6.6 58.8 6.5 58.8 6.5 C 58.8 6.5 58.8 6.5 58.8 6.5 Z M 133.1 10.0 C 132.9 10.1 132.9 10.1 133.1 10.0 C 133.1 10.0 133.1 10.0 133.1 10.0 Z M 118.3 2.6 C 116.1 3.2 117.5 1.8 118.3 2.6 C 118.3 2.6 118.3 2.6 118.3 2.6 Z M 144.8 2.3 C 142.5 2.9 144.0 1.5 144.8 2.3 C 144.8 2.3 144.8 2.3 144.8 2.3 Z M 52.9 7.2 C 70.9 8.9 31.5 9.3 52.9 7.2 C 52.9 7.2 52.9 7.2 52.9 7.2 Z M 103.0 3.9 C 102.9 4.0 102.9 4.0 103.0 3.9 C 103.0 3.9 103.0 3.9 103.0 3.9 Z M 73.6 2.1 C 73.5 2.2 73.5 2.2 73.6 2.1 C 73.6 2.1 73.6 2.1 73.6 2.1 Z M 67.8 4.4 C 67.7 4.6 67.7 4.6 67.8 4.4 C 67.8 4.4 67.8 4.4 67.8 4.4 Z M 66.0 14.4 C 65.8 14.5 65.8 14.5 66.0 14.4 C 66.0 14.4 66.0 14.4 66.0 14.4 Z M 69.2 9.8 C 68.9 10.1 68.9 10.1 69.2 9.8 C 69.2 9.8 69.2 9.8 69.2 9.8 Z M 61.1 12.9 C 61.1 13.1 61.1 13.1 61.1 12.9 C 61.1 12.9 61.1 12.9 61.1 12.9 Z M 61.9 14.0 C 62.0 14.1 62.0 14.1 61.9 14.0 C 61.9 14.0 61.9 14.0 61.9 14.0 Z M 125.7 6.3 C 125.5 6.6 125.5 6.6 125.7 6.3 C 125.7 6.3 125.7 6.3 125.7 6.3 Z M 118.9 10.5 C 123.1 9.0 117.1 12.6 118.9 10.5 C 118.9 10.5 118.9 10.5 118.9 10.5 Z M 85.8 8.5 C 89.5 7.9 83.2 9.7 85.8 8.5 C 85.8 8.5 85.8 8.5 85.8 8.5 Z M 87.9 13.9 C 88.0 13.9 88.0 13.9 87.9 13.9 C 87.9 13.9 87.9 13.9 87.9 13.9 Z M 68.6 2.0 C 68.4 2.3 68.4 2.3 68.6 2.0 C 68.6 2.0 68.6 2.0 68.6 2.0 Z M 60.2 4.2 C 59.5 5.7 58.8 5.6 58.6 5.2 C 58.5 5.1 58.5 5.0 58.6 4.8 C 58.8 4.5 59.3 4.2 60.2 4.2 M 94.2 2.5 C 94.1 2.8 94.1 2.8 94.2 2.5 C 94.2 2.5 94.2 2.5 94.2 2.5 Z M 113.5 5.8 C 113.4 6.0 113.4 6.0 113.5 5.8 C 113.5 5.8 113.5 5.8 113.5 5.8 Z M 134.1 4.4 C 133.9 4.7 133.9 4.7 134.1 4.4 C 134.1 4.4 134.1 4.4 134.1 4.4 Z M 106.7 2.8 C 106.5 3.1 106.5 3.1 106.7 2.8 C 106.7 2.8 106.7 2.8 106.7 2.8 Z M 96.5 4.7 C 96.3 5.0 96.3 5.0 96.5 4.7 C 96.5 4.7 96.5 4.7 96.5 4.7 Z M 137.8 7.4 C 137.6 7.5 137.6 7.5 137.8 7.4 C 137.8 7.4 137.8 7.4 137.8 7.4 Z M 109.1 2.5 C 109.0 2.5 109.0 2.5 109.1 2.5 C 109.1 2.5 109.1 2.5 109.1 2.5 Z M 113.0 9.1 C 112.7 9.3 112.7 9.3 113.0 9.1 C 113.0 9.1 113.0 9.1 113.0 9.1 Z M 63.6 0.7 C 63.5 0.8 63.5 0.8 63.6 0.7 C 63.6 0.7 63.6 0.7 63.6 0.7 Z M 138.7 4.6 C 138.6 4.7 138.6 4.7 138.7 4.6 C 138.7 4.6 138.7 4.6 138.7 4.6 Z M 140.4 2.7 C 140.3 2.8 140.3 2.8 140.4 2.7 C 140.4 2.7 140.4 2.7 140.4 2.7 Z M 123.4 12.7 C 116.5 11.5 129.9 12.2 125.3 10.0 C 135.8 9.4 124.9 12.8 123.4 12.7 C 123.4 12.7 123.4 12.7 123.4 12.7 Z M 150.2 2.0 C 145.5 4.8 144.8 7.5 145.7 10.5 C 147.3 11.9 148.7 6.2 147.6 11.0 C 142.8 12.0 147.7 18.2 149.2 12.1 C 155.4 11.2 149.1 16.0 153.4 13.5 C 159.9 12.9 156.1 14.8 161.2 14.4 C 164.9 11.0 163.7 16.0 165.7 12.8 C 162.4 16.3 171.2 11.9 171.0 13.5 C 166.0 15.6 188.1 13.5 176.6 12.5 C 181.8 10.9 180.2 13.7 181.7 14.2 C 184.3 12.1 189.2 15.8 192.6 13.8 C 192.2 13.3 190.7 13.2 190.4 12.5 C 189.9 11.2 193.7 12.8 193.3 12.7 C 194.3 12.3 194.9 11.9 195.3 12.1 C 195.5 12.2 195.5 12.3 195.2 12.4 C 194.9 12.4 193.9 12.6 193.8 13.5 C 193.7 14.3 193.5 14.0 193.5 13.8 C 193.5 13.5 193.8 13.4 193.1 13.5 C 193.0 13.2 193.2 15.4 193.5 16.0 C 193.8 16.6 194.1 16.8 194.4 16.8 C 194.9 16.9 195.1 16.4 193.9 17.7 C 193.8 22.8 193.8 26.5 194.2 26.5 C 193.8 29.6 191.9 29.8 193.8 33.0 C 190.1 38.5 200.8 38.8 193.6 39.8 C 195.3 41.9 190.6 42.7 195.1 43.3 C 193.1 40.7 191.6 53.3 194.9 48.4 C 195.9 50.1 190.3 57.1 194.8 56.8 C 198.1 60.3 201.4 60.3 204.5 54.7 C 202.0 54.9 207.2 48.6 202.8 52.4 C 201.3 57.5 201.2 42.3 202.8 45.8 C 208.1 47.6 199.5 37.8 203.3 35.3 C 201.2 37.5 200.2 24.9 204.1 29.3 C 204.4 27.1 202.6 26.2 204.9 24.1 C 204.5 31.5 200.7 20.4 203.1 21.4 C 203.9 22.2 204.5 19.9 204.8 17.5 C 204.9 16.2 204.8 15.0 204.7 14.1 C 204.5 13.2 204.1 11.9 203.5 12.3 C 202.3 13.8 201.6 13.7 201.4 13.5 C 201.2 13.4 201.5 12.6 201.6 11.5 C 201.8 9.3 200.1 5.6 197.8 5.6 C 195.2 4.6 193.9 4.8 193.7 4.5 C 193.5 4.2 193.8 3.7 194.4 3.3 C 195.1 2.9 195.9 2.8 195.7 2.8 C 195.5 2.8 194.1 3.0 192.8 4.0 C 191.7 3.3 183.6 3.3 189.0 2.2 C 190.8 2.7 182.8 8.2 183.0 3.5 C 192.3 0.9 173.4 2.1 176.0 3.5 C 188.7 6.0 161.1 6.4 172.2 3.9 C 166.9 1.3 174.2 2.9 166.6 4.0 C 167.2 5.4 161.1 6.8 163.2 3.9 C 163.1 -0.5 159.7 9.8 156.7 3.8 C 156.7 1.2 147.3 5.7 151.2 2.8 C 151.5 2.5 150.4 2.0 150.2 2.0 M 152.7 2.5 C 151.5 3.5 151.4 1.3 152.7 2.5 M 151.4 3.4 C 151.3 3.4 151.3 3.4 151.4 3.4 C 151.4 3.4 151.4 3.4 151.4 3.4 Z M 165.4 4.1 C 165.4 4.0 165.4 4.0 165.4 4.1 C 165.4 4.1 165.4 4.1 165.4 4.1 Z M 174.0 15.2 C 174.0 15.1 174.0 15.1 174.0 15.2 C 174.0 15.2 174.0 15.2 174.0 15.2 Z M 174.9 4.4 C 174.8 4.4 174.8 4.4 174.9 4.4 C 174.9 4.4 174.9 4.4 174.9 4.4 Z M 160.2 4.8 C 160.1 4.8 160.1 4.8 160.2 4.8 C 160.2 4.8 160.2 4.8 160.2 4.8 Z M 174.4 2.8 C 174.7 4.4 171.4 1.5 174.6 2.5 C 174.7 2.6 174.1 2.6 174.4 2.8 M 186.9 2.1 C 186.9 2.3 186.9 2.3 186.9 2.1 M 192.1 23.1 C 191.9 23.1 191.9 23.1 192.1 23.1 M 205.3 28.1 C 205.1 28.3 205.1 28.3 205.3 28.1 M 201.8 8.1 C 203.9 11.0 203.2 11.8 202.9 11.1 C 202.6 10.5 201.9 8.9 201.8 8.1 M 204.3 37.8 C 205.4 33.3 205.2 43.1 204.3 37.8 M 205.3 42.7 C 205.1 43.0 205.1 43.0 205.3 42.7 M 204.7 21.1 C 204.5 21.0 204.5 21.0 204.7 21.1 C 204.7 21.1 204.7 21.1 204.7 21.1 Z M 200.5 5.6 C 198.9 3.9 198.3 3.6 198.7 3.7 C 199.1 3.7 200.5 4.3 201.5 5.2 C 202.5 6.1 203.2 7.3 203.2 7.6 C 203.3 7.9 202.8 7.0 200.5 5.6 M 167.5 2.5 C 170.4 1.7 167.0 4.7 167.5 2.5 M 161.7 3.5 C 161.6 3.6 161.6 3.6 161.7 3.5 C 161.7 3.5 161.7 3.5 161.7 3.5 Z M 204.4 30.2 C 204.4 30.1 204.4 30.1 204.4 30.2 C 204.4 30.2 204.4 30.2 204.4 30.2 Z M 204.7 35.8 C 204.7 35.6 204.7 35.6 204.7 35.8 C 204.7 35.8 204.7 35.8 204.7 35.8 Z M 192.6 42.5 C 192.5 42.3 192.5 42.3 192.6 42.5 C 192.6 42.5 192.6 42.5 192.6 42.5 Z M 164.6 8.5 C 161.1 7.7 169.3 4.5 167.9 7.5 C 168.0 8.8 165.1 8.2 164.6 8.5 M 192.9 6.8 C 193.0 11.0 190.6 1.2 192.9 6.8 M 202.6 42.8 C 197.7 45.5 206.1 38.8 202.6 42.8 M 203.4 50.5 C 202.4 52.5 202.9 36.4 204.2 48.0 C 205.0 49.2 204.0 49.8 203.4 50.5 M 186.6 4.1 C 187.2 6.4 181.0 3.1 186.6 4.1 M 196.3 19.6 C 197.7 21.7 199.0 26.7 196.5 24.1 C 193.3 23.4 195.0 17.1 196.3 19.6 M 153.2 4.8 C 157.2 1.2 152.3 7.9 153.2 4.8 M 167.6 5.2 C 167.7 5.0 167.7 5.0 167.6 5.2 C 167.6 5.2 167.6 5.2 167.6 5.2 Z M 173.4 4.6 C 173.6 4.9 173.6 4.9 173.4 4.6 M 156.4 1.6 C 156.6 1.9 156.6 1.9 156.4 1.6 M 200.1 20.3 C 199.8 20.5 199.8 20.5 200.1 20.3 M 199.7 7.0 C 200.5 9.0 200.1 9.7 199.9 9.8 C 199.7 9.9 199.4 9.4 199.1 8.8 C 198.5 7.5 197.4 5.5 199.7 7.0 M 182.3 11.7 C 183.6 13.4 178.8 11.9 182.3 11.7 M 203.9 18.6 C 200.4 21.8 200.6 12.5 203.9 18.6 M 195.7 4.6 C 196.2 4.7 196.2 4.7 195.7 4.6 C 195.7 4.6 195.7 4.6 195.7 4.6 Z M 195.9 21.0 C 195.8 20.8 195.8 20.8 195.9 21.0 C 195.9 21.0 195.9 21.0 195.9 21.0 Z M 196.0 22.7 C 196.0 22.5 196.0 22.5 196.0 22.7 C 196.0 22.7 196.0 22.7 196.0 22.7 Z M 204.3 23.5 C 204.2 23.3 204.2 23.3 204.3 23.5 C 204.3 23.5 204.3 23.5 204.3 23.5 Z M 158.9 12.9 C 162.8 13.2 155.6 13.5 158.9 12.9 C 158.9 12.9 158.9 12.9 158.9 12.9 Z M 178.9 2.8 C 184.7 5.5 173.7 5.4 178.9 2.8 C 178.9 2.8 178.9 2.8 178.9 2.8 Z M 185.2 7.3 C 185.2 7.5 185.2 7.5 185.2 7.3 C 185.2 7.3 185.2 7.3 185.2 7.3 Z M 206.0 16.5 C 205.8 16.5 205.8 16.5 206.0 16.5 C 206.0 16.5 206.0 16.5 206.0 16.5 Z M 160.8 13.4 C 160.7 13.6 160.7 13.6 160.8 13.4 C 160.8 13.4 160.8 13.4 160.8 13.4 Z M 202.4 34.3 C 202.2 34.3 202.2 34.3 202.4 34.3 C 202.4 34.3 202.4 34.3 202.4 34.3 Z M 195.0 12.5 C 196.4 12.1 194.2 13.2 195.0 12.5 C 195.0 12.5 195.0 12.5 195.0 12.5 Z M 195.3 16.0 C 195.3 16.2 195.3 16.2 195.3 16.0 C 195.3 16.0 195.3 16.0 195.3 16.0 Z M 205.6 44.2 C 205.6 44.3 205.6 44.3 205.6 44.2 C 205.6 44.2 205.6 44.2 205.6 44.2 Z M 192.1 30.4 C 192.1 30.6 192.1 30.6 192.1 30.4 C 192.1 30.4 192.1 30.4 192.1 30.4 Z M 196.1 36.2 C 196.0 36.1 196.0 36.1 196.1 36.2 C 196.1 36.2 196.1 36.2 196.1 36.2 Z M 203.4 22.3 C 204.1 28.3 201.9 20.6 203.4 22.3 C 203.4 22.3 203.4 22.3 203.4 22.3 Z M 197.2 51.0 C 197.0 51.2 197.0 51.2 197.2 51.0 C 197.2 51.0 197.2 51.0 197.2 51.0 Z M 201.9 54.9 C 201.7 55.0 201.7 55.0 201.9 54.9 C 201.9 54.9 201.9 54.9 201.9 54.9 Z M 204.4 56.9 C 204.2 57.0 204.2 57.0 204.4 56.9 C 204.4 56.9 204.4 56.9 204.4 56.9 Z M 172.1 9.6 C 172.0 9.5 172.0 9.5 172.1 9.6 C 172.1 9.6 172.1 9.6 172.1 9.6 Z M 171.6 2.0 C 171.6 1.9 171.6 1.9 171.6 2.0 C 171.6 2.0 171.6 2.0 171.6 2.0 Z M 179.6 1.6 C 179.6 1.5 179.6 1.5 179.6 1.6 C 179.6 1.6 179.6 1.6 179.6 1.6 Z M 169.5 14.3 C 169.4 14.2 169.4 14.2 169.5 14.3 C 169.5 14.3 169.5 14.3 169.5 14.3 Z M 199.4 12.5 C 199.5 12.4 199.5 12.4 199.4 12.5 C 199.4 12.5 199.4 12.5 199.4 12.5 Z M 196.4 14.8 C 196.5 14.7 196.5 14.7 196.4 14.8 C 196.4 14.8 196.4 14.8 196.4 14.8 Z M 193.4 14.9 C 193.4 14.8 193.4 14.8 193.4 14.9 C 193.4 14.9 193.4 14.9 193.4 14.9 Z M 193.7 16.4 C 193.8 16.3 193.8 16.3 193.7 16.4 C 193.7 16.4 193.7 16.4 193.7 16.4 Z M 149.7 12.8 C 149.7 12.9 149.7 12.9 149.7 12.8 C 149.7 12.8 149.7 12.8 149.7 12.8 Z M 150.6 7.0 C 150.4 7.2 150.4 7.2 150.6 7.0 C 150.6 7.0 150.6 7.0 150.6 7.0 Z M 203.8 14.5 C 205.0 16.1 202.1 16.9 203.8 14.5 M 191.3 4.2 C 191.2 4.3 191.2 4.3 191.3 4.2 C 191.3 4.2 191.3 4.2 191.3 4.2 Z M 203.5 33.6 C 201.2 34.5 204.7 28.5 203.5 33.6 C 203.5 33.6 203.5 33.6 203.5 33.6 Z M 193.7 25.5 C 193.7 25.6 193.7 25.6 193.7 25.5 C 193.7 25.5 193.7 25.5 193.7 25.5 Z M 194.7 28.7 C 194.5 28.9 194.5 28.9 194.7 28.7 C 194.7 28.7 194.7 28.7 194.7 28.7 Z M 201.1 46.5 C 200.8 46.7 200.8 46.7 201.1 46.5 M 190.3 2.2 C 191.8 3.2 191.5 3.0 190.3 2.2 M 203.4 37.4 C 203.4 37.2 203.4 37.2 203.4 37.4 C 203.4 37.4 203.4 37.4 203.4 37.4 Z M 202.4 50.4 C 202.3 50.2 202.3 50.2 202.4 50.4 C 202.4 50.4 202.4 50.4 202.4 50.4 Z M 181.9 3.7 C 181.5 6.6 180.1 5.9 181.9 3.7 M 159.1 4.6 C 159.1 4.8 159.1 4.8 159.1 4.6 C 159.1 4.6 159.1 4.6 159.1 4.6 Z M 204.4 68.7 C 207.5 63.2 203.1 62.3 203.0 62.3 C 208.9 64.1 200.6 56.4 199.5 57.4 C 198.6 57.0 188.3 60.0 194.5 65.5 C 195.4 66.8 193.5 67.1 193.4 68.0 C 193.6 75.6 196.6 63.3 196.6 72.6 C 195.8 74.1 190.8 71.3 194.2 77.4 C 193.8 77.5 191.9 83.4 194.2 81.5 C 191.9 84.0 194.7 86.4 195.2 89.2 C 193.9 91.5 191.6 86.6 194.4 95.9 C 190.2 99.2 197.4 101.6 192.9 104.4 C 192.7 106.6 200.2 111.1 196.0 105.3 C 196.4 106.1 200.0 103.4 198.7 110.2 C 197.8 109.0 190.2 104.1 193.8 115.7 C 193.6 117.5 195.6 122.0 194.7 122.9 C 193.9 117.0 191.4 130.2 193.7 129.1 C 192.1 137.8 195.5 133.1 193.0 139.2 C 193.0 141.9 193.8 141.5 194.4 141.3 C 194.7 141.2 195.0 141.1 195.0 141.5 C 195.1 141.7 195.0 142.0 194.9 142.4 C 194.8 142.8 194.7 143.9 194.4 144.0 C 194.8 144.7 193.0 143.8 193.1 143.9 C 192.9 143.1 194.7 144.2 193.3 144.2 C 192.4 143.8 190.6 142.2 189.3 144.1 C 184.5 147.5 188.3 150.9 185.9 154.3 C 189.1 156.0 187.7 151.7 189.6 154.3 C 190.6 153.2 190.6 153.3 191.6 153.5 C 191.8 153.6 192.1 153.7 192.5 153.8 C 192.8 153.8 192.8 153.9 194.0 154.0 C 196.3 154.0 199.9 153.2 202.2 149.5 C 201.5 149.5 198.7 151.2 200.3 148.3 C 201.9 146.2 203.0 146.2 204.1 145.4 C 205.2 144.7 205.6 143.5 203.6 140.4 C 202.3 147.0 201.7 130.7 200.5 136.9 C 199.8 128.9 201.0 134.7 202.4 129.1 C 198.5 129.0 206.5 129.2 203.4 126.7 C 205.0 126.4 204.3 117.4 201.9 123.5 C 200.9 114.1 203.1 120.2 205.2 117.2 C 205.4 112.9 198.8 116.0 203.6 114.0 C 205.8 108.7 201.3 113.4 205.0 109.9 C 201.7 111.2 205.0 105.8 201.4 106.8 C 201.1 97.3 205.3 108.6 202.7 101.5 C 202.6 103.6 207.5 103.5 204.3 98.9 C 198.6 99.8 209.4 94.4 201.8 96.2 C 199.6 82.5 204.9 94.4 205.0 87.1 C 204.9 85.3 202.5 88.8 202.4 87.1 C 203.5 77.9 205.5 86.0 201.8 80.5 C 200.8 71.0 204.9 78.3 205.2 73.8 C 203.4 73.2 200.4 68.9 204.4 68.7 M 202.6 76.7 C 203.7 78.8 201.3 77.7 202.6 76.7 M 204.3 58.4 C 205.5 60.5 203.1 59.3 204.3 58.4 M 203.7 84.5 C 204.9 87.3 201.7 85.0 203.7 84.5 M 201.8 134.3 C 201.8 130.8 202.8 136.0 201.8 134.3 M 204.6 65.8 C 206.0 68.8 202.5 66.2 204.6 65.8 M 201.6 61.9 C 201.6 62.1 201.6 62.1 201.6 61.9 M 204.9 139.6 C 204.8 139.7 204.8 139.7 204.9 139.6 M 205.0 126.2 C 204.9 129.0 204.2 124.5 205.0 126.2 M 192.4 124.1 C 192.3 127.0 191.6 122.4 192.4 124.1 M 203.3 150.1 C 201.9 153.1 201.0 152.9 201.2 152.3 C 201.5 151.6 202.3 150.4 203.3 150.1 M 191.7 152.5 C 189.0 153.6 190.2 151.2 191.7 152.5 M 198.2 74.3 C 198.0 74.2 198.0 74.2 198.2 74.3 C 198.2 74.3 198.2 74.3 198.2 74.3 Z M 195.1 98.5 C 196.3 95.7 193.5 101.8 195.1 98.5 M 203.3 95.2 C 200.7 96.7 203.5 91.4 203.3 95.2 C 203.3 95.2 203.3 95.2 203.3 95.2 Z M 202.1 90.7 C 202.0 90.6 202.0 90.6 202.1 90.7 C 202.1 90.7 202.1 90.7 202.1 90.7 Z M 202.0 104.6 C 201.9 104.4 201.9 104.4 202.0 104.6 C 202.0 104.6 202.0 104.6 202.0 104.6 Z M 201.8 101.7 C 201.2 100.5 202.3 100.1 201.8 101.7 C 201.8 101.7 201.8 101.7 201.8 101.7 Z M 193.7 120.8 C 193.1 119.5 194.2 119.3 193.7 120.8 C 193.7 120.8 193.7 120.8 193.7 120.8 Z M 200.9 97.2 C 198.3 96.4 202.6 95.4 200.9 97.2 C 200.9 97.2 200.9 97.2 200.9 97.2 Z M 194.8 111.2 C 195.5 112.6 192.4 113.5 194.8 111.2 M 204.4 142.3 C 205.1 143.6 202.0 144.7 204.4 142.3 M 205.2 113.1 C 205.9 114.5 202.7 115.4 205.2 113.1 M 203.7 78.5 C 203.4 78.7 203.4 78.7 203.7 78.5 M 192.6 93.1 C 193.6 95.1 191.5 93.9 192.6 93.1 M 193.5 65.3 C 194.4 67.5 192.3 66.1 193.5 65.3 M 192.7 136.8 C 193.4 136.8 192.4 139.8 192.7 136.8 M 201.1 116.0 C 200.8 118.6 199.4 121.0 199.6 115.6 C 200.2 115.4 200.5 117.1 201.1 116.0 C 201.1 116.0 201.1 116.0 201.1 116.0 Z M 195.3 124.5 C 195.0 124.9 195.0 124.9 195.3 124.5 M 203.4 120.9 C 203.2 121.2 203.2 121.2 203.4 120.9 M 203.2 135.9 C 202.8 136.2 202.8 136.2 203.2 135.9 M 203.9 137.8 C 203.8 137.8 203.8 137.8 203.9 137.8 C 203.9 137.8 203.9 137.8 203.9 137.8 Z M 191.4 155.2 C 191.4 155.0 191.4 155.0 191.4 155.2 C 191.4 155.2 191.4 155.2 191.4 155.2 Z M 202.9 131.1 C 202.8 131.0 202.8 131.0 202.9 131.1 C 202.9 131.1 202.9 131.1 202.9 131.1 Z M 193.2 143.6 C 193.1 143.6 193.1 143.6 193.2 143.6 C 193.2 143.6 193.2 143.6 193.2 143.6 Z M 194.7 142.0 C 194.6 142.0 194.6 142.0 194.7 142.0 C 194.7 142.0 194.7 142.0 194.7 142.0 Z M 204.4 70.1 C 206.2 72.6 200.0 70.5 204.4 70.1 M 194.2 144.8 C 193.1 143.4 194.6 144.1 194.2 144.8 C 194.2 144.8 194.2 144.8 194.2 144.8 Z M 200.7 129.0 C 200.4 129.2 200.4 129.2 200.7 129.0 M 203.7 138.8 C 203.4 138.9 203.4 138.9 203.7 138.8 M 205.6 95.4 C 205.3 95.6 205.3 95.6 205.6 95.4 M 196.9 152.8 C 193.8 153.8 193.1 152.9 193.1 152.6 C 193.0 152.3 193.4 152.0 194.5 151.8 C 196.5 151.2 199.5 150.0 196.9 152.8 M 203.2 91.8 C 203.4 91.7 203.4 91.7 203.2 91.8 M 198.5 106.9 C 198.6 111.6 197.0 105.0 198.5 106.9 M 201.7 119.3 C 201.5 119.2 201.5 119.2 201.7 119.3 C 201.7 119.3 201.7 119.3 201.7 119.3 Z M 201.6 112.3 C 201.3 108.9 202.4 111.6 201.6 112.3 C 201.6 112.3 201.6 112.3 201.6 112.3 Z M 202.0 73.0 C 201.7 77.3 201.2 68.3 202.0 73.0 C 202.0 73.0 202.0 73.0 202.0 73.0 Z M 196.9 145.6 C 196.8 145.4 196.8 145.4 196.9 145.6 C 196.9 145.6 196.9 145.6 196.9 145.6 Z M 204.7 130.4 C 204.0 128.3 205.4 129.5 204.7 130.4 C 204.7 130.4 204.7 130.4 204.7 130.4 Z M 188.9 155.1 C 191.0 154.5 189.8 155.9 188.9 155.1 C 188.9 155.1 188.9 155.1 188.9 155.1 Z M 202.5 67.7 C 198.3 83.3 203.6 46.2 202.5 67.7 C 202.5 67.7 202.5 67.7 202.5 67.7 Z M 203.4 115.4 C 203.2 115.3 203.2 115.3 203.4 115.4 C 203.4 115.4 203.4 115.4 203.4 115.4 Z M 205.1 85.7 C 205.0 85.6 205.0 85.6 205.1 85.7 C 205.1 85.7 205.1 85.7 205.1 85.7 Z M 202.8 80.2 C 202.7 80.1 202.7 80.1 202.8 80.2 C 202.8 80.2 202.8 80.2 202.8 80.2 Z M 192.9 80.0 C 192.7 79.9 192.7 79.9 192.9 80.0 C 192.9 80.0 192.9 80.0 192.9 80.0 Z M 197.4 82.5 C 197.1 82.2 197.1 82.2 197.4 82.5 C 197.4 82.5 197.4 82.5 197.4 82.5 Z M 195.7 71.7 C 195.5 71.6 195.5 71.6 195.7 71.7 C 195.7 71.7 195.7 71.7 195.7 71.7 Z M 194.4 71.7 C 194.3 71.6 194.3 71.6 194.4 71.7 C 194.4 71.7 194.4 71.7 194.4 71.7 Z M 200.9 138.4 C 200.7 138.3 200.7 138.3 200.9 138.4 C 200.9 138.4 200.9 138.4 200.9 138.4 Z M 196.7 132.3 C 198.2 136.3 194.6 130.9 196.7 132.3 C 196.7 132.3 196.7 132.3 196.7 132.3 Z M 198.8 98.9 C 199.3 102.5 197.5 96.5 198.8 98.9 C 198.8 98.9 198.8 98.9 198.8 98.9 Z M 193.4 101.9 C 193.3 102.0 193.3 102.0 193.4 101.9 C 193.4 101.9 193.4 101.9 193.4 101.9 Z M 205.2 80.6 C 205.0 80.5 205.0 80.5 205.2 80.6 C 205.2 80.6 205.2 80.6 205.2 80.6 Z M 203.5 74.0 C 201.4 73.4 204.5 72.2 203.5 74.0 M 204.7 106.3 C 204.5 106.2 204.5 106.2 204.7 106.3 C 204.7 106.3 204.7 106.3 204.7 106.3 Z M 201.4 126.2 C 201.3 126.1 201.3 126.1 201.4 126.2 C 201.4 126.2 201.4 126.2 201.4 126.2 Z M 201.7 148.4 C 201.5 148.0 201.5 148.0 201.7 148.4 C 201.7 148.4 201.7 148.4 201.7 148.4 Z M 204.5 118.9 C 204.2 118.7 204.2 118.7 204.5 118.9 C 204.5 118.9 204.5 118.9 204.5 118.9 Z M 202.5 109.0 C 202.3 108.9 202.3 108.9 202.5 109.0 C 202.5 109.0 202.5 109.0 202.5 109.0 Z M 195.4 149.8 C 195.5 149.6 195.5 149.6 195.4 149.8 C 195.4 149.8 195.4 149.8 195.4 149.8 Z M 204.8 121.2 C 204.7 121.1 204.7 121.1 204.8 121.2 C 204.8 121.2 204.8 121.2 204.8 121.2 Z M 198.1 126.2 C 197.9 126.0 197.9 126.0 198.1 126.2 C 198.1 126.2 198.1 126.2 198.1 126.2 Z M 206.5 75.4 C 206.4 75.3 206.4 75.3 206.5 75.4 C 206.5 75.4 206.5 75.4 206.5 75.4 Z M 195.2 152.7 C 195.3 152.6 195.3 152.6 195.2 152.7 C 195.2 152.7 195.2 152.7 195.2 152.7 Z M 193.2 154.7 C 193.3 154.6 193.3 154.6 193.2 154.7 C 193.2 154.7 193.2 154.7 193.2 154.7 Z M 194.5 137.2 C 195.7 130.1 195.0 143.6 197.3 138.7 C 197.8 149.0 194.4 138.7 194.5 137.2 C 194.5 137.2 194.5 137.2 194.5 137.2 Z M 183.5 155.4 C 187.8 152.6 188.1 149.9 186.6 147.0 C 184.8 145.5 184.3 151.2 184.7 146.4 C 189.3 145.5 183.4 139.2 182.9 145.4 C 176.8 146.2 182.3 141.4 178.5 143.9 C 172.0 144.5 175.5 142.6 170.5 143.0 C 167.3 146.4 167.8 141.4 166.2 144.6 C 169.0 141.1 160.9 145.5 160.8 144.0 C 165.5 141.8 143.7 143.9 155.4 144.9 C 150.5 146.6 151.6 143.7 150.0 143.3 C 147.8 145.3 142.2 141.6 139.2 143.7 C 139.7 144.1 141.2 144.3 141.6 144.9 C 142.3 146.3 138.3 144.7 138.7 144.7 C 136.7 145.5 128.8 147.6 137.3 144.0 C 137.8 142.3 130.5 144.7 130.9 143.2 C 123.7 143.1 128.9 146.5 125.8 144.0 C 120.7 144.0 117.1 144.0 117.1 144.4 C 114.0 144.0 113.4 142.1 110.5 144.0 C 104.4 140.3 105.9 151.0 103.7 143.8 C 101.9 145.5 100.3 140.8 100.4 145.3 C 102.7 143.2 89.8 141.8 95.3 145.1 C 93.8 146.1 85.8 140.5 86.9 145.0 C 84.0 148.3 84.4 151.6 90.6 154.7 C 90.0 152.2 97.1 157.4 92.6 153.0 C 87.2 151.5 102.5 151.4 99.2 153.0 C 98.2 158.3 106.7 149.7 109.8 153.5 C 107.2 151.4 119.6 150.4 115.9 154.3 C 118.2 154.6 118.8 152.7 121.2 155.0 C 113.8 154.7 124.2 150.9 123.6 153.3 C 122.3 154.8 133.3 156.0 132.3 153.8 C 128.7 148.3 135.1 154.9 137.1 152.8 C 143.3 151.6 135.9 157.4 140.6 153.4 C 141.8 154.1 149.9 154.1 144.7 155.2 C 142.8 154.7 149.9 149.2 150.5 153.9 C 141.7 156.5 160.3 155.3 157.5 153.9 C 144.3 151.4 171.9 151.0 161.2 153.5 C 166.9 156.1 159.4 154.5 166.9 153.4 C 166.0 152.0 171.9 150.6 170.2 153.5 C 171.0 157.9 172.8 147.6 176.8 153.7 C 177.2 156.3 185.9 151.7 182.4 154.6 C 182.1 154.9 183.3 155.5 183.5 155.4 M 180.9 154.9 C 182.0 153.9 182.4 156.2 180.9 154.9 M 182.1 154.0 C 182.2 154.0 182.2 154.0 182.1 154.0 C 182.1 154.0 182.1 154.0 182.1 154.0 Z M 168.0 153.3 C 168.0 153.4 168.0 153.4 168.0 153.3 C 168.0 153.3 168.0 153.3 168.0 153.3 Z M 157.5 142.2 C 157.6 142.3 157.6 142.3 157.5 142.2 C 157.5 142.2 157.5 142.2 157.5 142.2 Z M 158.5 153.0 C 158.6 153.1 158.6 153.1 158.5 153.0 C 158.5 153.0 158.5 153.0 158.5 153.0 Z M 173.1 152.6 C 173.2 152.6 173.2 152.6 173.1 152.6 C 173.1 152.6 173.1 152.6 173.1 152.6 Z M 159.2 154.7 C 158.6 153.0 162.4 155.9 159.0 154.9 C 158.9 154.8 159.6 154.8 159.2 154.7 M 146.8 155.3 C 146.7 155.1 146.7 155.1 146.8 155.3 M 120.2 142.3 C 120.1 142.1 120.1 142.1 120.2 142.3 M 117.3 155.4 C 117.0 155.2 117.0 155.2 117.3 155.4 M 134.6 153.6 C 130.8 153.8 133.7 152.8 134.6 153.6 M 107.4 154.5 C 112.1 155.6 102.3 155.4 107.4 154.5 M 102.7 155.5 C 102.3 155.3 102.3 155.3 102.7 155.5 M 124.2 154.8 C 124.3 154.7 124.3 154.7 124.2 154.8 C 124.2 154.8 124.2 154.8 124.2 154.8 Z M 136.2 154.3 C 141.1 155.2 131.1 155.9 136.2 154.3 M 166.1 154.9 C 163.4 155.7 166.3 152.8 166.1 154.9 M 171.8 154.0 C 171.9 153.9 171.9 153.9 171.8 154.0 C 171.8 154.0 171.8 154.0 171.8 154.0 Z M 115.0 154.6 C 115.2 154.6 115.2 154.6 115.0 154.6 C 115.0 154.6 115.0 154.6 115.0 154.6 Z M 109.5 154.9 C 109.7 154.9 109.7 154.9 109.5 154.9 C 109.5 154.9 109.5 154.9 109.5 154.9 Z M 100.8 142.7 C 101.0 142.7 101.0 142.7 100.8 142.7 C 100.8 142.7 100.8 142.7 100.8 142.7 Z M 168.1 148.9 C 171.7 149.7 164.0 152.9 165.0 149.9 C 164.7 148.7 167.6 149.2 168.1 148.9 M 140.0 150.6 C 139.3 146.5 143.3 156.2 140.0 150.6 M 102.1 152.8 C 98.6 147.8 106.7 156.2 102.1 152.8 M 94.6 153.6 C 92.4 152.6 108.6 153.1 97.2 154.4 C 96.1 155.2 95.4 154.1 94.6 153.6 M 146.8 153.3 C 145.8 151.0 152.6 154.3 146.8 153.3 M 124.3 146.4 C 122.5 147.9 117.7 149.2 119.9 146.7 C 120.0 143.5 126.6 145.2 124.3 146.4 M 180.0 152.6 C 176.7 156.3 180.5 149.5 180.0 152.6 M 165.6 152.3 C 165.6 152.4 165.6 152.4 165.6 152.3 C 165.6 152.3 165.6 152.3 165.6 152.3 Z M 159.9 152.9 C 159.7 152.6 159.7 152.6 159.9 152.9 M 177.4 155.8 C 177.2 155.5 177.2 155.5 177.4 155.8 M 124.3 150.2 C 124.0 150.0 124.0 150.0 124.3 150.2 M 135.7 152.7 C 130.4 149.0 138.8 151.9 135.7 152.7 M 149.8 145.7 C 148.2 144.0 153.3 145.6 149.8 145.7 M 126.6 154.0 C 122.8 150.6 132.1 150.8 126.6 154.0 M 138.5 153.0 C 138.2 153.0 138.2 153.0 138.5 153.0 C 138.5 153.0 138.5 153.0 138.5 153.0 Z M 122.9 146.1 C 123.0 146.0 123.0 146.0 122.9 146.1 C 122.9 146.1 122.9 146.1 122.9 146.1 Z M 121.2 146.2 C 121.4 146.1 121.4 146.1 121.2 146.2 C 121.2 146.2 121.2 146.2 121.2 146.2 Z M 121.7 154.5 C 121.9 154.4 121.9 154.4 121.7 154.5 C 121.7 154.5 121.7 154.5 121.7 154.5 Z M 173.0 144.5 C 169.1 144.2 176.2 143.9 173.0 144.5 C 173.0 144.5 173.0 144.5 173.0 144.5 Z M 154.7 154.6 C 148.4 151.9 159.5 152.0 154.7 154.6 C 154.7 154.6 154.7 154.6 154.7 154.6 Z M 147.7 150.1 C 147.7 149.9 147.7 149.9 147.7 150.1 C 147.7 150.1 147.7 150.1 147.7 150.1 Z M 129.0 156.2 C 129.0 156.0 129.0 156.0 129.0 156.2 C 129.0 156.2 129.0 156.2 129.0 156.2 Z M 171.1 144.0 C 171.1 143.8 171.1 143.8 171.1 144.0 C 171.1 144.0 171.1 144.0 171.1 144.0 Z M 110.6 152.6 C 110.6 152.4 110.6 152.4 110.6 152.6 C 110.6 152.6 110.6 152.6 110.6 152.6 Z M 133.6 145.5 C 132.1 146.8 133.4 144.4 133.6 145.5 C 133.6 145.5 133.6 145.5 133.6 145.5 Z M 127.7 145.5 C 127.6 145.5 127.6 145.5 127.7 145.5 C 127.7 145.5 127.7 145.5 127.7 145.5 Z M 101.3 155.7 C 101.1 155.8 101.1 155.8 101.3 155.7 C 101.3 155.7 101.3 155.7 101.3 155.7 Z M 112.8 142.2 C 112.6 142.3 112.6 142.3 112.8 142.2 C 112.8 142.2 112.8 142.2 112.8 142.2 Z M 107.7 146.3 C 107.7 146.2 107.7 146.2 107.7 146.3 C 107.7 146.3 107.7 146.3 107.7 146.3 Z M 122.8 153.6 C 116.9 154.3 124.2 152.1 122.8 153.6 C 122.8 153.6 122.8 153.6 122.8 153.6 Z M 93.0 147.4 C 92.9 147.2 92.9 147.2 93.0 147.4 C 93.0 147.4 93.0 147.4 93.0 147.4 Z M 89.9 152.1 C 89.8 151.9 89.8 151.9 89.9 152.1 C 89.9 152.1 89.9 152.1 89.9 152.1 Z M 88.4 154.6 C 88.2 154.4 88.2 154.4 88.4 154.6 C 88.4 154.6 88.4 154.6 88.4 154.6 Z M 160.4 147.8 C 160.5 148.0 160.5 148.0 160.4 147.8 C 160.4 147.8 160.4 147.8 160.4 147.8 Z M 162.1 155.5 C 162.2 155.5 162.2 155.5 162.1 155.5 C 162.1 155.5 162.1 155.5 162.1 155.5 Z M 154.2 155.8 C 154.2 155.9 154.2 155.9 154.2 155.8 C 154.2 155.8 154.2 155.8 154.2 155.8 Z M 162.2 143.2 C 162.3 143.3 162.3 143.3 162.2 143.2 C 162.2 143.2 162.2 143.2 162.2 143.2 Z M 131.8 149.7 C 131.9 149.8 131.9 149.8 131.8 149.7 C 131.8 149.7 131.8 149.7 131.8 149.7 Z M 129.2 146.6 C 129.3 146.7 129.3 146.7 129.2 146.6 C 129.2 146.6 129.2 146.6 129.2 146.6 Z M 136.3 142.5 C 136.4 142.5 136.4 142.5 136.3 142.5 C 136.3 142.5 136.3 142.5 136.3 142.5 Z M 127.1 143.9 C 127.2 144.0 127.2 144.0 127.1 143.9 C 127.1 143.9 127.1 143.9 127.1 143.9 Z M 182.2 144.6 C 182.3 144.5 182.3 144.5 182.2 144.6 C 182.2 144.6 182.2 144.6 182.2 144.6 Z M 182.3 150.5 C 182.4 150.3 182.4 150.3 182.3 150.5 C 182.3 150.5 182.3 150.5 182.3 150.5 Z M 130.6 153.9 C 129.2 155.2 128.0 152.3 130.6 153.9 M 142.1 153.2 C 142.1 153.1 142.1 153.1 142.1 153.2 C 142.1 153.2 142.1 153.2 142.1 153.2 Z M 111.5 153.7 C 110.2 151.4 116.8 154.9 111.5 153.7 C 111.5 153.7 111.5 153.7 111.5 153.7 Z M 118.0 143.9 C 117.9 143.9 117.9 143.9 118.0 143.9 C 118.0 143.9 118.0 143.9 118.0 143.9 Z M 114.9 144.9 C 114.7 144.7 114.7 144.7 114.9 144.9 C 114.9 144.9 114.9 144.9 114.9 144.9 Z M 98.2 151.2 C 97.9 151.0 97.9 151.0 98.2 151.2 M 143.4 155.3 C 141.7 154.2 142.0 154.4 143.4 155.3 M 107.7 153.6 C 107.9 153.6 107.9 153.6 107.7 153.6 C 107.7 153.6 107.7 153.6 107.7 153.6 Z M 94.5 152.5 C 94.7 152.5 94.7 152.5 94.5 152.5 C 94.5 152.5 94.5 152.5 94.5 152.5 Z M 151.5 153.7 C 151.4 150.9 153.0 151.5 151.5 153.7 M 174.2 152.8 C 174.2 152.6 174.2 152.6 174.2 152.8 C 174.2 152.8 174.2 152.8 174.2 152.8 Z M 174.2 152.8 " fill="#FEFFFE"></path></g></svg>