<?xml version="1.0" encoding="UTF-8" standalone="no"?><svg xmlns="http://www.w3.org/2000/svg" xmlns:xlink="http://www.w3.org/1999/xlink" clip-rule="evenodd" stroke-miterlimit="10" viewBox="0 0 31 30"><desc>SVG generated by Keynote</desc><defs></defs><g transform="matrix(1.00, 0.00, -0.00, -1.00, 0.0, 30.0)"><path d="M 18.0 15.5 C 18.1 15.6 17.6 16.1 17.6 16.3 M 18.0 15.5 C 16.7 16.0 16.2 16.8 15.4 17.9 C 14.8 19.0 16.3 17.9 16.7 18.1 C 16.2 19.9 15.5 19.7 14.6 19.2 C 15.0 20.0 12.9 21.3 14.3 21.5 C 15.6 18.9 13.5 23.6 15.4 21.5 C 15.7 21.3 15.6 22.1 15.5 22.4 C 16.4 21.8 16.2 23.5 17.3 22.2 C 18.1 22.3 17.6 22.5 18.7 21.7 C 19.0 21.3 18.7 21.4 18.5 21.4 C 17.7 21.0 19.6 20.3 19.4 19.4 C 21.1 18.8 20.0 17.9 19.1 18.5 C 19.6 17.8 21.5 17.0 20.9 16.3 C 21.8 15.9 22.3 14.0 20.9 15.2 C 19.9 16.0 19.9 15.2 19.6 15.1 C 19.2 15.4 19.1 16.4 18.7 16.6 C 18.7 16.3 18.8 15.0 18.2 16.4 C 17.9 16.0 17.3 16.6 18.0 15.5 C 18.0 15.5 18.0 15.5 18.0 15.5 Z M 14.9 19.8 C 14.6 19.7 15.1 19.4 14.9 19.8 C 14.9 19.8 14.9 19.8 14.9 19.8 Z M 21.2 16.9 C 20.9 16.9 21.6 16.4 21.2 16.9 C 21.2 16.9 21.2 16.9 21.2 16.9 Z M 18.6 21.1 C 18.3 21.0 18.9 20.6 18.6 21.1 C 18.6 21.1 18.6 21.1 18.6 21.1 Z M 15.7 18.7 C 16.4 18.1 15.9 19.4 15.5 19.4 C 15.6 19.3 15.4 18.8 15.7 18.7 C 15.7 18.7 15.7 18.7 15.7 18.7 Z M 17.7 18.9 C 17.6 18.8 17.7 18.5 18.1 18.6 C 18.0 18.8 17.8 19.0 17.7 18.9 C 17.7 18.9 17.7 18.9 17.7 18.9 Z M 14.4 22.3 C 14.4 22.1 14.5 21.8 14.8 22.0 C 14.7 22.2 14.5 22.4 14.4 22.3 C 14.4 22.3 14.4 22.3 14.4 22.3 Z M 17.0 18.0 C 17.2 17.8 17.5 17.8 17.5 18.0 C 17.3 18.1 16.9 18.6 17.0 18.0 C 17.0 18.0 17.0 18.0 17.0 18.0 Z M 16.4 16.9 C 16.9 16.3 16.8 17.5 16.7 17.5 C 16.3 17.6 16.0 17.2 16.4 16.9 C 16.4 16.9 16.4 16.9 16.4 16.9 Z M 17.7 17.7 C 18.2 17.2 17.8 17.9 17.7 17.7 C 17.7 17.7 17.7 17.7 17.7 17.7 Z M 16.8 22.7 C 17.3 22.2 16.9 23.1 16.8 22.7 C 16.8 22.7 16.8 22.7 16.8 22.7 Z M 19.5 19.8 C 20.0 19.2 19.6 20.1 19.5 19.8 C 19.5 19.8 19.5 19.8 19.5 19.8 Z M 15.7 20.2 C 15.2 21.0 14.8 20.0 15.7 20.2 C 15.7 20.2 15.7 20.2 15.7 20.2 Z M 17.0 15.6 C 16.6 16.4 16.0 15.8 17.0 15.6 C 17.0 15.6 17.0 15.6 17.0 15.6 Z M 16.3 21.1 C 16.9 21.8 16.4 18.7 15.7 20.0 C 14.9 20.7 13.8 18.5 15.1 18.9 C 14.9 18.2 15.0 18.2 14.3 18.0 C 15.1 17.8 14.8 16.5 14.1 16.0 C 13.2 15.6 14.5 16.9 13.3 16.1 C 12.1 14.2 12.5 16.1 11.1 15.3 C 11.0 15.2 11.5 15.3 11.1 15.0 C 10.2 14.9 10.2 16.0 9.2 15.4 C 9.5 15.8 9.4 17.4 9.8 16.7 C 10.5 16.5 9.8 18.6 11.0 18.4 C 10.7 19.0 11.8 19.4 11.4 20.1 C 11.5 20.5 12.1 20.4 12.3 20.3 C 12.8 20.1 11.2 21.1 12.6 21.5 C 12.3 21.6 13.4 23.4 13.1 21.9 C 13.3 22.3 14.1 24.4 14.5 22.9 C 14.3 21.4 16.2 23.8 15.5 22.2 C 15.0 21.1 14.7 20.9 15.7 21.5 C 15.7 21.8 16.5 23.0 16.4 21.7 C 16.1 21.6 16.0 21.1 16.3 21.1 C 16.3 21.1 16.3 21.1 16.3 21.1 Z M 14.9 21.9 C 14.5 21.3 15.3 21.7 14.9 21.9 C 14.9 21.9 14.9 21.9 14.9 21.9 Z M 11.1 20.0 C 10.6 19.2 11.5 19.9 11.1 20.0 C 11.1 20.0 11.1 20.0 11.1 20.0 Z M 15.6 19.2 C 15.1 19.0 16.3 18.7 15.6 19.2 C 15.6 19.2 15.6 19.2 15.6 19.2 Z M 12.7 21.1 C 12.7 21.0 12.9 21.2 13.1 21.3 C 13.0 21.3 12.7 21.1 12.7 21.1 C 12.7 21.1 12.7 21.1 12.7 21.1 Z M 15.1 18.2 C 14.1 17.4 16.0 18.0 15.1 18.2 C 15.1 18.2 15.1 18.2 15.1 18.2 Z M 13.0 16.5 C 11.6 16.3 12.7 15.5 13.0 16.5 C 13.0 16.5 13.0 16.5 13.0 16.5 Z M 10.9 18.0 C 11.3 18.2 10.9 18.2 10.9 18.0 C 10.9 18.0 10.9 18.0 10.9 18.0 Z M 13.4 23.0 C 13.7 23.1 13.4 23.2 13.4 23.0 C 13.4 23.0 13.4 23.0 13.4 23.0 Z M 10.3 16.6 C 10.8 16.7 10.3 17.0 10.3 16.6 C 10.3 16.6 10.3 16.6 10.3 16.6 Z M 15.1 19.1 C 16.4 19.7 14.3 20.5 15.1 19.1 C 15.1 19.1 15.1 19.1 15.1 19.1 Z M 15.9 20.5 C 16.4 21.0 15.3 20.6 15.3 20.3 C 15.4 20.3 15.8 20.5 15.9 20.5 C 15.9 20.5 15.9 20.5 15.9 20.5 Z M 14.5 18.3 C 15.3 18.8 14.5 18.8 14.5 18.3 C 14.5 18.3 14.5 18.3 14.5 18.3 Z M 15.8 19.6 C 15.8 19.9 15.5 19.4 15.8 19.6 C 15.8 19.6 15.8 19.6 15.8 19.6 Z M 15.0 17.2 C 15.0 17.4 14.7 16.9 15.0 17.2 C 15.0 17.2 15.0 17.2 15.0 17.2 Z M 16.7 21.0 C 16.8 21.3 16.5 20.9 16.7 21.0 C 16.7 21.0 16.7 21.0 16.7 21.0 Z M 14.4 17.4 C 13.9 17.3 13.4 18.2 13.5 16.7 C 13.7 16.5 14.6 17.0 14.4 17.4 C 14.4 17.4 14.4 17.4 14.4 17.4 Z M 18.9 13.8 C 16.1 16.4 19.0 15.6 19.5 15.7 C 20.0 16.0 20.6 15.6 21.4 15.0 C 23.5 14.0 20.2 14.2 22.2 13.5 C 25.1 12.1 20.6 13.0 23.3 12.0 C 23.9 12.0 24.1 10.9 23.8 11.0 C 25.5 10.0 23.6 9.9 23.4 10.0 C 23.9 9.4 26.5 8.5 25.3 7.9 C 25.1 7.2 28.0 5.5 26.0 6.7 C 28.5 4.9 25.7 6.5 26.7 5.4 C 28.2 4.3 25.0 6.3 27.7 4.2 C 26.1 4.8 28.7 4.0 28.7 2.2 C 28.2 3.0 28.0 2.7 28.1 2.3 C 27.7 2.3 27.5 2.3 28.2 2.0 C 30.5 1.2 26.3 2.3 25.5 1.8 C 24.6 2.2 21.9 3.2 23.3 2.1 C 22.8 0.8 21.1 2.9 21.3 1.8 C 21.1 1.4 20.3 2.4 20.0 2.3 C 19.9 1.5 19.2 2.0 17.3 1.8 C 13.0 1.4 16.4 3.9 15.2 4.1 C 15.0 4.5 16.0 7.2 15.9 5.2 C 16.0 5.7 18.9 3.7 16.8 5.9 C 17.9 5.0 16.4 6.8 18.1 5.7 C 16.5 4.2 20.9 5.1 18.3 5.9 C 18.3 6.3 19.0 6.2 18.8 5.8 C 19.7 4.4 19.3 6.5 20.4 4.8 C 21.2 5.2 22.7 3.7 21.8 4.8 C 19.7 6.6 22.3 4.3 22.4 4.8 C 24.0 4.9 19.7 7.0 22.5 5.6 C 22.5 5.6 22.5 5.6 22.5 5.7 C 20.7 7.5 23.9 5.0 24.0 5.3 C 26.0 4.2 21.6 7.7 21.9 6.7 C 22.7 6.7 20.9 7.4 21.8 7.3 C 24.0 5.8 19.4 9.2 21.0 8.2 C 21.1 8.6 22.4 7.8 22.3 8.0 C 21.8 8.9 20.3 9.4 21.5 9.0 C 22.0 8.9 19.6 10.3 20.1 10.2 C 20.6 9.2 21.4 10.3 20.5 10.7 C 20.7 10.2 18.1 11.8 19.3 11.7 C 23.1 9.9 17.9 12.7 19.0 12.8 C 21.1 11.8 18.1 14.8 17.7 14.0 C 17.9 14.0 18.9 13.7 18.9 13.8 M 20.2 10.3 C 20.8 9.5 20.2 11.0 20.2 10.3 M 19.7 10.6 C 20.5 10.0 18.8 11.5 19.4 10.6 C 19.5 10.6 19.6 10.6 19.7 10.6 M 21.2 7.6 C 21.8 7.3 20.6 8.2 21.2 7.6 M 22.9 6.2 C 23.8 5.3 22.7 6.8 22.9 6.2 M 17.3 5.3 C 19.2 3.2 17.4 6.5 17.3 5.3 M 21.2 5.8 C 22.4 5.5 19.8 6.7 21.2 5.8 M 22.2 5.2 C 23.2 4.9 21.6 5.7 22.2 5.2 M 18.6 5.3 C 18.6 5.3 18.6 5.3 18.6 5.3 C 18.6 5.3 18.6 5.3 18.6 5.3 Z M 16.6 5.3 C 16.6 5.3 16.6 5.3 16.6 5.3 C 16.6 5.3 16.6 5.3 16.6 5.3 Z M 20.8 5.1 C 20.9 5.6 19.6 5.3 20.8 5.1 C 20.8 5.1 20.8 5.1 20.8 5.1 Z M 19.1 2.0 C 19.2 2.0 19.2 2.0 19.1 2.0 C 19.1 2.0 19.1 2.0 19.1 2.0 Z M 21.3 10.4 C 21.3 10.4 21.3 10.4 21.3 10.4 C 21.3 10.4 21.3 10.4 21.3 10.4 Z M 18.9 13.2 C 19.3 13.1 18.4 13.7 18.9 13.2 C 18.9 13.2 18.9 13.2 18.9 13.2 Z M 20.8 14.8 C 20.8 14.8 20.8 14.8 20.8 14.8 C 20.8 14.8 20.8 14.8 20.8 14.8 Z M 22.4 10.8 C 22.4 10.8 22.4 10.8 22.4 10.8 C 22.4 10.8 22.4 10.8 22.4 10.8 Z M 20.4 11.1 C 18.5 12.1 21.3 10.0 20.4 11.1 C 20.4 11.1 20.4 11.1 20.4 11.1 Z M 25.5 2.1 C 24.8 2.7 24.8 2.0 25.5 2.1 C 25.5 2.1 25.5 2.1 25.5 2.1 Z M 23.7 5.7 C 23.4 5.8 24.2 5.2 23.7 5.7 C 23.7 5.7 23.7 5.7 23.7 5.7 Z M 20.5 8.3 C 20.2 8.5 20.9 7.9 20.5 8.3 C 20.5 8.3 20.5 8.3 20.5 8.3 Z M 18.5 13.3 C 18.4 13.3 18.4 13.3 18.5 13.3 C 18.5 13.3 18.5 13.3 18.5 13.3 Z M 20.1 12.1 C 18.3 13.1 21.4 10.9 20.1 12.1 C 20.1 12.1 20.1 12.1 20.1 12.1 Z M 20.0 13.1 C 20.7 12.6 19.3 13.9 20.0 13.1 M 22.5 11.8 C 22.4 11.2 24.7 12.0 22.5 11.8 C 22.5 11.8 22.5 11.8 22.5 11.8 Z M 25.6 7.1 C 25.7 7.0 25.7 7.0 25.6 7.1 C 25.6 7.1 25.6 7.1 25.6 7.1 Z M 20.6 9.6 C 20.9 9.0 20.7 9.9 20.6 9.6 C 20.6 9.6 20.6 9.6 20.6 9.6 Z M 17.4 15.1 C 17.7 14.5 17.5 15.4 17.4 15.1 C 17.4 15.1 17.4 15.1 17.4 15.1 Z M 25.3 5.3 C 25.6 4.2 25.8 5.6 25.3 5.3 C 25.3 5.3 25.3 5.3 25.3 5.3 Z M 21.7 4.7 C 21.7 4.6 21.7 4.6 21.7 4.7 C 21.7 4.7 21.7 4.7 21.7 4.7 Z M 20.5 5.1 C 20.5 5.1 20.5 5.1 20.5 5.1 C 20.5 5.1 20.5 5.1 20.5 5.1 Z M 18.0 4.0 C 17.9 4.0 17.9 4.0 18.0 4.0 C 18.0 4.0 18.0 4.0 18.0 4.0 Z M 19.3 5.7 C 19.3 5.6 19.3 5.6 19.3 5.7 C 19.3 5.7 19.3 5.7 19.3 5.7 Z M 17.6 5.4 C 17.6 5.3 17.6 5.3 17.6 5.4 C 17.6 5.4 17.6 5.4 17.6 5.4 Z M 17.4 6.3 C 17.4 6.3 17.4 6.3 17.4 6.3 C 17.4 6.3 17.4 6.3 17.4 6.3 Z M 28.1 1.5 C 28.1 1.5 28.1 1.5 28.1 1.5 C 28.1 1.5 28.1 1.5 28.1 1.5 Z M 18.6 12.3 C 18.7 12.3 18.7 12.3 18.6 12.3 C 18.6 12.3 18.6 12.3 18.6 12.3 Z M 18.0 4.9 C 18.0 4.9 18.0 4.9 18.0 4.9 C 18.0 4.9 18.0 4.9 18.0 4.9 Z M 24.6 4.1 C 26.1 3.1 23.1 5.3 24.4 4.1 C 24.5 4.1 24.4 4.2 24.6 4.1 M 26.0 2.5 C 26.1 2.5 26.1 2.5 26.0 2.5 C 26.0 2.5 26.0 2.5 26.0 2.5 Z M 27.9 3.4 C 28.0 3.4 28.0 3.4 27.9 3.4 C 27.9 3.4 27.9 3.4 27.9 3.4 Z M 19.5 5.9 C 19.0 6.4 19.3 5.4 19.6 5.8 M 18.6 2.4 C 18.6 2.9 17.9 1.9 18.8 2.3 M 17.4 15.7 C 17.9 15.8 16.9 16.2 17.4 15.7 M 28.4 3.7 C 29.0 3.4 27.7 4.4 28.4 3.7 M 27.2 3.4 C 26.2 4.0 28.2 2.3 27.2 3.5 M 21.1 2.4 C 21.0 2.4 21.0 2.4 21.1 2.4 C 21.1 2.4 21.1 2.4 21.1 2.4 Z M 21.2 8.6 C 21.3 8.5 21.3 8.5 21.2 8.6 C 21.2 8.6 21.2 8.6 21.2 8.6 Z M 24.5 4.8 C 23.1 5.8 25.6 3.7 24.5 4.8 M 22.7 8.6 C 21.0 9.7 23.6 7.4 22.7 8.6 M 16.8 2.1 C 17.5 3.2 16.1 1.5 16.8 2.1 M 19.6 4.8 C 19.2 5.9 19.5 4.2 19.6 4.8 M 22.2 7.7 C 21.3 8.1 23.1 6.8 22.2 7.7 M 18.1 14.3 C 17.6 14.9 17.9 13.7 18.1 14.3 M 23.5 2.4 C 23.5 2.3 23.5 2.3 23.5 2.4 C 23.5 2.4 23.5 2.4 23.5 2.4 Z M 24.6 10.8 C 24.7 10.8 24.7 10.8 24.6 10.8 C 24.6 10.8 24.6 10.8 24.6 10.8 Z M 15.5 5.7 C 15.4 5.6 15.4 5.6 15.5 5.7 C 15.5 5.7 15.5 5.7 15.5 5.7 Z M 20.4 4.3 C 20.5 4.3 20.5 4.3 20.4 4.3 C 20.4 4.3 20.4 4.3 20.4 4.3 Z M 16.5 5.8 C 16.5 5.7 16.5 5.7 16.5 5.8 C 16.5 5.8 16.5 5.8 16.5 5.8 Z M 23.8 3.5 C 23.8 3.5 23.8 3.5 23.8 3.5 C 23.8 3.5 23.8 3.5 23.8 3.5 Z M 20.5 6.3 C 20.5 6.2 20.5 6.2 20.5 6.3 C 20.5 6.3 20.5 6.3 20.5 6.3 Z M 23.1 5.8 C 23.1 5.8 23.1 5.8 23.1 5.8 C 23.1 5.8 23.1 5.8 23.1 5.8 Z M 20.0 6.0 C 18.8 6.2 21.7 5.1 20.0 6.0 C 20.0 6.0 20.0 6.0 20.0 6.0 Z M 26.3 3.3 C 26.3 3.3 26.3 3.3 26.3 3.3 C 26.3 3.3 26.3 3.3 26.3 3.3 Z M 23.2 5.3 C 23.2 5.3 23.2 5.3 23.2 5.3 C 21.5 5.9 24.7 4.0 23.4 5.1 C 23.4 5.2 23.3 5.2 23.2 5.3 M 20.4 9.2 C 19.9 9.3 21.4 8.7 20.4 9.2 M 24.9 8.5 C 24.9 8.5 24.9 8.5 24.9 8.5 C 24.9 8.5 24.9 8.5 24.9 8.5 Z M 24.7 8.2 C 24.8 8.1 24.8 8.1 24.7 8.2 C 24.7 8.2 24.7 8.2 24.7 8.2 Z M 19.7 10.2 C 19.7 10.1 19.7 10.1 19.7 10.2 C 19.7 10.2 19.7 10.2 19.7 10.2 Z M 26.2 7.5 C 26.3 7.4 26.3 7.4 26.2 7.5 C 26.2 7.5 26.2 7.5 26.2 7.5 Z M 21.0 6.2 C 21.0 6.2 21.0 6.2 21.0 6.2 C 21.0 6.2 21.0 6.2 21.0 6.2 Z M 15.9 6.2 C 15.9 6.2 15.9 6.2 15.9 6.2 C 15.9 6.2 15.9 6.2 15.9 6.2 Z M 21.8 13.5 C 21.9 13.4 21.9 13.4 21.8 13.5 C 21.8 13.5 21.8 13.5 21.8 13.5 Z M 21.9 5.1 C 21.9 5.0 21.9 5.0 21.9 5.1 C 21.9 5.1 21.9 5.1 21.9 5.1 Z M 24.0 9.7 C 24.1 9.7 24.1 9.7 24.0 9.7 C 24.0 9.7 24.0 9.7 24.0 9.7 Z M 22.0 5.3 C 22.0 5.3 22.0 5.3 22.0 5.3 C 22.0 5.3 22.0 5.3 22.0 5.3 Z M 24.1 2.1 C 24.1 2.1 24.1 2.1 24.1 2.1 C 24.1 2.1 24.1 2.1 24.1 2.1 Z M 22.3 1.5 C 22.3 1.5 22.3 1.5 22.3 1.5 C 22.3 1.5 22.3 1.5 22.3 1.5 Z M 22.1 4.0 C 22.1 4.0 22.1 4.0 22.1 4.0 C 22.1 4.0 22.1 4.0 22.1 4.0 Z M 22.1 10.8 C 19.4 14.0 22.7 8.8 22.1 10.8 M 21.8 3.8 C 23.7 4.0 19.2 4.9 21.8 3.8 C 21.3 4.1 21.7 3.8 21.8 3.8 M 14.9 6.1 C 15.6 5.1 15.6 4.1 15.2 3.1 C 14.6 2.6 14.8 4.6 14.6 2.9 C 15.9 2.6 13.6 0.3 14.1 2.5 C 12.5 2.8 13.5 1.1 12.6 2.0 C 10.8 2.2 11.4 1.5 10.0 1.7 C 10.0 2.9 8.6 1.1 9.1 2.2 C 8.9 1.0 7.9 2.6 7.3 2.0 C 8.0 1.3 2.1 2.0 6.1 2.4 C 5.5 3.0 4.4 1.9 3.6 1.8 C 3.9 2.2 2.8 1.9 1.8 1.8 C 1.8 2.1 2.0 2.5 2.6 3.1 C 2.8 3.1 2.7 2.8 3.1 2.9 C 3.7 3.2 3.3 3.6 3.3 3.5 C 4.0 4.2 6.1 6.5 3.0 3.6 C 2.0 3.0 4.3 5.4 3.4 4.9 C 4.3 6.6 5.5 6.2 4.5 6.3 C 5.1 7.5 5.6 8.3 5.8 8.4 C 6.0 9.1 5.1 8.9 6.4 9.9 C 5.4 10.8 10.3 11.9 7.2 11.4 C 8.2 12.1 6.2 11.9 8.2 12.4 C 7.0 11.6 8.0 14.6 8.8 13.5 C 9.4 13.9 8.0 15.6 9.8 15.4 C 11.5 16.2 12.8 16.1 13.5 15.1 C 12.5 15.1 14.1 14.2 12.6 14.6 C 12.5 15.6 10.9 12.6 11.9 13.4 C 14.4 14.1 9.6 11.6 11.1 11.6 C 10.4 11.7 8.5 9.1 10.9 10.6 C 10.9 10.3 9.9 9.8 10.8 9.8 C 11.3 11.0 8.4 8.3 9.7 9.0 C 10.6 9.6 10.2 8.0 9.1 7.5 C 6.5 6.7 9.5 7.4 8.1 6.3 C 6.8 4.8 10.8 8.0 8.1 5.9 C 8.2 5.9 8.2 5.7 8.1 5.6 C 8.7 5.7 9.2 5.8 9.1 6.0 C 8.4 5.8 6.8 3.9 9.3 5.6 C 9.3 6.5 11.5 6.1 10.5 5.6 C 6.8 4.7 12.3 4.5 11.0 5.4 C 12.7 6.4 11.0 5.8 11.9 5.4 C 11.3 4.9 12.2 4.4 12.5 5.4 C 13.7 7.0 11.7 3.3 13.7 5.5 C 14.1 6.4 15.2 4.8 14.7 5.8 C 14.7 5.9 14.9 6.1 14.9 6.1 M 14.5 5.9 C 14.6 5.6 14.8 6.4 14.5 5.9 M 14.6 5.6 C 14.6 5.6 14.6 5.6 14.6 5.6 C 14.6 5.6 14.6 5.6 14.6 5.6 Z M 12.1 5.4 C 12.1 5.4 12.1 5.4 12.1 5.4 C 12.1 5.4 12.1 5.4 12.1 5.4 Z M 5.5 1.4 C 5.6 1.4 5.6 1.4 5.5 1.4 C 5.5 1.4 5.5 1.4 5.5 1.4 Z M 10.3 5.3 C 10.3 5.3 10.3 5.3 10.3 5.3 C 10.3 5.3 10.3 5.3 10.3 5.3 Z M 12.8 5.1 C 12.9 5.1 12.9 5.1 12.8 5.1 C 12.8 5.1 12.8 5.1 12.8 5.1 Z M 11.1 5.8 C 10.3 5.2 12.0 6.3 11.1 5.9 C 11.1 5.9 11.2 5.9 11.1 5.8 M 9.5 6.1 C 9.4 6.0 9.4 6.0 9.5 6.1 M 4.3 7.3 C 4.2 7.2 4.2 7.2 4.3 7.3 M 11.4 10.6 C 11.3 10.6 11.3 10.6 11.4 10.6 M 8.8 7.1 C 9.3 7.8 8.4 7.0 8.8 7.1 M 11.8 12.1 C 11.9 11.5 12.7 13.1 11.8 12.1 M 12.7 13.1 C 12.7 13.1 12.7 13.1 12.7 13.1 M 10.4 9.2 C 10.4 9.2 10.4 9.2 10.4 9.2 C 10.4 9.2 10.4 9.2 10.4 9.2 Z M 9.0 7.0 C 9.1 6.4 10.4 8.3 9.0 7.0 M 12.2 5.9 C 12.1 6.2 11.6 5.2 12.2 5.9 M 12.9 5.6 C 12.9 5.6 12.9 5.6 12.9 5.6 C 12.9 5.6 12.9 5.6 12.9 5.6 Z M 11.2 10.8 C 11.1 10.8 11.1 10.8 11.2 10.8 C 11.2 10.8 11.2 10.8 11.2 10.8 Z M 11.8 11.8 C 11.8 11.8 11.8 11.8 11.8 11.8 C 11.8 11.8 11.8 11.8 11.8 11.8 Z M 7.0 12.0 C 7.0 12.0 7.0 12.0 7.0 12.0 C 7.0 12.0 7.0 12.0 7.0 12.0 Z M 10.9 3.8 C 11.9 4.1 11.2 5.2 10.5 4.1 C 10.0 3.7 10.9 3.9 10.9 3.8 M 6.5 5.1 C 4.2 3.9 9.5 6.4 6.5 5.1 M 11.5 12.9 C 9.6 13.0 12.7 12.5 11.5 12.9 M 12.6 14.3 C 12.4 14.6 11.0 11.7 12.7 13.9 C 13.2 14.2 12.8 14.2 12.6 14.3 M 8.3 5.4 C 6.9 4.5 9.8 5.7 8.3 5.4 M 6.0 7.2 C 7.0 8.0 8.2 9.2 6.6 8.3 C 4.9 7.5 5.0 6.4 6.0 7.2 M 14.1 5.1 C 14.1 6.4 13.9 4.0 14.1 5.1 M 11.4 5.0 C 11.4 5.0 11.4 5.0 11.4 5.0 C 11.4 5.0 11.4 5.0 11.4 5.0 Z M 10.5 5.2 C 10.3 5.1 10.3 5.1 10.5 5.2 M 14.1 6.3 C 14.0 6.2 14.0 6.2 14.1 6.3 M 8.0 8.1 C 7.9 8.1 7.9 8.1 8.0 8.1 M 8.1 6.6 C 6.7 6.6 7.4 5.8 8.1 6.6 M 4.9 2.6 C 3.5 2.0 5.8 2.6 4.9 2.6 M 9.8 8.6 C 8.3 8.5 7.5 6.7 9.8 8.6 M 8.1 6.2 C 8.1 6.2 8.1 6.2 8.1 6.2 C 8.1 6.2 8.1 6.2 8.1 6.2 Z M 5.9 7.4 C 5.9 7.4 5.9 7.4 5.9 7.4 C 5.9 7.4 5.9 7.4 5.9 7.4 Z M 6.2 7.9 C 6.2 7.8 6.2 7.8 6.2 7.9 C 6.2 7.9 6.2 7.9 6.2 7.9 Z M 10.5 9.6 C 10.4 9.5 10.4 9.5 10.5 9.6 C 10.5 9.6 10.5 9.6 10.5 9.6 Z M 11.1 2.2 C 9.8 2.1 11.9 2.0 11.1 2.2 C 11.1 2.2 11.1 2.2 11.1 2.2 Z M 10.3 5.8 C 7.9 4.9 10.1 4.9 10.3 5.8 C 10.3 5.8 10.3 5.8 10.3 5.8 Z M 6.7 4.2 C 6.6 4.2 6.6 4.2 6.7 4.2 C 6.7 4.2 6.7 4.2 6.7 4.2 Z M 10.7 8.8 C 10.6 8.7 10.6 8.7 10.7 8.8 C 10.7 8.8 10.7 8.8 10.7 8.8 Z M 10.4 2.0 C 10.3 2.0 10.3 2.0 10.4 2.0 C 10.4 2.0 10.4 2.0 10.4 2.0 Z M 10.6 11.2 C 10.5 11.2 10.5 11.2 10.6 11.2 C 10.6 11.2 10.6 11.2 10.6 11.2 Z M 4.4 4.9 C 5.3 5.6 3.8 4.7 4.4 4.9 C 4.4 4.9 4.4 4.9 4.4 4.9 Z M 5.1 6.2 C 5.1 6.3 5.1 6.3 5.1 6.2 C 5.1 6.2 5.1 6.2 5.1 6.2 Z M 13.0 13.4 C 13.0 13.4 13.0 13.4 13.0 13.4 C 13.0 13.4 13.0 13.4 13.0 13.4 Z M 5.2 9.0 C 5.3 9.1 5.3 9.1 5.2 9.0 C 5.2 9.0 5.2 9.0 5.2 9.0 Z M 7.8 10.9 C 7.8 10.9 7.8 10.9 7.8 10.9 C 7.8 10.9 7.8 10.9 7.8 10.9 Z M 9.9 9.2 C 10.8 10.4 9.0 8.6 9.9 9.2 C 9.9 9.2 9.9 9.2 9.9 9.2 Z M 10.1 14.2 C 10.0 14.2 10.0 14.2 10.1 14.2 C 10.1 14.2 10.1 14.2 10.1 14.2 Z M 12.4 15.1 C 12.4 15.1 12.4 15.1 12.4 15.1 C 12.4 15.1 12.4 15.1 12.4 15.1 Z M 13.7 15.5 C 13.6 15.5 13.6 15.5 13.7 15.5 C 13.7 15.5 13.7 15.5 13.7 15.5 Z M 8.7 3.4 C 8.7 3.4 8.7 3.4 8.7 3.4 C 8.7 3.4 8.7 3.4 8.7 3.4 Z M 11.8 6.1 C 11.8 6.1 11.8 6.1 11.8 6.1 C 11.8 6.1 11.8 6.1 11.8 6.1 Z M 10.8 6.3 C 10.8 6.3 10.8 6.3 10.8 6.3 C 10.8 6.3 10.8 6.3 10.8 6.3 Z M 7.4 1.7 C 7.5 1.8 7.5 1.8 7.4 1.7 C 7.4 1.7 7.4 1.7 7.4 1.7 Z M 6.9 6.5 C 6.9 6.5 6.9 6.5 6.9 6.5 C 6.9 6.5 6.9 6.5 6.9 6.5 Z M 5.5 6.2 C 5.5 6.2 5.5 6.2 5.5 6.2 C 5.5 6.2 5.5 6.2 5.5 6.2 Z M 2.3 3.4 C 2.3 3.4 2.3 3.4 2.3 3.4 C 2.3 3.4 2.3 3.4 2.3 3.4 Z M 4.3 6.0 C 4.3 6.0 4.3 6.0 4.3 6.0 C 4.3 6.0 4.3 6.0 4.3 6.0 Z M 13.8 2.2 C 13.8 2.2 13.8 2.2 13.8 2.2 C 13.8 2.2 13.8 2.2 13.8 2.2 Z M 14.4 4.3 C 14.4 4.3 14.4 4.3 14.4 4.3 C 14.4 4.3 14.4 4.3 14.4 4.3 Z M 9.3 7.9 C 10.2 8.5 8.7 7.9 9.3 7.9 M 7.8 5.6 C 7.7 5.5 7.7 5.5 7.8 5.6 C 7.8 5.6 7.8 5.6 7.8 5.6 Z M 11.1 11.3 C 10.1 11.1 11.2 10.5 11.1 11.3 C 11.1 11.3 11.1 11.3 11.1 11.3 Z M 5.4 8.1 C 5.4 8.1 5.4 8.1 5.4 8.1 C 5.4 8.1 5.4 8.1 5.4 8.1 Z M 6.3 9.0 C 6.2 9.0 6.2 9.0 6.3 9.0 C 6.3 9.0 6.3 9.0 6.3 9.0 Z M 11.2 13.4 C 11.1 13.5 11.1 13.5 11.2 13.4 M 8.9 6.1 C 8.9 6.1 8.9 6.0 8.9 6.0 C 8.0 5.7 8.1 5.8 8.9 6.0 C 8.9 6.0 8.9 6.1 8.9 6.1 M 11.4 11.9 C 11.3 11.9 11.3 11.9 11.4 11.9 C 11.4 11.9 11.4 11.9 11.4 11.9 Z M 12.2 14.2 C 12.1 14.2 12.1 14.2 12.2 14.2 C 12.2 14.2 12.2 14.2 12.2 14.2 Z M 9.4 5.5 C 7.9 4.5 8.6 4.7 9.4 5.5 M 13.1 5.2 C 13.0 5.1 13.0 5.1 13.1 5.2 C 13.1 5.2 13.1 5.2 13.1 5.2 Z M 13.1 5.2 " fill="#FEFFFE"></path></g></svg>