<?xml version="1.0" encoding="UTF-8" standalone="no"?><svg xmlns="http://www.w3.org/2000/svg" xmlns:xlink="http://www.w3.org/1999/xlink" clip-rule="evenodd" stroke-miterlimit="10" viewBox="0 0 28 30"><desc>SVG generated by Keynote</desc><defs></defs><g transform="matrix(1.00, 0.00, -0.00, -1.00, 0.0, 30.0)"><path d="M 12.1 24.7 C 12.0 24.8 11.3 24.6 11.2 24.7 M 12.1 24.7 C 11.2 23.7 10.2 23.7 8.8 23.5 C 7.4 23.5 9.1 24.4 9.0 24.7 C 7.1 25.1 7.0 24.4 7.1 23.4 C 6.5 24.1 4.3 22.9 4.8 24.2 C 7.9 24.2 2.5 24.5 5.3 25.2 C 5.6 25.4 4.8 25.7 4.5 25.7 C 5.5 26.2 3.9 26.8 5.5 27.2 C 5.7 28.0 5.4 27.6 6.5 28.2 C 7.0 28.3 6.7 28.0 6.7 27.9 C 6.7 27.0 8.0 28.4 8.8 27.8 C 9.9 29.0 10.3 27.6 9.5 27.1 C 10.3 27.2 11.6 28.5 12.1 27.6 C 12.7 28.2 14.7 27.8 13.1 27.1 C 12.0 26.6 12.8 26.2 12.9 26.0 C 12.5 25.7 11.4 26.1 11.2 25.8 C 11.5 25.7 12.8 25.2 11.2 25.3 C 11.6 24.8 10.7 24.6 12.1 24.7 C 12.1 24.7 12.1 24.7 12.1 24.7 Z M 6.7 24.0 C 6.6 23.7 7.2 24.0 6.7 24.0 C 6.7 24.0 6.7 24.0 6.7 24.0 Z M 11.6 28.2 C 11.5 27.9 12.2 28.2 11.6 28.2 C 11.6 28.2 11.6 28.2 11.6 28.2 Z M 7.0 27.9 C 6.9 27.6 7.6 27.9 7.0 27.9 C 7.0 27.9 7.0 27.9 7.0 27.9 Z M 8.1 24.2 C 9.0 24.5 7.5 24.6 7.3 24.3 C 7.5 24.4 7.8 23.9 8.1 24.2 C 8.1 24.2 8.1 24.2 8.1 24.2 Z M 8.6 26.0 C 8.7 25.9 9.0 25.9 9.0 26.2 C 8.8 26.3 8.6 26.1 8.6 26.0 C 8.6 26.0 8.6 26.0 8.6 26.0 Z M 4.2 24.7 C 4.2 24.6 4.6 24.6 4.5 24.9 C 4.3 25.0 4.1 24.8 4.2 24.7 C 4.2 24.7 4.2 24.7 4.2 24.7 Z M 9.2 25.0 C 9.5 25.1 9.6 25.4 9.4 25.4 C 9.2 25.3 8.6 25.2 9.2 25.0 C 9.2 25.0 9.2 25.0 9.2 25.0 Z M 10.2 24.0 C 10.9 24.1 9.7 24.6 9.7 24.5 C 9.4 24.2 9.8 23.7 10.2 24.0 C 10.2 24.0 10.2 24.0 10.2 24.0 Z M 9.8 25.5 C 10.4 25.6 9.6 25.7 9.8 25.5 C 9.8 25.5 9.8 25.5 9.8 25.5 Z M 4.8 27.1 C 5.5 27.2 4.6 27.3 4.8 27.1 C 4.8 27.1 4.8 27.1 4.8 27.1 Z M 8.5 28.0 C 9.2 28.2 8.2 28.3 8.5 28.0 C 8.5 28.0 8.5 28.0 8.5 28.0 Z M 6.7 24.8 C 5.6 24.8 6.4 24.0 6.7 24.8 C 6.7 24.8 6.7 24.8 6.7 24.8 Z M 11.7 23.9 C 10.8 23.9 11.3 23.1 11.7 23.9 C 11.7 23.9 11.7 23.9 11.7 23.9 Z M 5.7 24.6 C 5.8 25.5 6.9 22.2 5.6 23.3 C 4.6 23.6 4.7 21.1 5.7 21.9 C 5.8 21.2 5.8 21.2 5.3 20.7 C 6.1 20.8 6.5 19.3 6.1 18.6 C 5.4 18.0 6.0 19.6 5.3 18.4 C 5.1 16.2 4.6 18.3 3.7 17.2 C 3.7 17.1 4.2 17.2 3.9 16.9 C 3.1 16.5 2.6 17.6 2.0 16.8 C 2.1 17.2 1.3 18.7 1.9 18.2 C 2.7 18.2 1.0 19.9 2.3 20.1 C 1.7 20.5 2.5 21.3 1.8 21.7 C 1.7 22.2 2.3 22.2 2.5 22.2 C 3.0 22.2 1.2 22.5 2.2 23.4 C 1.9 23.4 2.0 25.4 2.5 24.0 C 2.4 24.4 2.1 26.6 3.2 25.4 C 3.7 24.0 4.3 27.0 4.4 25.3 C 4.5 24.0 4.3 23.7 4.9 24.7 C 4.8 25.0 4.9 26.5 5.4 25.2 C 5.3 25.0 5.4 24.4 5.7 24.6 C 5.7 24.6 5.7 24.6 5.7 24.6 Z M 4.0 24.7 C 4.0 24.0 4.5 24.7 4.0 24.7 C 4.0 24.7 4.0 24.7 4.0 24.7 Z M 1.6 21.6 C 1.5 20.7 2.0 21.6 1.6 21.6 C 1.6 21.6 1.6 21.6 1.6 21.6 Z M 5.9 22.4 C 5.6 22.0 6.8 22.1 5.9 22.4 C 5.9 22.4 5.9 22.4 5.9 22.4 Z M 2.5 23.1 C 2.5 23.0 2.6 23.2 2.7 23.4 C 2.6 23.4 2.5 23.1 2.5 23.1 C 2.5 23.1 2.5 23.1 2.5 23.1 Z M 5.9 21.3 C 5.4 20.1 6.8 21.3 5.9 21.3 C 5.9 21.3 5.9 21.3 5.9 21.3 Z M 4.9 18.8 C 3.7 18.3 5.1 17.8 4.9 18.8 C 4.9 18.8 4.9 18.8 4.9 18.8 Z M 2.4 19.7 C 2.6 20.0 2.2 19.9 2.4 19.7 C 2.4 19.7 2.4 19.7 2.4 19.7 Z M 2.2 25.0 C 2.4 25.2 2.0 25.2 2.2 25.0 C 2.2 25.0 2.2 25.0 2.2 25.0 Z M 2.5 18.2 C 2.9 18.4 2.2 18.6 2.5 18.2 C 2.5 18.2 2.5 18.2 2.5 18.2 Z M 5.5 22.2 C 6.4 23.2 4.2 23.2 5.5 22.2 C 5.5 22.2 5.5 22.2 5.5 22.2 Z M 5.6 23.9 C 5.8 24.6 5.0 23.7 5.2 23.4 C 5.2 23.5 5.5 23.8 5.6 23.9 C 5.6 23.9 5.6 23.9 5.6 23.9 Z M 5.4 21.1 C 5.8 21.9 5.1 21.7 5.4 21.1 C 5.4 21.1 5.4 21.1 5.4 21.1 Z M 5.9 22.9 C 5.8 23.2 5.8 22.6 5.9 22.9 C 5.9 22.9 5.9 22.9 5.9 22.9 Z M 6.3 20.1 C 6.2 20.4 6.2 19.8 6.3 20.1 C 6.3 20.1 6.3 20.1 6.3 20.1 Z M 6.0 24.7 C 5.9 25.0 5.9 24.5 6.0 24.7 C 6.0 24.7 6.0 24.7 6.0 24.7 Z M 5.7 20.2 C 5.3 20.0 4.4 20.7 5.2 19.2 C 5.5 19.0 6.1 19.8 5.7 20.2 C 5.7 20.2 5.7 20.2 5.7 20.2 Z M 15.2 24.7 C 10.4 23.4 12.3 25.7 12.2 26.1 C 11.8 26.7 12.6 27.1 13.8 27.5 C 15.5 28.9 14.6 26.0 16.1 27.4 C 18.6 29.3 16.6 25.8 18.4 27.8 C 18.5 28.3 20.2 27.9 20.0 27.7 C 21.7 28.7 21.7 27.0 21.6 26.8 C 22.5 27.1 24.0 28.9 24.9 27.5 C 25.2 27.4 25.6 27.4 25.9 27.5 C 26.2 26.9 26.9 27.3 26.0 26.8 C 27.4 26.7 25.6 25.6 26.1 24.8 C 26.8 24.4 24.9 23.8 26.4 23.4 C 25.2 22.0 27.1 24.6 26.3 19.8 C 26.2 21.8 25.4 17.7 26.2 18.6 C 27.0 20.4 25.9 16.6 26.4 14.8 C 25.9 14.3 24.9 12.3 26.0 12.4 C 27.3 10.0 25.2 10.7 26.3 9.5 C 26.8 8.6 25.8 8.8 25.9 8.3 C 26.7 7.2 26.1 6.9 26.4 4.3 C 26.5 2.7 26.4 2.1 26.2 2.0 C 25.5 2.2 25.2 2.7 25.0 3.1 C 24.8 3.5 24.6 3.8 24.1 4.0 C 24.0 4.1 23.8 4.1 23.7 4.1 C 23.5 4.2 23.3 4.6 23.2 4.9 C 22.4 6.2 21.5 7.8 23.0 6.0 C 22.4 6.8 24.5 8.7 22.3 8.4 C 23.2 9.1 21.4 8.8 22.4 10.4 C 24.0 5.9 23.0 14.1 22.3 11.0 C 21.8 11.7 21.9 12.9 22.3 11.9 C 23.7 11.0 21.7 14.2 23.4 12.6 C 22.9 14.8 24.4 14.2 23.4 14.8 C 21.5 15.3 23.8 14.7 23.3 15.8 C 23.3 18.4 21.2 16.1 22.6 17.7 C 21.6 19.6 23.4 18.6 23.6 19.5 C 24.9 20.4 22.6 21.5 22.5 19.6 C 23.1 21.0 21.8 19.5 22.7 21.0 C 23.8 20.8 21.4 21.4 22.3 21.8 C 22.6 23.0 23.4 23.1 23.4 23.4 C 23.4 25.0 22.2 23.4 23.1 24.5 C 23.2 24.6 23.2 24.7 23.2 24.8 C 22.8 24.8 21.2 23.7 21.3 24.0 C 23.0 24.1 21.1 25.3 20.4 24.6 C 21.3 24.5 18.6 23.1 18.7 24.0 C 21.7 26.6 16.9 23.3 16.8 24.3 C 18.5 25.7 13.4 24.4 14.6 23.8 C 14.6 23.9 15.2 24.7 15.2 24.7 M 21.0 24.2 C 22.5 24.3 19.9 24.5 21.0 24.2 M 20.6 23.8 C 21.7 24.3 19.1 23.5 20.6 23.7 C 20.6 23.7 20.5 23.8 20.6 23.8 M 22.2 20.5 C 22.6 20.9 22.0 20.9 22.2 20.5 M 23.1 20.0 C 23.5 19.3 23.2 21.2 23.1 20.0 M 22.8 8.5 C 25.0 8.5 21.6 10.4 22.8 8.5 M 22.4 16.0 C 22.7 17.4 21.5 15.4 22.4 16.0 M 22.9 16.5 C 23.3 17.2 22.4 16.5 22.9 16.5 M 22.8 10.7 C 22.8 10.6 22.8 10.6 22.8 10.7 C 22.8 10.7 22.8 10.7 22.8 10.7 Z M 22.9 7.3 C 22.8 7.3 22.8 7.3 22.9 7.3 C 22.9 7.3 22.9 7.3 22.9 7.3 Z M 23.0 13.9 C 22.5 15.0 22.8 12.2 23.0 13.9 C 23.0 13.9 23.0 13.9 23.0 13.9 Z M 26.1 6.9 C 26.2 6.9 26.2 6.9 26.1 6.9 C 26.1 6.9 26.1 6.9 26.1 6.9 Z M 20.8 25.2 C 20.8 25.2 20.8 25.2 20.8 25.2 C 20.8 25.2 20.8 25.2 20.8 25.2 Z M 16.1 24.4 C 16.3 24.7 15.2 24.2 16.1 24.4 C 16.1 24.4 16.1 24.4 16.1 24.4 Z M 13.9 26.8 C 13.9 26.9 13.9 26.9 13.9 26.8 C 13.9 26.8 13.9 26.8 13.9 26.8 Z M 20.3 26.3 C 20.3 26.4 20.3 26.4 20.3 26.3 C 20.3 26.3 20.3 26.3 20.3 26.3 Z M 19.6 24.7 C 18.0 23.6 21.5 25.1 19.6 24.7 C 19.6 24.7 19.6 24.7 19.6 24.7 Z M 26.0 15.3 C 25.5 15.3 26.2 14.2 26.0 15.3 C 26.0 15.3 26.0 15.3 26.0 15.3 Z M 23.6 20.1 C 23.3 19.8 23.7 19.5 23.6 20.1 C 23.6 20.1 23.6 20.1 23.6 20.1 Z M 22.0 21.2 C 21.7 20.9 22.1 20.8 22.0 21.2 C 22.0 21.2 22.0 21.2 22.0 21.2 Z M 15.9 24.1 C 16.0 24.0 16.0 24.0 15.9 24.1 C 15.9 24.1 15.9 24.1 15.9 24.1 Z M 18.0 25.0 C 16.2 23.9 20.1 25.6 18.0 25.0 C 18.0 25.0 18.0 25.0 18.0 25.0 Z M 16.4 25.3 C 17.3 25.7 14.9 25.1 16.4 25.3 M 18.6 27.0 C 19.7 26.5 18.6 28.9 18.6 27.0 C 18.6 27.0 18.6 27.0 18.6 27.0 Z M 25.8 27.0 C 25.9 26.9 25.9 26.9 25.8 27.0 C 25.8 27.0 25.8 27.0 25.8 27.0 Z M 22.3 24.2 C 22.4 24.2 22.6 24.2 22.6 24.2 C 22.6 24.2 22.7 24.2 22.7 24.3 C 22.5 24.3 22.0 24.4 22.3 24.2 C 22.3 24.2 22.3 24.2 22.3 24.2 Z M 12.8 23.9 C 13.9 24.0 12.2 24.2 12.8 23.9 C 12.8 23.9 12.8 23.9 12.8 23.9 Z M 24.7 21.8 C 24.6 19.7 25.3 23.5 24.7 21.8 C 24.7 21.8 24.7 21.8 24.7 21.8 Z M 23.5 14.5 C 23.5 14.4 23.5 14.4 23.5 14.5 C 23.5 14.5 23.5 14.5 23.5 14.5 Z M 23.0 13.4 C 23.0 13.3 23.0 13.3 23.0 13.4 C 23.0 13.4 23.0 13.4 23.0 13.4 Z M 24.1 7.8 C 24.2 7.7 24.2 7.7 24.1 7.8 C 24.1 7.8 24.1 7.8 24.1 7.8 Z M 22.5 12.4 C 22.5 12.4 22.5 12.4 22.5 12.4 C 22.5 12.4 22.5 12.4 22.5 12.4 Z M 22.8 9.1 C 22.8 9.0 22.8 9.0 22.8 9.1 C 22.8 9.1 22.8 9.1 22.8 9.1 Z M 21.8 10.1 C 21.8 10.0 21.8 10.0 21.8 10.1 C 21.8 10.1 21.8 10.1 21.8 10.1 Z M 26.6 17.6 C 26.7 17.5 26.7 17.5 26.6 17.6 C 26.6 17.6 26.6 17.6 26.6 17.6 Z M 17.5 23.7 C 17.7 23.8 17.7 23.8 17.5 23.7 C 17.5 23.7 17.5 23.7 17.5 23.7 Z M 23.2 9.1 C 23.2 9.0 23.2 9.0 23.2 9.1 C 23.2 9.1 23.2 9.1 23.2 9.1 Z M 24.1 17.7 C 25.0 17.9 22.8 18.0 24.0 17.4 C 24.1 17.5 23.9 17.7 24.1 17.7 M 25.6 16.7 C 25.7 16.8 25.7 16.8 25.6 16.7 C 25.6 16.7 25.6 16.7 25.6 16.7 Z M 26.2 21.7 C 26.2 21.8 26.2 21.8 26.2 21.7 C 26.2 21.7 26.2 21.7 26.2 21.7 Z M 22.3 13.0 C 21.8 13.3 22.7 12.1 22.3 13.2 M 25.8 6.6 C 25.3 7.2 26.2 5.2 25.8 6.8 M 11.7 24.3 C 11.7 24.7 10.9 24.1 11.7 24.3 M 26.7 23.1 C 27.1 23.6 26.5 23.9 26.7 23.1 M 25.5 20.2 C 25.0 20.2 25.9 19.2 25.5 20.4 M 25.8 9.9 C 25.8 9.9 25.8 9.9 25.8 9.9 C 25.8 9.9 25.8 9.9 25.8 9.9 Z M 22.7 23.0 C 22.7 23.0 22.7 23.0 22.7 23.0 C 22.7 23.0 22.7 23.0 22.7 23.0 Z M 23.8 19.1 C 23.1 19.4 24.3 18.4 23.8 19.1 M 23.9 25.5 C 23.2 25.2 23.3 25.2 23.7 25.2 C 24.2 25.4 25.0 25.7 24.0 25.6 C 23.9 25.6 23.9 25.5 23.9 25.5 M 26.0 4.0 C 24.9 6.1 26.6 2.5 26.0 4.0 M 23.3 11.4 C 22.2 12.7 23.9 10.4 23.3 11.4 M 23.2 22.5 C 22.6 22.1 23.5 21.7 23.2 22.5 M 14.1 24.2 C 13.1 24.1 15.2 23.8 14.1 24.2 M 25.8 13.1 C 25.8 13.0 25.8 13.0 25.8 13.1 C 25.8 13.1 25.8 13.1 25.8 13.1 Z M 20.3 28.3 C 20.4 28.4 20.4 28.4 20.3 28.3 C 20.3 28.3 20.3 28.3 20.3 28.3 Z M 22.5 5.8 C 22.5 5.7 22.5 5.7 22.5 5.8 C 22.5 5.8 22.5 5.8 22.5 5.8 Z M 23.8 11.9 C 23.9 11.9 23.9 11.9 23.8 11.9 C 23.8 11.9 23.8 11.9 23.8 11.9 Z M 22.3 7.7 C 22.4 7.6 22.4 7.6 22.3 7.7 C 22.3 7.7 22.3 7.7 22.3 7.7 Z M 24.6 15.4 C 24.7 15.3 24.7 15.3 24.6 15.4 C 24.6 15.4 24.6 15.4 24.6 15.4 Z M 21.9 15.8 C 21.9 15.8 21.9 15.8 21.9 15.8 C 21.9 15.8 21.9 15.8 21.9 15.8 Z M 23.1 19.4 C 23.1 19.4 23.1 19.4 23.1 19.4 C 23.1 19.4 23.1 19.4 23.1 19.4 Z M 22.1 14.4 C 21.9 12.6 23.0 15.4 22.1 14.4 C 22.1 14.4 22.1 14.4 22.1 14.4 Z M 24.9 18.5 C 24.9 18.5 24.9 18.5 24.9 18.5 C 24.9 18.5 24.9 18.5 24.9 18.5 Z M 22.9 18.2 C 22.1 16.7 24.2 17.8 22.9 18.2 M 22.3 23.2 C 21.8 22.5 22.9 23.6 22.3 23.2 M 23.9 27.5 C 24.0 27.5 24.0 27.5 23.9 27.5 C 23.9 27.5 23.9 27.5 23.9 27.5 Z M 24.4 27.2 C 24.5 27.2 24.5 27.2 24.4 27.2 C 24.4 27.2 24.4 27.2 24.4 27.2 Z M 21.4 23.7 C 21.4 23.7 21.4 23.7 21.4 23.7 C 21.4 23.7 21.4 23.7 21.4 23.7 Z M 25.5 28.2 C 25.6 28.2 25.6 28.2 25.5 28.2 C 25.5 28.2 25.5 28.2 25.5 28.2 Z M 22.0 16.5 C 22.0 16.5 22.0 16.5 22.0 16.5 C 22.0 16.5 22.0 16.5 22.0 16.5 Z M 21.9 7.1 C 21.9 7.1 21.9 7.1 21.9 7.1 C 21.9 7.1 21.9 7.1 21.9 7.1 Z M 16.1 27.1 C 16.2 27.1 16.2 27.1 16.1 27.1 C 16.1 27.1 16.1 27.1 16.1 27.1 Z M 23.0 15.6 C 23.1 15.6 23.1 15.6 23.0 15.6 C 23.0 15.6 23.0 15.6 23.0 15.6 Z M 22.0 27.3 C 22.0 27.3 22.0 27.3 22.0 27.3 C 22.0 27.3 22.0 27.3 22.0 27.3 Z M 22.8 16.3 C 22.8 16.2 22.8 16.2 22.8 16.3 C 22.8 16.3 22.8 16.3 22.8 16.3 Z M 26.0 13.5 C 26.0 13.4 26.0 13.4 26.0 13.5 C 26.0 13.5 26.0 13.5 26.0 13.5 Z M 26.6 10.3 C 26.6 10.3 26.6 10.3 26.6 10.3 C 26.6 10.3 26.6 10.3 26.6 10.3 Z M 24.1 13.9 C 24.1 13.8 24.1 13.8 24.1 13.9 C 24.1 13.9 24.1 13.9 24.1 13.9 Z M 20.1 26.1 C 14.9 25.2 23.5 25.7 20.1 26.1 M 24.3 13.1 C 24.1 16.3 23.3 10.9 24.3 13.1 C 24.0 12.8 24.3 13.0 24.3 13.1 M 21.2 6.1 C 22.0 5.7 22.7 5.3 23.2 4.9 C 23.8 4.5 24.2 4.1 24.5 3.7 C 24.6 3.5 24.7 3.3 24.8 3.1 C 24.5 2.6 22.7 4.6 24.2 2.9 C 26.2 2.6 25.7 0.3 23.8 2.5 C 21.4 2.8 24.6 1.1 22.5 2.0 C 19.8 2.2 21.5 1.5 19.4 1.7 C 17.8 2.9 18.4 1.1 17.5 2.2 C 19.0 1.0 15.4 2.6 15.4 2.0 C 17.4 1.3 8.6 2.0 13.3 2.4 C 11.6 2.9 11.8 1.9 11.1 1.8 C 10.5 2.5 7.6 1.2 6.8 1.9 C 7.1 2.1 7.7 2.1 8.0 2.4 C 8.6 2.8 6.6 2.3 6.8 2.3 C 6.3 2.6 4.0 3.3 6.1 2.0 C 5.9 1.4 3.7 2.3 3.3 1.8 C 2.5 1.7 2.2 1.8 2.1 1.9 C 2.3 2.8 2.8 2.4 2.2 2.6 C 2.1 4.4 2.1 5.8 2.3 5.9 C 2.2 6.9 1.5 6.6 2.1 8.2 C 0.8 9.6 4.7 11.5 2.1 10.6 C 2.7 11.7 1.0 11.3 2.6 12.1 C 1.9 10.9 1.4 15.4 2.5 13.9 C 2.9 14.6 0.9 16.7 2.5 16.9 C 3.7 18.4 4.9 18.6 6.0 17.1 C 5.1 16.9 6.9 15.5 5.4 16.2 C 4.8 17.7 4.8 12.7 5.4 14.1 C 7.3 15.4 4.2 10.9 5.5 10.8 C 4.8 11.1 4.4 6.8 5.8 9.1 C 5.9 8.5 5.3 7.8 6.1 7.7 C 6.0 9.9 4.6 5.4 5.5 6.4 C 5.7 6.8 5.9 6.4 6.0 5.9 C 6.9 6.0 7.7 6.0 7.2 5.5 C 4.2 3.6 8.3 5.9 8.3 5.2 C 9.9 4.7 9.2 6.8 9.5 5.4 C 9.9 5.6 12.2 5.6 10.9 6.0 C 10.3 5.8 11.7 3.9 12.4 5.6 C 10.4 6.5 15.1 6.1 14.3 5.6 C 10.2 4.7 18.8 4.5 15.4 5.4 C 16.8 6.4 14.9 5.8 17.0 5.4 C 16.9 4.9 18.9 4.4 18.0 5.4 C 17.5 7.0 19.6 3.3 19.8 5.5 C 19.4 6.4 23.0 4.8 21.1 5.8 C 21.0 5.9 21.2 6.1 21.2 6.1 M 20.7 5.9 C 21.2 5.6 20.7 6.4 20.7 5.9 M 21.3 5.6 C 21.3 5.6 21.3 5.6 21.3 5.6 C 21.3 5.6 21.3 5.6 21.3 5.6 Z M 17.3 5.3 C 17.4 5.4 17.4 5.4 17.3 5.3 C 17.3 5.3 17.3 5.3 17.3 5.3 Z M 14.1 1.4 C 14.1 1.4 14.1 1.4 14.1 1.4 C 14.1 1.4 14.1 1.4 14.1 1.4 Z M 14.6 5.3 C 14.6 5.3 14.6 5.3 14.6 5.3 C 14.6 5.3 14.6 5.3 14.6 5.3 Z M 18.9 5.1 C 19.0 5.1 19.0 5.1 18.9 5.1 C 18.9 5.1 18.9 5.1 18.9 5.1 Z M 14.8 5.8 C 14.6 5.2 15.6 6.3 14.8 5.9 C 14.7 5.9 14.9 5.9 14.8 5.8 M 11.5 6.1 C 11.5 6.0 11.5 6.0 11.5 6.1 M 1.6 4.2 C 1.5 4.1 1.5 4.1 1.6 4.2 M 6.2 9.0 C 6.2 9.0 6.2 9.0 6.2 9.0 M 7.8 5.5 C 6.8 5.5 7.3 5.2 7.8 5.5 M 5.9 11.8 C 6.3 10.6 6.2 13.6 5.9 11.8 M 6.3 13.5 C 6.2 13.6 6.2 13.6 6.3 13.5 M 6.0 6.7 C 6.0 6.6 6.0 6.6 6.0 6.7 C 6.0 6.7 6.0 6.7 6.0 6.7 Z M 8.4 5.7 C 10.0 6.0 7.5 6.3 8.4 5.7 M 16.7 5.9 C 15.9 6.2 16.9 5.2 16.7 5.9 M 18.4 5.6 C 18.4 5.6 18.4 5.6 18.4 5.6 C 18.4 5.6 18.4 5.6 18.4 5.6 Z M 5.9 9.5 C 5.9 9.4 5.9 9.4 5.9 9.5 C 5.9 9.5 5.9 9.5 5.9 9.5 Z M 6.0 11.2 C 6.0 11.2 6.0 11.2 6.0 11.2 C 6.0 11.2 6.0 11.2 6.0 11.2 Z M 1.7 11.5 C 1.7 11.4 1.7 11.4 1.7 11.5 C 1.7 11.5 1.7 11.5 1.7 11.5 Z M 17.9 3.8 C 19.0 4.1 16.2 5.2 16.7 4.1 C 16.7 3.7 17.7 3.9 17.9 3.8 M 8.7 4.4 C 7.5 2.9 10.7 6.4 8.7 4.4 M 5.3 13.1 C 3.5 13.3 6.5 12.4 5.3 13.1 M 5.6 15.6 C 5.2 16.1 5.4 11.1 5.8 14.9 C 6.1 15.4 5.8 15.5 5.6 15.6 M 11.2 5.4 C 10.6 4.5 13.0 5.7 11.2 5.4 M 3.0 3.9 C 3.5 5.0 4.0 7.1 3.1 5.6 C 2.0 4.5 2.6 2.7 3.0 3.9 M 21.0 5.1 C 19.2 6.4 21.9 4.0 21.0 5.1 M 16.8 5.0 C 16.7 5.0 16.7 5.0 16.8 5.0 C 16.8 5.0 16.8 5.0 16.8 5.0 Z M 15.0 5.2 C 15.0 5.1 15.0 5.1 15.0 5.2 M 19.5 6.3 C 19.5 6.1 19.5 6.1 19.5 6.3 M 4.4 5.2 C 4.3 5.2 4.3 5.2 4.4 5.2 M 7.9 5.1 C 5.1 3.8 8.6 4.9 7.9 5.1 M 11.3 2.6 C 10.4 2.0 12.6 2.6 11.3 2.6 M 5.7 5.7 C 5.2 5.7 4.9 5.1 4.8 4.7 C 4.8 4.3 5.1 4.1 5.7 5.6 C 5.7 5.6 5.7 5.7 5.7 5.7 M 8.8 5.3 C 8.7 5.3 8.7 5.3 8.8 5.3 C 8.8 5.3 8.8 5.3 8.8 5.3 Z M 2.9 4.3 C 2.9 4.3 2.9 4.3 2.9 4.3 C 2.9 4.3 2.9 4.3 2.9 4.3 Z M 2.9 5.0 C 2.9 4.9 2.9 4.9 2.9 5.0 C 2.9 5.0 2.9 5.0 2.9 5.0 Z M 5.9 7.4 C 5.9 7.3 5.9 7.3 5.9 7.4 C 5.9 7.4 5.9 7.4 5.9 7.4 Z M 20.2 2.2 C 18.7 2.1 21.6 2.0 20.2 2.2 C 20.2 2.2 20.2 2.2 20.2 2.2 Z M 13.6 5.8 C 11.5 4.8 14.9 4.9 13.6 5.8 C 13.6 5.8 13.6 5.8 13.6 5.8 Z M 11.1 4.2 C 11.0 4.1 11.0 4.1 11.1 4.2 C 11.1 4.2 11.1 4.2 11.1 4.2 Z M 7.1 6.4 C 7.0 6.3 7.0 6.3 7.1 6.4 C 7.1 6.4 7.1 6.4 7.1 6.4 Z M 19.5 2.0 C 19.5 2.0 19.5 2.0 19.5 2.0 C 19.5 2.0 19.5 2.0 19.5 2.0 Z M 5.2 10.3 C 5.1 10.3 5.1 10.3 5.2 10.3 C 5.2 10.3 5.2 10.3 5.2 10.3 Z M 5.1 2.6 C 5.0 3.0 4.7 2.2 5.1 2.6 C 5.1 2.6 5.1 2.6 5.1 2.6 Z M 2.8 2.6 C 2.8 2.6 2.8 2.6 2.8 2.6 C 2.8 2.6 2.8 2.6 2.8 2.6 Z M 6.3 14.0 C 6.4 14.0 6.4 14.0 6.3 14.0 C 6.3 14.0 6.3 14.0 6.3 14.0 Z M 1.5 6.9 C 1.5 7.0 1.5 7.0 1.5 6.9 C 1.5 6.9 1.5 6.9 1.5 6.9 Z M 3.0 9.8 C 2.9 9.7 2.9 9.7 3.0 9.8 C 3.0 9.8 3.0 9.8 3.0 9.8 Z M 5.6 6.7 C 5.8 8.8 5.0 5.8 5.6 6.7 C 5.6 6.7 5.6 6.7 5.6 6.7 Z M 3.4 15.1 C 3.3 15.1 3.3 15.1 3.4 15.1 C 3.4 15.1 3.4 15.1 3.4 15.1 Z M 5.0 16.9 C 5.0 16.9 5.0 16.9 5.0 16.9 C 5.0 16.9 5.0 16.9 5.0 16.9 Z M 5.9 17.7 C 5.9 17.7 5.9 17.7 5.9 17.7 C 5.9 17.7 5.9 17.7 5.9 17.7 Z M 15.2 3.4 C 15.3 3.4 15.3 3.4 15.2 3.4 C 15.2 3.4 15.2 3.4 15.2 3.4 Z M 15.6 6.1 C 15.6 6.1 15.6 6.1 15.6 6.1 C 15.6 6.1 15.6 6.1 15.6 6.1 Z M 13.5 6.3 C 13.5 6.3 13.5 6.3 13.5 6.3 C 13.5 6.3 13.5 6.3 13.5 6.3 Z M 16.0 1.7 C 16.0 1.8 16.0 1.8 16.0 1.7 C 16.0 1.7 16.0 1.7 16.0 1.7 Z M 5.7 4.1 C 5.8 4.1 5.8 4.1 5.7 4.1 C 5.7 4.1 5.7 4.1 5.7 4.1 Z M 3.8 3.0 C 3.9 3.0 3.9 3.0 3.8 3.0 C 3.8 3.0 3.8 3.0 3.8 3.0 Z M 5.3 1.5 C 5.3 1.5 5.3 1.5 5.3 1.5 C 5.3 1.5 5.3 1.5 5.3 1.5 Z M 2.1 2.1 C 2.1 2.1 2.1 2.1 2.1 2.1 C 2.1 2.1 2.1 2.1 2.1 2.1 Z M 23.8 2.2 C 23.8 2.2 23.8 2.2 23.8 2.2 C 23.8 2.2 23.8 2.2 23.8 2.2 Z M 22.3 4.3 C 22.4 4.3 22.4 4.3 22.3 4.3 C 22.3 4.3 22.3 4.3 22.3 4.3 Z M 6.8 5.6 C 6.8 6.0 5.4 5.0 6.8 5.6 M 9.8 5.3 C 9.8 5.3 9.8 5.3 9.8 5.3 C 9.8 5.3 9.8 5.3 9.8 5.3 Z M 5.6 10.3 C 4.8 10.2 6.0 9.0 5.6 10.3 C 5.6 10.3 5.6 10.3 5.6 10.3 Z M 2.1 5.4 C 2.1 5.5 2.1 5.5 2.1 5.4 C 2.1 5.4 2.1 5.4 2.1 5.4 Z M 2.5 6.8 C 2.4 6.8 2.4 6.8 2.5 6.8 C 2.5 6.8 2.5 6.8 2.5 6.8 Z M 4.7 14.0 C 4.7 14.1 4.7 14.1 4.7 14.0 M 10.6 6.1 C 10.0 5.7 10.1 5.8 10.6 6.1 M 5.6 11.5 C 5.6 11.4 5.6 11.4 5.6 11.5 C 5.6 11.5 5.6 11.5 5.6 11.5 Z M 5.2 15.5 C 5.2 15.4 5.2 15.4 5.2 15.5 C 5.2 15.5 5.2 15.5 5.2 15.5 Z M 12.6 5.5 C 12.4 4.5 12.9 4.7 12.6 5.5 M 19.2 5.2 C 19.3 5.1 19.3 5.1 19.2 5.2 C 19.2 5.2 19.2 5.2 19.2 5.2 Z M 19.2 5.2 " fill="#FEFFFE"></path></g></svg>