<?xml version="1.0" encoding="UTF-8" standalone="no"?><svg xmlns="http://www.w3.org/2000/svg" xmlns:xlink="http://www.w3.org/1999/xlink" clip-rule="evenodd" stroke-miterlimit="10" viewBox="0 0 28 31"><desc>SVG generated by Keynote</desc><defs></defs><g transform="matrix(1.00, 0.00, -0.00, -1.00, 0.0, 31.0)"><path d="M 12.2 25.3 C 12.0 25.4 11.4 25.2 11.2 25.4 M 12.2 25.3 C 11.2 24.4 10.2 24.3 8.9 24.1 C 7.5 24.1 9.2 25.0 9.1 25.4 C 7.2 25.7 7.1 25.1 7.2 24.1 C 6.6 24.8 4.4 23.6 4.9 24.8 C 7.9 24.8 2.6 25.1 5.4 25.8 C 5.7 26.0 4.9 26.3 4.6 26.3 C 5.5 26.9 3.9 27.4 5.5 27.8 C 5.8 28.6 5.5 28.3 6.6 28.9 C 7.0 29.0 6.8 28.7 6.7 28.5 C 6.8 27.6 8.1 29.0 8.8 28.4 C 9.9 29.6 10.4 28.2 9.6 27.7 C 10.3 27.9 11.6 29.1 12.1 28.3 C 12.8 28.8 14.7 28.4 13.2 27.7 C 12.1 27.2 12.9 26.9 12.9 26.6 C 12.5 26.3 11.5 26.7 11.3 26.5 C 11.5 26.3 12.8 25.9 11.3 25.9 C 11.6 25.5 10.8 25.2 12.2 25.3 C 12.2 25.3 12.2 25.3 12.2 25.3 Z M 6.8 24.6 C 6.7 24.3 7.2 24.6 6.8 24.6 C 6.8 24.6 6.8 24.6 6.8 24.6 Z M 11.7 28.9 C 11.6 28.5 12.3 28.9 11.7 28.9 C 11.7 28.9 11.7 28.9 11.7 28.9 Z M 7.0 28.5 C 7.0 28.2 7.6 28.5 7.0 28.5 C 7.0 28.5 7.0 28.5 7.0 28.5 Z M 8.1 24.8 C 9.0 25.1 7.5 25.3 7.4 25.0 C 7.5 25.0 7.9 24.6 8.1 24.8 C 8.1 24.8 8.1 24.8 8.1 24.8 Z M 8.7 26.7 C 8.7 26.5 9.1 26.5 9.1 26.8 C 8.9 26.9 8.6 26.8 8.7 26.7 C 8.7 26.7 8.7 26.7 8.7 26.7 Z M 4.2 25.4 C 4.3 25.2 4.6 25.2 4.6 25.5 C 4.4 25.6 4.2 25.5 4.2 25.4 C 4.2 25.4 4.2 25.4 4.2 25.4 Z M 9.3 25.7 C 9.5 25.7 9.7 26.0 9.4 26.0 C 9.3 25.9 8.7 25.8 9.3 25.7 C 9.3 25.7 9.3 25.7 9.3 25.7 Z M 10.3 24.6 C 11.0 24.8 9.8 25.2 9.7 25.1 C 9.5 24.9 9.8 24.4 10.3 24.6 C 10.3 24.6 10.3 24.6 10.3 24.6 Z M 9.8 26.1 C 10.5 26.3 9.6 26.3 9.8 26.1 C 9.8 26.1 9.8 26.1 9.8 26.1 Z M 4.9 27.7 C 5.5 27.9 4.6 27.9 4.9 27.7 C 4.9 27.7 4.9 27.7 4.9 27.7 Z M 8.5 28.7 C 9.2 28.8 8.3 28.9 8.5 28.7 C 8.5 28.7 8.5 28.7 8.5 28.7 Z M 6.7 25.5 C 5.7 25.4 6.5 24.6 6.7 25.5 C 6.7 25.5 6.7 25.5 6.7 25.5 Z M 11.8 24.5 C 10.8 24.5 11.3 23.7 11.8 24.5 C 11.8 24.5 11.8 24.5 11.8 24.5 Z M 5.7 25.2 C 5.9 26.1 6.9 22.8 5.7 23.9 C 4.7 24.2 4.8 21.7 5.7 22.5 C 5.8 21.8 5.9 21.8 5.4 21.3 C 6.2 21.4 6.5 19.9 6.1 19.2 C 5.5 18.6 6.1 20.3 5.4 19.1 C 5.2 16.9 4.7 19.0 3.8 17.8 C 3.8 17.7 4.2 17.8 4.0 17.5 C 3.2 17.1 2.7 18.3 2.1 17.4 C 2.2 17.8 1.3 19.4 2.0 18.8 C 2.8 18.8 1.1 20.6 2.3 20.7 C 1.8 21.2 2.5 21.9 1.9 22.4 C 1.7 22.8 2.4 22.9 2.5 22.8 C 3.1 22.9 1.2 23.2 2.2 24.0 C 1.9 24.0 2.1 26.0 2.5 24.6 C 2.4 25.0 2.2 27.2 3.3 26.1 C 3.8 24.6 4.4 27.6 4.5 25.9 C 4.6 24.6 4.3 24.4 4.9 25.3 C 4.9 25.6 5.0 27.1 5.5 25.9 C 5.3 25.6 5.4 25.0 5.7 25.2 C 5.7 25.2 5.7 25.2 5.7 25.2 Z M 4.1 25.4 C 4.1 24.6 4.5 25.3 4.1 25.4 C 4.1 25.4 4.1 25.4 4.1 25.4 Z M 1.6 22.2 C 1.6 21.3 2.0 22.2 1.6 22.2 C 1.6 22.2 1.6 22.2 1.6 22.2 Z M 6.0 23.1 C 5.7 22.7 6.8 22.8 6.0 23.1 C 6.0 23.1 6.0 23.1 6.0 23.1 Z M 2.5 23.7 C 2.5 23.7 2.7 23.9 2.7 24.0 C 2.7 24.0 2.5 23.8 2.5 23.7 C 2.5 23.7 2.5 23.7 2.5 23.7 Z M 6.0 21.9 C 5.5 20.7 6.9 21.9 6.0 21.9 C 6.0 21.9 6.0 21.9 6.0 21.9 Z M 4.9 19.4 C 3.8 18.9 5.2 18.4 4.9 19.4 C 4.9 19.4 4.9 19.4 4.9 19.4 Z M 2.4 20.3 C 2.7 20.6 2.3 20.5 2.4 20.3 C 2.4 20.3 2.4 20.3 2.4 20.3 Z M 2.2 25.6 C 2.5 25.8 2.1 25.8 2.2 25.6 C 2.2 25.6 2.2 25.6 2.2 25.6 Z M 2.5 18.8 C 2.9 19.1 2.3 19.2 2.5 18.8 C 2.5 18.8 2.5 18.8 2.5 18.8 Z M 5.5 22.8 C 6.5 23.9 4.2 23.8 5.5 22.8 C 5.5 22.8 5.5 22.8 5.5 22.8 Z M 5.6 24.5 C 5.8 25.2 5.1 24.4 5.2 24.1 C 5.3 24.1 5.6 24.4 5.6 24.5 C 5.6 24.5 5.6 24.5 5.6 24.5 Z M 5.4 21.7 C 5.9 22.5 5.2 22.3 5.4 21.7 C 5.4 21.7 5.4 21.7 5.4 21.7 Z M 5.9 23.5 C 5.8 23.8 5.8 23.2 5.9 23.5 C 5.9 23.5 5.9 23.5 5.9 23.5 Z M 6.4 20.7 C 6.3 21.0 6.3 20.4 6.4 20.7 C 6.4 20.7 6.4 20.7 6.4 20.7 Z M 6.1 25.4 C 6.0 25.7 6.0 25.1 6.1 25.4 C 6.1 25.4 6.1 25.4 6.1 25.4 Z M 5.8 20.8 C 5.4 20.6 4.5 21.3 5.2 19.8 C 5.5 19.6 6.1 20.5 5.8 20.8 C 5.8 20.8 5.8 20.8 5.8 20.8 Z M 15.2 25.3 C 10.4 24.1 12.3 26.3 12.3 26.7 C 11.9 27.3 12.7 27.7 13.8 28.1 C 15.6 29.5 14.7 26.7 16.1 28.1 C 18.6 30.0 16.6 26.4 18.5 28.4 C 18.6 28.9 20.3 28.5 20.0 28.4 C 21.7 29.3 21.8 27.6 21.6 27.5 C 22.5 27.7 24.1 29.5 25.0 28.2 C 25.3 28.1 25.6 28.1 26.0 28.2 C 26.3 27.6 27.0 27.9 26.1 27.4 C 27.5 27.3 25.7 26.2 26.1 25.4 C 26.9 25.1 25.0 24.5 26.4 24.0 C 25.3 22.6 27.2 25.3 26.4 20.5 C 26.3 22.5 25.5 18.3 26.2 19.3 C 27.0 21.0 25.9 17.3 26.4 15.4 C 26.0 14.9 25.0 12.9 26.1 13.0 C 27.4 10.6 25.3 11.3 26.4 10.1 C 26.8 9.2 25.8 9.4 25.9 9.0 C 26.7 7.8 26.2 7.5 26.4 4.9 C 26.5 3.4 26.4 2.7 26.2 2.6 C 25.5 2.9 25.3 3.3 25.1 3.8 C 24.8 4.1 24.6 4.5 24.2 4.7 C 24.0 4.7 23.9 4.7 23.7 4.8 C 23.6 4.9 23.4 5.2 23.3 5.5 C 22.5 6.8 21.6 8.5 23.0 6.6 C 22.5 7.4 24.5 9.3 22.3 9.0 C 23.2 9.7 21.4 9.5 22.5 11.1 C 24.0 6.5 23.1 14.7 22.3 11.7 C 21.9 12.4 22.0 13.5 22.4 12.5 C 23.8 11.7 21.7 14.8 23.4 13.2 C 23.0 15.4 24.5 14.8 23.4 15.5 C 21.6 15.9 23.9 15.3 23.4 16.5 C 23.3 19.0 21.2 16.7 22.6 18.4 C 21.7 20.2 23.4 19.2 23.7 20.2 C 24.9 21.0 22.7 22.1 22.5 20.3 C 23.2 21.6 21.9 20.1 22.7 21.6 C 23.9 21.5 21.5 22.0 22.4 22.4 C 22.7 23.6 23.4 23.7 23.4 24.1 C 23.5 25.6 22.3 24.0 23.2 25.2 C 23.2 25.3 23.2 25.4 23.2 25.4 C 22.9 25.4 21.2 24.3 21.4 24.6 C 23.1 24.7 21.2 25.9 20.4 25.3 C 21.3 25.2 18.6 23.7 18.8 24.6 C 21.7 27.2 16.9 24.0 16.9 24.9 C 18.6 26.3 13.5 25.1 14.7 24.4 C 14.6 24.5 15.3 25.3 15.2 25.3 M 21.1 24.9 C 22.5 25.0 19.9 25.1 21.1 24.9 M 20.7 24.5 C 21.7 25.0 19.2 24.1 20.6 24.3 C 20.6 24.3 20.6 24.5 20.7 24.5 M 22.3 21.1 C 22.7 21.5 22.0 21.6 22.3 21.1 M 23.2 20.6 C 23.5 20.0 23.2 21.8 23.2 20.6 M 22.9 9.2 C 25.0 9.2 21.7 11.0 22.9 9.2 M 22.4 16.6 C 22.7 18.0 21.5 16.1 22.4 16.6 M 23.0 17.1 C 23.3 17.8 22.5 17.1 23.0 17.1 M 22.9 11.3 C 22.9 11.2 22.9 11.2 22.9 11.3 C 22.9 11.3 22.9 11.3 22.9 11.3 Z M 22.9 7.9 C 22.9 7.9 22.9 7.9 22.9 7.9 C 22.9 7.9 22.9 7.9 22.9 7.9 Z M 23.1 14.6 C 22.6 15.6 22.9 12.9 23.1 14.6 C 23.1 14.6 23.1 14.6 23.1 14.6 Z M 26.2 7.5 C 26.2 7.6 26.2 7.6 26.2 7.5 C 26.2 7.5 26.2 7.5 26.2 7.5 Z M 20.9 25.8 C 20.9 25.9 20.9 25.9 20.9 25.8 C 20.9 25.8 20.9 25.8 20.9 25.8 Z M 16.1 25.0 C 16.4 25.3 15.2 24.8 16.1 25.0 C 16.1 25.0 16.1 25.0 16.1 25.0 Z M 14.0 27.5 C 13.9 27.5 13.9 27.5 14.0 27.5 C 14.0 27.5 14.0 27.5 14.0 27.5 Z M 20.4 27.0 C 20.3 27.0 20.3 27.0 20.4 27.0 C 20.4 27.0 20.4 27.0 20.4 27.0 Z M 19.7 25.4 C 18.1 24.2 21.6 25.7 19.7 25.4 C 19.7 25.4 19.7 25.4 19.7 25.4 Z M 26.1 16.0 C 25.5 15.9 26.2 14.8 26.1 16.0 C 26.1 16.0 26.1 16.0 26.1 16.0 Z M 23.6 20.7 C 23.4 20.4 23.7 20.2 23.6 20.7 C 23.6 20.7 23.6 20.7 23.6 20.7 Z M 22.0 21.8 C 21.8 21.5 22.2 21.4 22.0 21.8 C 22.0 21.8 22.0 21.8 22.0 21.8 Z M 16.0 24.7 C 16.0 24.6 16.0 24.6 16.0 24.7 C 16.0 24.7 16.0 24.7 16.0 24.7 Z M 18.1 25.6 C 16.3 24.5 20.2 26.2 18.1 25.6 C 18.1 25.6 18.1 25.6 18.1 25.6 Z M 16.5 25.9 C 17.3 26.3 15.0 25.7 16.5 25.9 M 18.7 27.6 C 19.7 27.1 18.6 29.6 18.7 27.6 C 18.7 27.6 18.7 27.6 18.7 27.6 Z M 25.9 27.6 C 25.9 27.6 25.9 27.6 25.9 27.6 C 25.9 27.6 25.9 27.6 25.9 27.6 Z M 22.3 24.8 C 22.5 24.8 22.6 24.8 22.7 24.8 C 22.7 24.8 22.7 24.8 22.7 24.9 C 22.6 25.0 22.1 25.0 22.3 24.8 C 22.3 24.8 22.3 24.8 22.3 24.8 Z M 12.8 24.6 C 13.9 24.6 12.3 24.8 12.8 24.6 C 12.8 24.6 12.8 24.6 12.8 24.6 Z M 24.8 22.5 C 24.6 20.4 25.4 24.1 24.8 22.5 C 24.8 22.5 24.8 22.5 24.8 22.5 Z M 23.5 15.1 C 23.5 15.1 23.5 15.1 23.5 15.1 C 23.5 15.1 23.5 15.1 23.5 15.1 Z M 23.1 14.0 C 23.1 14.0 23.1 14.0 23.1 14.0 C 23.1 14.0 23.1 14.0 23.1 14.0 Z M 24.2 8.4 C 24.2 8.3 24.2 8.3 24.2 8.4 C 24.2 8.4 24.2 8.4 24.2 8.4 Z M 22.5 13.1 C 22.6 13.0 22.6 13.0 22.5 13.1 C 22.5 13.1 22.5 13.1 22.5 13.1 Z M 22.8 9.7 C 22.9 9.6 22.9 9.6 22.8 9.7 C 22.8 9.7 22.8 9.7 22.8 9.7 Z M 21.9 10.7 C 21.9 10.6 21.9 10.6 21.9 10.7 C 21.9 10.7 21.9 10.7 21.9 10.7 Z M 26.7 18.3 C 26.7 18.2 26.7 18.2 26.7 18.3 C 26.7 18.3 26.7 18.3 26.7 18.3 Z M 17.6 24.3 C 17.8 24.4 17.8 24.4 17.6 24.3 C 17.6 24.3 17.6 24.3 17.6 24.3 Z M 23.3 9.7 C 23.3 9.7 23.3 9.7 23.3 9.7 C 23.3 9.7 23.3 9.7 23.3 9.7 Z M 24.1 18.3 C 25.1 18.5 22.9 18.7 24.1 18.1 C 24.1 18.1 24.0 18.3 24.1 18.3 M 25.7 17.3 C 25.7 17.4 25.7 17.4 25.7 17.3 C 25.7 17.3 25.7 17.3 25.7 17.3 Z M 26.3 22.4 C 26.3 22.4 26.3 22.4 26.3 22.4 C 26.3 22.4 26.3 22.4 26.3 22.4 Z M 22.3 13.7 C 21.8 13.9 22.8 12.7 22.4 13.8 M 25.8 7.3 C 25.3 7.8 26.3 5.8 25.9 7.4 M 11.8 24.9 C 11.8 25.3 11.0 24.7 11.8 24.9 M 26.8 23.8 C 27.2 24.2 26.5 24.6 26.8 23.8 M 25.6 20.9 C 25.0 20.8 26.0 19.8 25.6 21.0 M 25.8 10.6 C 25.8 10.5 25.8 10.5 25.8 10.6 C 25.8 10.6 25.8 10.6 25.8 10.6 Z M 22.8 23.7 C 22.8 23.6 22.8 23.6 22.8 23.7 C 22.8 23.7 22.8 23.7 22.8 23.7 Z M 23.9 19.7 C 23.2 20.1 24.3 19.0 23.9 19.7 M 24.0 26.2 C 23.2 25.8 23.4 25.8 23.7 25.9 C 24.2 26.0 25.1 26.3 24.0 26.2 C 24.0 26.2 24.0 26.2 24.0 26.2 M 26.1 4.6 C 25.0 6.7 26.7 3.1 26.1 4.6 M 23.4 12.1 C 22.3 13.4 24.0 11.1 23.4 12.1 M 23.2 23.1 C 22.7 22.8 23.5 22.3 23.2 23.1 M 14.2 24.8 C 13.1 24.7 15.2 24.4 14.2 24.8 M 25.8 13.7 C 25.9 13.7 25.9 13.7 25.8 13.7 C 25.8 13.7 25.8 13.7 25.8 13.7 Z M 20.4 29.0 C 20.5 29.0 20.5 29.0 20.4 29.0 C 20.4 29.0 20.4 29.0 20.4 29.0 Z M 22.5 6.4 C 22.6 6.3 22.6 6.3 22.5 6.4 C 22.5 6.4 22.5 6.4 22.5 6.4 Z M 23.9 12.6 C 23.9 12.5 23.9 12.5 23.9 12.6 C 23.9 12.6 23.9 12.6 23.9 12.6 Z M 22.4 8.4 C 22.5 8.3 22.5 8.3 22.4 8.4 C 22.4 8.4 22.4 8.4 22.4 8.4 Z M 24.7 16.0 C 24.7 16.0 24.7 16.0 24.7 16.0 C 24.7 16.0 24.7 16.0 24.7 16.0 Z M 21.9 16.4 C 22.0 16.4 22.0 16.4 21.9 16.4 C 21.9 16.4 21.9 16.4 21.9 16.4 Z M 23.1 20.0 C 23.1 20.0 23.1 20.0 23.1 20.0 C 23.1 20.0 23.1 20.0 23.1 20.0 Z M 22.2 15.0 C 22.0 13.2 23.1 16.0 22.2 15.0 C 22.2 15.0 22.2 15.0 22.2 15.0 Z M 24.9 19.1 C 24.9 19.1 24.9 19.1 24.9 19.1 C 24.9 19.1 24.9 19.1 24.9 19.1 Z M 23.0 18.8 C 22.2 17.3 24.3 18.5 23.0 18.8 M 22.3 23.9 C 21.9 23.1 23.0 24.3 22.3 23.9 M 24.0 28.1 C 24.0 28.1 24.0 28.1 24.0 28.1 C 24.0 28.1 24.0 28.1 24.0 28.1 Z M 24.5 27.8 C 24.6 27.8 24.6 27.8 24.5 27.8 C 24.5 27.8 24.5 27.8 24.5 27.8 Z M 21.4 24.3 C 21.5 24.3 21.5 24.3 21.4 24.3 C 21.4 24.3 21.4 24.3 21.4 24.3 Z M 25.5 28.9 C 25.6 28.9 25.6 28.9 25.5 28.9 C 25.5 28.9 25.5 28.9 25.5 28.9 Z M 22.0 17.1 C 22.0 17.1 22.0 17.1 22.0 17.1 C 22.0 17.1 22.0 17.1 22.0 17.1 Z M 22.0 7.8 C 22.0 7.7 22.0 7.7 22.0 7.8 C 22.0 7.8 22.0 7.8 22.0 7.8 Z M 16.1 27.7 C 16.2 27.8 16.2 27.8 16.1 27.7 C 16.1 27.7 16.1 27.7 16.1 27.7 Z M 23.1 16.2 C 23.1 16.2 23.1 16.2 23.1 16.2 C 23.1 16.2 23.1 16.2 23.1 16.2 Z M 22.0 27.9 C 22.1 28.0 22.1 28.0 22.0 27.9 C 22.0 27.9 22.0 27.9 22.0 27.9 Z M 22.9 16.9 C 22.9 16.9 22.9 16.9 22.9 16.9 C 22.9 16.9 22.9 16.9 22.9 16.9 Z M 26.1 14.1 C 26.1 14.1 26.1 14.1 26.1 14.1 C 26.1 14.1 26.1 14.1 26.1 14.1 Z M 26.7 11.0 C 26.7 10.9 26.7 10.9 26.7 11.0 C 26.7 11.0 26.7 11.0 26.7 11.0 Z M 24.2 14.5 C 24.2 14.5 24.2 14.5 24.2 14.5 C 24.2 14.5 24.2 14.5 24.2 14.5 Z M 20.2 26.8 C 14.9 25.8 23.5 26.3 20.2 26.8 M 24.4 13.7 C 24.2 16.9 23.3 11.5 24.4 13.7 C 24.1 13.4 24.4 13.7 24.4 13.7 M 21.3 6.8 C 22.1 6.3 22.8 5.9 23.3 5.5 C 23.9 5.1 24.2 4.7 24.5 4.3 C 24.7 4.1 24.7 3.9 24.8 3.7 C 24.6 3.2 22.8 5.2 24.3 3.5 C 26.2 3.2 25.7 0.9 23.9 3.2 C 21.4 3.5 24.7 1.7 22.5 2.6 C 19.9 2.8 21.6 2.2 19.5 2.3 C 17.9 3.5 18.5 1.7 17.6 2.9 C 19.0 1.6 15.5 3.2 15.5 2.7 C 17.5 1.9 8.7 2.6 13.4 3.0 C 11.7 3.6 11.8 2.6 11.1 2.4 C 10.5 3.1 7.6 1.8 6.8 2.5 C 7.1 2.7 7.8 2.8 8.0 3.0 C 8.6 3.5 6.7 2.9 6.9 2.9 C 6.3 3.2 4.1 4.0 6.1 2.7 C 5.9 2.1 3.7 2.9 3.3 2.4 C 2.6 2.4 2.2 2.5 2.1 2.6 C 2.4 3.4 2.9 3.1 2.2 3.2 C 2.2 5.1 2.2 6.4 2.4 6.5 C 2.2 7.6 1.5 7.3 2.2 8.8 C 0.9 10.2 4.7 12.1 2.1 11.3 C 2.8 12.3 1.1 11.9 2.7 12.8 C 1.9 11.5 1.4 16.1 2.6 14.6 C 3.0 15.3 0.9 17.4 2.6 17.6 C 3.7 19.0 4.9 19.2 6.0 17.7 C 5.1 17.5 7.0 16.2 5.4 16.8 C 4.9 18.3 4.9 13.3 5.4 14.7 C 7.3 16.0 4.3 11.5 5.6 11.5 C 4.9 11.8 4.5 7.4 5.9 9.8 C 6.0 9.1 5.3 8.4 6.2 8.3 C 6.0 10.5 4.7 6.1 5.5 7.0 C 5.8 7.4 6.0 7.1 6.1 6.5 C 6.9 6.7 7.8 6.6 7.2 6.2 C 4.3 4.2 8.3 6.6 8.4 5.8 C 10.0 5.4 9.2 7.5 9.5 6.0 C 10.0 6.3 12.3 6.3 11.0 6.7 C 10.4 6.5 11.8 4.5 12.4 6.2 C 10.4 7.1 15.2 6.7 14.4 6.2 C 10.2 5.3 18.9 5.2 15.5 6.1 C 16.8 7.0 14.9 6.4 17.1 6.0 C 16.9 5.5 18.9 5.0 18.0 6.1 C 17.6 7.6 19.7 4.0 19.9 6.1 C 19.4 7.0 23.1 5.4 21.2 6.5 C 21.1 6.6 21.2 6.8 21.3 6.8 M 20.7 6.6 C 21.3 6.2 20.8 7.0 20.7 6.6 M 21.3 6.2 C 21.3 6.3 21.3 6.3 21.3 6.2 C 21.3 6.2 21.3 6.2 21.3 6.2 Z M 17.4 6.0 C 17.4 6.0 17.4 6.0 17.4 6.0 C 17.4 6.0 17.4 6.0 17.4 6.0 Z M 14.1 2.0 C 14.2 2.1 14.2 2.1 14.1 2.0 C 14.1 2.0 14.1 2.0 14.1 2.0 Z M 14.7 5.9 C 14.7 5.9 14.7 5.9 14.7 5.9 C 14.7 5.9 14.7 5.9 14.7 5.9 Z M 19.0 5.7 C 19.0 5.7 19.0 5.7 19.0 5.7 C 19.0 5.7 19.0 5.7 19.0 5.7 Z M 14.9 6.5 C 14.7 5.9 15.7 6.9 14.8 6.6 C 14.8 6.5 15.0 6.5 14.9 6.5 M 11.6 6.7 C 11.5 6.6 11.5 6.6 11.6 6.7 M 1.6 4.8 C 1.5 4.8 1.5 4.8 1.6 4.8 M 6.3 9.6 C 6.2 9.7 6.2 9.7 6.3 9.6 M 7.9 6.1 C 6.8 6.2 7.4 5.8 7.9 6.1 M 6.0 12.4 C 6.3 11.3 6.3 14.2 6.0 12.4 M 6.3 14.1 C 6.3 14.2 6.3 14.2 6.3 14.1 M 6.1 7.3 C 6.0 7.3 6.0 7.3 6.1 7.3 C 6.1 7.3 6.1 7.3 6.1 7.3 Z M 8.5 6.4 C 10.0 6.7 7.6 6.9 8.5 6.4 M 16.7 6.6 C 15.9 6.8 17.0 5.8 16.7 6.6 M 18.4 6.2 C 18.5 6.2 18.5 6.2 18.4 6.2 C 18.4 6.2 18.4 6.2 18.4 6.2 Z M 6.0 10.1 C 6.0 10.0 6.0 10.0 6.0 10.1 C 6.0 10.1 6.0 10.1 6.0 10.1 Z M 6.1 11.9 C 6.1 11.8 6.1 11.8 6.1 11.9 C 6.1 11.9 6.1 11.9 6.1 11.9 Z M 1.8 12.1 C 1.7 12.0 1.7 12.0 1.8 12.1 C 1.8 12.1 1.8 12.1 1.8 12.1 Z M 17.9 4.4 C 19.0 4.7 16.3 5.8 16.8 4.8 C 16.8 4.3 17.7 4.5 17.9 4.4 M 8.7 5.0 C 7.5 3.5 10.8 7.0 8.7 5.0 M 5.3 13.7 C 3.6 13.9 6.6 13.1 5.3 13.7 M 5.6 16.3 C 5.3 16.8 5.4 11.7 5.9 15.6 C 6.2 16.1 5.8 16.1 5.6 16.3 M 11.3 6.0 C 10.7 5.2 13.0 6.4 11.3 6.0 M 3.1 4.6 C 3.6 5.7 4.1 7.7 3.2 6.2 C 2.0 5.2 2.6 3.3 3.1 4.6 M 21.1 5.7 C 19.3 7.1 22.0 4.6 21.1 5.7 M 16.8 5.6 C 16.8 5.7 16.8 5.7 16.8 5.6 C 16.8 5.6 16.8 5.6 16.8 5.6 Z M 15.1 5.8 C 15.0 5.7 15.0 5.7 15.1 5.8 M 19.6 6.9 C 19.6 6.8 19.6 6.8 19.6 6.9 M 4.4 5.8 C 4.3 5.8 4.3 5.8 4.4 5.8 M 7.9 5.8 C 5.1 4.5 8.7 5.5 7.9 5.8 M 11.3 3.3 C 10.5 2.7 12.6 3.2 11.3 3.3 M 5.8 6.3 C 5.2 6.4 4.9 5.8 4.9 5.4 C 4.9 4.9 5.2 4.8 5.7 6.2 C 5.8 6.2 5.8 6.3 5.8 6.3 M 8.8 5.9 C 8.7 5.9 8.7 5.9 8.8 5.9 C 8.8 5.9 8.8 5.9 8.8 5.9 Z M 2.9 4.9 C 2.9 4.9 2.9 4.9 2.9 4.9 C 2.9 4.9 2.9 4.9 2.9 4.9 Z M 3.0 5.6 C 3.0 5.5 3.0 5.5 3.0 5.6 C 3.0 5.6 3.0 5.6 3.0 5.6 Z M 5.9 8.0 C 5.9 7.9 5.9 7.9 5.9 8.0 C 5.9 8.0 5.9 8.0 5.9 8.0 Z M 20.3 2.8 C 18.8 2.7 21.6 2.6 20.3 2.8 C 20.3 2.8 20.3 2.8 20.3 2.8 Z M 13.6 6.5 C 11.6 5.5 15.0 5.5 13.6 6.5 C 13.6 6.5 13.6 6.5 13.6 6.5 Z M 11.1 4.9 C 11.1 4.8 11.1 4.8 11.1 4.9 C 11.1 4.9 11.1 4.9 11.1 4.9 Z M 7.1 7.0 C 7.1 6.9 7.1 6.9 7.1 7.0 C 7.1 7.0 7.1 7.0 7.1 7.0 Z M 19.6 2.7 C 19.6 2.6 19.6 2.6 19.6 2.7 C 19.6 2.7 19.6 2.7 19.6 2.7 Z M 5.3 11.0 C 5.2 10.9 5.2 10.9 5.3 11.0 C 5.3 11.0 5.3 11.0 5.3 11.0 Z M 5.2 3.2 C 5.0 3.7 4.7 2.8 5.2 3.2 C 5.2 3.2 5.2 3.2 5.2 3.2 Z M 2.9 3.2 C 2.9 3.2 2.9 3.2 2.9 3.2 C 2.9 3.2 2.9 3.2 2.9 3.2 Z M 6.4 14.6 C 6.4 14.7 6.4 14.7 6.4 14.6 C 6.4 14.6 6.4 14.6 6.4 14.6 Z M 1.6 7.5 C 1.6 7.6 1.6 7.6 1.6 7.5 C 1.6 7.5 1.6 7.5 1.6 7.5 Z M 3.0 10.4 C 3.0 10.4 3.0 10.4 3.0 10.4 C 3.0 10.4 3.0 10.4 3.0 10.4 Z M 5.6 7.4 C 5.9 9.4 5.1 6.4 5.6 7.4 C 5.6 7.4 5.6 7.4 5.6 7.4 Z M 3.4 15.8 C 3.3 15.8 3.3 15.8 3.4 15.8 C 3.4 15.8 3.4 15.8 3.4 15.8 Z M 5.1 17.5 C 5.0 17.5 5.0 17.5 5.1 17.5 C 5.1 17.5 5.1 17.5 5.1 17.5 Z M 6.0 18.4 C 5.9 18.4 5.9 18.4 6.0 18.4 C 6.0 18.4 6.0 18.4 6.0 18.4 Z M 15.3 4.0 C 15.4 4.1 15.4 4.1 15.3 4.0 C 15.3 4.0 15.3 4.0 15.3 4.0 Z M 15.6 6.8 C 15.6 6.8 15.6 6.8 15.6 6.8 C 15.6 6.8 15.6 6.8 15.6 6.8 Z M 13.5 6.9 C 13.6 6.9 13.6 6.9 13.5 6.9 C 13.5 6.9 13.5 6.9 13.5 6.9 Z M 16.1 2.4 C 16.1 2.4 16.1 2.4 16.1 2.4 C 16.1 2.4 16.1 2.4 16.1 2.4 Z M 5.8 4.7 C 5.9 4.7 5.9 4.7 5.8 4.7 C 5.8 4.7 5.8 4.7 5.8 4.7 Z M 3.8 3.6 C 3.9 3.6 3.9 3.6 3.8 3.6 C 3.8 3.6 3.8 3.6 3.8 3.6 Z M 5.3 2.1 C 5.4 2.1 5.4 2.1 5.3 2.1 C 5.3 2.1 5.3 2.1 5.3 2.1 Z M 2.2 2.7 C 2.2 2.7 2.2 2.7 2.2 2.7 C 2.2 2.7 2.2 2.7 2.2 2.7 Z M 23.9 2.9 C 23.9 2.8 23.9 2.8 23.9 2.9 C 23.9 2.9 23.9 2.9 23.9 2.9 Z M 22.3 5.0 C 22.4 4.9 22.4 4.9 22.3 5.0 C 22.3 5.0 22.3 5.0 22.3 5.0 Z M 6.8 6.2 C 6.9 6.7 5.5 5.6 6.8 6.2 M 9.9 5.9 C 9.9 5.9 9.9 5.9 9.9 5.9 C 9.9 5.9 9.9 5.9 9.9 5.9 Z M 5.7 11.0 C 4.9 10.8 6.1 9.6 5.7 11.0 C 5.7 11.0 5.7 11.0 5.7 11.0 Z M 2.2 6.1 C 2.2 6.1 2.2 6.1 2.2 6.1 C 2.2 6.1 2.2 6.1 2.2 6.1 Z M 2.5 7.4 C 2.4 7.5 2.4 7.5 2.5 7.4 C 2.5 7.4 2.5 7.4 2.5 7.4 Z M 4.8 14.7 C 4.7 14.7 4.7 14.7 4.8 14.7 M 10.6 6.7 C 10.0 6.3 10.1 6.4 10.6 6.7 M 5.6 12.1 C 5.6 12.1 5.6 12.1 5.6 12.1 C 5.6 12.1 5.6 12.1 5.6 12.1 Z M 5.3 16.1 C 5.2 16.0 5.2 16.0 5.3 16.1 C 5.3 16.1 5.3 16.1 5.3 16.1 Z M 12.7 6.1 C 12.4 5.1 13.0 5.4 12.7 6.1 M 19.3 5.8 C 19.3 5.7 19.3 5.7 19.3 5.8 C 19.3 5.8 19.3 5.8 19.3 5.8 Z M 19.3 5.8 " fill="#FEFFFE"></path></g></svg>