<?xml version="1.0" encoding="UTF-8" standalone="no"?><svg xmlns="http://www.w3.org/2000/svg" xmlns:xlink="http://www.w3.org/1999/xlink" clip-rule="evenodd" stroke-miterlimit="10" viewBox="0 0 49 47"><desc>SVG generated by Keynote</desc><defs></defs><g transform="matrix(1.00, 0.00, -0.00, -1.00, 0.0, 47.0)"><path d="M 38.7 19.0 C 39.1 19.2 39.0 20.4 39.4 20.7 M 38.7 19.0 C 37.2 20.7 37.5 22.2 37.0 24.2 C 36.9 26.4 38.9 24.2 39.7 24.6 C 40.3 28.3 38.4 27.9 36.4 26.8 C 37.5 28.3 33.1 30.1 35.8 31.2 C 37.6 28.9 37.0 29.7 36.6 30.9 C 36.2 32.0 35.7 33.7 38.0 31.9 C 38.7 31.6 38.3 33.4 37.8 33.9 C 40.1 33.2 38.6 37.1 41.6 34.4 C 43.3 35.0 42.3 35.4 44.9 33.6 C 45.6 32.6 44.8 32.8 44.4 32.7 C 42.8 31.4 46.9 30.0 46.1 27.7 C 49.1 26.4 46.1 24.0 44.9 25.4 C 45.3 23.7 47.9 21.1 45.6 19.6 C 46.7 18.3 44.1 13.8 43.6 17.1 C 43.4 19.4 41.8 17.6 41.2 17.6 C 40.9 18.3 42.4 20.5 41.9 20.9 C 41.4 20.3 39.8 17.7 40.6 20.7 C 39.5 19.9 39.5 21.4 38.7 19.0 C 38.7 19.0 38.7 19.0 38.7 19.0 Z M 37.2 28.0 C 36.6 27.7 37.6 27.2 37.2 28.0 C 37.2 28.0 37.2 28.0 37.2 28.0 Z M 47.2 21.0 C 46.6 21.1 47.1 19.5 47.2 21.0 C 47.2 21.0 47.2 21.0 47.2 21.0 Z M 44.8 32.1 C 44.2 31.8 45.5 30.7 44.8 32.1 C 44.8 32.1 44.8 32.1 44.8 32.1 Z M 38.3 25.9 C 39.2 24.6 39.0 27.4 38.3 27.4 C 38.5 27.1 37.7 26.1 38.3 25.9 C 38.3 25.9 38.3 25.9 38.3 25.9 Z M 42.3 26.4 C 42.1 26.3 42.1 25.5 42.8 25.7 C 42.9 26.2 42.5 26.6 42.3 26.4 C 42.3 26.4 42.3 26.4 42.3 26.4 Z M 35.7 33.0 C 35.7 32.7 36.1 32.1 36.5 32.7 C 36.4 33.1 35.8 33.2 35.7 33.0 C 35.7 33.0 35.7 33.0 35.7 33.0 Z M 40.4 24.4 C 40.5 24.0 41.2 23.9 41.2 24.4 C 40.9 24.6 40.7 25.8 40.4 24.4 C 40.4 24.4 40.4 24.4 40.4 24.4 Z M 38.0 22.2 C 38.2 21.0 39.4 23.3 39.1 23.3 C 38.6 23.7 37.5 22.9 38.0 22.2 C 38.0 22.2 38.0 22.2 38.0 22.2 Z M 41.3 23.6 C 41.7 22.4 41.9 24.2 41.3 23.6 C 41.3 23.6 41.3 23.6 41.3 23.6 Z M 40.5 35.5 C 41.8 34.5 40.4 36.3 40.5 35.5 C 40.5 35.5 40.5 35.5 40.5 35.5 Z M 46.4 28.7 C 47.1 27.2 46.7 29.6 46.4 28.7 C 46.4 28.7 46.4 28.7 46.4 28.7 Z M 38.8 29.0 C 37.9 30.8 37.0 28.5 38.8 29.0 C 38.8 29.0 38.8 29.0 38.8 29.0 Z M 37.1 19.7 C 37.7 21.3 35.6 20.6 37.1 19.7 C 37.1 19.7 37.1 19.7 37.1 19.7 Z M 32.6 33.9 C 33.9 32.7 27.1 33.6 30.5 35.1 C 32.0 36.9 27.3 38.2 28.0 35.9 C 26.6 35.9 26.7 35.7 26.0 36.8 C 25.6 35.2 22.9 34.3 21.7 34.9 C 20.7 36.2 23.8 35.5 21.6 36.7 C 17.5 36.3 21.8 38.4 19.4 39.7 C 19.2 39.6 19.4 38.7 18.8 39.1 C 18.1 40.7 21.0 42.7 19.1 43.6 C 20.1 43.5 24.2 45.9 22.5 44.2 C 22.0 42.6 27.4 46.2 26.8 43.5 C 28.3 44.7 29.4 42.7 31.2 43.8 C 32.4 43.8 31.9 42.4 31.7 42.1 C 31.1 41.0 34.0 44.3 34.6 41.6 C 35.0 42.1 39.1 39.5 35.6 40.4 C 36.5 40.1 41.1 37.3 37.5 37.1 C 34.0 38.5 38.4 33.2 35.5 35.4 C 33.1 36.9 33.0 37.3 33.9 35.2 C 34.4 35.0 36.5 33.1 34.0 33.7 C 33.8 34.2 32.7 34.7 32.6 33.9 C 32.6 33.9 32.6 33.9 32.6 33.9 Z M 35.0 36.6 C 33.7 37.6 34.4 35.9 35.0 36.6 C 35.0 36.6 35.0 36.6 35.0 36.6 Z M 31.1 44.4 C 29.1 45.1 30.7 43.5 31.1 44.4 C 31.1 44.4 31.1 44.4 31.1 44.4 Z M 28.7 35.0 C 28.3 35.9 27.4 33.5 28.7 35.0 C 28.7 35.0 28.7 35.0 28.7 35.0 Z M 33.6 41.4 C 33.5 41.4 33.8 40.9 34.0 40.6 C 34.0 40.8 33.7 41.3 33.6 41.4 C 33.6 41.4 33.6 41.4 33.6 41.4 Z M 26.6 35.4 C 24.9 36.9 26.0 33.5 26.6 35.4 C 26.6 35.4 26.6 35.4 26.6 35.4 Z M 22.5 37.8 C 21.9 40.3 20.3 37.0 22.5 37.8 C 22.5 37.8 22.5 37.8 22.5 37.8 Z M 25.8 43.4 C 26.3 42.9 26.4 43.7 25.8 43.4 C 25.8 43.4 25.8 43.4 25.8 43.4 Z M 38.0 39.5 C 38.1 38.8 38.6 39.5 38.0 39.5 C 38.0 39.5 38.0 39.5 38.0 39.5 Z M 22.2 43.1 C 22.6 42.2 23.2 43.7 22.2 43.1 C 22.2 43.1 22.2 43.1 22.2 43.1 Z M 28.6 36.1 C 29.9 33.7 31.5 38.4 28.6 36.1 C 28.6 36.1 28.6 36.1 28.6 36.1 Z M 31.6 34.7 C 32.5 33.8 32.0 36.0 31.3 35.9 C 31.3 35.7 31.5 34.9 31.6 34.7 C 31.6 34.7 31.6 34.7 31.6 34.7 Z M 26.7 36.7 C 27.9 35.5 28.0 37.1 26.7 36.7 C 26.7 36.7 26.7 36.7 26.7 36.7 Z M 29.5 34.9 C 30.2 34.9 29.2 35.3 29.5 34.9 C 29.5 34.9 29.5 34.9 29.5 34.9 Z M 24.3 34.7 C 24.8 35.0 23.8 34.9 24.3 34.7 C 24.3 34.7 24.3 34.7 24.3 34.7 Z M 32.4 33.1 C 33.0 33.0 32.1 33.6 32.4 33.1 C 32.4 33.1 32.4 33.1 32.4 33.1 Z M 24.7 36.0 C 24.5 36.9 26.2 39.2 23.0 37.1 C 22.5 36.4 23.9 35.3 24.7 36.0 C 24.7 36.0 24.7 36.0 24.7 36.0 Z M 35.6 14.3 C 37.7 18.3 37.9 19.2 39.0 19.4 C 40.2 19.6 41.4 18.8 41.9 18.8 C 43.6 19.6 44.2 18.2 44.0 15.8 C 45.0 14.0 43.7 13.5 42.5 13.2 C 41.4 12.9 40.4 12.9 41.0 11.3 C 41.5 8.7 40.0 8.5 38.9 8.8 C 37.8 9.0 37.0 9.5 37.7 7.3 C 38.8 6.7 34.3 5.1 34.5 5.5 C 33.4 2.7 29.0 5.4 28.9 5.8 C 27.7 4.9 27.4 0.6 23.1 3.8 C 19.7 5.1 17.5 2.0 19.1 4.3 C 15.8 2.1 17.7 5.5 14.9 5.7 C 12.5 5.1 16.2 7.6 11.6 6.9 C 11.7 8.4 11.8 7.8 11.0 7.7 C 10.3 7.7 8.0 8.2 6.1 12.7 C 8.8 9.0 5.8 17.4 5.1 15.1 C 4.9 11.5 3.9 19.0 2.7 23.1 C 3.6 24.3 6.5 28.4 3.9 28.2 C 3.0 30.6 4.0 31.6 4.8 32.1 C 5.6 32.6 6.3 32.7 5.8 34.1 C 5.7 35.9 7.8 35.1 8.4 36.0 C 8.0 38.3 9.6 39.1 14.2 42.0 C 19.2 45.0 20.2 43.3 20.1 41.9 C 20.0 40.5 19.3 38.9 21.1 38.9 C 21.8 38.2 19.3 31.3 19.5 36.1 C 19.3 34.7 11.9 35.6 16.9 33.2 C 15.5 33.3 15.8 32.9 16.0 32.5 C 16.2 32.0 16.1 31.7 13.7 30.6 C 14.9 37.6 8.9 25.7 13.4 29.6 C 13.7 28.3 12.7 26.4 12.6 28.2 C 10.0 30.1 12.6 23.7 9.7 27.4 C 9.6 23.1 6.8 24.3 9.3 23.2 C 13.4 22.4 8.0 23.2 9.6 21.4 C 10.0 19.0 11.4 19.2 12.2 19.5 C 12.9 19.8 13.1 20.2 12.3 18.3 C 16.1 15.5 11.2 16.5 11.9 14.8 C 11.0 13.7 12.5 12.9 13.7 13.1 C 14.9 13.3 15.8 14.1 14.7 15.5 C 15.0 13.1 15.6 16.3 16.3 13.6 C 13.5 12.4 19.8 14.8 18.3 13.2 C 19.6 11.8 18.3 10.8 18.8 10.5 C 21.7 9.4 21.4 12.3 21.6 10.4 C 22.1 9.2 23.8 12.4 24.1 11.6 C 21.3 11.5 26.7 8.9 26.9 10.3 C 25.0 10.3 27.0 13.8 28.6 12.1 C 28.8 6.2 30.1 14.1 32.2 13.0 C 32.5 11.3 34.0 12.1 34.9 13.4 C 35.7 14.7 35.7 16.3 34.2 15.8 C 34.5 15.8 35.6 14.3 35.6 14.3 M 24.9 11.1 C 22.6 10.8 27.5 10.5 24.9 11.1 M 25.0 11.9 C 24.1 10.8 27.0 12.7 24.9 12.3 C 24.9 12.2 25.1 12.0 25.0 11.9 M 16.5 14.7 C 16.2 13.8 17.8 14.4 16.5 14.7 M 13.8 14.5 C 11.9 15.1 15.4 12.7 13.8 14.5 M 15.5 33.5 C 10.8 35.9 15.2 30.0 15.5 33.5 M 11.7 21.4 C 11.5 19.0 13.4 22.6 11.7 21.4 M 10.7 20.4 C 10.3 19.0 11.8 20.4 10.7 20.4 M 12.5 30.4 C 12.6 30.6 12.6 30.6 12.5 30.4 C 12.5 30.4 12.5 30.4 12.5 30.4 Z M 17.4 34.9 C 17.4 34.9 17.4 34.9 17.4 34.9 C 17.4 34.9 17.4 34.9 17.4 34.9 Z M 10.0 24.9 C 10.9 22.9 10.8 28.0 10.0 24.9 C 10.0 24.9 10.0 24.9 10.0 24.9 Z M 10.1 38.5 C 9.9 38.5 9.9 38.5 10.1 38.5 C 10.1 38.5 10.1 38.5 10.1 38.5 Z M 27.1 9.1 C 27.2 9.0 27.2 9.0 27.1 9.1 C 27.1 9.1 27.1 9.1 27.1 9.1 Z M 33.6 13.6 C 33.9 13.0 34.4 14.7 33.6 13.6 C 33.6 13.6 33.6 13.6 33.6 13.6 Z M 42.4 15.6 C 42.5 15.6 42.5 15.6 42.4 15.6 C 42.4 15.6 42.4 15.6 42.4 15.6 Z M 30.5 7.3 C 30.6 7.3 30.6 7.3 30.5 7.3 C 30.5 7.3 30.5 7.3 30.5 7.3 Z M 28.4 10.4 C 29.0 13.2 25.7 9.0 28.4 10.4 C 28.4 10.4 28.4 10.4 28.4 10.4 Z M 3.5 21.9 C 4.7 22.1 2.9 24.4 3.5 21.9 C 3.5 21.9 3.5 21.9 3.5 21.9 Z M 12.8 14.0 C 13.0 14.6 11.7 14.7 12.8 14.0 C 12.8 14.0 12.8 14.0 12.8 14.0 Z M 18.2 14.2 C 18.2 14.9 17.2 14.4 18.2 14.2 C 18.2 14.2 18.2 14.2 18.2 14.2 Z M 33.1 14.1 C 32.9 14.1 32.9 14.1 33.1 14.1 C 33.1 14.1 33.1 14.1 33.1 14.1 Z M 31.8 11.0 C 32.5 14.0 29.6 8.5 31.8 11.0 C 31.8 11.0 31.8 11.0 31.8 11.0 Z M 35.1 12.2 C 34.8 10.8 37.0 14.2 35.1 12.2 M 35.3 7.9 C 32.1 7.2 40.0 5.5 35.3 7.9 C 35.3 7.9 35.3 7.9 35.3 7.9 Z M 20.0 4.6 C 19.8 4.5 19.8 4.5 20.0 4.6 C 20.0 4.6 20.0 4.6 20.0 4.6 Z M 22.6 11.3 C 20.7 11.5 23.8 10.6 22.6 11.3 C 22.6 11.3 22.6 11.3 22.6 11.3 Z M 36.5 18.2 C 35.7 16.6 37.6 18.9 36.5 18.2 C 36.5 18.2 36.5 18.2 36.5 18.2 Z M 12.8 10.5 C 9.7 13.4 14.1 7.9 12.8 10.5 C 12.8 10.5 12.8 10.5 12.8 10.5 Z M 9.0 23.8 C 9.0 23.9 9.0 23.9 9.0 23.8 C 9.0 23.8 9.0 23.8 9.0 23.8 Z M 10.2 25.9 C 10.2 26.0 10.2 26.0 10.2 25.9 C 10.2 25.9 10.2 25.9 10.2 25.9 Z M 13.5 35.7 C 13.6 35.9 13.6 35.9 13.5 35.7 C 13.5 35.7 13.5 35.7 13.5 35.7 Z M 11.8 27.4 C 11.8 27.5 11.8 27.5 11.8 27.4 C 11.8 27.4 11.8 27.4 11.8 27.4 Z M 14.7 32.8 C 14.8 33.0 14.8 33.0 14.7 32.8 C 14.7 32.8 14.7 32.8 14.7 32.8 Z M 15.6 30.7 C 15.6 30.8 15.6 30.8 15.6 30.7 C 15.6 30.7 15.6 30.7 15.6 30.7 Z M 3.2 17.0 C 3.0 17.1 3.0 17.1 3.2 17.0 C 3.2 17.0 3.2 17.0 3.2 17.0 Z M 29.9 13.2 C 29.9 13.0 29.9 13.0 29.9 13.2 C 29.9 13.2 29.9 13.2 29.9 13.2 Z M 13.7 33.1 C 13.7 33.2 13.7 33.2 13.7 33.1 C 13.7 33.1 13.7 33.1 13.7 33.1 Z M 9.0 17.7 C 7.0 17.0 12.1 17.3 8.9 18.2 C 8.8 18.1 9.3 17.7 9.0 17.7 M 4.8 19.2 C 4.8 19.0 4.8 19.0 4.8 19.2 C 4.8 19.2 4.8 19.2 4.8 19.2 Z M 9.1 9.4 C 9.2 9.3 9.2 9.3 9.1 9.4 C 9.1 9.4 9.1 9.4 9.1 9.4 Z M 11.9 26.4 C 13.0 25.9 11.4 28.0 11.8 26.2 M 11.3 38.6 C 11.7 37.4 12.7 41.0 11.0 38.4 M 38.1 19.7 C 39.0 19.7 38.0 21.0 38.1 19.7 M 10.3 6.9 C 10.1 6.0 12.4 6.0 10.3 6.9 M 8.5 12.4 C 9.7 12.8 6.1 13.9 8.7 12.1 M 6.5 33.1 C 6.6 33.2 6.6 33.2 6.5 33.1 C 6.5 33.1 6.5 33.1 6.5 33.1 Z M 19.7 11.8 C 19.6 11.8 19.6 11.8 19.7 11.8 C 19.7 11.8 19.7 11.8 19.7 11.8 Z M 10.9 15.4 C 13.0 15.2 9.0 16.3 10.9 15.4 M 21.7 8.4 C 23.9 10.0 18.4 8.3 21.7 8.4 M 15.7 41.8 C 14.1 38.5 17.1 43.8 15.7 41.8 M 10.7 29.4 C 12.0 26.6 10.2 31.3 10.7 29.4 M 17.7 11.5 C 18.4 12.6 15.6 11.7 17.7 11.5 M 35.8 16.1 C 36.8 17.7 33.5 14.9 35.8 16.1 M 4.2 26.7 C 4.1 26.9 4.1 26.9 4.2 26.7 C 4.2 26.7 4.2 26.7 4.2 26.7 Z M 35.1 4.4 C 35.0 4.2 35.0 4.2 35.1 4.4 C 35.1 4.4 35.1 4.4 35.1 4.4 Z M 21.0 35.4 C 21.1 35.5 21.1 35.5 21.0 35.4 C 21.0 35.4 21.0 35.4 21.0 35.4 Z M 9.2 28.7 C 9.1 28.8 9.1 28.8 9.2 28.7 C 9.2 28.7 9.2 28.7 9.2 28.7 Z M 17.9 33.9 C 17.9 34.1 17.9 34.1 17.9 33.9 C 17.9 33.9 17.9 33.9 17.9 33.9 Z M 6.5 22.1 C 6.4 22.1 6.4 22.1 6.5 22.1 C 6.5 22.1 6.5 22.1 6.5 22.1 Z M 12.7 21.8 C 12.6 21.8 12.6 21.8 12.7 21.8 C 12.7 21.8 12.7 21.8 12.7 21.8 Z M 13.0 15.4 C 12.9 15.4 12.9 15.4 13.0 15.4 C 13.0 15.4 13.0 15.4 13.0 15.4 Z M 12.0 24.1 C 12.5 27.2 9.9 22.5 12.0 24.1 C 12.0 24.1 12.0 24.1 12.0 24.1 Z M 7.9 15.9 C 7.8 15.9 7.8 15.9 7.9 15.9 C 7.9 15.9 7.9 15.9 7.9 15.9 Z M 11.9 17.5 C 12.2 20.4 8.8 17.1 11.9 17.5 M 21.1 12.4 C 20.6 13.4 20.4 11.1 21.1 12.4 M 25.2 4.0 C 25.2 3.8 25.2 3.8 25.2 4.0 C 25.2 4.0 25.2 4.0 25.2 4.0 Z M 23.6 4.6 C 23.4 4.5 23.4 4.5 23.6 4.6 C 23.6 4.6 23.6 4.6 23.6 4.6 Z M 23.5 12.3 C 23.4 12.3 23.4 12.3 23.5 12.3 C 23.5 12.3 23.5 12.3 23.5 12.3 Z M 23.2 2.3 C 23.0 2.3 23.0 2.3 23.2 2.3 C 23.2 2.3 23.2 2.3 23.2 2.3 Z M 12.8 20.6 C 12.8 20.6 12.8 20.6 12.8 20.6 C 12.8 20.6 12.8 20.6 12.8 20.6 Z M 19.8 33.8 C 19.9 33.9 19.9 33.9 19.8 33.8 C 19.8 33.8 19.8 33.8 19.8 33.8 Z M 40.1 11.5 C 40.1 11.3 40.1 11.3 40.1 11.5 C 40.1 11.5 40.1 11.5 40.1 11.5 Z M 10.1 21.8 C 10.0 21.9 10.0 21.9 10.1 21.8 C 10.1 21.8 10.1 21.8 10.1 21.8 Z M 29.1 4.8 C 29.1 4.6 29.1 4.6 29.1 4.8 C 29.1 4.8 29.1 4.8 29.1 4.8 Z M 10.8 20.7 C 10.8 20.8 10.8 20.8 10.8 20.7 C 10.8 20.7 10.8 20.7 10.8 20.7 Z M 3.5 25.9 C 3.5 26.0 3.5 26.0 3.5 25.9 C 3.5 25.9 3.5 25.9 3.5 25.9 Z M 4.1 32.6 C 4.1 32.7 4.1 32.7 4.1 32.6 C 4.1 32.6 4.1 32.6 4.1 32.6 Z M 7.7 25.0 C 7.6 25.1 7.6 25.1 7.7 25.0 C 7.7 25.0 7.7 25.0 7.7 25.0 Z M 30.3 7.7 C 39.1 12.5 22.6 6.4 30.3 7.7 M 7.4 26.7 C 6.6 20.1 10.8 31.3 7.4 26.7 C 8.2 27.2 7.5 26.7 7.4 26.7 " fill="#FEFFFE"></path></g></svg>