<?xml version="1.0" encoding="UTF-8" standalone="no"?><svg xmlns="http://www.w3.org/2000/svg" xmlns:xlink="http://www.w3.org/1999/xlink" clip-rule="evenodd" stroke-miterlimit="10" viewBox="0 0 32 30"><desc>SVG generated by Keynote</desc><defs></defs><g transform="matrix(1.00, 0.00, -0.00, -1.00, 0.0, 30.0)"><path d="M 18.3 15.2 C 18.4 15.4 17.9 15.9 18.0 16.0 M 18.3 15.2 C 17.0 15.8 16.5 16.6 15.7 17.6 C 15.1 18.8 16.7 17.7 17.0 17.8 C 16.5 19.6 15.8 19.4 14.9 19.0 C 15.3 19.7 13.3 21.0 14.6 21.2 C 15.9 18.6 13.8 23.3 15.7 21.2 C 16.0 21.0 16.0 21.9 15.8 22.1 C 16.7 21.5 16.5 23.2 17.6 22.0 C 18.4 22.1 18.0 22.2 19.1 21.4 C 19.4 21.0 19.0 21.1 18.8 21.1 C 18.0 20.7 19.9 20.1 19.8 19.2 C 21.4 18.6 20.3 17.7 19.5 18.2 C 20.0 17.6 21.8 16.8 21.2 16.0 C 22.1 15.6 22.7 13.7 21.2 14.9 C 20.2 15.8 20.2 15.0 20.0 14.9 C 19.5 15.2 19.4 16.2 19.1 16.3 C 19.0 16.0 19.2 14.8 18.5 16.1 C 18.3 15.7 17.6 16.4 18.3 15.2 C 18.3 15.2 18.3 15.2 18.3 15.2 Z M 15.2 19.5 C 14.9 19.5 15.5 19.1 15.2 19.5 C 15.2 19.5 15.2 19.5 15.2 19.5 Z M 21.6 16.7 C 21.2 16.7 21.9 16.1 21.6 16.7 C 21.6 16.7 21.6 16.7 21.6 16.7 Z M 19.0 20.9 C 18.7 20.8 19.3 20.3 19.0 20.9 C 19.0 20.9 19.0 20.9 19.0 20.9 Z M 16.0 18.5 C 16.7 17.8 16.2 19.1 15.8 19.2 C 16.0 19.0 15.7 18.6 16.0 18.5 C 16.0 18.5 16.0 18.5 16.0 18.5 Z M 18.0 18.7 C 17.9 18.6 18.1 18.2 18.4 18.3 C 18.4 18.5 18.1 18.7 18.0 18.7 C 18.0 18.7 18.0 18.7 18.0 18.7 Z M 14.8 22.0 C 14.7 21.9 14.8 21.6 15.1 21.8 C 15.1 22.0 14.9 22.1 14.8 22.0 C 14.8 22.0 14.8 22.0 14.8 22.0 Z M 17.4 17.8 C 17.5 17.6 17.9 17.5 17.8 17.8 C 17.6 17.9 17.3 18.4 17.4 17.8 C 17.4 17.8 17.4 17.8 17.4 17.8 Z M 16.8 16.6 C 17.3 16.1 17.2 17.2 17.0 17.2 C 16.7 17.4 16.3 16.9 16.8 16.6 C 16.8 16.6 16.8 16.6 16.8 16.6 Z M 18.0 17.4 C 18.5 16.9 18.2 17.7 18.0 17.4 C 18.0 17.4 18.0 17.4 18.0 17.4 Z M 17.2 22.5 C 17.6 21.9 17.3 22.8 17.2 22.5 C 17.2 22.5 17.2 22.5 17.2 22.5 Z M 19.9 19.5 C 20.3 18.9 20.0 19.9 19.9 19.5 C 19.9 19.5 19.9 19.5 19.9 19.5 Z M 16.0 19.9 C 15.5 20.8 15.1 19.8 16.0 19.9 C 16.0 19.9 16.0 19.9 16.0 19.9 Z M 17.4 15.3 C 16.9 16.1 16.4 15.5 17.4 15.3 C 17.4 15.3 17.4 15.3 17.4 15.3 Z M 16.7 20.8 C 17.2 21.5 16.8 18.4 16.1 19.8 C 15.2 20.4 14.2 18.2 15.5 18.6 C 15.3 18.0 15.3 18.0 14.6 17.7 C 15.4 17.5 15.1 16.2 14.4 15.7 C 13.5 15.4 14.8 16.6 13.6 15.8 C 12.4 14.0 12.8 15.9 11.4 15.1 C 11.4 15.0 11.9 15.0 11.5 14.8 C 10.5 14.6 10.5 15.8 9.5 15.2 C 9.8 15.5 9.7 17.2 10.1 16.5 C 10.9 16.3 10.1 18.4 11.4 18.1 C 11.1 18.7 12.2 19.2 11.7 19.8 C 11.8 20.3 12.5 20.1 12.6 20.0 C 13.2 19.8 11.6 20.8 12.9 21.2 C 12.7 21.4 13.8 23.2 13.5 21.7 C 13.6 22.1 14.4 24.2 14.8 22.7 C 14.6 21.1 16.6 23.5 15.8 22.0 C 15.3 20.8 15.0 20.7 16.0 21.3 C 16.1 21.6 16.8 22.8 16.7 21.5 C 16.5 21.3 16.3 20.8 16.7 20.8 C 16.7 20.8 16.7 20.8 16.7 20.8 Z M 15.3 21.7 C 14.9 21.0 15.6 21.5 15.3 21.7 C 15.3 21.7 15.3 21.7 15.3 21.7 Z M 11.4 19.8 C 11.0 19.0 11.8 19.6 11.4 19.8 C 11.4 19.8 11.4 19.8 11.4 19.8 Z M 16.0 18.9 C 15.5 18.7 16.6 18.4 16.0 18.9 C 16.0 18.9 16.0 18.9 16.0 18.9 Z M 13.0 20.8 C 13.0 20.8 13.2 20.9 13.4 21.0 C 13.3 21.0 13.1 20.9 13.0 20.8 C 13.0 20.8 13.0 20.8 13.0 20.8 Z M 15.5 18.0 C 14.4 17.2 16.3 17.7 15.5 18.0 C 15.5 18.0 15.5 18.0 15.5 18.0 Z M 13.3 16.2 C 11.9 16.1 13.1 15.3 13.3 16.2 C 13.3 16.2 13.3 16.2 13.3 16.2 Z M 11.3 17.7 C 11.6 17.9 11.2 17.9 11.3 17.7 C 11.3 17.7 11.3 17.7 11.3 17.7 Z M 13.7 22.7 C 14.0 22.8 13.7 23.0 13.7 22.7 C 13.7 22.7 13.7 22.7 13.7 22.7 Z M 10.6 16.3 C 11.2 16.4 10.6 16.7 10.6 16.3 C 10.6 16.3 10.6 16.3 10.6 16.3 Z M 15.4 18.9 C 16.8 19.4 14.6 20.2 15.4 18.9 C 15.4 18.9 15.4 18.9 15.4 18.9 Z M 16.3 20.3 C 16.7 20.8 15.7 20.4 15.7 20.1 C 15.8 20.1 16.2 20.2 16.3 20.3 C 16.3 20.3 16.3 20.3 16.3 20.3 Z M 14.9 18.0 C 15.6 18.5 14.9 18.6 14.9 18.0 C 14.9 18.0 14.9 18.0 14.9 18.0 Z M 16.1 19.3 C 16.2 19.6 15.9 19.1 16.1 19.3 C 16.1 19.3 16.1 19.3 16.1 19.3 Z M 15.3 16.9 C 15.3 17.2 15.1 16.7 15.3 16.9 C 15.3 16.9 15.3 16.9 15.3 16.9 Z M 17.1 20.8 C 17.1 21.1 16.8 20.6 17.1 20.8 C 17.1 20.8 17.1 20.8 17.1 20.8 Z M 14.8 17.1 C 14.3 17.1 13.7 18.0 13.8 16.4 C 14.0 16.2 15.0 16.8 14.8 17.1 C 14.8 17.1 14.8 17.1 14.8 17.1 Z M 19.3 13.5 C 16.4 16.1 19.4 15.4 19.8 15.4 C 20.3 15.8 21.0 15.4 21.8 14.7 C 23.9 13.8 20.5 14.0 22.5 13.2 C 25.4 11.8 20.9 12.8 23.7 11.8 C 24.3 11.8 24.4 10.6 24.2 10.8 C 25.8 9.8 23.9 9.6 23.7 9.7 C 24.3 9.2 26.8 8.2 25.6 7.6 C 25.4 7.0 28.3 5.3 26.3 6.4 C 28.8 4.7 26.0 6.2 27.1 5.1 C 28.5 4.0 25.3 6.0 28.0 4.0 C 26.4 4.5 29.0 3.8 29.0 1.9 C 28.5 2.7 28.3 2.4 28.5 2.0 C 28.0 2.1 27.9 2.0 28.6 1.7 C 30.9 0.9 26.6 2.0 25.8 1.5 C 24.9 2.0 22.2 3.0 23.6 1.9 C 23.2 0.5 21.4 2.7 21.7 1.6 C 21.4 1.1 20.6 2.1 20.3 2.0 C 20.3 1.2 19.5 1.8 17.7 1.5 C 13.3 1.1 16.7 3.6 15.5 3.9 C 15.4 4.3 16.3 6.9 16.2 4.9 C 16.3 5.5 19.3 3.4 17.2 5.6 C 18.3 4.7 16.7 6.5 18.4 5.5 C 16.9 3.9 21.3 4.8 18.7 5.6 C 18.6 6.1 19.3 6.0 19.2 5.6 C 20.1 4.2 19.7 6.2 20.7 4.5 C 21.5 5.0 23.0 3.4 22.1 4.5 C 20.1 6.4 22.7 4.0 22.7 4.6 C 24.3 4.6 20.0 6.7 22.9 5.3 C 22.9 5.4 22.9 5.4 22.9 5.4 C 21.1 7.3 24.3 4.7 24.3 5.0 C 26.3 4.0 21.9 7.5 22.3 6.5 C 23.0 6.5 21.2 7.1 22.2 7.1 C 24.3 5.5 19.8 8.9 21.3 8.0 C 21.5 8.4 22.7 7.5 22.7 7.7 C 22.2 8.7 20.6 9.1 21.8 8.7 C 22.4 8.7 19.9 10.0 20.4 9.9 C 21.0 9.0 21.8 10.0 20.8 10.5 C 21.0 9.9 18.5 11.5 19.6 11.4 C 23.5 9.7 18.3 12.5 19.3 12.5 C 21.4 11.6 18.4 14.5 18.1 13.8 C 18.2 13.8 19.3 13.5 19.3 13.5 M 20.6 10.1 C 21.1 9.2 20.5 10.8 20.6 10.1 M 20.0 10.3 C 20.9 9.7 19.1 11.2 19.8 10.4 C 19.8 10.4 19.9 10.4 20.0 10.3 M 21.5 7.3 C 22.1 7.1 20.9 7.9 21.5 7.3 M 23.3 5.9 C 24.2 5.1 23.0 6.6 23.3 5.9 M 17.7 5.1 C 19.6 2.9 17.7 6.3 17.7 5.1 M 21.6 5.5 C 22.8 5.2 20.1 6.4 21.6 5.5 M 22.6 5.0 C 23.5 4.6 21.9 5.5 22.6 5.0 M 19.0 5.1 C 18.9 5.0 18.9 5.0 19.0 5.1 C 19.0 5.1 19.0 5.1 19.0 5.1 Z M 17.0 5.0 C 16.9 5.1 16.9 5.1 17.0 5.0 C 17.0 5.0 17.0 5.0 17.0 5.0 Z M 21.2 4.9 C 21.2 5.4 19.9 5.1 21.2 4.9 C 21.2 4.9 21.2 4.9 21.2 4.9 Z M 19.5 1.8 C 19.5 1.7 19.5 1.7 19.5 1.8 C 19.5 1.8 19.5 1.8 19.5 1.8 Z M 21.6 10.2 C 21.6 10.2 21.6 10.2 21.6 10.2 C 21.6 10.2 21.6 10.2 21.6 10.2 Z M 19.2 13.0 C 19.6 12.8 18.7 13.5 19.2 13.0 C 19.2 13.0 19.2 13.0 19.2 13.0 Z M 21.1 14.5 C 21.2 14.6 21.2 14.6 21.1 14.5 C 21.1 14.5 21.1 14.5 21.1 14.5 Z M 22.7 10.5 C 22.7 10.5 22.7 10.5 22.7 10.5 C 22.7 10.5 22.7 10.5 22.7 10.5 Z M 20.7 10.9 C 18.9 11.8 21.7 9.8 20.7 10.9 C 20.7 10.9 20.7 10.9 20.7 10.9 Z M 25.8 1.9 C 25.1 2.4 25.1 1.7 25.8 1.9 C 25.8 1.9 25.8 1.9 25.8 1.9 Z M 24.1 5.4 C 23.7 5.6 24.5 4.9 24.1 5.4 C 24.1 5.4 24.1 5.4 24.1 5.4 Z M 20.9 8.1 C 20.5 8.2 21.2 7.7 20.9 8.1 C 20.9 8.1 20.9 8.1 20.9 8.1 Z M 18.8 13.0 C 18.7 13.0 18.7 13.0 18.8 13.0 C 18.8 13.0 18.8 13.0 18.8 13.0 Z M 20.4 11.9 C 18.7 12.8 21.8 10.6 20.4 11.9 C 20.4 11.9 20.4 11.9 20.4 11.9 Z M 20.3 12.8 C 21.0 12.3 19.6 13.7 20.3 12.8 M 22.9 11.6 C 22.7 10.9 25.0 11.8 22.9 11.6 C 22.9 11.6 22.9 11.6 22.9 11.6 Z M 25.9 6.8 C 26.0 6.7 26.0 6.7 25.9 6.8 C 25.9 6.8 25.9 6.8 25.9 6.8 Z M 20.9 9.4 C 21.3 8.7 21.1 9.6 20.9 9.4 C 20.9 9.4 20.9 9.4 20.9 9.4 Z M 17.7 14.8 C 18.1 14.2 17.8 15.2 17.7 14.8 C 17.7 14.8 17.7 14.8 17.7 14.8 Z M 25.6 5.0 C 26.0 4.0 26.1 5.3 25.6 5.0 C 25.6 5.0 25.6 5.0 25.6 5.0 Z M 22.1 4.4 C 22.1 4.4 22.1 4.4 22.1 4.4 C 22.1 4.4 22.1 4.4 22.1 4.4 Z M 20.8 4.9 C 20.8 4.9 20.8 4.9 20.8 4.9 C 20.8 4.9 20.8 4.9 20.8 4.9 Z M 18.3 3.7 C 18.3 3.7 18.3 3.7 18.3 3.7 C 18.3 3.7 18.3 3.7 18.3 3.7 Z M 19.7 5.4 C 19.7 5.4 19.7 5.4 19.7 5.4 C 19.7 5.4 19.7 5.4 19.7 5.4 Z M 18.0 5.1 C 17.9 5.1 17.9 5.1 18.0 5.1 C 18.0 5.1 18.0 5.1 18.0 5.1 Z M 17.7 6.1 C 17.7 6.0 17.7 6.0 17.7 6.1 C 17.7 6.1 17.7 6.1 17.7 6.1 Z M 28.4 1.3 C 28.4 1.2 28.4 1.2 28.4 1.3 C 28.4 1.3 28.4 1.3 28.4 1.3 Z M 18.9 12.1 C 19.0 12.0 19.0 12.0 18.9 12.1 C 18.9 12.1 18.9 12.1 18.9 12.1 Z M 18.3 4.7 C 18.3 4.7 18.3 4.7 18.3 4.7 C 18.3 4.7 18.3 4.7 18.3 4.7 Z M 25.0 3.8 C 26.4 2.9 23.4 5.1 24.7 3.9 C 24.8 3.8 24.8 4.0 25.0 3.8 M 26.4 2.3 C 26.5 2.2 26.5 2.2 26.4 2.3 C 26.4 2.3 26.4 2.3 26.4 2.3 Z M 28.3 3.2 C 28.3 3.2 28.3 3.2 28.3 3.2 C 28.3 3.2 28.3 3.2 28.3 3.2 Z M 19.8 5.6 C 19.3 6.1 19.7 5.2 19.9 5.6 M 19.0 2.1 C 18.9 2.6 18.2 1.7 19.1 2.1 M 17.8 15.5 C 18.2 15.5 17.3 15.9 17.8 15.5 M 28.7 3.4 C 29.3 3.2 28.0 4.2 28.7 3.4 M 27.5 3.1 C 26.6 3.7 28.5 2.0 27.5 3.2 M 21.4 2.1 C 21.4 2.1 21.4 2.1 21.4 2.1 C 21.4 2.1 21.4 2.1 21.4 2.1 Z M 21.6 8.3 C 21.6 8.3 21.6 8.3 21.6 8.3 C 21.6 8.3 21.6 8.3 21.6 8.3 Z M 24.9 4.5 C 23.5 5.6 25.9 3.5 24.9 4.5 M 23.0 8.3 C 21.4 9.4 24.0 7.1 23.0 8.3 M 17.1 1.9 C 17.8 3.0 16.5 1.3 17.1 1.9 M 19.9 4.6 C 19.5 5.7 19.9 4.0 19.9 4.6 M 22.6 7.4 C 21.7 7.9 23.4 6.5 22.6 7.4 M 18.4 14.1 C 18.0 14.7 18.2 13.4 18.4 14.1 M 23.9 2.1 C 23.8 2.1 23.8 2.1 23.9 2.1 C 23.9 2.1 23.9 2.1 23.9 2.1 Z M 24.9 10.6 C 25.0 10.5 25.0 10.5 24.9 10.6 C 24.9 10.6 24.9 10.6 24.9 10.6 Z M 15.8 5.4 C 15.8 5.4 15.8 5.4 15.8 5.4 C 15.8 5.4 15.8 5.4 15.8 5.4 Z M 20.8 4.1 C 20.8 4.0 20.8 4.0 20.8 4.1 C 20.8 4.1 20.8 4.1 20.8 4.1 Z M 16.8 5.6 C 16.8 5.5 16.8 5.5 16.8 5.6 C 16.8 5.6 16.8 5.6 16.8 5.6 Z M 24.1 3.2 C 24.1 3.2 24.1 3.2 24.1 3.2 C 24.1 3.2 24.1 3.2 24.1 3.2 Z M 20.8 6.0 C 20.9 6.0 20.9 6.0 20.8 6.0 C 20.8 6.0 20.8 6.0 20.8 6.0 Z M 23.4 5.6 C 23.5 5.6 23.5 5.6 23.4 5.6 C 23.4 5.6 23.4 5.6 23.4 5.6 Z M 20.3 5.8 C 19.2 5.9 22.1 4.9 20.3 5.8 C 20.3 5.8 20.3 5.8 20.3 5.8 Z M 26.6 3.0 C 26.6 3.0 26.6 3.0 26.6 3.0 C 26.6 3.0 26.6 3.0 26.6 3.0 Z M 23.6 5.0 C 23.5 5.0 23.5 5.0 23.5 5.0 C 21.8 5.7 25.1 3.8 23.8 4.9 C 23.7 4.9 23.6 5.0 23.6 5.0 M 20.7 9.0 C 20.2 9.1 21.7 8.4 20.7 9.0 M 25.2 8.3 C 25.3 8.2 25.3 8.2 25.2 8.3 C 25.2 8.3 25.2 8.3 25.2 8.3 Z M 25.0 8.0 C 25.1 7.9 25.1 7.9 25.0 8.0 C 25.0 8.0 25.0 8.0 25.0 8.0 Z M 20.0 9.9 C 20.1 9.9 20.1 9.9 20.0 9.9 C 20.0 9.9 20.0 9.9 20.0 9.9 Z M 26.6 7.3 C 26.6 7.2 26.6 7.2 26.6 7.3 C 26.6 7.3 26.6 7.3 26.6 7.3 Z M 21.3 5.9 C 21.3 5.9 21.3 5.9 21.3 5.9 C 21.3 5.9 21.3 5.9 21.3 5.9 Z M 16.2 6.0 C 16.2 5.9 16.2 5.9 16.2 6.0 C 16.2 6.0 16.2 6.0 16.2 6.0 Z M 22.1 13.2 C 22.2 13.1 22.2 13.1 22.1 13.2 C 22.1 13.2 22.1 13.2 22.1 13.2 Z M 22.2 4.8 C 22.3 4.8 22.3 4.8 22.2 4.8 C 22.2 4.8 22.2 4.8 22.2 4.8 Z M 24.4 9.5 C 24.4 9.4 24.4 9.4 24.4 9.5 C 24.4 9.5 24.4 9.5 24.4 9.5 Z M 22.3 5.1 C 22.3 5.1 22.3 5.1 22.3 5.1 C 22.3 5.1 22.3 5.1 22.3 5.1 Z M 24.4 1.9 C 24.4 1.9 24.4 1.9 24.4 1.9 C 24.4 1.9 24.4 1.9 24.4 1.9 Z M 22.7 1.2 C 22.7 1.2 22.7 1.2 22.7 1.2 C 22.7 1.2 22.7 1.2 22.7 1.2 Z M 22.4 3.8 C 22.4 3.8 22.4 3.8 22.4 3.8 C 22.4 3.8 22.4 3.8 22.4 3.8 Z M 22.4 10.6 C 19.7 13.7 23.0 8.6 22.4 10.6 M 22.1 3.6 C 24.1 3.8 19.5 4.6 22.1 3.6 C 21.6 3.8 22.1 3.6 22.1 3.6 M 15.3 5.9 C 15.9 4.9 15.9 3.9 15.5 2.8 C 15.0 2.3 15.2 4.3 15.0 2.6 C 16.2 2.3 14.0 0.1 14.4 2.3 C 12.8 2.6 13.8 0.9 12.9 1.7 C 11.1 2.0 11.8 1.3 10.3 1.4 C 10.3 2.6 8.9 0.8 9.4 2.0 C 9.3 0.7 8.2 2.3 7.6 1.8 C 8.3 1.0 2.5 1.8 6.4 2.1 C 5.9 2.7 4.7 1.7 4.0 1.5 C 4.2 1.9 3.1 1.7 2.1 1.5 C 2.2 1.8 2.3 2.2 3.0 2.8 C 3.2 2.8 3.1 2.5 3.4 2.7 C 4.1 2.9 3.7 3.3 3.6 3.3 C 4.3 3.9 6.4 6.3 3.4 3.3 C 2.4 2.7 4.6 5.1 3.8 4.6 C 4.6 6.4 5.8 6.0 4.8 6.0 C 5.4 7.2 5.9 8.1 6.1 8.2 C 6.3 8.8 5.4 8.6 6.7 9.6 C 5.7 10.6 10.7 11.7 7.5 11.2 C 8.5 11.8 6.5 11.7 8.6 12.1 C 7.4 11.4 8.4 14.4 9.1 13.3 C 9.7 13.7 8.3 15.3 10.1 15.2 C 11.8 15.9 13.1 15.9 13.8 14.9 C 12.8 14.8 14.5 13.9 12.9 14.4 C 12.8 15.3 11.2 12.4 12.3 13.2 C 14.7 13.9 9.9 11.3 11.5 11.3 C 10.7 11.5 8.9 8.8 11.3 10.3 C 11.2 10.0 10.2 9.5 11.2 9.6 C 11.7 10.8 8.7 8.0 10.0 8.7 C 10.9 9.3 10.6 7.7 9.4 7.3 C 6.8 6.5 9.8 7.1 8.4 6.1 C 7.1 4.5 11.1 7.7 8.4 5.6 C 8.5 5.6 8.5 5.5 8.5 5.3 C 9.0 5.4 9.6 5.5 9.4 5.8 C 8.8 5.6 7.1 3.7 9.6 5.3 C 9.6 6.2 11.8 5.8 10.8 5.3 C 7.1 4.4 12.6 4.3 11.3 5.2 C 13.0 6.1 11.4 5.5 12.3 5.2 C 11.7 4.6 12.5 4.1 12.9 5.2 C 14.0 6.8 12.0 3.1 14.0 5.2 C 14.5 6.2 15.5 4.5 15.1 5.6 C 15.0 5.7 15.3 5.9 15.3 5.9 M 14.9 5.7 C 14.9 5.3 15.2 6.1 14.9 5.7 M 15.0 5.3 C 15.0 5.4 15.0 5.4 15.0 5.3 C 15.0 5.3 15.0 5.3 15.0 5.3 Z M 12.4 5.1 C 12.5 5.1 12.5 5.1 12.4 5.1 C 12.4 5.1 12.4 5.1 12.4 5.1 Z M 5.9 1.1 C 5.9 1.2 5.9 1.2 5.9 1.1 C 5.9 1.1 5.9 1.1 5.9 1.1 Z M 10.6 5.0 C 10.7 5.0 10.7 5.0 10.6 5.0 C 10.6 5.0 10.6 5.0 10.6 5.0 Z M 13.2 4.8 C 13.2 4.9 13.2 4.9 13.2 4.8 C 13.2 4.8 13.2 4.8 13.2 4.8 Z M 11.4 5.6 C 10.6 5.0 12.3 6.0 11.5 5.7 C 11.4 5.6 11.5 5.6 11.4 5.6 M 9.8 5.8 C 9.7 5.8 9.7 5.8 9.8 5.8 M 4.7 7.0 C 4.6 7.0 4.6 7.0 4.7 7.0 M 11.7 10.3 C 11.6 10.3 11.6 10.3 11.7 10.3 M 9.1 6.8 C 9.6 7.6 8.8 6.7 9.1 6.8 M 12.2 11.9 C 12.3 11.2 13.1 12.9 12.2 11.9 M 13.1 12.8 C 13.0 12.9 13.0 12.9 13.1 12.8 M 10.8 9.0 C 10.7 8.9 10.7 8.9 10.8 9.0 C 10.8 9.0 10.8 9.0 10.8 9.0 Z M 9.4 6.7 C 9.4 6.2 10.7 8.1 9.4 6.7 M 12.6 5.7 C 12.4 6.0 12.0 4.9 12.6 5.7 M 13.2 5.3 C 13.2 5.3 13.2 5.3 13.2 5.3 C 13.2 5.3 13.2 5.3 13.2 5.3 Z M 11.5 10.5 C 11.5 10.5 11.5 10.5 11.5 10.5 C 11.5 10.5 11.5 10.5 11.5 10.5 Z M 12.2 11.6 C 12.1 11.5 12.1 11.5 12.2 11.6 C 12.2 11.6 12.2 11.6 12.2 11.6 Z M 7.4 11.8 C 7.3 11.7 7.3 11.7 7.4 11.8 C 7.4 11.8 7.4 11.8 7.4 11.8 Z M 11.2 3.5 C 12.3 3.8 11.6 5.0 10.8 3.9 C 10.3 3.4 11.2 3.6 11.2 3.5 M 6.9 4.9 C 4.6 3.7 9.8 6.1 6.9 4.9 M 11.8 12.6 C 10.0 12.8 13.1 12.2 11.8 12.6 M 13.0 14.1 C 12.8 14.4 11.4 11.4 13.1 13.7 C 13.5 13.9 13.1 14.0 13.0 14.1 M 8.7 5.1 C 7.2 4.3 10.2 5.5 8.7 5.1 M 6.3 7.0 C 7.3 7.7 8.5 9.0 6.9 8.0 C 5.3 7.3 5.4 6.2 6.3 7.0 M 14.5 4.8 C 14.4 6.2 14.2 3.7 14.5 4.8 M 11.7 4.7 C 11.7 4.8 11.7 4.8 11.7 4.7 C 11.7 4.7 11.7 4.7 11.7 4.7 Z M 10.8 4.9 C 10.7 4.8 10.7 4.8 10.8 4.9 M 14.4 6.0 C 14.4 5.9 14.4 5.9 14.4 6.0 M 8.3 7.9 C 8.2 7.9 8.2 7.9 8.3 7.9 M 8.5 6.3 C 7.0 6.3 7.8 5.5 8.5 6.3 M 5.2 2.4 C 3.8 1.8 6.1 2.3 5.2 2.4 M 10.1 8.4 C 8.7 8.3 7.8 6.5 10.1 8.4 M 8.4 5.9 C 8.4 6.0 8.4 6.0 8.4 5.9 C 8.4 5.9 8.4 5.9 8.4 5.9 Z M 6.3 7.2 C 6.2 7.2 6.2 7.2 6.3 7.2 C 6.3 7.2 6.3 7.2 6.3 7.2 Z M 6.6 7.6 C 6.5 7.6 6.5 7.6 6.6 7.6 C 6.6 7.6 6.6 7.6 6.6 7.6 Z M 10.8 9.3 C 10.7 9.3 10.7 9.3 10.8 9.3 C 10.8 9.3 10.8 9.3 10.8 9.3 Z M 11.4 1.9 C 10.2 1.9 12.2 1.8 11.4 1.9 C 11.4 1.9 11.4 1.9 11.4 1.9 Z M 10.7 5.6 C 8.2 4.6 10.4 4.6 10.7 5.6 C 10.7 5.6 10.7 5.6 10.7 5.6 Z M 7.1 4.0 C 7.0 3.9 7.0 3.9 7.1 4.0 C 7.1 4.0 7.1 4.0 7.1 4.0 Z M 11.1 8.5 C 11.0 8.5 11.0 8.5 11.1 8.5 C 11.1 8.5 11.1 8.5 11.1 8.5 Z M 10.7 1.8 C 10.7 1.7 10.7 1.7 10.7 1.8 C 10.7 1.8 10.7 1.8 10.7 1.8 Z M 10.9 11.0 C 10.8 11.0 10.8 11.0 10.9 11.0 C 10.9 11.0 10.9 11.0 10.9 11.0 Z M 4.7 4.6 C 5.6 5.4 4.1 4.4 4.7 4.6 C 4.7 4.6 4.7 4.6 4.7 4.6 Z M 5.4 6.0 C 5.4 6.0 5.4 6.0 5.4 6.0 C 5.4 6.0 5.4 6.0 5.4 6.0 Z M 13.3 13.1 C 13.3 13.1 13.3 13.1 13.3 13.1 C 13.3 13.1 13.3 13.1 13.3 13.1 Z M 5.6 8.8 C 5.6 8.8 5.6 8.8 5.6 8.8 C 5.6 8.8 5.6 8.8 5.6 8.8 Z M 8.2 10.6 C 8.1 10.6 8.1 10.6 8.2 10.6 C 8.2 10.6 8.2 10.6 8.2 10.6 Z M 10.3 8.9 C 11.2 10.2 9.3 8.3 10.3 8.9 C 10.3 8.9 10.3 8.9 10.3 8.9 Z M 10.4 13.9 C 10.3 14.0 10.3 14.0 10.4 13.9 C 10.4 13.9 10.4 13.9 10.4 13.9 Z M 12.8 14.8 C 12.7 14.9 12.7 14.9 12.8 14.8 C 12.8 14.8 12.8 14.8 12.8 14.8 Z M 14.0 15.2 C 13.9 15.3 13.9 15.3 14.0 15.2 C 14.0 15.2 14.0 15.2 14.0 15.2 Z M 9.0 3.1 C 9.1 3.2 9.1 3.2 9.0 3.1 C 9.0 3.1 9.0 3.1 9.0 3.1 Z M 12.1 5.9 C 12.2 5.9 12.2 5.9 12.1 5.9 C 12.1 5.9 12.1 5.9 12.1 5.9 Z M 11.1 6.0 C 11.2 6.0 11.2 6.0 11.1 6.0 C 11.1 6.0 11.1 6.0 11.1 6.0 Z M 7.7 1.5 C 7.8 1.5 7.8 1.5 7.7 1.5 C 7.7 1.5 7.7 1.5 7.7 1.5 Z M 7.2 6.2 C 7.3 6.2 7.3 6.2 7.2 6.2 C 7.2 6.2 7.2 6.2 7.2 6.2 Z M 5.8 5.9 C 5.9 5.9 5.9 5.9 5.8 5.9 C 5.8 5.9 5.8 5.9 5.8 5.9 Z M 2.6 3.1 C 2.7 3.1 2.7 3.1 2.6 3.1 C 2.6 3.1 2.6 3.1 2.6 3.1 Z M 4.6 5.7 C 4.6 5.7 4.6 5.7 4.6 5.7 C 4.6 5.7 4.6 5.7 4.6 5.7 Z M 14.1 2.0 C 14.1 2.0 14.1 2.0 14.1 2.0 C 14.1 2.0 14.1 2.0 14.1 2.0 Z M 14.7 4.1 C 14.7 4.0 14.7 4.0 14.7 4.1 C 14.7 4.1 14.7 4.1 14.7 4.1 Z M 9.7 7.6 C 10.5 8.2 9.0 7.7 9.7 7.6 M 8.1 5.3 C 8.1 5.3 8.1 5.3 8.1 5.3 C 8.1 5.3 8.1 5.3 8.1 5.3 Z M 11.4 11.0 C 10.4 10.9 11.5 10.3 11.4 11.0 C 11.4 11.0 11.4 11.0 11.4 11.0 Z M 5.8 7.9 C 5.7 7.9 5.7 7.9 5.8 7.9 C 5.8 7.9 5.8 7.9 5.8 7.9 Z M 6.6 8.8 C 6.5 8.8 6.5 8.8 6.6 8.8 C 6.6 8.8 6.6 8.8 6.6 8.8 Z M 11.5 13.2 C 11.5 13.2 11.5 13.2 11.5 13.2 M 9.3 5.8 C 9.3 5.8 9.2 5.8 9.2 5.8 C 8.3 5.4 8.5 5.5 9.2 5.8 C 9.2 5.8 9.3 5.8 9.3 5.8 M 11.7 11.7 C 11.7 11.6 11.7 11.6 11.7 11.7 C 11.7 11.7 11.7 11.7 11.7 11.7 Z M 12.5 14.0 C 12.5 14.0 12.5 14.0 12.5 14.0 C 12.5 14.0 12.5 14.0 12.5 14.0 Z M 9.7 5.2 C 8.3 4.2 8.9 4.5 9.7 5.2 M 13.4 4.9 C 13.4 4.9 13.4 4.9 13.4 4.9 C 13.4 4.9 13.4 4.9 13.4 4.9 Z M 13.4 4.9 " fill="#FEFFFE"></path></g></svg>