<?xml version="1.0" encoding="UTF-8" standalone="no"?><svg xmlns="http://www.w3.org/2000/svg" xmlns:xlink="http://www.w3.org/1999/xlink" clip-rule="evenodd" stroke-miterlimit="10" viewBox="0 0 29 30"><desc>SVG generated by Keynote</desc><defs></defs><g transform="matrix(1.00, 0.00, -0.00, -1.00, 0.0, 30.0)"><path d="M 12.4 25.1 C 12.2 25.2 11.6 25.0 11.5 25.2 M 12.4 25.1 C 11.5 24.2 10.5 24.1 9.1 23.9 C 7.7 23.9 9.4 24.8 9.3 25.2 C 7.4 25.5 7.3 24.9 7.4 23.9 C 6.8 24.5 4.6 23.4 5.1 24.6 C 8.1 24.6 2.8 24.9 5.6 25.6 C 5.9 25.8 5.1 26.1 4.8 26.1 C 5.7 26.6 4.1 27.2 5.7 27.6 C 6.0 28.4 5.7 28.0 6.8 28.7 C 7.2 28.7 7.0 28.5 6.9 28.3 C 7.0 27.4 8.3 28.8 9.0 28.2 C 10.1 29.4 10.6 28.0 9.8 27.5 C 10.5 27.7 11.8 28.9 12.3 28.0 C 13.0 28.6 14.9 28.2 13.4 27.5 C 12.3 27.0 13.1 26.7 13.1 26.4 C 12.7 26.1 11.7 26.5 11.5 26.3 C 11.7 26.1 13.0 25.6 11.5 25.7 C 11.8 25.3 11.0 25.0 12.4 25.1 C 12.4 25.1 12.4 25.1 12.4 25.1 Z M 7.0 24.4 C 6.9 24.1 7.5 24.4 7.0 24.4 C 7.0 24.4 7.0 24.4 7.0 24.4 Z M 11.9 28.6 C 11.8 28.3 12.5 28.7 11.9 28.6 C 11.9 28.6 11.9 28.6 11.9 28.6 Z M 7.2 28.3 C 7.2 28.0 7.8 28.3 7.2 28.3 C 7.2 28.3 7.2 28.3 7.2 28.3 Z M 8.3 24.6 C 9.2 24.9 7.7 25.1 7.6 24.8 C 7.7 24.8 8.1 24.3 8.3 24.6 C 8.3 24.6 8.3 24.6 8.3 24.6 Z M 8.9 26.4 C 8.9 26.3 9.3 26.3 9.3 26.6 C 9.1 26.7 8.8 26.6 8.9 26.4 C 8.9 26.4 8.9 26.4 8.9 26.4 Z M 4.4 25.1 C 4.5 25.0 4.8 25.0 4.8 25.3 C 4.6 25.4 4.4 25.3 4.4 25.1 C 4.4 25.1 4.4 25.1 4.4 25.1 Z M 9.5 25.4 C 9.7 25.5 9.9 25.8 9.6 25.8 C 9.5 25.7 8.9 25.6 9.5 25.4 C 9.5 25.4 9.5 25.4 9.5 25.4 Z M 10.5 24.4 C 11.2 24.6 10.0 25.0 9.9 24.9 C 9.7 24.7 10.0 24.1 10.5 24.4 C 10.5 24.4 10.5 24.4 10.5 24.4 Z M 10.0 25.9 C 10.7 26.0 9.8 26.1 10.0 25.9 C 10.0 25.9 10.0 25.9 10.0 25.9 Z M 5.1 27.5 C 5.8 27.6 4.8 27.7 5.1 27.5 C 5.1 27.5 5.1 27.5 5.1 27.5 Z M 8.7 28.5 C 9.4 28.6 8.5 28.7 8.7 28.5 C 8.7 28.5 8.7 28.5 8.7 28.5 Z M 6.9 25.2 C 5.9 25.2 6.7 24.4 6.9 25.2 C 6.9 25.2 6.9 25.2 6.9 25.2 Z M 12.0 24.3 C 11.0 24.3 11.5 23.5 12.0 24.3 C 12.0 24.3 12.0 24.3 12.0 24.3 Z M 5.9 25.0 C 6.1 25.9 7.1 22.6 5.9 23.7 C 4.9 24.0 5.0 21.5 5.9 22.3 C 6.0 21.6 6.1 21.6 5.6 21.1 C 6.4 21.2 6.7 19.7 6.3 19.0 C 5.7 18.4 6.3 20.1 5.6 18.9 C 5.4 16.7 4.9 18.8 4.0 17.6 C 4.0 17.5 4.4 17.6 4.2 17.3 C 3.4 16.9 2.9 18.1 2.3 17.2 C 2.4 17.6 1.5 19.2 2.2 18.6 C 3.0 18.6 1.3 20.3 2.5 20.5 C 2.0 20.9 2.8 21.7 2.1 22.1 C 1.9 22.6 2.6 22.7 2.7 22.6 C 3.3 22.7 1.4 23.0 2.5 23.8 C 2.2 23.8 2.3 25.8 2.7 24.4 C 2.6 24.8 2.4 27.0 3.5 25.9 C 4.0 24.4 4.6 27.4 4.7 25.7 C 4.8 24.4 4.6 24.1 5.1 25.1 C 5.1 25.4 5.2 26.9 5.7 25.7 C 5.5 25.4 5.6 24.8 5.9 25.0 C 5.9 25.0 5.9 25.0 5.9 25.0 Z M 4.3 25.2 C 4.3 24.4 4.7 25.1 4.3 25.2 C 4.3 25.2 4.3 25.2 4.3 25.2 Z M 1.8 22.0 C 1.8 21.1 2.2 22.0 1.8 22.0 C 1.8 22.0 1.8 22.0 1.8 22.0 Z M 6.2 22.9 C 5.9 22.4 7.0 22.6 6.2 22.9 C 6.2 22.9 6.2 22.9 6.2 22.9 Z M 2.7 23.5 C 2.7 23.4 2.9 23.7 2.9 23.8 C 2.9 23.8 2.7 23.6 2.7 23.5 C 2.7 23.5 2.7 23.5 2.7 23.5 Z M 6.2 21.7 C 5.7 20.5 7.1 21.7 6.2 21.7 C 6.2 21.7 6.2 21.7 6.2 21.7 Z M 5.1 19.2 C 4.0 18.7 5.4 18.2 5.1 19.2 C 5.1 19.2 5.1 19.2 5.1 19.2 Z M 2.6 20.1 C 2.9 20.4 2.5 20.3 2.6 20.1 C 2.6 20.1 2.6 20.1 2.6 20.1 Z M 2.5 25.4 C 2.7 25.6 2.3 25.6 2.5 25.4 C 2.5 25.4 2.5 25.4 2.5 25.4 Z M 2.7 18.6 C 3.1 18.8 2.5 19.0 2.7 18.6 C 2.7 18.6 2.7 18.6 2.7 18.6 Z M 5.7 22.6 C 6.7 23.7 4.4 23.6 5.7 22.6 C 5.7 22.6 5.7 22.6 5.7 22.6 Z M 5.8 24.3 C 6.0 25.0 5.3 24.1 5.4 23.9 C 5.5 23.9 5.8 24.2 5.8 24.3 C 5.8 24.3 5.8 24.3 5.8 24.3 Z M 5.6 21.5 C 6.1 22.3 5.4 22.1 5.6 21.5 C 5.6 21.5 5.6 21.5 5.6 21.5 Z M 6.1 23.3 C 6.0 23.6 6.0 23.0 6.1 23.3 C 6.1 23.3 6.1 23.3 6.1 23.3 Z M 6.6 20.5 C 6.5 20.8 6.5 20.2 6.6 20.5 C 6.6 20.5 6.6 20.5 6.6 20.5 Z M 6.3 25.2 C 6.2 25.5 6.2 24.9 6.3 25.2 C 6.3 25.2 6.3 25.2 6.3 25.2 Z M 6.0 20.6 C 5.6 20.4 4.7 21.1 5.5 19.6 C 5.7 19.4 6.3 20.3 6.0 20.6 C 6.0 20.6 6.0 20.6 6.0 20.6 Z M 15.4 25.1 C 10.6 23.8 12.5 26.1 12.5 26.5 C 12.1 27.1 12.9 27.5 14.0 27.9 C 15.8 29.3 14.9 26.4 16.3 27.9 C 18.8 29.8 16.8 26.2 18.7 28.2 C 18.8 28.7 20.5 28.3 20.2 28.2 C 21.9 29.1 22.0 27.4 21.9 27.3 C 22.7 27.5 24.3 29.3 25.2 28.0 C 25.5 27.8 25.8 27.9 26.2 28.0 C 26.5 27.3 27.2 27.7 26.3 27.2 C 27.7 27.1 25.9 26.0 26.3 25.2 C 27.1 24.8 25.2 24.3 26.6 23.8 C 25.5 22.4 27.4 25.1 26.6 20.3 C 26.5 22.2 25.7 18.1 26.4 19.1 C 27.3 20.8 26.1 17.0 26.6 15.2 C 26.2 14.7 25.2 12.7 26.3 12.8 C 27.6 10.4 25.5 11.1 26.6 9.9 C 27.0 9.0 26.1 9.2 26.1 8.8 C 26.9 7.6 26.4 7.3 26.6 4.7 C 26.7 3.2 26.6 2.5 26.4 2.4 C 25.7 2.7 25.5 3.1 25.3 3.6 C 25.0 3.9 24.8 4.3 24.4 4.4 C 24.3 4.5 24.1 4.5 24.0 4.6 C 23.8 4.7 23.6 5.0 23.5 5.3 C 22.7 6.6 21.8 8.2 23.2 6.4 C 22.7 7.2 24.7 9.1 22.5 8.8 C 23.4 9.5 21.6 9.3 22.7 10.8 C 24.2 6.3 23.3 14.5 22.6 11.5 C 22.1 12.1 22.2 13.3 22.6 12.3 C 24.0 11.5 21.9 14.6 23.6 13.0 C 23.2 15.2 24.7 14.6 23.6 15.2 C 21.8 15.7 24.1 15.1 23.6 16.3 C 23.5 18.8 21.4 16.5 22.8 18.2 C 21.9 20.0 23.6 19.0 23.9 20.0 C 25.1 20.8 22.9 21.9 22.7 20.0 C 23.4 21.4 22.1 19.9 22.9 21.4 C 24.1 21.3 21.7 21.8 22.6 22.2 C 22.9 23.4 23.6 23.5 23.6 23.8 C 23.7 25.4 22.5 23.8 23.4 25.0 C 23.4 25.1 23.5 25.1 23.5 25.2 C 23.1 25.2 21.4 24.1 21.6 24.4 C 23.3 24.5 21.4 25.7 20.6 25.1 C 21.6 25.0 18.8 23.5 19.0 24.4 C 21.9 27.0 17.1 23.8 17.1 24.7 C 18.8 26.1 13.7 24.8 14.9 24.2 C 14.8 24.3 15.5 25.1 15.4 25.1 M 21.3 24.6 C 22.7 24.8 20.1 24.9 21.3 24.6 M 20.9 24.3 C 21.9 24.7 19.4 23.9 20.8 24.1 C 20.9 24.1 20.8 24.2 20.9 24.3 M 22.5 20.9 C 22.9 21.3 22.2 21.4 22.5 20.9 M 23.4 20.4 C 23.7 19.7 23.4 21.6 23.4 20.4 M 23.1 9.0 C 25.2 8.9 21.9 10.8 23.1 9.0 M 22.6 16.4 C 22.9 17.8 21.7 15.9 22.6 16.4 M 23.2 16.9 C 23.5 17.6 22.7 16.9 23.2 16.9 M 23.1 11.1 C 23.1 11.0 23.1 11.0 23.1 11.1 C 23.1 11.1 23.1 11.1 23.1 11.1 Z M 23.1 7.7 C 23.1 7.7 23.1 7.7 23.1 7.7 C 23.1 7.7 23.1 7.7 23.1 7.7 Z M 23.3 14.3 C 22.8 15.4 23.1 12.7 23.3 14.3 C 23.3 14.3 23.3 14.3 23.3 14.3 Z M 26.4 7.3 C 26.4 7.4 26.4 7.4 26.4 7.3 C 26.4 7.3 26.4 7.3 26.4 7.3 Z M 21.1 25.6 C 21.1 25.6 21.1 25.6 21.1 25.6 C 21.1 25.6 21.1 25.6 21.1 25.6 Z M 16.3 24.8 C 16.6 25.1 15.4 24.6 16.3 24.8 C 16.3 24.8 16.3 24.8 16.3 24.8 Z M 14.2 27.3 C 14.1 27.3 14.1 27.3 14.2 27.3 C 14.2 27.3 14.2 27.3 14.2 27.3 Z M 20.6 26.8 C 20.5 26.8 20.5 26.8 20.6 26.8 C 20.6 26.8 20.6 26.8 20.6 26.8 Z M 19.9 25.2 C 18.3 24.0 21.8 25.5 19.9 25.2 C 19.9 25.2 19.9 25.2 19.9 25.2 Z M 26.3 15.8 C 25.7 15.7 26.4 14.6 26.3 15.8 C 26.3 15.8 26.3 15.8 26.3 15.8 Z M 23.8 20.5 C 23.6 20.2 24.0 20.0 23.8 20.5 C 23.8 20.5 23.8 20.5 23.8 20.5 Z M 22.2 21.6 C 22.0 21.3 22.4 21.2 22.2 21.6 C 22.2 21.6 22.2 21.6 22.2 21.6 Z M 16.2 24.5 C 16.2 24.4 16.2 24.4 16.2 24.5 C 16.2 24.5 16.2 24.5 16.2 24.5 Z M 18.3 25.4 C 16.5 24.3 20.4 26.0 18.3 25.4 C 18.3 25.4 18.3 25.4 18.3 25.4 Z M 16.7 25.7 C 17.5 26.1 15.2 25.5 16.7 25.7 M 18.9 27.4 C 19.9 26.9 18.8 29.4 18.9 27.4 C 18.9 27.4 18.9 27.4 18.9 27.4 Z M 26.1 27.4 C 26.1 27.4 26.1 27.4 26.1 27.4 C 26.1 27.4 26.1 27.4 26.1 27.4 Z M 22.5 24.6 C 22.7 24.6 22.8 24.6 22.9 24.6 C 22.9 24.6 22.9 24.6 22.9 24.7 C 22.8 24.7 22.3 24.8 22.5 24.6 C 22.5 24.6 22.5 24.6 22.5 24.6 Z M 13.0 24.4 C 14.1 24.4 12.5 24.6 13.0 24.4 C 13.0 24.4 13.0 24.4 13.0 24.4 Z M 25.0 22.3 C 24.8 20.2 25.6 23.9 25.0 22.3 C 25.0 22.3 25.0 22.3 25.0 22.3 Z M 23.7 14.9 C 23.8 14.9 23.8 14.9 23.7 14.9 C 23.7 14.9 23.7 14.9 23.7 14.9 Z M 23.3 13.8 C 23.3 13.7 23.3 13.7 23.3 13.8 C 23.3 13.8 23.3 13.8 23.3 13.8 Z M 24.4 8.2 C 24.4 8.1 24.4 8.1 24.4 8.2 C 24.4 8.2 24.4 8.2 24.4 8.2 Z M 22.7 12.9 C 22.8 12.8 22.8 12.8 22.7 12.9 C 22.7 12.9 22.7 12.9 22.7 12.9 Z M 23.0 9.5 C 23.1 9.4 23.1 9.4 23.0 9.5 C 23.0 9.5 23.0 9.5 23.0 9.5 Z M 22.1 10.5 C 22.1 10.4 22.1 10.4 22.1 10.5 C 22.1 10.5 22.1 10.5 22.1 10.5 Z M 26.9 18.0 C 26.9 18.0 26.9 18.0 26.9 18.0 C 26.9 18.0 26.9 18.0 26.9 18.0 Z M 17.8 24.1 C 18.0 24.2 18.0 24.2 17.8 24.1 C 17.8 24.1 17.8 24.1 17.8 24.1 Z M 23.5 9.5 C 23.5 9.5 23.5 9.5 23.5 9.5 C 23.5 9.5 23.5 9.5 23.5 9.5 Z M 24.3 18.1 C 25.3 18.3 23.1 18.5 24.3 17.9 C 24.3 17.9 24.2 18.1 24.3 18.1 M 25.9 17.1 C 25.9 17.2 25.9 17.2 25.9 17.1 C 25.9 17.1 25.9 17.1 25.9 17.1 Z M 26.5 22.1 C 26.5 22.2 26.5 22.2 26.5 22.1 C 26.5 22.1 26.5 22.1 26.5 22.1 Z M 22.6 13.5 C 22.0 13.7 23.0 12.5 22.6 13.6 M 26.1 7.1 C 25.5 7.6 26.5 5.6 26.1 7.2 M 12.0 24.7 C 12.0 25.1 11.2 24.5 12.0 24.7 M 27.0 23.6 C 27.4 24.0 26.7 24.4 27.0 23.6 M 25.8 20.6 C 25.2 20.6 26.2 19.6 25.8 20.8 M 26.0 10.4 C 26.0 10.3 26.0 10.3 26.0 10.4 C 26.0 10.4 26.0 10.4 26.0 10.4 Z M 23.0 23.5 C 23.0 23.4 23.0 23.4 23.0 23.5 C 23.0 23.5 23.0 23.5 23.0 23.5 Z M 24.1 19.5 C 23.4 19.8 24.5 18.8 24.1 19.5 M 24.2 26.0 C 23.4 25.6 23.6 25.6 23.9 25.7 C 24.4 25.8 25.3 26.1 24.2 26.0 C 24.2 26.0 24.2 26.0 24.2 26.0 M 26.3 4.4 C 25.2 6.5 26.9 2.9 26.3 4.4 M 23.6 11.9 C 22.5 13.1 24.2 10.8 23.6 11.9 M 23.4 22.9 C 22.9 22.6 23.8 22.1 23.4 22.9 M 14.4 24.6 C 13.3 24.5 15.4 24.2 14.4 24.6 M 26.1 13.5 C 26.1 13.4 26.1 13.4 26.1 13.5 C 26.1 13.5 26.1 13.5 26.1 13.5 Z M 20.6 28.7 C 20.7 28.8 20.7 28.8 20.6 28.7 C 20.6 28.7 20.6 28.7 20.6 28.7 Z M 22.7 6.2 C 22.8 6.1 22.8 6.1 22.7 6.2 C 22.7 6.2 22.7 6.2 22.7 6.2 Z M 24.1 12.3 C 24.1 12.3 24.1 12.3 24.1 12.3 C 24.1 12.3 24.1 12.3 24.1 12.3 Z M 22.6 8.1 C 22.7 8.0 22.7 8.0 22.6 8.1 C 22.6 8.1 22.6 8.1 22.6 8.1 Z M 24.9 15.8 C 24.9 15.8 24.9 15.8 24.9 15.8 C 24.9 15.8 24.9 15.8 24.9 15.8 Z M 22.2 16.2 C 22.2 16.2 22.2 16.2 22.2 16.2 C 22.2 16.2 22.2 16.2 22.2 16.2 Z M 23.3 19.8 C 23.4 19.8 23.4 19.8 23.3 19.8 C 23.3 19.8 23.3 19.8 23.3 19.8 Z M 22.4 14.8 C 22.2 13.0 23.3 15.8 22.4 14.8 C 22.4 14.8 22.4 14.8 22.4 14.8 Z M 25.1 18.9 C 25.1 18.9 25.1 18.9 25.1 18.9 C 25.1 18.9 25.1 18.9 25.1 18.9 Z M 23.2 18.6 C 22.4 17.1 24.5 18.3 23.2 18.6 M 22.5 23.6 C 22.1 22.9 23.2 24.0 22.5 23.6 M 24.2 27.9 C 24.2 27.9 24.2 27.9 24.2 27.9 C 24.2 27.9 24.2 27.9 24.2 27.9 Z M 24.7 27.6 C 24.8 27.6 24.8 27.6 24.7 27.6 C 24.7 27.6 24.7 27.6 24.7 27.6 Z M 21.6 24.1 C 21.7 24.1 21.7 24.1 21.6 24.1 C 21.6 24.1 21.6 24.1 21.6 24.1 Z M 25.7 28.6 C 25.9 28.7 25.9 28.7 25.7 28.6 C 25.7 28.6 25.7 28.6 25.7 28.6 Z M 22.2 16.9 C 22.2 16.9 22.2 16.9 22.2 16.9 C 22.2 16.9 22.2 16.9 22.2 16.9 Z M 22.2 7.6 C 22.2 7.5 22.2 7.5 22.2 7.6 C 22.2 7.6 22.2 7.6 22.2 7.6 Z M 16.3 27.5 C 16.4 27.5 16.4 27.5 16.3 27.5 C 16.3 27.5 16.3 27.5 16.3 27.5 Z M 23.3 16.0 C 23.4 16.0 23.4 16.0 23.3 16.0 C 23.3 16.0 23.3 16.0 23.3 16.0 Z M 22.2 27.7 C 22.3 27.8 22.3 27.8 22.2 27.7 C 22.2 27.7 22.2 27.7 22.2 27.7 Z M 23.1 16.7 C 23.1 16.7 23.1 16.7 23.1 16.7 C 23.1 16.7 23.1 16.7 23.1 16.7 Z M 26.3 13.9 C 26.3 13.9 26.3 13.9 26.3 13.9 C 26.3 13.9 26.3 13.9 26.3 13.9 Z M 26.9 10.7 C 26.9 10.7 26.9 10.7 26.9 10.7 C 26.9 10.7 26.9 10.7 26.9 10.7 Z M 24.4 14.3 C 24.4 14.2 24.4 14.2 24.4 14.3 C 24.4 14.3 24.4 14.3 24.4 14.3 Z M 20.4 26.5 C 15.1 25.6 23.8 26.1 20.4 26.5 M 24.6 13.5 C 24.4 16.7 23.5 11.3 24.6 13.5 C 24.3 13.2 24.6 13.4 24.6 13.5 M 21.5 6.5 C 22.3 6.1 23.0 5.7 23.5 5.3 C 24.1 4.9 24.5 4.5 24.7 4.1 C 24.9 3.9 25.0 3.7 25.0 3.5 C 24.8 3.0 23.0 5.0 24.5 3.3 C 26.4 3.0 25.9 0.7 24.1 2.9 C 21.6 3.3 24.9 1.5 22.7 2.4 C 20.1 2.6 21.8 2.0 19.7 2.1 C 18.1 3.3 18.7 1.5 17.8 2.7 C 19.2 1.4 15.7 3.0 15.7 2.4 C 17.7 1.7 8.9 2.4 13.6 2.8 C 11.9 3.4 12.0 2.3 11.3 2.2 C 10.7 2.9 7.8 1.6 7.0 2.3 C 7.3 2.5 8.0 2.5 8.3 2.8 C 8.8 3.3 6.9 2.7 7.1 2.7 C 6.5 3.0 4.3 3.7 6.4 2.4 C 6.1 1.8 3.9 2.7 3.5 2.2 C 2.8 2.2 2.4 2.3 2.3 2.4 C 2.6 3.2 3.1 2.8 2.4 3.0 C 2.4 4.9 2.4 6.2 2.6 6.3 C 2.4 7.3 1.7 7.0 2.4 8.6 C 1.1 10.0 4.9 11.9 2.4 11.0 C 3.0 12.1 1.3 11.7 2.9 12.5 C 2.1 11.3 1.6 15.8 2.8 14.3 C 3.2 15.1 1.2 17.2 2.8 17.3 C 4.0 18.8 5.1 19.0 6.2 17.5 C 5.3 17.3 7.2 16.0 5.6 16.6 C 5.1 18.1 5.1 13.1 5.6 14.5 C 7.5 15.8 4.5 11.3 5.8 11.2 C 5.1 11.6 4.7 7.2 6.1 9.5 C 6.2 8.9 5.5 8.2 6.4 8.1 C 6.2 10.3 4.9 5.8 5.7 6.8 C 6.0 7.2 6.2 6.9 6.3 6.3 C 7.1 6.5 8.0 6.4 7.4 5.9 C 4.5 4.0 8.6 6.3 8.6 5.6 C 10.2 5.2 9.4 7.2 9.7 5.8 C 10.2 6.1 12.5 6.1 11.2 6.5 C 10.6 6.3 12.0 4.3 12.6 6.0 C 10.6 6.9 15.4 6.5 14.6 6.0 C 10.5 5.1 19.1 5.0 15.7 5.9 C 17.0 6.8 15.1 6.2 17.3 5.8 C 17.2 5.3 19.2 4.8 18.2 5.9 C 17.8 7.4 19.9 3.8 20.1 5.9 C 19.6 6.8 23.3 5.2 21.4 6.3 C 21.3 6.4 21.4 6.5 21.5 6.5 M 20.9 6.4 C 21.5 6.0 21.0 6.8 20.9 6.4 M 21.5 6.0 C 21.5 6.0 21.5 6.0 21.5 6.0 C 21.5 6.0 21.5 6.0 21.5 6.0 Z M 17.6 5.8 C 17.6 5.8 17.6 5.8 17.6 5.8 C 17.6 5.8 17.6 5.8 17.6 5.8 Z M 14.3 1.8 C 14.4 1.9 14.4 1.9 14.3 1.8 C 14.3 1.8 14.3 1.8 14.3 1.8 Z M 14.9 5.7 C 14.9 5.7 14.9 5.7 14.9 5.7 C 14.9 5.7 14.9 5.7 14.9 5.7 Z M 19.2 5.5 C 19.2 5.5 19.2 5.5 19.2 5.5 C 19.2 5.5 19.2 5.5 19.2 5.5 Z M 15.1 6.3 C 14.9 5.7 15.9 6.7 15.0 6.4 C 15.0 6.3 15.2 6.3 15.1 6.3 M 11.8 6.5 C 11.7 6.4 11.7 6.4 11.8 6.5 M 1.8 4.6 C 1.7 4.5 1.7 4.5 1.8 4.6 M 6.5 9.4 C 6.4 9.5 6.4 9.5 6.5 9.4 M 8.1 5.9 C 7.0 6.0 7.6 5.6 8.1 5.9 M 6.2 12.2 C 6.5 11.1 6.5 14.0 6.2 12.2 M 6.5 13.9 C 6.5 14.0 6.5 14.0 6.5 13.9 M 6.3 7.1 C 6.2 7.1 6.2 7.1 6.3 7.1 C 6.3 7.1 6.3 7.1 6.3 7.1 Z M 8.7 6.1 C 10.2 6.5 7.8 6.7 8.7 6.1 M 16.9 6.3 C 16.1 6.6 17.2 5.6 16.9 6.3 M 18.6 6.0 C 18.7 6.0 18.7 6.0 18.6 6.0 C 18.6 6.0 18.6 6.0 18.6 6.0 Z M 6.2 9.9 C 6.2 9.8 6.2 9.8 6.2 9.9 C 6.2 9.9 6.2 9.9 6.2 9.9 Z M 6.3 11.7 C 6.3 11.6 6.3 11.6 6.3 11.7 C 6.3 11.7 6.3 11.7 6.3 11.7 Z M 2.0 11.9 C 2.0 11.8 2.0 11.8 2.0 11.9 C 2.0 11.9 2.0 11.9 2.0 11.9 Z M 18.1 4.2 C 19.2 4.5 16.5 5.6 17.0 4.6 C 17.0 4.1 17.9 4.3 18.1 4.2 M 8.9 4.8 C 7.7 3.3 11.0 6.8 8.9 4.8 M 5.5 13.5 C 3.8 13.7 6.8 12.9 5.5 13.5 M 5.8 16.0 C 5.5 16.6 5.6 11.5 6.1 15.4 C 6.4 15.8 6.0 15.9 5.8 16.0 M 11.5 5.8 C 10.9 5.0 13.2 6.1 11.5 5.8 M 3.3 4.4 C 3.8 5.5 4.3 7.5 3.4 6.0 C 2.2 5.0 2.8 3.1 3.3 4.4 M 21.3 5.5 C 19.5 6.8 22.2 4.4 21.3 5.5 M 17.0 5.4 C 17.0 5.5 17.0 5.5 17.0 5.4 C 17.0 5.4 17.0 5.4 17.0 5.4 Z M 15.3 5.6 C 15.2 5.5 15.2 5.5 15.3 5.6 M 19.8 6.7 C 19.8 6.6 19.8 6.6 19.8 6.7 M 4.6 5.6 C 4.5 5.6 4.5 5.6 4.6 5.6 M 8.1 5.6 C 5.3 4.3 8.9 5.3 8.1 5.6 M 11.5 3.1 C 10.7 2.4 12.8 3.0 11.5 3.1 M 6.0 6.1 C 5.4 6.2 5.1 5.5 5.1 5.2 C 5.1 4.7 5.4 4.5 5.9 6.0 C 6.0 6.0 6.0 6.1 6.0 6.1 M 9.0 5.7 C 8.9 5.7 8.9 5.7 9.0 5.7 C 9.0 5.7 9.0 5.7 9.0 5.7 Z M 3.1 4.7 C 3.1 4.7 3.1 4.7 3.1 4.7 C 3.1 4.7 3.1 4.7 3.1 4.7 Z M 3.2 5.4 C 3.2 5.3 3.2 5.3 3.2 5.4 C 3.2 5.4 3.2 5.4 3.2 5.4 Z M 6.1 7.8 C 6.1 7.7 6.1 7.7 6.1 7.8 C 6.1 7.8 6.1 7.8 6.1 7.8 Z M 20.5 2.6 C 19.0 2.5 21.8 2.4 20.5 2.6 C 20.5 2.6 20.5 2.6 20.5 2.6 Z M 13.8 6.2 C 11.8 5.3 15.2 5.3 13.8 6.2 C 13.8 6.2 13.8 6.2 13.8 6.2 Z M 11.3 4.6 C 11.3 4.6 11.3 4.6 11.3 4.6 C 11.3 4.6 11.3 4.6 11.3 4.6 Z M 7.3 6.8 C 7.3 6.7 7.3 6.7 7.3 6.8 C 7.3 6.8 7.3 6.8 7.3 6.8 Z M 19.8 2.5 C 19.8 2.4 19.8 2.4 19.8 2.5 C 19.8 2.5 19.8 2.5 19.8 2.5 Z M 5.5 10.7 C 5.4 10.7 5.4 10.7 5.5 10.7 C 5.5 10.7 5.5 10.7 5.5 10.7 Z M 5.4 3.0 C 5.2 3.5 4.9 2.6 5.4 3.0 C 5.4 3.0 5.4 3.0 5.4 3.0 Z M 3.1 3.0 C 3.1 3.0 3.1 3.0 3.1 3.0 C 3.1 3.0 3.1 3.0 3.1 3.0 Z M 6.6 14.4 C 6.6 14.4 6.6 14.4 6.6 14.4 C 6.6 14.4 6.6 14.4 6.6 14.4 Z M 1.8 7.3 C 1.8 7.4 1.8 7.4 1.8 7.3 C 1.8 7.3 1.8 7.3 1.8 7.3 Z M 3.2 10.2 C 3.2 10.1 3.2 10.1 3.2 10.2 C 3.2 10.2 3.2 10.2 3.2 10.2 Z M 5.8 7.2 C 6.1 9.2 5.3 6.2 5.8 7.2 C 5.8 7.2 5.8 7.2 5.8 7.2 Z M 3.6 15.5 C 3.5 15.6 3.5 15.6 3.6 15.5 C 3.6 15.5 3.6 15.5 3.6 15.5 Z M 5.3 17.3 C 5.2 17.3 5.2 17.3 5.3 17.3 C 5.3 17.3 5.3 17.3 5.3 17.3 Z M 6.2 18.1 C 6.1 18.2 6.1 18.2 6.2 18.1 C 6.2 18.1 6.2 18.1 6.2 18.1 Z M 15.5 3.8 C 15.6 3.9 15.6 3.9 15.5 3.8 C 15.5 3.8 15.5 3.8 15.5 3.8 Z M 15.8 6.5 C 15.8 6.6 15.8 6.6 15.8 6.5 C 15.8 6.5 15.8 6.5 15.8 6.5 Z M 13.8 6.7 C 13.8 6.7 13.8 6.7 13.8 6.7 C 13.8 6.7 13.8 6.7 13.8 6.7 Z M 16.3 2.2 C 16.3 2.2 16.3 2.2 16.3 2.2 C 16.3 2.2 16.3 2.2 16.3 2.2 Z M 6.0 4.5 C 6.1 4.5 6.1 4.5 6.0 4.5 C 6.0 4.5 6.0 4.5 6.0 4.5 Z M 4.0 3.4 C 4.1 3.4 4.1 3.4 4.0 3.4 C 4.0 3.4 4.0 3.4 4.0 3.4 Z M 5.5 1.9 C 5.6 1.9 5.6 1.9 5.5 1.9 C 5.5 1.9 5.5 1.9 5.5 1.9 Z M 2.4 2.5 C 2.4 2.5 2.4 2.5 2.4 2.5 C 2.4 2.5 2.4 2.5 2.4 2.5 Z M 24.1 2.7 C 24.1 2.6 24.1 2.6 24.1 2.7 C 24.1 2.7 24.1 2.7 24.1 2.7 Z M 22.5 4.8 C 22.6 4.7 22.6 4.7 22.5 4.8 C 22.5 4.8 22.5 4.8 22.5 4.8 Z M 7.0 6.0 C 7.1 6.4 5.7 5.4 7.0 6.0 M 10.1 5.7 C 10.1 5.7 10.1 5.7 10.1 5.7 C 10.1 5.7 10.1 5.7 10.1 5.7 Z M 5.9 10.7 C 5.1 10.6 6.3 9.4 5.9 10.7 C 5.9 10.7 5.9 10.7 5.9 10.7 Z M 2.4 5.9 C 2.4 5.9 2.4 5.9 2.4 5.9 C 2.4 5.9 2.4 5.9 2.4 5.9 Z M 2.7 7.2 C 2.7 7.2 2.7 7.2 2.7 7.2 C 2.7 7.2 2.7 7.2 2.7 7.2 Z M 5.0 14.5 C 4.9 14.5 4.9 14.5 5.0 14.5 M 10.9 6.5 C 10.2 6.1 10.3 6.2 10.9 6.5 M 5.9 11.9 C 5.8 11.9 5.8 11.9 5.9 11.9 C 5.9 11.9 5.9 11.9 5.9 11.9 Z M 5.5 15.9 C 5.4 15.8 5.4 15.8 5.5 15.9 C 5.5 15.9 5.5 15.9 5.5 15.9 Z M 12.9 5.9 C 12.6 4.9 13.2 5.1 12.9 5.9 M 19.5 5.6 C 19.5 5.5 19.5 5.5 19.5 5.6 C 19.5 5.6 19.5 5.6 19.5 5.6 Z M 19.5 5.6 " fill="#FEFFFE"></path></g></svg>