<?xml version="1.0" encoding="UTF-8" standalone="no"?><svg xmlns="http://www.w3.org/2000/svg" xmlns:xlink="http://www.w3.org/1999/xlink" clip-rule="evenodd" stroke-miterlimit="10" viewBox="0 0 29 30"><desc>SVG generated by Keynote</desc><defs></defs><g transform="matrix(1.00, 0.00, -0.00, -1.00, 0.0, 30.0)"><path d="M 12.5 24.5 C 12.3 24.6 11.7 24.4 11.6 24.5 M 12.5 24.5 C 11.6 23.5 10.6 23.5 9.2 23.3 C 7.8 23.3 9.5 24.2 9.4 24.5 C 7.5 24.9 7.4 24.2 7.5 23.3 C 6.9 23.9 4.7 22.7 5.2 24.0 C 8.3 24.0 2.9 24.3 5.7 25.0 C 6.0 25.2 5.2 25.5 4.9 25.5 C 5.9 26.0 4.2 26.6 5.8 27.0 C 6.1 27.8 5.8 27.4 6.9 28.0 C 7.4 28.1 7.1 27.8 7.1 27.7 C 7.1 26.8 8.4 28.2 9.2 27.6 C 10.2 28.8 10.7 27.4 9.9 26.9 C 10.7 27.0 11.9 28.3 12.5 27.4 C 13.1 28.0 15.0 27.6 13.5 26.9 C 12.4 26.4 13.2 26.0 13.2 25.8 C 12.8 25.5 11.8 25.9 11.6 25.6 C 11.8 25.5 13.1 25.0 11.6 25.1 C 11.9 24.7 11.1 24.4 12.5 24.5 C 12.5 24.5 12.5 24.5 12.5 24.5 Z M 7.1 23.8 C 7.0 23.5 7.6 23.8 7.1 23.8 C 7.1 23.8 7.1 23.8 7.1 23.8 Z M 12.0 28.0 C 11.9 27.7 12.6 28.0 12.0 28.0 C 12.0 28.0 12.0 28.0 12.0 28.0 Z M 7.4 27.7 C 7.3 27.4 8.0 27.7 7.4 27.7 C 7.4 27.7 7.4 27.7 7.4 27.7 Z M 8.5 24.0 C 9.3 24.3 7.9 24.4 7.7 24.1 C 7.9 24.2 8.2 23.7 8.5 24.0 C 8.5 24.0 8.5 24.0 8.5 24.0 Z M 9.0 25.8 C 9.0 25.7 9.4 25.7 9.4 26.0 C 9.2 26.1 8.9 25.9 9.0 25.8 C 9.0 25.8 9.0 25.8 9.0 25.8 Z M 4.5 24.5 C 4.6 24.4 4.9 24.4 4.9 24.7 C 4.7 24.8 4.5 24.6 4.5 24.5 C 4.5 24.5 4.5 24.5 4.5 24.5 Z M 9.6 24.8 C 9.8 24.9 10.0 25.2 9.7 25.2 C 9.6 25.1 9.0 25.0 9.6 24.8 C 9.6 24.8 9.6 24.8 9.6 24.8 Z M 10.6 23.8 C 11.3 23.9 10.1 24.4 10.1 24.3 C 9.8 24.0 10.1 23.5 10.6 23.8 C 10.6 23.8 10.6 23.8 10.6 23.8 Z M 10.2 25.3 C 10.8 25.4 10.0 25.5 10.2 25.3 C 10.2 25.3 10.2 25.3 10.2 25.3 Z M 5.2 26.9 C 5.9 27.0 4.9 27.1 5.2 26.9 C 5.2 26.9 5.2 26.9 5.2 26.9 Z M 8.8 27.9 C 9.5 28.0 8.6 28.1 8.8 27.9 C 8.8 27.9 8.8 27.9 8.8 27.9 Z M 7.0 24.6 C 6.0 24.6 6.8 23.8 7.0 24.6 C 7.0 24.6 7.0 24.6 7.0 24.6 Z M 12.1 23.7 C 11.1 23.7 11.6 22.9 12.1 23.7 C 12.1 23.7 12.1 23.7 12.1 23.7 Z M 6.0 24.4 C 6.2 25.3 7.3 22.0 6.0 23.1 C 5.0 23.4 5.1 20.9 6.0 21.7 C 6.1 21.0 6.2 21.0 5.7 20.5 C 6.5 20.6 6.9 19.1 6.5 18.4 C 5.8 17.8 6.4 19.4 5.7 18.2 C 5.5 16.0 5.0 18.1 4.1 17.0 C 4.1 16.9 4.5 17.0 4.3 16.7 C 3.5 16.3 3.0 17.4 2.4 16.6 C 2.5 17.0 1.6 18.5 2.3 18.0 C 3.1 18.0 1.4 19.7 2.6 19.9 C 2.1 20.3 2.9 21.1 2.2 21.5 C 2.0 22.0 2.7 22.0 2.8 22.0 C 3.4 22.0 1.6 22.3 2.6 23.2 C 2.3 23.2 2.4 25.2 2.8 23.8 C 2.7 24.2 2.5 26.4 3.6 25.2 C 4.1 23.8 4.7 26.8 4.8 25.1 C 4.9 23.8 4.7 23.5 5.2 24.5 C 5.2 24.8 5.3 26.3 5.8 25.0 C 5.6 24.8 5.7 24.2 6.0 24.4 C 6.0 24.4 6.0 24.4 6.0 24.4 Z M 4.4 24.5 C 4.4 23.8 4.8 24.5 4.4 24.5 C 4.4 24.5 4.4 24.5 4.4 24.5 Z M 1.9 21.4 C 1.9 20.5 2.3 21.4 1.9 21.4 C 1.9 21.4 1.9 21.4 1.9 21.4 Z M 6.3 22.2 C 6.0 21.8 7.1 21.9 6.3 22.2 C 6.3 22.2 6.3 22.2 6.3 22.2 Z M 2.8 22.9 C 2.8 22.8 3.0 23.0 3.1 23.2 C 3.0 23.2 2.9 22.9 2.8 22.9 C 2.8 22.9 2.8 22.9 2.8 22.9 Z M 6.3 21.1 C 5.8 19.9 7.2 21.1 6.3 21.1 C 6.3 21.1 6.3 21.1 6.3 21.1 Z M 5.2 18.6 C 4.1 18.1 5.5 17.6 5.2 18.6 C 5.2 18.6 5.2 18.6 5.2 18.6 Z M 2.7 19.5 C 3.0 19.8 2.6 19.7 2.7 19.5 C 2.7 19.5 2.7 19.5 2.7 19.5 Z M 2.6 24.8 C 2.8 25.0 2.4 25.0 2.6 24.8 C 2.6 24.8 2.6 24.8 2.6 24.8 Z M 2.8 18.0 C 3.2 18.2 2.6 18.4 2.8 18.0 C 2.8 18.0 2.8 18.0 2.8 18.0 Z M 5.9 22.0 C 6.8 23.0 4.5 23.0 5.9 22.0 C 5.9 22.0 5.9 22.0 5.9 22.0 Z M 6.0 23.7 C 6.1 24.4 5.4 23.5 5.5 23.2 C 5.6 23.3 5.9 23.6 6.0 23.7 C 6.0 23.7 6.0 23.7 6.0 23.7 Z M 5.8 20.9 C 6.2 21.7 5.5 21.5 5.8 20.9 C 5.8 20.9 5.8 20.9 5.8 20.9 Z M 6.3 22.7 C 6.2 23.0 6.1 22.4 6.3 22.7 C 6.3 22.7 6.3 22.7 6.3 22.7 Z M 6.7 19.9 C 6.6 20.2 6.6 19.6 6.7 19.9 C 6.7 19.9 6.7 19.9 6.7 19.9 Z M 6.4 24.5 C 6.3 24.8 6.3 24.3 6.4 24.5 C 6.4 24.5 6.4 24.5 6.4 24.5 Z M 6.1 20.0 C 5.7 19.8 4.8 20.5 5.6 19.0 C 5.9 18.8 6.4 19.6 6.1 20.0 C 6.1 20.0 6.1 20.0 6.1 20.0 Z M 15.6 24.5 C 10.7 23.2 12.6 25.5 12.6 25.9 C 12.2 26.5 13.0 26.9 14.1 27.3 C 15.9 28.7 15.0 25.8 16.4 27.2 C 19.0 29.1 16.9 25.6 18.8 27.6 C 18.9 28.1 20.6 27.7 20.3 27.6 C 22.0 28.5 22.1 26.8 22.0 26.6 C 22.8 26.9 24.4 28.7 25.3 27.3 C 25.6 27.2 26.0 27.2 26.3 27.3 C 26.6 26.7 27.3 27.1 26.4 26.6 C 27.8 26.5 26.0 25.4 26.5 24.6 C 27.2 24.2 25.3 23.6 26.7 23.2 C 25.6 21.8 27.5 24.4 26.7 19.6 C 26.6 21.6 25.8 17.5 26.5 18.4 C 27.4 20.2 26.2 16.4 26.7 14.6 C 26.3 14.1 25.3 12.1 26.4 12.2 C 27.7 9.8 25.6 10.5 26.7 9.3 C 27.1 8.4 26.2 8.6 26.2 8.1 C 27.1 7.0 26.5 6.7 26.7 4.1 C 26.8 2.5 26.8 1.9 26.6 1.8 C 25.8 2.0 25.6 2.5 25.4 2.9 C 25.2 3.3 24.9 3.6 24.5 3.8 C 24.4 3.9 24.2 3.9 24.1 3.9 C 23.9 4.0 23.7 4.4 23.6 4.7 C 22.8 6.0 21.9 7.6 23.3 5.8 C 22.8 6.6 24.9 8.5 22.6 8.2 C 23.5 8.9 21.7 8.6 22.8 10.2 C 24.3 5.7 23.4 13.9 22.7 10.9 C 22.2 11.5 22.3 12.7 22.7 11.7 C 24.1 10.8 22.0 14.0 23.8 12.4 C 23.3 14.6 24.8 14.0 23.7 14.6 C 21.9 15.1 24.2 14.5 23.7 15.6 C 23.7 18.2 21.5 15.9 22.9 17.6 C 22.0 19.4 23.8 18.4 24.0 19.3 C 25.3 20.2 23.0 21.3 22.8 19.4 C 23.5 20.8 22.2 19.3 23.0 20.8 C 24.2 20.6 21.8 21.2 22.7 21.6 C 23.0 22.8 23.7 22.9 23.8 23.2 C 23.8 24.8 22.6 23.2 23.5 24.3 C 23.5 24.4 23.6 24.5 23.6 24.6 C 23.2 24.6 21.5 23.5 21.7 23.8 C 23.4 23.9 21.5 25.1 20.7 24.4 C 21.7 24.3 18.9 22.9 19.1 23.8 C 22.1 26.4 17.2 23.1 17.2 24.1 C 18.9 25.5 13.8 24.2 15.0 23.6 C 14.9 23.7 15.6 24.5 15.6 24.5 M 21.4 24.0 C 22.8 24.1 20.2 24.3 21.4 24.0 M 21.0 23.6 C 22.0 24.1 19.5 23.3 20.9 23.5 C 21.0 23.5 20.9 23.6 21.0 23.6 M 22.6 20.3 C 23.0 20.7 22.3 20.7 22.6 20.3 M 23.5 19.8 C 23.8 19.1 23.5 21.0 23.5 19.8 M 23.2 8.3 C 25.3 8.3 22.0 10.2 23.2 8.3 M 22.7 15.8 C 23.0 17.2 21.9 15.2 22.7 15.8 M 23.3 16.3 C 23.6 17.0 22.8 16.3 23.3 16.3 M 23.2 10.5 C 23.2 10.4 23.2 10.4 23.2 10.5 C 23.2 10.5 23.2 10.5 23.2 10.5 Z M 23.2 7.1 C 23.2 7.1 23.2 7.1 23.2 7.1 C 23.2 7.1 23.2 7.1 23.2 7.1 Z M 23.4 13.7 C 22.9 14.8 23.2 12.0 23.4 13.7 C 23.4 13.7 23.4 13.7 23.4 13.7 Z M 26.5 6.7 C 26.5 6.7 26.5 6.7 26.5 6.7 C 26.5 6.7 26.5 6.7 26.5 6.7 Z M 21.2 25.0 C 21.2 25.0 21.2 25.0 21.2 25.0 C 21.2 25.0 21.2 25.0 21.2 25.0 Z M 16.4 24.2 C 16.7 24.5 15.6 24.0 16.4 24.2 C 16.4 24.2 16.4 24.2 16.4 24.2 Z M 14.3 26.6 C 14.2 26.7 14.2 26.7 14.3 26.6 C 14.3 26.6 14.3 26.6 14.3 26.6 Z M 20.7 26.1 C 20.6 26.2 20.6 26.2 20.7 26.1 C 20.7 26.1 20.7 26.1 20.7 26.1 Z M 20.0 24.5 C 18.4 23.4 21.9 24.9 20.0 24.5 C 20.0 24.5 20.0 24.5 20.0 24.5 Z M 26.4 15.2 C 25.9 15.1 26.5 14.0 26.4 15.2 C 26.4 15.2 26.4 15.2 26.4 15.2 Z M 23.9 19.9 C 23.7 19.6 24.1 19.3 23.9 19.9 C 23.9 19.9 23.9 19.9 23.9 19.9 Z M 22.3 21.0 C 22.1 20.7 22.5 20.6 22.3 21.0 C 22.3 21.0 22.3 21.0 22.3 21.0 Z M 16.3 23.9 C 16.3 23.8 16.3 23.8 16.3 23.9 C 16.3 23.9 16.3 23.9 16.3 23.9 Z M 18.4 24.8 C 16.6 23.7 20.5 25.4 18.4 24.8 C 18.4 24.8 18.4 24.8 18.4 24.8 Z M 16.8 25.1 C 17.6 25.5 15.3 24.9 16.8 25.1 M 19.0 26.8 C 20.0 26.3 18.9 28.7 19.0 26.8 C 19.0 26.8 19.0 26.8 19.0 26.8 Z M 26.2 26.8 C 26.2 26.7 26.2 26.7 26.2 26.8 C 26.2 26.8 26.2 26.8 26.2 26.8 Z M 22.7 24.0 C 22.8 24.0 22.9 24.0 23.0 24.0 C 23.0 24.0 23.0 24.0 23.0 24.1 C 22.9 24.1 22.4 24.2 22.7 24.0 C 22.7 24.0 22.7 24.0 22.7 24.0 Z M 13.2 23.7 C 14.2 23.8 12.6 24.0 13.2 23.7 C 13.2 23.7 13.2 23.7 13.2 23.7 Z M 25.1 21.6 C 24.9 19.6 25.7 23.3 25.1 21.6 C 25.1 21.6 25.1 21.6 25.1 21.6 Z M 23.8 14.3 C 23.9 14.3 23.9 14.3 23.8 14.3 C 23.8 14.3 23.8 14.3 23.8 14.3 Z M 23.4 13.2 C 23.4 13.1 23.4 13.1 23.4 13.2 C 23.4 13.2 23.4 13.2 23.4 13.2 Z M 24.5 7.6 C 24.6 7.5 24.6 7.5 24.5 7.6 C 24.5 7.6 24.5 7.6 24.5 7.6 Z M 22.9 12.2 C 22.9 12.2 22.9 12.2 22.9 12.2 C 22.9 12.2 22.9 12.2 22.9 12.2 Z M 23.1 8.9 C 23.2 8.8 23.2 8.8 23.1 8.9 C 23.1 8.9 23.1 8.9 23.1 8.9 Z M 22.2 9.9 C 22.2 9.8 22.2 9.8 22.2 9.9 C 22.2 9.9 22.2 9.9 22.2 9.9 Z M 27.0 17.4 C 27.0 17.3 27.0 17.3 27.0 17.4 C 27.0 17.4 27.0 17.4 27.0 17.4 Z M 17.9 23.5 C 18.1 23.6 18.1 23.6 17.9 23.5 C 17.9 23.5 17.9 23.5 17.9 23.5 Z M 23.6 8.9 C 23.6 8.9 23.6 8.9 23.6 8.9 C 23.6 8.9 23.6 8.9 23.6 8.9 Z M 24.4 17.5 C 25.4 17.7 23.2 17.9 24.4 17.3 C 24.4 17.3 24.3 17.5 24.4 17.5 M 26.0 16.5 C 26.0 16.6 26.0 16.6 26.0 16.5 C 26.0 16.5 26.0 16.5 26.0 16.5 Z M 26.6 21.5 C 26.6 21.6 26.6 21.6 26.6 21.5 C 26.6 21.5 26.6 21.5 26.6 21.5 Z M 22.7 12.8 C 22.1 13.1 23.1 11.9 22.7 13.0 M 26.2 6.5 C 25.6 7.0 26.6 5.0 26.2 6.6 M 12.1 24.1 C 12.1 24.5 11.3 23.9 12.1 24.1 M 27.1 22.9 C 27.5 23.4 26.8 23.7 27.1 22.9 M 25.9 20.0 C 25.3 20.0 26.3 19.0 25.9 20.2 M 26.1 9.7 C 26.1 9.7 26.1 9.7 26.1 9.7 C 26.1 9.7 26.1 9.7 26.1 9.7 Z M 23.1 22.8 C 23.1 22.8 23.1 22.8 23.1 22.8 C 23.1 22.8 23.1 22.8 23.1 22.8 Z M 24.2 18.9 C 23.5 19.2 24.7 18.2 24.2 18.9 M 24.3 25.3 C 23.5 25.0 23.7 25.0 24.0 25.0 C 24.5 25.2 25.4 25.5 24.3 25.4 C 24.3 25.4 24.3 25.4 24.3 25.3 M 26.4 3.8 C 25.3 5.9 27.0 2.3 26.4 3.8 M 23.7 11.2 C 22.6 12.5 24.3 10.2 23.7 11.2 M 23.5 22.3 C 23.0 21.9 23.9 21.5 23.5 22.3 M 14.5 24.0 C 13.5 23.9 15.5 23.6 14.5 24.0 M 26.2 12.9 C 26.2 12.8 26.2 12.8 26.2 12.9 C 26.2 12.9 26.2 12.9 26.2 12.9 Z M 20.7 28.1 C 20.8 28.2 20.8 28.2 20.7 28.1 C 20.7 28.1 20.7 28.1 20.7 28.1 Z M 22.8 5.6 C 22.9 5.5 22.9 5.5 22.8 5.6 C 22.8 5.6 22.8 5.6 22.8 5.6 Z M 24.2 11.7 C 24.2 11.7 24.2 11.7 24.2 11.7 C 24.2 11.7 24.2 11.7 24.2 11.7 Z M 22.7 7.5 C 22.8 7.4 22.8 7.4 22.7 7.5 C 22.7 7.5 22.7 7.5 22.7 7.5 Z M 25.0 15.2 C 25.0 15.1 25.0 15.1 25.0 15.2 C 25.0 15.2 25.0 15.2 25.0 15.2 Z M 22.3 15.6 C 22.3 15.6 22.3 15.6 22.3 15.6 C 22.3 15.6 22.3 15.6 22.3 15.6 Z M 23.4 19.2 C 23.5 19.2 23.5 19.2 23.4 19.2 C 23.4 19.2 23.4 19.2 23.4 19.2 Z M 22.5 14.2 C 22.3 12.4 23.4 15.2 22.5 14.2 C 22.5 14.2 22.5 14.2 22.5 14.2 Z M 25.2 18.3 C 25.3 18.3 25.3 18.3 25.2 18.3 C 25.2 18.3 25.2 18.3 25.2 18.3 Z M 23.3 18.0 C 22.5 16.5 24.6 17.6 23.3 18.0 M 22.6 23.0 C 22.2 22.3 23.3 23.4 22.6 23.0 M 24.3 27.3 C 24.3 27.3 24.3 27.3 24.3 27.3 C 24.3 27.3 24.3 27.3 24.3 27.3 Z M 24.8 27.0 C 24.9 27.0 24.9 27.0 24.8 27.0 C 24.8 27.0 24.8 27.0 24.8 27.0 Z M 21.8 23.5 C 21.8 23.5 21.8 23.5 21.8 23.5 C 21.8 23.5 21.8 23.5 21.8 23.5 Z M 25.9 28.0 C 26.0 28.0 26.0 28.0 25.9 28.0 C 25.9 28.0 25.9 28.0 25.9 28.0 Z M 22.3 16.3 C 22.4 16.3 22.4 16.3 22.3 16.3 C 22.3 16.3 22.3 16.3 22.3 16.3 Z M 22.3 6.9 C 22.3 6.9 22.3 6.9 22.3 6.9 C 22.3 6.9 22.3 6.9 22.3 6.9 Z M 16.4 26.9 C 16.5 26.9 16.5 26.9 16.4 26.9 C 16.4 26.9 16.4 26.9 16.4 26.9 Z M 23.4 15.4 C 23.5 15.4 23.5 15.4 23.4 15.4 C 23.4 15.4 23.4 15.4 23.4 15.4 Z M 22.3 27.1 C 22.4 27.1 22.4 27.1 22.3 27.1 C 22.3 27.1 22.3 27.1 22.3 27.1 Z M 23.2 16.1 C 23.2 16.0 23.2 16.0 23.2 16.1 C 23.2 16.1 23.2 16.1 23.2 16.1 Z M 26.4 13.3 C 26.4 13.2 26.4 13.2 26.4 13.3 C 26.4 13.3 26.4 13.3 26.4 13.3 Z M 27.0 10.1 C 27.0 10.1 27.0 10.1 27.0 10.1 C 27.0 10.1 27.0 10.1 27.0 10.1 Z M 24.5 13.7 C 24.5 13.6 24.5 13.6 24.5 13.7 C 24.5 13.7 24.5 13.7 24.5 13.7 Z M 20.5 25.9 C 15.3 25.0 23.9 25.5 20.5 25.9 M 24.7 12.9 C 24.5 16.1 23.6 10.7 24.7 12.9 C 24.4 12.6 24.7 12.8 24.7 12.9 M 21.6 5.9 C 22.4 5.5 23.1 5.1 23.6 4.7 C 24.2 4.3 24.6 3.9 24.8 3.5 C 25.0 3.3 25.1 3.1 25.1 2.9 C 24.9 2.4 23.1 4.4 24.6 2.7 C 26.6 2.4 26.0 0.1 24.2 2.3 C 21.7 2.6 25.0 0.9 22.8 1.8 C 20.2 2.0 21.9 1.3 19.8 1.5 C 18.2 2.7 18.8 0.9 17.9 2.0 C 19.3 0.8 15.8 2.4 15.8 1.8 C 17.8 1.1 9.0 1.8 13.7 2.2 C 12.0 2.8 12.1 1.7 11.4 1.6 C 10.8 2.3 7.9 1.0 7.1 1.7 C 7.5 1.9 8.1 1.9 8.4 2.2 C 8.9 2.6 7.0 2.1 7.2 2.1 C 6.6 2.4 4.4 3.1 6.5 1.8 C 6.2 1.2 4.0 2.1 3.7 1.6 C 2.9 1.5 2.5 1.6 2.4 1.7 C 2.7 2.6 3.2 2.2 2.5 2.4 C 2.5 4.2 2.5 5.6 2.7 5.7 C 2.5 6.7 1.8 6.4 2.5 8.0 C 1.2 9.4 5.0 11.3 2.5 10.4 C 3.1 11.5 1.4 11.1 3.0 11.9 C 2.3 10.7 1.7 15.2 2.9 13.7 C 3.3 14.4 1.3 16.5 2.9 16.7 C 4.1 18.2 5.2 18.4 6.4 16.9 C 5.4 16.7 7.3 15.3 5.7 16.0 C 5.2 17.5 5.2 12.5 5.7 13.9 C 7.6 15.2 4.6 10.7 5.9 10.6 C 5.2 10.9 4.8 6.6 6.2 8.9 C 6.3 8.3 5.7 7.6 6.5 7.5 C 6.3 9.7 5.0 5.2 5.9 6.2 C 6.1 6.6 6.3 6.2 6.4 5.7 C 7.3 5.8 8.1 5.8 7.6 5.3 C 4.6 3.4 8.7 5.7 8.7 5.0 C 10.3 4.5 9.5 6.6 9.8 5.2 C 10.3 5.4 12.6 5.4 11.3 5.8 C 10.7 5.6 12.1 3.7 12.7 5.4 C 10.7 6.3 15.5 5.9 14.7 5.4 C 10.6 4.5 19.2 4.3 15.8 5.2 C 17.2 6.2 15.2 5.6 17.4 5.2 C 17.3 4.7 19.3 4.2 18.4 5.2 C 17.9 6.8 20.0 3.1 20.2 5.3 C 19.7 6.2 23.4 4.6 21.5 5.6 C 21.4 5.7 21.5 5.9 21.6 5.9 M 21.1 5.7 C 21.6 5.4 21.1 6.2 21.1 5.7 M 21.6 5.4 C 21.6 5.4 21.6 5.4 21.6 5.4 C 21.6 5.4 21.6 5.4 21.6 5.4 Z M 17.7 5.2 C 17.7 5.2 17.7 5.2 17.7 5.2 C 17.7 5.2 17.7 5.2 17.7 5.2 Z M 14.4 1.2 C 14.5 1.2 14.5 1.2 14.4 1.2 C 14.4 1.2 14.4 1.2 14.4 1.2 Z M 15.0 5.1 C 15.0 5.1 15.0 5.1 15.0 5.1 C 15.0 5.1 15.0 5.1 15.0 5.1 Z M 19.3 4.9 C 19.4 4.9 19.4 4.9 19.3 4.9 C 19.3 4.9 19.3 4.9 19.3 4.9 Z M 15.2 5.6 C 15.0 5.0 16.0 6.1 15.1 5.7 C 15.1 5.7 15.3 5.7 15.2 5.6 M 11.9 5.9 C 11.8 5.8 11.8 5.8 11.9 5.9 M 1.9 4.0 C 1.9 3.9 1.9 3.9 1.9 4.0 M 6.6 8.8 C 6.5 8.8 6.5 8.8 6.6 8.8 M 8.2 5.3 C 7.2 5.4 7.7 5.0 8.2 5.3 M 6.3 11.6 C 6.7 10.4 6.6 13.4 6.3 11.6 M 6.6 13.3 C 6.6 13.4 6.6 13.4 6.6 13.3 M 6.4 6.5 C 6.4 6.4 6.4 6.4 6.4 6.5 C 6.4 6.5 6.4 6.5 6.4 6.5 Z M 8.8 5.5 C 10.3 5.8 7.9 6.1 8.8 5.5 M 17.1 5.7 C 16.3 6.0 17.3 5.0 17.1 5.7 M 18.7 5.4 C 18.8 5.4 18.8 5.4 18.7 5.4 C 18.7 5.4 18.7 5.4 18.7 5.4 Z M 6.3 9.3 C 6.3 9.2 6.3 9.2 6.3 9.3 C 6.3 9.3 6.3 9.3 6.3 9.3 Z M 6.4 11.1 C 6.4 11.0 6.4 11.0 6.4 11.1 C 6.4 11.1 6.4 11.1 6.4 11.1 Z M 2.1 11.3 C 2.1 11.2 2.1 11.2 2.1 11.3 C 2.1 11.3 2.1 11.3 2.1 11.3 Z M 18.2 3.6 C 19.3 3.9 16.6 5.0 17.1 3.9 C 17.1 3.5 18.0 3.7 18.2 3.6 M 9.1 4.2 C 7.9 2.7 11.1 6.2 9.1 4.2 M 5.7 12.9 C 3.9 13.1 6.9 12.2 5.7 12.9 M 6.0 15.4 C 5.6 15.9 5.8 10.9 6.2 14.7 C 6.5 15.2 6.1 15.3 6.0 15.4 M 11.6 5.2 C 11.0 4.3 13.3 5.5 11.6 5.2 M 3.4 3.7 C 3.9 4.8 4.4 6.9 3.5 5.4 C 2.3 4.3 3.0 2.5 3.4 3.7 M 21.4 4.9 C 19.6 6.2 22.3 3.8 21.4 4.9 M 17.1 4.8 C 17.1 4.8 17.1 4.8 17.1 4.8 C 17.1 4.8 17.1 4.8 17.1 4.8 Z M 15.4 5.0 C 15.3 4.9 15.3 4.9 15.4 5.0 M 19.9 6.1 C 19.9 6.0 19.9 6.0 19.9 6.1 M 4.8 5.0 C 4.7 5.0 4.7 5.0 4.8 5.0 M 8.2 4.9 C 5.5 3.6 9.0 4.7 8.2 4.9 M 11.6 2.4 C 10.8 1.8 13.0 2.4 11.6 2.4 M 6.1 5.5 C 5.6 5.5 5.3 4.9 5.2 4.5 C 5.2 4.1 5.5 3.9 6.1 5.4 C 6.1 5.4 6.1 5.5 6.1 5.5 M 9.1 5.1 C 9.1 5.1 9.1 5.1 9.1 5.1 C 9.1 5.1 9.1 5.1 9.1 5.1 Z M 3.3 4.1 C 3.2 4.1 3.2 4.1 3.3 4.1 C 3.3 4.1 3.3 4.1 3.3 4.1 Z M 3.3 4.8 C 3.3 4.7 3.3 4.7 3.3 4.8 C 3.3 4.8 3.3 4.8 3.3 4.8 Z M 6.3 7.2 C 6.2 7.1 6.2 7.1 6.3 7.2 C 6.3 7.2 6.3 7.2 6.3 7.2 Z M 20.6 2.0 C 19.1 1.9 21.9 1.8 20.6 2.0 C 20.6 2.0 20.6 2.0 20.6 2.0 Z M 14.0 5.6 C 11.9 4.7 15.3 4.7 14.0 5.6 C 14.0 5.6 14.0 5.6 14.0 5.6 Z M 11.4 4.0 C 11.4 4.0 11.4 4.0 11.4 4.0 C 11.4 4.0 11.4 4.0 11.4 4.0 Z M 7.4 6.2 C 7.4 6.1 7.4 6.1 7.4 6.2 C 7.4 6.2 7.4 6.2 7.4 6.2 Z M 19.9 1.8 C 19.9 1.8 19.9 1.8 19.9 1.8 C 19.9 1.8 19.9 1.8 19.9 1.8 Z M 5.6 10.1 C 5.5 10.1 5.5 10.1 5.6 10.1 C 5.6 10.1 5.6 10.1 5.6 10.1 Z M 5.5 2.4 C 5.3 2.8 5.1 2.0 5.5 2.4 C 5.5 2.4 5.5 2.4 5.5 2.4 Z M 3.2 2.4 C 3.2 2.4 3.2 2.4 3.2 2.4 C 3.2 2.4 3.2 2.4 3.2 2.4 Z M 6.7 13.8 C 6.7 13.8 6.7 13.8 6.7 13.8 C 6.7 13.8 6.7 13.8 6.7 13.8 Z M 1.9 6.7 C 1.9 6.8 1.9 6.8 1.9 6.7 C 1.9 6.7 1.9 6.7 1.9 6.7 Z M 3.3 9.6 C 3.3 9.5 3.3 9.5 3.3 9.6 C 3.3 9.6 3.3 9.6 3.3 9.6 Z M 6.0 6.5 C 6.2 8.6 5.4 5.6 6.0 6.5 C 6.0 6.5 6.0 6.5 6.0 6.5 Z M 3.7 14.9 C 3.7 14.9 3.7 14.9 3.7 14.9 C 3.7 14.9 3.7 14.9 3.7 14.9 Z M 5.4 16.7 C 5.3 16.7 5.3 16.7 5.4 16.7 C 5.4 16.7 5.4 16.7 5.4 16.7 Z M 6.3 17.5 C 6.2 17.5 6.2 17.5 6.3 17.5 C 6.3 17.5 6.3 17.5 6.3 17.5 Z M 15.6 3.2 C 15.7 3.2 15.7 3.2 15.6 3.2 C 15.6 3.2 15.6 3.2 15.6 3.2 Z M 15.9 5.9 C 16.0 5.9 16.0 5.9 15.9 5.9 C 15.9 5.9 15.9 5.9 15.9 5.9 Z M 13.9 6.1 C 13.9 6.1 13.9 6.1 13.9 6.1 C 13.9 6.1 13.9 6.1 13.9 6.1 Z M 16.4 1.5 C 16.4 1.6 16.4 1.6 16.4 1.5 C 16.4 1.5 16.4 1.5 16.4 1.5 Z M 6.1 3.9 C 6.2 3.9 6.2 3.9 6.1 3.9 C 6.1 3.9 6.1 3.9 6.1 3.9 Z M 4.2 2.8 C 4.3 2.8 4.3 2.8 4.2 2.8 C 4.2 2.8 4.2 2.8 4.2 2.8 Z M 5.7 1.3 C 5.7 1.3 5.7 1.3 5.7 1.3 C 5.7 1.3 5.7 1.3 5.7 1.3 Z M 2.5 1.9 C 2.5 1.9 2.5 1.9 2.5 1.9 C 2.5 1.9 2.5 1.9 2.5 1.9 Z M 24.2 2.0 C 24.2 2.0 24.2 2.0 24.2 2.0 C 24.2 2.0 24.2 2.0 24.2 2.0 Z M 22.6 4.1 C 22.7 4.1 22.7 4.1 22.6 4.1 C 22.6 4.1 22.6 4.1 22.6 4.1 Z M 7.1 5.4 C 7.2 5.8 5.8 4.8 7.1 5.4 M 10.2 5.1 C 10.2 5.1 10.2 5.1 10.2 5.1 C 10.2 5.1 10.2 5.1 10.2 5.1 Z M 6.0 10.1 C 5.2 10.0 6.4 8.8 6.0 10.1 C 6.0 10.1 6.0 10.1 6.0 10.1 Z M 2.5 5.2 C 2.5 5.3 2.5 5.3 2.5 5.2 C 2.5 5.2 2.5 5.2 2.5 5.2 Z M 2.8 6.6 C 2.8 6.6 2.8 6.6 2.8 6.6 C 2.8 6.6 2.8 6.6 2.8 6.6 Z M 5.1 13.8 C 5.0 13.9 5.0 13.9 5.1 13.8 M 11.0 5.9 C 10.3 5.5 10.5 5.6 11.0 5.9 M 6.0 11.3 C 5.9 11.2 5.9 11.2 6.0 11.3 C 6.0 11.3 6.0 11.3 6.0 11.3 Z M 5.6 15.3 C 5.6 15.2 5.6 15.2 5.6 15.3 C 5.6 15.3 5.6 15.3 5.6 15.3 Z M 13.0 5.3 C 12.7 4.3 13.3 4.5 13.0 5.3 M 19.6 5.0 C 19.7 4.9 19.7 4.9 19.6 5.0 C 19.6 5.0 19.6 5.0 19.6 5.0 Z M 19.6 5.0 " fill="#FEFFFE"></path></g></svg>