<?xml version="1.0" encoding="UTF-8" standalone="no"?><svg xmlns="http://www.w3.org/2000/svg" xmlns:xlink="http://www.w3.org/1999/xlink" clip-rule="evenodd" stroke-miterlimit="10" viewBox="0 0 32 30"><desc>SVG generated by Keynote</desc><defs></defs><g transform="matrix(1.00, 0.00, -0.00, -1.00, 0.0, 30.0)"><path d="M 18.9 15.7 C 19.0 15.9 18.5 16.4 18.6 16.6 M 18.9 15.7 C 17.6 16.3 17.1 17.1 16.3 18.2 C 15.7 19.3 17.3 18.2 17.6 18.4 C 17.1 20.1 16.4 20.0 15.5 19.5 C 15.9 20.3 13.9 21.6 15.2 21.7 C 16.6 19.2 14.4 23.8 16.3 21.8 C 16.6 21.6 16.6 22.4 16.4 22.7 C 17.3 22.1 17.1 23.8 18.2 22.5 C 19.0 22.6 18.6 22.7 19.7 22.0 C 20.0 21.6 19.6 21.7 19.4 21.7 C 18.6 21.3 20.5 20.6 20.4 19.7 C 22.0 19.1 20.9 18.2 20.1 18.8 C 20.6 18.1 22.4 17.3 21.8 16.6 C 22.7 16.2 23.3 14.3 21.8 15.5 C 20.8 16.3 20.8 15.5 20.6 15.4 C 20.1 15.7 20.0 16.7 19.7 16.9 C 19.6 16.6 19.8 15.3 19.1 16.7 C 18.9 16.3 18.2 16.9 18.9 15.7 C 18.9 15.7 18.9 15.7 18.9 15.7 Z M 15.9 20.1 C 15.5 20.0 16.1 19.7 15.9 20.1 C 15.9 20.1 15.9 20.1 15.9 20.1 Z M 22.2 17.2 C 21.8 17.2 22.5 16.6 22.2 17.2 C 22.2 17.2 22.2 17.2 22.2 17.2 Z M 19.6 21.4 C 19.3 21.3 19.9 20.9 19.6 21.4 C 19.6 21.4 19.6 21.4 19.6 21.4 Z M 16.7 19.0 C 17.3 18.4 16.8 19.7 16.4 19.7 C 16.6 19.6 16.3 19.1 16.7 19.0 C 16.7 19.0 16.7 19.0 16.7 19.0 Z M 18.6 19.2 C 18.5 19.1 18.7 18.8 19.0 18.9 C 19.0 19.1 18.7 19.3 18.6 19.2 C 18.6 19.2 18.6 19.2 18.6 19.2 Z M 15.4 22.5 C 15.3 22.4 15.4 22.1 15.7 22.3 C 15.7 22.5 15.5 22.7 15.4 22.5 C 15.4 22.5 15.4 22.5 15.4 22.5 Z M 18.0 18.3 C 18.1 18.1 18.5 18.1 18.4 18.3 C 18.2 18.4 17.9 18.9 18.0 18.3 C 18.0 18.3 18.0 18.3 18.0 18.3 Z M 17.4 17.2 C 17.9 16.6 17.8 17.8 17.6 17.8 C 17.3 17.9 16.9 17.5 17.4 17.2 C 17.4 17.2 17.4 17.2 17.4 17.2 Z M 18.6 18.0 C 19.1 17.5 18.8 18.2 18.6 18.0 C 18.6 18.0 18.6 18.0 18.6 18.0 Z M 17.8 23.0 C 18.2 22.5 17.9 23.4 17.8 23.0 C 17.8 23.0 17.8 23.0 17.8 23.0 Z M 20.5 20.1 C 21.0 19.5 20.6 20.4 20.5 20.1 C 20.5 20.1 20.5 20.1 20.5 20.1 Z M 16.6 20.4 C 16.1 21.3 15.8 20.3 16.6 20.4 C 16.6 20.4 16.6 20.4 16.6 20.4 Z M 18.0 15.9 C 17.5 16.7 17.0 16.1 18.0 15.9 C 18.0 15.9 18.0 15.9 18.0 15.9 Z M 17.3 21.4 C 17.8 22.1 17.4 19.0 16.7 20.3 C 15.8 21.0 14.8 18.8 16.1 19.1 C 15.9 18.5 15.9 18.5 15.2 18.2 C 16.0 18.1 15.7 16.8 15.0 16.3 C 14.1 15.9 15.4 17.2 14.2 16.4 C 13.0 14.5 13.4 16.4 12.0 15.6 C 12.0 15.5 12.5 15.5 12.1 15.3 C 11.1 15.2 11.1 16.3 10.1 15.7 C 10.4 16.1 10.3 17.7 10.7 17.0 C 11.5 16.8 10.7 18.9 12.0 18.7 C 11.7 19.3 12.8 19.7 12.3 20.4 C 12.4 20.8 13.1 20.7 13.2 20.6 C 13.8 20.4 12.2 21.4 13.5 21.8 C 13.3 21.9 14.4 23.7 14.1 22.2 C 14.2 22.6 15.0 24.7 15.5 23.2 C 15.2 21.7 17.2 24.0 16.4 22.5 C 16.0 21.4 15.6 21.2 16.6 21.8 C 16.7 22.1 17.5 23.3 17.3 22.0 C 17.1 21.9 16.9 21.3 17.3 21.4 C 17.3 21.4 17.3 21.4 17.3 21.4 Z M 15.9 22.2 C 15.5 21.6 16.2 22.0 15.9 22.2 C 15.9 22.2 15.9 22.2 15.9 22.2 Z M 12.0 20.3 C 11.6 19.5 12.4 20.2 12.0 20.3 C 12.0 20.3 12.0 20.3 12.0 20.3 Z M 16.6 19.5 C 16.1 19.3 17.2 19.0 16.6 19.5 C 16.6 19.5 16.6 19.5 16.6 19.5 Z M 13.6 21.4 C 13.6 21.3 13.9 21.5 14.0 21.6 C 13.9 21.6 13.7 21.4 13.6 21.4 C 13.6 21.4 13.6 21.4 13.6 21.4 Z M 16.1 18.5 C 15.0 17.7 16.9 18.3 16.1 18.5 C 16.1 18.5 16.1 18.5 16.1 18.5 Z M 13.9 16.8 C 12.5 16.6 13.7 15.8 13.9 16.8 C 13.9 16.8 13.9 16.8 13.9 16.8 Z M 11.9 18.3 C 12.2 18.5 11.8 18.5 11.9 18.3 C 11.9 18.3 11.9 18.3 11.9 18.3 Z M 14.3 23.3 C 14.6 23.3 14.3 23.5 14.3 23.3 C 14.3 23.3 14.3 23.3 14.3 23.3 Z M 11.2 16.9 C 11.8 17.0 11.2 17.3 11.2 16.9 C 11.2 16.9 11.2 16.9 11.2 16.9 Z M 16.0 19.4 C 17.4 20.0 15.2 20.8 16.0 19.4 C 16.0 19.4 16.0 19.4 16.0 19.4 Z M 16.9 20.8 C 17.4 21.3 16.3 20.9 16.3 20.6 C 16.4 20.6 16.8 20.8 16.9 20.8 C 16.9 20.8 16.9 20.8 16.9 20.8 Z M 15.5 18.6 C 16.2 19.1 15.5 19.1 15.5 18.6 C 15.5 18.6 15.5 18.6 15.5 18.6 Z M 16.7 19.9 C 16.8 20.2 16.5 19.7 16.7 19.9 C 16.7 19.9 16.7 19.9 16.7 19.9 Z M 15.9 17.5 C 16.0 17.7 15.7 17.2 15.9 17.5 C 15.9 17.5 15.9 17.5 15.9 17.5 Z M 17.7 21.3 C 17.7 21.6 17.5 21.2 17.7 21.3 C 17.7 21.3 17.7 21.3 17.7 21.3 Z M 15.4 17.7 C 14.9 17.6 14.3 18.5 14.4 17.0 C 14.6 16.7 15.6 17.3 15.4 17.7 C 15.4 17.7 15.4 17.7 15.4 17.7 Z M 19.9 14.0 C 17.0 16.7 20.0 15.9 20.4 16.0 C 20.9 16.3 21.6 15.9 22.4 15.3 C 24.5 14.3 21.1 14.5 23.1 13.8 C 26.0 12.4 21.5 13.3 24.3 12.3 C 24.9 12.3 25.0 11.2 24.8 11.3 C 26.4 10.3 24.5 10.2 24.3 10.3 C 24.9 9.7 27.4 8.8 26.2 8.2 C 26.0 7.5 28.9 5.8 26.9 7.0 C 29.4 5.2 26.6 6.7 27.7 5.7 C 29.1 4.6 25.9 6.6 28.6 4.5 C 27.0 5.1 29.6 4.3 29.6 2.5 C 29.1 3.3 28.9 3.0 29.1 2.6 C 28.7 2.6 28.5 2.6 29.2 2.3 C 31.5 1.4 27.2 2.6 26.4 2.1 C 25.5 2.5 22.8 3.5 24.2 2.4 C 23.8 1.1 22.0 3.2 22.3 2.1 C 22.1 1.7 21.2 2.6 20.9 2.6 C 20.9 1.8 20.1 2.3 18.3 2.1 C 13.9 1.7 17.3 4.2 16.1 4.4 C 16.0 4.8 16.9 7.5 16.8 5.5 C 16.9 6.0 19.9 4.0 17.8 6.2 C 18.9 5.3 17.3 7.1 19.0 6.0 C 17.5 4.5 21.9 5.4 19.3 6.1 C 19.2 6.6 19.9 6.5 19.8 6.1 C 20.7 4.7 20.3 6.8 21.3 5.1 C 22.1 5.5 23.6 4.0 22.7 5.1 C 20.7 6.9 23.3 4.6 23.3 5.1 C 24.9 5.1 20.6 7.3 23.5 5.9 C 23.5 5.9 23.5 5.9 23.5 6.0 C 21.7 7.8 24.9 5.3 25.0 5.6 C 26.9 4.5 22.5 8.0 22.9 7.0 C 23.6 7.0 21.8 7.7 22.8 7.6 C 24.9 6.1 20.4 9.5 21.9 8.5 C 22.1 8.9 23.3 8.1 23.3 8.2 C 22.8 9.2 21.2 9.7 22.4 9.3 C 23.0 9.2 20.5 10.6 21.0 10.5 C 21.6 9.5 22.4 10.6 21.4 11.0 C 21.6 10.5 19.1 12.1 20.2 12.0 C 24.1 10.2 18.9 13.0 19.9 13.1 C 22.0 12.1 19.0 15.1 18.7 14.3 C 18.8 14.3 19.9 14.0 19.9 14.0 M 21.2 10.6 C 21.7 9.8 21.1 11.3 21.2 10.6 M 20.6 10.9 C 21.5 10.3 19.7 11.7 20.4 10.9 C 20.4 10.9 20.5 10.9 20.6 10.9 M 22.1 7.9 C 22.7 7.6 21.5 8.5 22.1 7.9 M 23.9 6.5 C 24.8 5.6 23.6 7.1 23.9 6.5 M 18.3 5.6 C 20.2 3.5 18.3 6.8 18.3 5.6 M 22.2 6.1 C 23.4 5.8 20.7 7.0 22.2 6.1 M 23.2 5.5 C 24.1 5.2 22.5 6.0 23.2 5.5 M 19.6 5.6 C 19.5 5.6 19.5 5.6 19.6 5.6 C 19.6 5.6 19.6 5.6 19.6 5.6 Z M 17.6 5.6 C 17.5 5.6 17.5 5.6 17.6 5.6 C 17.6 5.6 17.6 5.6 17.6 5.6 Z M 21.8 5.4 C 21.8 5.9 20.5 5.6 21.8 5.4 C 21.8 5.4 21.8 5.4 21.8 5.4 Z M 20.1 2.3 C 20.1 2.3 20.1 2.3 20.1 2.3 C 20.1 2.3 20.1 2.3 20.1 2.3 Z M 22.2 10.7 C 22.2 10.7 22.2 10.7 22.2 10.7 C 22.2 10.7 22.2 10.7 22.2 10.7 Z M 19.8 13.5 C 20.2 13.4 19.3 14.0 19.8 13.5 C 19.8 13.5 19.8 13.5 19.8 13.5 Z M 21.8 15.1 C 21.8 15.1 21.8 15.1 21.8 15.1 C 21.8 15.1 21.8 15.1 21.8 15.1 Z M 23.3 11.1 C 23.3 11.1 23.3 11.1 23.3 11.1 C 23.3 11.1 23.3 11.1 23.3 11.1 Z M 21.3 11.4 C 19.5 12.4 22.3 10.3 21.3 11.4 C 21.3 11.4 21.3 11.4 21.3 11.4 Z M 26.4 2.4 C 25.7 3.0 25.7 2.3 26.4 2.4 C 26.4 2.4 26.4 2.4 26.4 2.4 Z M 24.7 6.0 C 24.3 6.1 25.1 5.5 24.7 6.0 C 24.7 6.0 24.7 6.0 24.7 6.0 Z M 21.5 8.6 C 21.1 8.7 21.8 8.2 21.5 8.6 C 21.5 8.6 21.5 8.6 21.5 8.6 Z M 19.4 13.6 C 19.3 13.6 19.3 13.6 19.4 13.6 C 19.4 13.6 19.4 13.6 19.4 13.6 Z M 21.0 12.4 C 19.3 13.4 22.4 11.2 21.0 12.4 C 21.0 12.4 21.0 12.4 21.0 12.4 Z M 20.9 13.4 C 21.6 12.9 20.2 14.2 20.9 13.4 M 23.5 12.1 C 23.3 11.5 25.6 12.3 23.5 12.1 C 23.5 12.1 23.5 12.1 23.5 12.1 Z M 26.5 7.3 C 26.6 7.3 26.6 7.3 26.5 7.3 C 26.5 7.3 26.5 7.3 26.5 7.3 Z M 21.5 9.9 C 21.9 9.2 21.7 10.1 21.5 9.9 C 21.5 9.9 21.5 9.9 21.5 9.9 Z M 18.3 15.4 C 18.7 14.7 18.4 15.7 18.3 15.4 C 18.3 15.4 18.3 15.4 18.3 15.4 Z M 26.2 5.6 C 26.6 4.5 26.7 5.9 26.2 5.6 C 26.2 5.6 26.2 5.6 26.2 5.6 Z M 22.7 5.0 C 22.7 4.9 22.7 4.9 22.7 5.0 C 22.7 5.0 22.7 5.0 22.7 5.0 Z M 21.4 5.4 C 21.4 5.4 21.4 5.4 21.4 5.4 C 21.4 5.4 21.4 5.4 21.4 5.4 Z M 18.9 4.3 C 18.9 4.2 18.9 4.2 18.9 4.3 C 18.9 4.3 18.9 4.3 18.9 4.3 Z M 20.3 6.0 C 20.3 5.9 20.3 5.9 20.3 6.0 C 20.3 6.0 20.3 6.0 20.3 6.0 Z M 18.6 5.7 C 18.5 5.6 18.5 5.6 18.6 5.7 C 18.6 5.7 18.6 5.7 18.6 5.7 Z M 18.3 6.6 C 18.3 6.6 18.3 6.6 18.3 6.6 C 18.3 6.6 18.3 6.6 18.3 6.6 Z M 29.0 1.8 C 29.0 1.8 29.0 1.8 29.0 1.8 C 29.0 1.8 29.0 1.8 29.0 1.8 Z M 19.5 12.6 C 19.7 12.5 19.7 12.5 19.5 12.6 C 19.5 12.6 19.5 12.6 19.5 12.6 Z M 18.9 5.2 C 18.9 5.2 18.9 5.2 18.9 5.2 C 18.9 5.2 18.9 5.2 18.9 5.2 Z M 25.6 4.4 C 27.0 3.4 24.0 5.6 25.3 4.4 C 25.4 4.4 25.4 4.5 25.6 4.4 M 27.0 2.8 C 27.1 2.8 27.1 2.8 27.0 2.8 C 27.0 2.8 27.0 2.8 27.0 2.8 Z M 28.9 3.7 C 28.9 3.7 28.9 3.7 28.9 3.7 C 28.9 3.7 28.9 3.7 28.9 3.7 Z M 20.4 6.1 C 19.9 6.7 20.3 5.7 20.5 6.1 M 19.6 2.6 C 19.5 3.2 18.8 2.2 19.7 2.6 M 18.4 16.0 C 18.8 16.1 17.9 16.5 18.4 16.0 M 29.3 4.0 C 29.9 3.7 28.6 4.7 29.3 4.0 M 28.1 3.7 C 27.2 4.3 29.1 2.6 28.1 3.8 M 22.0 2.7 C 22.0 2.7 22.0 2.7 22.0 2.7 C 22.0 2.7 22.0 2.7 22.0 2.7 Z M 22.2 8.9 C 22.2 8.8 22.2 8.8 22.2 8.9 C 22.2 8.9 22.2 8.9 22.2 8.9 Z M 25.5 5.0 C 24.1 6.1 26.5 4.0 25.5 5.0 M 23.6 8.8 C 22.0 10.0 24.6 7.7 23.6 8.8 M 17.7 2.4 C 18.4 3.5 17.1 1.8 17.7 2.4 M 20.5 5.1 C 20.2 6.2 20.5 4.5 20.5 5.1 M 23.2 8.0 C 22.3 8.4 24.0 7.0 23.2 8.0 M 19.0 14.6 C 18.6 15.2 18.9 14.0 19.0 14.6 M 24.5 2.6 C 24.4 2.6 24.4 2.6 24.5 2.6 C 24.5 2.6 24.5 2.6 24.5 2.6 Z M 25.5 11.1 C 25.6 11.1 25.6 11.1 25.5 11.1 C 25.5 11.1 25.5 11.1 25.5 11.1 Z M 16.4 6.0 C 16.4 5.9 16.4 5.9 16.4 6.0 C 16.4 6.0 16.4 6.0 16.4 6.0 Z M 21.4 4.6 C 21.4 4.6 21.4 4.6 21.4 4.6 C 21.4 4.6 21.4 4.6 21.4 4.6 Z M 17.4 6.1 C 17.4 6.0 17.4 6.0 17.4 6.1 C 17.4 6.1 17.4 6.1 17.4 6.1 Z M 24.7 3.8 C 24.7 3.8 24.7 3.8 24.7 3.8 C 24.7 3.8 24.7 3.8 24.7 3.8 Z M 21.4 6.5 C 21.5 6.5 21.5 6.5 21.4 6.5 C 21.4 6.5 21.4 6.5 21.4 6.5 Z M 24.0 6.1 C 24.1 6.1 24.1 6.1 24.0 6.1 C 24.0 6.1 24.0 6.1 24.0 6.1 Z M 21.0 6.3 C 19.8 6.5 22.7 5.4 21.0 6.3 C 21.0 6.3 21.0 6.3 21.0 6.3 Z M 27.2 3.6 C 27.3 3.6 27.3 3.6 27.2 3.6 C 27.2 3.6 27.2 3.6 27.2 3.6 Z M 24.2 5.6 C 24.2 5.6 24.1 5.6 24.1 5.6 C 22.4 6.2 25.7 4.3 24.4 5.4 C 24.3 5.5 24.2 5.5 24.2 5.6 M 21.3 9.5 C 20.8 9.6 22.4 9.0 21.3 9.5 M 25.8 8.8 C 25.9 8.8 25.9 8.8 25.8 8.8 C 25.8 8.8 25.8 8.8 25.8 8.8 Z M 25.6 8.5 C 25.7 8.4 25.7 8.4 25.6 8.5 C 25.6 8.5 25.6 8.5 25.6 8.5 Z M 20.6 10.5 C 20.7 10.4 20.7 10.4 20.6 10.5 C 20.6 10.5 20.6 10.5 20.6 10.5 Z M 27.2 7.8 C 27.2 7.7 27.2 7.7 27.2 7.8 C 27.2 7.8 27.2 7.8 27.2 7.8 Z M 21.9 6.5 C 21.9 6.5 21.9 6.5 21.9 6.5 C 21.9 6.5 21.9 6.5 21.9 6.5 Z M 16.8 6.5 C 16.8 6.5 16.8 6.5 16.8 6.5 C 16.8 6.5 16.8 6.5 16.8 6.5 Z M 22.7 13.8 C 22.8 13.7 22.8 13.7 22.7 13.8 C 22.7 13.8 22.7 13.8 22.7 13.8 Z M 22.8 5.4 C 22.9 5.3 22.9 5.3 22.8 5.4 C 22.8 5.4 22.8 5.4 22.8 5.4 Z M 25.0 10.0 C 25.0 10.0 25.0 10.0 25.0 10.0 C 25.0 10.0 25.0 10.0 25.0 10.0 Z M 22.9 5.6 C 22.9 5.6 22.9 5.6 22.9 5.6 C 22.9 5.6 22.9 5.6 22.9 5.6 Z M 25.0 2.4 C 25.0 2.4 25.0 2.4 25.0 2.4 C 25.0 2.4 25.0 2.4 25.0 2.4 Z M 23.3 1.8 C 23.3 1.8 23.3 1.8 23.3 1.8 C 23.3 1.8 23.3 1.8 23.3 1.8 Z M 23.0 4.3 C 23.0 4.3 23.0 4.3 23.0 4.3 C 23.0 4.3 23.0 4.3 23.0 4.3 Z M 23.0 11.1 C 20.3 14.3 23.6 9.1 23.0 11.1 M 22.7 4.1 C 24.7 4.3 20.1 5.2 22.7 4.1 C 22.2 4.4 22.7 4.1 22.7 4.1 M 15.9 6.4 C 16.5 5.4 16.5 4.4 16.1 3.4 C 15.6 2.9 15.8 4.9 15.6 3.2 C 16.8 2.9 14.6 0.6 15.0 2.8 C 13.4 3.1 14.4 1.4 13.5 2.3 C 11.7 2.5 12.4 1.8 10.9 2.0 C 10.9 3.2 9.5 1.4 10.0 2.5 C 9.9 1.3 8.8 2.9 8.2 2.3 C 8.9 1.5 3.1 2.3 7.0 2.7 C 6.5 3.2 5.3 2.2 4.6 2.1 C 4.8 2.5 3.7 2.2 2.8 2.1 C 2.8 2.4 2.9 2.8 3.6 3.4 C 3.8 3.4 3.7 3.1 4.0 3.2 C 4.7 3.5 4.3 3.9 4.3 3.8 C 4.9 4.5 7.0 6.8 4.0 3.9 C 3.0 3.3 5.2 5.7 4.4 5.2 C 5.2 6.9 6.4 6.5 5.4 6.6 C 6.1 7.8 6.5 8.6 6.7 8.7 C 6.9 9.4 6.0 9.2 7.3 10.2 C 6.3 11.1 11.3 12.2 8.1 11.7 C 9.1 12.4 7.2 12.2 9.2 12.7 C 8.0 11.9 9.0 14.9 9.7 13.8 C 10.3 14.2 8.9 15.9 10.7 15.7 C 12.4 16.5 13.7 16.4 14.5 15.4 C 13.4 15.4 15.1 14.5 13.5 14.9 C 13.4 15.9 11.8 12.9 12.9 13.7 C 15.4 14.4 10.6 11.9 12.1 11.8 C 11.3 12.0 9.5 9.4 11.9 10.9 C 11.8 10.5 10.8 10.0 11.8 10.1 C 12.3 11.3 9.3 8.6 10.6 9.3 C 11.5 9.9 11.2 8.3 10.0 7.8 C 7.4 7.0 10.4 7.7 9.0 6.6 C 7.7 5.1 11.7 8.3 9.0 6.2 C 9.1 6.2 9.1 6.0 9.1 5.9 C 9.6 6.0 10.2 6.1 10.0 6.3 C 9.4 6.1 7.7 4.2 10.2 5.9 C 10.2 6.8 12.4 6.4 11.4 5.9 C 7.7 5.0 13.2 4.8 11.9 5.7 C 13.6 6.6 12.0 6.1 12.9 5.7 C 12.3 5.2 13.1 4.7 13.5 5.7 C 14.6 7.3 12.7 3.6 14.6 5.8 C 15.1 6.7 16.1 5.1 15.7 6.1 C 15.6 6.2 15.9 6.4 15.9 6.4 M 15.5 6.2 C 15.5 5.9 15.8 6.7 15.5 6.2 M 15.6 5.9 C 15.6 5.9 15.6 5.9 15.6 5.9 C 15.6 5.9 15.6 5.9 15.6 5.9 Z M 13.0 5.6 C 13.1 5.7 13.1 5.7 13.0 5.6 C 13.0 5.6 13.0 5.6 13.0 5.6 Z M 6.5 1.7 C 6.5 1.7 6.5 1.7 6.5 1.7 C 6.5 1.7 6.5 1.7 6.5 1.7 Z M 11.2 5.6 C 11.3 5.6 11.3 5.6 11.2 5.6 C 11.2 5.6 11.2 5.6 11.2 5.6 Z M 13.8 5.4 C 13.8 5.4 13.8 5.4 13.8 5.4 C 13.8 5.4 13.8 5.4 13.8 5.4 Z M 12.0 6.1 C 11.2 5.5 12.9 6.6 12.1 6.2 C 12.0 6.2 12.1 6.2 12.0 6.1 M 10.4 6.4 C 10.3 6.3 10.3 6.3 10.4 6.4 M 5.3 7.6 C 5.2 7.5 5.2 7.5 5.3 7.6 M 12.3 10.9 C 12.3 10.9 12.3 10.9 12.3 10.9 M 9.7 7.4 C 10.2 8.1 9.4 7.3 9.7 7.4 M 12.8 12.4 C 12.9 11.8 13.7 13.4 12.8 12.4 M 13.7 13.4 C 13.6 13.4 13.6 13.4 13.7 13.4 M 11.4 9.5 C 11.3 9.5 11.3 9.5 11.4 9.5 C 11.4 9.5 11.4 9.5 11.4 9.5 Z M 10.0 7.3 C 10.0 6.7 11.3 8.6 10.0 7.3 M 13.2 6.2 C 13.0 6.5 12.6 5.5 13.2 6.2 M 13.8 5.9 C 13.8 5.8 13.8 5.8 13.8 5.9 C 13.8 5.9 13.8 5.9 13.8 5.9 Z M 12.1 11.1 C 12.1 11.1 12.1 11.1 12.1 11.1 C 12.1 11.1 12.1 11.1 12.1 11.1 Z M 12.8 12.1 C 12.7 12.1 12.7 12.1 12.8 12.1 C 12.8 12.1 12.8 12.1 12.8 12.1 Z M 8.0 12.3 C 7.9 12.3 7.9 12.3 8.0 12.3 C 8.0 12.3 8.0 12.3 8.0 12.3 Z M 11.8 4.1 C 12.9 4.4 12.2 5.5 11.4 4.4 C 10.9 4.0 11.8 4.2 11.8 4.1 M 7.5 5.4 C 5.2 4.2 10.4 6.7 7.5 5.4 M 12.5 13.1 C 10.6 13.3 13.7 12.8 12.5 13.1 M 13.6 14.6 C 13.4 14.9 12.0 12.0 13.7 14.2 C 14.1 14.5 13.7 14.5 13.6 14.6 M 9.3 5.7 C 7.8 4.8 10.8 6.0 9.3 5.7 M 6.9 7.5 C 7.9 8.3 9.1 9.5 7.6 8.5 C 5.9 7.8 6.0 6.7 6.9 7.5 M 15.1 5.4 C 15.0 6.7 14.8 4.3 15.1 5.4 M 12.3 5.3 C 12.3 5.3 12.3 5.3 12.3 5.3 C 12.3 5.3 12.3 5.3 12.3 5.3 Z M 11.4 5.5 C 11.3 5.4 11.3 5.4 11.4 5.5 M 15.0 6.5 C 15.0 6.4 15.0 6.4 15.0 6.5 M 8.9 8.4 C 8.8 8.4 8.8 8.4 8.9 8.4 M 9.1 6.9 C 7.6 6.9 8.4 6.1 9.1 6.9 M 5.8 2.9 C 4.4 2.3 6.7 2.9 5.8 2.9 M 10.7 8.9 C 9.3 8.8 8.4 7.0 10.7 8.9 M 9.0 6.5 C 9.1 6.5 9.1 6.5 9.0 6.5 C 9.0 6.5 9.0 6.5 9.0 6.5 Z M 6.9 7.7 C 6.8 7.7 6.8 7.7 6.9 7.7 C 6.9 7.7 6.9 7.7 6.9 7.7 Z M 7.2 8.2 C 7.1 8.1 7.1 8.1 7.2 8.2 C 7.2 8.2 7.2 8.2 7.2 8.2 Z M 11.4 9.9 C 11.3 9.8 11.3 9.8 11.4 9.9 C 11.4 9.9 11.4 9.9 11.4 9.9 Z M 12.0 2.5 C 10.8 2.4 12.9 2.3 12.0 2.5 C 12.0 2.5 12.0 2.5 12.0 2.5 Z M 11.3 6.1 C 8.8 5.1 11.0 5.2 11.3 6.1 C 11.3 6.1 11.3 6.1 11.3 6.1 Z M 7.7 4.5 C 7.6 4.4 7.6 4.4 7.7 4.5 C 7.7 4.5 7.7 4.5 7.7 4.5 Z M 11.7 9.1 C 11.6 9.0 11.6 9.0 11.7 9.1 C 11.7 9.1 11.7 9.1 11.7 9.1 Z M 11.3 2.3 C 11.3 2.3 11.3 2.3 11.3 2.3 C 11.3 2.3 11.3 2.3 11.3 2.3 Z M 11.5 11.5 C 11.4 11.5 11.4 11.5 11.5 11.5 C 11.5 11.5 11.5 11.5 11.5 11.5 Z M 5.3 5.2 C 6.2 5.9 4.7 4.9 5.3 5.2 C 5.3 5.2 5.3 5.2 5.3 5.2 Z M 6.0 6.5 C 6.0 6.6 6.0 6.6 6.0 6.5 C 6.0 6.5 6.0 6.5 6.0 6.5 Z M 13.9 13.6 C 14.0 13.7 14.0 13.7 13.9 13.6 C 13.9 13.6 13.9 13.6 13.9 13.6 Z M 6.2 9.3 C 6.2 9.4 6.2 9.4 6.2 9.3 C 6.2 9.3 6.2 9.3 6.2 9.3 Z M 8.8 11.2 C 8.8 11.1 8.8 11.1 8.8 11.2 C 8.8 11.2 8.8 11.2 8.8 11.2 Z M 10.9 9.5 C 11.8 10.7 9.9 8.9 10.9 9.5 C 10.9 9.5 10.9 9.5 10.9 9.5 Z M 11.0 14.5 C 10.9 14.5 10.9 14.5 11.0 14.5 C 11.0 14.5 11.0 14.5 11.0 14.5 Z M 13.4 15.4 C 13.3 15.4 13.3 15.4 13.4 15.4 C 13.4 15.4 13.4 15.4 13.4 15.4 Z M 14.6 15.8 C 14.5 15.8 14.5 15.8 14.6 15.8 C 14.6 15.8 14.6 15.8 14.6 15.8 Z M 9.6 3.7 C 9.7 3.7 9.7 3.7 9.6 3.7 C 9.6 3.7 9.6 3.7 9.6 3.7 Z M 12.7 6.4 C 12.8 6.4 12.8 6.4 12.7 6.4 C 12.7 6.4 12.7 6.4 12.7 6.4 Z M 11.7 6.5 C 11.8 6.6 11.8 6.6 11.7 6.5 C 11.7 6.5 11.7 6.5 11.7 6.5 Z M 8.3 2.0 C 8.4 2.1 8.4 2.1 8.3 2.0 C 8.3 2.0 8.3 2.0 8.3 2.0 Z M 7.8 6.8 C 7.9 6.8 7.9 6.8 7.8 6.8 C 7.8 6.8 7.8 6.8 7.8 6.8 Z M 6.4 6.5 C 6.5 6.5 6.5 6.5 6.4 6.5 C 6.4 6.5 6.4 6.5 6.4 6.5 Z M 3.3 3.7 C 3.3 3.7 3.3 3.7 3.3 3.7 C 3.3 3.7 3.3 3.7 3.3 3.7 Z M 5.2 6.3 C 5.2 6.3 5.2 6.3 5.2 6.3 C 5.2 6.3 5.2 6.3 5.2 6.3 Z M 14.7 2.5 C 14.7 2.5 14.7 2.5 14.7 2.5 C 14.7 2.5 14.7 2.5 14.7 2.5 Z M 15.3 4.6 C 15.3 4.6 15.3 4.6 15.3 4.6 C 15.3 4.6 15.3 4.6 15.3 4.6 Z M 10.3 8.2 C 11.1 8.7 9.6 8.2 10.3 8.2 M 8.8 5.9 C 8.7 5.8 8.7 5.8 8.8 5.9 C 8.8 5.9 8.8 5.9 8.8 5.9 Z M 12.0 11.6 C 11.0 11.4 12.1 10.8 12.0 11.6 C 12.0 11.6 12.0 11.6 12.0 11.6 Z M 6.4 8.4 C 6.4 8.4 6.4 8.4 6.4 8.4 C 6.4 8.4 6.4 8.4 6.4 8.4 Z M 7.2 9.3 C 7.1 9.3 7.1 9.3 7.2 9.3 C 7.2 9.3 7.2 9.3 7.2 9.3 Z M 12.1 13.7 C 12.1 13.8 12.1 13.8 12.1 13.7 M 9.9 6.3 C 9.9 6.3 9.8 6.3 9.8 6.3 C 8.9 6.0 9.1 6.1 9.8 6.3 C 9.8 6.3 9.9 6.3 9.9 6.3 M 12.3 12.2 C 12.3 12.2 12.3 12.2 12.3 12.2 C 12.3 12.2 12.3 12.2 12.3 12.2 Z M 13.1 14.5 C 13.1 14.5 13.1 14.5 13.1 14.5 C 13.1 14.5 13.1 14.5 13.1 14.5 Z M 10.3 5.8 C 8.9 4.8 9.5 5.0 10.3 5.8 M 14.0 5.5 C 14.0 5.4 14.0 5.4 14.0 5.5 C 14.0 5.5 14.0 5.5 14.0 5.5 Z M 14.0 5.5 " fill="#FEFFFE"></path></g></svg>