<?xml version="1.0" encoding="UTF-8" standalone="no"?><svg xmlns="http://www.w3.org/2000/svg" xmlns:xlink="http://www.w3.org/1999/xlink" clip-rule="evenodd" stroke-miterlimit="10" viewBox="0 0 28 30"><desc>SVG generated by Keynote</desc><defs></defs><g transform="matrix(1.00, 0.00, -0.00, -1.00, 0.0, 30.0)"><path d="M 11.8 25.1 C 11.7 25.3 11.0 25.1 10.9 25.2 M 11.8 25.1 C 10.9 24.2 9.9 24.1 8.5 24.0 C 7.1 23.9 8.8 24.8 8.7 25.2 C 6.8 25.6 6.7 24.9 6.8 23.9 C 6.2 24.6 4.0 23.4 4.5 24.6 C 7.6 24.6 2.3 24.9 5.0 25.7 C 5.3 25.8 4.5 26.2 4.2 26.2 C 5.2 26.7 3.6 27.3 5.2 27.7 C 5.4 28.4 5.1 28.1 6.2 28.7 C 6.7 28.8 6.5 28.5 6.4 28.3 C 6.4 27.4 7.7 28.8 8.5 28.3 C 9.6 29.5 10.0 28.1 9.2 27.6 C 10.0 27.7 11.3 28.9 11.8 28.1 C 12.4 28.7 14.4 28.3 12.8 27.5 C 11.8 27.1 12.6 26.7 12.6 26.4 C 12.2 26.2 11.1 26.5 10.9 26.3 C 11.2 26.1 12.5 25.7 10.9 25.7 C 11.3 25.3 10.4 25.1 11.8 25.1 C 11.8 25.1 11.8 25.1 11.8 25.1 Z M 6.4 24.4 C 6.4 24.1 6.9 24.5 6.4 24.4 C 6.4 24.4 6.4 24.4 6.4 24.4 Z M 11.3 28.7 C 11.2 28.4 11.9 28.7 11.3 28.7 C 11.3 28.7 11.3 28.7 11.3 28.7 Z M 6.7 28.4 C 6.6 28.0 7.3 28.4 6.7 28.4 C 6.7 28.4 6.7 28.4 6.7 28.4 Z M 7.8 24.7 C 8.7 24.9 7.2 25.1 7.0 24.8 C 7.2 24.8 7.5 24.4 7.8 24.7 C 7.8 24.7 7.8 24.7 7.8 24.7 Z M 8.3 26.5 C 8.4 26.4 8.7 26.3 8.8 26.7 C 8.5 26.7 8.3 26.6 8.3 26.5 C 8.3 26.5 8.3 26.5 8.3 26.5 Z M 3.9 25.2 C 3.9 25.1 4.3 25.0 4.2 25.4 C 4.0 25.4 3.8 25.3 3.9 25.2 C 3.9 25.2 3.9 25.2 3.9 25.2 Z M 8.9 25.5 C 9.2 25.5 9.3 25.8 9.1 25.9 C 8.9 25.7 8.3 25.7 8.9 25.5 C 8.9 25.5 8.9 25.5 8.9 25.5 Z M 9.9 24.4 C 10.6 24.6 9.4 25.1 9.4 24.9 C 9.1 24.7 9.5 24.2 9.9 24.4 C 9.9 24.4 9.9 24.4 9.9 24.4 Z M 9.5 25.9 C 10.1 26.1 9.3 26.2 9.5 25.9 C 9.5 25.9 9.5 25.9 9.5 25.9 Z M 4.5 27.5 C 5.2 27.7 4.3 27.8 4.5 27.5 C 4.5 27.5 4.5 27.5 4.5 27.5 Z M 8.2 28.5 C 8.9 28.7 7.9 28.7 8.2 28.5 C 8.2 28.5 8.2 28.5 8.2 28.5 Z M 6.4 25.3 C 5.4 25.3 6.1 24.5 6.4 25.3 C 6.4 25.3 6.4 25.3 6.4 25.3 Z M 11.4 24.4 C 10.5 24.3 11.0 23.6 11.4 24.4 C 11.4 24.4 11.4 24.4 11.4 24.4 Z M 5.4 25.0 C 5.5 26.0 6.6 22.6 5.3 23.7 C 4.3 24.0 4.4 21.5 5.4 22.4 C 5.5 21.7 5.5 21.7 5.0 21.2 C 5.8 21.2 6.2 19.7 5.8 19.0 C 5.1 18.4 5.7 20.1 5.0 18.9 C 4.8 16.7 4.3 18.8 3.4 17.6 C 3.4 17.5 3.9 17.7 3.6 17.4 C 2.8 17.0 2.3 18.1 1.7 17.3 C 1.8 17.7 1.0 19.2 1.7 18.7 C 2.4 18.6 0.7 20.4 2.0 20.5 C 1.4 21.0 2.2 21.8 1.5 22.2 C 1.4 22.6 2.0 22.7 2.2 22.7 C 2.7 22.7 0.9 23.0 1.9 23.8 C 1.6 23.9 1.7 25.9 2.2 24.4 C 2.1 24.8 1.8 27.0 2.9 25.9 C 3.4 24.5 4.0 27.4 4.1 25.7 C 4.2 24.5 4.0 24.2 4.6 25.2 C 4.5 25.5 4.6 26.9 5.1 25.7 C 5.0 25.4 5.1 24.9 5.4 25.0 C 5.4 25.0 5.4 25.0 5.4 25.0 Z M 3.8 25.2 C 3.7 24.4 4.2 25.2 3.8 25.2 C 3.8 25.2 3.8 25.2 3.8 25.2 Z M 1.3 22.0 C 1.2 21.2 1.7 22.0 1.3 22.0 C 1.3 22.0 1.3 22.0 1.3 22.0 Z M 5.7 22.9 C 5.3 22.5 6.5 22.6 5.7 22.9 C 5.7 22.9 5.7 22.9 5.7 22.9 Z M 2.2 23.5 C 2.2 23.5 2.3 23.7 2.4 23.9 C 2.3 23.8 2.2 23.6 2.2 23.5 C 2.2 23.5 2.2 23.5 2.2 23.5 Z M 5.6 21.7 C 5.1 20.5 6.5 21.7 5.6 21.7 C 5.6 21.7 5.6 21.7 5.6 21.7 Z M 4.6 19.3 C 3.4 18.8 4.8 18.2 4.6 19.3 C 4.6 19.3 4.6 19.3 4.6 19.3 Z M 2.1 20.1 C 2.3 20.4 1.9 20.3 2.1 20.1 C 2.1 20.1 2.1 20.1 2.1 20.1 Z M 1.9 25.5 C 2.1 25.7 1.7 25.7 1.9 25.5 C 1.9 25.5 1.9 25.5 1.9 25.5 Z M 2.2 18.7 C 2.6 18.9 1.9 19.0 2.2 18.7 C 2.2 18.7 2.2 18.7 2.2 18.7 Z M 5.2 22.6 C 6.1 23.7 3.9 23.6 5.2 22.6 C 5.2 22.6 5.2 22.6 5.2 22.6 Z M 5.3 24.4 C 5.5 25.0 4.7 24.2 4.9 23.9 C 4.9 23.9 5.2 24.2 5.3 24.4 C 5.3 24.4 5.3 24.4 5.3 24.4 Z M 5.1 21.6 C 5.5 22.3 4.8 22.1 5.1 21.6 C 5.1 21.6 5.1 21.6 5.1 21.6 Z M 5.6 23.3 C 5.5 23.7 5.5 23.1 5.6 23.3 C 5.6 23.3 5.6 23.3 5.6 23.3 Z M 6.0 20.5 C 5.9 20.8 5.9 20.2 6.0 20.5 C 6.0 20.5 6.0 20.5 6.0 20.5 Z M 5.8 25.2 C 5.6 25.5 5.6 24.9 5.8 25.2 C 5.8 25.2 5.8 25.2 5.8 25.2 Z M 5.4 20.6 C 5.0 20.4 4.1 21.1 4.9 19.6 C 5.2 19.4 5.8 20.3 5.4 20.6 C 5.4 20.6 5.4 20.6 5.4 20.6 Z M 14.9 25.2 C 10.1 23.9 12.0 26.1 11.9 26.5 C 11.5 27.1 12.3 27.5 13.5 27.9 C 15.2 29.4 14.3 26.5 15.8 27.9 C 18.3 29.8 16.3 26.2 18.1 28.3 C 18.2 28.8 19.9 28.3 19.7 28.2 C 21.4 29.2 21.4 27.5 21.3 27.3 C 22.2 27.6 23.7 29.3 24.6 28.0 C 24.9 27.9 25.3 27.9 25.6 28.0 C 25.9 27.4 26.6 27.7 25.7 27.2 C 27.1 27.2 25.3 26.1 25.8 25.2 C 26.5 24.9 24.6 24.3 26.1 23.8 C 24.9 22.5 26.8 25.1 26.0 20.3 C 25.9 22.3 25.1 18.1 25.9 19.1 C 26.7 20.8 25.6 17.1 26.1 15.2 C 25.6 14.7 24.6 12.7 25.7 12.9 C 27.0 10.5 24.9 11.2 26.0 9.9 C 26.5 9.1 25.5 9.3 25.6 8.8 C 26.4 7.7 25.8 7.4 26.1 4.7 C 26.2 3.2 26.1 2.6 25.9 2.4 C 25.2 2.7 24.9 3.2 24.7 3.6 C 24.5 4.0 24.3 4.3 23.8 4.5 C 23.7 4.5 23.6 4.6 23.4 4.6 C 23.2 4.7 23.1 5.0 22.9 5.4 C 22.2 6.6 21.2 8.3 22.7 6.5 C 22.1 7.2 24.2 9.2 22.0 8.9 C 22.9 9.5 21.1 9.3 22.1 10.9 C 23.7 6.3 22.7 14.5 22.0 11.5 C 21.5 12.2 21.6 13.4 22.0 12.4 C 23.4 11.5 21.4 14.6 23.1 13.1 C 22.6 15.3 24.1 14.6 23.1 15.3 C 21.2 15.7 23.5 15.2 23.0 16.3 C 23.0 18.9 20.9 16.6 22.3 18.2 C 21.3 20.0 23.1 19.0 23.3 20.0 C 24.6 20.9 22.3 22.0 22.2 20.1 C 22.8 21.4 21.5 19.9 22.4 21.4 C 23.5 21.3 21.1 21.8 22.0 22.3 C 22.4 23.5 23.1 23.5 23.1 23.9 C 23.1 25.5 21.9 23.9 22.8 25.0 C 22.9 25.1 22.9 25.2 22.9 25.2 C 22.5 25.3 20.9 24.1 21.0 24.5 C 22.7 24.5 20.8 25.7 20.1 25.1 C 21.0 25.0 18.3 23.5 18.4 24.5 C 21.4 27.1 16.6 23.8 16.5 24.7 C 18.2 26.2 13.1 24.9 14.3 24.2 C 14.3 24.3 14.9 25.2 14.9 25.2 M 20.7 24.7 C 22.2 24.8 19.6 25.0 20.7 24.7 M 20.3 24.3 C 21.4 24.8 18.8 24.0 20.3 24.2 C 20.3 24.2 20.2 24.3 20.3 24.3 M 21.9 20.9 C 22.3 21.3 21.7 21.4 21.9 20.9 M 22.8 20.5 C 23.2 19.8 22.9 21.6 22.8 20.5 M 22.5 9.0 C 24.7 9.0 21.3 10.9 22.5 9.0 M 22.1 16.4 C 22.4 17.8 21.2 15.9 22.1 16.4 M 22.6 16.9 C 23.0 17.6 22.1 17.0 22.6 16.9 M 22.5 11.2 C 22.6 11.0 22.6 11.0 22.5 11.2 C 22.5 11.2 22.5 11.2 22.5 11.2 Z M 22.6 7.8 C 22.5 7.8 22.5 7.8 22.6 7.8 C 22.6 7.8 22.6 7.8 22.6 7.8 Z M 22.7 14.4 C 22.2 15.5 22.5 12.7 22.7 14.4 C 22.7 14.4 22.7 14.4 22.7 14.4 Z M 25.8 7.3 C 25.9 7.4 25.9 7.4 25.8 7.3 C 25.8 7.3 25.8 7.3 25.8 7.3 Z M 20.5 25.7 C 20.5 25.7 20.5 25.7 20.5 25.7 C 20.5 25.7 20.5 25.7 20.5 25.7 Z M 15.8 24.9 C 16.0 25.1 14.9 24.6 15.8 24.9 C 15.8 24.9 15.8 24.9 15.8 24.9 Z M 13.6 27.3 C 13.6 27.3 13.6 27.3 13.6 27.3 C 13.6 27.3 13.6 27.3 13.6 27.3 Z M 20.0 26.8 C 20.0 26.8 20.0 26.8 20.0 26.8 C 20.0 26.8 20.0 26.8 20.0 26.8 Z M 19.4 25.2 C 17.8 24.0 21.2 25.5 19.4 25.2 C 19.4 25.2 19.4 25.2 19.4 25.2 Z M 25.7 15.8 C 25.2 15.8 25.9 14.6 25.7 15.8 C 25.7 15.8 25.7 15.8 25.7 15.8 Z M 23.3 20.6 C 23.0 20.3 23.4 20.0 23.3 20.6 C 23.3 20.6 23.3 20.6 23.3 20.6 Z M 21.7 21.7 C 21.4 21.3 21.8 21.2 21.7 21.7 C 21.7 21.7 21.7 21.7 21.7 21.7 Z M 15.6 24.5 C 15.7 24.5 15.7 24.5 15.6 24.5 C 15.6 24.5 15.6 24.5 15.6 24.5 Z M 17.7 25.4 C 15.9 24.3 19.8 26.0 17.7 25.4 C 17.7 25.4 17.7 25.4 17.7 25.4 Z M 16.1 25.7 C 17.0 26.2 14.6 25.6 16.1 25.7 M 18.3 27.4 C 19.4 27.0 18.3 29.4 18.3 27.4 C 18.3 27.4 18.3 27.4 18.3 27.4 Z M 25.5 27.4 C 25.6 27.4 25.6 27.4 25.5 27.4 C 25.5 27.4 25.5 27.4 25.5 27.4 Z M 22.0 24.7 C 22.2 24.7 22.3 24.7 22.3 24.7 C 22.3 24.6 22.4 24.7 22.4 24.7 C 22.3 24.8 21.7 24.8 22.0 24.7 C 22.0 24.7 22.0 24.7 22.0 24.7 Z M 12.5 24.4 C 13.6 24.4 11.9 24.7 12.5 24.4 C 12.5 24.4 12.5 24.4 12.5 24.4 Z M 24.4 22.3 C 24.3 20.2 25.0 24.0 24.4 22.3 C 24.4 22.3 24.4 22.3 24.4 22.3 Z M 23.2 15.0 C 23.2 14.9 23.2 14.9 23.2 15.0 C 23.2 15.0 23.2 15.0 23.2 15.0 Z M 22.7 13.8 C 22.7 13.8 22.7 13.8 22.7 13.8 C 22.7 13.8 22.7 13.8 22.7 13.8 Z M 23.8 8.2 C 23.9 8.1 23.9 8.1 23.8 8.2 C 23.8 8.2 23.8 8.2 23.8 8.2 Z M 22.2 12.9 C 22.2 12.9 22.2 12.9 22.2 12.9 C 22.2 12.9 22.2 12.9 22.2 12.9 Z M 22.5 9.6 C 22.5 9.5 22.5 9.5 22.5 9.6 C 22.5 9.6 22.5 9.6 22.5 9.6 Z M 21.5 10.5 C 21.6 10.5 21.6 10.5 21.5 10.5 C 21.5 10.5 21.5 10.5 21.5 10.5 Z M 26.3 18.1 C 26.4 18.0 26.4 18.0 26.3 18.1 C 26.3 18.1 26.3 18.1 26.3 18.1 Z M 17.2 24.2 C 17.4 24.3 17.4 24.3 17.2 24.2 C 17.2 24.2 17.2 24.2 17.2 24.2 Z M 22.9 9.6 C 22.9 9.5 22.9 9.5 22.9 9.6 C 22.9 9.6 22.9 9.6 22.9 9.6 Z M 23.8 18.2 C 24.7 18.4 22.5 18.5 23.7 17.9 C 23.8 18.0 23.6 18.2 23.8 18.2 M 25.3 17.2 C 25.4 17.2 25.4 17.2 25.3 17.2 C 25.3 17.2 25.3 17.2 25.3 17.2 Z M 25.9 22.2 C 25.9 22.3 25.9 22.3 25.9 22.2 C 25.9 22.2 25.9 22.2 25.9 22.2 Z M 22.0 13.5 C 21.5 13.7 22.4 12.5 22.0 13.6 M 25.5 7.1 C 25.0 7.6 25.9 5.6 25.5 7.3 M 11.4 24.8 C 11.4 25.2 10.6 24.5 11.4 24.8 M 26.4 23.6 C 26.8 24.0 26.2 24.4 26.4 23.6 M 25.2 20.7 C 24.7 20.6 25.6 19.7 25.2 20.9 M 25.5 10.4 C 25.5 10.3 25.5 10.3 25.5 10.4 C 25.5 10.4 25.5 10.4 25.5 10.4 Z M 22.4 23.5 C 22.4 23.5 22.4 23.5 22.4 23.5 C 22.4 23.5 22.4 23.5 22.4 23.5 Z M 23.5 19.6 C 22.8 19.9 24.0 18.8 23.5 19.6 M 23.6 26.0 C 22.9 25.7 23.0 25.6 23.4 25.7 C 23.9 25.8 24.7 26.2 23.7 26.0 C 23.7 26.0 23.6 26.0 23.6 26.0 M 25.7 4.4 C 24.6 6.6 26.3 2.9 25.7 4.4 M 23.0 11.9 C 21.9 13.2 23.6 10.9 23.0 11.9 M 22.9 23.0 C 22.3 22.6 23.2 22.2 22.9 23.0 M 13.8 24.7 C 12.8 24.6 14.9 24.2 13.8 24.7 M 25.5 13.6 C 25.5 13.5 25.5 13.5 25.5 13.6 C 25.5 13.6 25.5 13.6 25.5 13.6 Z M 20.0 28.8 C 20.1 28.8 20.1 28.8 20.0 28.8 C 20.0 28.8 20.0 28.8 20.0 28.8 Z M 22.2 6.3 C 22.2 6.2 22.2 6.2 22.2 6.3 C 22.2 6.3 22.2 6.3 22.2 6.3 Z M 23.5 12.4 C 23.6 12.3 23.6 12.3 23.5 12.4 C 23.5 12.4 23.5 12.4 23.5 12.4 Z M 22.0 8.2 C 22.1 8.1 22.1 8.1 22.0 8.2 C 22.0 8.2 22.0 8.2 22.0 8.2 Z M 24.3 15.8 C 24.4 15.8 24.4 15.8 24.3 15.8 C 24.3 15.8 24.3 15.8 24.3 15.8 Z M 21.6 16.3 C 21.6 16.3 21.6 16.3 21.6 16.3 C 21.6 16.3 21.6 16.3 21.6 16.3 Z M 22.8 19.8 C 22.8 19.8 22.8 19.8 22.8 19.8 C 22.8 19.8 22.8 19.8 22.8 19.8 Z M 21.8 14.9 C 21.6 13.0 22.7 15.9 21.8 14.9 C 21.8 14.9 21.8 14.9 21.8 14.9 Z M 24.6 18.9 C 24.6 18.9 24.6 18.9 24.6 18.9 C 24.6 18.9 24.6 18.9 24.6 18.9 Z M 22.6 18.6 C 21.8 17.2 23.9 18.3 22.6 18.6 M 22.0 23.7 C 21.5 23.0 22.6 24.1 22.0 23.7 M 23.6 27.9 C 23.7 28.0 23.7 28.0 23.6 27.9 C 23.6 27.9 23.6 27.9 23.6 27.9 Z M 24.1 27.7 C 24.2 27.7 24.2 27.7 24.1 27.7 C 24.1 27.7 24.1 27.7 24.1 27.7 Z M 21.1 24.2 C 21.1 24.2 21.1 24.2 21.1 24.2 C 21.1 24.2 21.1 24.2 21.1 24.2 Z M 25.2 28.7 C 25.3 28.7 25.3 28.7 25.2 28.7 C 25.2 28.7 25.2 28.7 25.2 28.7 Z M 21.7 17.0 C 21.7 17.0 21.7 17.0 21.7 17.0 C 21.7 17.0 21.7 17.0 21.7 17.0 Z M 21.6 7.6 C 21.6 7.6 21.6 7.6 21.6 7.6 C 21.6 7.6 21.6 7.6 21.6 7.6 Z M 15.8 27.6 C 15.9 27.6 15.9 27.6 15.8 27.6 C 15.8 27.6 15.8 27.6 15.8 27.6 Z M 22.8 16.1 C 22.8 16.0 22.8 16.0 22.8 16.1 C 22.8 16.1 22.8 16.1 22.8 16.1 Z M 21.7 27.8 C 21.8 27.8 21.8 27.8 21.7 27.8 C 21.7 27.8 21.7 27.8 21.7 27.8 Z M 22.5 16.7 C 22.5 16.7 22.5 16.7 22.5 16.7 C 22.5 16.7 22.5 16.7 22.5 16.7 Z M 25.7 13.9 C 25.7 13.9 25.7 13.9 25.7 13.9 C 25.7 13.9 25.7 13.9 25.7 13.9 Z M 26.3 10.8 C 26.4 10.7 26.4 10.7 26.3 10.8 C 26.3 10.8 26.3 10.8 26.3 10.8 Z M 23.8 14.3 C 23.8 14.3 23.8 14.3 23.8 14.3 C 23.8 14.3 23.8 14.3 23.8 14.3 Z M 19.9 26.6 C 14.6 25.6 23.2 26.2 19.9 26.6 M 24.0 13.5 C 23.8 16.8 23.0 11.3 24.0 13.5 C 23.7 13.2 24.0 13.5 24.0 13.5 M 20.9 6.6 C 21.7 6.2 22.4 5.8 22.9 5.4 C 23.5 5.0 23.9 4.6 24.2 4.1 C 24.3 3.9 24.4 3.8 24.5 3.6 C 24.2 3.0 22.4 5.1 23.9 3.3 C 25.9 3.0 25.4 0.8 23.6 3.0 C 21.1 3.3 24.3 1.6 22.2 2.5 C 19.5 2.7 21.2 2.0 19.1 2.2 C 17.5 3.4 18.1 1.6 17.2 2.7 C 18.7 1.5 15.1 3.0 15.1 2.5 C 17.1 1.7 8.3 2.5 13.0 2.8 C 11.3 3.4 11.5 2.4 10.8 2.2 C 10.2 3.0 7.3 1.7 6.5 2.4 C 6.8 2.5 7.4 2.6 7.7 2.8 C 8.3 3.3 6.3 2.7 6.5 2.8 C 6.0 3.0 3.7 3.8 5.8 2.5 C 5.6 1.9 3.4 2.8 3.0 2.2 C 2.2 2.2 1.9 2.3 1.8 2.4 C 2.0 3.2 2.5 2.9 1.9 3.1 C 1.8 4.9 1.8 6.3 2.0 6.4 C 1.9 7.4 1.2 7.1 1.8 8.6 C 0.5 10.1 4.4 11.9 1.8 11.1 C 2.4 12.1 0.7 11.8 2.3 12.6 C 1.6 11.4 1.1 15.9 2.2 14.4 C 2.6 15.1 0.6 17.2 2.2 17.4 C 3.4 18.8 4.6 19.1 5.7 17.5 C 4.8 17.3 6.6 16.0 5.1 16.6 C 4.5 18.1 4.5 13.1 5.1 14.5 C 7.0 15.8 3.9 11.4 5.2 11.3 C 4.5 11.6 4.1 7.2 5.5 9.6 C 5.6 9.0 5.0 8.2 5.8 8.2 C 5.7 10.3 4.3 5.9 5.2 6.9 C 5.4 7.2 5.6 6.9 5.7 6.4 C 6.6 6.5 7.4 6.4 6.9 6.0 C 3.9 4.0 8.0 6.4 8.0 5.6 C 9.6 5.2 8.9 7.3 9.2 5.9 C 9.6 6.1 11.9 6.1 10.6 6.5 C 10.0 6.3 11.4 4.4 12.1 6.0 C 10.1 7.0 14.8 6.5 14.0 6.0 C 9.9 5.1 18.5 5.0 15.1 5.9 C 16.5 6.8 14.6 6.3 16.7 5.9 C 16.6 5.4 18.6 4.8 17.7 5.9 C 17.2 7.5 19.3 3.8 19.5 5.9 C 19.1 6.9 22.7 5.3 20.8 6.3 C 20.7 6.4 20.9 6.6 20.9 6.6 M 20.4 6.4 C 20.9 6.1 20.4 6.8 20.4 6.4 M 21.0 6.1 C 21.0 6.1 21.0 6.1 21.0 6.1 C 21.0 6.1 21.0 6.1 21.0 6.1 Z M 17.1 5.8 C 17.1 5.9 17.1 5.9 17.1 5.8 C 17.1 5.8 17.1 5.8 17.1 5.8 Z M 13.8 1.9 C 13.8 1.9 13.8 1.9 13.8 1.9 C 13.8 1.9 13.8 1.9 13.8 1.9 Z M 14.3 5.7 C 14.3 5.7 14.3 5.7 14.3 5.7 C 14.3 5.7 14.3 5.7 14.3 5.7 Z M 18.6 5.6 C 18.7 5.6 18.7 5.6 18.6 5.6 C 18.6 5.6 18.6 5.6 18.6 5.6 Z M 14.5 6.3 C 14.4 5.7 15.3 6.7 14.5 6.4 C 14.4 6.4 14.6 6.4 14.5 6.3 M 11.2 6.5 C 11.2 6.5 11.2 6.5 11.2 6.5 M 1.3 4.6 C 1.2 4.6 1.2 4.6 1.3 4.6 M 5.9 9.5 C 5.9 9.5 5.9 9.5 5.9 9.5 M 7.5 5.9 C 6.5 6.0 7.0 5.6 7.5 5.9 M 5.6 12.3 C 6.0 11.1 5.9 14.1 5.6 12.3 M 6.0 13.9 C 5.9 14.0 5.9 14.0 6.0 13.9 M 5.7 7.2 C 5.7 7.1 5.7 7.1 5.7 7.2 C 5.7 7.2 5.7 7.2 5.7 7.2 Z M 8.1 6.2 C 9.7 6.5 7.2 6.7 8.1 6.2 M 16.4 6.4 C 15.6 6.7 16.6 5.6 16.4 6.4 M 18.1 6.1 C 18.1 6.0 18.1 6.0 18.1 6.1 C 18.1 6.1 18.1 6.1 18.1 6.1 Z M 5.6 9.9 C 5.6 9.9 5.6 9.9 5.6 9.9 C 5.6 9.9 5.6 9.9 5.6 9.9 Z M 5.7 11.7 C 5.7 11.7 5.7 11.7 5.7 11.7 C 5.7 11.7 5.7 11.7 5.7 11.7 Z M 1.4 12.0 C 1.4 11.9 1.4 11.9 1.4 12.0 C 1.4 12.0 1.4 12.0 1.4 12.0 Z M 17.6 4.2 C 18.7 4.5 15.9 5.7 16.4 4.6 C 16.4 4.2 17.4 4.3 17.6 4.2 M 8.4 4.9 C 7.2 3.4 10.4 6.9 8.4 4.9 M 5.0 13.5 C 3.2 13.7 6.2 12.9 5.0 13.5 M 5.3 16.1 C 4.9 16.6 5.1 11.6 5.6 15.4 C 5.8 15.9 5.5 15.9 5.3 16.1 M 10.9 5.8 C 10.3 5.0 12.7 6.2 10.9 5.8 M 2.7 4.4 C 3.3 5.5 3.7 7.5 2.8 6.0 C 1.7 5.0 2.3 3.2 2.7 4.4 M 20.7 5.6 C 18.9 6.9 21.6 4.5 20.7 5.6 M 16.5 5.5 C 16.4 5.5 16.4 5.5 16.5 5.5 C 16.5 5.5 16.5 5.5 16.5 5.5 Z M 14.7 5.7 C 14.7 5.6 14.7 5.6 14.7 5.7 M 19.2 6.7 C 19.2 6.6 19.2 6.6 19.2 6.7 M 4.1 5.7 C 4.0 5.7 4.0 5.7 4.1 5.7 M 7.6 5.6 C 4.8 4.3 8.3 5.3 7.6 5.6 M 11.0 3.1 C 10.1 2.5 12.3 3.1 11.0 3.1 M 5.4 6.2 C 4.9 6.2 4.6 5.6 4.6 5.2 C 4.5 4.7 4.8 4.6 5.4 6.0 C 5.4 6.1 5.4 6.1 5.4 6.2 M 8.5 5.7 C 8.4 5.7 8.4 5.7 8.5 5.7 C 8.5 5.7 8.5 5.7 8.5 5.7 Z M 2.6 4.8 C 2.6 4.7 2.6 4.7 2.6 4.8 C 2.6 4.8 2.6 4.8 2.6 4.8 Z M 2.7 5.4 C 2.6 5.3 2.6 5.3 2.7 5.4 C 2.7 5.4 2.7 5.4 2.7 5.4 Z M 5.6 7.8 C 5.6 7.7 5.6 7.7 5.6 7.8 C 5.6 7.8 5.6 7.8 5.6 7.8 Z M 19.9 2.7 C 18.4 2.6 21.3 2.5 19.9 2.7 C 19.9 2.7 19.9 2.7 19.9 2.7 Z M 13.3 6.3 C 11.2 5.3 14.6 5.4 13.3 6.3 C 13.3 6.3 13.3 6.3 13.3 6.3 Z M 10.8 4.7 C 10.7 4.6 10.7 4.6 10.8 4.7 C 10.8 4.7 10.8 4.7 10.8 4.7 Z M 6.8 6.9 C 6.7 6.8 6.7 6.8 6.8 6.9 C 6.8 6.9 6.8 6.9 6.8 6.9 Z M 19.2 2.5 C 19.2 2.4 19.2 2.4 19.2 2.5 C 19.2 2.5 19.2 2.5 19.2 2.5 Z M 4.9 10.8 C 4.9 10.7 4.9 10.7 4.9 10.8 C 4.9 10.8 4.9 10.8 4.9 10.8 Z M 4.8 3.0 C 4.7 3.5 4.4 2.7 4.8 3.0 C 4.8 3.0 4.8 3.0 4.8 3.0 Z M 2.5 3.0 C 2.5 3.0 2.5 3.0 2.5 3.0 C 2.5 3.0 2.5 3.0 2.5 3.0 Z M 6.0 14.4 C 6.1 14.5 6.1 14.5 6.0 14.4 C 6.0 14.4 6.0 14.4 6.0 14.4 Z M 1.2 7.4 C 1.2 7.4 1.2 7.4 1.2 7.4 C 1.2 7.4 1.2 7.4 1.2 7.4 Z M 2.7 10.2 C 2.7 10.2 2.7 10.2 2.7 10.2 C 2.7 10.2 2.7 10.2 2.7 10.2 Z M 5.3 7.2 C 5.5 9.3 4.7 6.3 5.3 7.2 C 5.3 7.2 5.3 7.2 5.3 7.2 Z M 3.1 15.6 C 3.0 15.6 3.0 15.6 3.1 15.6 C 3.1 15.6 3.1 15.6 3.1 15.6 Z M 4.8 17.3 C 4.7 17.4 4.7 17.4 4.8 17.3 C 4.8 17.3 4.8 17.3 4.8 17.3 Z M 5.6 18.2 C 5.6 18.2 5.6 18.2 5.6 18.2 C 5.6 18.2 5.6 18.2 5.6 18.2 Z M 15.0 3.9 C 15.0 3.9 15.0 3.9 15.0 3.9 C 15.0 3.9 15.0 3.9 15.0 3.9 Z M 15.3 6.6 C 15.3 6.6 15.3 6.6 15.3 6.6 C 15.3 6.6 15.3 6.6 15.3 6.6 Z M 13.2 6.7 C 13.2 6.7 13.2 6.7 13.2 6.7 C 13.2 6.7 13.2 6.7 13.2 6.7 Z M 15.7 2.2 C 15.8 2.2 15.8 2.2 15.7 2.2 C 15.7 2.2 15.7 2.2 15.7 2.2 Z M 5.4 4.5 C 5.5 4.6 5.5 4.6 5.4 4.5 C 5.4 4.5 5.4 4.5 5.4 4.5 Z M 3.5 3.4 C 3.6 3.5 3.6 3.5 3.5 3.4 C 3.5 3.4 3.5 3.4 3.5 3.4 Z M 5.0 1.9 C 5.0 2.0 5.0 2.0 5.0 1.9 C 5.0 1.9 5.0 1.9 5.0 1.9 Z M 1.8 2.6 C 1.8 2.6 1.8 2.6 1.8 2.6 C 1.8 2.6 1.8 2.6 1.8 2.6 Z M 23.5 2.7 C 23.5 2.7 23.5 2.7 23.5 2.7 C 23.5 2.7 23.5 2.7 23.5 2.7 Z M 22.0 4.8 C 22.1 4.7 22.1 4.7 22.0 4.8 C 22.0 4.8 22.0 4.8 22.0 4.8 Z M 6.5 6.0 C 6.5 6.5 5.1 5.5 6.5 6.0 M 9.5 5.8 C 9.5 5.7 9.5 5.7 9.5 5.8 C 9.5 5.8 9.5 5.8 9.5 5.8 Z M 5.3 10.8 C 4.5 10.6 5.7 9.5 5.3 10.8 C 5.3 10.8 5.3 10.8 5.3 10.8 Z M 1.8 5.9 C 1.8 5.9 1.8 5.9 1.8 5.9 C 1.8 5.9 1.8 5.9 1.8 5.9 Z M 2.2 7.3 C 2.1 7.3 2.1 7.3 2.2 7.3 C 2.2 7.3 2.2 7.3 2.2 7.3 Z M 4.4 14.5 C 4.4 14.6 4.4 14.6 4.4 14.5 M 10.3 6.5 C 9.7 6.2 9.8 6.2 10.3 6.5 M 5.3 12.0 C 5.3 11.9 5.3 11.9 5.3 12.0 C 5.3 12.0 5.3 12.0 5.3 12.0 Z M 4.9 15.9 C 4.9 15.9 4.9 15.9 4.9 15.9 C 4.9 15.9 4.9 15.9 4.9 15.9 Z M 12.3 6.0 C 12.1 4.9 12.6 5.2 12.3 6.0 M 18.9 5.6 C 19.0 5.6 19.0 5.6 18.9 5.6 C 18.9 5.6 18.9 5.6 18.9 5.6 Z M 18.9 5.6 " fill="#FEFFFE"></path></g></svg>