<?xml version="1.0" encoding="UTF-8" standalone="no"?><svg xmlns="http://www.w3.org/2000/svg" xmlns:xlink="http://www.w3.org/1999/xlink" clip-rule="evenodd" stroke-miterlimit="10" viewBox="0 0 49 47"><desc>SVG generated by Keynote</desc><defs></defs><g transform="matrix(1.00, 0.00, -0.00, -1.00, 0.0, 47.0)"><path d="M 26.4 36.1 C 26.1 36.4 24.5 36.0 24.3 36.3 M 26.4 36.1 C 23.8 33.9 21.5 33.7 18.4 33.3 C 15.2 33.3 19.3 35.4 19.3 36.3 C 14.9 37.2 14.5 35.6 14.5 33.2 C 13.3 34.8 8.2 32.0 9.4 34.9 C 16.4 34.9 4.0 35.6 10.6 37.4 C 11.3 37.8 9.5 38.6 8.8 38.6 C 11.1 39.8 7.2 41.3 11.1 42.2 C 11.8 44.0 11.0 43.2 13.8 44.7 C 15.0 44.9 14.4 44.2 14.2 43.8 C 14.2 41.6 17.6 45.0 19.4 43.6 C 22.4 46.5 23.1 43.1 21.0 41.9 C 23.0 42.3 26.6 45.2 27.6 43.2 C 29.4 44.6 34.1 43.7 29.9 41.9 C 27.1 40.7 28.9 39.9 28.8 39.2 C 27.7 38.6 25.4 39.5 24.7 38.9 C 25.3 38.5 28.2 37.5 24.6 37.5 C 25.2 36.6 23.1 36.0 26.4 36.1 C 26.4 36.1 26.4 36.1 26.4 36.1 Z M 13.7 34.5 C 13.5 33.7 14.8 34.5 13.7 34.5 C 13.7 34.5 13.7 34.5 13.7 34.5 Z M 26.6 44.6 C 26.2 43.9 28.2 44.7 26.6 44.6 C 26.6 44.6 26.6 44.6 26.6 44.6 Z M 14.9 43.9 C 14.8 43.1 16.4 43.9 14.9 43.9 C 14.9 43.9 14.9 43.9 14.9 43.9 Z M 16.9 35.0 C 19.0 35.6 15.6 36.0 15.1 35.3 C 15.6 35.4 16.2 34.3 16.9 35.0 C 16.9 35.0 16.9 35.0 16.9 35.0 Z M 18.6 39.4 C 18.7 39.1 19.5 39.0 19.7 39.8 C 19.2 40.0 18.5 39.6 18.6 39.4 C 18.6 39.4 18.6 39.4 18.6 39.4 Z M 7.9 36.2 C 8.0 36.0 8.8 35.9 8.8 36.6 C 8.2 36.8 7.7 36.5 7.9 36.2 C 7.9 36.2 7.9 36.2 7.9 36.2 Z M 19.8 37.0 C 20.4 37.1 20.8 37.8 20.3 37.9 C 19.8 37.6 18.4 37.4 19.8 37.0 C 19.8 37.0 19.8 37.0 19.8 37.0 Z M 21.7 34.4 C 23.4 34.8 20.8 36.0 20.7 35.6 C 19.9 35.1 20.6 33.8 21.7 34.4 C 21.7 34.4 21.7 34.4 21.7 34.4 Z M 21.2 38.0 C 22.8 38.4 20.8 38.6 21.2 38.0 C 21.2 38.0 21.2 38.0 21.2 38.0 Z M 9.5 41.9 C 11.2 42.2 8.9 42.4 9.5 41.9 C 9.5 41.9 9.5 41.9 9.5 41.9 Z M 18.7 44.2 C 20.5 44.6 18.1 44.8 18.7 44.2 C 18.7 44.2 18.7 44.2 18.7 44.2 Z M 13.7 36.5 C 11.3 36.4 13.0 34.5 13.7 36.5 C 13.7 36.5 13.7 36.5 13.7 36.5 Z M 25.1 34.3 C 22.9 34.2 23.7 32.3 25.1 34.3 C 25.1 34.3 25.1 34.3 25.1 34.3 Z M 11.5 36.1 C 11.9 38.2 14.4 31.1 11.4 33.2 C 9.0 33.6 9.2 27.7 11.5 30.0 C 11.7 28.5 11.9 28.5 10.7 27.2 C 12.5 27.7 13.4 24.6 12.5 22.8 C 11.0 21.0 12.3 25.1 10.6 22.0 C 10.2 16.8 8.9 21.3 6.9 18.0 C 6.9 17.7 7.9 18.3 7.3 17.4 C 5.4 15.9 4.1 18.5 2.7 16.0 C 3.0 17.1 0.9 20.6 2.6 19.5 C 4.4 19.9 0.4 23.6 3.4 24.3 C 2.0 25.3 3.9 27.5 2.2 28.4 C 1.9 29.5 3.4 29.9 3.8 29.8 C 5.2 30.1 0.7 30.4 3.1 32.7 C 2.4 32.7 2.7 37.8 3.8 34.2 C 3.6 35.2 2.9 40.7 5.6 38.0 C 6.8 34.5 8.3 41.6 8.4 37.6 C 8.7 34.6 8.2 33.9 9.6 36.3 C 9.4 37.0 9.7 40.5 10.9 37.6 C 10.5 36.9 10.8 35.6 11.5 36.1 C 11.5 36.1 11.5 36.1 11.5 36.1 Z M 7.6 36.3 C 7.5 34.5 8.6 36.3 7.6 36.3 C 7.6 36.3 7.6 36.3 7.6 36.3 Z M 1.6 27.9 C 1.5 25.7 2.6 28.1 1.6 27.9 C 1.6 27.9 1.6 27.9 1.6 27.9 Z M 12.2 31.3 C 11.3 30.3 14.1 31.0 12.2 31.3 C 12.2 31.3 12.2 31.3 12.2 31.3 Z M 3.8 32.0 C 3.8 31.9 4.2 32.4 4.3 32.8 C 4.2 32.7 3.8 32.2 3.8 32.0 C 3.8 32.0 3.8 32.0 3.8 32.0 Z M 12.2 28.7 C 10.8 25.8 14.3 29.1 12.2 28.7 C 12.2 28.7 12.2 28.7 12.2 28.7 Z M 9.6 22.6 C 6.8 20.7 10.1 20.3 9.6 22.6 C 9.6 22.6 9.6 22.6 9.6 22.6 Z M 3.5 23.4 C 4.1 24.2 3.2 23.8 3.5 23.4 C 3.5 23.4 3.5 23.4 3.5 23.4 Z M 3.1 36.8 C 3.7 37.3 2.8 37.3 3.1 36.8 C 3.1 36.8 3.1 36.8 3.1 36.8 Z M 3.8 19.8 C 4.8 20.6 3.3 20.6 3.8 19.8 C 3.8 19.8 3.8 19.8 3.8 19.8 Z M 11.1 30.6 C 13.3 33.3 7.9 32.5 11.1 30.6 C 11.1 30.6 11.1 30.6 11.1 30.6 Z M 11.3 34.5 C 11.7 36.1 9.9 34.0 10.3 33.4 C 10.5 33.5 11.2 34.3 11.3 34.5 C 11.3 34.5 11.3 34.5 11.3 34.5 Z M 10.8 28.1 C 11.9 30.0 10.2 29.4 10.8 28.1 C 10.8 28.1 10.8 28.1 10.8 28.1 Z M 12.0 32.3 C 11.8 33.0 11.7 31.6 12.0 32.3 C 12.0 32.3 12.0 32.3 12.0 32.3 Z M 13.1 26.3 C 12.8 26.9 12.8 25.6 13.1 26.3 C 13.1 26.3 13.1 26.3 13.1 26.3 Z M 12.4 36.5 C 12.2 37.2 12.1 35.8 12.4 36.5 C 12.4 36.5 12.4 36.5 12.4 36.5 Z M 11.7 26.2 C 10.7 25.5 8.5 26.7 10.3 23.6 C 11.0 23.3 12.5 25.6 11.7 26.2 C 11.7 26.2 11.7 26.2 11.7 26.2 Z M 30.0 36.2 C 22.7 33.1 27.1 38.5 27.4 39.5 C 27.4 40.9 28.8 41.9 30.7 42.9 C 34.4 46.3 30.5 39.4 33.8 42.8 C 39.1 47.3 32.9 38.8 37.3 43.6 C 38.0 44.8 39.9 43.8 39.4 43.5 C 42.8 45.8 41.0 41.7 40.7 41.3 C 41.9 41.9 45.3 45.2 45.9 43.9 C 45.7 43.4 45.5 42.8 45.1 42.0 C 43.9 38.7 48.2 41.0 45.2 39.4 C 48.5 40.0 44.3 37.4 45.4 36.5 C 47.2 36.3 42.6 34.6 46.1 34.6 C 43.3 32.2 47.9 36.7 45.9 29.4 C 45.7 32.3 43.7 26.2 45.6 27.6 C 47.6 30.3 44.8 24.7 46.0 22.0 C 45.0 21.3 42.5 18.8 45.3 18.6 C 48.4 14.6 43.3 16.5 45.9 14.3 C 47.0 12.8 44.7 13.6 44.9 12.9 C 46.8 10.7 45.5 10.6 46.1 6.6 C 46.3 4.3 46.1 3.5 45.6 3.4 C 44.3 4.1 43.6 5.2 42.8 6.3 C 42.1 7.1 41.4 8.0 40.7 8.4 C 40.4 8.5 40.2 8.6 40.0 8.6 C 39.6 8.9 39.1 9.7 38.6 10.5 C 36.7 12.9 34.5 15.8 37.9 12.1 C 36.5 13.7 41.5 14.2 36.2 15.6 C 38.4 15.6 34.1 17.0 36.6 17.8 C 40.3 10.9 38.1 21.7 36.3 18.5 C 35.2 19.6 35.4 20.8 36.3 19.5 C 39.7 17.7 34.7 22.2 38.9 19.8 C 37.7 22.6 41.4 21.5 38.8 22.6 C 34.4 23.3 40.0 22.3 38.7 23.8 C 38.7 27.0 33.6 24.1 36.9 26.0 C 34.7 27.7 38.9 27.2 39.4 28.5 C 42.5 29.9 37.1 30.4 36.7 28.1 C 38.3 30.0 35.2 27.7 37.2 29.8 C 40.0 30.2 34.1 29.3 36.4 30.5 C 37.1 32.1 38.8 32.7 38.9 33.2 C 38.9 35.1 36.1 32.2 38.2 34.3 C 39.4 35.7 35.7 33.2 36.6 34.2 C 36.7 33.4 37.6 34.8 38.2 36.1 C 37.9 36.5 37.3 36.7 36.5 36.0 C 37.6 35.8 32.4 32.3 33.7 34.5 C 40.5 40.7 30.6 32.9 31.6 35.1 C 35.3 38.6 27.4 35.5 28.3 33.9 C 28.4 34.2 30.0 36.2 30.0 36.2 M 36.9 35.1 C 37.0 35.1 37.1 35.1 37.1 35.1 C 37.7 35.2 37.7 35.3 37.4 35.4 C 37.1 35.5 36.2 35.5 36.9 35.1 M 35.9 34.1 C 37.9 35.3 33.6 33.3 35.6 33.8 C 35.7 33.8 35.8 34.1 35.9 34.1 M 36.1 29.0 C 37.0 29.6 35.5 29.3 36.1 29.0 M 38.2 28.8 C 39.1 28.1 38.4 30.3 38.2 28.8 M 37.5 15.3 C 42.7 13.7 34.6 18.3 37.5 15.3 M 36.5 24.0 C 37.2 25.6 34.3 23.5 36.5 24.0 M 37.8 24.6 C 38.6 25.5 36.6 24.6 37.8 24.6 M 37.5 17.8 C 37.6 17.6 37.6 17.6 37.5 17.8 C 37.5 17.8 37.5 17.8 37.5 17.8 Z M 37.7 13.8 C 37.6 13.8 37.6 13.8 37.7 13.8 C 37.7 13.8 37.7 13.8 37.7 13.8 Z M 38.0 21.5 C 36.8 22.9 37.6 19.6 38.0 21.5 C 38.0 21.5 38.0 21.5 38.0 21.5 Z M 45.5 10.6 C 45.6 10.7 45.6 10.7 45.5 10.6 C 45.5 10.6 45.5 10.6 45.5 10.6 Z M 37.8 37.4 C 37.8 37.5 37.8 37.5 37.8 37.4 C 37.8 37.4 37.8 37.4 37.8 37.4 Z M 30.8 35.5 C 31.4 36.1 29.4 34.9 30.8 35.5 C 30.8 35.5 30.8 35.5 30.8 35.5 Z M 30.3 41.3 C 30.3 41.4 30.3 41.4 30.3 41.3 C 30.3 41.3 30.3 41.3 30.3 41.3 Z M 38.4 40.1 C 38.4 40.2 38.4 40.2 38.4 40.1 C 38.4 40.1 38.4 40.1 38.4 40.1 Z M 35.8 36.3 C 32.4 33.5 38.5 37.0 35.8 36.3 C 35.8 36.3 35.8 36.3 35.8 36.3 Z M 45.2 22.9 C 43.9 22.9 45.6 21.1 45.2 22.9 C 45.2 22.9 45.2 22.9 45.2 22.9 Z M 39.3 29.1 C 38.7 28.7 39.6 28.5 39.3 29.1 C 39.3 29.1 39.3 29.1 39.3 29.1 Z M 35.5 29.6 C 34.9 29.1 35.8 29.2 35.5 29.6 C 35.5 29.6 35.5 29.6 35.5 29.6 Z M 30.3 34.7 C 30.2 34.5 30.2 34.5 30.3 34.7 C 30.3 34.7 30.3 34.7 30.3 34.7 Z M 33.9 36.8 C 30.4 34.2 37.2 38.2 33.9 36.8 C 33.9 36.8 33.9 36.8 33.9 36.8 Z M 32.2 37.6 C 33.7 38.6 30.0 37.1 32.2 37.6 M 36.8 41.6 C 37.7 40.5 38.7 46.4 36.8 41.6 C 36.8 41.6 36.8 41.6 36.8 41.6 Z M 44.7 39.5 C 44.9 39.5 44.9 39.5 44.7 39.5 C 44.7 39.5 44.7 39.5 44.7 39.5 Z M 37.0 33.8 C 37.1 32.7 37.6 35.1 37.0 33.8 C 37.0 33.8 37.0 33.8 37.0 33.8 Z M 26.2 34.4 C 27.6 34.5 25.7 35.0 26.2 34.4 C 26.2 34.4 26.2 34.4 26.2 34.4 Z M 42.2 31.8 C 41.7 29.0 43.6 34.3 42.2 31.8 C 42.2 31.8 42.2 31.8 42.2 31.8 Z M 39.1 22.2 C 39.2 22.1 39.2 22.1 39.1 22.2 C 39.1 22.2 39.1 22.2 39.1 22.2 Z M 38.0 20.9 C 38.0 20.8 38.0 20.8 38.0 20.9 C 38.0 20.9 38.0 20.9 38.0 20.9 Z M 40.7 13.2 C 40.8 13.1 40.8 13.1 40.7 13.2 C 40.7 13.2 40.7 13.2 40.7 13.2 Z M 36.7 20.0 C 36.8 20.0 36.8 20.0 36.7 20.0 C 36.7 20.0 36.7 20.0 36.7 20.0 Z M 37.4 16.0 C 37.5 15.8 37.5 15.8 37.4 16.0 C 37.4 16.0 37.4 16.0 37.4 16.0 Z M 35.1 17.9 C 35.2 17.7 35.2 17.7 35.1 17.9 C 35.1 17.9 35.1 17.9 35.1 17.9 Z M 46.7 26.2 C 46.8 26.0 46.8 26.0 46.7 26.2 C 46.7 26.2 46.7 26.2 46.7 26.2 Z M 31.9 33.8 C 32.2 34.0 32.2 34.0 31.9 33.8 C 31.9 33.8 31.9 33.8 31.9 33.8 Z M 38.4 15.6 C 38.5 15.6 38.5 15.6 38.4 15.6 C 38.4 15.6 38.4 15.6 38.4 15.6 Z M 40.5 26.2 C 42.8 26.5 37.6 26.4 40.4 25.9 C 40.5 25.9 40.2 26.2 40.5 26.2 M 44.3 24.8 C 44.4 24.9 44.4 24.9 44.3 24.8 C 44.3 24.8 44.3 24.8 44.3 24.8 Z M 45.7 32.1 C 45.8 32.3 45.8 32.3 45.7 32.1 C 45.7 32.1 45.7 32.1 45.7 32.1 Z M 36.3 20.8 C 35.0 21.2 37.2 19.5 36.3 20.9 M 44.7 10.5 C 43.4 11.6 45.6 8.1 44.7 10.7 M 25.2 35.2 C 25.6 36.2 23.9 34.7 25.2 35.2 M 46.9 34.3 C 47.8 35.1 46.3 35.4 46.9 34.3 M 44.0 29.8 C 42.7 29.6 45.0 28.4 44.1 30.1 M 44.6 15.2 C 44.6 15.1 44.6 15.1 44.6 15.2 C 44.6 15.2 44.6 15.2 44.6 15.2 Z M 37.3 32.2 C 37.3 32.2 37.3 32.2 37.3 32.2 C 37.3 32.2 37.3 32.2 37.3 32.2 Z M 39.9 27.9 C 38.2 28.1 41.1 27.1 39.9 27.9 M 40.3 36.3 C 38.1 35.5 41.0 34.8 40.3 36.3 M 45.2 6.5 C 42.6 10.4 46.6 3.8 45.2 6.5 M 38.7 18.4 C 36.1 20.4 40.1 16.8 38.7 18.4 M 38.4 31.9 C 37.0 31.1 39.2 31.1 38.4 31.9 M 28.1 35.0 C 26.7 34.8 29.0 34.0 28.1 35.0 M 44.7 19.7 C 44.8 19.6 44.8 19.6 44.7 19.7 C 44.7 19.7 44.7 19.7 44.7 19.7 Z M 40.5 44.9 C 40.7 45.0 40.7 45.0 40.5 44.9 C 40.5 44.9 40.5 44.9 40.5 44.9 Z M 36.7 12.5 C 36.8 12.3 36.8 12.3 36.7 12.5 C 36.7 12.5 36.7 12.5 36.7 12.5 Z M 39.9 18.8 C 40.1 18.7 40.1 18.7 39.9 18.8 C 39.9 18.8 39.9 18.8 39.9 18.8 Z M 36.3 14.8 C 36.5 14.6 36.5 14.6 36.3 14.8 C 36.3 14.8 36.3 14.8 36.3 14.8 Z M 41.9 23.1 C 42.0 23.0 42.0 23.0 41.9 23.1 C 41.9 23.1 41.9 23.1 41.9 23.1 Z M 35.3 23.8 C 35.4 23.8 35.4 23.8 35.3 23.8 C 35.3 23.8 35.3 23.8 35.3 23.8 Z M 38.1 28.1 C 38.2 28.1 38.2 28.1 38.1 28.1 C 38.1 28.1 38.1 28.1 38.1 28.1 Z M 35.8 22.3 C 35.4 20.4 38.0 23.3 35.8 22.3 C 35.8 22.3 35.8 22.3 35.8 22.3 Z M 42.4 27.3 C 42.5 27.3 42.5 27.3 42.4 27.3 C 42.4 27.3 42.4 27.3 42.4 27.3 Z M 37.8 26.6 C 35.9 24.8 41.0 26.4 37.8 26.6 M 36.2 32.0 C 35.2 30.9 37.8 33.1 36.2 32.0 M 44.5 42.8 C 44.6 42.9 44.6 42.9 44.5 42.8 C 44.5 42.8 44.5 42.8 44.5 42.8 Z M 44.2 41.4 C 44.3 41.4 44.3 41.4 44.2 41.4 C 44.2 41.4 44.2 41.4 44.2 41.4 Z M 35.8 33.1 C 35.9 33.1 35.9 33.1 35.8 33.1 C 35.8 33.1 35.8 33.1 35.8 33.1 Z M 46.7 43.7 C 46.7 43.6 46.7 43.6 46.7 43.7 C 46.7 43.7 46.7 43.7 46.7 43.7 Z M 35.5 24.6 C 35.5 24.6 35.5 24.6 35.5 24.6 C 35.5 24.6 35.5 24.6 35.5 24.6 Z M 35.4 14.6 C 35.4 14.6 35.4 14.6 35.4 14.6 C 35.4 14.6 35.4 14.6 35.4 14.6 Z M 33.5 41.9 C 33.6 42.0 33.6 42.0 33.5 41.9 C 33.5 41.9 33.5 41.9 33.5 41.9 Z M 38.1 23.6 C 38.2 23.5 38.2 23.5 38.1 23.6 C 38.1 23.6 38.1 23.6 38.1 23.6 Z M 41.7 42.4 C 41.8 42.5 41.8 42.5 41.7 42.4 C 41.7 42.4 41.7 42.4 41.7 42.4 Z M 37.6 24.3 C 37.6 24.3 37.6 24.3 37.6 24.3 C 37.6 24.3 37.6 24.3 37.6 24.3 Z M 45.2 20.2 C 45.3 20.1 45.3 20.1 45.2 20.2 C 45.2 20.2 45.2 20.2 45.2 20.2 Z M 46.7 15.4 C 46.7 15.3 46.7 15.3 46.7 15.4 C 46.7 15.4 46.7 15.4 46.7 15.4 Z M 40.6 21.2 C 40.7 21.1 40.7 21.1 40.6 21.2 C 40.6 21.2 40.6 21.2 40.6 21.2 Z M 37.9 39.6 C 30.1 37.3 41.9 38.6 37.9 39.6 M 41.2 20.1 C 40.6 24.4 38.6 17.7 41.2 20.1 C 40.5 19.8 41.1 20.0 41.2 20.1 M 34.7 13.4 C 36.1 12.4 37.4 11.5 38.5 10.5 C 39.7 9.5 40.7 8.5 41.5 7.5 C 41.9 7.1 42.2 6.6 42.5 6.1 C 42.7 4.9 38.2 9.8 42.0 5.6 C 45.0 4.9 46.4 -0.5 41.8 4.8 C 38.1 5.5 44.2 1.4 40.4 3.5 C 36.5 4.0 39.3 2.4 36.2 2.8 C 33.2 5.7 35.2 1.4 33.3 4.1 C 36.1 1.1 30.1 4.9 30.4 3.6 C 33.7 1.7 20.9 3.5 27.3 4.4 C 24.7 5.8 25.3 3.3 24.4 3.0 C 23.3 4.7 19.6 1.6 18.2 3.3 C 18.7 3.7 19.5 3.8 19.9 4.4 C 20.5 5.5 18.0 4.2 18.3 4.2 C 17.4 4.9 14.4 6.7 17.3 3.6 C 17.1 2.1 13.9 4.2 13.3 2.9 C 9.2 2.9 13.9 5.8 10.9 3.6 C 8.0 3.6 6.0 3.6 6.3 3.9 C 4.6 3.7 3.0 2.5 2.5 3.0 C 2.6 3.3 2.7 3.7 3.0 4.2 C -0.1 4.6 9.1 12.0 2.9 7.6 C 4.4 9.7 0.3 7.2 4.2 10.3 C 2.4 7.7 1.2 13.5 4.0 12.7 C 4.9 14.1 0.0 14.9 3.9 16.8 C 6.7 19.9 9.6 21.4 12.3 20.7 C 10.1 19.4 14.6 20.0 10.8 18.9 C 9.5 20.2 9.4 13.8 10.8 16.2 C 15.3 20.2 8.0 10.7 11.2 12.4 C 10.5 12.2 10.0 11.2 9.8 10.3 C 10.4 9.9 12.4 10.3 13.3 12.4 C 14.3 12.7 13.2 11.1 15.6 13.1 C 13.0 12.8 14.1 9.5 15.3 11.6 C 15.8 12.9 19.7 13.9 18.5 12.0 C 14.7 7.3 19.9 13.0 19.9 11.1 C 21.9 10.1 20.9 15.1 21.3 11.7 C 21.8 12.3 24.5 12.3 22.9 13.2 C 22.3 12.8 24.5 8.1 24.7 12.1 C 22.2 14.3 27.7 13.3 27.1 12.1 C 22.3 9.9 33.4 9.6 28.4 11.8 C 29.4 14.0 27.6 12.6 30.4 11.7 C 30.6 10.5 33.5 9.2 31.6 11.8 C 29.7 15.6 35.4 6.7 33.7 11.9 C 32.3 14.1 38.4 10.2 34.9 12.7 C 34.7 13.0 34.6 13.4 34.7 13.4 M 34.3 13.0 C 35.3 12.1 33.9 14.0 34.3 13.0 M 35.3 12.2 C 35.3 12.2 35.3 12.2 35.3 12.2 C 35.3 12.2 35.3 12.2 35.3 12.2 Z M 30.9 11.6 C 30.8 11.7 30.8 11.7 30.9 11.6 C 30.9 11.6 30.9 11.6 30.9 11.6 Z M 28.8 2.1 C 28.9 2.2 28.9 2.2 28.8 2.1 C 28.8 2.1 28.8 2.1 28.8 2.1 Z M 27.6 11.4 C 27.6 11.4 27.6 11.4 27.6 11.4 C 27.6 11.4 27.6 11.4 27.6 11.4 Z M 33.0 11.0 C 33.1 11.0 33.1 11.0 33.0 11.0 C 33.0 11.0 33.0 11.0 33.0 11.0 Z M 27.5 12.7 C 27.6 11.3 28.2 13.8 27.4 13.0 C 27.4 12.9 27.6 12.9 27.5 12.7 M 23.6 13.3 C 23.6 13.1 23.6 13.1 23.6 13.3 M 6.5 2.2 C 6.4 2.0 6.4 2.0 6.5 2.2 M 14.7 13.4 C 14.4 13.2 14.4 13.2 14.7 13.4 M 19.3 11.9 C 18.1 12.0 18.7 11.2 19.3 11.9 M 12.1 14.1 C 13.0 13.2 12.8 16.8 12.1 14.1 M 12.9 16.6 C 12.8 16.7 12.8 16.7 12.9 16.6 M 16.4 12.9 C 16.4 12.8 16.4 12.8 16.4 12.9 C 16.4 12.9 16.4 12.9 16.4 12.9 Z M 20.0 12.4 C 21.8 13.2 19.0 13.8 20.0 12.4 M 29.7 12.9 C 28.5 13.6 30.5 11.1 29.7 12.9 M 31.9 12.1 C 32.0 12.1 32.0 12.1 31.9 12.1 C 31.9 12.1 31.9 12.1 31.9 12.1 Z M 13.3 12.7 C 13.3 12.7 13.3 12.7 13.3 12.7 C 13.3 12.7 13.3 12.7 13.3 12.7 Z M 12.4 13.6 C 12.4 13.5 12.4 13.5 12.4 13.6 C 12.4 13.6 12.4 13.6 12.4 13.6 Z M 2.0 8.3 C 1.9 8.2 1.9 8.2 2.0 8.3 C 2.0 8.3 2.0 8.3 2.0 8.3 Z M 32.7 7.8 C 33.9 8.5 29.6 11.2 30.9 8.7 C 31.2 7.6 32.3 8.0 32.7 7.8 M 20.4 9.3 C 19.1 5.7 22.6 14.1 20.4 9.3 M 10.6 14.9 C 6.3 12.9 13.5 15.8 10.6 14.9 M 11.3 18.4 C 10.5 18.7 10.8 12.5 11.9 17.9 C 12.6 18.9 11.8 18.5 11.3 18.4 M 23.4 11.6 C 22.9 9.6 25.4 12.4 23.4 11.6 M 11.5 5.7 C 11.5 7.0 10.2 8.1 9.4 5.9 C 7.3 3.2 12.0 4.6 11.5 5.7 M 35.6 11.0 C 32.1 14.1 37.8 8.3 35.6 11.0 M 30.4 10.7 C 30.3 10.8 30.3 10.8 30.4 10.7 C 30.4 10.7 30.4 10.7 30.4 10.7 Z M 28.1 11.2 C 28.1 11.0 28.1 11.0 28.1 11.2 M 32.6 13.7 C 32.7 13.5 32.7 13.5 32.6 13.7 M 13.7 9.0 C 13.4 8.7 13.4 8.7 13.7 9.0 M 19.4 11.0 C 15.8 7.9 20.3 10.4 19.4 11.0 M 24.3 5.1 C 23.4 3.6 26.2 4.9 24.3 5.1 M 16.7 12.2 C 13.4 9.3 17.3 9.4 16.7 12.2 M 20.5 11.4 C 20.3 11.4 20.3 11.4 20.5 11.4 C 20.5 11.4 20.5 11.4 20.5 11.4 Z M 10.5 5.4 C 10.6 5.3 10.6 5.3 10.5 5.4 C 10.5 5.4 10.5 5.4 10.5 5.4 Z M 9.8 5.5 C 9.8 5.4 9.8 5.4 9.8 5.5 C 9.8 5.5 9.8 5.5 9.8 5.5 Z M 15.4 12.6 C 15.4 12.5 15.4 12.5 15.4 12.6 C 15.4 12.6 15.4 12.6 15.4 12.6 Z M 37.0 4.0 C 35.0 3.8 39.1 3.5 37.0 4.0 C 37.0 4.0 37.0 4.0 37.0 4.0 Z M 26.1 12.7 C 23.9 10.4 28.1 10.5 26.1 12.7 C 26.1 12.7 26.1 12.7 26.1 12.7 Z M 23.5 8.9 C 23.5 8.7 23.5 8.7 23.5 8.9 C 23.5 8.9 23.5 8.9 23.5 8.9 Z M 18.5 14.1 C 18.5 13.9 18.5 13.9 18.5 14.1 C 18.5 14.1 18.5 14.1 18.5 14.1 Z M 36.2 3.6 C 36.3 3.4 36.3 3.4 36.2 3.6 C 36.2 3.6 36.2 3.6 36.2 3.6 Z M 10.4 11.3 C 10.3 11.2 10.3 11.2 10.4 11.3 C 10.4 11.3 10.4 11.3 10.4 11.3 Z M 15.8 4.9 C 15.6 6.0 15.3 4.0 15.8 4.9 C 15.8 4.9 15.8 4.9 15.8 4.9 Z M 12.7 4.9 C 12.7 4.9 12.7 4.9 12.7 4.9 C 12.7 4.9 12.7 4.9 12.7 4.9 Z M 13.1 17.4 C 13.1 17.4 13.1 17.4 13.1 17.4 C 13.1 17.4 13.1 17.4 13.1 17.4 Z M 2.1 2.1 C 2.0 2.1 2.0 2.1 2.1 2.1 C 2.1 2.1 2.1 2.1 2.1 2.1 Z M 5.0 7.5 C 5.0 7.4 5.0 7.4 5.0 7.5 C 5.0 7.5 5.0 7.5 5.0 7.5 Z M 15.2 11.8 C 13.7 12.4 14.8 10.5 15.2 11.8 C 15.2 11.8 15.2 11.8 15.2 11.8 Z M 6.0 15.2 C 5.8 15.2 5.8 15.2 6.0 15.2 C 6.0 15.2 6.0 15.2 6.0 15.2 Z M 10.0 19.4 C 9.8 19.3 9.8 19.3 10.0 19.4 C 10.0 19.4 10.0 19.4 10.0 19.4 Z M 12.2 21.5 C 12.0 21.4 12.0 21.4 12.2 21.5 C 12.2 21.5 12.2 21.5 12.2 21.5 Z M 29.4 6.9 C 29.5 7.0 29.5 7.0 29.4 6.9 C 29.4 6.9 29.4 6.9 29.4 6.9 Z M 28.2 13.4 C 28.2 13.5 28.2 13.5 28.2 13.4 C 28.2 13.4 28.2 13.4 28.2 13.4 Z M 25.8 13.7 C 25.8 13.8 25.8 13.8 25.8 13.7 C 25.8 13.7 25.8 13.7 25.8 13.7 Z M 31.4 2.9 C 31.4 3.0 31.4 3.0 31.4 2.9 C 31.4 2.9 31.4 2.9 31.4 2.9 Z M 16.6 8.5 C 16.8 8.6 16.8 8.6 16.6 8.5 C 16.6 8.5 16.6 8.5 16.6 8.5 Z M 14.0 5.8 C 14.1 5.9 14.1 5.9 14.0 5.8 C 14.0 5.8 14.0 5.8 14.0 5.8 Z M 16.2 2.3 C 16.3 2.3 16.3 2.3 16.2 2.3 C 16.2 2.3 16.2 2.3 16.2 2.3 Z M 11.5 3.5 C 11.6 3.6 11.6 3.6 11.5 3.5 C 11.5 3.5 11.5 3.5 11.5 3.5 Z M 42.0 4.1 C 42.1 4.0 42.1 4.0 42.0 4.1 C 42.0 4.1 42.0 4.1 42.0 4.1 Z M 37.9 9.1 C 38.1 9.0 38.1 9.0 37.9 9.1 C 37.9 9.1 37.9 9.1 37.9 9.1 Z M 18.0 12.1 C 18.2 13.2 16.3 10.7 18.0 12.1 M 21.8 11.5 C 21.8 11.4 21.8 11.4 21.8 11.5 C 21.8 11.5 21.8 11.5 21.8 11.5 Z M 11.4 11.9 C 11.4 11.9 11.3 11.8 11.2 11.8 C 10.9 11.5 10.8 11.4 10.8 11.3 C 10.6 10.9 13.7 12.8 11.4 11.9 C 11.4 11.9 11.4 11.9 11.4 11.9 Z M 6.4 3.5 C 6.4 3.5 6.4 3.5 6.4 3.5 C 6.4 3.5 6.4 3.5 6.4 3.5 Z M 5.5 4.4 C 5.2 4.2 5.2 4.2 5.5 4.4 C 5.5 4.4 5.5 4.4 5.5 4.4 Z M 9.3 15.4 C 9.1 15.4 9.1 15.4 9.3 15.4 M 22.5 13.3 C 21.8 12.4 22.0 12.6 22.5 13.3 M 11.3 13.3 C 11.3 13.2 11.3 13.2 11.3 13.3 C 11.3 13.3 11.3 13.3 11.3 13.3 Z M 10.4 17.8 C 10.3 17.7 10.3 17.7 10.4 17.8 C 10.4 17.8 10.4 17.8 10.4 17.8 Z M 25.1 11.9 C 25.1 9.5 25.7 10.1 25.1 11.9 M 33.3 11.1 C 33.4 11.0 33.4 11.0 33.3 11.1 C 33.3 11.1 33.3 11.1 33.3 11.1 Z M 33.3 11.1 " fill="#FEFFFE"></path></g></svg>