<?xml version="1.0" encoding="UTF-8" standalone="no"?><svg xmlns="http://www.w3.org/2000/svg" xmlns:xlink="http://www.w3.org/1999/xlink" clip-rule="evenodd" stroke-miterlimit="10" viewBox="0 0 477 157"><desc>SVG generated by Keynote</desc><defs></defs><g transform="matrix(1.00, 0.00, -0.00, -1.00, 0.0, 157.0)"><path d="M 323.9 131.3 C 324.2 131.2 324.5 131.2 324.8 131.2 C 324.8 131.9 324.6 132.9 324.9 133.0 M 323.9 131.3 C 323.8 131.7 323.7 132.0 323.7 132.2 C 322.0 135.2 321.8 137.5 321.4 140.4 C 321.3 143.7 323.8 138.8 324.9 138.5 C 325.9 143.2 324.0 143.8 321.3 145.2 C 322.4 146.3 323.1 149.8 325.2 152.0 C 327.2 154.2 329.4 154.8 329.0 152.7 C 325.7 151.2 325.4 149.8 325.6 149.9 C 325.8 149.9 326.9 150.9 328.1 151.5 C 329.4 152.0 330.8 152.1 331.0 151.8 C 331.3 151.5 330.1 151.1 328.5 149.1 C 327.9 147.9 330.5 148.8 331.3 149.0 C 330.1 147.9 331.2 147.3 331.6 146.7 C 332.1 146.2 332.0 145.5 332.0 144.6 C 332.8 143.9 333.1 143.8 333.3 143.7 C 333.4 143.6 333.5 143.6 333.7 143.5 C 333.9 143.5 334.2 144.4 334.7 143.5 C 334.9 142.0 334.1 142.8 333.6 143.1 C 331.1 143.4 335.0 138.6 333.4 136.6 C 336.8 132.2 332.9 132.1 331.5 135.0 C 331.9 132.5 335.3 127.2 332.9 126.6 C 333.6 125.4 333.8 123.8 333.7 122.7 C 332.0 122.8 330.1 123.6 330.7 124.9 C 330.9 125.1 330.9 125.2 330.9 125.4 C 330.4 126.4 330.0 126.7 329.6 126.7 C 328.7 127.1 327.6 127.5 327.0 127.9 C 327.0 128.1 327.4 128.2 328.0 128.2 C 328.0 129.4 328.4 130.8 328.0 131.5 C 327.4 130.9 326.2 128.0 326.3 132.1 C 325.3 131.9 324.6 134.1 324.6 131.4 C 324.4 131.4 324.2 131.4 323.9 131.3 C 323.9 131.3 323.9 131.3 323.9 131.3 Z M 323.1 146.4 C 322.4 147.3 322.5 144.0 323.1 146.4 C 323.1 146.4 323.1 146.4 323.1 146.4 Z M 334.6 127.3 C 333.7 128.0 334.7 125.4 334.6 127.3 C 334.6 127.3 334.6 127.3 334.6 127.3 Z M 333.7 142.2 C 332.8 142.5 333.7 140.3 333.7 142.2 C 333.7 142.2 333.7 142.2 333.7 142.2 Z M 323.3 141.5 C 324.1 139.0 324.6 142.6 323.7 143.3 C 323.8 142.8 322.6 142.3 323.3 141.5 C 323.3 141.5 323.3 141.5 323.3 141.5 Z M 328.5 138.5 C 328.1 138.5 328.0 137.5 328.9 137.1 C 329.1 137.7 328.8 138.5 328.5 138.5 C 328.5 138.5 328.5 138.5 328.5 138.5 Z M 332.2 152.0 C 331.9 152.3 330.4 152.1 330.7 151.2 C 331.6 151.3 332.5 151.7 332.2 152.0 C 332.2 152.0 332.2 152.0 332.2 152.0 Z M 325.7 137.7 C 325.8 137.1 326.6 136.3 326.7 137.0 C 326.3 137.5 326.2 139.2 325.7 137.7 C 325.7 137.7 325.7 137.7 325.7 137.7 Z M 322.7 136.6 C 323.2 134.5 324.5 137.0 324.1 137.2 C 323.4 138.2 322.0 138.0 322.7 136.6 C 322.7 136.6 322.7 136.6 322.7 136.6 Z M 326.9 135.8 C 327.3 133.9 327.5 136.1 326.9 135.8 C 326.9 135.8 326.9 135.8 326.9 135.8 Z M 332.2 145.3 C 331.9 144.5 332.8 144.8 332.2 145.3 C 332.2 145.3 332.2 145.3 332.2 145.3 Z M 334.1 137.4 C 334.6 135.1 334.8 138.0 334.1 137.4 C 334.1 137.4 334.1 137.4 334.1 137.4 Z M 325.2 145.2 C 325.6 147.3 325.5 147.9 325.1 147.7 C 324.7 147.5 324.2 146.2 325.2 145.2 C 325.2 145.2 325.2 145.2 325.2 145.2 Z M 321.9 133.4 C 322.1 133.4 322.3 133.5 322.4 133.5 C 322.2 134.9 321.2 135.2 321.5 134.4 C 321.4 134.2 321.5 134.0 321.9 133.4 C 321.9 133.4 321.9 133.4 321.9 133.4 Z M 337.1 153.6 C 334.4 154.1 345.0 157.0 341.0 153.5 C 339.9 150.6 347.1 150.9 345.2 153.5 C 347.3 153.9 347.3 154.0 348.6 152.7 C 348.8 154.8 353.8 155.9 355.6 154.7 C 356.8 153.0 352.3 154.5 355.2 152.6 C 361.6 152.1 354.9 150.6 357.4 148.2 C 357.7 148.2 357.7 149.4 358.3 148.7 C 358.6 146.5 355.1 145.0 356.8 143.3 C 355.8 143.7 351.3 141.2 353.2 143.2 C 353.7 145.3 348.2 140.6 348.5 144.1 C 347.0 142.5 345.3 144.7 343.9 142.8 C 342.8 142.4 342.8 144.2 342.9 144.6 C 343.0 146.2 341.6 141.0 339.7 143.8 C 339.6 143.0 334.4 143.3 338.2 144.6 C 337.2 144.4 331.3 143.6 334.4 146.7 C 338.4 148.1 330.1 149.9 334.9 150.0 C 338.6 150.3 339.3 149.7 336.6 151.4 C 335.7 151.2 331.5 151.5 335.1 152.9 C 335.9 152.5 337.6 152.7 337.1 153.6 C 337.1 153.6 337.1 153.6 337.1 153.6 Z M 336.4 149.1 C 338.5 148.9 336.5 150.2 336.4 149.1 C 336.4 149.1 336.4 149.1 336.4 149.1 Z M 344.2 142.1 C 346.4 141.9 344.4 143.2 344.2 142.1 C 344.2 142.1 344.2 142.1 344.2 142.1 Z M 343.7 154.4 C 344.8 153.4 345.0 156.7 343.7 154.4 C 343.7 154.4 343.7 154.4 343.7 154.4 Z M 340.6 144.6 C 340.7 144.6 340.2 145.0 339.8 145.2 C 339.9 145.1 340.4 144.7 340.6 144.6 C 340.6 144.6 340.6 144.6 340.6 144.6 Z M 347.3 154.4 C 350.4 152.8 347.8 156.9 347.3 154.4 C 347.3 154.4 347.3 154.4 347.3 154.4 Z M 353.7 151.3 C 354.2 148.1 357.0 152.0 353.7 151.3 C 353.7 151.3 353.7 151.3 353.7 151.3 Z M 349.5 144.3 C 348.9 145.0 349.0 143.9 349.5 144.3 C 349.5 144.3 349.5 144.3 349.5 144.3 Z M 335.5 143.8 C 335.0 144.5 335.0 143.4 335.5 143.8 C 335.5 143.8 335.5 143.8 335.5 143.8 Z M 353.5 144.6 C 353.2 145.8 352.3 144.0 353.5 144.6 C 353.5 144.6 353.5 144.6 353.5 144.6 Z M 344.3 153.1 C 341.4 155.6 340.9 149.4 344.3 153.1 C 344.3 153.1 344.3 153.1 344.3 153.1 Z M 339.1 153.3 C 337.2 153.9 339.5 151.7 340.4 152.1 C 340.3 152.4 339.5 153.2 339.1 153.3 C 339.1 153.3 339.1 153.3 339.1 153.3 Z M 347.4 152.8 C 345.4 154.1 345.5 152.1 347.4 152.8 C 347.4 152.8 347.4 152.8 347.4 152.8 Z M 342.3 154.2 C 341.3 153.9 343.1 153.9 342.3 154.2 C 342.3 154.2 342.3 154.2 342.3 154.2 Z M 351.2 155.5 C 350.2 155.2 352.0 155.1 351.2 155.5 C 351.2 155.5 351.2 155.5 351.2 155.5 Z M 336.7 154.7 C 335.7 154.4 337.5 154.3 336.7 154.7 C 336.7 154.7 336.7 154.7 336.7 154.7 Z M 350.4 153.8 C 350.8 152.6 348.0 150.1 353.0 152.2 C 353.9 153.1 351.7 154.7 350.4 153.8 C 350.4 153.8 350.4 153.8 350.4 153.8 Z M 315.1 130.9 C 319.6 132.9 322.7 132.4 324.8 131.2 C 326.1 130.9 328.0 128.5 328.6 128.2 C 329.8 128.4 330.7 127.0 331.6 124.7 C 331.4 124.4 331.0 124.1 330.7 123.7 C 331.8 119.8 322.5 127.5 324.5 123.6 C 326.1 118.4 316.0 127.9 320.0 122.4 C 321.9 121.1 315.7 122.0 315.8 122.4 C 315.8 119.7 307.7 124.1 307.2 124.6 C 306.2 123.8 310.7 119.0 301.9 122.4 C 296.8 123.5 299.4 118.6 297.5 122.0 C 297.9 118.1 294.4 122.9 292.6 121.6 C 292.3 119.5 289.6 124.7 289.5 120.7 C 285.1 123.7 293.1 118.7 281.0 120.5 C 285.6 121.0 274.2 122.8 277.9 120.8 C 283.3 118.7 272.5 121.4 269.1 119.9 C 266.9 121.0 259.1 123.6 262.5 120.5 C 260.7 116.8 256.0 122.5 256.4 119.5 C 255.8 118.2 253.1 120.8 252.2 120.5 C 252.2 118.3 249.6 119.7 244.2 118.8 C 232.2 117.2 238.0 124.4 232.6 125.0 C 231.1 126.0 232.5 133.5 233.9 127.9 C 233.6 129.5 248.2 124.3 238.5 130.1 C 244.2 127.8 235.8 132.5 245.8 129.9 C 238.3 125.3 259.3 128.8 247.3 130.4 C 248.0 131.7 252.4 131.6 250.2 130.5 C 252.1 126.6 256.1 132.5 255.7 127.7 C 261.2 129.2 263.0 125.0 262.3 128.0 C 259.7 133.1 263.1 126.7 265.3 128.3 C 273.0 128.6 262.1 134.1 270.0 130.5 C 275.3 133.3 273.6 128.4 276.8 127.9 C 280.6 124.5 282.2 130.9 276.0 131.1 C 280.7 129.4 275.0 132.8 280.4 130.7 C 280.8 127.4 281.8 134.3 283.1 131.7 C 287.0 131.0 287.1 129.0 288.2 129.0 C 292.8 129.2 288.5 132.2 291.6 129.9 C 293.9 128.7 292.1 132.9 293.7 131.9 C 289.1 131.5 300.9 128.7 299.7 130.4 C 296.6 130.6 297.2 134.7 301.4 132.3 C 305.8 125.2 303.8 134.2 308.4 131.9 C 310.1 127.9 319.2 131.8 312.7 133.4 C 313.3 133.1 315.1 130.9 315.1 130.9 M 295.6 131.4 C 292.0 130.9 300.6 130.8 295.6 131.4 M 294.8 132.4 C 294.4 131.1 297.6 133.6 294.2 132.9 C 294.2 132.8 295.0 132.5 294.8 132.4 M 278.6 131.9 C 280.1 130.8 280.2 132.6 278.6 131.9 M 277.7 129.4 C 276.0 128.2 281.3 129.3 277.7 129.4 M 241.2 128.7 C 249.4 123.0 242.4 132.1 241.2 128.7 M 263.9 130.8 C 268.9 130.2 260.3 133.2 263.9 130.8 M 266.4 129.4 C 269.2 128.6 265.7 130.8 266.4 129.4 M 248.0 128.9 C 247.8 128.8 247.8 128.8 248.0 128.9 C 248.0 128.9 248.0 128.9 248.0 128.9 Z M 237.6 128.3 C 237.4 128.4 237.4 128.4 237.6 128.3 C 237.6 128.3 237.6 128.3 237.6 128.3 Z M 258.8 128.8 C 261.0 130.3 253.0 129.1 258.8 128.8 C 258.8 128.8 258.8 128.8 258.8 128.8 Z M 249.5 119.7 C 249.8 119.6 249.8 119.6 249.5 119.7 C 249.5 119.7 249.5 119.7 249.5 119.7 Z M 301.3 128.9 C 301.5 128.8 301.5 128.8 301.3 128.9 C 301.3 128.9 301.3 128.9 301.3 128.9 Z M 311.2 131.6 C 311.8 130.8 312.8 132.3 311.2 131.6 C 311.2 131.6 311.2 131.6 311.2 131.6 Z M 327.8 125.4 C 328.0 125.3 328.0 125.3 327.8 125.4 C 327.8 125.4 327.8 125.4 327.8 125.4 Z M 308.3 126.0 C 308.5 126.0 308.5 126.0 308.3 126.0 C 308.3 126.0 308.3 126.0 308.3 126.0 Z M 302.4 130.2 C 301.2 133.5 298.6 129.2 302.4 130.2 C 302.4 130.2 302.4 130.2 302.4 130.2 Z M 269.6 120.9 C 268.4 122.3 267.2 120.3 269.6 120.9 C 269.6 120.9 269.6 120.9 269.6 120.9 Z M 278.3 128.1 C 277.2 128.8 276.9 127.7 278.3 128.1 C 278.3 128.1 278.3 128.1 278.3 128.1 Z M 281.1 132.7 C 279.9 133.4 279.6 132.3 281.1 132.7 C 281.1 132.7 281.1 132.7 281.1 132.7 Z M 310.1 132.4 C 309.7 132.6 309.7 132.6 310.1 132.4 C 310.1 132.4 310.1 132.4 310.1 132.4 Z M 308.2 129.9 C 308.2 133.0 305.1 128.1 308.2 129.9 C 308.2 129.9 308.2 129.9 308.2 129.9 Z M 314.2 129.2 C 313.7 128.0 317.6 129.9 314.2 129.2 M 315.8 124.6 C 310.8 125.7 324.5 119.4 315.8 124.6 C 315.8 124.6 315.8 124.6 315.8 124.6 Z M 297.9 122.6 C 297.8 122.4 297.8 122.4 297.9 122.6 C 297.9 122.6 297.9 122.6 297.9 122.6 Z M 291.7 131.4 C 288.6 131.1 294.5 130.7 291.7 131.4 C 291.7 131.4 291.7 131.4 291.7 131.4 Z M 319.0 133.2 C 315.9 132.9 321.8 132.6 319.0 133.2 C 319.0 133.2 319.0 133.2 319.0 133.2 Z M 284.2 125.0 C 278.4 125.3 289.0 123.6 284.2 125.0 C 284.2 125.0 284.2 125.0 284.2 125.0 Z M 261.6 127.7 C 261.5 127.6 261.5 127.6 261.6 127.7 C 261.6 127.7 261.6 127.7 261.6 127.7 Z M 257.0 128.8 C 256.9 128.7 256.9 128.7 257.0 128.8 C 257.0 128.8 257.0 128.8 257.0 128.8 Z M 244.4 125.1 C 244.2 124.9 244.2 124.9 244.4 125.1 C 244.4 125.1 244.4 125.1 244.4 125.1 Z M 252.5 130.1 C 252.5 130.0 252.5 130.0 252.5 130.1 C 252.5 130.1 252.5 130.1 252.5 130.1 Z M 242.8 128.8 C 242.7 128.7 242.7 128.7 242.8 128.8 C 242.8 128.8 242.8 128.8 242.8 128.8 Z M 242.2 131.5 C 242.1 131.4 242.1 131.4 242.2 131.5 C 242.2 131.5 242.2 131.5 242.2 131.5 Z M 276.4 119.4 C 276.2 119.3 276.2 119.3 276.4 119.4 C 276.4 119.4 276.4 119.4 276.4 119.4 Z M 303.5 133.2 C 303.5 132.9 303.5 132.9 303.5 133.2 C 303.5 133.2 303.5 133.2 303.5 133.2 Z M 244.5 127.7 C 244.5 127.6 244.5 127.6 244.5 127.7 C 244.5 127.7 244.5 127.7 244.5 127.7 Z M 272.1 126.4 C 274.1 123.9 271.3 129.9 271.3 126.5 C 271.5 126.4 271.9 126.8 272.1 126.4 M 272.2 122.0 C 272.4 122.0 272.4 122.0 272.2 122.0 C 272.2 122.0 272.2 122.0 272.2 122.0 Z M 285.4 121.0 C 285.6 120.9 285.6 120.9 285.4 121.0 C 285.4 121.0 285.4 121.0 285.4 121.0 Z M 253.9 130.6 C 253.2 132.1 252.0 129.4 254.4 130.6 M 247.7 120.6 C 247.1 122.0 245.6 119.4 248.2 120.5 M 323.6 132.4 C 324.8 131.7 323.0 134.7 323.6 132.4 M 289.2 119.7 C 290.7 118.7 290.9 120.5 289.2 119.7 M 280.8 122.7 C 280.1 124.2 278.9 121.5 281.3 122.7 M 255.7 121.0 C 255.6 121.0 255.6 121.0 255.7 121.0 C 255.7 121.0 255.7 121.0 255.7 121.0 Z M 287.1 130.9 C 287.0 130.8 287.0 130.8 287.1 130.9 C 287.1 130.9 287.1 130.9 287.1 130.9 Z M 275.7 127.3 C 275.9 129.3 274.3 125.9 275.7 127.3 M 294.4 127.6 C 294.9 130.2 290.6 126.7 294.4 127.6 M 242.1 119.7 C 243.0 122.8 240.9 118.0 242.1 119.7 M 252.0 127.7 C 252.7 130.8 251.0 126.0 252.0 127.7 M 285.4 129.5 C 284.2 131.0 283.1 128.5 285.4 129.5 M 316.1 132.3 C 318.8 132.7 311.0 133.3 316.1 132.3 M 263.6 121.2 C 263.6 121.1 263.6 121.1 263.6 121.2 C 263.6 121.2 263.6 121.2 263.6 121.2 Z M 317.4 120.8 C 317.3 120.7 317.3 120.7 317.4 120.8 C 317.4 120.8 317.4 120.8 317.4 120.8 Z M 230.8 129.2 C 230.7 129.1 230.7 129.1 230.8 129.2 C 230.8 129.2 230.8 129.2 230.8 129.2 Z M 255.0 126.5 C 255.0 126.3 255.0 126.3 255.0 126.5 C 255.0 126.5 255.0 126.5 255.0 126.5 Z M 236.4 129.8 C 236.4 129.6 236.4 129.6 236.4 129.8 C 236.4 129.8 236.4 129.8 236.4 129.8 Z M 266.7 124.6 C 266.7 124.5 266.7 124.5 266.7 124.6 C 266.7 124.6 266.7 124.6 266.7 124.6 Z M 262.4 132.1 C 262.4 132.0 262.4 132.0 262.4 132.1 C 262.4 132.1 262.4 132.1 262.4 132.1 Z M 275.7 129.4 C 275.7 129.3 275.7 129.3 275.7 129.4 C 275.7 129.4 275.7 129.4 275.7 129.4 Z M 258.0 131.3 C 251.3 131.5 263.4 129.0 258.0 131.3 C 258.0 131.3 258.0 131.3 258.0 131.3 Z M 275.4 124.4 C 275.5 124.3 275.5 124.3 275.4 124.4 C 275.4 124.4 275.4 124.4 275.4 124.4 Z M 271.8 129.6 C 265.9 131.6 272.7 126.0 271.8 129.6 M 287.9 132.1 C 285.6 133.2 288.9 130.3 287.9 132.1 M 304.2 122.7 C 304.3 122.5 304.3 122.5 304.2 122.7 C 304.2 122.7 304.2 122.7 304.2 122.7 Z M 301.5 123.4 C 301.4 123.3 301.4 123.3 301.5 123.4 C 301.5 123.4 301.5 123.4 301.5 123.4 Z M 291.7 132.7 C 291.7 132.7 291.7 132.7 291.7 132.7 C 291.7 132.7 291.7 132.7 291.7 132.7 Z M 303.9 120.6 C 303.7 120.5 303.7 120.5 303.9 120.6 C 303.9 120.6 303.9 120.6 303.9 120.6 Z M 264.9 132.0 C 264.9 132.0 264.9 132.0 264.9 132.0 C 264.9 132.0 264.9 132.0 264.9 132.0 Z M 232.5 130.8 C 232.5 130.7 232.5 130.7 232.5 130.8 C 232.5 130.8 232.5 130.8 232.5 130.8 Z M 323.1 124.5 C 323.0 124.4 323.0 124.4 323.1 124.5 C 323.1 124.5 323.1 124.5 323.1 124.5 Z M 264.1 128.9 C 264.1 128.8 264.1 128.8 264.1 128.9 C 264.1 128.9 264.1 128.9 264.1 128.9 Z M 308.5 123.3 C 308.5 123.2 308.5 123.2 308.5 123.3 C 308.5 123.3 308.5 123.3 308.5 123.3 Z M 265.7 129.6 C 265.6 129.6 265.6 129.6 265.7 129.6 C 265.7 129.6 265.7 129.6 265.7 129.6 Z M 265.2 120.7 C 265.1 120.6 265.1 120.6 265.2 120.7 C 265.2 120.7 265.2 120.7 265.2 120.7 Z M 259.4 118.7 C 259.3 118.6 259.3 118.6 259.4 118.7 C 259.4 118.7 259.4 118.7 259.4 118.7 Z M 261.4 125.9 C 261.3 125.8 261.3 125.8 261.4 125.9 C 261.4 125.9 261.4 125.9 261.4 125.9 Z M 307.7 126.6 C 318.1 129.7 296.3 127.3 307.7 126.6 M 259.7 125.2 C 268.3 126.1 250.1 127.8 259.7 125.2 C 258.1 125.9 259.5 125.3 259.7 125.2 M 226.7 130.3 C 232.4 127.7 234.4 125.0 234.9 122.1 C 234.1 120.6 230.1 126.2 233.4 121.5 C 238.4 120.8 236.7 114.4 232.4 120.4 C 226.1 121.0 234.3 116.6 229.1 118.8 C 222.6 119.1 227.0 117.4 222.1 117.7 C 217.1 120.8 220.4 116.0 217.1 119.0 C 221.8 115.7 211.5 119.7 212.3 118.2 C 218.0 116.3 196.2 117.5 206.7 118.9 C 201.1 120.3 203.8 117.6 202.5 117.1 C 199.3 119.0 196.0 115.2 192.0 117.1 C 192.2 117.5 193.6 117.7 193.6 118.4 C 193.6 119.7 190.6 118.0 191.0 118.1 C 188.7 118.7 180.2 120.5 190.1 117.3 C 191.4 115.7 183.3 117.8 184.4 116.3 C 177.6 115.9 180.8 119.5 179.2 116.9 C 174.4 116.6 170.9 116.5 170.7 116.9 C 167.9 116.4 168.3 114.5 164.7 116.2 C 160.6 112.3 157.0 123.0 158.3 115.8 C 155.8 117.4 156.4 112.7 154.5 117.1 C 157.6 115.2 146.0 113.3 149.8 116.7 C 147.9 117.7 142.8 111.8 141.9 116.3 C 137.7 119.4 136.8 122.7 141.1 126.0 C 141.7 123.5 146.0 128.9 143.7 124.4 C 139.4 122.7 153.6 123.2 149.9 124.7 C 146.6 129.8 158.4 121.7 159.4 125.6 C 158.1 123.4 170.2 122.9 164.7 126.6 C 166.7 127.0 168.2 125.2 169.3 127.5 C 162.6 126.9 174.2 123.6 172.4 125.9 C 170.4 127.3 180.0 128.9 180.2 126.7 C 179.7 121.2 182.2 127.9 185.2 125.9 C 191.6 125.0 181.6 130.4 188.2 126.6 C 188.9 127.4 196.4 127.7 191.0 128.6 C 189.5 128.0 199.1 122.9 197.0 127.5 C 187.4 129.7 205.3 129.3 203.5 127.8 C 192.7 124.8 218.6 125.5 207.2 127.6 C 211.0 130.3 204.9 128.5 212.5 127.7 C 212.5 126.2 218.8 125.1 215.6 127.9 C 213.6 132.2 221.4 122.2 221.5 128.3 C 220.3 130.8 231.2 126.8 226.1 129.4 C 225.7 129.7 226.5 130.3 226.7 130.3 M 224.6 129.7 C 226.2 128.8 225.2 130.9 224.6 129.7 M 226.3 128.8 C 226.3 128.9 226.3 128.9 226.3 128.8 C 226.3 128.8 226.3 128.8 226.3 128.8 Z M 213.6 127.6 C 213.6 127.7 213.6 127.7 213.6 127.6 C 213.6 127.6 213.6 127.6 213.6 127.6 Z M 210.2 116.3 C 210.2 116.5 210.2 116.5 210.2 116.3 C 210.2 116.3 210.2 116.3 210.2 116.3 Z M 204.9 127.0 C 205.0 127.0 205.0 127.0 204.9 127.0 C 204.9 127.0 204.9 127.0 204.9 127.0 Z M 218.8 127.1 C 218.9 127.1 218.9 127.1 218.8 127.1 C 218.8 127.1 218.8 127.1 218.8 127.1 Z M 204.7 128.6 C 205.1 126.9 206.9 129.9 204.4 128.8 C 204.3 128.7 204.9 128.7 204.7 128.6 M 192.8 128.7 C 192.9 128.6 192.9 128.6 192.8 128.7 M 174.6 115.0 C 174.7 114.8 174.7 114.8 174.6 115.0 M 165.5 127.7 C 165.3 127.5 165.3 127.5 165.5 127.7 M 182.4 126.6 C 178.8 126.7 182.0 125.8 182.4 126.6 M 156.8 126.4 C 160.6 127.7 151.6 127.1 156.8 126.4 M 152.0 127.2 C 151.7 127.1 151.7 127.1 152.0 127.2 M 172.2 127.4 C 172.3 127.3 172.3 127.3 172.2 127.4 C 172.2 127.4 172.2 127.4 172.2 127.4 Z M 183.5 127.4 C 187.6 128.4 178.0 128.7 183.5 127.4 M 210.9 129.1 C 207.9 129.7 212.4 127.0 210.9 129.1 M 216.8 128.4 C 216.9 128.3 216.9 128.3 216.8 128.4 C 216.8 128.4 216.8 128.4 216.8 128.4 Z M 163.8 126.8 C 164.0 126.8 164.0 126.8 163.8 126.8 C 163.8 126.8 163.8 126.8 163.8 126.8 Z M 158.6 126.9 C 158.7 126.9 158.7 126.9 158.6 126.9 C 158.6 126.9 158.6 126.9 158.6 126.9 Z M 156.0 114.6 C 156.2 114.6 156.2 114.6 156.0 114.6 C 156.0 114.6 156.0 114.6 156.0 114.6 Z M 216.3 123.3 C 219.2 124.3 210.1 127.0 212.8 124.2 C 213.2 122.9 215.7 123.5 216.3 123.3 M 189.0 123.9 C 190.6 119.8 189.1 129.5 189.0 123.9 M 152.7 124.5 C 151.7 119.6 155.3 128.1 152.7 124.5 M 145.3 125.1 C 143.8 124.0 158.6 125.1 147.4 125.9 C 146.1 126.7 145.8 125.6 145.3 125.1 M 193.9 126.8 C 194.3 124.5 198.7 128.0 193.9 126.8 M 176.5 119.2 C 174.0 120.6 168.9 121.6 172.2 119.2 C 174.0 116.1 179.3 118.1 176.5 119.2 M 225.2 127.4 C 219.9 130.8 227.5 124.3 225.2 127.4 M 212.0 126.5 C 211.9 126.7 211.9 126.7 212.0 126.5 C 212.0 126.5 212.0 126.5 212.0 126.5 Z M 206.4 126.9 C 206.3 126.6 206.3 126.6 206.4 126.9 M 220.8 130.4 C 220.8 130.1 220.8 130.1 220.8 130.4 M 174.5 122.9 C 174.4 122.6 174.4 122.6 174.5 122.9 M 184.0 125.7 C 180.9 122.0 187.2 125.1 184.0 125.7 M 201.0 119.4 C 200.4 117.7 204.3 119.5 201.0 119.4 M 174.8 126.7 C 173.0 123.2 181.6 123.8 174.8 126.7 M 186.4 126.2 C 186.1 126.2 186.1 126.2 186.4 126.2 C 186.4 126.2 186.4 126.2 186.4 126.2 Z M 175.4 118.8 C 175.5 118.7 175.5 118.7 175.4 118.8 C 175.4 118.8 175.4 118.8 175.4 118.8 Z M 173.7 118.9 C 173.9 118.8 173.9 118.8 173.7 118.9 C 173.7 118.9 173.7 118.9 173.7 118.9 Z M 170.1 126.9 C 170.3 126.9 170.3 126.9 170.1 126.9 C 170.1 126.9 170.1 126.9 170.1 126.9 Z M 223.6 119.2 C 220.0 118.8 226.9 118.8 223.6 119.2 C 223.6 119.2 223.6 119.2 223.6 119.2 Z M 200.5 128.4 C 196.2 125.5 206.4 126.0 200.5 128.4 C 200.5 128.4 200.5 128.4 200.5 128.4 Z M 196.5 123.7 C 196.6 123.5 196.6 123.5 196.5 123.7 C 196.5 123.7 196.5 123.7 196.5 123.7 Z M 175.9 128.9 C 176.0 128.7 176.0 128.7 175.9 128.9 C 175.9 128.9 175.9 128.9 175.9 128.9 Z M 222.0 118.6 C 222.2 118.4 222.2 118.4 222.0 118.6 C 222.0 118.6 222.0 118.6 222.0 118.6 Z M 160.7 124.7 C 160.8 124.5 160.8 124.5 160.7 124.7 C 160.7 124.7 160.7 124.7 160.7 124.7 Z M 185.8 118.7 C 183.7 119.9 186.1 117.6 185.8 118.7 C 185.8 118.7 185.8 118.7 185.8 118.7 Z M 180.2 118.4 C 180.0 118.4 180.0 118.4 180.2 118.4 C 180.2 118.4 180.2 118.4 180.2 118.4 Z M 150.5 127.4 C 150.4 127.4 150.4 127.4 150.5 127.4 C 150.5 127.4 150.5 127.4 150.5 127.4 Z M 167.7 114.6 C 167.5 114.6 167.5 114.6 167.7 114.6 C 167.7 114.6 167.7 114.6 167.7 114.6 Z M 160.9 118.4 C 161.0 118.3 161.0 118.3 160.9 118.4 C 160.9 118.4 160.9 118.4 160.9 118.4 Z M 171.5 126.2 C 165.7 126.6 173.6 124.7 171.5 126.2 C 171.5 126.2 171.5 126.2 171.5 126.2 Z M 146.6 118.9 C 146.6 118.7 146.6 118.7 146.6 118.9 C 146.6 118.9 146.6 118.9 146.6 118.9 Z M 141.6 123.4 C 141.6 123.2 141.6 123.2 141.6 123.4 C 141.6 123.4 141.6 123.4 141.6 123.4 Z M 139.1 125.8 C 139.1 125.6 139.1 125.6 139.1 125.8 C 139.1 125.8 139.1 125.8 139.1 125.8 Z M 209.7 121.9 C 209.8 122.1 209.8 122.1 209.7 121.9 C 209.7 121.9 209.7 121.9 209.7 121.9 Z M 206.9 129.5 C 206.9 129.5 206.9 129.5 206.9 129.5 C 206.9 129.5 206.9 129.5 206.9 129.5 Z M 199.3 129.5 C 199.4 129.6 199.4 129.6 199.3 129.5 C 199.3 129.5 199.3 129.5 199.3 129.5 Z M 214.1 117.5 C 214.2 117.6 214.2 117.6 214.1 117.5 C 214.1 117.5 214.1 117.5 214.1 117.5 Z M 181.9 122.6 C 181.9 122.8 181.9 122.8 181.9 122.6 C 181.9 122.6 181.9 122.6 181.9 122.6 Z M 181.0 119.5 C 181.0 119.7 181.0 119.7 181.0 119.5 C 181.0 119.5 181.0 119.5 181.0 119.5 Z M 189.9 115.8 C 189.9 115.8 189.9 115.8 189.9 115.8 C 189.9 115.8 189.9 115.8 189.9 115.8 Z M 180.4 116.8 C 180.5 116.9 180.5 116.9 180.4 116.8 C 180.4 116.8 180.4 116.8 180.4 116.8 Z M 232.2 119.6 C 232.3 119.6 232.3 119.6 232.2 119.6 C 232.2 119.6 232.2 119.6 232.2 119.6 Z M 228.7 125.4 C 228.9 125.2 228.9 125.2 228.7 125.4 C 228.7 125.4 228.7 125.4 228.7 125.4 Z M 178.6 126.8 C 176.7 127.9 177.0 125.0 178.6 126.8 M 189.6 126.5 C 189.7 126.4 189.7 126.4 189.6 126.5 C 189.6 126.5 189.6 126.5 189.6 126.5 Z M 161.0 125.8 C 160.8 123.5 165.3 127.2 161.0 125.8 C 161.0 125.8 161.0 125.8 161.0 125.8 Z M 171.8 116.5 C 171.7 116.4 171.7 116.4 171.8 116.5 C 171.8 116.5 171.8 116.5 171.8 116.5 Z M 168.4 117.3 C 168.4 117.1 168.4 117.1 168.4 117.3 C 168.4 117.3 168.4 117.3 168.4 117.3 Z M 149.8 122.9 C 149.6 122.7 149.6 122.7 149.8 122.9 M 189.7 128.6 C 188.7 127.5 188.9 127.7 189.7 128.6 M 157.5 125.6 C 157.7 125.5 157.7 125.5 157.5 125.6 C 157.5 125.6 157.5 125.6 157.5 125.6 Z M 145.8 124.0 C 145.9 124.0 145.9 124.0 145.8 124.0 C 145.8 124.0 145.8 124.0 145.8 124.0 Z M 198.1 127.3 C 199.6 124.6 200.6 125.3 198.1 127.3 M 219.7 127.3 C 219.8 127.1 219.8 127.1 219.7 127.3 C 219.7 127.3 219.7 127.3 219.7 127.3 Z M 128.1 125.3 C 132.5 128.6 134.4 124.3 134.5 124.2 C 131.3 130.0 140.6 122.1 140.0 120.9 C 140.6 120.1 140.6 109.7 133.7 115.7 C 132.3 116.5 132.4 114.6 131.7 114.4 C 124.3 114.4 135.2 117.8 126.5 117.5 C 125.3 116.6 129.1 111.8 122.6 114.9 C 122.5 114.5 117.3 112.4 118.7 114.8 C 116.8 112.4 113.9 115.0 111.1 115.4 C 109.2 114.0 114.4 112.0 105.0 114.3 C 102.7 110.1 99.1 117.1 97.2 112.5 C 95.2 112.3 89.7 119.5 95.8 115.6 C 95.0 116.0 96.9 119.6 90.8 118.1 C 92.0 117.2 98.0 109.9 86.4 113.0 C 84.7 112.8 80.2 114.5 79.4 113.7 C 85.1 113.0 72.9 110.1 73.6 112.4 C 65.6 110.5 69.7 114.1 64.2 111.3 C 59.2 111.0 65.0 114.7 59.3 112.5 C 54.6 112.7 58.1 111.0 58.6 111.1 C 54.6 110.6 52.9 111.9 51.5 111.7 C 50.7 111.3 49.1 109.7 47.8 111.5 C 43.0 114.7 46.3 118.3 43.8 121.6 C 46.6 123.4 45.6 119.1 47.3 121.7 C 49.2 119.6 47.5 121.9 55.8 121.8 C 55.7 121.2 54.0 119.7 56.0 119.6 C 59.2 120.0 55.7 125.6 61.9 121.8 C 55.9 120.3 71.1 120.3 65.5 118.8 C 73.0 118.5 67.5 119.4 72.5 121.0 C 73.2 117.1 71.9 125.1 74.6 122.1 C 74.7 123.7 83.1 123.4 77.8 120.8 C 86.8 120.1 80.7 122.1 83.2 124.2 C 87.1 124.7 85.3 118.0 86.4 122.8 C 90.9 125.2 87.3 120.5 89.9 124.4 C 89.3 121.0 93.7 124.5 93.4 120.9 C 102.4 121.0 91.1 124.7 98.1 122.4 C 96.2 122.2 95.4 127.1 100.2 124.1 C 100.5 118.4 103.4 129.3 103.3 121.7 C 116.5 120.1 104.3 124.9 111.0 125.2 C 112.7 125.2 110.0 122.7 111.6 122.7 C 119.9 124.1 111.9 125.7 117.9 122.3 C 126.9 121.7 119.2 125.5 123.3 126.0 C 124.3 124.2 129.0 121.4 128.1 125.3 M 121.2 123.2 C 119.0 124.3 120.6 122.0 121.2 123.2 M 137.7 125.7 C 135.4 126.8 137.2 124.4 137.7 125.7 M 113.7 124.0 C 110.8 125.1 113.7 122.0 113.7 124.0 M 67.8 120.3 C 71.0 120.4 66.1 121.2 67.8 120.3 M 130.8 125.6 C 127.7 126.9 131.0 123.6 130.8 125.6 M 135.2 122.8 C 135.1 122.8 135.1 122.8 135.2 122.8 M 62.5 123.1 C 62.4 123.1 62.4 123.1 62.5 123.1 M 74.9 123.7 C 72.2 123.5 76.5 123.0 74.9 123.7 M 78.6 111.3 C 75.8 111.1 80.4 110.6 78.6 111.3 M 55.7 123.0 C 52.9 123.9 55.2 121.6 55.7 123.0 M 49.3 120.0 C 46.8 121.0 48.0 118.7 49.3 120.0 M 124.5 119.0 C 124.6 118.8 124.6 118.8 124.5 119.0 C 124.5 119.0 124.5 119.0 124.5 119.0 Z M 102.4 114.9 C 104.8 116.3 99.5 113.3 102.4 114.9 M 103.9 123.2 C 102.9 120.6 107.4 123.5 103.9 123.2 C 103.9 123.2 103.9 123.2 103.9 123.2 Z M 108.3 122.2 C 108.4 122.1 108.4 122.1 108.3 122.2 C 108.3 122.2 108.3 122.2 108.3 122.2 Z M 95.4 121.6 C 95.6 121.5 95.6 121.5 95.4 121.6 C 95.4 121.6 95.4 121.6 95.4 121.6 Z M 98.2 121.5 C 99.4 121.0 99.5 122.0 98.2 121.5 C 98.2 121.5 98.2 121.5 98.2 121.5 Z M 81.6 112.7 C 82.9 112.2 82.9 113.3 81.6 112.7 C 81.6 112.7 81.6 112.7 81.6 112.7 Z M 102.5 120.8 C 103.8 118.3 103.8 122.5 102.5 120.8 C 102.5 120.8 102.5 120.8 102.5 120.8 Z M 90.4 114.2 C 89.1 114.8 88.7 111.7 90.4 114.2 M 60.0 122.6 C 58.7 123.2 58.1 120.1 60.0 122.6 M 86.9 124.4 C 85.6 125.0 85.2 121.9 86.9 124.4 M 119.3 124.2 C 119.1 124.0 119.1 124.0 119.3 124.2 M 108.0 112.7 C 105.9 113.6 107.5 111.6 108.0 112.7 M 134.1 114.7 C 131.9 115.5 133.7 113.5 134.1 114.7 M 66.5 111.1 C 66.5 111.7 63.7 110.6 66.5 111.1 M 84.9 120.2 C 82.6 119.8 80.5 118.4 85.5 118.7 C 85.6 119.3 84.0 119.6 84.9 120.2 C 84.9 120.2 84.9 120.2 84.9 120.2 Z M 77.8 114.1 C 77.5 113.9 77.5 113.9 77.8 114.1 M 80.0 122.4 C 79.7 122.1 79.7 122.1 80.0 122.4 M 66.1 121.6 C 65.9 121.2 65.9 121.2 66.1 121.6 M 64.2 122.2 C 64.3 122.1 64.3 122.1 64.2 122.2 C 64.2 122.2 64.2 122.2 64.2 122.2 Z M 48.8 122.6 C 48.8 122.5 48.8 122.5 48.8 122.6 C 48.8 122.6 48.8 122.6 48.8 122.6 Z M 70.6 121.4 C 70.7 121.3 70.7 121.3 70.6 121.4 C 70.6 121.4 70.6 121.4 70.6 121.4 Z M 60.1 111.3 C 60.1 111.2 60.1 111.2 60.1 111.3 C 60.1 111.3 60.1 111.3 60.1 111.3 Z M 61.4 112.9 C 61.4 112.8 61.4 112.8 61.4 112.9 C 61.4 112.9 61.4 112.9 61.4 112.9 Z M 126.9 125.3 C 124.1 126.9 127.6 120.9 126.9 125.3 M 54.4 112.6 C 52.7 110.7 58.1 112.4 54.4 112.6 C 54.4 112.6 54.4 112.6 54.4 112.6 Z M 72.8 119.4 C 72.7 119.1 72.7 119.1 72.8 119.4 M 63.4 121.9 C 63.3 121.6 63.3 121.6 63.4 121.9 M 103.2 125.5 C 103.1 125.2 103.1 125.2 103.2 125.5 M 52.8 121.0 C 46.4 120.1 56.4 117.5 52.8 121.0 M 107.0 123.2 C 107.1 123.5 107.1 123.5 107.0 123.2 M 93.9 118.0 C 89.4 117.9 95.9 116.6 93.9 118.0 M 81.7 120.7 C 81.9 120.5 81.9 120.5 81.7 120.7 C 81.7 120.7 81.7 120.7 81.7 120.7 Z M 88.2 120.9 C 91.5 120.7 88.8 121.7 88.2 120.9 C 88.2 120.9 88.2 120.9 88.2 120.9 Z M 124.8 122.8 C 120.8 122.3 129.4 122.2 124.8 122.8 C 124.8 122.8 124.8 122.8 124.8 122.8 Z M 57.0 115.3 C 57.1 115.1 57.1 115.1 57.0 115.3 C 57.0 115.3 57.0 115.3 57.0 115.3 Z M 71.0 123.2 C 73.1 122.7 71.7 124.0 71.0 123.2 C 71.0 123.2 71.0 123.2 71.0 123.2 Z M 46.5 122.5 C 48.5 122.0 47.3 123.3 46.5 122.5 C 46.5 122.5 46.5 122.5 46.5 122.5 Z M 129.6 123.5 C 116.1 118.7 149.2 125.4 129.6 123.5 C 129.6 123.5 129.6 123.5 129.6 123.5 Z M 85.1 122.5 C 85.3 122.4 85.3 122.4 85.1 122.5 C 85.1 122.5 85.1 122.5 85.1 122.5 Z M 112.3 125.4 C 112.4 125.3 112.4 125.3 112.3 125.4 C 112.3 125.4 112.3 125.4 112.3 125.4 Z M 117.9 123.3 C 118.0 123.2 118.0 123.2 117.9 123.3 C 117.9 123.3 117.9 123.3 117.9 123.3 Z M 120.4 113.5 C 120.5 113.3 120.5 113.3 120.4 113.5 C 120.4 113.5 120.4 113.5 120.4 113.5 Z M 117.0 117.9 C 117.3 117.6 117.3 117.6 117.0 117.9 C 117.0 117.9 117.0 117.9 117.0 117.9 Z M 127.5 116.6 C 127.7 116.4 127.7 116.4 127.5 116.6 C 127.5 116.6 127.5 116.6 127.5 116.6 Z M 127.9 115.3 C 128.0 115.2 128.0 115.2 127.9 115.3 C 127.9 115.3 127.9 115.3 127.9 115.3 Z M 64.0 119.2 C 64.2 119.0 64.2 119.0 64.0 119.2 C 64.0 119.2 64.0 119.2 64.0 119.2 Z M 70.2 115.3 C 66.3 116.6 71.9 113.2 70.2 115.3 C 70.2 115.3 70.2 115.3 70.2 115.3 Z M 101.3 118.6 C 97.8 119.0 103.8 117.4 101.3 118.6 C 101.3 118.6 101.3 118.6 101.3 118.6 Z M 99.5 113.1 C 99.4 113.1 99.4 113.1 99.5 113.1 C 99.5 113.1 99.5 113.1 99.5 113.1 Z M 116.9 125.7 C 117.1 125.4 117.1 125.4 116.9 125.7 C 116.9 125.7 116.9 125.7 116.9 125.7 Z M 123.5 124.3 C 124.6 122.2 124.9 125.3 123.5 124.3 M 93.3 124.2 C 93.4 124.0 93.4 124.0 93.3 124.2 C 93.3 124.2 93.3 124.2 93.3 124.2 Z M 75.4 120.2 C 75.5 120.0 75.5 120.0 75.4 120.2 C 75.4 120.2 75.4 120.2 75.4 120.2 Z M 56.3 120.8 C 56.4 120.5 56.4 120.5 56.3 120.8 C 56.3 120.8 56.3 120.8 56.3 120.8 Z M 81.7 123.5 C 81.9 123.2 81.9 123.2 81.7 123.5 C 81.7 123.5 81.7 123.5 81.7 123.5 Z M 91.2 121.9 C 91.4 121.7 91.4 121.7 91.2 121.9 C 91.2 121.9 91.2 121.9 91.2 121.9 Z M 52.7 117.6 C 52.9 117.5 52.9 117.5 52.7 117.6 C 52.7 117.6 52.7 117.6 52.7 117.6 Z M 79.5 123.7 C 79.6 123.6 79.6 123.6 79.5 123.7 C 79.5 123.7 79.5 123.7 79.5 123.7 Z M 75.8 116.9 C 76.1 116.7 76.1 116.7 75.8 116.9 C 75.8 116.9 75.8 116.9 75.8 116.9 Z M 121.5 127.2 C 121.6 127.1 121.6 127.1 121.5 127.2 C 121.5 127.2 121.5 127.2 121.5 127.2 Z M 52.0 120.4 C 52.1 120.3 52.1 120.3 52.0 120.4 C 52.0 120.4 52.0 120.4 52.0 120.4 Z M 50.5 122.2 C 50.6 122.1 50.6 122.1 50.5 122.2 C 50.5 122.2 50.5 122.2 50.5 122.2 Z M 66.0 112.9 C 72.4 114.3 59.8 113.1 64.2 115.5 C 54.4 115.7 64.5 112.7 66.0 112.9 C 66.0 112.9 66.0 112.9 66.0 112.9 Z M 41.5 122.6 C 45.7 120.0 46.1 117.2 45.0 114.3 C 43.4 112.7 42.5 118.4 43.2 113.6 C 47.7 112.9 42.5 106.4 41.6 112.5 C 35.8 113.2 41.3 108.6 37.5 110.9 C 31.4 111.2 34.7 109.5 30.0 109.7 C 26.9 113.0 27.5 108.0 25.9 111.1 C 28.6 107.7 20.8 111.8 20.8 110.3 C 25.3 108.3 4.6 109.6 15.7 111.0 C 11.0 112.5 12.1 109.6 10.5 109.1 C 8.9 110.7 5.2 108.5 2.3 108.6 L 2.3 120.5 C 3.0 120.5 3.7 120.3 4.2 119.8 C 3.8 119.5 2.8 119.4 2.2 119.0 L 2.2 110.1 C 2.4 110.2 2.5 110.3 2.6 110.5 C 2.8 110.9 2.6 111.0 2.2 111.0 L 2.2 118.1 C 3.1 118.1 4.9 118.8 4.6 118.7 C 6.4 117.9 13.5 115.5 6.0 119.5 C 5.7 121.1 12.3 118.4 12.1 119.9 C 19.0 119.7 13.6 116.6 16.8 118.9 C 21.7 118.8 25.1 118.7 25.1 118.2 C 28.1 118.5 28.9 120.4 31.3 118.4 C 37.8 121.8 34.5 111.2 37.8 118.3 C 39.2 116.5 41.6 121.1 40.7 116.7 C 38.9 118.8 51.4 119.7 45.5 116.7 C 46.7 115.6 55.4 120.9 53.5 116.4 C 55.5 113.1 54.4 109.8 48.0 106.9 C 49.1 109.5 41.5 104.5 46.6 108.7 C 51.8 110.0 37.6 110.7 40.4 109.0 C 40.3 103.7 34.0 112.5 30.5 108.9 C 33.2 110.9 21.8 112.4 24.7 108.3 C 22.5 108.1 22.3 110.0 19.7 107.8 C 26.6 107.9 17.4 112.0 17.6 109.6 C 18.7 108.1 8.4 107.3 9.6 109.5 C 13.5 114.8 6.8 108.5 5.2 110.7 C -0.4 112.1 5.8 106.0 1.9 110.2 L 1.9 118.9 C 1.9 118.9 1.9 118.9 1.9 118.9 C 2.9 119.7 10.5 120.0 5.6 120.9 C 3.9 120.3 10.5 115.1 11.0 119.8 C 2.8 122.1 20.1 121.6 17.5 120.1 C 5.3 117.0 31.0 117.7 21.0 119.9 C 26.2 122.6 19.2 120.8 26.2 120.0 C 25.4 118.5 31.0 117.3 29.3 120.2 C 29.8 124.6 31.9 114.4 35.4 120.6 C 35.6 123.2 44.0 119.0 40.5 121.8 C 40.3 122.1 41.3 122.6 41.5 122.6 M 39.2 122.0 C 40.2 121.1 40.5 123.3 39.2 122.0 M 40.3 121.1 C 40.4 121.2 40.4 121.2 40.3 121.1 C 40.3 121.1 40.3 121.1 40.3 121.1 Z M 27.2 119.9 C 27.3 120.0 27.3 120.0 27.2 119.9 C 27.2 119.9 27.2 119.9 27.2 119.9 Z M 17.7 108.4 C 17.8 108.5 17.8 108.5 17.7 108.4 C 17.7 108.4 17.7 108.4 17.7 108.4 Z M 18.4 119.3 C 18.5 119.3 18.5 119.3 18.4 119.3 C 18.4 119.3 18.4 119.3 18.4 119.3 Z M 32.0 119.4 C 32.1 119.4 32.1 119.4 32.0 119.4 C 32.0 119.4 32.0 119.4 32.0 119.4 Z M 19.1 120.9 C 18.5 119.2 22.0 122.2 18.9 121.1 C 18.8 121.0 19.4 121.1 19.1 120.9 M 7.6 121.1 C 7.5 120.9 7.5 120.9 7.6 121.1 M 22.4 120.4 C 22.5 120.6 22.5 120.6 22.4 120.4 M 23.2 107.3 C 23.5 107.4 23.5 107.4 23.2 107.3 M 7.4 109.7 C 10.9 109.4 8.3 110.5 7.4 109.7 M 32.5 107.8 C 28.0 106.9 37.1 106.7 32.5 107.8 M 36.7 106.7 C 37.1 106.8 37.1 106.8 36.7 106.7 M 16.9 108.1 C 16.8 108.2 16.8 108.2 16.9 108.1 C 16.9 108.1 16.9 108.1 16.9 108.1 Z M 5.9 109.1 C 1.3 108.4 10.5 107.4 5.9 109.1 M 25.5 121.4 C 22.9 122.1 25.7 119.3 25.5 121.4 M 30.8 120.7 C 30.8 120.6 30.8 120.6 30.8 120.7 C 30.8 120.7 30.8 120.7 30.8 120.7 Z M 25.5 108.0 C 25.3 108.0 25.3 108.0 25.5 108.0 C 25.5 108.0 25.5 108.0 25.5 108.0 Z M 30.5 107.5 C 30.3 107.5 30.3 107.5 30.5 107.5 C 30.5 107.5 30.5 107.5 30.5 107.5 Z M 40.8 119.2 C 40.6 119.3 40.6 119.3 40.8 119.2 C 40.8 119.2 40.8 119.2 40.8 119.2 Z M 27.5 115.5 C 30.8 116.5 23.5 119.3 24.5 116.4 C 24.3 115.1 27.1 115.7 27.5 115.5 M 2.7 112.9 C 3.2 114.8 2.5 113.9 2.0 112.8 C 1.4 111.7 0.9 110.4 1.9 111.7 C 2.1 112.0 2.4 112.4 2.7 112.9 M 37.7 109.3 C 41.9 114.1 32.9 106.1 37.7 109.3 M 44.5 108.2 C 46.7 109.1 31.7 109.3 42.0 107.6 C 42.8 106.7 43.7 107.7 44.5 108.2 M 7.5 119.1 C 6.7 116.7 12.9 120.3 7.5 119.1 M 17.9 116.5 C 19.5 114.9 23.8 113.5 22.1 116.1 C 22.4 119.3 15.9 117.8 17.9 116.5 M 38.5 119.6 C 35.2 123.2 39.1 116.5 38.5 119.6 M 25.1 118.7 C 25.0 118.9 25.0 118.9 25.1 118.7 C 25.1 118.7 25.1 118.7 25.1 118.7 Z M 19.8 119.1 C 19.5 118.8 19.5 118.8 19.8 119.1 M 35.9 122.7 C 35.6 122.5 35.6 122.5 35.9 122.7 M 17.5 112.7 C 17.8 113.0 17.8 113.0 17.5 112.7 M 6.5 110.7 C 11.9 114.1 3.7 111.6 6.5 110.7 M 10.4 111.6 C 8.9 109.8 13.7 111.6 10.4 111.6 M 14.8 109.0 C 18.8 112.2 10.1 112.4 14.8 109.0 M 3.9 110.5 C 4.2 110.4 4.2 110.4 3.9 110.5 C 3.9 110.5 3.9 110.5 3.9 110.5 Z M 19.3 116.8 C 19.2 116.9 19.2 116.9 19.3 116.8 C 19.3 116.8 19.3 116.8 19.3 116.8 Z M 20.9 116.6 C 20.8 116.7 20.8 116.7 20.9 116.6 C 20.9 116.6 20.9 116.6 20.9 116.6 Z M 19.3 108.4 C 19.1 108.5 19.1 108.5 19.3 108.4 C 19.3 108.4 19.3 108.4 19.3 108.4 Z M 32.3 111.2 C 28.6 110.8 35.4 110.8 32.3 111.2 C 32.3 111.2 32.3 111.2 32.3 111.2 Z M 14.9 120.7 C 9.1 117.7 19.4 118.3 14.9 120.7 C 14.9 120.7 14.9 120.7 14.9 120.7 Z M 8.3 115.9 C 8.4 115.7 8.4 115.7 8.3 115.9 C 8.3 115.9 8.3 115.9 8.3 115.9 Z M 12.4 107.0 C 12.4 107.2 12.4 107.2 12.4 107.0 C 12.4 107.0 12.4 107.0 12.4 107.0 Z M 30.5 110.7 C 30.5 110.5 30.5 110.5 30.5 110.7 C 30.5 110.7 30.5 110.7 30.5 110.7 Z M 29.9 109.8 C 29.9 110.0 29.9 110.0 29.9 109.8 C 29.9 109.8 29.9 109.8 29.9 109.8 Z M 9.3 117.7 C 10.5 116.4 9.6 118.8 9.3 117.7 C 9.3 117.7 9.3 117.7 9.3 117.7 Z M 14.8 117.6 C 15.0 117.5 15.0 117.5 14.8 117.6 C 14.8 117.6 14.8 117.6 14.8 117.6 Z M 38.0 106.3 C 38.1 106.3 38.1 106.3 38.0 106.3 C 38.0 106.3 38.0 106.3 38.0 106.3 Z M 29.5 120.2 C 29.6 120.2 29.6 120.2 29.5 120.2 C 29.5 120.2 29.5 120.2 29.5 120.2 Z M 33.6 116.0 C 33.6 116.0 33.6 116.0 33.6 116.0 C 33.6 116.0 33.6 116.0 33.6 116.0 Z M 18.4 109.3 C 23.8 108.4 17.3 110.9 18.4 109.3 C 18.4 109.3 18.4 109.3 18.4 109.3 Z M 47.2 114.3 C 47.4 114.5 47.4 114.5 47.2 114.3 C 47.2 114.3 47.2 114.3 47.2 114.3 Z M 49.2 109.5 C 49.4 109.7 49.4 109.7 49.2 109.5 C 49.2 109.5 49.2 109.5 49.2 109.5 Z M 50.1 107.0 C 50.3 107.2 50.3 107.2 50.1 107.0 C 50.1 107.0 50.1 107.0 50.1 107.0 Z M 20.3 114.1 C 20.4 114.3 20.4 114.3 20.3 114.1 C 20.3 114.1 20.3 114.1 20.3 114.1 Z M 21.7 121.8 C 21.8 121.9 21.8 121.9 21.7 121.8 C 21.7 121.8 21.7 121.8 21.7 121.8 Z M 14.4 121.9 C 14.4 121.9 14.4 121.9 14.4 121.9 C 14.4 121.9 14.4 121.9 14.4 121.9 Z M 22.1 109.5 C 22.2 109.6 22.2 109.6 22.1 109.5 C 22.1 109.5 22.1 109.5 22.1 109.5 Z M 10.5 113.6 C 10.4 113.4 10.4 113.4 10.5 113.6 C 10.5 113.6 10.5 113.6 10.5 113.6 Z M 13.4 116.5 C 13.2 116.4 13.2 116.4 13.4 116.5 C 13.4 116.5 13.4 116.5 13.4 116.5 Z M 7.1 120.9 C 7.0 120.9 7.0 120.9 7.1 120.9 C 7.1 120.9 7.1 120.9 7.1 120.9 Z M 15.6 119.1 C 15.6 119.1 15.6 119.1 15.6 119.1 C 15.6 119.1 15.6 119.1 15.6 119.1 Z M 41.0 111.7 C 41.1 111.6 41.1 111.6 41.0 111.7 C 41.0 111.7 41.0 111.7 41.0 111.7 Z M 40.7 117.6 C 40.9 117.4 40.9 117.4 40.7 117.6 C 40.7 117.6 40.7 117.6 40.7 117.6 Z M 11.1 109.3 C 12.2 108.0 13.7 110.8 11.1 109.3 M 3.2 118.8 C 3.2 118.7 3.2 118.7 3.2 118.8 C 3.2 118.8 3.2 118.8 3.2 118.8 Z M 28.8 108.7 C 30.5 111.0 23.7 107.8 28.8 108.7 C 28.8 108.7 28.8 108.7 28.8 108.7 Z M 24.3 118.7 C 24.4 118.8 24.4 118.8 24.3 118.7 C 24.3 118.7 24.3 118.7 24.3 118.7 Z M 27.0 117.7 C 27.2 117.9 27.2 117.9 27.0 117.7 C 27.0 117.7 27.0 117.7 27.0 117.7 Z M 41.6 110.7 C 41.9 110.9 41.9 110.9 41.6 110.7 M 4.4 120.9 C 2.9 119.8 3.2 120.0 4.4 120.9 M 32.4 108.7 C 32.2 108.8 32.2 108.8 32.4 108.7 C 32.4 108.7 32.4 108.7 32.4 108.7 Z M 44.8 109.3 C 44.7 109.3 44.7 109.3 44.8 109.3 C 44.8 109.3 44.8 109.3 44.8 109.3 Z M 12.0 119.6 C 11.9 116.8 13.3 117.5 12.0 119.6 M 33.0 119.6 C 33.0 119.4 33.0 119.4 33.0 119.6 C 33.0 119.6 33.0 119.6 33.0 119.6 Z M 61.1 106.5 C 54.8 103.7 55.7 108.1 55.7 108.2 C 55.1 102.3 51.0 110.7 52.4 111.8 C 52.4 112.7 58.9 122.8 61.8 116.4 C 62.7 115.5 63.8 117.3 64.6 117.4 C 71.8 116.9 59.0 114.4 67.7 114.1 C 69.4 114.9 68.8 119.8 73.2 116.2 C 73.5 116.7 79.9 118.3 77.1 116.1 C 80.5 118.3 81.5 115.4 84.0 114.8 C 86.7 116.0 83.0 118.4 90.7 115.4 C 95.6 119.3 94.7 112.2 99.3 116.5 C 101.5 116.5 102.3 109.1 98.8 113.4 C 99.3 112.9 95.2 109.6 102.1 110.6 C 101.5 111.5 100.3 119.1 109.7 115.1 C 111.4 115.2 114.7 113.2 116.0 113.9 C 110.9 115.0 124.6 116.9 122.4 114.7 C 131.5 115.9 125.2 112.8 132.3 115.0 C 137.4 114.9 129.3 111.7 136.3 113.4 C 140.8 112.9 138.4 114.8 137.9 114.7 C 142.1 114.9 143.0 113.5 144.4 113.5 C 145.5 113.9 148.0 115.3 148.1 113.4 C 150.7 109.9 145.3 106.7 145.6 103.3 C 141.8 101.8 145.5 105.9 142.2 103.5 C 141.7 105.6 141.9 103.3 133.8 104.1 C 134.3 104.6 136.9 106.0 135.0 106.3 C 131.7 106.2 131.4 100.4 127.9 104.6 C 134.7 105.6 119.8 106.8 126.2 107.8 C 119.1 108.7 123.9 107.4 118.0 106.2 C 119.8 110.1 116.0 102.2 115.3 105.3 C 114.2 103.7 106.2 104.8 113.0 106.9 C 104.7 108.2 109.4 105.8 105.6 103.9 C 101.5 103.8 107.5 110.2 103.4 105.6 C 97.5 103.6 104.0 107.9 98.9 104.4 C 101.7 107.6 95.2 104.5 97.7 108.0 C 89.0 108.7 97.6 104.2 92.2 106.9 C 94.2 107.0 91.9 102.2 89.1 105.5 C 92.5 111.1 82.7 100.6 87.6 108.1 C 75.8 110.7 84.6 105.0 77.9 105.3 C 76.2 105.4 80.5 107.7 78.9 107.8 C 69.9 107.1 76.6 104.8 73.0 108.7 C 64.6 110.0 69.7 105.6 65.5 105.5 C 65.6 107.3 62.8 110.5 61.1 106.5 M 69.2 108.1 C 70.7 106.8 70.6 109.2 69.2 108.1 M 51.6 107.0 C 53.1 105.8 52.9 108.2 51.6 107.0 M 76.0 106.7 C 78.1 105.3 77.3 108.6 76.0 106.7 M 123.1 106.6 C 119.8 106.7 124.2 105.5 123.1 106.6 M 58.4 106.5 C 60.6 104.9 59.5 108.5 58.4 106.5 M 55.8 109.5 C 56.0 109.6 56.0 109.6 55.8 109.5 M 126.4 103.3 C 126.6 103.4 126.6 103.4 126.4 103.3 M 114.0 103.8 C 116.7 103.8 112.9 104.6 114.0 103.8 M 118.3 116.2 C 121.1 116.1 117.0 117.0 118.3 116.2 M 133.1 102.9 C 135.3 101.9 134.5 104.3 133.1 102.9 M 141.3 105.3 C 143.1 104.1 143.4 106.5 141.3 105.3 M 68.7 112.4 C 68.7 112.6 68.7 112.6 68.7 112.4 C 68.7 112.4 68.7 112.4 68.7 112.4 Z M 92.8 114.6 C 89.6 113.5 96.6 116.0 92.8 114.6 M 86.1 106.6 C 88.7 109.1 82.5 106.6 86.1 106.6 C 86.1 106.6 86.1 106.6 86.1 106.6 Z M 82.4 107.9 C 82.4 108.1 82.4 108.1 82.4 107.9 C 82.4 107.9 82.4 107.9 82.4 107.9 Z M 95.4 107.6 C 95.2 107.6 95.2 107.6 95.4 107.6 C 95.4 107.6 95.4 107.6 95.4 107.6 Z M 92.8 107.9 C 91.9 108.5 91.1 107.4 92.8 107.9 C 92.8 107.9 92.8 107.9 92.8 107.9 Z M 114.5 115.1 C 113.6 115.6 112.8 114.6 114.5 115.1 C 114.5 115.1 114.5 115.1 114.5 115.1 Z M 89.0 108.9 C 89.4 111.5 86.6 107.3 89.0 108.9 C 89.0 108.9 89.0 108.9 89.0 108.9 Z M 104.9 114.3 C 105.9 113.6 108.2 116.6 104.9 114.3 M 129.2 103.7 C 130.1 103.0 132.7 106.0 129.2 103.7 M 101.9 104.1 C 102.8 103.4 105.1 106.4 101.9 104.1 M 70.4 106.9 C 70.8 107.2 70.8 107.2 70.4 106.9 M 88.7 117.2 C 90.2 116.2 90.0 118.3 88.7 117.2 M 62.1 117.4 C 63.7 116.4 63.2 118.5 62.1 117.4 M 130.2 115.4 C 129.8 114.8 133.2 115.6 130.2 115.4 M 106.5 108.0 C 109.0 108.2 111.9 109.4 106.8 109.5 C 106.3 108.9 107.7 108.5 106.5 108.0 C 106.5 108.0 106.5 108.0 106.5 108.0 Z M 117.3 113.4 C 117.7 113.6 117.7 113.6 117.3 113.4 M 109.9 105.5 C 110.3 105.7 110.3 105.7 109.9 105.5 M 123.9 105.1 C 124.3 105.5 124.3 105.5 123.9 105.1 M 125.3 104.4 C 125.3 104.5 125.3 104.5 125.3 104.4 C 125.3 104.4 125.3 104.4 125.3 104.4 Z M 140.1 102.7 C 140.1 102.8 140.1 102.8 140.1 102.7 C 140.1 102.7 140.1 102.7 140.1 102.7 Z M 119.6 105.6 C 119.6 105.8 119.6 105.8 119.6 105.6 C 119.6 105.6 119.6 105.6 119.6 105.6 Z M 136.4 114.7 C 136.4 114.8 136.4 114.8 136.4 114.7 C 136.4 114.7 136.4 114.7 136.4 114.7 Z M 134.1 113.2 C 134.1 113.3 134.1 113.3 134.1 113.2 C 134.1 113.2 134.1 113.2 134.1 113.2 Z M 62.4 106.5 C 64.0 104.7 64.5 110.9 62.4 106.5 M 141.0 113.0 C 143.9 114.6 137.5 113.5 141.0 113.0 C 141.0 113.0 141.0 113.0 141.0 113.0 Z M 118.7 107.8 C 119.1 108.1 119.1 108.1 118.7 107.8 M 126.3 104.6 C 126.6 104.9 126.6 104.9 126.3 104.6 M 85.3 104.3 C 85.6 104.6 85.6 104.6 85.3 104.3 M 137.2 104.6 C 144.0 104.9 135.9 108.3 137.2 104.6 M 83.0 106.9 C 82.8 106.6 82.8 106.6 83.0 106.9 M 99.2 110.9 C 103.5 110.6 98.1 112.4 99.2 110.9 M 109.3 107.3 C 109.2 107.4 109.2 107.4 109.3 107.3 C 109.3 107.3 109.3 107.3 109.3 107.3 Z M 102.8 107.6 C 99.7 108.1 101.7 106.9 102.8 107.6 C 102.8 107.6 102.8 107.6 102.8 107.6 Z M 65.9 108.7 C 70.2 108.9 61.9 109.7 65.9 108.7 C 65.9 108.7 65.9 108.7 65.9 108.7 Z M 136.8 110.5 C 136.8 110.7 136.8 110.7 136.8 110.5 C 136.8 110.5 136.8 110.5 136.8 110.5 Z M 118.1 103.9 C 116.4 104.6 116.9 103.2 118.1 103.9 C 118.1 103.9 118.1 103.9 118.1 103.9 Z M 142.4 102.6 C 140.8 103.3 141.2 101.9 142.4 102.6 C 142.4 102.6 142.4 102.6 142.4 102.6 Z M 60.9 108.5 C 77.1 112.0 40.6 108.2 60.9 108.5 C 60.9 108.5 60.9 108.5 60.9 108.5 Z M 104.8 105.8 C 104.7 105.9 104.7 105.9 104.8 105.8 C 104.8 105.8 104.8 105.8 104.8 105.8 Z M 76.5 105.2 C 76.5 105.3 76.5 105.3 76.5 105.2 C 76.5 105.2 76.5 105.2 76.5 105.2 Z M 72.4 107.7 C 72.3 107.8 72.3 107.8 72.4 107.7 C 72.4 107.7 72.4 107.7 72.4 107.7 Z M 76.3 117.5 C 76.2 117.6 76.2 117.6 76.3 117.5 C 76.3 117.5 76.3 117.5 76.3 117.5 Z M 76.7 112.9 C 76.6 113.2 76.6 113.2 76.7 112.9 C 76.7 112.9 76.7 112.9 76.7 112.9 Z M 67.2 115.0 C 67.2 115.2 67.2 115.2 67.2 115.0 C 67.2 115.0 67.2 115.0 67.2 115.0 Z M 67.8 116.3 C 67.7 116.4 67.7 116.4 67.8 116.3 C 67.8 116.3 67.8 116.3 67.8 116.3 Z M 127.5 107.3 C 127.4 107.5 127.4 107.5 127.5 107.3 C 127.5 107.3 127.5 107.3 127.5 107.3 Z M 123.9 111.6 C 126.9 110.0 123.6 113.8 123.9 111.6 C 123.9 111.6 123.9 111.6 123.9 111.6 Z M 91.6 110.9 C 94.7 110.3 89.8 112.3 91.6 110.9 C 91.6 110.9 91.6 110.9 91.6 110.9 Z M 96.8 116.1 C 96.9 116.2 96.9 116.2 96.8 116.1 C 96.8 116.1 96.8 116.1 96.8 116.1 Z M 71.8 105.3 C 71.7 105.5 71.7 105.5 71.8 105.3 C 71.8 105.3 71.8 105.3 71.8 105.3 Z M 66.3 107.2 C 66.6 109.3 64.3 106.3 66.3 107.2 M 95.7 104.8 C 95.8 105.0 95.8 105.0 95.7 104.8 C 95.7 104.8 95.7 104.8 95.7 104.8 Z M 115.8 107.2 C 115.8 107.4 115.8 107.4 115.8 107.2 C 115.8 107.2 115.8 107.2 115.8 107.2 Z M 134.0 105.1 C 134.1 105.4 134.1 105.4 134.0 105.1 C 134.0 105.1 134.0 105.1 134.0 105.1 Z M 107.5 104.6 C 107.5 104.8 107.5 104.8 107.5 104.6 C 107.5 104.6 107.5 104.6 107.5 104.6 Z M 99.3 106.8 C 99.3 107.1 99.3 107.1 99.3 106.8 C 99.3 106.8 99.3 106.8 99.3 106.8 Z M 139.5 107.9 C 139.4 108.0 139.4 108.0 139.5 107.9 C 139.5 107.9 139.5 107.9 139.5 107.9 Z M 109.5 104.2 C 109.4 104.3 109.4 104.3 109.5 104.2 C 109.5 104.2 109.5 104.2 109.5 104.2 Z M 117.4 110.5 C 117.3 110.7 117.3 110.7 117.4 110.5 C 117.4 110.5 117.4 110.5 117.4 110.5 Z M 66.5 104.2 C 66.4 104.3 66.4 104.3 66.5 104.2 C 66.5 104.2 66.5 104.2 66.5 104.2 Z M 138.4 105.1 C 138.4 105.2 138.4 105.2 138.4 105.1 C 138.4 105.1 138.4 105.1 138.4 105.1 Z M 138.7 103.2 C 138.7 103.4 138.7 103.4 138.7 103.2 C 138.7 103.2 138.7 103.2 138.7 103.2 Z M 129.6 113.6 C 122.4 112.7 135.5 112.9 129.6 110.9 C 139.0 109.9 131.1 113.6 129.6 113.6 C 129.6 113.6 129.6 113.6 129.6 113.6 Z M 147.2 102.1 C 144.8 105.0 146.1 107.7 149.1 110.5 C 151.6 111.9 148.9 106.3 151.3 111.0 C 147.4 112.1 156.6 118.0 153.5 112.0 C 158.7 110.9 156.3 115.8 158.6 113.2 C 164.3 112.4 162.1 114.4 166.6 113.7 C 167.6 110.3 170.2 115.2 169.7 112.1 C 169.2 115.6 174.2 110.9 175.2 112.5 C 172.1 114.7 191.4 111.8 179.7 111.3 C 183.3 109.5 184.1 112.4 185.9 112.7 C 186.7 110.6 194.4 114.0 195.9 111.9 C 195.1 111.5 193.7 111.4 192.8 110.8 C 191.3 109.5 196.1 110.9 195.7 110.8 C 197.1 110.0 203.0 107.7 197.5 111.5 C 198.1 113.2 203.4 110.5 204.1 112.0 C 211.0 111.8 203.7 108.7 208.3 111.0 C 213.2 110.9 216.7 110.7 216.4 110.3 C 219.6 110.6 221.5 112.4 222.9 110.5 C 231.4 113.8 222.2 103.5 229.4 110.4 C 229.9 108.6 234.9 113.1 231.5 108.8 C 230.8 110.9 244.1 111.8 236.5 108.8 C 237.1 107.8 248.9 112.9 244.4 108.6 C 244.7 105.2 241.7 102.1 233.6 99.3 C 236.1 101.7 225.6 96.9 233.1 101.0 C 239.2 102.3 225.0 102.9 226.9 101.3 C 223.9 96.1 222.3 104.7 216.8 101.2 C 220.6 103.1 209.8 104.6 210.5 100.7 C 208.2 100.4 208.9 102.3 205.1 100.1 C 212.2 100.2 205.1 104.3 204.0 101.9 C 204.2 100.4 193.2 99.7 195.7 101.8 C 202.7 107.0 192.3 100.8 191.9 103.0 C 186.9 104.4 189.9 98.4 188.2 102.5 C 186.6 101.9 179.1 102.2 183.2 100.9 C 185.3 101.3 182.2 106.9 178.7 102.4 C 185.2 99.5 168.7 101.4 172.2 102.6 C 186.0 104.6 160.5 106.0 169.0 103.1 C 162.1 100.9 170.0 102.1 163.8 103.4 C 165.5 104.8 160.8 106.4 160.6 103.5 C 157.3 99.2 161.7 109.3 154.5 103.6 C 152.6 101.1 147.1 105.8 148.7 102.9 C 148.8 102.6 147.4 102.1 147.2 102.1 M 149.9 102.5 C 149.4 103.5 147.8 101.4 149.9 102.5 M 149.3 103.5 C 149.2 103.5 149.2 103.5 149.3 103.5 C 149.3 103.5 149.3 103.5 149.3 103.5 Z M 162.9 103.6 C 162.7 103.5 162.7 103.5 162.9 103.6 C 162.9 103.6 162.9 103.6 162.9 103.6 Z M 179.4 114.0 C 179.3 113.9 179.3 113.9 179.4 114.0 C 179.4 114.0 179.4 114.0 179.4 114.0 Z M 171.8 103.5 C 171.7 103.5 171.7 103.5 171.8 103.5 C 171.8 103.5 171.8 103.5 171.8 103.5 Z M 158.5 104.5 C 158.4 104.5 158.4 104.5 158.5 104.5 C 158.5 104.5 158.5 104.5 158.5 104.5 Z M 170.1 102.0 C 171.7 103.6 166.4 100.9 170.2 101.7 C 170.3 101.8 169.7 101.8 170.1 102.0 M 181.2 100.8 C 181.4 101.0 181.4 101.0 181.2 100.8 M 214.9 112.5 C 215.1 112.7 215.1 112.7 214.9 112.5 M 208.4 99.6 C 208.8 99.8 208.8 99.8 208.4 99.6 M 193.6 102.0 C 197.0 101.7 195.0 102.8 193.6 102.0 M 218.2 100.1 C 213.1 99.3 222.3 99.1 218.2 100.1 M 221.8 99.0 C 222.3 99.1 222.3 99.1 221.8 99.0 M 202.4 100.5 C 202.4 100.6 202.4 100.6 202.4 100.5 C 202.4 100.5 202.4 100.5 202.4 100.5 Z M 191.7 101.4 C 186.6 100.7 195.4 99.7 191.7 101.4 M 163.6 102.0 C 165.7 101.1 164.7 104.1 163.6 102.0 M 158.9 103.1 C 158.9 103.2 158.9 103.2 158.9 103.1 C 158.9 103.1 158.9 103.1 158.9 103.1 Z M 211.1 100.3 C 211.0 100.4 211.0 100.4 211.1 100.3 C 211.1 100.3 211.1 100.3 211.1 100.3 Z M 216.0 99.8 C 215.8 99.9 215.8 99.9 216.0 99.8 C 216.0 99.8 216.0 99.8 216.0 99.8 Z M 233.0 111.3 C 232.9 111.3 232.9 111.3 233.0 111.3 C 233.0 111.3 233.0 111.3 233.0 111.3 Z M 165.4 107.9 C 161.5 107.2 166.8 103.9 167.7 106.8 C 168.7 108.0 165.6 107.6 165.4 107.9 M 190.6 105.2 C 194.0 109.2 183.9 99.8 190.6 105.2 M 224.4 101.6 C 231.3 106.3 217.6 98.4 224.4 101.6 M 230.7 100.5 C 233.5 101.4 218.2 101.6 227.7 99.9 C 228.2 99.1 229.6 100.0 230.7 100.5 M 182.5 102.8 C 184.9 105.0 176.5 102.1 182.5 102.8 M 208.1 108.6 C 208.8 107.1 212.4 105.7 212.1 108.2 C 214.2 111.3 206.8 109.9 208.1 108.6 M 152.0 104.8 C 153.0 101.1 153.5 107.8 152.0 104.8 M 165.6 104.5 C 165.6 104.4 165.6 104.4 165.6 104.5 C 165.6 104.5 165.6 104.5 165.6 104.5 Z M 170.6 103.7 C 171.0 104.0 171.0 104.0 170.6 103.7 M 152.6 101.5 C 153.0 101.8 153.0 101.8 152.6 101.5 M 205.5 104.9 C 206.0 105.2 206.0 105.2 205.5 104.9 M 193.2 103.0 C 200.6 106.3 190.9 103.8 193.2 103.0 M 184.6 110.3 C 187.1 112.0 181.3 110.6 184.6 110.3 M 200.8 101.3 C 206.6 104.5 197.8 104.7 200.8 101.3 M 190.4 102.7 C 190.7 102.7 190.7 102.7 190.4 102.7 C 190.4 102.7 190.4 102.7 190.4 102.7 Z M 209.7 108.9 C 209.7 109.0 209.7 109.0 209.7 108.9 C 209.7 108.9 209.7 108.9 209.7 108.9 Z M 211.2 108.7 C 211.1 108.8 211.1 108.8 211.2 108.7 C 211.2 108.7 211.2 108.7 211.2 108.7 Z M 205.0 100.7 C 204.9 100.8 204.9 100.8 205.0 100.7 C 205.0 100.7 205.0 100.7 205.0 100.7 Z M 163.4 112.4 C 167.3 112.5 160.7 113.1 163.4 112.4 C 163.4 112.4 163.4 112.4 163.4 112.4 Z M 174.3 101.8 C 181.9 104.3 171.5 104.5 174.3 101.8 C 174.3 101.8 174.3 101.8 174.3 101.8 Z M 183.8 105.9 C 183.9 106.1 183.9 106.1 183.8 105.9 C 183.8 105.9 183.8 105.9 183.8 105.9 Z M 197.1 99.3 C 197.2 99.5 197.2 99.5 197.1 99.3 C 197.1 99.3 197.1 99.3 197.1 99.3 Z M 165.5 112.8 C 165.6 113.0 165.6 113.0 165.5 112.8 C 165.5 112.8 165.5 112.8 165.5 112.8 Z M 216.6 102.1 C 216.7 102.3 216.7 102.3 216.6 102.1 C 216.6 102.1 216.6 102.1 216.6 102.1 Z M 199.9 109.9 C 200.5 108.5 200.9 110.9 199.9 109.9 C 199.9 109.9 199.9 109.9 199.9 109.9 Z M 205.5 109.7 C 205.7 109.7 205.7 109.7 205.5 109.7 C 205.5 109.7 205.5 109.7 205.5 109.7 Z M 223.0 98.7 C 223.1 98.7 223.1 98.7 223.0 98.7 C 223.0 98.7 223.0 98.7 223.0 98.7 Z M 222.0 112.3 C 222.1 112.2 222.1 112.2 222.0 112.3 C 222.0 112.3 222.0 112.3 222.0 112.3 Z M 223.9 108.1 C 223.9 108.2 223.9 108.2 223.9 108.1 C 223.9 108.1 223.9 108.1 223.9 108.1 Z M 204.6 101.6 C 209.6 100.7 204.3 103.1 204.6 101.6 C 204.6 101.6 204.6 101.6 204.6 101.6 Z M 236.9 106.5 C 237.2 106.7 237.2 106.7 236.9 106.5 C 236.9 106.5 236.9 106.5 236.9 106.5 Z M 236.2 101.8 C 236.5 102.0 236.5 102.0 236.2 101.8 C 236.2 101.8 236.2 101.8 236.2 101.8 Z M 235.8 99.3 C 236.1 99.5 236.1 99.5 235.8 99.3 C 235.8 99.3 235.8 99.3 235.8 99.3 Z M 173.3 108.7 C 173.0 108.5 173.0 108.5 173.3 108.7 C 173.3 108.7 173.3 108.7 173.3 108.7 Z M 167.0 101.3 C 166.9 101.2 166.9 101.2 167.0 101.3 C 167.0 101.3 167.0 101.3 167.0 101.3 Z M 174.1 100.6 C 174.0 100.6 174.0 100.6 174.1 100.6 C 174.1 100.6 174.1 100.6 174.1 100.6 Z M 174.4 113.3 C 174.3 113.2 174.3 113.2 174.4 113.3 C 174.4 113.3 174.4 113.3 174.4 113.3 Z M 198.9 105.8 C 198.7 105.6 198.7 105.6 198.9 105.8 C 198.9 105.8 198.9 105.8 198.9 105.8 Z M 203.5 108.7 C 203.2 108.5 203.2 108.5 203.5 108.7 C 203.5 108.7 203.5 108.7 203.5 108.7 Z M 199.5 113.0 C 199.4 112.9 199.4 112.9 199.5 113.0 C 199.5 113.0 199.5 113.0 199.5 113.0 Z M 207.2 111.2 C 207.1 111.1 207.1 111.1 207.2 111.2 C 207.2 111.2 207.2 111.2 207.2 111.2 Z M 154.6 112.7 C 154.6 112.8 154.6 112.8 154.6 112.7 C 154.6 112.7 154.6 112.7 154.6 112.7 Z M 151.2 107.0 C 151.1 107.1 151.1 107.1 151.2 107.0 C 151.2 107.0 151.2 107.0 151.2 107.0 Z M 197.1 101.6 C 197.5 100.3 200.7 103.1 197.1 101.6 M 187.0 102.8 C 187.0 102.8 187.0 102.8 187.0 102.8 C 187.0 102.8 187.0 102.8 187.0 102.8 Z M 214.9 101.1 C 217.9 103.3 209.2 100.1 214.9 101.1 C 214.9 101.1 214.9 101.1 214.9 101.1 Z M 215.8 110.8 C 216.0 110.9 216.0 110.9 215.8 110.8 C 215.8 110.8 215.8 110.8 215.8 110.8 Z M 218.0 109.8 C 218.4 110.0 218.4 110.0 218.0 109.8 C 218.0 109.8 218.0 109.8 218.0 109.8 Z M 229.1 103.0 C 229.6 103.2 229.6 103.2 229.1 103.0 M 184.4 100.8 C 186.6 101.7 186.2 101.5 184.4 100.8 M 218.6 101.0 C 218.5 101.1 218.5 101.1 218.6 101.0 C 218.6 101.0 218.6 101.0 218.6 101.0 Z M 231.6 101.6 C 231.5 101.6 231.5 101.6 231.6 101.6 C 231.6 101.6 231.6 101.6 231.6 101.6 Z M 177.9 102.6 C 179.7 105.4 177.9 104.8 177.9 102.6 M 157.4 104.4 C 157.5 104.6 157.5 104.6 157.4 104.4 C 157.4 104.4 157.4 104.4 157.4 104.4 Z M 249.2 100.9 C 233.9 98.0 241.6 104.0 241.9 105.1 C 241.4 106.8 243.9 107.8 247.3 108.8 C 253.1 112.6 248.4 104.7 253.3 108.5 C 260.9 113.5 253.6 103.8 259.5 109.2 C 260.1 110.6 264.2 109.3 263.5 108.9 C 268.2 111.4 268.0 106.7 267.6 106.2 C 269.9 106.8 274.1 111.6 276.3 107.8 C 279.2 106.4 285.2 111.1 281.2 107.8 C 287.5 111.4 282.3 106.7 286.3 107.8 C 290.3 109.7 283.6 104.6 290.8 108.4 C 289.7 105.3 291.0 110.5 299.0 107.9 C 293.9 107.8 301.4 105.2 301.4 107.4 C 300.1 109.7 305.4 106.4 311.2 107.5 C 311.3 106.3 314.0 103.3 316.1 106.4 C 324.4 109.7 318.7 104.0 323.7 106.8 C 326.5 108.0 324.4 105.4 325.7 105.5 C 329.1 107.4 329.5 106.5 333.7 106.4 C 333.7 105.8 333.8 105.1 333.9 104.4 C 335.0 92.7 328.0 96.9 327.3 91.3 C 326.2 89.6 318.7 89.4 324.3 92.0 C 323.5 91.7 324.7 95.7 325.1 98.2 C 323.6 98.7 322.3 98.6 321.8 95.6 C 320.4 98.2 320.1 93.2 315.3 96.3 C 330.3 100.0 304.8 98.5 313.0 96.0 C 310.1 94.9 306.1 95.3 310.2 96.2 C 315.2 99.9 301.2 94.7 310.0 99.2 C 302.2 98.2 307.9 102.3 303.3 99.4 C 296.9 94.5 304.8 100.7 300.1 99.4 C 292.2 99.7 292.8 93.7 291.7 97.7 C 281.9 95.5 292.1 100.0 290.1 100.7 C 292.5 104.2 279.9 98.3 285.2 97.7 C 283.9 99.6 283.1 96.0 281.7 98.4 C 287.2 101.4 274.2 95.1 277.5 97.7 C 275.2 98.6 278.5 100.4 277.6 100.6 C 272.9 100.8 271.6 97.6 272.7 100.0 C 272.8 101.3 267.0 97.2 267.3 98.3 C 272.2 98.3 266.3 101.9 264.3 100.1 C 267.0 99.8 259.3 96.0 259.5 98.6 C 267.8 105.5 253.9 96.9 253.8 99.5 C 259.1 103.3 243.8 100.4 247.1 98.4 C 247.0 98.8 249.3 101.0 249.2 100.9 M 266.4 98.9 C 270.6 99.1 262.9 99.9 266.4 98.9 M 265.4 97.9 C 268.2 99.1 260.9 97.1 265.2 97.5 C 265.3 97.5 265.1 97.8 265.4 97.9 M 281.3 97.1 C 281.9 98.2 278.6 96.6 281.3 97.1 M 286.6 99.4 C 290.2 100.3 283.3 99.7 286.6 99.4 M 321.7 97.1 C 324.0 103.0 314.6 94.1 321.7 97.1 M 296.9 96.9 C 293.3 97.9 296.1 94.5 296.9 96.9 M 297.0 98.4 C 295.9 99.5 295.3 97.1 297.0 98.4 M 314.9 97.4 C 315.3 97.5 315.3 97.5 314.9 97.4 C 314.9 97.4 314.9 97.4 314.9 97.4 Z M 324.1 95.6 C 324.0 95.5 324.0 95.5 324.1 95.6 C 324.1 95.6 324.1 95.6 324.1 95.6 Z M 305.2 98.4 C 300.6 97.2 310.0 97.7 305.2 98.4 C 305.2 98.4 305.2 98.4 305.2 98.4 Z M 329.6 106.1 C 329.5 106.2 329.5 106.2 329.6 106.1 C 329.6 106.1 329.6 106.1 329.6 106.1 Z M 265.6 101.7 C 265.5 101.8 265.5 101.8 265.6 101.7 C 265.6 101.7 265.6 101.7 265.6 101.7 Z M 251.7 100.0 C 252.5 100.8 249.0 99.5 251.7 100.0 C 251.7 100.0 251.7 100.0 251.7 100.0 Z M 247.1 107.0 C 247.0 107.1 247.0 107.1 247.1 107.0 C 247.1 107.0 247.1 107.0 247.1 107.0 Z M 264.1 104.9 C 264.0 105.0 264.0 105.0 264.1 104.9 C 264.1 104.9 264.1 104.9 264.1 104.9 Z M 262.2 100.5 C 257.6 97.4 267.5 101.2 262.2 100.5 C 262.2 100.5 262.2 100.5 262.2 100.5 Z M 308.8 106.6 C 307.6 105.2 312.2 106.9 308.8 106.6 C 308.8 106.6 308.8 106.6 308.8 106.6 Z M 288.3 100.6 C 288.1 99.9 290.4 100.9 288.3 100.6 C 288.3 100.6 288.3 100.6 288.3 100.6 Z M 277.7 96.6 C 277.6 95.9 279.8 96.9 277.7 96.6 C 277.7 96.6 277.7 96.6 277.7 96.6 Z M 251.2 99.1 C 251.2 98.9 251.2 98.9 251.2 99.1 C 251.2 99.1 251.2 99.1 251.2 99.1 Z M 257.4 101.4 C 252.0 98.5 263.4 102.8 257.4 101.4 C 257.4 101.4 257.4 101.4 257.4 101.4 Z M 253.0 102.4 C 255.6 103.5 248.7 102.1 253.0 102.4 M 259.7 106.9 C 262.4 105.5 260.7 112.4 259.7 106.9 C 259.7 106.9 259.7 106.9 259.7 106.9 Z M 279.7 107.3 C 280.1 107.4 280.1 107.4 279.7 107.3 C 279.7 107.3 279.7 107.3 279.7 107.3 Z M 270.1 98.7 C 273.5 98.6 268.7 99.5 270.1 98.7 C 270.1 98.7 270.1 98.7 270.1 98.7 Z M 241.7 99.1 C 245.0 99.1 240.1 99.9 241.7 99.1 C 241.7 99.1 241.7 99.1 241.7 99.1 Z M 288.2 103.9 C 293.1 103.2 286.3 105.7 288.2 103.9 C 288.2 103.9 288.2 103.9 288.2 103.9 Z M 304.5 99.7 C 304.7 99.7 304.7 99.7 304.5 99.7 C 304.5 99.7 304.5 99.7 304.5 99.7 Z M 306.9 98.3 C 307.1 98.3 307.1 98.3 306.9 98.3 C 306.9 98.3 306.9 98.3 306.9 98.3 Z M 325.1 100.7 C 325.5 100.8 325.5 100.8 325.1 100.7 C 325.1 100.7 325.1 100.7 325.1 100.7 Z M 308.8 96.7 C 308.9 96.8 308.9 96.8 308.8 96.7 C 308.8 96.7 308.8 96.7 308.8 96.7 Z M 319.9 97.1 C 320.2 97.2 320.2 97.2 319.9 97.1 C 319.9 97.1 319.9 97.1 319.9 97.1 Z M 315.8 94.6 C 316.2 94.7 316.2 94.7 315.8 94.6 C 315.8 94.6 315.8 94.6 315.8 94.6 Z M 305.3 108.5 C 305.6 108.6 305.6 108.6 305.3 108.5 C 305.3 108.5 305.3 108.5 305.3 108.5 Z M 256.0 97.9 C 256.5 98.1 256.5 98.1 256.0 97.9 C 256.0 97.9 256.0 97.9 256.0 97.9 Z M 320.3 98.3 C 320.5 98.3 320.5 98.3 320.3 98.3 C 320.3 98.3 320.3 98.3 320.3 98.3 Z M 297.0 101.7 C 299.5 104.2 291.7 98.4 297.6 101.5 C 297.6 101.7 296.5 101.3 297.0 101.7 M 304.5 105.7 C 304.4 105.8 304.4 105.8 304.5 105.7 C 304.5 105.7 304.5 105.7 304.5 105.7 Z M 294.2 107.8 C 294.1 107.9 294.1 107.9 294.2 107.8 C 294.2 107.8 294.2 107.8 294.2 107.8 Z M 306.4 96.3 C 304.6 94.9 310.3 97.3 306.1 96.4 M 329.8 105.2 C 327.9 103.8 333.8 106.1 329.4 105.2 M 238.8 100.3 C 239.2 101.4 236.1 99.7 238.8 100.3 M 292.7 109.3 C 293.3 110.4 289.9 108.7 292.7 109.3 M 295.3 105.8 C 293.5 104.4 299.2 106.8 294.9 105.9 M 321.6 105.4 C 321.8 105.4 321.8 105.4 321.6 105.4 C 321.6 105.4 321.6 105.4 321.6 105.4 Z M 275.3 98.7 C 275.5 98.8 275.5 98.8 275.3 98.7 C 275.3 98.7 275.3 98.7 275.3 98.7 Z M 292.1 101.2 C 288.4 99.3 295.8 102.3 292.1 101.2 M 274.2 102.3 C 269.3 100.0 279.4 102.9 274.2 102.3 M 332.9 102.0 C 329.9 102.3 334.5 101.2 332.9 102.0 M 313.4 98.9 C 307.3 96.1 317.3 100.4 313.4 98.9 M 279.2 99.9 C 277.7 98.4 283.2 100.6 279.2 99.9 M 245.9 99.7 C 242.7 99.6 248.8 98.4 245.9 99.7 M 313.9 105.8 C 314.1 105.9 314.1 105.9 313.9 105.8 C 313.9 105.8 313.9 105.8 313.9 105.8 Z M 264.7 110.5 C 265.0 110.6 265.0 110.6 264.7 110.5 C 264.7 110.5 264.7 110.5 264.7 110.5 Z M 323.0 88.6 C 323.1 88.5 323.1 88.5 323.0 88.6 C 323.0 88.6 323.0 88.6 323.0 88.6 Z M 312.8 100.3 C 313.1 100.5 313.1 100.5 312.8 100.3 C 312.8 100.3 312.8 100.3 312.8 100.3 Z M 322.5 94.1 C 322.8 94.2 322.8 94.2 322.5 94.1 C 322.5 94.1 322.5 94.1 322.5 94.1 Z M 305.2 103.0 C 305.3 103.0 305.3 103.0 305.2 103.0 C 305.2 103.0 305.2 103.0 305.2 103.0 Z M 296.1 95.6 C 296.2 95.7 296.2 95.7 296.1 95.6 C 296.1 95.6 296.1 95.6 296.1 95.6 Z M 288.4 99.2 C 288.6 99.3 288.6 99.3 288.4 99.2 C 288.4 99.2 288.4 99.2 288.4 99.2 Z M 301.4 96.0 C 307.3 95.3 300.6 98.6 301.4 96.0 C 301.4 96.0 301.4 96.0 301.4 96.0 Z M 297.5 103.9 C 297.6 103.9 297.6 103.9 297.5 103.9 C 297.5 103.9 297.5 103.9 297.5 103.9 Z M 291.7 98.7 C 293.7 96.4 297.2 102.2 291.7 98.7 M 272.4 97.6 C 272.6 96.5 274.5 99.4 272.4 97.6 M 273.7 107.7 C 273.8 107.8 273.8 107.8 273.7 107.7 C 273.7 107.7 273.7 107.7 273.7 107.7 Z M 275.0 106.9 C 275.3 106.9 275.3 106.9 275.0 106.9 C 275.0 106.9 275.0 106.9 275.0 106.9 Z M 267.7 97.4 C 267.8 97.4 267.8 97.4 267.7 97.4 C 267.7 97.4 267.7 97.4 267.7 97.4 Z M 277.7 109.6 C 278.0 109.7 278.0 109.7 277.7 109.6 C 277.7 109.6 277.7 109.6 277.7 109.6 Z M 293.8 95.9 C 294.0 96.0 294.0 96.0 293.8 95.9 C 293.8 95.9 293.8 95.9 293.8 95.9 Z M 321.5 90.0 C 321.5 90.0 321.5 90.0 321.5 90.0 C 321.5 90.0 321.5 90.0 321.5 90.0 Z M 253.0 107.5 C 253.3 107.6 253.3 107.6 253.0 107.5 C 253.0 107.5 253.0 107.5 253.0 107.5 Z M 300.0 98.7 C 300.2 98.8 300.2 98.8 300.0 98.7 C 300.0 98.7 300.0 98.7 300.0 98.7 Z M 268.7 107.5 C 268.9 107.6 268.9 107.6 268.7 107.5 C 268.7 107.5 268.7 107.5 268.7 107.5 Z M 297.3 98.2 C 297.4 98.2 297.4 98.2 297.3 98.2 C 297.3 98.2 297.3 98.2 297.3 98.2 Z M 313.5 106.5 C 313.6 106.5 313.6 106.5 313.5 106.5 C 313.5 106.5 313.5 106.5 313.5 106.5 Z M 322.3 107.8 C 322.4 107.9 322.4 107.9 322.3 107.8 C 322.3 107.8 322.3 107.8 322.3 107.8 Z M 307.9 101.3 C 308.1 101.4 308.1 101.4 307.9 101.3 C 307.9 101.3 307.9 101.3 307.9 101.3 Z M 263.6 104.3 C 248.6 102.3 272.9 102.8 263.6 104.3 M 310.7 101.8 C 301.0 101.6 315.0 98.7 310.7 101.8 C 310.9 101.0 310.7 101.7 310.7 101.8 M 322.6 78.6 C 319.5 81.4 323.9 85.6 324.0 85.7 C 318.0 79.5 326.3 93.1 327.5 93.0 C 328.3 94.0 338.7 99.2 332.4 89.2 C 331.6 87.3 333.4 88.4 333.6 87.7 C 333.3 80.3 330.4 89.7 330.4 80.9 C 331.2 80.2 336.1 86.5 332.7 78.2 C 333.2 78.4 335.0 74.2 332.8 74.4 C 335.1 73.7 332.3 69.4 331.8 66.3 C 333.1 65.2 335.4 71.5 332.6 60.6 C 336.7 60.6 329.6 53.1 334.1 53.7 C 334.2 51.7 326.8 42.2 331.0 50.7 C 330.5 49.6 327.0 49.6 328.3 44.1 C 329.2 45.8 336.7 55.9 333.2 42.4 C 333.3 40.8 331.4 35.2 332.2 35.0 C 333.1 41.1 335.5 30.4 333.3 29.8 C 334.8 22.7 331.4 24.8 333.9 20.7 C 334.0 15.8 330.6 19.7 332.5 15.1 C 332.2 10.2 334.0 14.8 333.9 15.2 C 334.0 14.2 334.0 13.1 333.9 13.2 C 333.8 13.3 333.6 13.4 333.5 13.4 C 333.2 13.3 333.0 13.0 333.1 13.0 C 333.2 13.2 333.3 13.6 333.3 13.9 C 333.3 14.1 333.2 14.0 334.4 13.1 C 341.2 9.7 340.0 6.2 344.5 2.8 C 342.7 1.2 341.1 5.4 341.0 2.9 C 339.4 3.9 339.4 3.9 338.7 3.6 C 338.3 3.5 337.8 3.3 336.8 3.2 C 336.3 3.1 335.7 3.1 335.0 3.1 C 334.2 3.1 333.5 2.9 331.3 3.3 C 331.0 3.9 332.4 4.5 329.5 6.3 C 327.4 7.2 327.8 5.4 327.8 4.2 C 327.7 3.7 327.5 3.4 326.4 4.2 C 325.4 5.0 323.1 7.3 323.5 11.6 C 324.9 6.5 324.5 12.3 324.9 14.9 C 325.4 17.6 325.8 20.3 326.5 17.8 C 327.2 25.7 326.0 19.5 324.6 23.8 C 328.5 26.6 320.4 20.7 323.6 25.3 C 322.0 24.5 322.7 33.3 325.0 29.3 C 326.1 38.9 323.8 31.5 321.8 32.9 C 321.5 36.7 328.1 38.5 323.3 37.0 C 321.2 40.3 325.7 39.2 322.0 39.8 C 325.3 41.0 321.9 43.6 325.5 45.3 C 325.8 54.4 321.7 40.9 324.2 49.3 C 324.4 47.4 319.5 44.0 322.6 50.5 C 328.4 53.9 317.5 51.0 325.2 55.0 C 327.3 69.3 322.0 54.3 322.0 61.0 C 322.0 62.8 324.5 61.4 324.5 63.0 C 323.5 70.8 321.5 61.7 325.2 69.7 C 326.2 79.2 322.0 69.3 321.7 73.3 C 323.5 75.2 326.6 81.5 322.6 78.6 M 324.4 72.6 C 323.2 69.7 325.6 72.6 324.4 72.6 M 322.6 88.3 C 321.4 85.4 323.9 88.4 322.6 88.3 M 323.3 64.4 C 322.1 60.9 325.3 65.5 323.3 64.4 M 325.1 19.3 C 325.1 22.6 324.2 17.0 325.1 19.3 M 322.4 81.2 C 320.9 77.3 324.4 82.4 322.4 81.2 M 325.3 87.1 C 325.4 87.0 325.4 87.0 325.3 87.1 M 322.3 11.1 C 322.4 10.9 322.4 10.9 322.3 11.1 M 322.0 24.6 C 322.1 22.1 322.8 26.8 322.0 24.6 M 334.5 35.4 C 334.6 32.8 335.3 37.6 334.5 35.4 M 332.9 1.9 C 333.9 1.8 333.8 1.7 334.0 1.7 C 334.2 1.7 334.4 1.7 334.4 1.7 C 334.6 1.8 334.4 1.9 334.2 2.1 C 333.7 2.4 332.6 2.6 332.9 1.9 M 337.9 4.7 C 341.1 3.5 338.4 5.9 337.9 4.7 M 328.8 78.1 C 328.9 78.3 328.9 78.3 328.8 78.1 C 328.8 78.1 328.8 78.1 328.8 78.1 Z M 331.9 57.7 C 330.6 59.4 333.4 55.7 331.9 57.7 M 323.7 54.8 C 326.2 55.2 323.5 58.2 323.7 54.8 C 323.7 54.8 323.7 54.8 323.7 54.8 Z M 324.8 59.8 C 325.0 60.0 325.0 60.0 324.8 59.8 C 324.8 59.8 324.8 59.8 324.8 59.8 Z M 325.0 47.0 C 325.0 47.2 325.0 47.2 325.0 47.0 C 325.0 47.0 325.0 47.0 325.0 47.0 Z M 325.2 49.9 C 325.8 51.4 324.7 50.9 325.2 49.9 C 325.2 49.9 325.2 49.9 325.2 49.9 Z M 333.3 37.7 C 333.8 39.3 332.8 38.7 333.3 37.7 C 333.3 37.7 333.3 37.7 333.3 37.7 Z M 326.1 54.7 C 328.6 57.3 324.4 55.1 326.1 54.7 C 326.1 54.7 326.1 54.7 326.1 54.7 Z M 332.1 45.9 C 331.5 44.2 334.6 45.5 332.1 45.9 M 324.6 6.9 C 326.0 3.7 327.1 7.5 324.6 6.9 M 321.8 36.7 C 321.1 34.9 324.2 36.3 321.8 36.7 M 323.3 70.1 C 323.6 70.1 323.6 70.1 323.3 70.1 M 334.3 64.6 C 333.4 62.0 335.5 64.7 334.3 64.6 M 333.5 90.1 C 332.5 87.4 334.6 90.3 333.5 90.1 M 334.3 23.3 C 333.6 22.8 334.6 20.7 334.3 23.3 M 325.9 36.9 C 326.2 34.7 327.6 33.4 327.4 38.3 C 326.8 38.1 326.4 36.3 325.9 36.9 C 325.9 36.9 325.9 36.9 325.9 36.9 Z M 331.7 33.1 C 331.9 32.9 331.9 32.9 331.7 33.1 M 323.5 30.7 C 323.7 30.5 323.7 30.5 323.5 30.7 M 323.8 16.9 C 324.1 16.9 324.1 16.9 323.8 16.9 M 323.0 14.5 C 323.1 14.7 323.1 14.7 323.0 14.5 C 323.0 14.5 323.0 14.5 323.0 14.5 Z M 340.0 2.0 C 339.9 2.1 339.9 2.1 340.0 2.0 C 340.0 2.0 340.0 2.0 340.0 2.0 Z M 324.1 21.6 C 324.2 21.7 324.2 21.7 324.1 21.6 C 324.1 21.6 324.1 21.6 324.1 21.6 Z M 333.8 16.6 C 333.9 16.6 333.9 16.6 333.8 16.6 C 333.8 16.6 333.8 16.6 333.8 16.6 Z M 332.3 17.0 C 332.4 17.1 332.4 17.1 332.3 17.0 C 332.3 17.0 332.3 17.0 332.3 17.0 Z M 322.6 77.4 C 320.8 73.6 327.0 80.3 322.6 77.4 M 332.4 12.7 C 333.9 13.6 332.4 13.4 332.4 12.7 C 332.4 12.7 332.4 12.7 332.4 12.7 Z M 326.2 25.0 C 326.6 25.1 326.6 25.1 326.2 25.0 M 323.3 13.8 C 323.6 13.9 323.6 13.9 323.3 13.8 M 321.4 52.9 C 321.7 52.9 321.7 52.9 321.4 52.9 M 334.9 3.8 C 341.0 4.4 329.1 7.4 334.9 3.8 M 323.8 58.0 C 323.6 57.9 323.6 57.9 323.8 58.0 M 328.5 47.3 C 328.4 42.8 329.9 50.1 328.5 47.3 M 325.3 33.4 C 325.4 33.6 325.4 33.6 325.3 33.4 C 325.3 33.4 325.3 33.4 325.3 33.4 Z M 325.3 39.9 C 325.7 43.4 324.6 40.1 325.3 39.9 C 325.3 39.9 325.3 39.9 325.3 39.9 Z M 324.9 76.5 C 325.3 72.7 325.8 81.5 324.9 76.5 C 324.9 76.5 324.9 76.5 324.9 76.5 Z M 330.0 11.7 C 330.1 12.0 330.1 12.0 330.0 11.7 C 330.0 11.7 330.0 11.7 330.0 11.7 Z M 322.3 20.9 C 323.0 23.4 321.6 21.2 322.3 20.9 C 322.3 20.9 322.3 20.9 322.3 20.9 Z M 342.2 2.0 C 339.8 2.7 342.0 1.3 342.2 2.0 C 342.2 2.0 342.2 2.0 342.2 2.0 Z M 324.5 81.0 C 328.7 69.6 323.4 100.3 324.5 81.0 C 324.5 81.0 324.5 81.0 324.5 81.0 Z M 323.6 35.9 C 323.7 36.1 323.7 36.1 323.6 35.9 C 323.6 35.9 323.6 35.9 323.6 35.9 Z M 321.8 62.2 C 322.0 62.5 322.0 62.5 321.8 62.2 C 321.8 62.2 321.8 62.2 321.8 62.2 Z M 324.2 69.1 C 324.3 69.3 324.3 69.3 324.2 69.1 C 324.2 69.1 324.2 69.1 324.2 69.1 Z M 334.1 76.7 C 334.2 76.9 334.2 76.9 334.1 76.7 C 334.1 76.7 334.1 76.7 334.1 76.7 Z M 329.5 71.0 C 329.9 71.5 329.9 71.5 329.5 71.0 C 329.5 71.0 329.5 71.0 329.5 71.0 Z M 331.3 82.4 C 331.4 82.7 331.4 82.7 331.3 82.4 C 331.3 82.4 331.3 82.4 331.3 82.4 Z M 332.6 83.5 C 332.7 83.6 332.7 83.6 332.6 83.5 C 332.6 83.5 332.6 83.5 332.6 83.5 Z M 326.1 16.1 C 326.3 16.4 326.3 16.4 326.1 16.1 C 326.1 16.1 326.1 16.1 326.1 16.1 Z M 330.2 24.7 C 328.7 19.9 332.4 27.5 330.2 24.7 C 330.2 24.7 330.2 24.7 330.2 24.7 Z M 328.2 54.6 C 327.7 50.8 329.5 57.8 328.2 54.6 C 328.2 54.6 328.2 54.6 328.2 54.6 Z M 333.6 55.7 C 333.6 55.7 333.6 55.7 333.6 55.7 C 333.6 55.7 333.6 55.7 333.6 55.7 Z M 321.7 66.9 C 322.0 67.3 322.0 67.3 321.7 66.9 C 321.7 66.9 321.7 66.9 321.7 66.9 Z M 323.5 74.4 C 325.6 76.6 322.4 75.3 323.5 74.4 M 322.2 43.4 C 322.5 43.6 322.5 43.6 322.2 43.4 C 322.2 43.4 322.2 43.4 322.2 43.4 Z M 325.5 27.1 C 325.7 27.3 325.7 27.3 325.5 27.1 C 325.5 27.1 325.5 27.1 325.5 27.1 Z M 329.7 4.9 C 329.3 5.4 329.3 5.4 329.7 4.9 C 329.7 4.9 329.7 4.9 329.7 4.9 Z M 322.5 31.8 C 322.8 32.2 322.8 32.2 322.5 31.8 C 322.5 31.8 322.5 31.8 322.5 31.8 Z M 324.4 42.4 C 324.7 42.8 324.7 42.8 324.4 42.4 C 324.4 42.4 324.4 42.4 324.4 42.4 Z M 333.0 7.2 C 332.7 7.3 332.7 7.3 333.0 7.2 C 333.0 7.2 333.0 7.2 333.0 7.2 Z M 322.2 29.5 C 322.3 29.6 322.3 29.6 322.2 29.5 C 322.2 29.5 322.2 29.5 322.2 29.5 Z M 328.9 29.5 C 329.0 29.8 329.0 29.8 328.9 29.5 C 328.9 29.5 328.9 29.5 328.9 29.5 Z M 320.5 70.8 C 320.6 71.0 320.6 71.0 320.5 70.8 C 320.5 70.8 320.5 70.8 320.5 70.8 Z M 335.4 4.4 C 335.2 4.5 335.2 4.5 335.4 4.4 C 335.4 4.4 335.4 4.4 335.4 4.4 Z M 338.0 2.5 C 337.8 2.6 337.8 2.6 338.0 2.5 C 338.0 2.5 338.0 2.5 338.0 2.5 Z M 332.4 21.7 C 331.3 27.5 332.0 15.2 329.7 18.3 C 329.1 8.3 332.5 20.3 332.4 21.7 C 332.4 21.7 332.4 21.7 332.4 21.7 Z M 347.5 1.7 C 341.6 4.5 339.5 7.3 338.9 10.2 C 339.6 11.7 343.9 6.0 340.3 10.8 C 335.4 11.7 336.8 18.0 341.3 11.8 C 347.6 10.9 339.3 15.7 344.5 13.3 C 351.0 12.7 346.5 14.6 351.5 14.1 C 356.7 10.8 353.0 15.8 356.5 12.6 C 351.7 16.1 362.2 11.6 361.2 13.2 C 355.4 15.4 377.3 13.2 366.9 12.2 C 372.6 10.6 369.7 13.5 371.0 13.9 C 374.4 11.9 377.3 15.5 381.5 13.5 C 381.3 13.0 379.9 12.9 380.0 12.2 C 380.1 10.9 382.9 12.5 382.6 12.4 C 384.9 11.7 393.6 9.5 383.4 13.2 C 381.9 14.9 390.2 12.4 389.0 13.9 C 395.8 14.0 392.9 10.6 394.3 13.1 C 399.0 13.2 402.5 13.2 402.8 12.8 C 405.5 13.2 404.8 15.1 408.7 13.2 C 412.3 16.9 417.2 6.2 415.0 13.3 C 417.7 11.6 416.5 16.3 419.0 11.9 C 415.7 13.9 427.0 15.4 423.7 12.1 C 425.7 11.1 430.0 16.7 431.5 12.2 C 436.2 8.9 437.6 5.6 433.6 2.4 C 432.7 5.0 429.1 -0.2 430.8 4.2 C 434.9 5.7 420.6 5.7 424.6 4.2 C 428.5 -1.1 415.7 7.4 415.0 3.7 C 416.2 5.8 403.9 6.8 409.8 2.9 C 407.9 2.5 406.2 4.4 405.3 2.1 C 412.0 2.5 400.0 6.3 402.0 3.8 C 404.1 2.4 394.6 1.2 394.2 3.4 C 394.2 8.9 392.2 2.3 389.0 4.4 C 382.6 5.6 393.1 -0.2 386.1 3.8 C 385.5 3.1 377.9 3.1 383.5 2.0 C 384.9 2.5 374.8 7.9 377.3 3.3 C 387.1 0.7 369.0 1.8 370.7 3.3 C 381.4 5.8 355.4 6.2 367.0 3.6 C 363.3 1.1 369.4 2.6 361.7 3.7 C 361.6 5.2 355.2 6.6 358.6 3.7 C 360.8 -0.8 352.4 9.5 352.6 3.5 C 353.9 0.9 342.8 5.4 348.0 2.5 C 348.4 2.2 347.7 1.7 347.5 1.7 M 349.5 2.2 C 347.9 3.2 349.0 1.0 349.5 2.2 M 347.8 3.2 C 347.8 3.1 347.8 3.1 347.8 3.2 C 347.8 3.2 347.8 3.2 347.8 3.2 Z M 360.6 3.9 C 360.6 3.7 360.6 3.7 360.6 3.9 C 360.6 3.9 360.6 3.9 360.6 3.9 Z M 363.2 15.0 C 363.2 14.8 363.2 14.8 363.2 15.0 C 363.2 15.0 363.2 15.0 363.2 15.0 Z M 369.3 4.1 C 369.2 4.1 369.2 4.1 369.3 4.1 C 369.3 4.1 369.3 4.1 369.3 4.1 Z M 355.3 4.6 C 355.2 4.6 355.2 4.6 355.3 4.6 C 355.3 4.6 355.3 4.6 355.3 4.6 Z M 369.6 2.5 C 369.1 4.2 367.4 1.3 369.9 2.3 C 370.0 2.4 369.4 2.4 369.6 2.5 M 381.6 1.8 C 381.5 2.0 381.5 2.0 381.6 1.8 M 398.6 14.8 C 398.5 15.0 398.5 15.0 398.6 14.8 M 409.1 1.7 C 409.3 1.9 409.3 1.9 409.1 1.7 M 391.9 3.5 C 395.6 3.3 392.2 4.4 391.9 3.5 M 417.8 2.7 C 414.1 1.6 423.1 1.8 417.8 2.7 M 422.7 1.7 C 423.0 1.8 423.0 1.8 422.7 1.7 M 402.4 2.3 C 402.2 2.4 402.2 2.4 402.4 2.3 C 402.4 2.3 402.4 2.3 402.4 2.3 Z M 390.9 2.9 C 386.9 2.0 396.6 1.3 390.9 2.9 M 363.3 2.3 C 366.4 1.5 361.7 4.4 363.3 2.3 M 357.4 3.2 C 357.3 3.3 357.3 3.3 357.4 3.2 C 357.4 3.2 357.4 3.2 357.4 3.2 Z M 410.8 2.6 C 410.6 2.6 410.6 2.6 410.8 2.6 C 410.8 2.6 410.8 2.6 410.8 2.6 Z M 416.1 2.3 C 415.9 2.3 415.9 2.3 416.1 2.3 C 416.1 2.3 416.1 2.3 416.1 2.3 Z M 417.1 14.4 C 417.0 14.5 417.0 14.5 417.1 14.4 C 417.1 14.4 417.1 14.4 417.1 14.4 Z M 357.6 8.3 C 354.8 7.4 364.0 4.3 361.2 7.3 C 360.6 8.5 358.2 8.0 357.6 8.3 M 385.0 6.5 C 383.1 10.7 385.5 0.9 385.0 6.5 M 421.7 4.4 C 422.2 9.3 419.5 0.9 421.7 4.4 M 429.2 3.6 C 430.7 4.5 415.9 4.1 427.2 2.8 C 428.7 2.0 428.8 3.0 429.2 3.6 M 380.4 3.9 C 379.8 6.2 375.6 2.9 380.4 3.9 M 397.2 10.7 C 399.8 9.3 405.1 8.0 401.5 10.5 C 399.4 13.7 394.3 12.0 397.2 10.7 M 348.8 4.6 C 354.4 0.9 346.4 7.7 348.8 4.6 M 362.1 4.9 C 362.2 4.7 362.2 4.7 362.1 4.9 C 362.1 4.9 362.1 4.9 362.1 4.9 Z M 367.8 4.3 C 367.8 4.6 367.8 4.6 367.8 4.3 M 353.4 1.4 C 353.4 1.6 353.4 1.6 353.4 1.4 M 399.5 6.9 C 399.6 7.2 399.6 7.2 399.5 6.9 M 390.3 4.5 C 393.0 8.1 387.0 5.2 390.3 4.5 M 372.7 11.5 C 373.1 13.2 369.3 11.6 372.7 11.5 M 399.7 3.1 C 401.1 6.5 392.5 6.4 399.7 3.1 M 387.9 4.1 C 388.2 4.1 388.2 4.1 387.9 4.1 C 387.9 4.1 387.9 4.1 387.9 4.1 Z M 398.3 11.1 C 398.1 11.2 398.1 11.2 398.3 11.1 C 398.3 11.1 398.3 11.1 398.3 11.1 Z M 400.0 10.9 C 399.8 11.0 399.8 11.0 400.0 10.9 C 400.0 10.9 400.0 10.9 400.0 10.9 Z M 404.4 2.7 C 404.2 2.8 404.2 2.8 404.4 2.7 C 404.4 2.7 404.4 2.7 404.4 2.7 Z M 350.0 12.7 C 353.6 13.0 346.7 13.2 350.0 12.7 C 350.0 12.7 350.0 12.7 350.0 12.7 Z M 373.8 2.6 C 377.9 5.3 367.7 5.1 373.8 2.6 C 373.8 2.6 373.8 2.6 373.8 2.6 Z M 377.5 7.0 C 377.4 7.2 377.4 7.2 377.5 7.0 C 377.5 7.0 377.5 7.0 377.5 7.0 Z M 398.7 1.0 C 398.6 1.2 398.6 1.2 398.7 1.0 C 398.7 1.0 398.7 1.0 398.7 1.0 Z M 351.6 13.2 C 351.4 13.4 351.4 13.4 351.6 13.2 C 351.6 13.2 351.6 13.2 351.6 13.2 Z M 413.7 4.6 C 413.6 4.8 413.6 4.8 413.7 4.6 C 413.7 4.6 413.7 4.6 413.7 4.6 Z M 387.8 11.6 C 390.1 10.3 387.4 12.7 387.8 11.6 C 387.8 11.6 387.8 11.6 387.8 11.6 Z M 393.4 11.7 C 393.5 11.7 393.5 11.7 393.4 11.7 C 393.4 11.7 393.4 11.7 393.4 11.7 Z M 424.3 1.4 C 424.4 1.4 424.4 1.4 424.3 1.4 C 424.3 1.4 424.3 1.4 424.3 1.4 Z M 405.5 14.9 C 405.7 14.9 405.7 14.9 405.5 14.9 C 405.5 14.9 405.5 14.9 405.5 14.9 Z M 412.7 10.9 C 412.6 10.9 412.6 10.9 412.7 10.9 C 412.7 10.9 412.7 10.9 412.7 10.9 Z M 402.9 3.6 C 408.8 2.9 400.7 5.1 402.9 3.6 C 402.9 3.6 402.9 3.6 402.9 3.6 Z M 427.1 9.8 C 427.2 10.0 427.2 10.0 427.1 9.8 C 427.1 9.8 427.1 9.8 427.1 9.8 Z M 432.7 5.1 C 432.8 5.3 432.8 5.3 432.7 5.1 C 432.7 5.1 432.7 5.1 432.7 5.1 Z M 435.6 2.6 C 435.6 2.8 435.6 2.8 435.6 2.6 C 435.6 2.6 435.6 2.6 435.6 2.6 Z M 364.1 9.4 C 364.1 9.2 364.1 9.2 364.1 9.4 C 364.1 9.4 364.1 9.4 364.1 9.4 Z M 367.4 1.7 C 367.4 1.6 367.4 1.6 367.4 1.7 C 367.4 1.7 367.4 1.7 367.4 1.7 Z M 375.1 1.4 C 375.1 1.3 375.1 1.3 375.1 1.4 C 375.1 1.4 375.1 1.4 375.1 1.4 Z M 359.4 14.0 C 359.4 13.9 359.4 13.9 359.4 14.0 C 359.4 14.0 359.4 14.0 359.4 14.0 Z M 392.1 7.5 C 392.1 7.4 392.1 7.4 392.1 7.5 C 392.1 7.5 392.1 7.5 392.1 7.5 Z M 392.7 10.6 C 392.7 10.4 392.7 10.4 392.7 10.6 C 392.7 10.6 392.7 10.6 392.7 10.6 Z M 383.4 14.7 C 383.4 14.6 383.4 14.6 383.4 14.7 C 383.4 14.7 383.4 14.7 383.4 14.7 Z M 393.0 13.3 C 393.0 13.2 393.0 13.2 393.0 13.3 C 393.0 13.3 393.0 13.3 393.0 13.3 Z M 341.4 12.6 C 341.4 12.7 341.4 12.7 341.4 12.6 C 341.4 12.6 341.4 12.6 341.4 12.6 Z M 345.3 6.7 C 345.0 6.9 345.0 6.9 345.3 6.7 C 345.3 6.7 345.3 6.7 345.3 6.7 Z M 395.8 3.2 C 397.9 2.0 397.2 4.9 395.8 3.2 M 384.7 4.0 C 384.6 4.1 384.6 4.1 384.7 4.0 C 384.7 4.0 384.7 4.0 384.7 4.0 Z M 413.5 3.4 C 413.4 5.8 409.3 2.3 413.5 3.4 C 413.5 3.4 413.5 3.4 413.5 3.4 Z M 401.6 13.3 C 401.7 13.3 401.7 13.3 401.6 13.3 C 401.6 13.3 401.6 13.3 401.6 13.3 Z M 405.1 12.3 C 405.1 12.5 405.1 12.5 405.1 12.3 C 405.1 12.3 405.1 12.3 405.1 12.3 Z M 424.5 5.9 C 424.6 6.2 424.6 6.2 424.5 5.9 M 384.8 1.9 C 385.6 2.9 385.5 2.7 384.8 1.9 M 417.0 3.5 C 416.8 3.6 416.8 3.6 417.0 3.5 C 417.0 3.5 417.0 3.5 417.0 3.5 Z M 428.7 4.6 C 428.5 4.7 428.5 4.7 428.7 4.6 C 428.7 4.6 428.7 4.6 428.7 4.6 Z M 376.2 3.5 C 374.4 6.3 373.4 5.6 376.2 3.5 M 354.4 4.4 C 354.3 4.6 354.3 4.6 354.4 4.4 C 354.4 4.4 354.4 4.4 354.4 4.4 Z M 446.7 2.6 C 442.7 -0.5 440.2 3.9 440.1 4.0 C 444.2 -1.9 433.6 6.4 434.1 7.5 C 433.4 8.3 431.9 18.7 439.6 12.4 C 441.2 11.6 440.8 13.5 441.5 13.6 C 448.8 13.4 438.4 10.4 447.1 10.4 C 448.2 11.2 443.6 16.2 450.7 12.7 C 450.6 13.2 455.5 15.1 454.5 12.8 C 456.1 15.1 459.4 12.3 462.2 11.8 C 463.1 12.5 462.1 13.3 462.2 13.7 C 462.2 13.9 462.5 14.0 463.4 13.8 C 464.3 13.7 463.5 13.1 464.2 12.8 C 462.6 14.2 463.0 12.1 463.7 13.6 C 464.4 15.2 465.0 16.6 462.8 17.1 C 462.7 19.2 470.1 26.1 465.9 19.1 C 466.3 20.0 469.9 18.8 468.6 24.7 C 467.7 23.3 460.1 15.9 463.7 28.2 C 463.5 29.8 465.5 34.7 464.7 35.2 C 463.8 29.5 461.3 41.0 463.6 40.8 C 462.1 48.5 465.5 45.2 463.0 50.1 C 462.9 55.0 466.3 49.9 464.3 55.2 C 464.7 60.0 462.9 56.1 463.0 55.7 C 462.6 59.5 464.0 61.6 463.9 62.9 C 463.5 63.6 462.0 64.8 463.8 66.6 C 467.2 72.2 470.7 69.7 474.1 73.0 C 475.7 70.6 471.5 70.5 474.0 69.5 C 471.9 67.1 474.2 69.3 473.7 60.8 C 473.2 60.8 471.7 62.2 471.5 60.1 C 471.8 57.0 477.6 61.8 473.5 54.7 C 472.3 60.4 471.6 45.0 470.4 50.3 C 469.7 42.7 470.9 48.4 472.3 43.7 C 468.4 42.2 476.4 45.2 473.3 41.8 C 474.9 42.1 474.2 33.4 471.8 38.3 C 470.8 29.1 473.0 35.7 475.1 33.6 C 475.3 29.7 468.8 30.2 473.5 30.0 C 475.7 25.9 471.2 28.7 474.9 26.7 C 471.6 26.8 474.9 22.9 471.3 22.6 C 471.0 13.5 475.2 25.6 472.6 18.1 C 472.5 19.9 477.4 21.7 474.2 16.2 C 468.5 15.0 479.4 13.7 471.7 12.4 C 471.2 9.7 469.7 8.3 468.6 7.5 C 467.5 6.6 466.7 6.3 466.1 6.0 C 465.1 5.4 465.3 5.1 466.1 4.7 C 466.8 4.4 468.1 4.3 468.5 4.0 C 468.8 3.6 468.3 2.3 464.4 2.0 C 462.4 1.9 463.3 2.6 463.4 3.3 C 463.6 3.9 463.8 4.5 463.0 4.6 C 454.8 3.5 463.1 1.5 456.5 5.2 C 447.3 6.2 455.8 2.0 451.7 1.8 C 450.4 3.6 445.2 6.6 446.7 2.6 M 453.3 4.4 C 455.8 3.2 453.8 5.6 453.3 4.4 M 437.0 2.6 C 439.5 1.5 437.3 3.9 437.0 2.6 M 461.1 3.3 C 464.2 2.1 460.8 5.3 461.1 3.3 M 471.7 48.4 C 471.7 45.1 472.7 50.3 471.7 48.4 M 444.0 2.4 C 447.4 1.0 443.5 4.5 444.0 2.4 M 439.2 5.4 C 439.3 5.4 439.3 5.4 439.2 5.4 M 474.8 54.3 C 474.8 54.5 474.8 54.5 474.8 54.3 M 474.9 41.9 C 474.8 44.5 474.1 40.1 474.9 41.9 M 462.3 35.6 C 462.2 38.3 461.5 33.7 462.3 35.6 M 475.0 61.2 C 475.9 64.3 473.6 61.4 475.0 61.2 M 472.2 67.0 C 473.4 69.8 471.0 68.0 472.2 67.0 M 449.4 8.8 C 449.2 8.9 449.2 8.9 449.4 8.8 C 449.4 8.8 449.4 8.8 449.4 8.8 Z M 465.0 12.9 C 466.1 12.2 463.5 13.8 465.0 12.9 M 473.1 11.6 C 471.9 12.3 471.7 10.8 471.7 9.9 C 471.7 9.0 472.6 8.3 473.1 11.6 C 473.1 11.6 473.1 11.6 473.1 11.6 Z M 467.8 5.9 C 467.5 5.9 467.5 5.9 467.8 5.9 C 467.8 5.9 467.8 5.9 467.8 5.9 Z M 471.9 20.6 C 471.9 20.5 471.9 20.5 471.9 20.6 C 471.9 20.6 471.9 20.6 471.9 20.6 Z M 471.7 17.8 C 471.1 16.5 472.2 16.6 471.7 17.8 C 471.7 17.8 471.7 17.8 471.7 17.8 Z M 463.6 32.9 C 463.0 31.5 464.1 31.7 463.6 32.9 C 463.6 32.9 463.6 32.9 463.6 32.9 Z M 470.8 13.3 C 469.5 12.5 469.8 12.0 470.4 12.0 C 470.9 12.0 471.6 12.8 470.8 13.3 C 470.8 13.3 470.8 13.3 470.8 13.3 Z M 464.7 24.3 C 465.4 25.8 462.3 25.6 464.7 24.3 M 474.4 56.7 C 475.0 58.2 471.9 58.1 474.4 56.7 M 475.1 29.8 C 475.8 31.3 472.7 31.0 475.1 29.8 M 455.4 3.3 C 455.6 3.6 455.6 3.6 455.4 3.3 M 463.5 14.3 C 463.1 13.3 463.1 15.4 463.5 14.3 M 439.1 13.5 C 441.4 12.6 439.3 14.7 439.1 13.5 M 462.6 47.7 C 463.3 47.9 462.3 50.4 462.6 47.7 M 471.0 31.0 C 470.7 33.3 469.3 35.1 469.5 30.1 C 470.1 30.1 470.4 31.8 471.0 31.0 C 471.0 31.0 471.0 31.0 471.0 31.0 Z M 465.2 37.0 C 465.0 37.2 465.0 37.2 465.2 37.0 M 473.4 36.4 C 473.1 36.7 473.1 36.7 473.4 36.4 M 473.1 50.3 C 472.7 50.5 472.7 50.5 473.1 50.3 M 473.8 52.4 C 473.7 52.3 473.7 52.3 473.8 52.4 C 473.8 52.4 473.8 52.4 473.8 52.4 Z M 474.9 68.2 C 474.8 68.1 474.8 68.1 474.9 68.2 C 474.9 68.2 474.9 68.2 474.9 68.2 Z M 472.8 45.7 C 472.7 45.6 472.7 45.6 472.8 45.7 C 472.8 45.7 472.8 45.7 472.8 45.7 Z M 463.1 54.2 C 463.0 54.2 463.0 54.2 463.1 54.2 C 463.1 54.2 463.1 54.2 463.1 54.2 Z M 464.6 53.2 C 464.5 53.2 464.5 53.2 464.6 53.2 C 464.6 53.2 464.6 53.2 464.6 53.2 Z M 447.9 2.6 C 451.0 0.8 446.5 7.0 447.9 2.6 M 464.6 60.2 C 462.8 61.5 464.2 56.4 464.6 60.2 C 464.6 60.2 464.6 60.2 464.6 60.2 Z M 470.7 43.1 C 470.3 43.1 470.3 43.1 470.7 43.1 M 473.6 53.2 C 473.3 53.2 473.3 53.2 473.6 53.2 M 475.5 13.5 C 475.2 13.5 475.2 13.5 475.5 13.5 M 473.1 63.7 C 472.5 70.0 469.5 59.2 473.1 63.7 M 470.4 6.5 C 470.5 6.3 470.5 6.3 470.4 6.5 M 468.4 21.5 C 468.5 26.0 466.9 19.3 468.4 21.5 M 471.6 34.3 C 471.4 34.1 471.4 34.1 471.6 34.3 C 471.6 34.3 471.6 34.3 471.6 34.3 Z M 471.6 27.8 C 471.2 24.4 472.3 27.3 471.6 27.8 C 471.6 27.8 471.6 27.8 471.6 27.8 Z M 449.7 4.9 C 453.6 5.3 444.9 5.8 449.7 4.9 C 449.7 4.9 449.7 4.9 449.7 4.9 Z M 467.2 58.2 C 467.0 58.0 467.0 58.0 467.2 58.2 C 467.2 58.2 467.2 58.2 467.2 58.2 Z M 474.6 45.7 C 473.9 43.5 475.3 45.2 474.6 45.7 C 474.6 45.7 474.6 45.7 474.6 45.7 Z M 474.9 70.4 C 474.2 68.3 475.6 69.9 474.9 70.4 C 474.9 70.4 474.9 70.4 474.9 70.4 Z M 444.9 4.5 C 457.8 8.7 425.3 3.4 444.9 4.5 C 444.9 4.5 444.9 4.5 444.9 4.5 Z M 473.3 31.2 C 473.1 31.1 473.1 31.1 473.3 31.2 C 473.3 31.2 473.3 31.2 473.3 31.2 Z M 462.7 1.8 C 462.6 2.0 462.6 2.0 462.7 1.8 C 462.7 1.8 462.7 1.8 462.7 1.8 Z M 456.7 4.2 C 456.6 4.3 456.6 4.3 456.7 4.2 C 456.7 4.2 456.7 4.2 456.7 4.2 Z M 452.7 14.1 C 452.5 14.2 452.5 14.2 452.7 14.1 C 452.7 14.1 452.7 14.1 452.7 14.1 Z M 456.8 9.6 C 456.4 9.9 456.4 9.9 456.8 9.6 C 456.8 9.6 456.8 9.6 456.8 9.6 Z M 446.0 11.3 C 445.7 11.5 445.7 11.5 446.0 11.3 C 446.0 11.3 446.0 11.3 446.0 11.3 Z M 445.4 12.6 C 445.3 12.7 445.3 12.7 445.4 12.6 C 445.4 12.6 445.4 12.6 445.4 12.6 Z M 470.8 51.9 C 470.6 51.7 470.6 51.7 470.8 51.9 C 470.8 51.9 470.8 51.9 470.8 51.9 Z M 466.6 44.8 C 468.1 49.0 464.5 42.8 466.6 44.8 C 466.6 44.8 466.6 44.8 466.6 44.8 Z M 468.7 14.2 C 469.2 17.7 467.4 11.4 468.7 14.2 C 468.7 14.2 468.7 14.2 468.7 14.2 Z M 463.3 15.0 C 463.2 15.0 463.2 15.0 463.3 15.0 C 463.3 15.0 463.3 15.0 463.3 15.0 Z M 458.1 1.8 C 457.8 2.0 457.8 2.0 458.1 1.8 C 458.1 1.8 458.1 1.8 458.1 1.8 Z M 451.2 3.5 C 449.8 5.6 449.9 2.4 451.2 3.5 M 474.6 23.3 C 474.4 23.1 474.4 23.1 474.6 23.3 C 474.6 23.3 474.6 23.3 474.6 23.3 Z M 471.4 40.7 C 471.2 40.5 471.2 40.5 471.4 40.7 C 471.4 40.7 471.4 40.7 471.4 40.7 Z M 472.7 60.1 C 472.4 59.9 472.4 59.9 472.7 60.1 C 472.7 60.1 472.7 60.1 472.7 60.1 Z M 474.4 34.9 C 474.1 34.7 474.1 34.7 474.4 34.9 C 474.4 34.9 474.4 34.9 474.4 34.9 Z M 472.4 25.0 C 472.2 24.8 472.2 24.8 472.4 25.0 C 472.4 25.0 472.4 25.0 472.4 25.0 Z M 469.7 63.1 C 469.6 62.8 469.6 62.8 469.7 63.1 C 469.7 63.1 469.7 63.1 469.7 63.1 Z M 474.7 37.1 C 474.6 37.0 474.6 37.0 474.7 37.1 C 474.7 37.1 474.7 37.1 474.7 37.1 Z M 468.0 39.5 C 467.8 39.3 467.8 39.3 468.0 39.5 C 468.0 39.5 468.0 39.5 468.0 39.5 Z M 453.7 0.5 C 453.6 0.6 453.6 0.6 453.7 0.5 C 453.7 0.5 453.7 0.5 453.7 0.5 Z M 472.5 64.4 C 472.4 64.3 472.4 64.3 472.5 64.4 C 472.5 64.4 472.5 64.4 472.5 64.4 Z M 474.4 66.3 C 474.3 66.2 474.3 66.2 474.4 66.3 C 474.4 66.3 474.4 66.3 474.4 66.3 Z M 464.4 48.6 C 465.6 42.4 464.9 54.9 467.2 51.0 C 467.7 60.9 464.3 50.0 464.4 48.6 C 464.4 48.6 464.4 48.6 464.4 48.6 Z M 475.2 75.5 C 472.4 70.7 469.6 69.6 466.7 70.0 C 465.2 71.3 470.9 73.5 466.1 71.7 C 465.2 67.0 458.9 70.7 465.1 73.0 C 466.0 79.0 461.2 72.4 463.6 76.8 C 464.2 83.0 462.3 79.2 462.8 84.0 C 466.1 88.0 461.1 86.1 464.3 88.5 C 460.8 84.9 465.3 93.8 463.7 93.4 C 461.5 88.4 463.7 109.5 464.7 98.8 C 466.3 103.9 463.4 102.0 463.0 103.4 C 465.0 106.1 461.4 110.4 463.4 113.8 C 463.9 113.4 464.0 112.0 464.7 111.9 C 466.0 111.5 464.4 114.9 464.5 114.5 C 465.2 116.6 467.3 124.5 463.7 115.6 C 462.0 114.7 464.5 122.2 463.0 121.5 C 462.9 128.3 466.3 124.2 463.8 126.4 C 463.7 131.2 463.7 134.7 464.1 134.8 C 463.7 137.6 461.8 137.7 463.7 140.9 C 462.8 142.1 462.7 143.8 463.1 143.8 C 463.5 143.7 464.3 143.9 464.8 144.2 C 466.0 144.9 466.4 145.9 463.6 143.6 C 464.3 144.2 463.7 143.7 463.5 143.3 C 463.4 142.9 463.7 142.8 464.0 145.0 C 464.1 144.5 463.8 144.0 463.7 143.7 C 463.7 143.3 462.7 143.0 461.6 142.9 C 459.6 142.7 457.7 143.2 460.0 144.8 C 458.3 145.9 452.0 140.2 452.1 144.7 C 448.6 148.0 448.4 151.3 453.5 154.5 C 453.4 151.9 459.0 157.2 455.7 152.8 C 451.0 151.3 465.3 151.2 461.9 152.8 C 461.4 154.1 461.6 154.5 462.3 154.5 C 462.6 154.5 463.0 154.4 463.5 154.2 C 464.1 154.1 465.6 153.7 466.7 153.1 C 468.8 151.9 470.3 149.9 471.1 148.2 C 471.9 146.4 472.3 144.8 473.2 143.9 C 472.7 144.8 472.2 143.9 471.9 143.1 C 471.6 142.3 471.4 141.2 471.4 140.1 C 471.3 137.9 472.1 136.0 474.0 138.3 C 474.3 136.2 472.5 135.2 474.8 133.5 C 474.4 140.3 470.6 129.7 473.1 130.8 C 474.5 132.4 475.7 122.5 473.5 122.9 C 468.0 124.8 474.6 120.5 472.5 118.1 C 471.3 112.0 477.1 120.4 473.1 114.9 C 473.8 114.0 473.8 106.5 474.9 111.6 C 474.4 113.3 469.0 105.1 473.6 105.9 C 476.2 114.8 475.1 97.1 473.6 99.3 C 471.1 111.0 470.7 85.1 473.3 95.8 C 475.8 91.2 474.3 97.8 473.2 90.5 C 471.7 90.9 470.3 85.0 473.2 87.4 C 477.7 87.9 467.4 83.3 473.4 81.3 C 476.0 81.7 471.5 72.2 474.4 76.4 C 474.7 76.7 475.2 75.8 475.2 75.5 M 474.6 77.8 C 473.7 76.5 475.9 76.8 474.6 77.8 M 473.7 76.4 C 473.8 76.4 473.8 76.4 473.7 76.4 C 473.7 76.4 473.7 76.4 473.7 76.4 Z M 473.0 89.4 C 473.2 89.4 473.2 89.4 473.0 89.4 C 473.0 89.4 473.0 89.4 473.0 89.4 Z M 461.9 96.1 C 462.1 96.0 462.1 96.0 461.9 96.1 C 461.9 96.1 461.9 96.1 461.9 96.1 Z M 472.8 98.2 C 472.8 98.1 472.8 98.1 472.8 98.2 C 472.8 98.2 472.8 98.2 472.8 98.2 Z M 472.3 84.4 C 472.3 84.3 472.3 84.3 472.3 84.4 C 472.3 84.4 472.3 84.4 472.3 84.4 Z M 474.4 98.0 C 472.7 98.1 475.6 95.3 474.6 98.2 C 474.5 98.3 474.5 97.7 474.4 98.0 M 475.0 109.7 C 474.8 109.7 474.8 109.7 475.0 109.7 M 462.0 131.4 C 461.9 131.4 461.9 131.4 462.0 131.4 M 475.2 137.2 C 475.0 137.4 475.0 137.4 475.2 137.2 M 473.4 120.6 C 473.6 124.3 472.5 121.3 473.4 120.6 M 473.0 148.7 C 477.9 141.8 468.9 158.2 473.0 148.7 M 465.8 155.0 C 465.0 155.0 465.0 155.0 465.8 155.0 M 474.6 130.6 C 474.4 130.5 474.4 130.5 474.6 130.6 C 474.6 130.6 474.6 130.6 474.6 130.6 Z M 474.0 119.4 C 474.9 115.0 475.6 124.5 474.0 119.4 M 474.6 91.6 C 475.4 94.4 472.5 90.8 474.6 91.6 M 473.7 86.0 C 473.6 85.9 473.6 85.9 473.7 86.0 C 473.7 86.0 473.7 86.0 473.7 86.0 Z M 474.3 139.2 C 474.3 139.0 474.3 139.0 474.3 139.2 C 474.3 139.2 474.3 139.2 474.3 139.2 Z M 474.5 145.0 C 474.6 144.6 474.6 144.6 474.5 145.0 C 474.5 145.0 474.5 145.0 474.5 145.0 Z M 463.3 142.6 C 463.2 142.6 463.2 142.6 463.3 142.6 C 463.3 142.6 463.3 142.6 463.3 142.6 Z M 468.6 88.0 C 469.5 84.9 472.6 93.0 469.6 91.2 C 468.4 91.2 468.9 88.5 468.6 88.0 M 470.4 114.8 C 466.2 114.4 476.0 113.2 470.4 114.8 M 465.4 152.3 C 460.6 148.3 472.1 154.6 465.4 152.3 M 457.5 153.4 C 455.7 152.4 470.6 152.8 459.8 154.1 C 458.6 154.9 458.1 153.9 457.5 153.4 M 473.0 109.2 C 470.7 109.4 474.0 104.1 473.0 109.2 M 466.2 128.5 C 467.6 130.6 468.9 135.4 466.4 132.7 C 463.2 131.8 464.9 126.0 466.2 128.5 M 472.3 77.9 C 476.0 82.2 469.2 76.6 472.3 77.9 M 472.0 91.3 C 472.2 91.4 472.2 91.4 472.0 91.3 C 472.0 91.3 472.0 91.3 472.0 91.3 Z M 472.6 96.8 C 472.3 97.0 472.3 97.0 472.6 96.8 M 475.5 81.3 C 475.3 81.5 475.3 81.5 475.5 81.3 M 470.0 129.5 C 469.7 129.6 469.7 129.6 470.0 129.5 M 472.4 119.3 C 468.8 123.4 471.7 116.3 472.4 119.3 M 465.4 104.3 C 463.7 105.3 465.3 100.9 465.4 104.3 M 473.8 128.2 C 470.4 130.9 470.5 122.2 473.8 128.2 M 472.8 116.9 C 472.8 117.1 472.8 117.1 472.8 116.9 C 472.8 116.9 472.8 116.9 472.8 116.9 Z M 465.8 129.7 C 465.7 129.6 465.7 129.6 465.8 129.7 C 465.8 129.7 465.8 129.7 465.8 129.7 Z M 466.0 131.4 C 465.9 131.2 465.9 131.2 466.0 131.4 C 466.0 131.4 466.0 131.4 466.0 131.4 Z M 474.2 132.9 C 474.1 132.7 474.1 132.7 474.2 132.9 C 474.2 132.9 474.2 132.9 474.2 132.9 Z M 464.2 82.1 C 463.9 85.7 463.6 78.9 464.2 82.1 C 464.2 82.1 464.2 82.1 464.2 82.1 Z M 474.3 102.1 C 471.6 107.3 471.8 97.0 474.3 102.1 C 474.3 102.1 474.3 102.1 474.3 102.1 Z M 469.9 107.5 C 469.7 107.5 469.7 107.5 469.9 107.5 C 469.9 107.5 469.9 107.5 469.9 107.5 Z M 475.9 126.5 C 475.7 126.5 475.7 126.5 475.9 126.5 C 475.9 126.5 475.9 126.5 475.9 126.5 Z M 463.7 83.8 C 463.5 83.7 463.5 83.7 463.7 83.8 C 463.7 83.8 463.7 83.8 463.7 83.8 Z M 472.3 142.8 C 472.1 142.7 472.1 142.7 472.3 142.8 C 472.3 142.8 472.3 142.8 472.3 142.8 Z M 465.3 119.5 C 466.6 121.2 464.2 119.4 465.3 119.5 C 465.3 119.5 465.3 119.5 465.3 119.5 Z M 465.2 125.0 C 465.2 125.2 465.2 125.2 465.2 125.0 C 465.2 125.0 465.2 125.0 465.2 125.0 Z M 463.2 155.5 C 463.1 155.5 463.1 155.5 463.2 155.5 C 463.2 155.5 463.2 155.5 463.2 155.5 Z M 462.0 138.3 C 462.0 138.5 462.0 138.5 462.0 138.3 C 462.0 138.3 462.0 138.3 462.0 138.3 Z M 466.0 143.9 C 466.0 143.9 466.0 143.9 466.0 143.9 C 466.0 143.9 466.0 143.9 466.0 143.9 Z M 473.3 131.6 C 474.0 137.3 471.8 129.9 473.3 131.6 C 473.3 131.6 473.3 131.6 473.3 131.6 Z M 457.3 147.1 C 457.2 146.9 457.2 146.9 457.3 147.1 C 457.3 147.1 457.3 147.1 457.3 147.1 Z M 453.4 151.9 C 453.3 151.6 453.3 151.6 453.4 151.9 C 453.4 151.9 453.4 151.9 453.4 151.9 Z M 451.4 154.4 C 451.3 154.1 451.3 154.1 451.4 154.4 C 451.4 154.4 451.4 154.4 451.4 154.4 Z M 467.5 94.9 C 467.7 94.8 467.7 94.8 467.5 94.9 C 467.5 94.9 467.5 94.9 467.5 94.9 Z M 475.2 95.5 C 475.2 95.4 475.2 95.4 475.2 95.5 C 475.2 95.5 475.2 95.5 475.2 95.5 Z M 475.5 103.0 C 475.6 103.0 475.6 103.0 475.5 103.0 C 475.5 103.0 475.5 103.0 475.5 103.0 Z M 462.9 91.9 C 463.0 91.8 463.0 91.8 462.9 91.9 C 462.9 91.9 462.9 91.9 462.9 91.9 Z M 469.4 122.3 C 469.5 122.2 469.5 122.2 469.4 122.3 C 469.4 122.3 469.4 122.3 469.4 122.3 Z M 466.3 124.0 C 466.5 123.9 466.5 123.9 466.3 124.0 C 466.3 124.0 466.3 124.0 466.3 124.0 Z M 462.2 116.2 C 462.2 116.1 462.2 116.1 462.2 116.2 C 462.2 116.2 462.2 116.2 462.2 116.2 Z M 463.6 125.2 C 463.7 125.2 463.7 125.2 463.6 125.2 C 463.6 125.2 463.6 125.2 463.6 125.2 Z M 464.3 73.4 C 464.2 73.4 464.2 73.4 464.3 73.4 C 464.3 73.4 464.3 73.4 464.3 73.4 Z M 470.2 75.2 C 470.0 75.0 470.0 75.0 470.2 75.2 C 470.2 75.2 470.2 75.2 470.2 75.2 Z M 473.7 124.4 C 474.9 126.0 472.0 126.4 473.7 124.4 M 472.9 113.6 C 472.8 113.5 472.8 113.5 472.9 113.6 C 472.9 113.6 472.9 113.6 472.9 113.6 Z M 473.4 142.2 C 471.1 142.9 474.6 137.5 473.4 142.2 C 473.4 142.2 473.4 142.2 473.4 142.2 Z M 463.6 133.8 C 463.6 133.9 463.6 133.9 463.6 133.8 C 463.6 133.8 463.6 133.8 463.6 133.8 Z M 464.6 136.9 C 464.4 137.1 464.4 137.1 464.6 136.9 C 464.6 136.9 464.6 136.9 464.6 136.9 Z M 461.4 151.0 C 461.1 150.8 461.1 150.8 461.4 151.0 M 475.0 112.9 C 474.0 114.1 474.2 113.9 475.0 112.9 M 472.6 147.5 C 472.7 147.1 472.7 147.1 472.6 147.5 C 472.6 147.5 472.6 147.5 472.6 147.5 Z M 457.6 152.3 C 457.8 152.2 457.8 152.2 457.6 152.3 C 457.6 152.3 457.6 152.3 457.6 152.3 Z M 473.4 104.9 C 470.6 104.2 471.3 102.9 473.4 104.9 M 472.5 83.4 C 472.3 83.4 472.3 83.4 472.5 83.4 C 472.5 83.4 472.5 83.4 472.5 83.4 Z M 440.4 154.3 C 445.4 157.4 446.4 153.0 446.4 152.9 C 444.5 158.9 452.1 150.6 451.2 149.4 C 451.6 148.6 449.4 138.2 443.9 144.5 C 442.6 145.3 442.3 143.4 441.6 143.3 C 434.3 143.6 445.8 146.5 437.1 146.5 C 435.7 145.7 438.5 140.7 432.7 144.2 C 432.6 143.7 427.0 141.9 428.8 144.1 C 426.5 141.8 424.2 144.6 421.5 145.1 C 419.4 143.8 424.1 141.5 415.2 144.3 C 412.2 140.2 409.8 147.3 407.2 142.8 C 405.1 142.7 400.9 150.1 406.4 145.9 C 405.6 146.4 408.2 149.9 401.8 148.6 C 402.8 147.7 407.5 140.2 396.6 143.7 C 394.9 143.6 390.7 145.5 389.8 144.7 C 395.3 143.8 382.8 141.4 383.9 143.6 C 375.7 142.1 380.2 145.5 374.3 143.0 C 369.4 142.9 375.7 146.3 369.7 144.4 C 365.1 144.7 368.3 142.9 368.8 143.0 C 364.8 142.6 363.2 144.0 361.9 143.9 C 361.0 143.5 359.3 142.0 358.2 143.9 C 353.8 147.3 357.5 150.7 355.5 154.1 C 358.5 155.7 357.0 151.5 358.9 154.1 C 360.6 151.9 359.2 154.2 367.5 153.8 C 367.3 153.2 365.4 151.8 367.4 151.5 C 370.6 151.8 368.0 157.6 373.6 153.5 C 367.3 152.3 382.6 151.7 376.8 150.4 C 384.2 149.7 378.9 150.9 384.1 152.3 C 384.2 148.4 384.1 156.5 386.4 153.3 C 386.7 154.9 395.1 154.2 389.4 151.9 C 398.1 150.8 392.4 153.1 395.3 155.1 C 399.2 155.4 396.3 148.8 398.2 153.6 C 403.1 155.7 398.7 151.2 402.0 154.9 C 400.8 151.6 405.8 155.0 404.9 151.4 C 413.8 151.1 403.3 155.2 409.8 152.7 C 407.9 152.5 408.0 157.4 412.3 154.3 C 411.5 148.5 416.4 159.3 414.9 151.7 C 427.7 149.6 416.5 154.9 423.2 154.9 C 425.0 154.9 421.8 152.4 423.3 152.3 C 431.9 153.4 424.3 155.4 429.5 151.7 C 438.4 150.7 431.5 154.9 435.6 155.1 C 436.3 153.4 440.4 150.3 440.4 154.3 M 433.0 152.5 C 431.0 153.7 432.1 151.3 433.0 152.5 M 450.0 154.3 C 448.0 155.5 449.2 153.0 450.0 154.3 M 425.7 153.6 C 423.1 154.8 425.3 151.6 425.7 153.6 M 379.2 151.7 C 382.5 151.8 377.7 152.7 379.2 151.7 M 443.1 154.5 C 440.3 156.0 442.8 152.5 443.1 154.5 M 446.9 151.6 C 446.7 151.5 446.7 151.5 446.9 151.6 M 374.4 154.8 C 374.2 154.8 374.2 154.8 374.4 154.8 M 386.8 154.9 C 384.2 154.8 388.4 154.1 386.8 154.9 M 388.6 142.4 C 385.9 142.3 390.2 141.6 388.6 142.4 M 367.6 155.0 C 364.9 156.0 366.9 153.6 367.6 155.0 M 360.8 152.2 C 358.3 153.4 359.3 151.0 360.8 152.2 M 435.4 148.1 C 435.5 148.0 435.5 148.0 435.4 148.1 C 435.4 148.1 435.4 148.1 435.4 148.1 Z M 412.8 145.0 C 415.4 146.2 409.6 143.5 412.8 145.0 M 415.8 153.2 C 414.3 150.6 419.3 153.4 415.8 153.2 C 415.8 153.2 415.8 153.2 415.8 153.2 Z M 420.0 152.1 C 420.1 151.9 420.1 151.9 420.0 152.1 C 420.0 152.1 420.0 152.1 420.0 152.1 Z M 407.0 151.9 C 407.2 151.9 407.2 151.9 407.0 151.9 C 407.0 151.9 407.0 151.9 407.0 151.9 Z M 409.7 151.7 C 410.9 151.1 411.2 152.2 409.7 151.7 C 409.7 151.7 409.7 151.7 409.7 151.7 Z M 391.8 143.6 C 393.0 143.1 393.2 144.1 391.8 143.6 C 391.8 143.6 391.8 143.6 391.8 143.6 Z M 414.0 150.8 C 414.7 148.3 415.6 152.5 414.0 150.8 C 414.0 150.8 414.0 150.8 414.0 150.8 Z M 400.8 144.8 C 399.5 145.4 398.7 142.3 400.8 144.8 M 371.8 154.4 C 370.6 155.1 369.6 152.0 371.8 154.4 M 399.0 155.1 C 397.8 155.8 396.9 152.7 399.0 155.1 M 431.4 153.6 C 431.1 153.3 431.1 153.3 431.4 153.6 M 417.9 142.6 C 416.0 143.5 417.2 141.4 417.9 142.6 M 444.1 143.4 C 442.0 144.4 443.4 142.3 444.1 143.4 M 376.6 142.6 C 376.7 143.3 373.8 142.3 376.6 142.6 M 396.3 151.0 C 393.9 150.7 391.6 149.3 396.6 149.5 C 396.9 150.1 395.3 150.5 396.3 151.0 C 396.3 151.0 396.3 151.0 396.3 151.0 Z M 388.3 145.2 C 387.9 145.0 387.9 145.0 388.3 145.2 M 391.8 153.4 C 391.4 153.1 391.4 153.1 391.8 153.4 M 377.8 153.1 C 377.5 152.8 377.5 152.8 377.8 153.1 M 376.0 153.9 C 376.0 153.7 376.0 153.7 376.0 153.9 C 376.0 153.9 376.0 153.9 376.0 153.9 Z M 360.6 154.9 C 360.6 154.8 360.6 154.8 360.6 154.9 C 360.6 154.9 360.6 154.9 360.6 154.9 Z M 382.3 152.8 C 382.3 152.7 382.3 152.7 382.3 152.8 C 382.3 152.8 382.3 152.8 382.3 152.8 Z M 370.3 143.1 C 370.3 143.0 370.3 143.0 370.3 143.1 C 370.3 143.1 370.3 143.1 370.3 143.1 Z M 371.8 144.6 C 371.8 144.5 371.8 144.5 371.8 144.6 C 371.8 144.6 371.8 144.6 371.8 144.6 Z M 439.2 154.3 C 436.7 156.1 438.9 149.9 439.2 154.3 M 364.9 144.6 C 362.9 142.9 368.5 144.3 364.9 144.6 C 364.9 144.6 364.9 144.6 364.9 144.6 Z M 384.2 150.7 C 384.0 150.3 384.0 150.3 384.2 150.7 M 375.1 153.6 C 374.9 153.3 374.9 153.3 375.1 153.6 M 415.5 155.5 C 415.4 155.2 415.4 155.2 415.5 155.5 M 364.4 153.1 C 357.8 152.5 367.5 149.5 364.4 153.1 M 418.9 153.1 C 419.0 153.3 419.0 153.3 418.9 153.1 M 404.8 148.4 C 400.4 148.5 406.6 147.0 404.8 148.4 M 393.2 151.6 C 393.4 151.5 393.4 151.5 393.2 151.6 C 393.2 151.6 393.2 151.6 393.2 151.6 Z M 399.7 151.6 C 403.0 151.2 400.5 152.3 399.7 151.6 C 399.7 151.6 399.7 151.6 399.7 151.6 Z M 436.5 152.0 C 432.5 151.6 441.0 151.1 436.5 152.0 C 436.5 152.0 436.5 152.0 436.5 152.0 Z M 367.7 147.2 C 367.9 147.0 367.9 147.0 367.7 147.2 C 367.7 147.2 367.7 147.2 367.7 147.2 Z M 382.9 154.6 C 384.9 153.9 383.7 155.3 382.9 154.6 C 382.9 154.6 382.9 154.6 382.9 154.6 Z M 358.3 154.9 C 360.2 154.2 359.1 155.6 358.3 154.9 C 358.3 154.9 358.3 154.9 358.3 154.9 Z M 441.4 152.4 C 427.0 148.2 461.4 153.5 441.4 152.4 C 441.4 152.4 441.4 152.4 441.4 152.4 Z M 396.9 153.3 C 397.0 153.2 397.0 153.2 396.9 153.3 C 396.9 153.3 396.9 153.3 396.9 153.3 Z M 424.6 155.1 C 424.7 154.9 424.7 154.9 424.6 155.1 C 424.6 155.1 424.6 155.1 424.6 155.1 Z M 429.7 152.7 C 429.8 152.6 429.8 152.6 429.7 152.7 C 429.7 152.7 429.7 152.7 429.7 152.7 Z M 430.2 142.8 C 430.3 142.7 430.3 142.7 430.2 142.8 C 430.2 142.8 430.2 142.8 430.2 142.8 Z M 427.7 147.4 C 428.0 147.0 428.0 147.0 427.7 147.4 C 427.7 147.4 427.7 147.4 427.7 147.4 Z M 438.0 145.6 C 438.1 145.5 438.1 145.5 438.0 145.6 C 438.0 145.6 438.0 145.6 438.0 145.6 Z M 438.0 144.3 C 438.1 144.2 438.1 144.2 438.0 144.3 C 438.0 144.3 438.0 144.3 438.0 144.3 Z M 375.3 150.8 C 375.5 150.6 375.5 150.6 375.3 150.8 C 375.3 150.8 375.3 150.8 375.3 150.8 Z M 380.9 146.7 C 377.3 148.1 382.2 144.5 380.9 146.7 C 380.9 146.7 380.9 146.7 380.9 146.7 Z M 412.3 148.7 C 409.0 149.2 414.6 147.4 412.3 148.7 C 412.3 148.7 412.3 148.7 412.3 148.7 Z M 409.6 143.3 C 409.5 143.2 409.5 143.2 409.6 143.3 C 409.6 143.3 409.6 143.3 409.6 143.3 Z M 429.3 155.1 C 429.4 154.9 429.4 154.9 429.3 155.1 C 429.3 155.1 429.3 155.1 429.3 155.1 Z M 435.5 153.4 C 436.2 151.3 437.2 154.5 435.5 153.4 M 405.4 154.7 C 405.4 154.4 405.4 154.4 405.4 154.7 C 405.4 154.7 405.4 154.7 405.4 154.7 Z M 386.8 151.4 C 386.9 151.2 386.9 151.2 386.8 151.4 C 386.8 151.4 386.8 151.4 386.8 151.4 Z M 367.8 152.7 C 367.9 152.4 367.9 152.4 367.8 152.7 C 367.8 152.7 367.8 152.7 367.8 152.7 Z M 393.7 154.4 C 393.8 154.1 393.8 154.1 393.7 154.4 C 393.7 154.4 393.7 154.4 393.7 154.4 Z M 402.9 152.5 C 403.0 152.2 403.0 152.2 402.9 152.5 C 402.9 152.5 402.9 152.5 402.9 152.5 Z M 363.8 149.8 C 364.0 149.6 364.0 149.6 363.8 149.8 C 363.8 149.8 363.8 149.8 363.8 149.8 Z M 391.5 154.7 C 391.6 154.6 391.6 154.6 391.5 154.7 C 391.5 154.7 391.5 154.7 391.5 154.7 Z M 386.7 148.0 C 386.9 147.8 386.9 147.8 386.7 148.0 C 386.7 148.0 386.7 148.0 386.7 148.0 Z M 434.1 156.4 C 434.2 156.3 434.2 156.3 434.1 156.4 C 434.1 156.4 434.1 156.4 434.1 156.4 Z M 363.5 152.6 C 363.6 152.5 363.6 152.5 363.5 152.6 C 363.5 152.6 363.5 152.6 363.5 152.6 Z M 362.2 154.4 C 362.3 154.3 362.3 154.3 362.2 154.4 C 362.2 154.4 362.2 154.4 362.2 154.4 Z M 376.3 144.5 C 383.0 145.6 370.3 144.9 375.0 147.2 C 365.3 147.8 374.9 144.4 376.3 144.5 C 376.3 144.5 376.3 144.5 376.3 144.5 Z M 376.3 144.5 " fill="#FEFFFE"></path></g></svg>