<?xml version="1.0" encoding="UTF-8" standalone="no"?><svg xmlns="http://www.w3.org/2000/svg" xmlns:xlink="http://www.w3.org/1999/xlink" clip-rule="evenodd" stroke-miterlimit="10" viewBox="0 0 28 30"><desc>SVG generated by Keynote</desc><defs></defs><g transform="matrix(1.00, 0.00, -0.00, -1.00, 0.0, 30.0)"><path d="M 11.8 24.9 C 11.7 25.1 11.0 24.9 10.9 25.0 M 11.8 24.9 C 10.9 24.0 9.9 23.9 8.6 23.8 C 7.2 23.7 8.8 24.6 8.8 25.0 C 6.9 25.4 6.8 24.7 6.9 23.7 C 6.3 24.4 4.1 23.2 4.5 24.4 C 7.6 24.4 2.3 24.7 5.0 25.5 C 5.3 25.6 4.6 26.0 4.3 26.0 C 5.2 26.5 3.6 27.1 5.2 27.5 C 5.4 28.2 5.1 27.9 6.2 28.5 C 6.7 28.6 6.5 28.3 6.4 28.1 C 6.5 27.2 7.8 28.6 8.5 28.1 C 9.6 29.3 10.0 27.9 9.2 27.4 C 10.0 27.5 11.3 28.7 11.8 27.9 C 12.5 28.5 14.4 28.1 12.8 27.3 C 11.8 26.9 12.6 26.5 12.6 26.2 C 12.2 26.0 11.2 26.3 10.9 26.1 C 11.2 25.9 12.5 25.5 11.0 25.5 C 11.3 25.1 10.5 24.9 11.8 24.9 C 11.8 24.9 11.8 24.9 11.8 24.9 Z M 6.4 24.2 C 6.4 23.9 6.9 24.3 6.4 24.2 C 6.4 24.2 6.4 24.2 6.4 24.2 Z M 11.4 28.5 C 11.2 28.2 12.0 28.5 11.4 28.5 C 11.4 28.5 11.4 28.5 11.4 28.5 Z M 6.7 28.2 C 6.6 27.8 7.3 28.2 6.7 28.2 C 6.7 28.2 6.7 28.2 6.7 28.2 Z M 7.8 24.5 C 8.7 24.7 7.2 24.9 7.0 24.6 C 7.2 24.6 7.6 24.2 7.8 24.5 C 7.8 24.5 7.8 24.5 7.8 24.5 Z M 8.3 26.3 C 8.4 26.2 8.7 26.1 8.8 26.5 C 8.6 26.5 8.3 26.4 8.3 26.3 C 8.3 26.3 8.3 26.3 8.3 26.3 Z M 3.9 25.0 C 3.9 24.9 4.3 24.8 4.3 25.2 C 4.0 25.2 3.8 25.1 3.9 25.0 C 3.9 25.0 3.9 25.0 3.9 25.0 Z M 9.0 25.3 C 9.2 25.3 9.4 25.6 9.1 25.7 C 8.9 25.5 8.3 25.5 9.0 25.3 C 9.0 25.3 9.0 25.3 9.0 25.3 Z M 9.9 24.2 C 10.7 24.4 9.4 24.9 9.4 24.7 C 9.1 24.5 9.5 24.0 9.9 24.2 C 9.9 24.2 9.9 24.2 9.9 24.2 Z M 9.5 25.7 C 10.2 25.9 9.3 26.0 9.5 25.7 C 9.5 25.7 9.5 25.7 9.5 25.7 Z M 4.6 27.3 C 5.2 27.5 4.3 27.6 4.6 27.3 C 4.6 27.3 4.6 27.3 4.6 27.3 Z M 8.2 28.3 C 8.9 28.5 8.0 28.5 8.2 28.3 C 8.2 28.3 8.2 28.3 8.2 28.3 Z M 6.4 25.1 C 5.4 25.1 6.1 24.3 6.4 25.1 C 6.4 25.1 6.4 25.1 6.4 25.1 Z M 11.5 24.2 C 10.5 24.1 11.0 23.4 11.5 24.2 C 11.5 24.2 11.5 24.2 11.5 24.2 Z M 5.4 24.8 C 5.6 25.8 6.6 22.4 5.4 23.5 C 4.3 23.8 4.4 21.3 5.4 22.2 C 5.5 21.5 5.5 21.5 5.1 21.0 C 5.8 21.0 6.2 19.5 5.8 18.8 C 5.2 18.2 5.7 19.9 5.0 18.7 C 4.8 16.5 4.3 18.6 3.5 17.4 C 3.5 17.3 3.9 17.5 3.7 17.2 C 2.9 16.8 2.3 17.9 1.7 17.1 C 1.9 17.5 1.0 19.0 1.7 18.5 C 2.4 18.4 0.8 20.2 2.0 20.3 C 1.4 20.8 2.2 21.6 1.5 22.0 C 1.4 22.4 2.0 22.5 2.2 22.5 C 2.8 22.5 0.9 22.8 1.9 23.6 C 1.6 23.7 1.7 25.7 2.2 24.2 C 2.1 24.6 1.8 26.8 2.9 25.7 C 3.4 24.3 4.1 27.2 4.1 25.5 C 4.2 24.3 4.0 24.0 4.6 25.0 C 4.5 25.3 4.6 26.7 5.1 25.5 C 5.0 25.2 5.1 24.7 5.4 24.8 C 5.4 24.8 5.4 24.8 5.4 24.8 Z M 3.8 25.0 C 3.7 24.3 4.2 25.0 3.8 25.0 C 3.8 25.0 3.8 25.0 3.8 25.0 Z M 1.3 21.8 C 1.2 21.0 1.7 21.8 1.3 21.8 C 1.3 21.8 1.3 21.8 1.3 21.8 Z M 5.7 22.7 C 5.3 22.3 6.5 22.4 5.7 22.7 C 5.7 22.7 5.7 22.7 5.7 22.7 Z M 2.2 23.3 C 2.2 23.3 2.3 23.5 2.4 23.7 C 2.3 23.6 2.2 23.4 2.2 23.3 C 2.2 23.3 2.2 23.3 2.2 23.3 Z M 5.7 21.5 C 5.1 20.3 6.6 21.5 5.7 21.5 C 5.7 21.5 5.7 21.5 5.7 21.5 Z M 4.6 19.1 C 3.4 18.6 4.8 18.0 4.6 19.1 C 4.6 19.1 4.6 19.1 4.6 19.1 Z M 2.1 19.9 C 2.3 20.2 1.9 20.1 2.1 19.9 C 2.1 19.9 2.1 19.9 2.1 19.9 Z M 1.9 25.3 C 2.2 25.5 1.8 25.5 1.9 25.3 C 1.9 25.3 1.9 25.3 1.9 25.3 Z M 2.2 18.5 C 2.6 18.7 2.0 18.8 2.2 18.5 C 2.2 18.5 2.2 18.5 2.2 18.5 Z M 5.2 22.4 C 6.1 23.5 3.9 23.4 5.2 22.4 C 5.2 22.4 5.2 22.4 5.2 22.4 Z M 5.3 24.2 C 5.5 24.8 4.7 24.0 4.9 23.7 C 5.0 23.7 5.3 24.0 5.3 24.2 C 5.3 24.2 5.3 24.2 5.3 24.2 Z M 5.1 21.4 C 5.6 22.1 4.9 21.9 5.1 21.4 C 5.1 21.4 5.1 21.4 5.1 21.4 Z M 5.6 23.1 C 5.5 23.5 5.5 22.9 5.6 23.1 C 5.6 23.1 5.6 23.1 5.6 23.1 Z M 6.1 20.3 C 6.0 20.6 5.9 20.0 6.1 20.3 C 6.1 20.3 6.1 20.3 6.1 20.3 Z M 5.8 25.0 C 5.7 25.3 5.7 24.7 5.8 25.0 C 5.8 25.0 5.8 25.0 5.8 25.0 Z M 5.5 20.4 C 5.0 20.2 4.1 20.9 4.9 19.4 C 5.2 19.2 5.8 20.1 5.5 20.4 C 5.5 20.4 5.5 20.4 5.5 20.4 Z M 14.9 25.0 C 10.1 23.7 12.0 25.9 11.9 26.3 C 11.6 26.9 12.3 27.3 13.5 27.7 C 15.3 29.2 14.3 26.3 15.8 27.7 C 18.3 29.6 16.3 26.0 18.1 28.1 C 18.2 28.6 19.9 28.1 19.7 28.0 C 21.4 29.0 21.4 27.3 21.3 27.1 C 22.2 27.4 23.8 29.1 24.7 27.8 C 24.9 27.7 25.3 27.7 25.7 27.8 C 25.9 27.2 26.7 27.5 25.7 27.0 C 27.1 27.0 25.4 25.9 25.8 25.0 C 26.6 24.7 24.6 24.1 26.1 23.6 C 25.0 22.3 26.9 24.9 26.0 20.1 C 25.9 22.1 25.1 17.9 25.9 18.9 C 26.7 20.6 25.6 16.9 26.1 15.0 C 25.7 14.5 24.6 12.5 25.8 12.7 C 27.1 10.3 25.0 11.0 26.0 9.7 C 26.5 8.9 25.5 9.1 25.6 8.6 C 26.4 7.5 25.9 7.2 26.1 4.5 C 26.2 3.0 26.1 2.4 25.9 2.2 C 25.2 2.5 25.0 3.0 24.7 3.4 C 24.5 3.8 24.3 4.1 23.8 4.3 C 23.7 4.3 23.6 4.4 23.4 4.4 C 23.2 4.5 23.1 4.8 23.0 5.2 C 22.2 6.4 21.3 8.1 22.7 6.3 C 22.1 7.0 24.2 9.0 22.0 8.7 C 22.9 9.3 21.1 9.1 22.1 10.7 C 23.7 6.1 22.8 14.3 22.0 11.3 C 21.6 12.0 21.6 13.2 22.0 12.2 C 23.4 11.3 21.4 14.4 23.1 12.9 C 22.6 15.1 24.2 14.4 23.1 15.1 C 21.2 15.5 23.6 15.0 23.0 16.1 C 23.0 18.7 20.9 16.4 22.3 18.0 C 21.4 19.8 23.1 18.8 23.3 19.8 C 24.6 20.7 22.3 21.8 22.2 19.9 C 22.9 21.2 21.6 19.7 22.4 21.2 C 23.6 21.1 21.1 21.6 22.1 22.1 C 22.4 23.3 23.1 23.3 23.1 23.7 C 23.1 25.3 22.0 23.7 22.8 24.8 C 22.9 24.9 22.9 25.0 22.9 25.0 C 22.5 25.1 20.9 23.9 21.0 24.3 C 22.7 24.3 20.8 25.5 20.1 24.9 C 21.0 24.8 18.3 23.3 18.4 24.3 C 21.4 26.9 16.6 23.6 16.5 24.5 C 18.3 26.0 13.1 24.7 14.3 24.0 C 14.3 24.1 14.9 25.0 14.9 25.0 M 20.8 24.5 C 22.2 24.6 19.6 24.8 20.8 24.5 M 20.4 24.1 C 21.4 24.6 18.8 23.8 20.3 24.0 C 20.3 24.0 20.3 24.1 20.4 24.1 M 21.9 20.7 C 22.3 21.1 21.7 21.2 21.9 20.7 M 22.8 20.3 C 23.2 19.6 22.9 21.4 22.8 20.3 M 22.5 8.8 C 24.7 8.8 21.3 10.7 22.5 8.8 M 22.1 16.2 C 22.4 17.6 21.2 15.7 22.1 16.2 M 22.6 16.7 C 23.0 17.4 22.1 16.8 22.6 16.7 M 22.5 11.0 C 22.6 10.8 22.6 10.8 22.5 11.0 C 22.5 11.0 22.5 11.0 22.5 11.0 Z M 22.6 7.6 C 22.6 7.6 22.6 7.6 22.6 7.6 C 22.6 7.6 22.6 7.6 22.6 7.6 Z M 22.8 14.2 C 22.3 15.3 22.6 12.5 22.8 14.2 C 22.8 14.2 22.8 14.2 22.8 14.2 Z M 25.8 7.1 C 25.9 7.2 25.9 7.2 25.8 7.1 C 25.8 7.1 25.8 7.1 25.8 7.1 Z M 20.6 25.5 C 20.5 25.5 20.5 25.5 20.6 25.5 C 20.6 25.5 20.6 25.5 20.6 25.5 Z M 15.8 24.7 C 16.0 24.9 14.9 24.4 15.8 24.7 C 15.8 24.7 15.8 24.7 15.8 24.7 Z M 13.6 27.1 C 13.6 27.1 13.6 27.1 13.6 27.1 C 13.6 27.1 13.6 27.1 13.6 27.1 Z M 20.0 26.6 C 20.0 26.6 20.0 26.6 20.0 26.6 C 20.0 26.6 20.0 26.6 20.0 26.6 Z M 19.4 25.0 C 17.8 23.8 21.2 25.3 19.4 25.0 C 19.4 25.0 19.4 25.0 19.4 25.0 Z M 25.7 15.6 C 25.2 15.6 25.9 14.4 25.7 15.6 C 25.7 15.6 25.7 15.6 25.7 15.6 Z M 23.3 20.4 C 23.0 20.1 23.4 19.8 23.3 20.4 C 23.3 20.4 23.3 20.4 23.3 20.4 Z M 21.7 21.5 C 21.4 21.1 21.8 21.0 21.7 21.5 C 21.7 21.5 21.7 21.5 21.7 21.5 Z M 15.6 24.3 C 15.7 24.3 15.7 24.3 15.6 24.3 C 15.6 24.3 15.6 24.3 15.6 24.3 Z M 17.7 25.2 C 16.0 24.1 19.8 25.8 17.7 25.2 C 17.7 25.2 17.7 25.2 17.7 25.2 Z M 16.1 25.5 C 17.0 26.0 14.7 25.4 16.1 25.5 M 18.3 27.2 C 19.4 26.8 18.3 29.2 18.3 27.2 C 18.3 27.2 18.3 27.2 18.3 27.2 Z M 25.5 27.2 C 25.6 27.2 25.6 27.2 25.5 27.2 C 25.5 27.2 25.5 27.2 25.5 27.2 Z M 22.0 24.5 C 22.2 24.5 22.3 24.5 22.3 24.5 C 22.4 24.4 22.4 24.5 22.4 24.5 C 22.3 24.6 21.7 24.6 22.0 24.5 C 22.0 24.5 22.0 24.5 22.0 24.5 Z M 12.5 24.2 C 13.6 24.2 11.9 24.5 12.5 24.2 C 12.5 24.2 12.5 24.2 12.5 24.2 Z M 24.5 22.1 C 24.3 20.0 25.1 23.8 24.5 22.1 C 24.5 22.1 24.5 22.1 24.5 22.1 Z M 23.2 14.8 C 23.2 14.7 23.2 14.7 23.2 14.8 C 23.2 14.8 23.2 14.8 23.2 14.8 Z M 22.7 13.6 C 22.8 13.6 22.8 13.6 22.7 13.6 C 22.7 13.6 22.7 13.6 22.7 13.6 Z M 23.9 8.0 C 23.9 7.9 23.9 7.9 23.9 8.0 C 23.9 8.0 23.9 8.0 23.9 8.0 Z M 22.2 12.7 C 22.2 12.7 22.2 12.7 22.2 12.7 C 22.2 12.7 22.2 12.7 22.2 12.7 Z M 22.5 9.4 C 22.5 9.3 22.5 9.3 22.5 9.4 C 22.5 9.4 22.5 9.4 22.5 9.4 Z M 21.5 10.3 C 21.6 10.3 21.6 10.3 21.5 10.3 C 21.5 10.3 21.5 10.3 21.5 10.3 Z M 26.4 17.9 C 26.4 17.8 26.4 17.8 26.4 17.9 C 26.4 17.9 26.4 17.9 26.4 17.9 Z M 17.3 24.0 C 17.4 24.1 17.4 24.1 17.3 24.0 C 17.3 24.0 17.3 24.0 17.3 24.0 Z M 22.9 9.4 C 22.9 9.3 22.9 9.3 22.9 9.4 C 22.9 9.4 22.9 9.4 22.9 9.4 Z M 23.8 18.0 C 24.7 18.2 22.5 18.3 23.7 17.7 C 23.8 17.8 23.6 18.0 23.8 18.0 M 25.4 17.0 C 25.4 17.0 25.4 17.0 25.4 17.0 C 25.4 17.0 25.4 17.0 25.4 17.0 Z M 25.9 22.0 C 26.0 22.1 26.0 22.1 25.9 22.0 C 25.9 22.0 25.9 22.0 25.9 22.0 Z M 22.0 13.3 C 21.5 13.5 22.4 12.3 22.0 13.4 M 25.5 6.9 C 25.0 7.4 25.9 5.4 25.5 7.1 M 11.4 24.6 C 11.5 25.0 10.6 24.3 11.4 24.6 M 26.4 23.4 C 26.8 23.8 26.2 24.2 26.4 23.4 M 25.2 20.5 C 24.7 20.4 25.6 19.5 25.3 20.7 M 25.5 10.2 C 25.5 10.1 25.5 10.1 25.5 10.2 C 25.5 10.2 25.5 10.2 25.5 10.2 Z M 22.4 23.3 C 22.4 23.3 22.4 23.3 22.4 23.3 C 22.4 23.3 22.4 23.3 22.4 23.3 Z M 23.5 19.4 C 22.8 19.7 24.0 18.6 23.5 19.4 M 23.6 25.8 C 22.9 25.5 23.0 25.4 23.4 25.5 C 23.9 25.6 24.8 26.0 23.7 25.8 C 23.7 25.8 23.7 25.8 23.6 25.8 M 25.7 4.2 C 24.7 6.4 26.3 2.7 25.7 4.2 M 23.0 11.7 C 21.9 13.0 23.6 10.7 23.0 11.7 M 22.9 22.8 C 22.3 22.4 23.2 22.0 22.9 22.8 M 13.8 24.5 C 12.8 24.4 14.9 24.0 13.8 24.5 M 25.5 13.4 C 25.6 13.3 25.6 13.3 25.5 13.4 C 25.5 13.4 25.5 13.4 25.5 13.4 Z M 20.1 28.6 C 20.2 28.6 20.2 28.6 20.1 28.6 C 20.1 28.6 20.1 28.6 20.1 28.6 Z M 22.2 6.1 C 22.2 6.0 22.2 6.0 22.2 6.1 C 22.2 6.1 22.2 6.1 22.2 6.1 Z M 23.5 12.2 C 23.6 12.1 23.6 12.1 23.5 12.2 C 23.5 12.2 23.5 12.2 23.5 12.2 Z M 22.0 8.0 C 22.1 7.9 22.1 7.9 22.0 8.0 C 22.0 8.0 22.0 8.0 22.0 8.0 Z M 24.4 15.6 C 24.4 15.6 24.4 15.6 24.4 15.6 C 24.4 15.6 24.4 15.6 24.4 15.6 Z M 21.6 16.1 C 21.6 16.1 21.6 16.1 21.6 16.1 C 21.6 16.1 21.6 16.1 21.6 16.1 Z M 22.8 19.6 C 22.8 19.6 22.8 19.6 22.8 19.6 C 22.8 19.6 22.8 19.6 22.8 19.6 Z M 21.8 14.7 C 21.7 12.8 22.7 15.7 21.8 14.7 C 21.8 14.7 21.8 14.7 21.8 14.7 Z M 24.6 18.7 C 24.6 18.7 24.6 18.7 24.6 18.7 C 24.6 18.7 24.6 18.7 24.6 18.7 Z M 22.6 18.4 C 21.8 17.0 24.0 18.1 22.6 18.4 M 22.0 23.5 C 21.6 22.8 22.6 23.9 22.0 23.5 M 23.6 27.7 C 23.7 27.8 23.7 27.8 23.6 27.7 C 23.6 27.7 23.6 27.7 23.6 27.7 Z M 24.1 27.5 C 24.2 27.5 24.2 27.5 24.1 27.5 C 24.1 27.5 24.1 27.5 24.1 27.5 Z M 21.1 24.0 C 21.2 24.0 21.2 24.0 21.1 24.0 C 21.1 24.0 21.1 24.0 21.1 24.0 Z M 25.2 28.5 C 25.3 28.5 25.3 28.5 25.2 28.5 C 25.2 28.5 25.2 28.5 25.2 28.5 Z M 21.7 16.8 C 21.7 16.8 21.7 16.8 21.7 16.8 C 21.7 16.8 21.7 16.8 21.7 16.8 Z M 21.7 7.4 C 21.7 7.4 21.7 7.4 21.7 7.4 C 21.7 7.4 21.7 7.4 21.7 7.4 Z M 15.8 27.4 C 15.9 27.4 15.9 27.4 15.8 27.4 C 15.8 27.4 15.8 27.4 15.8 27.4 Z M 22.8 15.9 C 22.8 15.8 22.8 15.8 22.8 15.9 C 22.8 15.9 22.8 15.9 22.8 15.9 Z M 21.7 27.6 C 21.8 27.6 21.8 27.6 21.7 27.6 C 21.7 27.6 21.7 27.6 21.7 27.6 Z M 22.5 16.5 C 22.6 16.5 22.6 16.5 22.5 16.5 C 22.5 16.5 22.5 16.5 22.5 16.5 Z M 25.7 13.7 C 25.8 13.7 25.8 13.7 25.7 13.7 C 25.7 13.7 25.7 13.7 25.7 13.7 Z M 26.4 10.6 C 26.4 10.5 26.4 10.5 26.4 10.6 C 26.4 10.6 26.4 10.6 26.4 10.6 Z M 23.8 14.1 C 23.8 14.1 23.8 14.1 23.8 14.1 C 23.8 14.1 23.8 14.1 23.8 14.1 Z M 19.9 26.4 C 14.6 25.4 23.2 26.0 19.9 26.4 M 24.1 13.3 C 23.8 16.6 23.0 11.1 24.1 13.3 C 23.8 13.0 24.0 13.3 24.1 13.3 M 21.0 6.4 C 21.8 6.0 22.4 5.6 23.0 5.2 C 23.5 4.8 23.9 4.4 24.2 3.9 C 24.3 3.7 24.4 3.6 24.5 3.4 C 24.3 2.8 22.4 4.9 24.0 3.1 C 25.9 2.8 25.4 0.6 23.6 2.8 C 21.1 3.1 24.3 1.4 22.2 2.3 C 19.5 2.5 21.2 1.8 19.1 2.0 C 17.5 3.2 18.1 1.4 17.3 2.5 C 18.7 1.3 15.2 2.8 15.2 2.3 C 17.2 1.5 8.4 2.3 13.1 2.6 C 11.3 3.2 11.5 2.2 10.8 2.0 C 10.2 2.8 7.3 1.5 6.5 2.2 C 6.8 2.3 7.4 2.4 7.7 2.6 C 8.3 3.1 6.4 2.5 6.6 2.6 C 6.0 2.8 3.8 3.6 5.8 2.3 C 5.6 1.7 3.4 2.6 3.0 2.0 C 2.2 2.0 1.9 2.1 1.8 2.2 C 2.1 3.0 2.5 2.7 1.9 2.9 C 1.9 4.7 1.9 6.1 2.0 6.2 C 1.9 7.2 1.2 6.9 1.9 8.4 C 0.5 9.9 4.4 11.7 1.8 10.9 C 2.4 11.9 0.7 11.6 2.3 12.4 C 1.6 11.2 1.1 15.7 2.3 14.2 C 2.6 14.9 0.6 17.0 2.2 17.2 C 3.4 18.6 4.6 18.9 5.7 17.3 C 4.8 17.1 6.7 15.8 5.1 16.4 C 4.6 17.9 4.5 12.9 5.1 14.3 C 7.0 15.6 3.9 11.2 5.3 11.1 C 4.5 11.4 4.1 7.0 5.6 9.4 C 5.7 8.8 5.0 8.0 5.8 8.0 C 5.7 10.1 4.3 5.7 5.2 6.7 C 5.4 7.0 5.6 6.7 5.7 6.2 C 6.6 6.3 7.5 6.2 6.9 5.8 C 4.0 3.8 8.0 6.2 8.0 5.4 C 9.6 5.0 8.9 7.1 9.2 5.7 C 9.7 5.9 11.9 5.9 10.7 6.3 C 10.1 6.1 11.4 4.2 12.1 5.8 C 10.1 6.8 14.8 6.3 14.1 5.8 C 9.9 4.9 18.6 4.8 15.1 5.7 C 16.5 6.6 14.6 6.1 16.7 5.7 C 16.6 5.2 18.6 4.6 17.7 5.7 C 17.3 7.3 19.4 3.6 19.5 5.7 C 19.1 6.7 22.7 5.1 20.9 6.1 C 20.7 6.2 20.9 6.4 21.0 6.4 M 20.4 6.2 C 21.0 5.9 20.5 6.6 20.4 6.2 M 21.0 5.9 C 21.0 5.9 21.0 5.9 21.0 5.9 C 21.0 5.9 21.0 5.9 21.0 5.9 Z M 17.1 5.6 C 17.1 5.7 17.1 5.7 17.1 5.6 C 17.1 5.6 17.1 5.6 17.1 5.6 Z M 13.8 1.7 C 13.8 1.7 13.8 1.7 13.8 1.7 C 13.8 1.7 13.8 1.7 13.8 1.7 Z M 14.3 5.5 C 14.4 5.5 14.4 5.5 14.3 5.5 C 14.3 5.5 14.3 5.5 14.3 5.5 Z M 18.7 5.4 C 18.7 5.4 18.7 5.4 18.7 5.4 C 18.7 5.4 18.7 5.4 18.7 5.4 Z M 14.5 6.1 C 14.4 5.5 15.4 6.5 14.5 6.2 C 14.5 6.2 14.6 6.2 14.5 6.1 M 11.2 6.3 C 11.2 6.3 11.2 6.3 11.2 6.3 M 1.3 4.4 C 1.2 4.4 1.2 4.4 1.3 4.4 M 6.0 9.3 C 5.9 9.3 5.9 9.3 6.0 9.3 M 7.5 5.7 C 6.5 5.8 7.0 5.4 7.5 5.7 M 5.6 12.1 C 6.0 10.9 5.9 13.9 5.6 12.1 M 6.0 13.7 C 5.9 13.8 5.9 13.8 6.0 13.7 M 5.7 7.0 C 5.7 6.9 5.7 6.9 5.7 7.0 C 5.7 7.0 5.7 7.0 5.7 7.0 Z M 8.1 6.0 C 9.7 6.3 7.2 6.5 8.1 6.0 M 16.4 6.2 C 15.6 6.5 16.7 5.4 16.4 6.2 M 18.1 5.9 C 18.1 5.8 18.1 5.8 18.1 5.9 C 18.1 5.9 18.1 5.9 18.1 5.9 Z M 5.7 9.7 C 5.7 9.7 5.7 9.7 5.7 9.7 C 5.7 9.7 5.7 9.7 5.7 9.7 Z M 5.8 11.5 C 5.8 11.5 5.8 11.5 5.8 11.5 C 5.8 11.5 5.8 11.5 5.8 11.5 Z M 1.4 11.8 C 1.4 11.7 1.4 11.7 1.4 11.8 C 1.4 11.8 1.4 11.8 1.4 11.8 Z M 17.6 4.0 C 18.7 4.3 16.0 5.5 16.4 4.4 C 16.4 4.0 17.4 4.1 17.6 4.0 M 8.4 4.7 C 7.2 3.2 10.5 6.7 8.4 4.7 M 5.0 13.3 C 3.2 13.5 6.2 12.7 5.0 13.3 M 5.3 15.9 C 5.0 16.4 5.1 11.4 5.6 15.2 C 5.9 15.7 5.5 15.7 5.3 15.9 M 11.0 5.6 C 10.3 4.8 12.7 6.0 11.0 5.6 M 2.7 4.2 C 3.3 5.3 3.7 7.3 2.8 5.8 C 1.7 4.8 2.3 3.0 2.7 4.2 M 20.7 5.4 C 19.0 6.7 21.6 4.3 20.7 5.4 M 16.5 5.3 C 16.5 5.3 16.5 5.3 16.5 5.3 C 16.5 5.3 16.5 5.3 16.5 5.3 Z M 14.8 5.5 C 14.7 5.4 14.7 5.4 14.8 5.5 M 19.3 6.5 C 19.3 6.4 19.3 6.4 19.3 6.5 M 4.1 5.5 C 4.0 5.5 4.0 5.5 4.1 5.5 M 7.6 5.4 C 4.8 4.1 8.3 5.1 7.6 5.4 M 11.0 2.9 C 10.2 2.3 12.3 2.9 11.0 2.9 M 5.5 6.0 C 4.9 6.0 4.6 5.4 4.6 5.0 C 4.5 4.5 4.8 4.4 5.4 5.8 C 5.4 5.9 5.4 5.9 5.5 6.0 M 8.5 5.5 C 8.4 5.5 8.4 5.5 8.5 5.5 C 8.5 5.5 8.5 5.5 8.5 5.5 Z M 2.6 4.6 C 2.6 4.5 2.6 4.5 2.6 4.6 C 2.6 4.6 2.6 4.6 2.6 4.6 Z M 2.7 5.2 C 2.6 5.1 2.6 5.1 2.7 5.2 C 2.7 5.2 2.7 5.2 2.7 5.2 Z M 5.6 7.6 C 5.6 7.5 5.6 7.5 5.6 7.6 C 5.6 7.6 5.6 7.6 5.6 7.6 Z M 19.9 2.5 C 18.4 2.4 21.3 2.3 19.9 2.5 C 19.9 2.5 19.9 2.5 19.9 2.5 Z M 13.3 6.1 C 11.3 5.1 14.6 5.2 13.3 6.1 C 13.3 6.1 13.3 6.1 13.3 6.1 Z M 10.8 4.5 C 10.8 4.4 10.8 4.4 10.8 4.5 C 10.8 4.5 10.8 4.5 10.8 4.5 Z M 6.8 6.7 C 6.7 6.6 6.7 6.6 6.8 6.7 C 6.8 6.7 6.8 6.7 6.8 6.7 Z M 19.2 2.3 C 19.3 2.2 19.3 2.2 19.2 2.3 C 19.2 2.3 19.2 2.3 19.2 2.3 Z M 4.9 10.6 C 4.9 10.5 4.9 10.5 4.9 10.6 C 4.9 10.6 4.9 10.6 4.9 10.6 Z M 4.8 2.8 C 4.7 3.3 4.4 2.5 4.8 2.8 C 4.8 2.8 4.8 2.8 4.8 2.8 Z M 2.6 2.8 C 2.5 2.8 2.5 2.8 2.6 2.8 C 2.6 2.8 2.6 2.8 2.6 2.8 Z M 6.1 14.2 C 6.1 14.3 6.1 14.3 6.1 14.2 C 6.1 14.2 6.1 14.2 6.1 14.2 Z M 1.2 7.2 C 1.3 7.2 1.3 7.2 1.2 7.2 C 1.2 7.2 1.2 7.2 1.2 7.2 Z M 2.7 10.0 C 2.7 10.0 2.7 10.0 2.7 10.0 C 2.7 10.0 2.7 10.0 2.7 10.0 Z M 5.3 7.0 C 5.5 9.1 4.8 6.1 5.3 7.0 C 5.3 7.0 5.3 7.0 5.3 7.0 Z M 3.1 15.4 C 3.0 15.4 3.0 15.4 3.1 15.4 C 3.1 15.4 3.1 15.4 3.1 15.4 Z M 4.8 17.1 C 4.7 17.2 4.7 17.2 4.8 17.1 C 4.8 17.1 4.8 17.1 4.8 17.1 Z M 5.7 18.0 C 5.6 18.0 5.6 18.0 5.7 18.0 C 5.7 18.0 5.7 18.0 5.7 18.0 Z M 15.0 3.7 C 15.0 3.7 15.0 3.7 15.0 3.7 C 15.0 3.7 15.0 3.7 15.0 3.7 Z M 15.3 6.4 C 15.3 6.4 15.3 6.4 15.3 6.4 C 15.3 6.4 15.3 6.4 15.3 6.4 Z M 13.2 6.5 C 13.2 6.5 13.2 6.5 13.2 6.5 C 13.2 6.5 13.2 6.5 13.2 6.5 Z M 15.7 2.0 C 15.8 2.0 15.8 2.0 15.7 2.0 C 15.7 2.0 15.7 2.0 15.7 2.0 Z M 5.5 4.3 C 5.6 4.4 5.6 4.4 5.5 4.3 C 5.5 4.3 5.5 4.3 5.5 4.3 Z M 3.5 3.2 C 3.6 3.3 3.6 3.3 3.5 3.2 C 3.5 3.2 3.5 3.2 3.5 3.2 Z M 5.0 1.7 C 5.0 1.8 5.0 1.8 5.0 1.7 C 5.0 1.7 5.0 1.7 5.0 1.7 Z M 1.8 2.4 C 1.9 2.4 1.9 2.4 1.8 2.4 C 1.8 2.4 1.8 2.4 1.8 2.4 Z M 23.5 2.5 C 23.5 2.5 23.5 2.5 23.5 2.5 C 23.5 2.5 23.5 2.5 23.5 2.5 Z M 22.0 4.6 C 22.1 4.5 22.1 4.5 22.0 4.6 C 22.0 4.6 22.0 4.6 22.0 4.6 Z M 6.5 5.8 C 6.5 6.3 5.2 5.3 6.5 5.8 M 9.6 5.6 C 9.6 5.5 9.6 5.5 9.6 5.6 C 9.6 5.6 9.6 5.6 9.6 5.6 Z M 5.3 10.6 C 4.5 10.4 5.8 9.3 5.3 10.6 C 5.3 10.6 5.3 10.6 5.3 10.6 Z M 1.8 5.7 C 1.8 5.7 1.8 5.7 1.8 5.7 C 1.8 5.7 1.8 5.7 1.8 5.7 Z M 2.2 7.1 C 2.1 7.1 2.1 7.1 2.2 7.1 C 2.2 7.1 2.2 7.1 2.2 7.1 Z M 4.5 14.3 C 4.4 14.4 4.4 14.4 4.5 14.3 M 10.3 6.3 C 9.7 6.0 9.8 6.0 10.3 6.3 M 5.3 11.8 C 5.3 11.7 5.3 11.7 5.3 11.8 C 5.3 11.8 5.3 11.8 5.3 11.8 Z M 4.9 15.7 C 4.9 15.7 4.9 15.7 4.9 15.7 C 4.9 15.7 4.9 15.7 4.9 15.7 Z M 12.4 5.8 C 12.1 4.7 12.6 5.0 12.4 5.8 M 19.0 5.4 C 19.0 5.4 19.0 5.4 19.0 5.4 C 19.0 5.4 19.0 5.4 19.0 5.4 Z M 19.0 5.4 " fill="#FEFFFE"></path></g></svg>