<?xml version="1.0" encoding="UTF-8" standalone="no"?><svg xmlns="http://www.w3.org/2000/svg" xmlns:xlink="http://www.w3.org/1999/xlink" clip-rule="evenodd" stroke-miterlimit="10" viewBox="0 0 50 46"><desc>SVG generated by Keynote</desc><defs></defs><g transform="matrix(1.00, 0.00, -0.00, -1.00, 0.0, 46.0)"><path d="M 39.0 18.2 C 39.4 18.5 39.3 19.6 39.7 19.9 M 39.0 18.2 C 37.5 20.0 37.8 21.5 37.3 23.5 C 37.2 25.6 39.2 23.5 40.0 23.8 C 40.6 27.5 38.7 27.1 36.7 26.0 C 37.8 27.5 33.4 29.3 36.1 30.4 C 37.9 28.1 37.4 29.0 36.9 30.1 C 36.5 31.3 36.0 32.9 38.3 31.1 C 39.0 30.8 38.6 32.6 38.1 33.2 C 40.4 32.4 38.9 36.3 41.9 33.6 C 43.6 34.2 42.7 34.6 45.2 32.8 C 45.9 31.9 45.1 32.0 44.7 32.0 C 43.1 30.7 47.2 29.3 46.4 27.0 C 49.4 25.6 46.4 23.2 45.2 24.6 C 45.6 22.9 48.2 20.3 46.0 18.8 C 47.0 17.5 44.4 13.1 43.9 16.3 C 43.7 18.6 42.1 16.8 41.5 16.8 C 41.2 17.6 42.7 19.7 42.2 20.2 C 41.7 19.5 40.1 16.9 40.9 19.9 C 39.8 19.2 39.8 20.7 39.0 18.2 C 39.0 18.2 39.0 18.2 39.0 18.2 Z M 37.5 27.2 C 36.9 27.0 37.9 26.5 37.5 27.2 C 37.5 27.2 37.5 27.2 37.5 27.2 Z M 47.5 20.2 C 46.9 20.3 47.4 18.7 47.5 20.2 C 47.5 20.2 47.5 20.2 47.5 20.2 Z M 45.1 31.3 C 44.5 31.0 45.8 30.0 45.1 31.3 C 45.1 31.3 45.1 31.3 45.1 31.3 Z M 38.6 25.1 C 39.5 23.9 39.3 26.6 38.6 26.6 C 38.8 26.3 38.0 25.4 38.6 25.1 C 38.6 25.1 38.6 25.1 38.6 25.1 Z M 42.6 25.7 C 42.4 25.5 42.4 24.7 43.1 24.9 C 43.2 25.4 42.8 25.9 42.6 25.7 C 42.6 25.7 42.6 25.7 42.6 25.7 Z M 36.0 32.2 C 36.0 31.9 36.4 31.3 36.8 31.9 C 36.7 32.3 36.1 32.5 36.0 32.2 C 36.0 32.2 36.0 32.2 36.0 32.2 Z M 40.7 23.7 C 40.8 23.3 41.5 23.1 41.5 23.6 C 41.2 23.9 41.0 25.0 40.7 23.7 C 40.7 23.7 40.7 23.7 40.7 23.7 Z M 38.3 21.4 C 38.5 20.3 39.7 22.5 39.4 22.5 C 38.9 22.9 37.8 22.1 38.3 21.4 C 38.3 21.4 38.3 21.4 38.3 21.4 Z M 41.7 22.9 C 42.0 21.7 42.2 23.4 41.7 22.9 C 41.7 22.9 41.7 22.9 41.7 22.9 Z M 40.8 34.7 C 42.1 33.7 40.7 35.5 40.8 34.7 C 40.8 34.7 40.8 34.7 40.8 34.7 Z M 46.7 28.0 C 47.4 26.4 47.0 28.8 46.7 28.0 C 46.7 28.0 46.7 28.0 46.7 28.0 Z M 39.1 28.2 C 38.2 30.0 37.3 27.7 39.1 28.2 C 39.1 28.2 39.1 28.2 39.1 28.2 Z M 37.4 18.9 C 38.0 20.5 35.9 19.8 37.4 18.9 C 37.4 18.9 37.4 18.9 37.4 18.9 Z M 32.9 33.2 C 34.2 31.9 27.4 32.8 30.8 34.3 C 32.3 36.1 27.6 37.4 28.3 35.1 C 26.9 35.1 27.0 35.0 26.3 36.1 C 25.9 34.4 23.2 33.5 22.0 34.2 C 21.1 35.4 24.1 34.8 21.9 35.9 C 17.8 35.5 22.1 37.6 19.7 38.9 C 19.5 38.8 19.7 37.9 19.1 38.3 C 18.4 39.9 21.3 41.9 19.4 42.8 C 20.4 42.7 24.5 45.2 22.8 43.5 C 22.3 41.8 27.7 45.4 27.1 42.8 C 28.6 43.9 29.7 41.9 31.5 43.0 C 32.7 43.0 32.2 41.6 32.0 41.4 C 31.4 40.2 34.3 43.6 34.9 40.8 C 35.3 41.3 39.4 38.7 35.9 39.6 C 36.8 39.3 41.4 36.5 37.8 36.3 C 34.3 37.7 38.7 32.5 35.8 34.6 C 33.4 36.1 33.3 36.6 34.2 34.4 C 34.7 34.2 36.8 32.3 34.3 32.9 C 34.1 33.5 33.0 33.9 32.9 33.2 C 32.9 33.2 32.9 33.2 32.9 33.2 Z M 35.3 35.9 C 34.0 36.9 34.7 35.2 35.3 35.9 C 35.3 35.9 35.3 35.9 35.3 35.9 Z M 31.4 43.6 C 29.4 44.3 31.0 42.8 31.4 43.6 C 31.4 43.6 31.4 43.6 31.4 43.6 Z M 29.0 34.2 C 28.6 35.1 27.7 32.7 29.0 34.2 C 29.0 34.2 29.0 34.2 29.0 34.2 Z M 33.9 40.6 C 33.8 40.6 34.1 40.2 34.3 39.9 C 34.3 40.0 34.0 40.5 33.9 40.6 C 33.9 40.6 33.9 40.6 33.9 40.6 Z M 26.9 34.7 C 25.2 36.1 26.3 32.8 26.9 34.7 C 26.9 34.7 26.9 34.7 26.9 34.7 Z M 22.8 37.0 C 22.2 39.5 20.6 36.2 22.8 37.0 C 22.8 37.0 22.8 37.0 22.8 37.0 Z M 26.1 42.7 C 26.6 42.1 26.7 43.0 26.1 42.7 C 26.1 42.7 26.1 42.7 26.1 42.7 Z M 38.3 38.7 C 38.4 38.0 38.9 38.7 38.3 38.7 C 38.3 38.7 38.3 38.7 38.3 38.7 Z M 22.5 42.3 C 22.9 41.4 23.5 42.9 22.5 42.3 C 22.5 42.3 22.5 42.3 22.5 42.3 Z M 28.9 35.3 C 30.2 32.9 31.8 37.6 28.9 35.3 C 28.9 35.3 28.9 35.3 28.9 35.3 Z M 31.9 34.0 C 32.8 33.0 32.3 35.2 31.6 35.2 C 31.6 34.9 31.8 34.2 31.9 34.0 C 31.9 34.0 31.9 34.0 31.9 34.0 Z M 27.0 35.9 C 28.2 34.8 28.3 36.3 27.0 35.9 C 27.0 35.9 27.0 35.9 27.0 35.9 Z M 29.8 34.1 C 30.5 34.1 29.5 34.5 29.8 34.1 C 29.8 34.1 29.8 34.1 29.8 34.1 Z M 24.6 33.9 C 25.1 34.2 24.1 34.2 24.6 33.9 C 24.6 33.9 24.6 33.9 24.6 33.9 Z M 32.7 32.3 C 33.3 32.2 32.4 32.8 32.7 32.3 C 32.7 32.3 32.7 32.3 32.7 32.3 Z M 25.0 35.3 C 24.9 36.2 26.5 38.4 23.3 36.4 C 22.8 35.7 24.2 34.5 25.0 35.3 C 25.0 35.3 25.0 35.3 25.0 35.3 Z M 35.9 13.6 C 38.0 17.6 38.2 18.4 39.3 18.6 C 40.5 18.8 41.7 18.0 42.2 18.1 C 43.9 18.9 44.5 17.5 44.4 15.0 C 45.3 13.3 44.0 12.7 42.9 12.4 C 41.7 12.2 40.7 12.2 41.3 10.5 C 41.8 7.9 40.3 7.8 39.2 8.0 C 38.1 8.3 37.3 8.7 38.0 6.5 C 39.1 5.9 34.6 4.3 34.8 4.7 C 33.7 1.9 29.3 4.6 29.2 5.0 C 28.0 4.1 27.7 -0.2 23.4 3.1 C 20.0 4.4 17.8 1.2 19.4 3.6 C 16.1 1.3 18.0 4.7 15.2 5.0 C 12.8 4.3 16.5 6.8 11.9 6.2 C 12.0 7.6 12.1 7.0 11.3 7.0 C 10.6 6.9 8.3 7.4 6.4 11.9 C 9.1 8.2 6.1 16.6 5.4 14.3 C 5.2 10.7 4.2 18.2 3.0 22.4 C 3.9 23.5 6.8 27.6 4.2 27.4 C 3.3 29.8 4.3 30.9 5.1 31.4 C 5.9 31.9 6.6 31.9 6.1 33.4 C 6.0 35.2 8.1 34.4 8.7 35.2 C 8.3 37.6 9.9 38.3 14.5 41.2 C 19.5 44.3 20.5 42.6 20.4 41.2 C 20.3 39.8 19.6 38.1 21.4 38.1 C 22.1 37.4 19.6 30.6 19.8 35.3 C 19.6 34.0 12.2 34.8 17.2 32.4 C 15.8 32.6 16.1 32.2 16.3 31.7 C 16.5 31.3 16.4 30.9 14.0 29.9 C 15.2 36.9 9.2 25.0 13.7 28.8 C 14.0 27.5 13.0 25.6 12.9 27.5 C 10.3 29.3 12.9 23.0 10.1 26.6 C 9.9 22.3 7.2 23.5 9.6 22.5 C 13.7 21.6 8.3 22.5 9.9 20.6 C 10.3 18.2 11.7 18.5 12.5 18.7 C 13.2 19.0 13.4 19.4 12.6 17.5 C 16.4 14.7 11.5 15.8 12.3 14.0 C 11.3 12.9 12.8 12.1 14.0 12.3 C 15.2 12.5 16.1 13.4 15.0 14.7 C 15.3 12.4 15.9 15.5 16.6 12.9 C 13.8 11.6 20.1 14.0 18.7 12.4 C 19.9 11.0 18.6 10.0 19.1 9.7 C 22.0 8.6 21.7 11.6 21.9 9.6 C 22.4 8.4 24.1 11.6 24.4 10.8 C 21.6 10.8 27.0 8.1 27.2 9.6 C 25.3 9.5 27.3 13.0 28.9 11.3 C 29.1 5.4 30.4 13.3 32.5 12.2 C 32.8 10.5 34.3 11.3 35.2 12.6 C 36.0 13.9 36.0 15.5 34.5 15.1 C 34.8 15.0 35.9 13.5 35.9 13.6 M 25.2 10.3 C 22.9 10.0 27.8 9.7 25.2 10.3 M 25.3 11.2 C 24.4 10.1 27.4 12.0 25.2 11.5 C 25.2 11.5 25.5 11.2 25.3 11.2 M 16.8 13.9 C 16.5 13.1 18.1 13.6 16.8 13.9 M 14.1 13.7 C 12.2 14.3 15.7 11.9 14.1 13.7 M 15.8 32.8 C 11.1 35.1 15.5 29.2 15.8 32.8 M 12.0 20.6 C 11.8 18.2 13.7 21.8 12.0 20.6 M 11.0 19.6 C 10.6 18.3 12.1 19.6 11.0 19.6 M 12.9 29.7 C 12.9 29.9 12.9 29.9 12.9 29.7 C 12.9 29.7 12.9 29.7 12.9 29.7 Z M 17.7 34.2 C 17.7 34.1 17.7 34.1 17.7 34.2 C 17.7 34.2 17.7 34.2 17.7 34.2 Z M 10.3 24.1 C 11.2 22.1 11.1 27.2 10.3 24.1 C 10.3 24.1 10.3 24.1 10.3 24.1 Z M 10.4 37.8 C 10.2 37.7 10.2 37.7 10.4 37.8 C 10.4 37.8 10.4 37.8 10.4 37.8 Z M 27.4 8.3 C 27.5 8.3 27.5 8.3 27.4 8.3 C 27.4 8.3 27.4 8.3 27.4 8.3 Z M 34.0 12.8 C 34.2 12.2 34.7 14.0 34.0 12.8 C 34.0 12.8 34.0 12.8 34.0 12.8 Z M 42.7 14.8 C 42.8 14.9 42.8 14.9 42.7 14.8 C 42.7 14.8 42.7 14.8 42.7 14.8 Z M 30.8 6.5 C 30.9 6.5 30.9 6.5 30.8 6.5 C 30.8 6.5 30.8 6.5 30.8 6.5 Z M 28.7 9.6 C 29.3 12.4 26.0 8.3 28.7 9.6 C 28.7 9.6 28.7 9.6 28.7 9.6 Z M 3.8 21.2 C 5.0 21.4 3.2 23.6 3.8 21.2 C 3.8 21.2 3.8 21.2 3.8 21.2 Z M 13.1 13.2 C 13.3 13.9 12.0 13.9 13.1 13.2 C 13.1 13.2 13.1 13.2 13.1 13.2 Z M 18.5 13.4 C 18.5 14.1 17.5 13.7 18.5 13.4 C 18.5 13.4 18.5 13.4 18.5 13.4 Z M 33.4 13.3 C 33.2 13.3 33.2 13.3 33.4 13.3 C 33.4 13.3 33.4 13.3 33.4 13.3 Z M 32.1 10.2 C 32.8 13.3 29.9 7.8 32.1 10.2 C 32.1 10.2 32.1 10.2 32.1 10.2 Z M 35.4 11.5 C 35.1 10.0 37.3 13.5 35.4 11.5 M 35.6 7.1 C 32.4 6.4 40.3 4.8 35.6 7.1 C 35.6 7.1 35.6 7.1 35.6 7.1 Z M 20.3 3.8 C 20.1 3.8 20.1 3.8 20.3 3.8 C 20.3 3.8 20.3 3.8 20.3 3.8 Z M 23.0 10.5 C 21.0 10.7 24.1 9.8 23.0 10.5 C 23.0 10.5 23.0 10.5 23.0 10.5 Z M 36.8 17.4 C 36.0 15.8 37.9 18.1 36.8 17.4 C 36.8 17.4 36.8 17.4 36.8 17.4 Z M 13.1 9.7 C 10.0 12.7 14.4 7.1 13.1 9.7 C 13.1 9.7 13.1 9.7 13.1 9.7 Z M 9.3 23.1 C 9.3 23.2 9.3 23.2 9.3 23.1 C 9.3 23.1 9.3 23.1 9.3 23.1 Z M 10.5 25.2 C 10.5 25.2 10.5 25.2 10.5 25.2 C 10.5 25.2 10.5 25.2 10.5 25.2 Z M 13.8 34.9 C 13.9 35.1 13.9 35.1 13.8 34.9 C 13.8 34.9 13.8 34.9 13.8 34.9 Z M 12.1 26.7 C 12.1 26.7 12.1 26.7 12.1 26.7 C 12.1 26.7 12.1 26.7 12.1 26.7 Z M 15.0 32.0 C 15.1 32.2 15.1 32.2 15.0 32.0 C 15.0 32.0 15.0 32.0 15.0 32.0 Z M 15.9 29.9 C 15.9 30.1 15.9 30.1 15.9 29.9 C 15.9 29.9 15.9 29.9 15.9 29.9 Z M 3.5 16.2 C 3.3 16.4 3.3 16.4 3.5 16.2 C 3.5 16.2 3.5 16.2 3.5 16.2 Z M 30.2 12.4 C 30.2 12.2 30.2 12.2 30.2 12.4 C 30.2 12.4 30.2 12.4 30.2 12.4 Z M 14.0 32.4 C 14.0 32.4 14.0 32.4 14.0 32.4 C 14.0 32.4 14.0 32.4 14.0 32.4 Z M 9.3 16.9 C 7.3 16.2 12.4 16.6 9.2 17.4 C 9.1 17.3 9.6 17.0 9.3 16.9 M 5.1 18.4 C 5.1 18.3 5.1 18.3 5.1 18.4 C 5.1 18.4 5.1 18.4 5.1 18.4 Z M 9.4 8.7 C 9.5 8.5 9.5 8.5 9.4 8.7 C 9.4 8.7 9.4 8.7 9.4 8.7 Z M 12.3 25.6 C 13.3 25.1 11.7 27.3 12.1 25.4 M 11.6 37.8 C 12.0 36.7 13.0 40.2 11.3 37.6 M 38.4 18.9 C 39.3 18.9 38.3 20.3 38.4 18.9 M 10.6 6.2 C 10.4 5.2 12.7 5.3 10.6 6.2 M 8.8 11.7 C 10.0 12.1 6.4 13.1 9.0 11.3 M 6.8 32.3 C 6.9 32.4 6.9 32.4 6.8 32.3 C 6.8 32.3 6.8 32.3 6.8 32.3 Z M 20.0 11.0 C 19.9 11.0 19.9 11.0 20.0 11.0 C 20.0 11.0 20.0 11.0 20.0 11.0 Z M 11.2 14.6 C 13.3 14.4 9.3 15.5 11.2 14.6 M 22.0 7.7 C 24.2 9.3 18.7 7.6 22.0 7.7 M 16.0 41.0 C 14.4 37.7 17.4 43.0 16.0 41.0 M 11.0 28.7 C 12.3 25.8 10.5 30.6 11.0 28.7 M 18.0 10.7 C 18.7 11.8 15.9 11.0 18.0 10.7 M 36.1 15.4 C 37.1 16.9 33.8 14.2 36.1 15.4 M 4.5 25.9 C 4.4 26.1 4.4 26.1 4.5 25.9 C 4.5 25.9 4.5 25.9 4.5 25.9 Z M 35.4 3.6 C 35.3 3.5 35.3 3.5 35.4 3.6 C 35.4 3.6 35.4 3.6 35.4 3.6 Z M 21.3 34.7 C 21.4 34.8 21.4 34.8 21.3 34.7 C 21.3 34.7 21.3 34.7 21.3 34.7 Z M 9.5 27.9 C 9.4 28.1 9.4 28.1 9.5 27.9 C 9.5 27.9 9.5 27.9 9.5 27.9 Z M 18.2 33.1 C 18.3 33.3 18.3 33.3 18.2 33.1 C 18.2 33.1 18.2 33.1 18.2 33.1 Z M 6.8 21.3 C 6.7 21.4 6.7 21.4 6.8 21.3 C 6.8 21.3 6.8 21.3 6.8 21.3 Z M 13.0 21.0 C 12.9 21.0 12.9 21.0 13.0 21.0 C 13.0 21.0 13.0 21.0 13.0 21.0 Z M 13.3 14.6 C 13.2 14.6 13.2 14.6 13.3 14.6 C 13.3 14.6 13.3 14.6 13.3 14.6 Z M 12.3 23.3 C 12.8 26.4 10.2 21.8 12.3 23.3 C 12.3 23.3 12.3 23.3 12.3 23.3 Z M 8.2 15.2 C 8.1 15.2 8.1 15.2 8.2 15.2 C 8.2 15.2 8.2 15.2 8.2 15.2 Z M 12.2 16.7 C 12.5 19.7 9.1 16.3 12.2 16.7 M 21.4 11.6 C 20.9 12.7 20.7 10.3 21.4 11.6 M 25.5 3.2 C 25.5 3.1 25.5 3.1 25.5 3.2 C 25.5 3.2 25.5 3.2 25.5 3.2 Z M 23.9 3.8 C 23.7 3.8 23.7 3.8 23.9 3.8 C 23.9 3.8 23.9 3.8 23.9 3.8 Z M 23.8 11.5 C 23.7 11.5 23.7 11.5 23.8 11.5 C 23.8 11.5 23.8 11.5 23.8 11.5 Z M 23.5 1.6 C 23.3 1.5 23.3 1.5 23.5 1.6 C 23.5 1.6 23.5 1.6 23.5 1.6 Z M 13.1 19.8 C 13.1 19.9 13.1 19.9 13.1 19.8 C 13.1 19.8 13.1 19.8 13.1 19.8 Z M 20.2 33.0 C 20.2 33.1 20.2 33.1 20.2 33.0 C 20.2 33.0 20.2 33.0 20.2 33.0 Z M 40.4 10.7 C 40.4 10.5 40.4 10.5 40.4 10.7 C 40.4 10.7 40.4 10.7 40.4 10.7 Z M 10.4 21.1 C 10.3 21.1 10.3 21.1 10.4 21.1 C 10.4 21.1 10.4 21.1 10.4 21.1 Z M 29.4 4.0 C 29.4 3.9 29.4 3.9 29.4 4.0 C 29.4 4.0 29.4 4.0 29.4 4.0 Z M 11.1 20.0 C 11.1 20.0 11.1 20.0 11.1 20.0 C 11.1 20.0 11.1 20.0 11.1 20.0 Z M 3.8 25.1 C 3.8 25.2 3.8 25.2 3.8 25.1 C 3.8 25.1 3.8 25.1 3.8 25.1 Z M 4.4 31.8 C 4.4 31.9 4.4 31.9 4.4 31.8 C 4.4 31.8 4.4 31.8 4.4 31.8 Z M 8.0 24.3 C 7.9 24.4 7.9 24.4 8.0 24.3 C 8.0 24.3 8.0 24.3 8.0 24.3 Z M 30.6 7.0 C 39.4 11.8 22.9 5.6 30.6 7.0 M 7.7 25.9 C 6.9 19.4 11.1 30.6 7.7 25.9 C 8.5 26.5 7.8 26.0 7.7 25.9 " fill="#FEFFFE"></path></g></svg>