<?xml version="1.0" encoding="UTF-8" standalone="no"?><svg xmlns="http://www.w3.org/2000/svg" xmlns:xlink="http://www.w3.org/1999/xlink" clip-rule="evenodd" stroke-miterlimit="10" viewBox="0 0 29 30"><desc>SVG generated by Keynote</desc><defs></defs><g transform="matrix(1.00, 0.00, -0.00, -1.00, 0.0, 30.0)"><path d="M 12.5 24.8 C 12.4 25.0 11.7 24.8 11.6 24.9 M 12.5 24.8 C 11.6 23.9 10.6 23.9 9.2 23.7 C 7.8 23.7 9.5 24.5 9.5 24.9 C 7.6 25.3 7.4 24.6 7.5 23.6 C 6.9 24.3 4.7 23.1 5.2 24.3 C 8.3 24.3 3.0 24.6 5.7 25.4 C 6.0 25.5 5.2 25.9 4.9 25.9 C 5.9 26.4 4.3 27.0 5.9 27.4 C 6.1 28.1 5.8 27.8 6.9 28.4 C 7.4 28.5 7.2 28.2 7.1 28.0 C 7.1 27.1 8.4 28.5 9.2 28.0 C 10.3 29.2 10.7 27.8 9.9 27.3 C 10.7 27.4 12.0 28.6 12.5 27.8 C 13.2 28.4 15.1 28.0 13.5 27.2 C 12.5 26.8 13.3 26.4 13.3 26.1 C 12.9 25.9 11.9 26.2 11.6 26.0 C 11.9 25.8 13.2 25.4 11.6 25.4 C 12.0 25.0 11.1 24.8 12.5 24.8 C 12.5 24.8 12.5 24.8 12.5 24.8 Z M 7.1 24.1 C 7.1 23.8 7.6 24.2 7.1 24.1 C 7.1 24.1 7.1 24.1 7.1 24.1 Z M 12.0 28.4 C 11.9 28.1 12.6 28.4 12.0 28.4 C 12.0 28.4 12.0 28.4 12.0 28.4 Z M 7.4 28.1 C 7.3 27.7 8.0 28.1 7.4 28.1 C 7.4 28.1 7.4 28.1 7.4 28.1 Z M 8.5 24.4 C 9.4 24.6 7.9 24.8 7.7 24.5 C 7.9 24.5 8.2 24.1 8.5 24.4 C 8.5 24.4 8.5 24.4 8.5 24.4 Z M 9.0 26.2 C 9.1 26.1 9.4 26.0 9.5 26.4 C 9.2 26.4 9.0 26.3 9.0 26.2 C 9.0 26.2 9.0 26.2 9.0 26.2 Z M 4.6 24.9 C 4.6 24.8 5.0 24.7 4.9 25.1 C 4.7 25.1 4.5 25.0 4.6 24.9 C 4.6 24.9 4.6 24.9 4.6 24.9 Z M 9.6 25.2 C 9.9 25.2 10.0 25.5 9.8 25.6 C 9.6 25.4 9.0 25.4 9.6 25.2 C 9.6 25.2 9.6 25.2 9.6 25.2 Z M 10.6 24.1 C 11.4 24.3 10.1 24.8 10.1 24.6 C 9.8 24.4 10.2 23.9 10.6 24.1 C 10.6 24.1 10.6 24.1 10.6 24.1 Z M 10.2 25.6 C 10.8 25.8 10.0 25.9 10.2 25.6 C 10.2 25.6 10.2 25.6 10.2 25.6 Z M 5.2 27.2 C 5.9 27.4 5.0 27.5 5.2 27.2 C 5.2 27.2 5.2 27.2 5.2 27.2 Z M 8.9 28.2 C 9.6 28.4 8.6 28.4 8.9 28.2 C 8.9 28.2 8.9 28.2 8.9 28.2 Z M 7.1 25.0 C 6.1 25.0 6.8 24.2 7.1 25.0 C 7.1 25.0 7.1 25.0 7.1 25.0 Z M 12.1 24.1 C 11.2 24.0 11.7 23.3 12.1 24.1 C 12.1 24.1 12.1 24.1 12.1 24.1 Z M 6.1 24.7 C 6.2 25.7 7.3 22.3 6.0 23.4 C 5.0 23.7 5.1 21.2 6.1 22.1 C 6.2 21.4 6.2 21.4 5.8 20.9 C 6.5 20.9 6.9 19.4 6.5 18.7 C 5.9 18.1 6.4 19.8 5.7 18.6 C 5.5 16.4 5.0 18.5 4.1 17.3 C 4.2 17.2 4.6 17.4 4.3 17.1 C 3.5 16.7 3.0 17.8 2.4 17.0 C 2.5 17.4 1.7 18.9 2.4 18.4 C 3.1 18.4 1.5 20.1 2.7 20.2 C 2.1 20.7 2.9 21.5 2.2 21.9 C 2.1 22.3 2.7 22.4 2.9 22.4 C 3.5 22.4 1.6 22.7 2.6 23.5 C 2.3 23.6 2.4 25.6 2.9 24.1 C 2.8 24.5 2.5 26.7 3.6 25.6 C 4.1 24.2 4.7 27.1 4.8 25.4 C 4.9 24.2 4.7 23.9 5.3 24.9 C 5.2 25.2 5.3 26.6 5.8 25.4 C 5.7 25.1 5.8 24.6 6.1 24.7 C 6.1 24.7 6.1 24.7 6.1 24.7 Z M 4.5 24.9 C 4.4 24.2 4.9 24.9 4.5 24.9 C 4.5 24.9 4.5 24.9 4.5 24.9 Z M 2.0 21.7 C 1.9 20.9 2.4 21.7 2.0 21.7 C 2.0 21.7 2.0 21.7 2.0 21.7 Z M 6.4 22.6 C 6.0 22.2 7.2 22.3 6.4 22.6 C 6.4 22.6 6.4 22.6 6.4 22.6 Z M 2.9 23.2 C 2.9 23.2 3.0 23.4 3.1 23.6 C 3.0 23.5 2.9 23.3 2.9 23.2 C 2.9 23.2 2.9 23.2 2.9 23.2 Z M 6.4 21.4 C 5.8 20.3 7.2 21.4 6.4 21.4 C 6.4 21.4 6.4 21.4 6.4 21.4 Z M 5.3 19.0 C 4.1 18.5 5.5 17.9 5.3 19.0 C 5.3 19.0 5.3 19.0 5.3 19.0 Z M 2.8 19.9 C 3.0 20.1 2.6 20.0 2.8 19.9 C 2.8 19.9 2.8 19.9 2.8 19.9 Z M 2.6 25.2 C 2.8 25.4 2.5 25.4 2.6 25.2 C 2.6 25.2 2.6 25.2 2.6 25.2 Z M 2.9 18.4 C 3.3 18.6 2.6 18.7 2.9 18.4 C 2.9 18.4 2.9 18.4 2.9 18.4 Z M 5.9 22.3 C 6.8 23.4 4.6 23.3 5.9 22.3 C 5.9 22.3 5.9 22.3 5.9 22.3 Z M 6.0 24.1 C 6.2 24.7 5.4 23.9 5.6 23.6 C 5.7 23.6 5.9 24.0 6.0 24.1 C 6.0 24.1 6.0 24.1 6.0 24.1 Z M 5.8 21.3 C 6.2 22.0 5.6 21.8 5.8 21.3 C 5.8 21.3 5.8 21.3 5.8 21.3 Z M 6.3 23.1 C 6.2 23.4 6.2 22.8 6.3 23.1 C 6.3 23.1 6.3 23.1 6.3 23.1 Z M 6.7 20.2 C 6.6 20.5 6.6 19.9 6.7 20.2 C 6.7 20.2 6.7 20.2 6.7 20.2 Z M 6.5 24.9 C 6.4 25.2 6.3 24.6 6.5 24.9 C 6.5 24.9 6.5 24.9 6.5 24.9 Z M 6.1 20.3 C 5.7 20.1 4.8 20.8 5.6 19.3 C 5.9 19.1 6.5 20.0 6.1 20.3 C 6.1 20.3 6.1 20.3 6.1 20.3 Z M 15.6 24.9 C 10.8 23.6 12.7 25.8 12.6 26.2 C 12.2 26.8 13.0 27.2 14.2 27.6 C 15.9 29.1 15.0 26.2 16.5 27.6 C 19.0 29.5 17.0 26.0 18.8 28.0 C 18.9 28.5 20.6 28.0 20.4 27.9 C 22.1 28.9 22.1 27.2 22.0 27.0 C 22.9 27.3 24.5 29.0 25.3 27.7 C 25.6 27.6 26.0 27.6 26.4 27.7 C 26.6 27.1 27.3 27.4 26.4 26.9 C 27.8 26.9 26.0 25.8 26.5 24.9 C 27.2 24.6 25.3 24.0 26.8 23.5 C 25.6 22.2 27.5 24.8 26.7 20.0 C 26.6 22.0 25.8 17.8 26.6 18.8 C 27.4 20.5 26.3 16.8 26.8 14.9 C 26.3 14.4 25.3 12.4 26.4 12.6 C 27.8 10.2 25.6 10.9 26.7 9.6 C 27.2 8.8 26.2 9.0 26.3 8.5 C 27.1 7.4 26.5 7.1 26.8 4.4 C 26.9 2.9 26.8 2.3 26.6 2.1 C 25.9 2.4 25.6 2.9 25.4 3.3 C 25.2 3.7 25.0 4.0 24.5 4.2 C 24.4 4.2 24.3 4.3 24.1 4.3 C 23.9 4.4 23.8 4.7 23.7 5.1 C 22.9 6.3 22.0 8.0 23.4 6.2 C 22.8 6.9 24.9 8.9 22.7 8.6 C 23.6 9.2 21.8 9.0 22.8 10.6 C 24.4 6.0 23.5 14.2 22.7 11.2 C 22.2 11.9 22.3 13.1 22.7 12.1 C 24.1 11.2 22.1 14.3 23.8 12.8 C 23.3 15.0 24.8 14.3 23.8 15.0 C 21.9 15.4 24.3 14.9 23.7 16.0 C 23.7 18.6 21.6 16.3 23.0 17.9 C 22.1 19.7 23.8 18.7 24.0 19.7 C 25.3 20.6 23.0 21.7 22.9 19.8 C 23.6 21.1 22.3 19.6 23.1 21.1 C 24.2 21.0 21.8 21.5 22.8 22.0 C 23.1 23.2 23.8 23.3 23.8 23.6 C 23.8 25.2 22.6 23.6 23.5 24.7 C 23.6 24.8 23.6 24.9 23.6 25.0 C 23.2 25.0 21.6 23.9 21.7 24.2 C 23.4 24.2 21.5 25.4 20.8 24.8 C 21.7 24.7 19.0 23.2 19.1 24.2 C 22.1 26.8 17.3 23.5 17.2 24.4 C 18.9 25.9 13.8 24.6 15.0 23.9 C 15.0 24.0 15.6 24.9 15.6 24.9 M 21.5 24.4 C 22.9 24.5 20.3 24.7 21.5 24.4 M 21.1 24.0 C 22.1 24.5 19.5 23.7 21.0 23.9 C 21.0 23.9 20.9 24.0 21.1 24.0 M 22.6 20.6 C 23.0 21.0 22.4 21.1 22.6 20.6 M 23.5 20.2 C 23.9 19.5 23.6 21.4 23.5 20.2 M 23.2 8.7 C 25.4 8.7 22.0 10.6 23.2 8.7 M 22.8 16.1 C 23.1 17.5 21.9 15.6 22.8 16.1 M 23.3 16.6 C 23.7 17.3 22.8 16.7 23.3 16.6 M 23.2 10.9 C 23.3 10.7 23.3 10.7 23.2 10.9 C 23.2 10.9 23.2 10.9 23.2 10.9 Z M 23.3 7.5 C 23.2 7.5 23.2 7.5 23.3 7.5 C 23.3 7.5 23.3 7.5 23.3 7.5 Z M 23.4 14.1 C 22.9 15.2 23.2 12.4 23.4 14.1 C 23.4 14.1 23.4 14.1 23.4 14.1 Z M 26.5 7.1 C 26.6 7.1 26.6 7.1 26.5 7.1 C 26.5 7.1 26.5 7.1 26.5 7.1 Z M 21.2 25.4 C 21.2 25.4 21.2 25.4 21.2 25.4 C 21.2 25.4 21.2 25.4 21.2 25.4 Z M 16.5 24.6 C 16.7 24.8 15.6 24.3 16.5 24.6 C 16.5 24.6 16.5 24.6 16.5 24.6 Z M 14.3 27.0 C 14.3 27.0 14.3 27.0 14.3 27.0 C 14.3 27.0 14.3 27.0 14.3 27.0 Z M 20.7 26.5 C 20.7 26.5 20.7 26.5 20.7 26.5 C 20.7 26.5 20.7 26.5 20.7 26.5 Z M 20.1 24.9 C 18.5 23.7 21.9 25.2 20.1 24.9 C 20.1 24.9 20.1 24.9 20.1 24.9 Z M 26.4 15.5 C 25.9 15.5 26.6 14.3 26.4 15.5 C 26.4 15.5 26.4 15.5 26.4 15.5 Z M 24.0 20.3 C 23.7 20.0 24.1 19.7 24.0 20.3 C 24.0 20.3 24.0 20.3 24.0 20.3 Z M 22.4 21.4 C 22.1 21.0 22.5 20.9 22.4 21.4 C 22.4 21.4 22.4 21.4 22.4 21.4 Z M 16.3 24.2 C 16.4 24.2 16.4 24.2 16.3 24.2 C 16.3 24.2 16.3 24.2 16.3 24.2 Z M 18.4 25.1 C 16.6 24.0 20.5 25.7 18.4 25.1 C 18.4 25.1 18.4 25.1 18.4 25.1 Z M 16.8 25.4 C 17.7 25.9 15.3 25.3 16.8 25.4 M 19.0 27.1 C 20.1 26.7 19.0 29.1 19.0 27.1 C 19.0 27.1 19.0 27.1 19.0 27.1 Z M 26.2 27.1 C 26.3 27.1 26.3 27.1 26.2 27.1 C 26.2 27.1 26.2 27.1 26.2 27.1 Z M 22.7 24.4 C 22.9 24.4 23.0 24.4 23.0 24.4 C 23.0 24.3 23.1 24.4 23.1 24.4 C 23.0 24.5 22.4 24.5 22.7 24.4 C 22.7 24.4 22.7 24.4 22.7 24.4 Z M 13.2 24.1 C 14.3 24.1 12.6 24.4 13.2 24.1 C 13.2 24.1 13.2 24.1 13.2 24.1 Z M 25.2 22.0 C 25.0 19.9 25.7 23.7 25.2 22.0 C 25.2 22.0 25.2 22.0 25.2 22.0 Z M 23.9 14.7 C 23.9 14.6 23.9 14.6 23.9 14.7 C 23.9 14.7 23.9 14.7 23.9 14.7 Z M 23.4 13.5 C 23.4 13.5 23.4 13.5 23.4 13.5 C 23.4 13.5 23.4 13.5 23.4 13.5 Z M 24.6 7.9 C 24.6 7.8 24.6 7.8 24.6 7.9 C 24.6 7.9 24.6 7.9 24.6 7.9 Z M 22.9 12.6 C 22.9 12.6 22.9 12.6 22.9 12.6 C 22.9 12.6 22.9 12.6 22.9 12.6 Z M 23.2 9.3 C 23.2 9.2 23.2 9.2 23.2 9.3 C 23.2 9.3 23.2 9.3 23.2 9.3 Z M 22.2 10.3 C 22.3 10.2 22.3 10.2 22.2 10.3 C 22.2 10.3 22.2 10.3 22.2 10.3 Z M 27.0 17.8 C 27.1 17.7 27.1 17.7 27.0 17.8 C 27.0 17.8 27.0 17.8 27.0 17.8 Z M 18.0 23.9 C 18.1 24.0 18.1 24.0 18.0 23.9 C 18.0 23.9 18.0 23.9 18.0 23.9 Z M 23.6 9.3 C 23.6 9.2 23.6 9.2 23.6 9.3 C 23.6 9.3 23.6 9.3 23.6 9.3 Z M 24.5 17.9 C 25.4 18.1 23.2 18.2 24.4 17.6 C 24.5 17.7 24.3 17.9 24.5 17.9 M 26.0 16.9 C 26.1 16.9 26.1 16.9 26.0 16.9 C 26.0 16.9 26.0 16.9 26.0 16.9 Z M 26.6 21.9 C 26.7 22.0 26.7 22.0 26.6 21.9 C 26.6 21.9 26.6 21.9 26.6 21.9 Z M 22.7 13.2 C 22.2 13.4 23.1 12.2 22.7 13.3 M 26.2 6.8 C 25.7 7.3 26.6 5.3 26.2 7.0 M 12.1 24.5 C 12.1 24.9 11.3 24.2 12.1 24.5 M 27.1 23.3 C 27.5 23.7 26.9 24.1 27.1 23.3 M 25.9 20.4 C 25.4 20.3 26.3 19.4 25.9 20.6 M 26.2 10.1 C 26.2 10.0 26.2 10.0 26.2 10.1 C 26.2 10.1 26.2 10.1 26.2 10.1 Z M 23.1 23.2 C 23.1 23.2 23.1 23.2 23.1 23.2 C 23.1 23.2 23.1 23.2 23.1 23.2 Z M 24.2 19.3 C 23.5 19.6 24.7 18.5 24.2 19.3 M 24.3 25.7 C 23.6 25.4 23.7 25.3 24.1 25.4 C 24.6 25.5 25.4 25.9 24.4 25.7 C 24.4 25.7 24.3 25.7 24.3 25.7 M 26.4 4.1 C 25.3 6.3 27.0 2.6 26.4 4.1 M 23.7 11.6 C 22.6 12.9 24.3 10.6 23.7 11.6 M 23.6 22.7 C 23.0 22.3 23.9 21.9 23.6 22.7 M 14.5 24.4 C 13.5 24.3 15.6 23.9 14.5 24.4 M 26.2 13.3 C 26.2 13.2 26.2 13.2 26.2 13.3 C 26.2 13.3 26.2 13.3 26.2 13.3 Z M 20.8 28.5 C 20.9 28.5 20.9 28.5 20.8 28.5 C 20.8 28.5 20.8 28.5 20.8 28.5 Z M 22.9 6.0 C 22.9 5.9 22.9 5.9 22.9 6.0 C 22.9 6.0 22.9 6.0 22.9 6.0 Z M 24.2 12.1 C 24.3 12.0 24.3 12.0 24.2 12.1 C 24.2 12.1 24.2 12.1 24.2 12.1 Z M 22.7 7.9 C 22.8 7.8 22.8 7.8 22.7 7.9 C 22.7 7.9 22.7 7.9 22.7 7.9 Z M 25.1 15.5 C 25.1 15.5 25.1 15.5 25.1 15.5 C 25.1 15.5 25.1 15.5 25.1 15.5 Z M 22.3 16.0 C 22.3 16.0 22.3 16.0 22.3 16.0 C 22.3 16.0 22.3 16.0 22.3 16.0 Z M 23.5 19.6 C 23.5 19.5 23.5 19.5 23.5 19.6 C 23.5 19.6 23.5 19.6 23.5 19.6 Z M 22.5 14.6 C 22.4 12.7 23.4 15.6 22.5 14.6 C 22.5 14.6 22.5 14.6 22.5 14.6 Z M 25.3 18.6 C 25.3 18.6 25.3 18.6 25.3 18.6 C 25.3 18.6 25.3 18.6 25.3 18.6 Z M 23.3 18.3 C 22.5 16.9 24.6 18.0 23.3 18.3 M 22.7 23.4 C 22.3 22.7 23.3 23.8 22.7 23.4 M 24.3 27.6 C 24.4 27.7 24.4 27.7 24.3 27.6 C 24.3 27.6 24.3 27.6 24.3 27.6 Z M 24.8 27.4 C 24.9 27.4 24.9 27.4 24.8 27.4 C 24.8 27.4 24.8 27.4 24.8 27.4 Z M 21.8 23.9 C 21.8 23.9 21.8 23.9 21.8 23.9 C 21.8 23.9 21.8 23.9 21.8 23.9 Z M 25.9 28.4 C 26.0 28.4 26.0 28.4 25.9 28.4 C 25.9 28.4 25.9 28.4 25.9 28.4 Z M 22.4 16.7 C 22.4 16.7 22.4 16.7 22.4 16.7 C 22.4 16.7 22.4 16.7 22.4 16.7 Z M 22.3 7.3 C 22.4 7.3 22.4 7.3 22.3 7.3 C 22.3 7.3 22.3 7.3 22.3 7.3 Z M 16.5 27.3 C 16.6 27.3 16.6 27.3 16.5 27.3 C 16.5 27.3 16.5 27.3 16.5 27.3 Z M 23.5 15.8 C 23.5 15.8 23.5 15.8 23.5 15.8 C 23.5 15.8 23.5 15.8 23.5 15.8 Z M 22.4 27.5 C 22.5 27.5 22.5 27.5 22.4 27.5 C 22.4 27.5 22.4 27.5 22.4 27.5 Z M 23.2 16.4 C 23.2 16.4 23.2 16.4 23.2 16.4 C 23.2 16.4 23.2 16.4 23.2 16.4 Z M 26.4 13.7 C 26.4 13.6 26.4 13.6 26.4 13.7 C 26.4 13.7 26.4 13.7 26.4 13.7 Z M 27.0 10.5 C 27.1 10.4 27.1 10.4 27.0 10.5 C 27.0 10.5 27.0 10.5 27.0 10.5 Z M 24.5 14.0 C 24.5 14.0 24.5 14.0 24.5 14.0 C 24.5 14.0 24.5 14.0 24.5 14.0 Z M 20.6 26.3 C 15.3 25.3 23.9 25.9 20.6 26.3 M 24.7 13.2 C 24.5 16.5 23.7 11.0 24.7 13.2 C 24.5 12.9 24.7 13.2 24.7 13.2 M 21.6 6.3 C 22.4 5.9 23.1 5.5 23.6 5.1 C 24.2 4.7 24.6 4.3 24.9 3.8 C 25.0 3.6 25.1 3.5 25.2 3.3 C 24.9 2.7 23.1 4.8 24.6 3.1 C 26.6 2.7 26.1 0.5 24.3 2.7 C 21.8 3.0 25.0 1.3 22.9 2.2 C 20.2 2.4 21.9 1.7 19.8 1.9 C 18.2 3.1 18.8 1.3 18.0 2.4 C 19.4 1.2 15.9 2.8 15.8 2.2 C 17.8 1.4 9.1 2.2 13.8 2.5 C 12.0 3.1 12.2 2.1 11.5 1.9 C 10.9 2.7 8.0 1.4 7.2 2.1 C 7.5 2.2 8.1 2.3 8.4 2.5 C 9.0 3.0 7.1 2.4 7.2 2.5 C 6.7 2.7 4.4 3.5 6.5 2.2 C 6.3 1.6 4.1 2.5 3.7 1.9 C 2.9 1.9 2.6 2.0 2.5 2.1 C 2.8 2.9 3.2 2.6 2.6 2.8 C 2.6 4.6 2.6 6.0 2.7 6.1 C 2.6 7.1 1.9 6.8 2.5 8.3 C 1.2 9.8 5.1 11.7 2.5 10.8 C 3.1 11.8 1.4 11.5 3.0 12.3 C 2.3 11.1 1.8 15.6 2.9 14.1 C 3.3 14.8 1.3 16.9 2.9 17.1 C 4.1 18.5 5.3 18.8 6.4 17.2 C 5.5 17.0 7.4 15.7 5.8 16.3 C 5.2 17.8 5.2 12.9 5.8 14.2 C 7.7 15.5 4.6 11.1 6.0 11.0 C 5.2 11.3 4.8 6.9 6.2 9.3 C 6.4 8.7 5.7 7.9 6.5 7.9 C 6.4 10.0 5.0 5.6 5.9 6.6 C 6.1 6.9 6.3 6.6 6.4 6.1 C 7.3 6.2 8.1 6.2 7.6 5.7 C 4.7 3.7 8.7 6.1 8.7 5.3 C 10.3 4.9 9.6 7.0 9.9 5.6 C 10.4 5.8 12.6 5.8 11.3 6.2 C 10.7 6.0 12.1 4.1 12.8 5.7 C 10.8 6.7 15.5 6.2 14.7 5.7 C 10.6 4.8 19.2 4.7 15.8 5.6 C 17.2 6.5 15.3 6.0 17.4 5.6 C 17.3 5.1 19.3 4.6 18.4 5.6 C 18.0 7.2 20.0 3.5 20.2 5.7 C 19.8 6.6 23.4 5.0 21.5 6.0 C 21.4 6.1 21.6 6.3 21.6 6.3 M 21.1 6.1 C 21.6 5.8 21.1 6.5 21.1 6.1 M 21.7 5.8 C 21.7 5.8 21.7 5.8 21.7 5.8 C 21.7 5.8 21.7 5.8 21.7 5.8 Z M 17.8 5.5 C 17.8 5.6 17.8 5.6 17.8 5.5 C 17.8 5.5 17.8 5.5 17.8 5.5 Z M 14.5 1.6 C 14.5 1.6 14.5 1.6 14.5 1.6 C 14.5 1.6 14.5 1.6 14.5 1.6 Z M 15.0 5.4 C 15.0 5.4 15.0 5.4 15.0 5.4 C 15.0 5.4 15.0 5.4 15.0 5.4 Z M 19.4 5.3 C 19.4 5.3 19.4 5.3 19.4 5.3 C 19.4 5.3 19.4 5.3 19.4 5.3 Z M 15.2 6.0 C 15.1 5.4 16.0 6.4 15.2 6.1 C 15.1 6.1 15.3 6.1 15.2 6.0 M 11.9 6.2 C 11.9 6.2 11.9 6.2 11.9 6.2 M 2.0 4.3 C 1.9 4.3 1.9 4.3 2.0 4.3 M 6.6 9.2 C 6.6 9.2 6.6 9.2 6.6 9.2 M 8.2 5.6 C 7.2 5.7 7.7 5.3 8.2 5.6 M 6.3 12.0 C 6.7 10.8 6.6 13.8 6.3 12.0 M 6.7 13.6 C 6.6 13.7 6.6 13.7 6.7 13.6 M 6.4 6.9 C 6.4 6.8 6.4 6.8 6.4 6.9 C 6.4 6.9 6.4 6.9 6.4 6.9 Z M 8.8 5.9 C 10.4 6.2 7.9 6.4 8.8 5.9 M 17.1 6.1 C 16.3 6.4 17.3 5.3 17.1 6.1 M 18.8 5.8 C 18.8 5.7 18.8 5.7 18.8 5.8 C 18.8 5.8 18.8 5.8 18.8 5.8 Z M 6.3 9.6 C 6.3 9.6 6.3 9.6 6.3 9.6 C 6.3 9.6 6.3 9.6 6.3 9.6 Z M 6.5 11.4 C 6.4 11.4 6.4 11.4 6.5 11.4 C 6.5 11.4 6.5 11.4 6.5 11.4 Z M 2.1 11.7 C 2.1 11.6 2.1 11.6 2.1 11.7 C 2.1 11.7 2.1 11.7 2.1 11.7 Z M 18.3 3.9 C 19.4 4.3 16.6 5.4 17.1 4.3 C 17.1 3.9 18.1 4.1 18.3 3.9 M 9.1 4.6 C 7.9 3.1 11.1 6.6 9.1 4.6 M 5.7 13.2 C 3.9 13.4 6.9 12.6 5.7 13.2 M 6.0 15.8 C 5.6 16.3 5.8 11.3 6.3 15.1 C 6.5 15.6 6.2 15.6 6.0 15.8 M 11.6 5.5 C 11.0 4.7 13.4 5.9 11.6 5.5 M 3.4 4.1 C 4.0 5.2 4.4 7.3 3.5 5.7 C 2.4 4.7 3.0 2.9 3.4 4.1 M 21.4 5.3 C 19.6 6.6 22.3 4.2 21.4 5.3 M 17.2 5.2 C 17.1 5.2 17.1 5.2 17.2 5.2 C 17.2 5.2 17.2 5.2 17.2 5.2 Z M 15.4 5.4 C 15.4 5.3 15.4 5.3 15.4 5.4 M 19.9 6.4 C 19.9 6.3 19.9 6.3 19.9 6.4 M 4.8 5.4 C 4.7 5.4 4.7 5.4 4.8 5.4 M 8.3 5.3 C 5.5 4.0 9.0 5.0 8.3 5.3 M 11.7 2.8 C 10.8 2.2 13.0 2.8 11.7 2.8 M 6.1 5.9 C 5.6 5.9 5.3 5.3 5.3 4.9 C 5.2 4.4 5.5 4.3 6.1 5.7 C 6.1 5.8 6.1 5.8 6.1 5.9 M 9.2 5.4 C 9.1 5.4 9.1 5.4 9.2 5.4 C 9.2 5.4 9.2 5.4 9.2 5.4 Z M 3.3 4.5 C 3.3 4.4 3.3 4.4 3.3 4.5 C 3.3 4.5 3.3 4.5 3.3 4.5 Z M 3.4 5.1 C 3.3 5.0 3.3 5.0 3.4 5.1 C 3.4 5.1 3.4 5.1 3.4 5.1 Z M 6.3 7.5 C 6.3 7.4 6.3 7.4 6.3 7.5 C 6.3 7.5 6.3 7.5 6.3 7.5 Z M 20.6 2.4 C 19.1 2.3 22.0 2.2 20.6 2.4 C 20.6 2.4 20.6 2.4 20.6 2.4 Z M 14.0 6.0 C 11.9 5.0 15.3 5.1 14.0 6.0 C 14.0 6.0 14.0 6.0 14.0 6.0 Z M 11.5 4.4 C 11.4 4.3 11.4 4.3 11.5 4.4 C 11.5 4.4 11.5 4.4 11.5 4.4 Z M 7.5 6.6 C 7.4 6.5 7.4 6.5 7.5 6.6 C 7.5 6.6 7.5 6.6 7.5 6.6 Z M 19.9 2.2 C 20.0 2.1 20.0 2.1 19.9 2.2 C 19.9 2.2 19.9 2.2 19.9 2.2 Z M 5.6 10.5 C 5.6 10.4 5.6 10.4 5.6 10.5 C 5.6 10.5 5.6 10.5 5.6 10.5 Z M 5.5 2.7 C 5.4 3.2 5.1 2.4 5.5 2.7 C 5.5 2.7 5.5 2.7 5.5 2.7 Z M 3.3 2.7 C 3.2 2.7 3.2 2.7 3.3 2.7 C 3.3 2.7 3.3 2.7 3.3 2.7 Z M 6.8 14.1 C 6.8 14.2 6.8 14.2 6.8 14.1 C 6.8 14.1 6.8 14.1 6.8 14.1 Z M 1.9 7.1 C 1.9 7.1 1.9 7.1 1.9 7.1 C 1.9 7.1 1.9 7.1 1.9 7.1 Z M 3.4 9.9 C 3.4 9.9 3.4 9.9 3.4 9.9 C 3.4 9.9 3.4 9.9 3.4 9.9 Z M 6.0 6.9 C 6.2 9.0 5.4 6.0 6.0 6.9 C 6.0 6.9 6.0 6.9 6.0 6.9 Z M 3.8 15.3 C 3.7 15.3 3.7 15.3 3.8 15.3 C 3.8 15.3 3.8 15.3 3.8 15.3 Z M 5.5 17.1 C 5.4 17.1 5.4 17.1 5.5 17.1 C 5.5 17.1 5.5 17.1 5.5 17.1 Z M 6.4 17.9 C 6.3 17.9 6.3 17.9 6.4 17.9 C 6.4 17.9 6.4 17.9 6.4 17.9 Z M 15.7 3.6 C 15.7 3.6 15.7 3.6 15.7 3.6 C 15.7 3.6 15.7 3.6 15.7 3.6 Z M 16.0 6.3 C 16.0 6.3 16.0 6.3 16.0 6.3 C 16.0 6.3 16.0 6.3 16.0 6.3 Z M 13.9 6.4 C 13.9 6.4 13.9 6.4 13.9 6.4 C 13.9 6.4 13.9 6.4 13.9 6.4 Z M 16.4 1.9 C 16.5 1.9 16.5 1.9 16.4 1.9 C 16.4 1.9 16.4 1.9 16.4 1.9 Z M 6.1 4.2 C 6.2 4.3 6.2 4.3 6.1 4.2 C 6.1 4.2 6.1 4.2 6.1 4.2 Z M 4.2 3.1 C 4.3 3.2 4.3 3.2 4.2 3.1 C 4.2 3.1 4.2 3.1 4.2 3.1 Z M 5.7 1.7 C 5.7 1.7 5.7 1.7 5.7 1.7 C 5.7 1.7 5.7 1.7 5.7 1.7 Z M 2.5 2.3 C 2.5 2.3 2.5 2.3 2.5 2.3 C 2.5 2.3 2.5 2.3 2.5 2.3 Z M 24.2 2.4 C 24.2 2.4 24.2 2.4 24.2 2.4 C 24.2 2.4 24.2 2.4 24.2 2.4 Z M 22.7 4.5 C 22.8 4.4 22.8 4.4 22.7 4.5 C 22.7 4.5 22.7 4.5 22.7 4.5 Z M 7.2 5.8 C 7.2 6.2 5.8 5.2 7.2 5.8 M 10.2 5.5 C 10.2 5.4 10.2 5.4 10.2 5.5 C 10.2 5.5 10.2 5.5 10.2 5.5 Z M 6.0 10.5 C 5.2 10.3 6.5 9.2 6.0 10.5 C 6.0 10.5 6.0 10.5 6.0 10.5 Z M 2.5 5.6 C 2.5 5.6 2.5 5.6 2.5 5.6 C 2.5 5.6 2.5 5.6 2.5 5.6 Z M 2.9 7.0 C 2.8 7.0 2.8 7.0 2.9 7.0 C 2.9 7.0 2.9 7.0 2.9 7.0 Z M 5.1 14.2 C 5.1 14.3 5.1 14.3 5.1 14.2 M 11.0 6.2 C 10.4 5.9 10.5 5.9 11.0 6.2 M 6.0 11.7 C 6.0 11.6 6.0 11.6 6.0 11.7 C 6.0 11.7 6.0 11.7 6.0 11.7 Z M 5.6 15.6 C 5.6 15.6 5.6 15.6 5.6 15.6 C 5.6 15.6 5.6 15.6 5.6 15.6 Z M 13.0 5.7 C 12.8 4.7 13.3 4.9 13.0 5.7 M 19.7 5.3 C 19.7 5.3 19.7 5.3 19.7 5.3 C 19.7 5.3 19.7 5.3 19.7 5.3 Z M 19.7 5.3 " fill="#FEFFFE"></path></g></svg>