<?xml version="1.0" encoding="UTF-8" standalone="no"?><svg xmlns="http://www.w3.org/2000/svg" xmlns:xlink="http://www.w3.org/1999/xlink" clip-rule="evenodd" stroke-miterlimit="10" viewBox="0 0 342 184"><desc>SVG generated by Keynote</desc><defs></defs><g transform="matrix(1.00, 0.00, -0.00, -1.00, 0.0, 184.0)"><path d="M 189.6 154.5 C 190.0 155.1 189.5 156.9 189.9 157.3 M 189.6 154.5 C 187.1 156.5 186.9 159.5 186.4 163.5 C 186.3 167.8 188.8 163.1 189.9 163.5 C 190.9 169.2 189.0 169.3 186.2 168.7 C 186.7 169.2 186.8 169.3 186.9 171.3 C 187.1 173.3 187.7 175.4 188.7 177.0 C 190.7 180.2 193.5 181.2 193.2 179.0 C 189.4 176.9 189.4 174.9 189.5 174.9 C 189.7 175.0 190.6 176.3 191.9 177.2 C 193.3 178.1 194.9 178.5 195.4 178.3 C 195.8 178.1 194.8 177.7 193.2 175.5 C 192.8 174.3 195.4 175.4 196.3 175.7 C 195.2 174.6 196.2 174.1 196.7 173.5 C 197.1 172.9 197.1 172.2 197.1 171.4 C 197.8 170.6 198.1 170.5 198.3 170.3 C 198.5 170.2 198.7 169.9 199.6 170.1 C 199.9 170.4 199.1 170.4 198.6 170.4 C 196.1 170.8 200.0 167.7 198.4 165.6 C 201.8 163.2 197.9 161.5 196.4 163.4 C 196.8 161.3 200.3 158.6 197.9 156.8 C 199.6 155.4 198.4 150.0 196.4 153.6 C 195.0 156.2 194.0 153.7 193.3 153.5 C 192.5 154.4 193.6 157.5 193.0 158.0 C 192.4 157.1 191.2 153.2 191.3 157.5 C 190.2 156.3 189.5 158.6 189.6 154.5 C 189.6 154.5 189.6 154.5 189.6 154.5 Z M 187.7 170.1 C 186.8 170.2 187.8 168.7 187.7 170.1 C 187.7 170.1 187.7 170.1 187.7 170.1 Z M 199.6 158.3 C 198.7 158.4 199.6 156.7 199.6 158.3 C 199.6 158.3 199.6 158.3 199.6 158.3 Z M 198.7 170.4 C 197.8 170.4 198.7 168.8 198.7 170.4 C 198.7 170.4 198.7 170.4 198.7 170.4 Z M 188.3 166.1 C 189.1 163.6 189.6 168.0 188.7 168.4 C 188.8 168.0 187.6 166.7 188.3 166.1 C 188.3 166.1 188.3 166.1 188.3 166.1 Z M 193.4 165.4 C 193.1 165.2 193.0 164.2 193.9 164.2 C 194.1 164.8 193.8 165.5 193.4 165.4 C 193.4 165.4 193.4 165.4 193.4 165.4 Z M 197.0 178.7 C 196.7 179.0 195.0 178.7 195.4 177.9 C 196.4 178.0 197.4 178.4 197.0 178.7 C 197.0 178.7 197.0 178.7 197.0 178.7 Z M 190.7 163.1 C 190.8 162.5 191.6 162.2 191.7 162.9 C 191.3 163.3 191.2 165.1 190.7 163.1 C 190.7 163.1 190.7 163.1 190.7 163.1 Z M 187.7 159.6 C 188.1 157.6 189.5 161.5 189.1 161.5 C 188.4 162.2 187.0 160.8 187.7 159.6 C 187.7 159.6 187.7 159.6 187.7 159.6 Z M 191.9 161.8 C 192.3 160.1 192.5 162.5 191.9 161.8 C 191.9 161.8 191.9 161.8 191.9 161.8 Z M 197.3 172.0 C 197.0 171.4 197.8 171.6 197.3 172.0 C 197.3 172.0 197.3 172.0 197.3 172.0 Z M 199.1 166.5 C 199.5 164.7 199.8 167.2 199.1 166.5 C 199.1 166.5 199.1 166.5 199.1 166.5 Z M 190.1 170.5 C 190.1 173.0 189.9 173.3 189.5 172.8 C 189.1 172.4 188.9 171.0 190.1 170.5 C 190.1 170.5 190.1 170.5 190.1 170.5 Z M 187.5 155.0 C 187.4 157.9 185.2 155.7 187.5 155.0 C 187.5 155.0 187.5 155.0 187.5 155.0 Z M 202.1 180.3 C 199.4 180.8 210.1 183.7 206.0 180.2 C 204.9 177.3 212.1 177.6 210.2 180.2 C 212.4 180.6 212.4 180.7 213.6 179.4 C 213.9 181.5 219.0 182.6 220.8 181.4 C 221.9 179.7 217.4 181.2 220.3 179.3 C 226.7 178.8 219.9 177.3 222.4 174.9 C 222.6 174.9 222.7 176.1 223.3 175.4 C 223.6 173.2 219.9 171.7 221.6 170.0 C 220.7 170.4 216.1 167.9 218.0 169.9 C 218.6 172.0 213.0 167.4 213.4 170.8 C 211.9 169.2 210.3 171.4 208.8 169.5 C 207.7 169.1 207.7 170.9 207.8 171.3 C 208.0 172.9 206.5 167.7 204.7 170.5 C 204.5 169.7 199.4 170.0 203.2 171.3 C 202.1 171.1 196.3 170.3 199.4 173.4 C 203.4 174.8 195.1 176.6 199.9 176.7 C 203.6 177.0 204.3 176.4 201.6 178.1 C 200.7 177.9 196.5 178.2 200.1 179.6 C 200.9 179.2 202.6 179.5 202.1 180.3 C 202.1 180.3 202.1 180.3 202.1 180.3 Z M 201.4 175.8 C 203.5 175.6 201.5 176.9 201.4 175.8 C 201.4 175.8 201.4 175.8 201.4 175.8 Z M 209.1 168.8 C 211.3 168.6 209.3 169.9 209.1 168.8 C 209.1 168.8 209.1 168.8 209.1 168.8 Z M 208.8 181.1 C 209.8 180.1 210.1 183.4 208.8 181.1 C 208.8 181.1 208.8 181.1 208.8 181.1 Z M 205.6 171.3 C 205.7 171.3 205.2 171.7 204.8 171.9 C 204.9 171.8 205.4 171.4 205.6 171.3 C 205.6 171.3 205.6 171.3 205.6 171.3 Z M 212.4 181.1 C 215.5 179.5 213.0 183.6 212.4 181.1 C 212.4 181.1 212.4 181.1 212.4 181.1 Z M 218.8 178.0 C 219.2 174.8 222.1 178.7 218.8 178.0 C 218.8 178.0 218.8 178.0 218.8 178.0 Z M 214.4 171.0 C 213.8 171.7 213.9 170.6 214.4 171.0 C 214.4 171.0 214.4 171.0 214.4 171.0 Z M 200.5 170.5 C 200.0 171.2 200.0 170.1 200.5 170.5 C 200.5 170.5 200.5 170.5 200.5 170.5 Z M 218.4 171.3 C 218.1 172.5 217.2 170.7 218.4 171.3 C 218.4 171.3 218.4 171.3 218.4 171.3 Z M 209.4 179.8 C 206.5 182.3 205.9 176.1 209.4 179.8 C 209.4 179.8 209.4 179.8 209.4 179.8 Z M 204.2 180.1 C 202.2 180.6 204.5 178.5 205.4 178.8 C 205.3 179.1 204.5 179.9 204.2 180.1 C 204.2 180.1 204.2 180.1 204.2 180.1 Z M 212.4 179.5 C 210.4 180.8 210.6 178.8 212.4 179.5 C 212.4 179.5 212.4 179.5 212.4 179.5 Z M 207.4 180.9 C 206.4 180.6 208.2 180.6 207.4 180.9 C 207.4 180.9 207.4 180.9 207.4 180.9 Z M 216.3 182.2 C 215.4 181.9 217.2 181.8 216.3 182.2 C 216.3 182.2 216.3 182.2 216.3 182.2 Z M 201.7 181.4 C 200.7 181.1 202.6 181.0 201.7 181.4 C 201.7 181.4 201.7 181.4 201.7 181.4 Z M 215.5 180.5 C 215.8 179.3 213.1 176.8 218.1 178.9 C 219.0 179.8 216.8 181.4 215.5 180.5 C 215.5 180.5 215.5 180.5 215.5 180.5 Z M 189.7 145.9 C 186.1 158.7 192.4 154.9 193.6 155.3 C 195.3 156.8 196.4 154.9 197.5 152.2 C 201.5 148.8 193.5 148.8 197.4 146.2 C 202.7 141.5 192.8 143.2 198.4 140.5 C 199.8 140.7 198.7 135.9 198.3 136.4 C 200.9 133.2 196.2 130.9 195.7 131.0 C 196.5 129.1 201.4 127.4 197.7 123.3 C 196.4 119.7 201.3 116.1 197.9 118.5 C 201.8 114.0 196.8 116.8 198.1 113.4 C 200.2 110.5 194.8 114.6 198.9 109.3 C 195.7 109.0 201.0 110.1 198.7 101.0 C 198.4 106.0 196.2 97.5 198.3 98.4 C 200.6 100.7 197.4 94.1 198.8 88.8 C 197.7 88.2 194.8 84.4 197.9 83.5 C 201.6 76.5 195.7 80.0 198.7 76.2 C 200.0 73.8 197.3 74.9 197.5 73.7 C 199.7 70.6 198.2 70.1 198.9 63.7 C 200.0 49.9 193.0 65.9 192.3 61.7 C 191.2 61.7 183.7 73.7 189.3 67.1 C 187.7 69.1 193.6 75.2 187.4 74.3 C 189.9 76.4 184.9 75.2 187.8 80.8 C 192.2 67.4 189.6 91.5 187.5 82.8 C 186.2 85.2 186.4 89.1 187.5 85.6 C 191.4 82.0 185.7 93.7 190.5 86.8 C 189.1 94.0 193.5 90.0 190.4 93.4 C 185.3 97.7 191.8 92.3 190.3 96.5 C 190.2 104.1 184.3 101.2 188.2 103.8 C 185.6 112.2 190.5 104.3 191.2 106.6 C 194.7 105.7 188.4 115.4 187.9 110.0 C 189.8 112.1 186.2 111.2 188.5 113.6 C 191.8 109.7 185.0 119.3 187.6 117.3 C 188.5 120.0 190.4 117.7 190.5 118.6 C 190.5 123.1 187.3 122.9 189.7 122.9 C 191.1 123.5 186.8 127.1 187.8 127.3 C 188.0 122.6 191.3 130.0 189.5 131.1 C 189.3 128.3 185.2 133.8 187.8 134.8 C 195.1 130.4 185.9 139.3 188.5 140.7 C 192.5 137.7 189.0 150.7 187.1 146.5 C 187.5 146.7 189.8 145.8 189.7 145.9 M 188.4 128.4 C 188.7 124.5 189.2 132.3 188.4 128.4 M 187.3 128.9 C 188.7 126.8 186.3 132.8 186.9 128.9 C 186.9 128.8 187.3 129.2 187.3 128.9 M 187.2 113.4 C 188.3 113.4 186.5 115.8 187.2 113.4 M 189.7 109.3 C 190.8 106.3 189.9 112.7 189.7 109.3 M 188.9 74.9 C 194.9 74.6 185.5 80.7 188.9 74.9 M 187.7 98.5 C 188.5 102.3 185.2 98.4 187.7 98.5 M 189.2 99.0 C 190.2 100.5 187.8 100.1 189.2 99.0 M 188.9 81.5 C 189.0 81.1 189.0 81.1 188.9 81.5 C 188.9 81.5 188.9 81.5 188.9 81.5 Z M 189.1 71.1 C 189.0 71.1 189.0 71.1 189.1 71.1 C 189.1 71.1 189.1 71.1 189.1 71.1 Z M 189.5 91.2 C 188.1 95.1 189.0 86.2 189.5 91.2 C 189.5 91.2 189.5 91.2 189.5 91.2 Z M 198.2 70.1 C 198.3 70.2 198.3 70.2 198.2 70.1 C 198.2 70.1 198.2 70.1 198.2 70.1 Z M 191.1 130.6 C 191.2 130.7 191.2 130.7 191.1 130.6 C 191.1 130.6 191.1 130.6 191.1 130.6 Z M 188.9 143.0 C 189.7 142.7 188.3 145.3 188.9 143.0 C 188.9 143.0 188.9 143.0 188.9 143.0 Z M 195.7 151.4 C 195.8 151.5 195.8 151.5 195.7 151.4 C 195.7 151.4 195.7 151.4 195.7 151.4 Z M 194.3 133.7 C 194.4 133.9 194.4 133.9 194.3 133.7 C 194.3 133.7 194.3 133.7 194.3 133.7 Z M 189.9 133.3 C 186.6 136.1 190.7 128.5 189.9 133.3 C 189.9 133.3 189.9 133.3 189.9 133.3 Z M 197.8 90.7 C 196.4 91.4 198.3 87.6 197.8 90.7 C 197.8 90.7 197.8 90.7 197.8 90.7 Z M 191.0 108.3 C 190.3 108.1 191.4 106.4 191.0 108.3 C 191.0 108.3 191.0 108.3 191.0 108.3 Z M 186.6 116.6 C 185.8 116.4 186.9 114.8 186.6 116.6 C 186.6 116.6 186.6 116.6 186.6 116.6 Z M 188.0 143.0 C 187.8 142.8 187.8 142.8 188.0 143.0 C 188.0 143.0 188.0 143.0 188.0 143.0 Z M 190.5 138.2 C 187.4 141.9 192.1 133.2 190.5 138.2 C 190.5 138.2 190.5 138.2 190.5 138.2 Z M 191.4 143.1 C 192.6 141.2 190.8 147.0 191.4 143.1 M 196.1 139.0 C 194.8 135.7 201.6 141.2 196.1 139.0 C 196.1 139.0 196.1 139.0 196.1 139.0 Z M 197.3 119.7 C 197.5 119.4 197.5 119.4 197.3 119.7 C 197.3 119.7 197.3 119.7 197.3 119.7 Z M 188.3 124.8 C 188.4 121.6 189.0 126.6 188.3 124.8 C 188.3 124.8 188.3 124.8 188.3 124.8 Z M 187.6 152.0 C 187.7 148.9 188.3 153.9 187.6 152.0 C 187.6 152.0 187.6 152.0 187.6 152.0 Z M 194.3 109.9 C 193.8 104.8 196.0 112.5 194.3 109.9 C 194.3 109.9 194.3 109.9 194.3 109.9 Z M 190.7 92.3 C 190.8 92.1 190.8 92.1 190.7 92.3 C 190.7 92.3 190.7 92.3 190.7 92.3 Z M 189.5 89.5 C 189.5 89.3 189.5 89.3 189.5 89.5 C 189.5 89.5 189.5 89.5 189.5 89.5 Z M 192.6 72.7 C 192.8 72.4 192.8 72.4 192.6 72.7 C 192.6 72.7 192.6 72.7 192.6 72.7 Z M 188.0 87.1 C 188.0 87.0 188.0 87.0 188.0 87.1 C 188.0 87.1 188.0 87.1 188.0 87.1 Z M 188.8 76.6 C 188.9 76.3 188.9 76.3 188.8 76.6 C 188.8 76.6 188.8 76.6 188.8 76.6 Z M 186.1 79.7 C 186.2 79.4 186.2 79.4 186.1 79.7 C 186.1 79.7 186.1 79.7 186.1 79.7 Z M 199.6 95.1 C 199.7 94.8 199.7 94.8 199.6 95.1 C 199.6 95.1 199.6 95.1 199.6 95.1 Z M 186.9 137.8 C 187.2 137.5 187.2 137.5 186.9 137.8 C 186.9 137.8 186.9 137.8 186.9 137.8 Z M 190.0 76.6 C 190.1 76.4 190.1 76.4 190.0 76.6 C 190.0 76.6 190.0 76.6 190.0 76.6 Z M 192.4 100.3 C 195.1 98.9 189.0 104.1 192.3 99.7 C 192.4 99.8 192.0 100.7 192.4 100.3 M 196.8 94.7 C 196.9 94.8 196.9 94.8 196.8 94.7 C 196.8 94.7 196.8 94.7 196.8 94.7 Z M 198.4 105.7 C 198.5 105.8 198.5 105.8 198.4 105.7 C 198.4 105.7 198.4 105.7 198.4 105.7 Z M 187.5 89.2 C 186.0 90.5 188.6 85.8 187.5 89.6 M 197.3 69.6 C 195.8 71.0 198.4 65.9 197.3 70.0 M 188.6 155.4 C 189.7 155.7 187.9 157.6 188.6 155.4 M 199.8 107.8 C 201.0 107.8 199.2 110.3 199.8 107.8 M 196.5 103.7 C 195.0 104.9 197.6 100.3 196.5 104.1 M 197.2 77.7 C 197.2 77.5 197.2 77.5 197.2 77.7 C 197.2 77.7 197.2 77.7 197.2 77.7 Z M 188.6 119.9 C 188.6 119.8 188.6 119.8 188.6 119.9 C 188.6 119.9 188.6 119.9 188.6 119.9 Z M 191.7 104.8 C 189.7 107.6 193.0 101.7 191.7 104.8 M 192.1 122.6 C 189.6 126.2 192.9 117.9 192.1 122.6 M 197.9 63.0 C 194.8 68.3 199.5 59.5 197.9 63.0 M 190.3 83.4 C 187.3 88.3 191.9 80.2 190.3 83.4 M 189.9 116.6 C 188.3 117.4 190.8 113.2 189.9 116.6 M 188.3 148.4 C 188.1 151.3 187.1 144.8 188.3 148.4 M 197.3 85.5 C 197.4 85.3 197.4 85.3 197.3 85.5 C 197.3 85.5 197.3 85.5 197.3 85.5 Z M 199.9 136.1 C 200.0 135.9 200.0 135.9 199.9 136.1 C 199.9 136.1 199.9 136.1 199.9 136.1 Z M 188.0 66.0 C 188.0 65.8 188.0 65.8 188.0 66.0 C 188.0 66.0 188.0 66.0 188.0 66.0 Z M 191.7 84.5 C 191.9 84.3 191.9 84.3 191.7 84.5 C 191.7 84.5 191.7 84.5 191.7 84.5 Z M 187.5 72.1 C 187.7 71.8 187.7 71.8 187.5 72.1 C 187.5 72.1 187.5 72.1 187.5 72.1 Z M 194.0 92.9 C 194.1 92.8 194.1 92.8 194.0 92.9 C 194.0 92.9 194.0 92.9 194.0 92.9 Z M 186.3 98.8 C 186.4 98.7 186.4 98.7 186.3 98.8 C 186.3 98.8 186.3 98.8 186.3 98.8 Z M 189.6 107.5 C 189.7 107.5 189.7 107.5 189.6 107.5 C 189.6 107.5 189.6 107.5 189.6 107.5 Z M 186.9 93.9 C 186.5 88.0 189.5 95.6 186.9 93.9 C 186.9 93.9 186.9 93.9 186.9 93.9 Z M 194.6 100.8 C 194.7 100.7 194.7 100.7 194.6 100.8 C 194.6 100.8 194.6 100.8 194.6 100.8 Z M 189.2 104.2 C 187.0 101.4 192.9 100.3 189.2 104.2 M 187.4 122.2 C 186.2 121.4 189.2 120.9 187.4 122.2 M 197.5 125.7 C 197.6 125.7 197.6 125.7 197.5 125.7 C 197.5 125.7 197.5 125.7 197.5 125.7 Z M 196.7 124.1 C 196.8 123.8 196.8 123.8 196.7 124.1 C 196.7 124.1 196.7 124.1 196.7 124.1 Z M 186.9 126.5 C 187.0 126.4 187.0 126.4 186.9 126.5 C 186.9 126.5 186.9 126.5 186.9 126.5 Z M 199.6 122.9 C 199.7 122.6 199.7 122.6 199.6 122.9 C 199.6 122.9 199.6 122.9 199.6 122.9 Z M 186.5 101.1 C 186.6 101.0 186.6 101.0 186.5 101.1 C 186.5 101.1 186.5 101.1 186.5 101.1 Z M 186.4 69.9 C 186.5 69.8 186.5 69.8 186.4 69.9 C 186.4 69.9 186.4 69.9 186.4 69.9 Z M 196.4 145.9 C 196.5 145.7 196.5 145.7 196.4 145.9 C 196.4 145.9 196.4 145.9 196.4 145.9 Z M 189.6 96.2 C 189.7 96.1 189.7 96.1 189.6 96.2 C 189.6 96.2 189.6 96.2 189.6 96.2 Z M 197.0 130.6 C 197.1 130.5 197.1 130.5 197.0 130.6 C 197.0 130.6 197.0 130.6 197.0 130.6 Z M 188.9 98.6 C 189.0 98.5 189.0 98.5 188.9 98.6 C 188.9 98.6 188.9 98.6 188.9 98.6 Z M 197.9 86.1 C 197.9 86.0 197.9 86.0 197.9 86.1 C 197.9 86.1 197.9 86.1 197.9 86.1 Z M 199.6 77.9 C 199.7 77.8 199.7 77.8 199.6 77.9 C 199.6 77.9 199.6 77.9 199.6 77.9 Z M 192.5 89.6 C 192.6 89.5 192.6 89.5 192.5 89.6 C 192.5 89.6 192.5 89.6 192.5 89.6 Z M 193.7 133.9 C 191.1 147.2 192.5 124.1 193.7 133.9 M 193.2 87.1 C 192.5 96.4 190.2 81.8 193.2 87.1 C 192.4 86.6 193.1 87.0 193.2 87.1 M 186.7 63.9 C 189.5 65.4 192.3 63.4 195.2 59.7 C 196.6 56.8 190.9 61.1 195.8 57.4 C 196.7 61.1 202.9 50.2 196.8 54.9 C 195.9 49.9 200.7 51.0 198.3 49.5 C 197.6 43.9 199.5 45.5 199.1 41.1 C 195.7 41.2 200.7 37.0 197.6 38.5 C 201.0 37.9 196.6 34.3 198.2 32.7 C 200.3 35.2 198.2 16.5 197.2 28.6 C 195.6 25.5 198.5 23.7 198.9 21.8 C 197.9 21.7 198.3 19.5 198.7 17.2 C 197.1 16.7 195.4 16.3 193.0 17.2 C 193.1 17.7 194.3 17.8 194.1 18.5 C 193.6 19.8 191.2 18.1 191.5 18.2 C 189.0 18.9 179.7 20.7 190.9 17.4 C 192.9 15.8 183.9 18.0 185.5 16.5 C 178.8 16.2 180.7 19.7 180.1 17.1 C 175.3 16.9 171.8 16.8 171.5 17.2 C 168.9 16.7 169.9 14.8 165.7 16.6 C 162.7 12.8 155.7 23.3 159.3 16.2 C 156.3 17.8 158.4 13.2 155.1 17.5 C 158.8 15.6 147.6 13.8 150.4 17.2 C 148.3 18.2 144.8 12.4 142.6 16.9 C 137.5 20.0 135.6 23.2 139.0 26.5 C 140.3 23.9 142.9 29.3 142.0 24.8 C 138.3 23.2 152.3 23.6 148.1 25.1 C 143.2 30.2 157.5 22.1 157.3 25.9 C 156.6 23.7 168.9 23.1 162.2 26.8 C 163.9 27.2 166.1 25.4 166.3 27.7 C 160.0 27.1 172.6 23.8 170.0 26.1 C 167.6 27.5 176.4 29.0 177.4 26.8 C 179.0 21.4 179.0 28.0 182.8 26.0 C 189.5 25.0 177.4 30.4 185.4 26.7 C 185.6 27.0 187.0 27.2 188.1 27.4 C 187.8 29.5 187.6 31.0 186.9 29.0 C 187.5 26.7 192.9 27.7 188.2 32.8 C 185.6 27.5 186.8 43.1 188.2 39.2 C 190.8 24.7 191.1 49.6 188.6 42.2 C 186.0 49.7 187.6 41.5 188.7 47.2 C 190.1 45.1 191.6 49.1 188.6 50.3 C 184.2 54.9 194.5 47.4 188.5 56.3 C 185.9 58.9 190.4 63.0 187.5 62.2 C 187.2 62.2 186.7 63.7 186.7 63.9 M 187.2 61.1 C 188.2 61.3 186.0 63.5 187.2 61.1 M 188.2 61.4 C 188.1 61.5 188.1 61.5 188.2 61.4 C 188.2 61.4 188.2 61.4 188.2 61.4 Z M 188.9 48.0 C 188.7 48.2 188.7 48.2 188.9 48.0 C 188.9 48.0 188.9 48.0 188.9 48.0 Z M 199.9 27.9 C 199.8 28.1 199.8 28.1 199.9 27.9 C 199.9 27.9 199.9 27.9 199.9 27.9 Z M 189.1 39.2 C 189.1 39.3 189.1 39.3 189.1 39.2 C 189.1 39.2 189.1 39.2 189.1 39.2 Z M 189.5 52.0 C 189.5 52.2 189.5 52.2 189.5 52.0 C 189.5 52.0 189.5 52.0 189.5 52.0 Z M 187.5 41.4 C 189.1 39.3 186.3 45.4 187.2 41.5 C 187.3 41.3 187.3 41.9 187.5 41.4 M 186.8 31.0 C 187.0 30.7 187.0 30.7 186.8 31.0 M 176.1 15.3 C 176.2 15.1 176.2 15.1 176.1 15.3 M 162.5 28.0 C 162.4 27.8 162.4 27.8 162.5 28.0 M 179.7 26.7 C 176.0 26.8 179.6 25.9 179.7 26.7 M 154.3 26.7 C 157.7 27.9 149.0 27.5 154.3 26.7 M 149.4 27.6 C 149.1 27.4 149.1 27.4 149.4 27.6 M 169.2 27.6 C 169.4 27.5 169.4 27.5 169.2 27.6 C 169.2 27.6 169.2 27.6 169.2 27.6 Z M 180.5 27.4 C 184.1 28.4 174.5 28.8 180.5 27.4 M 187.3 47.8 C 186.4 46.1 189.4 46.1 187.3 47.8 M 188.2 52.1 C 188.3 52.1 188.3 52.1 188.2 52.1 C 188.2 52.1 188.2 52.1 188.2 52.1 Z M 161.1 27.1 C 161.3 27.0 161.3 27.0 161.1 27.1 C 161.1 27.1 161.1 27.1 161.1 27.1 Z M 155.9 27.2 C 156.1 27.2 156.1 27.2 155.9 27.2 C 155.9 27.2 155.9 27.2 155.9 27.2 Z M 157.4 15.1 C 157.6 15.0 157.6 15.0 157.4 15.1 C 157.4 15.1 157.4 15.1 157.4 15.1 Z M 193.2 44.2 C 192.4 48.2 189.3 44.1 192.2 42.2 C 193.5 40.8 193.0 44.0 193.2 44.2 M 187.4 24.0 C 190.5 19.9 185.1 29.5 187.4 24.0 M 150.9 24.9 C 151.5 20.0 152.3 28.4 150.9 24.9 M 143.5 25.5 C 142.2 24.5 156.6 25.4 145.3 26.3 C 143.7 27.0 143.7 26.0 143.5 25.5 M 188.8 28.9 C 191.1 25.7 187.8 35.1 188.8 28.9 M 176.6 19.4 C 173.6 20.8 168.0 21.9 172.2 19.5 C 175.1 16.4 179.8 18.3 176.6 19.4 M 189.5 58.4 C 185.9 58.5 192.7 56.1 189.5 58.4 M 189.9 45.0 C 189.7 45.1 189.7 45.1 189.9 45.0 C 189.9 45.0 189.9 45.0 189.9 45.0 Z M 189.3 40.4 C 189.6 39.9 189.6 39.9 189.3 40.4 M 186.3 58.8 C 186.6 58.3 186.6 58.3 186.3 58.8 M 173.2 23.1 C 173.2 22.8 173.2 22.8 173.2 23.1 M 181.6 25.8 C 180.0 22.1 185.0 25.2 181.6 25.8 M 196.4 24.0 C 198.2 20.8 196.6 27.2 196.4 24.0 M 172.0 26.9 C 171.6 23.5 180.0 23.9 172.0 26.9 M 183.8 26.3 C 183.5 26.3 183.5 26.3 183.8 26.3 C 183.8 26.3 183.8 26.3 183.8 26.3 Z M 175.6 19.0 C 175.7 19.0 175.7 19.0 175.6 19.0 C 175.6 19.0 175.6 19.0 175.6 19.0 Z M 173.8 19.1 C 174.0 19.0 174.0 19.0 173.8 19.1 C 173.8 19.1 173.8 19.1 173.8 19.1 Z M 167.3 27.1 C 167.5 27.0 167.5 27.0 167.3 27.1 C 167.3 27.1 167.3 27.1 167.3 27.1 Z M 197.7 44.8 C 197.9 40.8 198.2 47.3 197.7 44.8 C 197.7 44.8 197.7 44.8 197.7 44.8 Z M 187.5 37.4 C 190.3 29.0 190.1 39.2 187.5 37.4 C 187.5 37.4 187.5 37.4 187.5 37.4 Z M 192.0 26.5 C 192.2 26.3 192.2 26.3 192.0 26.5 C 192.0 26.5 192.0 26.5 192.0 26.5 Z M 172.3 29.0 C 172.5 28.8 172.5 28.8 172.3 29.0 C 172.3 29.0 172.3 29.0 172.3 29.0 Z M 198.1 42.5 C 198.3 42.4 198.3 42.4 198.1 42.5 C 198.1 42.5 198.1 42.5 198.1 42.5 Z M 158.8 25.0 C 159.0 24.8 159.0 24.8 158.8 25.0 C 158.8 25.0 158.8 25.0 158.8 25.0 Z M 186.1 18.8 C 183.5 20.1 186.8 17.8 186.1 18.8 C 186.1 18.8 186.1 18.8 186.1 18.8 Z M 180.6 18.6 C 180.4 18.6 180.4 18.6 180.6 18.6 C 180.6 18.6 180.6 18.6 180.6 18.6 Z M 147.8 27.8 C 147.7 27.8 147.7 27.8 147.8 27.8 C 147.8 27.8 147.8 27.8 147.8 27.8 Z M 169.2 15.0 C 169.0 15.0 169.0 15.0 169.2 15.0 C 169.2 15.0 169.2 15.0 169.2 15.0 Z M 161.1 18.8 C 161.2 18.7 161.2 18.7 161.1 18.8 C 161.1 18.8 161.1 18.8 161.1 18.8 Z M 169.0 26.4 C 163.1 26.8 171.6 24.9 169.0 26.4 C 169.0 26.4 169.0 26.4 169.0 26.4 Z M 146.6 19.4 C 146.6 19.2 146.6 19.2 146.6 19.4 C 146.6 19.4 146.6 19.4 146.6 19.4 Z M 140.3 23.9 C 140.3 23.7 140.3 23.7 140.3 23.9 C 140.3 23.9 140.3 23.9 140.3 23.9 Z M 137.1 26.3 C 137.1 26.1 137.1 26.1 137.1 26.3 C 137.1 26.3 137.1 26.3 137.1 26.3 Z M 194.3 36.0 C 194.2 36.3 194.2 36.3 194.3 36.0 C 194.3 36.0 194.3 36.0 194.3 36.0 Z M 186.7 44.8 C 186.6 44.9 186.6 44.9 186.7 44.8 C 186.7 44.8 186.7 44.8 186.7 44.8 Z M 186.3 38.0 C 186.3 38.1 186.3 38.1 186.3 38.0 C 186.3 38.0 186.3 38.0 186.3 38.0 Z M 199.0 33.3 C 198.9 33.5 198.9 33.5 199.0 33.3 C 199.0 33.3 199.0 33.3 199.0 33.3 Z M 180.7 22.8 C 180.7 22.9 180.7 22.9 180.7 22.8 C 180.7 22.8 180.7 22.8 180.7 22.8 Z M 181.0 19.7 C 180.9 19.9 180.9 19.9 181.0 19.7 C 181.0 19.7 181.0 19.7 181.0 19.7 Z M 191.4 15.9 C 191.4 16.0 191.4 16.0 191.4 15.9 C 191.4 15.9 191.4 15.9 191.4 15.9 Z M 181.4 17.0 C 181.4 17.1 181.4 17.1 181.4 17.0 C 181.4 17.0 181.4 17.0 181.4 17.0 Z M 197.6 53.6 C 197.6 53.6 197.6 53.6 197.6 53.6 C 197.6 53.6 197.6 53.6 197.6 53.6 Z M 191.7 58.6 C 191.9 58.6 191.9 58.6 191.7 58.6 C 191.7 58.6 191.7 58.6 191.7 58.6 Z M 175.8 26.9 C 173.5 28.1 174.9 25.2 175.8 26.9 M 186.9 26.5 C 187.0 26.4 187.0 26.4 186.9 26.5 C 186.9 26.5 186.9 26.5 186.9 26.5 Z M 158.7 26.1 C 159.4 23.8 162.5 27.4 158.7 26.1 C 158.7 26.1 158.7 26.1 158.7 26.1 Z M 172.7 16.8 C 172.7 16.7 172.7 16.7 172.7 16.8 C 172.7 16.8 172.7 16.8 172.7 16.8 Z M 169.1 17.6 C 169.1 17.4 169.1 17.4 169.1 17.6 C 169.1 17.6 169.1 17.6 169.1 17.6 Z M 148.5 23.3 C 148.4 23.1 148.4 23.1 148.5 23.3 M 186.1 28.6 C 185.6 27.5 185.7 27.7 186.1 28.6 M 155.3 25.9 C 155.5 25.8 155.5 25.8 155.3 25.9 C 155.3 25.9 155.3 25.9 155.3 25.9 Z M 144.2 24.4 C 144.4 24.4 144.4 24.4 144.2 24.4 C 144.2 24.4 144.2 24.4 144.2 24.4 Z M 188.4 33.6 C 191.3 30.7 190.6 32.7 188.4 33.6 M 189.3 53.3 C 189.5 53.1 189.5 53.1 189.3 53.3 C 189.3 53.3 189.3 53.3 189.3 53.3 Z M 126.4 25.9 C 129.7 29.1 132.9 24.8 132.9 24.7 C 128.1 30.5 139.7 22.6 139.4 21.4 C 140.2 20.6 143.1 10.3 134.6 16.3 C 132.9 17.1 133.5 15.3 132.8 15.1 C 125.5 15.1 135.5 18.4 126.9 18.1 C 125.9 17.2 130.9 12.5 123.5 15.6 C 123.6 15.2 118.9 13.2 119.7 15.5 C 118.3 13.1 114.8 15.8 111.9 16.2 C 110.3 14.8 116.0 12.8 106.0 15.2 C 104.5 11.0 99.5 18.0 98.6 13.5 C 96.5 13.2 89.7 20.5 96.6 16.5 C 95.6 16.9 96.8 20.5 91.0 19.0 C 92.4 18.1 99.8 10.8 87.5 14.0 C 85.9 13.8 81.1 15.5 80.5 14.7 C 86.2 14.1 74.5 11.2 74.9 13.5 C 67.0 11.7 70.6 15.2 65.5 12.5 C 60.5 12.2 65.9 15.9 60.5 13.7 C 55.8 13.9 59.5 12.2 59.9 12.3 C 56.0 11.8 54.1 13.1 52.8 13.0 C 52.0 12.6 50.6 11.0 49.1 12.8 C 44.0 16.1 46.9 19.6 44.2 22.9 C 46.7 24.7 46.2 20.4 47.5 23.0 C 49.6 20.9 47.7 23.2 55.9 23.0 C 55.9 22.4 54.4 20.9 56.4 20.8 C 59.5 21.1 55.4 26.8 61.9 22.9 C 56.2 21.5 71.2 21.4 65.9 20.0 C 73.4 19.5 67.8 20.5 72.5 22.1 C 73.7 18.2 71.2 26.2 74.4 23.2 C 74.2 24.8 82.5 24.3 77.7 21.8 C 86.7 21.1 80.3 23.1 82.4 25.2 C 86.1 25.6 85.6 19.0 85.8 23.8 C 89.8 26.1 87.1 21.4 89.0 25.2 C 89.0 21.9 92.7 25.4 93.1 21.8 C 102.0 21.8 90.1 25.5 97.4 23.3 C 95.6 23.1 93.8 27.9 99.2 24.9 C 100.6 19.2 101.1 30.1 102.7 22.5 C 116.2 20.8 103.0 25.7 109.5 25.9 C 111.2 25.9 109.2 23.4 110.7 23.4 C 118.6 24.7 110.3 26.4 117.1 23.0 C 126.2 22.3 117.5 26.1 121.4 26.5 C 122.9 24.8 128.3 22.0 126.4 25.9 M 120.1 23.8 C 117.6 24.9 119.8 22.6 120.1 23.8 M 135.8 26.2 C 133.2 27.2 135.6 24.9 135.8 26.2 M 112.5 24.7 C 109.4 25.8 112.9 22.7 112.5 24.7 M 67.9 21.4 C 71.1 21.5 66.1 22.3 67.9 21.4 M 128.9 26.2 C 125.5 27.5 129.7 24.1 128.9 26.2 M 134.1 23.4 C 133.9 23.3 133.9 23.3 134.1 23.4 M 62.3 24.3 C 62.2 24.2 62.2 24.2 62.3 24.3 M 74.3 24.7 C 71.8 24.6 76.1 24.0 74.3 24.7 M 80.0 12.4 C 77.3 12.2 81.9 11.6 80.0 12.4 M 55.7 24.2 C 52.8 25.1 55.4 22.8 55.7 24.2 M 49.8 21.3 C 47.1 22.3 48.6 19.9 49.8 21.3 M 124.5 19.6 C 124.6 19.5 124.6 19.5 124.5 19.6 C 124.5 19.6 124.5 19.6 124.5 19.6 Z M 103.3 15.8 C 105.4 17.1 100.7 14.2 103.3 15.8 M 103.0 24.0 C 102.6 21.4 106.3 24.3 103.0 24.0 C 103.0 24.0 103.0 24.0 103.0 24.0 Z M 107.6 23.0 C 107.7 22.9 107.7 22.9 107.6 23.0 C 107.6 23.0 107.6 23.0 107.6 23.0 Z M 95.0 22.4 C 95.1 22.4 95.1 22.4 95.0 22.4 C 95.0 22.4 95.0 22.4 95.0 22.4 Z M 97.7 22.3 C 99.0 21.8 98.9 22.9 97.7 22.3 C 97.7 22.3 97.7 22.3 97.7 22.3 Z M 82.8 13.7 C 84.1 13.2 84.0 14.3 82.8 13.7 C 82.8 13.7 82.8 13.7 82.8 13.7 Z M 102.2 21.6 C 103.9 19.1 103.1 23.3 102.2 21.6 C 102.2 21.6 102.2 21.6 102.2 21.6 Z M 91.4 15.2 C 89.9 15.8 90.1 12.7 91.4 15.2 M 59.9 23.7 C 58.6 24.4 58.4 21.2 59.9 23.7 M 86.0 25.3 C 84.6 26.0 84.8 22.9 86.0 25.3 M 118.0 24.9 C 117.9 24.6 117.9 24.6 118.0 24.9 M 109.4 13.6 C 107.1 14.4 109.1 12.4 109.4 13.6 M 135.2 15.3 C 132.8 16.1 135.1 14.1 135.2 15.3 M 67.9 12.2 C 67.7 12.9 65.1 11.8 67.9 12.2 M 84.8 21.2 C 82.6 20.8 80.8 19.4 85.7 19.7 C 85.7 20.3 84.0 20.6 84.8 21.2 C 84.8 21.2 84.8 21.2 84.8 21.2 Z M 78.8 15.2 C 78.5 14.9 78.5 14.9 78.8 15.2 M 79.6 23.4 C 79.4 23.1 79.4 23.1 79.6 23.4 M 66.1 22.7 C 65.9 22.3 65.9 22.3 66.1 22.7 M 64.1 23.4 C 64.2 23.2 64.2 23.2 64.1 23.4 C 64.1 23.4 64.1 23.4 64.1 23.4 Z M 48.9 23.9 C 49.0 23.8 49.0 23.8 48.9 23.9 C 48.9 23.9 48.9 23.9 48.9 23.9 Z M 70.5 22.5 C 70.6 22.4 70.6 22.4 70.5 22.5 C 70.5 22.5 70.5 22.5 70.5 22.5 Z M 61.4 12.5 C 61.4 12.4 61.4 12.4 61.4 12.5 C 61.4 12.5 61.4 12.5 61.4 12.5 Z M 62.5 14.1 C 62.5 14.0 62.5 14.0 62.5 14.1 C 62.5 14.1 62.5 14.1 62.5 14.1 Z M 125.2 25.8 C 122.0 27.5 127.0 21.5 125.2 25.8 M 55.6 13.8 C 54.0 12.0 59.3 13.6 55.6 13.8 C 55.6 13.8 55.6 13.8 55.6 13.8 Z M 73.0 20.5 C 73.0 20.1 73.0 20.1 73.0 20.5 M 63.3 23.1 C 63.3 22.7 63.3 22.7 63.3 23.1 M 101.8 26.3 C 101.8 26.0 101.8 26.0 101.8 26.3 M 53.0 22.2 C 46.8 21.4 57.0 18.7 53.0 22.2 M 106.1 24.0 C 106.1 24.2 106.1 24.2 106.1 24.0 M 94.1 18.9 C 89.7 18.9 96.4 17.5 94.1 18.9 M 81.6 21.7 C 81.8 21.5 81.8 21.5 81.6 21.7 C 81.6 21.7 81.6 21.7 81.6 21.7 Z M 88.0 21.9 C 91.3 21.6 88.4 22.6 88.0 21.9 C 88.0 21.9 88.0 21.9 88.0 21.9 Z M 123.8 23.5 C 120.0 23.0 128.5 22.8 123.8 23.5 C 123.8 23.5 123.8 23.5 123.8 23.5 Z M 57.8 16.5 C 58.0 16.3 58.0 16.3 57.8 16.5 C 57.8 16.5 57.8 16.5 57.8 16.5 Z M 70.6 24.3 C 72.7 23.7 71.2 25.1 70.6 24.3 C 70.6 24.3 70.6 24.3 70.6 24.3 Z M 46.7 23.8 C 48.8 23.2 47.4 24.6 46.7 23.8 C 46.7 23.8 46.7 23.8 46.7 23.8 Z M 128.3 24.0 C 116.1 19.4 147.2 25.8 128.3 24.0 C 128.3 24.0 128.3 24.0 128.3 24.0 Z M 84.6 23.5 C 84.8 23.3 84.8 23.3 84.6 23.5 C 84.6 23.5 84.6 23.5 84.6 23.5 Z M 110.7 26.1 C 110.9 26.0 110.9 26.0 110.7 26.1 C 110.7 26.1 110.7 26.1 110.7 26.1 Z M 116.8 24.0 C 116.9 23.9 116.9 23.9 116.8 24.0 C 116.8 24.0 116.8 24.0 116.8 24.0 Z M 121.7 14.2 C 121.8 14.1 121.8 14.1 121.7 14.2 C 121.7 14.2 121.7 14.2 121.7 14.2 Z M 117.2 18.6 C 117.6 18.3 117.6 18.3 117.2 18.6 C 117.2 18.6 117.2 18.6 117.2 18.6 Z M 128.1 17.3 C 128.4 17.1 128.4 17.1 128.1 17.3 C 128.1 17.3 128.1 17.3 128.1 17.3 Z M 128.8 16.0 C 128.9 15.9 128.9 15.9 128.8 16.0 C 128.8 16.0 128.8 16.0 128.8 16.0 Z M 64.3 20.3 C 64.5 20.1 64.5 20.1 64.3 20.3 C 64.3 20.3 64.3 20.3 64.3 20.3 Z M 71.1 16.4 C 67.0 17.7 73.0 14.3 71.1 16.4 C 71.1 16.4 71.1 16.4 71.1 16.4 Z M 101.4 19.4 C 97.9 19.8 104.2 18.2 101.4 19.4 C 101.4 19.4 101.4 19.4 101.4 19.4 Z M 100.7 14.0 C 100.7 14.0 100.7 14.0 100.7 14.0 C 100.7 14.0 100.7 14.0 100.7 14.0 Z M 115.2 26.3 C 115.5 26.1 115.5 26.1 115.2 26.3 C 115.2 26.3 115.2 26.3 115.2 26.3 Z M 122.1 24.9 C 123.7 22.8 123.2 25.9 122.1 24.9 M 92.4 25.1 C 92.5 24.8 92.5 24.8 92.4 25.1 C 92.4 25.1 92.4 25.1 92.4 25.1 Z M 75.4 21.2 C 75.5 21.1 75.5 21.1 75.4 21.2 C 75.4 21.2 75.4 21.2 75.4 21.2 Z M 56.5 22.0 C 56.7 21.7 56.7 21.7 56.5 22.0 C 56.5 22.0 56.5 22.0 56.5 22.0 Z M 81.1 24.4 C 81.3 24.2 81.3 24.2 81.1 24.4 C 81.1 24.4 81.1 24.4 81.1 24.4 Z M 90.7 22.8 C 90.9 22.6 90.9 22.6 90.7 22.8 C 90.7 22.8 90.7 22.8 90.7 22.8 Z M 53.3 18.9 C 53.5 18.8 53.5 18.8 53.3 18.9 C 53.3 18.9 53.3 18.9 53.3 18.9 Z M 78.9 24.7 C 79.0 24.6 79.0 24.6 78.9 24.7 C 78.9 24.7 78.9 24.7 78.9 24.7 Z M 76.4 17.9 C 76.6 17.7 76.6 17.7 76.4 17.9 C 76.4 17.9 76.4 17.9 76.4 17.9 Z M 119.3 27.8 C 119.5 27.7 119.5 27.7 119.3 27.8 C 119.3 27.8 119.3 27.8 119.3 27.8 Z M 52.3 21.7 C 52.4 21.6 52.4 21.6 52.3 21.7 C 52.3 21.7 52.3 21.7 52.3 21.7 Z M 50.7 23.5 C 50.8 23.4 50.8 23.4 50.7 23.5 C 50.7 23.5 50.7 23.5 50.7 23.5 Z M 67.1 14.0 C 73.4 15.4 60.9 14.3 65.0 16.7 C 55.3 16.9 65.7 13.9 67.1 14.0 C 67.1 14.0 67.1 14.0 67.1 14.0 Z M 41.8 23.9 C 46.2 21.3 46.9 18.5 46.0 15.6 C 44.6 14.1 43.2 19.7 44.3 14.9 C 48.8 14.2 44.2 7.7 42.8 13.9 C 37.0 14.6 42.8 9.9 38.8 12.3 C 32.7 12.7 36.2 10.9 31.4 11.2 C 28.1 14.4 28.9 9.4 27.2 12.6 C 30.1 9.2 22.1 13.4 22.1 11.8 C 26.8 9.8 6.0 11.2 17.0 12.6 C 12.4 14.1 13.5 11.2 12.0 10.7 C 9.8 12.7 4.6 8.9 1.7 10.8 C 2.2 11.3 3.6 11.5 4.0 12.2 C 4.5 13.2 2.4 12.4 1.5 12.0 L 1.5 20.3 C 1.8 20.4 1.9 20.4 1.8 20.4 C 3.6 19.6 10.7 17.3 3.2 21.2 C 2.8 22.8 9.3 20.2 9.2 21.7 C 15.9 21.6 10.7 18.3 13.8 20.7 C 18.5 20.6 21.9 20.5 21.9 20.1 C 24.8 20.4 25.5 22.3 28.0 20.3 C 34.1 23.8 31.6 13.2 34.3 20.3 C 35.8 18.5 37.8 23.1 37.2 18.7 C 35.4 20.8 47.4 21.9 42.0 18.8 C 43.3 17.7 51.3 23.1 49.8 18.6 C 52.1 15.2 51.3 11.9 45.2 9.0 C 46.1 11.5 38.9 6.5 43.6 10.8 C 48.7 12.1 34.6 12.7 37.5 11.0 C 37.8 5.7 30.9 14.5 27.7 10.8 C 30.3 12.8 18.9 14.2 22.0 10.2 C 19.8 9.9 19.5 11.8 17.0 9.6 C 23.9 9.7 14.6 13.8 14.9 11.4 C 16.0 9.9 5.8 9.0 6.9 11.2 C 10.7 16.6 4.2 10.2 2.5 12.4 C 2.0 12.5 1.6 12.6 1.3 12.6 L 1.3 19.7 C 4.5 19.8 -0.7 24.1 3.2 20.6 C 4.3 21.3 11.6 21.6 6.9 22.5 C 5.2 21.9 11.8 16.7 12.2 21.4 C 4.2 23.7 21.0 23.1 18.5 21.6 C 6.6 18.7 31.9 19.2 21.9 21.4 C 26.9 24.1 20.2 22.3 27.0 21.4 C 26.4 20.0 31.9 18.7 30.1 21.6 C 30.3 26.0 33.0 15.8 36.0 22.0 C 36.0 24.5 44.6 20.3 40.9 23.1 C 40.7 23.4 41.6 23.9 41.8 23.9 M 39.6 23.3 C 40.7 22.4 40.7 24.6 39.6 23.3 M 40.8 22.4 C 40.8 22.5 40.8 22.5 40.8 22.4 C 40.8 22.4 40.8 22.4 40.8 22.4 Z M 28.0 21.3 C 28.1 21.5 28.1 21.5 28.0 21.3 C 28.0 21.3 28.0 21.3 28.0 21.3 Z M 19.1 9.9 C 19.2 10.1 19.2 10.1 19.1 9.9 C 19.1 9.9 19.1 9.9 19.1 9.9 Z M 19.4 20.8 C 19.5 20.8 19.5 20.8 19.4 20.8 C 19.4 20.8 19.4 20.8 19.4 20.8 Z M 32.8 20.8 C 32.9 20.8 32.9 20.8 32.8 20.8 C 32.8 20.8 32.8 20.8 32.8 20.8 Z M 20.0 22.4 C 19.6 20.7 22.8 23.7 19.8 22.7 C 19.7 22.6 20.3 22.6 20.0 22.4 M 8.8 22.7 C 8.8 22.5 8.8 22.5 8.8 22.7 M 19.2 22.3 C 19.3 22.5 19.3 22.5 19.2 22.3 M 20.5 9.1 C 20.8 9.3 20.8 9.3 20.5 9.1 M 4.8 11.4 C 8.3 11.1 5.7 12.2 4.8 11.4 M 29.8 9.7 C 25.3 8.8 34.4 8.7 29.8 9.7 M 34.0 8.6 C 34.4 8.8 34.4 8.8 34.0 8.6 M 14.2 9.9 C 14.2 10.0 14.2 10.0 14.2 9.9 C 14.2 9.9 14.2 9.9 14.2 9.9 Z M 3.3 10.8 C -1.3 10.1 7.8 9.1 3.3 10.8 M 26.2 22.9 C 23.7 23.6 26.6 20.7 26.2 22.9 M 31.5 22.1 C 31.5 22.0 31.5 22.0 31.5 22.1 C 31.5 22.1 31.5 22.1 31.5 22.1 Z M 22.7 9.9 C 22.6 9.9 22.6 9.9 22.7 9.9 C 22.7 9.9 22.7 9.9 22.7 9.9 Z M 27.8 9.4 C 27.6 9.5 27.6 9.5 27.8 9.4 C 27.8 9.4 27.8 9.4 27.8 9.4 Z M 37.2 21.3 C 37.0 21.3 37.0 21.3 37.2 21.3 C 37.2 21.3 37.2 21.3 37.2 21.3 Z M 28.6 16.9 C 31.8 17.9 24.5 20.8 25.6 17.9 C 25.4 16.6 28.1 17.2 28.6 16.9 M 2.6 17.8 C 1.9 13.6 5.6 23.5 2.6 17.8 M 34.8 11.3 C 38.6 16.1 30.3 8.0 34.8 11.3 M 41.7 10.2 C 43.8 11.2 28.8 11.2 39.2 9.6 C 40.1 8.7 40.9 9.7 41.7 10.2 M 8.8 20.7 C 8.0 18.4 14.0 21.9 8.8 20.7 M 15.0 18.3 C 16.5 16.8 20.8 15.3 19.1 17.9 C 19.2 21.1 13.0 19.6 15.0 18.3 M 39.1 21.0 C 35.6 24.6 39.9 17.9 39.1 21.0 M 26.0 20.2 C 26.0 20.4 26.0 20.4 26.0 20.2 C 26.0 20.2 26.0 20.2 26.0 20.2 Z M 20.8 20.6 C 20.6 20.3 20.6 20.3 20.8 20.6 M 36.3 24.1 C 36.1 23.8 36.1 23.8 36.3 24.1 M 14.6 14.5 C 14.9 14.8 14.9 14.8 14.6 14.5 M 3.8 12.4 C 9.1 15.9 1.1 13.3 3.8 12.4 M 11.7 13.2 C 10.3 11.4 15.0 13.1 11.7 13.2 M 12.2 10.8 C 15.9 14.1 7.3 14.2 12.2 10.8 M 1.3 20.2 C 1.3 20.2 1.3 20.2 1.3 20.2 C 1.0 20.2 1.0 20.2 1.3 20.2 C 1.3 20.2 1.3 20.2 1.3 20.2 C 1.3 20.2 1.3 20.2 1.3 20.2 Z M 16.3 18.6 C 16.2 18.7 16.2 18.7 16.3 18.6 C 16.3 18.6 16.3 18.6 16.3 18.6 Z M 17.9 18.4 C 17.7 18.5 17.7 18.5 17.9 18.4 C 17.9 18.4 17.9 18.4 17.9 18.4 Z M 16.6 10.2 C 16.4 10.3 16.4 10.3 16.6 10.2 C 16.6 10.2 16.6 10.2 16.6 10.2 Z M 33.6 12.7 C 29.9 12.3 36.7 12.2 33.6 12.7 C 33.6 12.7 33.6 12.7 33.6 12.7 Z M 16.0 22.2 C 10.3 19.3 20.4 19.8 16.0 22.2 C 16.0 22.2 16.0 22.2 16.0 22.2 Z M 9.6 17.5 C 9.7 17.3 9.7 17.3 9.6 17.5 C 9.6 17.5 9.6 17.5 9.6 17.5 Z M 9.7 8.7 C 9.7 8.9 9.7 8.9 9.7 8.7 C 9.7 8.7 9.7 8.7 9.7 8.7 Z M 31.8 12.2 C 31.9 12.0 31.9 12.0 31.8 12.2 C 31.8 12.2 31.8 12.2 31.8 12.2 Z M 27.0 11.7 C 27.0 11.9 27.0 11.9 27.0 11.7 C 27.0 11.7 27.0 11.7 27.0 11.7 Z M 6.4 19.5 C 7.7 18.1 6.7 20.6 6.4 19.5 C 6.4 19.5 6.4 19.5 6.4 19.5 Z M 11.9 19.4 C 12.0 19.3 12.0 19.3 11.9 19.4 C 11.9 19.4 11.9 19.4 11.9 19.4 Z M 35.3 8.3 C 35.4 8.3 35.4 8.3 35.3 8.3 C 35.3 8.3 35.3 8.3 35.3 8.3 Z M 26.1 22.1 C 26.2 22.1 26.2 22.1 26.1 22.1 C 26.1 22.1 26.1 22.1 26.1 22.1 Z M 30.4 17.9 C 30.3 18.0 30.3 18.0 30.4 17.9 C 30.4 17.9 30.4 17.9 30.4 17.9 Z M 15.7 11.1 C 21.0 10.3 14.5 12.7 15.7 11.1 C 15.7 11.1 15.7 11.1 15.7 11.1 Z M 43.8 16.4 C 44.0 16.6 44.0 16.6 43.8 16.4 C 43.8 16.4 43.8 16.4 43.8 16.4 Z M 46.2 11.6 C 46.3 11.8 46.3 11.8 46.2 11.6 C 46.2 11.6 46.2 11.6 46.2 11.6 Z M 47.3 9.0 C 47.5 9.3 47.5 9.3 47.3 9.0 C 47.3 9.0 47.3 9.0 47.3 9.0 Z M 21.5 15.6 C 21.6 15.8 21.6 15.8 21.5 15.6 C 21.5 15.6 21.5 15.6 21.5 15.6 Z M 22.6 23.3 C 22.6 23.4 22.6 23.4 22.6 23.3 C 22.6 23.3 22.6 23.3 22.6 23.3 Z M 15.4 23.4 C 15.5 23.5 15.5 23.5 15.4 23.4 C 15.4 23.4 15.4 23.4 15.4 23.4 Z M 23.5 11.0 C 23.6 11.1 23.6 11.1 23.5 11.0 C 23.5 11.0 23.5 11.0 23.5 11.0 Z M 7.7 15.3 C 7.6 15.2 7.6 15.2 7.7 15.3 C 7.7 15.3 7.7 15.3 7.7 15.3 Z M 10.5 18.3 C 10.3 18.2 10.3 18.2 10.5 18.3 C 10.5 18.3 10.5 18.3 10.5 18.3 Z M 4.2 22.6 C 4.2 22.6 4.2 22.6 4.2 22.6 C 4.2 22.6 4.2 22.6 4.2 22.6 Z M 12.6 20.9 C 12.6 20.9 12.6 20.9 12.6 20.9 C 12.6 20.9 12.6 20.9 12.6 20.9 Z M 42.3 13.1 C 42.3 13.0 42.3 13.0 42.3 13.1 C 42.3 13.1 42.3 13.1 42.3 13.1 Z M 41.5 18.9 C 41.6 18.7 41.6 18.7 41.5 18.9 C 41.5 18.9 41.5 18.9 41.5 18.9 Z M 8.4 11.0 C 9.6 9.7 11.0 12.6 8.4 11.0 M 4.5 20.4 C 4.6 20.3 4.6 20.3 4.5 20.4 C 4.5 20.4 4.5 20.4 4.5 20.4 Z M 26.0 10.6 C 27.5 12.9 21.0 9.6 26.0 10.6 C 26.0 10.6 26.0 10.6 26.0 10.6 Z M 21.1 20.6 C 21.2 20.7 21.2 20.7 21.1 20.6 C 21.1 20.6 21.1 20.6 21.1 20.6 Z M 23.8 19.5 C 24.0 19.8 24.0 19.8 23.8 19.5 C 23.8 19.5 23.8 19.5 23.8 19.5 Z M 38.6 12.7 C 38.9 12.9 38.9 12.9 38.6 12.7 M 5.7 22.5 C 4.2 21.5 4.5 21.7 5.7 22.5 M 29.6 10.6 C 29.4 10.7 29.4 10.7 29.6 10.6 C 29.6 10.6 29.6 10.6 29.6 10.6 Z M 41.8 11.3 C 41.7 11.4 41.7 11.4 41.8 11.3 C 41.8 11.3 41.8 11.3 41.8 11.3 Z M 13.1 21.2 C 13.1 18.4 14.5 19.1 13.1 21.2 M 33.8 21.0 C 33.8 20.8 33.8 20.8 33.8 21.0 C 33.8 21.0 33.8 21.0 33.8 21.0 Z M 58.2 8.7 C 52.3 5.8 52.7 10.2 52.7 10.3 C 52.7 4.4 47.9 12.8 49.1 14.0 C 49.0 14.8 54.5 24.9 57.9 18.6 C 58.9 17.7 59.7 19.5 60.6 19.7 C 67.6 19.2 55.3 16.6 63.9 16.3 C 65.5 17.1 64.4 22.1 69.0 18.5 C 69.3 19.0 75.3 20.6 72.8 18.4 C 75.8 20.6 77.2 17.8 79.7 17.2 C 82.2 18.5 78.3 20.8 86.2 17.8 C 90.4 21.8 90.5 14.7 94.4 19.0 C 96.5 19.1 98.5 11.6 94.4 15.9 C 95.0 15.5 91.4 12.1 98.1 13.1 C 97.3 14.1 95.0 21.7 104.7 17.8 C 106.4 17.9 110.0 15.8 111.0 16.6 C 105.9 17.6 118.9 19.7 117.2 17.5 C 125.7 18.7 120.3 15.5 126.7 17.8 C 131.6 17.7 124.4 14.5 130.9 16.3 C 135.4 15.8 132.7 17.7 132.2 17.6 C 136.2 17.8 137.4 16.4 138.7 16.5 C 139.7 16.8 141.8 18.3 142.4 16.4 C 145.8 12.9 141.2 9.6 142.3 6.2 C 138.9 4.6 141.5 8.8 138.9 6.3 C 137.9 8.5 138.6 6.1 130.5 6.9 C 130.8 7.4 133.1 8.8 131.2 9.1 C 127.9 8.9 129.0 3.1 124.5 7.3 C 131.0 8.4 116.2 9.5 122.2 10.5 C 115.1 11.4 120.1 10.1 114.5 8.9 C 115.5 12.7 113.3 4.8 112.0 7.9 C 111.2 6.3 103.1 7.3 109.4 9.5 C 101.0 10.8 106.1 8.4 102.7 6.5 C 98.7 6.3 103.5 12.8 100.2 8.1 C 94.7 6.1 100.4 10.5 96.0 6.9 C 98.2 10.1 92.2 6.9 94.2 10.5 C 85.5 11.1 94.7 6.6 88.9 9.4 C 90.9 9.4 89.4 4.6 86.1 7.9 C 88.6 13.5 80.4 3.0 84.3 10.5 C 72.3 13.0 81.8 7.4 75.0 7.6 C 73.3 7.7 77.2 10.0 75.7 10.1 C 66.9 9.3 73.8 7.1 69.8 11.0 C 61.3 12.2 66.9 7.9 62.7 7.7 C 62.6 9.5 59.5 12.7 58.2 8.7 M 66.1 10.3 C 67.7 9.1 67.3 11.5 66.1 10.3 M 48.7 9.1 C 50.4 7.8 49.9 10.3 48.7 9.1 M 73.0 9.0 C 75.2 7.6 74.0 10.9 73.0 9.0 M 119.4 9.3 C 116.2 9.4 120.7 8.2 119.4 9.3 M 55.5 8.6 C 57.9 7.1 56.4 10.6 55.5 8.6 M 52.7 11.7 C 52.9 11.7 52.9 11.7 52.7 11.7 M 123.4 6.1 C 123.5 6.1 123.5 6.1 123.4 6.1 M 111.0 6.4 C 113.7 6.4 109.7 7.2 111.0 6.4 M 112.9 18.9 C 115.6 18.9 111.5 19.7 112.9 18.9 M 130.1 5.7 C 132.5 4.6 131.1 7.0 130.1 5.7 M 137.5 8.2 C 139.7 7.0 139.4 9.4 137.5 8.2 M 65.1 14.7 C 65.0 14.8 65.0 14.8 65.1 14.7 C 65.1 14.7 65.1 14.7 65.1 14.7 Z M 88.3 17.0 C 85.4 15.9 91.9 18.5 88.3 17.0 M 82.9 9.0 C 85.1 11.5 79.4 8.9 82.9 9.0 C 82.9 9.0 82.9 9.0 82.9 9.0 Z M 79.1 10.3 C 79.1 10.4 79.1 10.4 79.1 10.3 C 79.1 10.3 79.1 10.3 79.1 10.3 Z M 92.0 10.0 C 91.8 10.1 91.8 10.1 92.0 10.0 C 92.0 10.0 92.0 10.0 92.0 10.0 Z M 89.3 10.3 C 88.4 10.9 87.8 9.8 89.3 10.3 C 89.3 10.3 89.3 10.3 89.3 10.3 Z M 109.4 17.7 C 108.4 18.3 107.9 17.3 109.4 17.7 C 109.4 17.7 109.4 17.7 109.4 17.7 Z M 85.4 11.3 C 85.5 13.9 83.4 9.7 85.4 11.3 C 85.4 11.3 85.4 11.3 85.4 11.3 Z M 100.2 16.9 C 101.3 16.2 103.0 19.2 100.2 16.9 M 126.1 6.4 C 127.0 5.7 129.0 8.7 126.1 6.4 M 98.9 6.6 C 100.0 5.9 101.7 8.9 98.9 6.6 M 67.4 9.1 C 67.7 9.4 67.7 9.4 67.4 9.1 M 84.0 19.6 C 85.6 18.6 85.1 20.7 84.0 19.6 M 58.1 19.6 C 59.8 18.6 59.1 20.8 58.1 19.6 M 124.6 18.2 C 124.4 17.6 127.4 18.5 124.6 18.2 M 102.8 10.5 C 105.3 10.8 107.9 12.1 102.9 12.1 C 102.5 11.5 103.9 11.1 102.8 10.5 C 102.8 10.5 102.8 10.5 102.8 10.5 Z M 112.4 16.0 C 112.8 16.3 112.8 16.3 112.4 16.0 M 106.6 8.1 C 107.0 8.3 107.0 8.3 106.6 8.1 M 120.5 7.8 C 120.9 8.2 120.9 8.2 120.5 7.8 M 122.1 7.1 C 122.1 7.2 122.1 7.2 122.1 7.1 C 122.1 7.1 122.1 7.1 122.1 7.1 Z M 137.0 5.5 C 137.0 5.6 137.0 5.6 137.0 5.5 C 137.0 5.5 137.0 5.5 137.0 5.5 Z M 116.1 8.3 C 116.1 8.4 116.1 8.4 116.1 8.3 C 116.1 8.3 116.1 8.3 116.1 8.3 Z M 130.7 17.5 C 130.7 17.7 130.7 17.7 130.7 17.5 C 130.7 17.5 130.7 17.5 130.7 17.5 Z M 128.8 16.1 C 128.8 16.2 128.8 16.2 128.8 16.1 C 128.8 16.1 128.8 16.1 128.8 16.1 Z M 59.5 8.7 C 61.4 6.8 61.1 13.1 59.5 8.7 M 135.6 15.9 C 138.0 17.5 132.1 16.3 135.6 15.9 C 135.6 15.9 135.6 15.9 135.6 15.9 Z M 114.9 10.5 C 115.2 10.8 115.2 10.8 114.9 10.5 M 123.0 7.3 C 123.3 7.6 123.3 7.6 123.0 7.3 M 82.5 6.7 C 82.7 7.0 82.7 7.0 82.5 6.7 M 133.8 7.4 C 140.4 7.8 131.6 11.1 133.8 7.4 M 79.9 9.2 C 79.7 9.0 79.7 9.0 79.9 9.2 M 95.2 13.4 C 99.5 13.2 93.8 14.9 95.2 13.4 M 105.7 9.9 C 105.6 10.0 105.6 10.0 105.7 9.9 C 105.7 9.9 105.7 9.9 105.7 9.9 Z M 99.2 10.1 C 96.1 10.6 98.3 9.4 99.2 10.1 C 99.2 10.1 99.2 10.1 99.2 10.1 Z M 62.8 10.9 C 66.9 11.2 58.7 11.9 62.8 10.9 C 62.8 10.9 62.8 10.9 62.8 10.9 Z M 132.0 13.4 C 132.0 13.6 132.0 13.6 132.0 13.4 C 132.0 13.4 132.0 13.4 132.0 13.4 Z M 115.0 6.6 C 113.3 7.3 114.0 5.9 115.0 6.6 C 115.0 6.6 115.0 6.6 115.0 6.6 Z M 139.3 5.5 C 137.5 6.2 138.2 4.7 139.3 5.5 C 139.3 5.5 139.3 5.5 139.3 5.5 Z M 57.8 10.6 C 73.4 14.4 37.7 10.2 57.8 10.6 C 57.8 10.6 57.8 10.6 57.8 10.6 Z M 101.5 8.3 C 101.5 8.4 101.5 8.4 101.5 8.3 C 101.5 8.3 101.5 8.3 101.5 8.3 Z M 73.7 7.5 C 73.6 7.6 73.6 7.6 73.7 7.5 C 73.7 7.5 73.7 7.5 73.7 7.5 Z M 69.3 10.0 C 69.2 10.1 69.2 10.1 69.3 10.0 C 69.3 10.0 69.3 10.0 69.3 10.0 Z M 71.9 19.8 C 71.8 19.9 71.8 19.9 71.9 19.8 C 71.9 19.8 71.9 19.8 71.9 19.8 Z M 72.9 15.2 C 72.7 15.5 72.7 15.5 72.9 15.2 C 72.9 15.2 72.9 15.2 72.9 15.2 Z M 63.4 17.2 C 63.3 17.4 63.3 17.4 63.4 17.2 C 63.4 17.2 63.4 17.2 63.4 17.2 Z M 63.7 18.6 C 63.7 18.7 63.7 18.7 63.7 18.6 C 63.7 18.6 63.7 18.6 63.7 18.6 Z M 123.6 10.1 C 123.5 10.3 123.5 10.3 123.6 10.1 C 123.6 10.1 123.6 10.1 123.6 10.1 Z M 119.2 14.4 C 122.4 12.8 118.5 16.5 119.2 14.4 C 119.2 14.4 119.2 14.4 119.2 14.4 Z M 87.7 13.4 C 90.9 12.7 85.8 14.7 87.7 13.4 C 87.7 13.4 87.7 13.4 87.7 13.4 Z M 92.0 18.6 C 92.1 18.7 92.1 18.7 92.0 18.6 C 92.0 18.6 92.0 18.6 92.0 18.6 Z M 69.0 7.5 C 68.9 7.8 68.9 7.8 69.0 7.5 C 69.0 7.5 69.0 7.5 69.0 7.5 Z M 63.3 9.4 C 63.3 11.5 61.4 8.5 63.3 9.4 M 92.8 7.2 C 92.8 7.5 92.8 7.5 92.8 7.2 C 92.8 7.2 92.8 7.2 92.8 7.2 Z M 112.1 9.9 C 112.1 10.0 112.1 10.0 112.1 9.9 C 112.1 9.9 112.1 9.9 112.1 9.9 Z M 130.5 7.9 C 130.4 8.2 130.4 8.2 130.5 7.9 C 130.5 7.9 130.5 7.9 130.5 7.9 Z M 104.4 7.1 C 104.4 7.4 104.4 7.4 104.4 7.1 C 104.4 7.1 104.4 7.1 104.4 7.1 Z M 95.9 9.3 C 95.9 9.6 95.9 9.6 95.9 9.3 C 95.9 9.3 95.9 9.3 95.9 9.3 Z M 135.2 10.7 C 135.1 10.9 135.1 10.9 135.2 10.7 C 135.2 10.7 135.2 10.7 135.2 10.7 Z M 106.5 6.8 C 106.4 6.8 106.4 6.8 106.5 6.8 C 106.5 6.8 106.5 6.8 106.5 6.8 Z M 113.1 13.2 C 113.0 13.4 113.0 13.4 113.1 13.2 C 113.1 13.2 113.1 13.2 113.1 13.2 Z M 63.8 6.4 C 63.7 6.5 63.7 6.5 63.8 6.4 C 63.8 6.4 63.8 6.4 63.8 6.4 Z M 134.8 7.9 C 134.7 8.1 134.7 8.1 134.8 7.9 C 134.8 7.9 134.8 7.9 134.8 7.9 Z M 135.5 6.1 C 135.5 6.2 135.5 6.2 135.5 6.1 C 135.5 6.1 135.5 6.1 135.5 6.1 Z M 124.4 16.4 C 117.5 15.4 130.2 15.7 124.9 13.6 C 134.3 12.8 125.8 16.4 124.4 16.4 C 124.4 16.4 124.4 16.4 124.4 16.4 Z M 144.2 5.0 C 141.1 7.9 141.7 10.6 144.0 13.5 C 146.1 14.9 144.8 9.2 146.0 14.0 C 142.0 15.1 149.5 21.1 147.9 15.0 C 153.3 13.9 149.8 18.8 152.5 16.3 C 158.3 15.5 155.7 17.5 160.2 16.9 C 162.0 13.4 163.3 18.4 163.7 15.2 C 162.3 18.8 168.3 14.1 168.9 15.7 C 165.2 17.9 184.7 15.2 173.6 14.5 C 177.6 12.8 177.5 15.7 179.1 16.0 C 180.5 13.9 186.9 17.4 189.1 15.3 C 188.4 14.9 187.0 14.8 186.4 14.1 C 185.3 12.8 189.6 14.3 189.1 14.2 C 190.7 13.4 197.3 11.1 190.7 15.0 C 190.8 16.6 196.7 14.0 196.9 15.5 C 197.0 15.5 197.2 15.5 197.3 15.5 C 197.5 15.3 198.6 14.6 198.6 14.5 C 198.6 14.4 198.5 14.3 198.5 14.2 C 198.3 13.9 198.2 13.6 198.2 13.4 C 198.1 12.9 197.2 12.7 198.3 13.9 C 203.0 14.0 206.4 14.0 206.5 13.5 C 209.3 13.9 209.3 15.9 212.4 14.0 C 217.3 17.7 218.3 6.9 218.7 14.1 C 220.8 12.4 221.2 17.1 222.1 12.7 C 219.5 14.7 231.1 16.1 226.7 12.9 C 228.4 11.8 234.4 17.5 234.5 12.9 C 237.9 9.6 238.2 6.3 233.2 3.2 C 233.2 5.8 227.8 0.5 231.0 4.9 C 235.6 6.4 221.5 6.5 224.9 4.9 C 226.9 -0.3 217.2 8.2 215.2 4.4 C 217.1 6.5 205.4 7.6 209.7 3.6 C 207.7 3.3 206.7 5.2 205.0 2.9 C 211.7 3.2 201.3 7.0 202.3 4.6 C 202.8 4.1 202.1 3.7 201.0 3.4 C 200.4 3.2 199.7 3.1 199.0 3.0 C 198.3 2.9 196.7 2.9 195.3 3.3 L 193.8 3.8 C 192.3 3.9 191.3 4.3 192.0 5.1 C 197.1 10.4 189.0 4.1 187.8 6.2 C 182.6 7.6 187.4 1.6 184.4 5.7 C 183.1 5.1 175.6 5.3 180.0 4.0 C 181.9 4.5 177.2 10.1 175.1 5.5 C 182.4 2.7 165.6 4.4 168.6 5.7 C 181.7 7.8 156.3 9.0 165.3 6.2 C 159.2 3.9 166.7 5.2 160.2 6.5 C 161.4 7.9 156.5 9.5 157.0 6.5 C 154.9 2.2 156.6 12.4 151.0 6.6 C 149.8 4.0 143.2 8.7 145.5 5.8 C 145.6 5.4 144.4 5.0 144.2 5.0 M 146.7 5.4 C 146.0 6.4 144.9 4.3 146.7 5.4 M 145.9 6.4 C 145.8 6.4 145.8 6.4 145.9 6.4 C 145.9 6.4 145.9 6.4 145.9 6.4 Z M 159.2 6.7 C 159.1 6.5 159.1 6.5 159.2 6.7 C 159.2 6.7 159.2 6.7 159.2 6.7 Z M 172.5 17.3 C 172.4 17.2 172.4 17.2 172.5 17.3 C 172.5 17.3 172.5 17.3 172.5 17.3 Z M 168.0 6.6 C 167.9 6.6 167.9 6.6 168.0 6.6 C 168.0 6.6 168.0 6.6 168.0 6.6 Z M 154.7 7.5 C 154.6 7.5 154.6 7.5 154.7 7.5 C 154.7 7.5 154.7 7.5 154.7 7.5 Z M 166.8 5.0 C 167.9 6.7 163.5 3.9 166.9 4.8 C 167.0 4.9 166.5 4.9 166.8 5.0 M 178.0 4.0 C 178.2 4.2 178.2 4.2 178.0 4.0 M 203.2 15.6 C 203.2 15.8 203.2 15.8 203.2 15.6 M 208.6 2.5 C 208.9 2.7 208.9 2.7 208.6 2.5 M 189.8 5.3 C 193.3 5.0 191.0 6.1 189.8 5.3 M 217.6 3.4 C 213.5 2.4 222.6 2.5 217.6 3.4 M 222.1 2.5 C 222.5 2.6 222.5 2.6 222.1 2.5 M 202.1 3.1 C 202.0 3.2 202.0 3.2 202.1 3.1 C 202.1 3.1 202.1 3.1 202.1 3.1 Z M 188.2 4.7 C 183.4 3.9 192.4 3.0 188.2 4.7 M 160.4 5.0 C 162.7 4.1 160.9 7.1 160.4 5.0 M 155.4 6.1 C 155.4 6.2 155.4 6.2 155.4 6.1 C 155.4 6.1 155.4 6.1 155.4 6.1 Z M 210.6 3.3 C 210.4 3.4 210.4 3.4 210.6 3.3 C 210.6 3.3 210.6 3.3 210.6 3.3 Z M 215.7 3.0 C 215.6 3.1 215.6 3.1 215.7 3.0 C 215.7 3.0 215.7 3.0 215.7 3.0 Z M 221.2 15.2 C 221.0 15.2 221.0 15.2 221.2 15.2 C 221.2 15.2 221.2 15.2 221.2 15.2 Z M 160.5 11.0 C 156.9 10.3 163.0 6.9 163.1 9.9 C 163.8 11.1 160.9 10.7 160.5 11.0 M 185.9 8.4 C 188.0 12.5 181.0 3.0 185.9 8.4 M 222.1 5.2 C 224.3 10.1 218.7 1.7 222.1 5.2 M 229.3 4.3 C 231.0 5.3 216.2 4.9 227.0 3.6 C 228.2 2.8 228.7 3.8 229.3 4.3 M 178.7 6.0 C 180.4 8.2 173.1 5.2 178.7 6.0 M 200.2 11.5 C 202.2 10.0 207.0 8.7 204.4 11.3 C 203.5 14.5 197.8 12.7 200.2 11.5 M 148.3 7.7 C 150.2 4.0 148.9 10.8 148.3 7.7 M 161.7 7.6 C 161.7 7.4 161.7 7.4 161.7 7.6 C 161.7 7.6 161.7 7.6 161.7 7.6 Z M 166.8 6.8 C 167.1 7.1 167.1 7.1 166.8 6.8 M 149.6 4.4 C 150.0 4.7 150.0 4.7 149.6 4.4 M 201.1 7.7 C 201.3 8.0 201.3 8.0 201.1 7.7 M 189.1 6.3 C 195.3 9.7 186.6 7.1 189.1 6.3 M 178.5 13.6 C 180.5 15.3 175.3 13.9 178.5 13.6 M 199.8 3.9 C 202.5 7.3 193.9 7.1 199.8 3.9 M 186.5 6.0 C 186.8 6.0 186.8 6.0 186.5 6.0 C 186.5 6.0 186.5 6.0 186.5 6.0 Z M 201.4 11.9 C 201.3 11.9 201.3 11.9 201.4 11.9 C 201.4 11.9 201.4 11.9 201.4 11.9 Z M 203.1 11.7 C 202.9 11.8 202.9 11.8 203.1 11.7 C 203.1 11.7 203.1 11.7 203.1 11.7 Z M 204.3 3.5 C 204.2 3.6 204.2 3.6 204.3 3.5 C 204.3 3.5 204.3 3.5 204.3 3.5 Z M 157.4 15.5 C 161.1 15.7 154.6 16.2 157.4 15.5 C 157.4 15.5 157.4 15.5 157.4 15.5 Z M 171.0 4.9 C 177.7 7.4 167.5 7.6 171.0 4.9 C 171.0 4.9 171.0 4.9 171.0 4.9 Z M 179.0 9.2 C 179.1 9.4 179.1 9.4 179.0 9.2 C 179.0 9.2 179.0 9.2 179.0 9.2 Z M 197.8 1.8 C 197.7 2.0 197.7 2.0 197.8 1.8 C 197.8 1.8 197.8 1.8 197.8 1.8 Z M 159.3 15.9 C 159.4 16.1 159.4 16.1 159.3 15.9 C 159.3 15.9 159.3 15.9 159.3 15.9 Z M 214.2 5.3 C 214.2 5.5 214.2 5.5 214.2 5.3 C 214.2 5.3 214.2 5.3 214.2 5.3 Z M 193.6 13.3 C 194.5 11.9 194.2 14.3 193.6 13.3 C 193.6 13.3 193.6 13.3 193.6 13.3 Z M 197.9 12.5 C 197.9 12.4 197.9 12.4 197.9 12.5 C 197.9 12.5 197.9 12.5 197.9 12.5 Z M 223.6 2.2 C 223.7 2.2 223.7 2.2 223.6 2.2 C 223.6 2.2 223.6 2.2 223.6 2.2 Z M 210.0 15.7 C 210.1 15.7 210.1 15.7 210.0 15.7 C 210.0 15.7 210.0 15.7 210.0 15.7 Z M 215.6 11.6 C 215.5 11.7 215.5 11.7 215.6 11.6 C 215.6 11.6 215.6 11.6 215.6 11.6 Z M 203.1 4.3 C 208.8 3.7 201.5 5.9 203.1 4.3 C 203.1 4.3 203.1 4.3 203.1 4.3 Z M 229.4 10.5 C 229.5 10.8 229.5 10.8 229.4 10.5 C 229.4 10.5 229.4 10.5 229.4 10.5 Z M 233.3 5.8 C 233.4 6.0 233.4 6.0 233.3 5.8 C 233.3 5.8 233.3 5.8 233.3 5.8 Z M 235.3 3.3 C 235.4 3.5 235.4 3.5 235.3 3.3 C 235.3 3.3 235.3 3.3 235.3 3.3 Z M 168.0 11.9 C 167.8 11.7 167.8 11.7 168.0 11.9 C 168.0 11.9 168.0 11.9 168.0 11.9 Z M 163.9 4.3 C 163.8 4.3 163.8 4.3 163.9 4.3 C 163.9 4.3 163.9 4.3 163.9 4.3 Z M 171.1 3.7 C 171.0 3.7 171.0 3.7 171.1 3.7 C 171.1 3.7 171.1 3.7 171.1 3.7 Z M 167.8 16.5 C 167.7 16.4 167.7 16.4 167.8 16.5 C 167.8 16.5 167.8 16.5 167.8 16.5 Z M 193.8 9.1 C 193.7 9.0 193.7 9.0 193.8 9.1 C 193.8 9.1 193.8 9.1 193.8 9.1 Z M 197.1 11.7 C 196.9 11.6 196.9 11.6 197.1 11.7 C 197.1 11.7 197.1 11.7 197.1 11.7 Z M 192.1 16.4 C 192.1 16.3 192.1 16.3 192.1 16.4 C 192.1 16.4 192.1 16.4 192.1 16.4 Z M 198.4 14.0 C 198.4 13.9 198.4 13.9 198.4 14.0 C 198.4 14.0 198.4 14.0 198.4 14.0 Z M 148.8 15.7 C 148.8 15.8 148.8 15.8 148.8 15.7 C 148.8 15.7 148.8 15.7 148.8 15.7 Z M 146.9 9.9 C 146.8 10.1 146.8 10.1 146.9 9.9 C 146.9 9.9 146.9 9.9 146.9 9.9 Z M 193.4 4.9 C 193.6 4.6 193.8 4.5 194.0 4.5 L 195.1 4.2 C 196.6 3.7 197.0 4.8 195.0 5.0 C 194.0 5.2 193.7 5.0 193.4 4.9 M 183.1 6.0 C 183.1 6.1 183.1 6.1 183.1 6.0 C 183.1 6.0 183.1 6.0 183.1 6.0 Z M 213.6 4.2 C 214.4 6.5 209.0 3.0 213.6 4.2 C 213.6 4.2 213.6 4.2 213.6 4.2 Z M 205.5 14.0 C 205.6 14.1 205.6 14.1 205.5 14.0 C 205.5 14.0 205.5 14.0 205.5 14.0 Z M 208.5 13.0 C 208.7 13.3 208.7 13.3 208.5 13.0 C 208.5 13.0 208.5 13.0 208.5 13.0 Z M 225.4 6.7 C 225.6 6.9 225.6 6.9 225.4 6.7 M 181.2 4.0 C 183.1 4.9 182.7 4.7 181.2 4.0 M 217.1 4.3 C 217.0 4.4 217.0 4.4 217.1 4.3 C 217.1 4.3 217.1 4.3 217.1 4.3 Z M 229.1 5.4 C 228.9 5.5 228.9 5.5 229.1 5.4 C 229.1 5.4 229.1 5.4 229.1 5.4 Z M 174.2 5.8 C 175.3 8.6 173.6 7.9 174.2 5.8 M 153.6 7.3 C 153.7 7.5 153.7 7.5 153.6 7.3 C 153.6 7.3 153.6 7.3 153.6 7.3 Z M 246.5 5.5 C 234.7 1.9 236.3 8.2 235.4 9.4 C 233.3 11.1 234.7 12.2 236.9 13.3 C 238.7 17.3 241.9 9.3 242.9 13.2 C 245.1 18.5 247.8 8.6 248.0 14.2 C 247.1 15.6 252.3 14.4 252.0 14.1 C 253.8 16.7 258.4 12.0 258.6 11.5 C 260.1 12.3 259.1 17.2 265.1 13.5 C 269.3 12.2 270.0 17.1 269.6 13.7 C 271.7 17.6 271.9 12.6 274.5 13.9 C 276.1 16.0 275.3 10.6 278.0 14.7 C 280.3 11.5 275.9 16.8 286.2 14.5 C 281.5 14.2 291.3 11.9 288.9 14.1 C 285.1 16.4 293.7 13.2 297.9 14.6 C 299.3 13.4 305.2 10.5 303.7 13.7 C 307.6 17.4 308.8 11.5 310.2 14.5 C 311.5 15.8 312.6 13.0 313.6 13.3 C 314.8 15.5 316.5 14.0 322.1 14.7 C 328.3 15.2 328.8 13.8 328.8 12.1 C 328.7 10.4 327.3 7.9 330.2 8.2 C 330.6 8.1 330.6 7.4 330.2 6.5 C 329.9 5.6 328.8 4.7 328.3 4.1 C 327.2 2.8 326.3 2.3 327.1 5.1 C 326.5 3.5 315.3 9.4 321.5 3.2 C 317.2 5.7 322.8 0.7 314.5 3.6 C 324.3 8.0 302.0 5.4 312.7 3.2 C 311.2 2.0 306.9 2.2 309.8 3.3 C 310.2 7.2 302.8 1.5 306.1 6.3 C 299.8 4.9 300.7 9.3 299.5 6.2 C 298.9 1.1 299.5 7.6 296.5 6.1 C 288.8 6.0 296.0 0.1 290.5 4.0 C 283.5 1.4 288.4 6.3 285.6 6.9 C 284.1 10.5 278.4 4.2 284.3 3.7 C 280.9 5.6 284.1 2.0 280.2 4.3 C 282.0 7.6 276.5 0.7 277.0 3.4 C 273.7 4.3 274.8 6.2 273.9 6.3 C 269.2 6.3 271.4 3.1 269.9 5.5 C 268.6 6.8 267.3 2.6 266.5 3.6 C 271.2 3.8 261.8 7.1 261.7 5.3 C 264.7 5.1 261.2 1.0 258.8 3.6 C 259.5 10.8 255.1 1.7 252.4 4.3 C 253.5 8.3 241.9 4.8 247.0 2.9 C 246.6 3.2 246.5 5.5 246.5 5.5 M 265.0 4.2 C 268.8 4.5 260.6 5.0 265.0 4.2 M 265.1 3.1 C 266.5 4.5 261.6 2.1 265.4 2.7 C 265.4 2.7 264.8 3.1 265.1 3.1 M 281.2 3.0 C 280.5 4.1 279.2 2.3 281.2 3.0 M 283.8 5.5 C 286.1 6.6 280.3 5.7 283.8 5.5 M 319.6 4.7 C 314.8 10.7 316.5 1.3 319.6 4.7 M 296.3 3.5 C 291.8 4.3 298.3 1.0 296.3 3.5 M 294.7 5.0 C 292.5 6.0 294.5 3.6 294.7 5.0 M 312.8 4.7 C 313.1 4.8 313.1 4.8 312.8 4.7 C 312.8 4.7 312.8 4.7 312.8 4.7 Z M 323.3 4.9 C 323.4 4.8 323.4 4.8 323.3 4.9 C 323.3 4.9 323.3 4.9 323.3 4.9 Z M 302.4 5.3 C 299.4 3.9 307.9 4.8 302.4 5.3 C 302.4 5.3 302.4 5.3 302.4 5.3 Z M 316.6 14.0 C 316.4 14.1 316.4 14.1 316.6 14.0 C 316.6 14.0 316.6 14.0 316.6 14.0 Z M 261.3 6.9 C 261.1 7.0 261.1 7.0 261.3 6.9 C 261.3 6.9 261.3 6.9 261.3 6.9 Z M 249.8 4.7 C 249.8 5.5 247.8 4.1 249.8 4.7 C 249.8 4.7 249.8 4.7 249.8 4.7 Z M 238.4 11.5 C 238.3 11.6 238.3 11.6 238.4 11.5 C 238.4 11.5 238.4 11.5 238.4 11.5 Z M 256.6 10.1 C 256.4 10.2 256.4 10.2 256.6 10.1 C 256.6 10.1 256.6 10.1 256.6 10.1 Z M 259.3 5.7 C 258.1 2.3 263.7 6.5 259.3 5.7 C 259.3 5.7 259.3 5.7 259.3 5.7 Z M 296.7 13.6 C 297.1 12.2 299.4 14.1 296.7 13.6 C 296.7 13.6 296.7 13.6 296.7 13.6 Z M 284.0 6.8 C 284.6 6.1 285.6 7.2 284.0 6.8 C 284.0 6.8 284.0 6.8 284.0 6.8 Z M 278.3 2.4 C 279.0 1.6 280.0 2.7 278.3 2.4 C 278.3 2.4 278.3 2.4 278.3 2.4 Z M 250.2 3.8 C 250.5 3.6 250.5 3.6 250.2 3.8 C 250.2 3.8 250.2 3.8 250.2 3.8 Z M 253.9 6.3 C 251.7 3.2 258.2 7.9 253.9 6.3 C 253.9 6.3 253.9 6.3 253.9 6.3 Z M 248.6 7.2 C 249.9 8.4 244.9 6.6 248.6 7.2 M 250.4 11.9 C 254.4 10.6 245.8 17.4 250.4 11.9 C 250.4 11.9 250.4 11.9 250.4 11.9 Z M 268.8 13.1 C 269.0 13.3 269.0 13.3 268.8 13.1 C 268.8 13.1 268.8 13.1 268.8 13.1 Z M 268.8 4.1 C 272.0 4.2 266.6 4.8 268.8 4.1 C 268.8 4.1 268.8 4.1 268.8 4.1 Z M 241.1 3.4 C 244.3 3.5 238.8 4.1 241.1 3.4 C 241.1 3.4 241.1 3.4 241.1 3.4 Z M 280.3 10.1 C 285.6 9.6 276.7 11.8 280.3 10.1 C 280.3 10.1 280.3 10.1 280.3 10.1 Z M 300.4 6.5 C 300.5 6.6 300.5 6.6 300.4 6.5 C 300.4 6.5 300.4 6.5 300.4 6.5 Z M 304.2 5.3 C 304.3 5.3 304.3 5.3 304.2 5.3 C 304.2 5.3 304.2 5.3 304.2 5.3 Z M 318.6 8.4 C 318.8 8.6 318.8 8.6 318.6 8.4 C 318.6 8.4 318.6 8.4 318.6 8.4 Z M 307.8 3.8 C 307.9 3.8 307.9 3.8 307.8 3.8 C 307.8 3.8 307.8 3.8 307.8 3.8 Z M 318.0 4.6 C 318.2 4.7 318.2 4.7 318.0 4.6 C 318.0 4.6 318.0 4.6 318.0 4.6 Z M 317.0 1.9 C 317.2 2.0 317.2 2.0 317.0 1.9 C 317.0 1.9 317.0 1.9 317.0 1.9 Z M 291.2 15.4 C 291.4 15.5 291.4 15.5 291.2 15.4 C 291.2 15.4 291.2 15.4 291.2 15.4 Z M 256.1 2.7 C 256.3 3.0 256.3 3.0 256.1 2.7 C 256.1 2.7 256.1 2.7 256.1 2.7 Z M 316.9 5.8 C 317.0 5.9 317.0 5.9 316.9 5.8 C 316.9 5.8 316.9 5.8 316.9 5.8 Z M 291.1 8.2 C 290.6 10.9 289.6 4.7 291.7 8.1 C 291.6 8.2 291.0 7.8 291.1 8.2 M 293.6 12.6 C 293.4 12.7 293.4 12.7 293.6 12.6 C 293.6 12.6 293.6 12.6 293.6 12.6 Z M 281.7 14.2 C 281.6 14.3 281.6 14.3 281.7 14.2 C 281.7 14.2 281.7 14.2 281.7 14.2 Z M 306.1 3.2 C 305.9 1.8 308.7 4.4 305.6 3.3 M 317.8 13.0 C 317.6 11.6 320.5 14.2 317.4 13.1 M 237.2 4.4 C 236.5 5.5 235.2 3.7 237.2 4.4 M 278.9 15.6 C 278.2 16.8 276.8 15.0 278.9 15.6 M 284.9 12.3 C 284.8 10.8 287.5 13.4 284.5 12.3 M 309.9 12.9 C 310.1 13.0 310.1 13.0 309.9 12.9 C 309.9 12.9 309.9 12.9 309.9 12.9 Z M 273.7 4.4 C 273.8 4.4 273.8 4.4 273.7 4.4 C 273.7 4.4 273.7 4.4 273.7 4.4 Z M 287.0 7.5 C 285.5 5.5 289.2 8.8 287.0 7.5 M 268.8 7.9 C 266.6 5.4 273.1 8.7 268.8 7.9 M 323.7 13.7 C 321.1 10.6 325.7 15.3 323.7 13.7 M 309.7 6.1 C 307.2 3.1 311.6 7.7 309.7 6.1 M 276.2 5.7 C 276.4 4.1 279.1 6.6 276.2 5.7 M 244.5 4.1 C 241.7 3.9 248.7 2.9 244.5 4.1 M 302.3 13.0 C 302.4 13.2 302.4 13.2 302.3 13.0 C 302.3 13.0 302.3 13.0 302.3 13.0 Z M 251.5 15.7 C 251.7 15.8 251.7 15.8 251.5 15.7 C 251.5 15.7 251.5 15.7 251.5 15.7 Z M 330.4 3.9 C 330.6 4.0 330.6 4.0 330.4 3.9 C 330.4 3.9 330.4 3.9 330.4 3.9 Z M 307.5 7.5 C 307.6 7.7 307.6 7.7 307.5 7.5 C 307.5 7.5 307.5 7.5 307.5 7.5 Z M 323.6 3.3 C 323.8 3.5 323.8 3.5 323.6 3.3 C 323.6 3.3 323.6 3.3 323.6 3.3 Z M 297.3 9.8 C 297.4 9.9 297.4 9.9 297.3 9.8 C 297.3 9.8 297.3 9.8 297.3 9.8 Z M 296.9 2.1 C 297.0 2.2 297.0 2.2 296.9 2.1 C 296.9 2.1 296.9 2.1 296.9 2.1 Z M 285.6 5.4 C 285.7 5.5 285.7 5.5 285.6 5.4 C 285.6 5.4 285.6 5.4 285.6 5.4 Z M 301.6 2.7 C 308.1 2.3 297.9 5.3 301.6 2.7 C 301.6 2.7 301.6 2.7 301.6 2.7 Z M 289.1 10.4 C 289.1 10.5 289.1 10.5 289.1 10.4 C 289.1 10.4 289.1 10.4 289.1 10.4 Z M 289.3 5.0 C 293.8 2.8 290.7 8.7 289.3 5.0 M 272.1 3.2 C 273.5 2.0 272.3 5.0 272.1 3.2 M 262.8 13.3 C 262.7 13.4 262.7 13.4 262.8 13.3 C 262.8 13.3 262.8 13.3 262.8 13.3 Z M 264.8 12.5 C 265.0 12.6 265.0 12.6 264.8 12.5 C 264.8 12.5 264.8 12.5 264.8 12.5 Z M 267.9 2.7 C 268.0 2.8 268.0 2.8 267.9 2.7 C 267.9 2.7 267.9 2.7 267.9 2.7 Z M 264.5 15.4 C 264.6 15.5 264.6 15.5 264.5 15.4 C 264.5 15.4 264.5 15.4 264.5 15.4 Z M 294.5 2.3 C 294.6 2.4 294.6 2.4 294.5 2.3 C 294.5 2.3 294.5 2.3 294.5 2.3 Z M 326.9 2.2 C 327.0 2.3 327.0 2.3 326.9 2.2 C 326.9 2.2 326.9 2.2 326.9 2.2 Z M 243.6 12.2 C 243.7 12.3 243.7 12.3 243.6 12.2 C 243.6 12.2 243.6 12.2 243.6 12.2 Z M 297.2 5.4 C 297.3 5.5 297.3 5.5 297.2 5.4 C 297.2 5.4 297.2 5.4 297.2 5.4 Z M 258.3 12.8 C 258.3 12.9 258.3 12.9 258.3 12.8 C 258.3 12.8 258.3 12.8 258.3 12.8 Z M 295.3 4.7 C 295.3 4.8 295.3 4.8 295.3 4.7 C 295.3 4.7 295.3 4.7 295.3 4.7 Z M 301.1 13.7 C 301.2 13.7 301.2 13.7 301.1 13.7 C 301.1 13.7 301.1 13.7 301.1 13.7 Z M 307.8 15.4 C 307.9 15.5 307.9 15.5 307.8 15.4 C 307.8 15.4 307.8 15.4 307.8 15.4 Z M 301.7 8.3 C 301.8 8.4 301.8 8.4 301.7 8.3 C 301.7 8.3 301.7 8.3 301.7 8.3 Z M 256.7 9.5 C 244.5 6.9 267.1 8.3 256.7 9.5 M 303.7 9.0 C 294.9 8.3 311.5 6.0 303.7 9.0 C 304.9 8.2 303.9 8.9 303.7 9.0 M 339.3 16.4 C 340.1 15.1 340.5 14.3 340.3 12.4 C 340.1 10.5 339.3 9.4 338.5 8.7 C 337.0 7.4 335.8 8.0 335.7 8.0 C 339.0 7.3 336.7 5.1 333.4 5.0 C 330.1 5.0 328.1 7.7 328.5 8.3 C 328.4 8.7 329.3 11.6 328.9 13.4 C 328.5 15.3 326.3 13.9 329.4 13.8 C 330.3 13.8 328.4 14.7 328.3 15.5 C 328.5 22.6 331.5 11.2 331.5 19.8 C 330.7 21.2 325.7 18.5 329.1 24.2 C 328.7 24.3 326.8 29.7 329.1 28.0 C 326.8 30.3 329.6 32.5 330.1 35.1 C 328.8 37.3 326.5 32.6 329.2 41.4 C 325.1 44.2 332.3 46.6 327.8 49.1 C 327.6 51.2 335.1 55.5 330.9 50.0 C 331.3 50.8 334.9 48.3 333.6 54.6 C 332.7 53.5 325.1 48.8 328.7 59.6 C 328.5 61.2 330.5 65.4 329.6 66.2 C 328.8 60.8 326.3 72.9 328.6 72.0 C 327.0 80.0 330.4 75.7 327.9 81.3 C 327.9 86.2 331.3 80.2 329.3 85.9 C 329.7 90.5 327.8 87.2 328.0 86.8 C 327.6 90.6 329.0 92.3 328.9 93.6 C 328.5 94.4 326.9 96.0 328.8 97.2 C 332.2 101.8 335.7 98.4 339.0 100.7 C 340.7 97.9 336.4 99.0 339.0 97.3 C 336.9 95.5 339.2 97.1 338.7 88.8 C 338.2 88.9 336.7 90.7 336.5 88.7 C 336.8 85.5 342.6 88.6 338.5 82.7 C 337.2 88.8 336.6 73.7 335.4 79.3 C 334.7 72.0 335.9 77.3 337.3 72.2 C 333.4 72.0 341.4 72.4 338.3 70.0 C 339.9 69.8 339.2 61.4 336.8 67.0 C 335.8 58.3 338.0 64.0 340.1 61.3 C 340.3 57.3 333.7 60.0 338.5 58.2 C 340.7 53.4 336.2 57.7 339.9 54.5 C 336.6 55.7 339.9 50.7 336.3 51.6 C 336.0 42.7 340.2 53.3 337.6 46.7 C 337.5 48.6 342.4 48.6 339.2 44.3 C 333.5 45.0 344.3 40.2 336.7 41.7 C 334.5 29.1 339.8 40.2 339.9 33.4 C 339.8 31.7 337.4 34.9 337.3 33.3 C 338.4 24.8 340.4 32.4 336.7 27.2 C 335.7 18.4 339.8 25.2 340.1 21.1 C 338.3 20.4 335.3 16.5 339.3 16.4 M 337.5 23.7 C 338.6 25.7 336.2 24.6 337.5 23.7 M 330.4 3.5 C 334.8 3.1 332.0 5.0 330.4 3.5 M 338.6 31.0 C 339.8 33.6 336.6 31.4 338.6 31.0 M 336.7 77.0 C 336.7 73.8 337.7 78.6 336.7 77.0 M 339.5 13.4 C 339.9 14.9 339.9 14.7 339.8 14.9 C 339.7 15.1 339.5 15.0 339.3 14.8 C 338.8 14.5 338.5 13.8 339.5 13.4 M 334.3 8.5 C 334.4 8.7 334.4 8.7 334.3 8.5 M 339.8 82.0 C 339.7 82.1 339.7 82.1 339.8 82.0 M 339.9 69.6 C 339.8 72.2 339.1 68.0 339.9 69.6 M 327.3 67.3 C 327.2 70.0 326.5 65.7 327.3 67.3 M 340.0 88.8 C 340.9 91.5 338.6 89.4 340.0 88.8 M 337.2 95.3 C 338.3 97.8 335.9 96.7 337.2 95.3 M 333.1 21.4 C 332.9 21.3 332.9 21.3 333.1 21.4 C 333.1 21.4 333.1 21.4 333.1 21.4 Z M 330.0 43.7 C 331.2 41.2 328.4 46.8 330.0 43.7 M 338.2 40.8 C 335.6 42.2 338.4 37.3 338.2 40.8 C 338.2 40.8 338.2 40.8 338.2 40.8 Z M 337.0 36.7 C 336.9 36.6 336.9 36.6 337.0 36.7 C 337.0 36.7 337.0 36.7 337.0 36.7 Z M 336.9 49.5 C 336.8 49.3 336.8 49.3 336.9 49.5 C 336.9 49.5 336.9 49.5 336.9 49.5 Z M 336.7 46.8 C 336.1 45.7 337.2 45.4 336.7 46.8 C 336.7 46.8 336.7 46.8 336.7 46.8 Z M 328.6 64.3 C 328.0 63.1 329.1 62.9 328.6 64.3 C 328.6 64.3 328.6 64.3 328.6 64.3 Z M 335.8 42.6 C 333.2 41.8 337.5 41.0 335.8 42.6 C 335.8 42.6 335.8 42.6 335.8 42.6 Z M 329.7 55.5 C 330.4 56.7 327.3 57.5 329.7 55.5 M 339.3 84.5 C 340.0 85.8 336.9 86.6 339.3 84.5 M 340.1 57.5 C 340.8 58.8 337.6 59.5 340.1 57.5 M 338.6 25.4 C 338.3 25.6 338.3 25.6 338.6 25.4 M 327.5 38.6 C 328.5 40.6 326.4 39.4 327.5 38.6 M 328.4 14.0 C 329.3 13.7 327.2 14.1 328.4 14.0 M 327.6 79.1 C 328.3 79.1 327.3 81.8 327.6 79.1 M 336.0 60.1 C 335.7 62.4 334.3 64.6 334.5 59.7 C 335.1 59.5 335.4 61.0 336.0 60.1 C 336.0 60.1 336.0 60.1 336.0 60.1 Z M 330.2 67.8 C 329.9 68.1 329.9 68.1 330.2 67.8 M 338.3 64.7 C 338.1 65.0 338.1 65.0 338.3 64.7 M 338.1 78.5 C 337.7 78.8 337.7 78.8 338.1 78.5 M 338.8 80.4 C 338.7 80.3 338.7 80.3 338.8 80.4 C 338.8 80.4 338.8 80.4 338.8 80.4 Z M 339.9 95.7 C 339.8 95.7 339.8 95.7 339.9 95.7 C 339.9 95.7 339.9 95.7 339.9 95.7 Z M 337.8 74.0 C 337.7 74.0 337.7 74.0 337.8 74.0 C 337.8 74.0 337.8 74.0 337.8 74.0 Z M 328.1 85.3 C 328.0 85.3 328.0 85.3 328.1 85.3 C 328.1 85.3 328.1 85.3 328.1 85.3 Z M 329.6 83.9 C 329.5 83.9 329.5 83.9 329.6 83.9 C 329.6 83.9 329.6 83.9 329.6 83.9 Z M 339.3 17.6 C 341.1 20.0 334.9 18.0 339.3 17.6 M 329.6 90.7 C 327.8 92.5 329.2 87.1 329.6 90.7 C 329.6 90.7 329.6 90.7 329.6 90.7 Z M 335.6 72.1 C 335.3 72.2 335.3 72.2 335.6 72.1 M 338.6 81.2 C 338.3 81.3 338.3 81.3 338.6 81.2 M 340.5 41.1 C 340.2 41.2 340.2 41.2 340.5 41.1 M 338.1 91.8 C 337.5 98.3 334.5 88.4 338.1 91.8 M 338.1 37.7 C 338.3 37.6 338.3 37.6 338.1 37.7 M 333.3 51.6 C 333.5 55.9 331.9 49.8 333.3 51.6 M 336.6 63.1 C 336.4 63.0 336.4 63.0 336.6 63.1 C 336.6 63.1 336.6 63.1 336.6 63.1 Z M 336.5 56.7 C 336.2 53.5 337.3 56.0 336.5 56.7 C 336.5 56.7 336.5 56.7 336.5 56.7 Z M 336.9 20.2 C 336.6 24.3 336.1 15.9 336.9 20.2 C 336.9 20.2 336.9 20.2 336.9 20.2 Z M 332.2 88.1 C 332.0 87.9 332.0 87.9 332.2 88.1 C 332.2 88.1 332.2 88.1 332.2 88.1 Z M 339.6 73.5 C 338.9 71.5 340.3 72.7 339.6 73.5 C 339.6 73.5 339.6 73.5 339.6 73.5 Z M 339.9 98.0 C 339.2 96.0 340.6 97.2 339.9 98.0 C 339.9 98.0 339.9 98.0 339.9 98.0 Z M 337.4 15.4 C 336.3 19.0 335.9 19.5 335.7 18.6 C 335.7 18.2 335.7 17.4 335.8 16.5 C 335.9 15.5 336.2 14.6 336.1 13.0 C 336.1 9.7 333.7 7.3 333.6 6.9 C 333.5 6.7 334.2 6.8 335.3 8.1 C 335.9 8.7 336.6 9.6 337.0 11.0 C 337.5 12.4 337.4 14.1 337.4 15.4 C 337.4 15.4 337.4 15.4 337.4 15.4 Z M 338.3 59.5 C 338.1 59.4 338.1 59.4 338.3 59.5 C 338.3 59.5 338.3 59.5 338.3 59.5 Z M 340.0 32.1 C 339.9 32.0 339.9 32.0 340.0 32.1 C 340.0 32.1 340.0 32.1 340.0 32.1 Z M 337.7 27.0 C 337.6 26.9 337.6 26.9 337.7 27.0 C 337.7 27.0 337.7 27.0 337.7 27.0 Z M 327.8 26.6 C 327.6 26.5 327.6 26.5 327.8 26.6 C 327.8 26.6 327.8 26.6 327.8 26.6 Z M 332.3 29.0 C 332.0 28.7 332.0 28.7 332.3 29.0 C 332.3 29.0 332.3 29.0 332.3 29.0 Z M 330.6 19.0 C 330.4 18.8 330.4 18.8 330.6 19.0 C 330.6 19.0 330.6 19.0 330.6 19.0 Z M 329.3 18.9 C 329.2 18.9 329.2 18.9 329.3 18.9 C 329.3 18.9 329.3 18.9 329.3 18.9 Z M 335.8 80.8 C 335.6 80.7 335.6 80.7 335.8 80.8 C 335.8 80.8 335.8 80.8 335.8 80.8 Z M 331.6 75.0 C 333.1 78.8 329.5 73.7 331.6 75.0 C 331.6 75.0 331.6 75.0 331.6 75.0 Z M 333.7 44.2 C 334.2 47.5 332.4 41.9 333.7 44.2 C 333.7 44.2 333.7 44.2 333.7 44.2 Z M 328.3 46.8 C 328.2 46.9 328.2 46.9 328.3 46.8 C 328.3 46.8 328.3 46.8 328.3 46.8 Z M 340.1 27.4 C 339.9 27.2 339.9 27.2 340.1 27.4 C 340.1 27.4 340.1 27.4 340.1 27.4 Z M 338.4 21.2 C 336.3 20.6 339.4 19.6 338.4 21.2 M 339.6 51.2 C 339.4 51.1 339.4 51.1 339.6 51.2 C 339.6 51.2 339.6 51.2 339.6 51.2 Z M 336.3 69.5 C 336.2 69.4 336.2 69.4 336.3 69.5 C 336.3 69.5 336.3 69.5 336.3 69.5 Z M 337.7 88.4 C 337.4 88.3 337.4 88.3 337.7 88.4 C 337.7 88.4 337.7 88.4 337.7 88.4 Z M 339.4 62.8 C 339.1 62.7 339.1 62.7 339.4 62.8 C 339.4 62.8 339.4 62.8 339.4 62.8 Z M 337.4 53.6 C 337.2 53.5 337.2 53.5 337.4 53.6 C 337.4 53.6 337.4 53.6 337.4 53.6 Z M 334.7 92.1 C 334.6 92.0 334.6 92.0 334.7 92.1 C 334.7 92.1 334.7 92.1 334.7 92.1 Z M 339.7 65.0 C 339.6 64.9 339.6 64.9 339.7 65.0 C 339.7 65.0 339.7 65.0 339.7 65.0 Z M 333.0 69.4 C 332.8 69.2 332.8 69.2 333.0 69.4 C 333.0 69.4 333.0 69.4 333.0 69.4 Z M 341.4 22.6 C 341.3 22.5 341.3 22.5 341.4 22.6 C 341.4 22.6 341.4 22.6 341.4 22.6 Z M 337.5 92.7 C 337.4 92.6 337.4 92.6 337.5 92.7 C 337.5 92.7 337.5 92.7 337.5 92.7 Z M 339.4 94.0 C 339.3 94.0 339.3 94.0 339.4 94.0 C 339.4 94.0 339.4 94.0 339.4 94.0 Z M 329.4 79.4 C 330.6 73.0 329.9 85.5 332.2 80.9 C 332.7 90.5 329.3 80.8 329.4 79.4 C 329.4 79.4 329.4 79.4 329.4 79.4 Z M 340.2 103.0 C 337.3 98.9 334.6 98.6 331.7 99.8 C 330.2 101.5 335.9 102.1 331.1 101.6 C 330.2 97.3 323.9 102.5 330.1 103.2 C 331.0 108.9 326.1 103.6 328.6 107.3 C 329.2 113.2 327.3 110.0 327.7 114.6 C 331.1 117.7 326.1 117.1 329.3 118.6 C 325.8 115.9 330.3 123.6 328.7 123.6 C 326.5 119.2 328.6 139.4 329.7 128.6 C 331.3 133.2 328.4 132.1 328.0 133.6 C 330.0 135.7 326.4 140.7 328.4 143.6 C 328.8 143.1 329.0 141.8 329.6 141.4 C 331.0 140.8 329.4 144.5 329.5 144.1 C 330.2 145.9 332.3 153.3 328.7 145.3 C 327.0 144.8 329.4 151.6 327.9 151.2 C 327.9 157.9 331.3 153.2 328.8 155.9 C 328.7 160.6 328.7 164.0 329.1 164.1 C 328.7 166.9 326.8 167.3 328.7 170.1 C 327.7 171.4 327.8 170.0 328.2 170.1 C 328.6 170.3 329.1 170.8 329.5 171.3 C 330.3 172.4 330.1 173.6 328.7 170.3 C 329.4 171.8 327.7 167.3 327.6 171.7 C 329.8 169.7 318.0 168.3 322.9 171.5 C 321.5 172.6 314.4 166.9 315.2 171.5 C 312.3 174.8 312.5 178.0 318.1 181.2 C 317.6 178.6 324.0 183.9 320.0 179.5 C 315.1 178.0 329.2 177.9 326.1 179.5 C 325.8 180.8 326.1 181.2 326.8 181.2 C 327.4 181.2 328.3 181.0 330.4 180.1 C 334.6 178.4 335.8 174.2 338.1 172.0 C 337.4 173.0 337.1 172.2 336.9 171.0 C 336.6 169.8 336.4 169.0 336.4 167.9 C 336.3 165.8 337.0 163.8 339.0 165.6 C 339.3 163.5 337.5 162.9 339.8 160.7 C 339.4 167.6 335.6 157.7 338.0 158.4 C 339.5 159.7 340.7 149.6 338.5 150.4 C 333.0 153.5 339.6 147.8 337.5 145.9 C 336.3 140.1 342.1 147.2 338.1 142.6 C 338.8 141.6 338.8 134.1 339.9 138.9 C 339.4 140.7 334.0 133.9 338.6 133.5 C 341.2 141.8 340.0 124.5 338.6 127.0 C 336.1 139.1 335.7 113.6 338.3 123.6 C 340.8 118.4 339.3 125.3 338.2 118.4 C 336.7 119.1 335.3 113.6 338.2 115.2 C 342.6 114.7 332.3 112.7 338.4 109.2 C 341.0 108.9 336.5 100.7 339.4 104.1 C 339.7 104.3 340.2 103.2 340.2 103.0 M 339.6 105.4 C 338.7 104.4 340.9 104.0 339.6 105.4 M 338.7 104.3 C 338.8 104.2 338.8 104.2 338.7 104.3 C 338.7 104.3 338.7 104.3 338.7 104.3 Z M 338.0 117.3 C 338.1 117.3 338.1 117.3 338.0 117.3 C 338.0 117.3 338.0 117.3 338.0 117.3 Z M 326.9 126.6 C 327.1 126.5 327.1 126.5 326.9 126.6 C 326.9 126.6 326.9 126.6 326.9 126.6 Z M 337.8 126.1 C 337.8 126.0 337.8 126.0 337.8 126.1 C 337.8 126.1 337.8 126.1 337.8 126.1 Z M 337.3 112.6 C 337.3 112.5 337.3 112.5 337.3 112.6 C 337.3 112.6 337.3 112.6 337.3 112.6 Z M 339.4 125.5 C 337.7 126.0 340.6 122.6 339.6 125.7 C 339.5 125.8 339.5 125.2 339.4 125.5 M 340.0 137.0 C 339.8 137.1 339.8 137.1 340.0 137.0 M 327.0 161.1 C 326.8 161.2 326.8 161.2 327.0 161.1 M 340.2 164.3 C 340.0 164.6 340.0 164.6 340.2 164.3 M 338.4 148.2 C 338.6 151.8 337.5 149.0 338.4 148.2 M 337.4 176.4 C 343.2 169.8 332.6 185.0 337.4 176.4 M 330.0 181.9 C 329.1 181.8 329.1 181.8 330.0 181.9 M 339.6 157.9 C 339.4 157.8 339.4 157.8 339.6 157.9 C 339.6 157.9 339.6 157.9 339.6 157.9 Z M 339.0 146.8 C 339.9 142.3 340.6 151.6 339.0 146.8 M 339.6 119.1 C 340.4 121.7 337.5 118.8 339.6 119.1 M 338.7 113.8 C 338.6 113.7 338.6 113.7 338.7 113.8 C 338.7 113.8 338.7 113.8 338.7 113.8 Z M 339.3 166.4 C 339.3 166.3 339.3 166.3 339.3 166.4 C 339.3 166.4 339.3 166.4 339.3 166.4 Z M 339.4 172.8 C 339.4 172.4 339.4 172.4 339.4 172.8 C 339.4 172.8 339.4 172.8 339.4 172.8 Z M 328.1 169.2 C 328.3 169.1 328.3 169.1 328.1 169.2 C 328.1 169.2 328.1 169.2 328.1 169.2 Z M 333.6 117.0 C 334.5 113.8 337.6 121.0 334.6 120.0 C 333.4 120.2 333.9 117.5 333.6 117.0 M 335.3 143.1 C 331.2 143.6 341.0 140.3 335.3 143.1 M 328.9 179.2 C 323.4 174.4 336.3 182.5 328.9 179.2 M 321.8 180.1 C 319.9 179.1 334.8 179.5 324.2 180.8 C 323.2 181.6 322.5 180.6 321.8 180.1 M 338.0 137.0 C 335.7 137.7 339.0 131.6 338.0 137.0 M 331.2 157.4 C 332.6 159.2 333.9 163.7 331.4 161.6 C 328.2 161.2 329.9 155.3 331.2 157.4 M 337.3 106.1 C 341.0 109.4 334.2 105.6 337.3 106.1 M 337.0 119.5 C 337.2 119.5 337.2 119.5 337.0 119.5 C 337.0 119.5 337.0 119.5 337.0 119.5 Z M 337.6 124.8 C 337.3 125.0 337.3 125.0 337.6 124.8 M 340.5 108.7 C 340.2 108.9 340.2 108.9 340.5 108.7 M 335.0 157.7 C 334.7 157.9 334.7 157.9 335.0 157.7 M 337.4 147.2 C 333.8 151.9 336.6 144.3 337.4 147.2 M 330.4 133.8 C 328.7 135.2 330.3 130.6 330.4 133.8 M 338.8 155.7 C 335.3 159.0 335.5 150.4 338.8 155.7 M 337.8 144.6 C 337.8 144.9 337.8 144.9 337.8 144.6 C 337.8 144.6 337.8 144.6 337.8 144.6 Z M 330.8 158.7 C 330.7 158.6 330.7 158.6 330.8 158.7 C 330.8 158.7 330.8 158.7 330.8 158.7 Z M 330.9 160.3 C 330.9 160.2 330.9 160.2 330.9 160.3 C 330.9 160.3 330.9 160.3 330.9 160.3 Z M 339.2 160.2 C 339.1 160.1 339.1 160.1 339.2 160.2 C 339.2 160.2 339.2 160.2 339.2 160.2 Z M 329.2 112.3 C 328.9 115.9 328.6 109.4 329.2 112.3 C 329.2 112.3 329.2 112.3 329.2 112.3 Z M 339.3 129.6 C 336.6 135.4 336.8 125.2 339.3 129.6 C 339.3 129.6 339.3 129.6 339.3 129.6 Z M 334.8 136.0 C 334.6 136.0 334.6 136.0 334.8 136.0 C 334.8 136.0 334.8 136.0 334.8 136.0 Z M 340.9 153.6 C 340.7 153.6 340.7 153.6 340.9 153.6 C 340.9 153.6 340.9 153.6 340.9 153.6 Z M 328.7 114.1 C 328.5 114.1 328.5 114.1 328.7 114.1 C 328.7 114.1 328.7 114.1 328.7 114.1 Z M 337.3 170.4 C 337.1 170.4 337.1 170.4 337.3 170.4 C 337.3 170.4 337.3 170.4 337.3 170.4 Z M 330.2 148.8 C 331.6 150.2 329.2 149.0 330.2 148.8 C 330.2 148.8 330.2 148.8 330.2 148.8 Z M 330.2 154.2 C 330.2 154.4 330.2 154.4 330.2 154.2 C 330.2 154.2 330.2 154.2 330.2 154.2 Z M 327.9 182.2 C 327.7 182.2 327.7 182.2 327.9 182.2 C 327.9 182.2 327.9 182.2 327.9 182.2 Z M 327.0 167.9 C 327.0 168.1 327.0 168.1 327.0 167.9 C 327.0 167.9 327.0 167.9 327.0 167.9 Z M 330.8 171.5 C 330.7 171.4 330.7 171.4 330.8 171.5 C 330.8 171.5 330.8 171.5 330.8 171.5 Z M 338.3 159.2 C 339.0 164.7 336.8 157.8 338.3 159.2 C 338.3 159.2 338.3 159.2 338.3 159.2 Z M 320.7 173.8 C 320.6 173.6 320.6 173.6 320.7 173.8 C 320.7 173.8 320.7 173.8 320.7 173.8 Z M 317.6 178.6 C 317.4 178.3 317.4 178.3 317.6 178.6 C 317.6 178.6 317.6 178.6 317.6 178.6 Z M 316.0 181.1 C 315.9 180.8 315.9 180.8 316.0 181.1 C 316.0 181.1 316.0 181.1 316.0 181.1 Z M 332.5 124.1 C 332.7 124.0 332.7 124.0 332.5 124.1 C 332.5 124.1 332.5 124.1 332.5 124.1 Z M 340.2 122.8 C 340.2 122.8 340.2 122.8 340.2 122.8 C 340.2 122.8 340.2 122.8 340.2 122.8 Z M 340.5 130.2 C 340.6 130.2 340.6 130.2 340.5 130.2 C 340.5 130.2 340.5 130.2 340.5 130.2 Z M 327.9 122.3 C 328.0 122.2 328.0 122.2 327.9 122.3 C 327.9 122.3 327.9 122.3 327.9 122.3 Z M 334.4 150.7 C 334.5 150.6 334.5 150.6 334.4 150.7 C 334.4 150.7 334.4 150.7 334.4 150.7 Z M 331.3 153.0 C 331.4 152.9 331.4 152.9 331.3 153.0 C 331.3 153.0 331.3 153.0 331.3 153.0 Z M 327.2 146.2 C 327.2 146.1 327.2 146.1 327.2 146.2 C 327.2 146.2 327.2 146.2 327.2 146.2 Z M 328.6 154.7 C 328.7 154.7 328.7 154.7 328.6 154.7 C 328.6 154.7 328.6 154.7 328.6 154.7 Z M 329.3 103.8 C 329.2 103.8 329.2 103.8 329.3 103.8 C 329.3 103.8 329.3 103.8 329.3 103.8 Z M 335.2 104.0 C 335.0 103.8 335.0 103.8 335.2 104.0 C 335.2 104.0 335.2 104.0 335.2 104.0 Z M 338.7 151.9 C 339.9 153.3 337.0 154.3 338.7 151.9 M 337.9 141.3 C 337.8 141.3 337.8 141.3 337.9 141.3 C 337.9 141.3 337.9 141.3 337.9 141.3 Z M 338.4 169.6 C 336.1 170.8 339.6 164.8 338.4 169.6 C 338.4 169.6 338.4 169.6 338.4 169.6 Z M 328.6 163.2 C 328.6 163.3 328.6 163.3 328.6 163.2 C 328.6 163.2 328.6 163.2 328.6 163.2 Z M 329.6 166.0 C 329.4 166.2 329.4 166.2 329.6 166.0 C 329.6 166.0 329.6 166.0 329.6 166.0 Z M 325.3 177.7 C 325.0 177.5 325.0 177.5 325.3 177.7 M 340.0 140.2 C 339.0 141.7 339.2 141.4 340.0 140.2 M 337.0 175.4 C 337.1 175.1 337.1 175.1 337.0 175.4 C 337.0 175.4 337.0 175.4 337.0 175.4 Z M 321.8 179.0 C 322.0 178.9 322.0 178.9 321.8 179.0 C 321.8 179.0 321.8 179.0 321.8 179.0 Z M 338.4 132.6 C 335.6 132.5 336.2 131.2 338.4 132.6 M 337.5 111.5 C 337.3 111.5 337.3 111.5 337.5 111.5 C 337.5 111.5 337.5 111.5 337.5 111.5 Z M 305.0 181.0 C 310.5 184.1 310.8 179.7 310.8 179.6 C 309.8 185.6 316.1 177.3 315.0 176.1 C 315.3 175.3 311.5 164.9 307.1 171.2 C 306.0 172.0 305.4 170.2 304.7 170.0 C 297.6 170.3 309.3 173.2 300.7 173.2 C 299.3 172.4 301.3 167.5 296.1 170.9 C 295.9 170.4 290.2 168.6 292.3 170.8 C 289.7 168.5 287.8 171.3 285.2 171.8 C 282.9 170.5 287.3 168.2 278.9 171.0 C 275.6 166.9 274.0 174.0 271.0 169.5 C 268.9 169.4 265.4 176.8 270.4 172.6 C 269.7 173.1 272.6 176.6 266.1 175.3 C 267.1 174.4 271.0 166.9 260.6 170.4 C 258.9 170.3 255.0 172.2 254.1 171.4 C 259.4 170.5 247.0 168.1 248.2 170.3 C 240.0 168.8 244.7 172.2 238.8 169.7 C 233.9 169.6 240.3 173.0 234.3 171.1 C 229.8 171.4 232.9 169.6 233.4 169.7 C 229.4 169.3 228.0 170.7 226.6 170.6 C 225.7 170.2 224.0 168.7 223.0 170.6 C 218.8 174.0 222.5 177.4 220.6 180.8 C 223.7 182.4 222.0 178.2 224.1 180.8 C 225.6 178.6 224.3 180.9 232.5 180.5 C 232.3 179.9 230.4 178.5 232.4 178.2 C 235.6 178.5 233.2 184.3 238.6 180.2 C 232.3 179.0 247.4 178.4 241.6 177.1 C 248.9 176.4 243.7 177.6 248.9 179.0 C 248.7 175.1 249.2 183.2 251.3 180.0 C 251.7 181.6 260.0 180.9 254.1 178.6 C 262.7 177.5 257.2 179.8 260.2 181.8 C 264.2 182.1 260.8 175.5 263.1 180.3 C 268.1 182.4 263.4 177.9 266.9 181.6 C 265.4 178.3 270.7 181.7 269.5 178.1 C 278.3 177.8 268.2 181.9 274.5 179.4 C 272.6 179.2 273.1 184.1 277.1 181.0 C 275.7 175.2 281.7 186.1 279.4 178.4 C 291.8 176.3 281.3 181.6 288.0 181.6 C 289.8 181.6 286.3 179.1 287.8 179.0 C 296.5 180.1 289.2 182.1 293.9 178.4 C 302.6 177.4 296.2 181.6 300.4 181.8 C 300.8 180.1 304.5 177.0 305.0 181.0 M 297.5 179.2 C 295.6 180.4 296.4 178.0 297.5 179.2 M 314.6 181.0 C 312.7 182.2 313.6 179.7 314.6 181.0 M 290.3 180.3 C 287.9 181.5 289.7 178.3 290.3 180.3 M 244.1 178.5 C 247.3 178.5 242.6 179.4 244.1 178.5 M 307.7 181.2 C 305.1 182.7 307.2 179.2 307.7 181.2 M 311.1 178.3 C 310.9 178.2 310.9 178.2 311.1 178.3 M 239.5 181.5 C 239.3 181.5 239.3 181.5 239.5 181.5 M 251.8 181.6 C 249.2 181.5 253.3 180.8 251.8 181.6 M 252.7 169.1 C 250.0 169.0 254.3 168.3 252.7 169.1 M 232.7 181.7 C 230.0 182.7 231.9 180.3 232.7 181.7 M 225.8 178.9 C 223.4 180.1 224.3 177.7 225.8 178.9 M 299.3 174.8 C 299.3 174.7 299.3 174.7 299.3 174.8 C 299.3 174.8 299.3 174.8 299.3 174.8 Z M 276.6 171.7 C 279.3 172.9 273.4 170.2 276.6 171.7 M 280.4 179.9 C 278.7 177.3 284.0 180.1 280.4 179.9 C 280.4 179.9 280.4 179.9 280.4 179.9 Z M 284.5 178.8 C 284.5 178.6 284.5 178.6 284.5 178.8 C 284.5 178.8 284.5 178.8 284.5 178.8 Z M 271.6 178.6 C 271.8 178.6 271.8 178.6 271.6 178.6 C 271.6 178.6 271.6 178.6 271.6 178.6 Z M 274.3 178.4 C 275.4 177.8 275.8 178.9 274.3 178.4 C 274.3 178.4 274.3 178.4 274.3 178.4 Z M 255.9 170.3 C 257.0 169.8 257.3 170.8 255.9 170.3 C 255.9 170.3 255.9 170.3 255.9 170.3 Z M 278.4 177.5 C 278.9 175.0 280.1 179.2 278.4 177.5 C 278.4 177.5 278.4 177.5 278.4 177.5 Z M 264.8 171.5 C 263.6 172.1 262.5 169.0 264.8 171.5 M 236.9 181.1 C 235.7 181.8 234.5 178.7 236.9 181.1 M 264.0 181.8 C 262.8 182.5 261.7 179.4 264.0 181.8 M 295.9 180.3 C 295.7 180.0 295.7 180.0 295.9 180.3 M 281.4 169.3 C 279.6 170.2 280.6 168.1 281.4 169.3 M 307.1 170.1 C 305.2 171.1 306.3 169.0 307.1 170.1 M 241.0 169.3 C 241.1 170.0 238.2 169.0 241.0 169.3 M 260.9 177.7 C 258.5 177.4 256.2 176.0 261.2 176.2 C 261.4 176.8 259.9 177.2 260.9 177.7 C 260.9 177.7 260.9 177.7 260.9 177.7 Z M 252.6 171.9 C 252.2 171.7 252.2 171.7 252.6 171.9 M 256.6 180.1 C 256.3 179.8 256.3 179.8 256.6 180.1 M 242.7 179.8 C 242.4 179.5 242.4 179.5 242.7 179.8 M 241.0 180.6 C 241.0 180.5 241.0 180.5 241.0 180.6 C 241.0 180.6 241.0 180.6 241.0 180.6 Z M 225.7 181.6 C 225.8 181.5 225.8 181.5 225.7 181.6 C 225.7 181.6 225.7 181.6 225.7 181.6 Z M 247.2 179.5 C 247.2 179.4 247.2 179.4 247.2 179.5 C 247.2 179.5 247.2 179.5 247.2 179.5 Z M 234.8 169.8 C 234.8 169.7 234.8 169.7 234.8 169.8 C 234.8 169.8 234.8 169.8 234.8 169.8 Z M 236.4 171.3 C 236.4 171.2 236.4 171.2 236.4 171.3 C 236.4 171.3 236.4 171.3 236.4 171.3 Z M 303.8 181.0 C 301.6 182.8 302.9 176.6 303.8 181.0 M 229.6 171.3 C 227.6 169.6 233.1 171.0 229.6 171.3 C 229.6 171.3 229.6 171.3 229.6 171.3 Z M 248.9 177.4 C 248.7 177.0 248.7 177.0 248.9 177.4 M 240.1 180.3 C 239.9 180.0 239.9 180.0 240.1 180.3 M 280.4 182.2 C 280.2 181.9 280.2 181.9 280.4 182.2 M 229.4 179.8 C 222.9 179.2 232.4 176.2 229.4 179.8 M 283.5 179.8 C 283.7 180.0 283.7 180.0 283.5 179.8 M 269.1 175.1 C 264.8 175.2 270.8 173.7 269.1 175.1 M 257.9 178.3 C 258.1 178.2 258.1 178.2 257.9 178.3 C 257.9 178.3 257.9 178.3 257.9 178.3 Z M 264.4 178.3 C 267.6 177.9 265.2 179.0 264.4 178.3 C 264.4 178.3 264.4 178.3 264.4 178.3 Z M 300.9 178.7 C 296.8 178.3 305.1 177.8 300.9 178.7 C 300.9 178.7 300.9 178.7 300.9 178.7 Z M 232.5 173.9 C 232.7 173.7 232.7 173.7 232.5 173.9 C 232.5 173.9 232.5 173.9 232.5 173.9 Z M 247.9 181.3 C 249.8 180.6 248.8 182.0 247.9 181.3 C 247.9 181.3 247.9 181.3 247.9 181.3 Z M 223.5 181.6 C 225.4 180.9 224.3 182.3 223.5 181.6 C 223.5 181.6 223.5 181.6 223.5 181.6 Z M 305.8 179.1 C 291.0 174.9 325.8 180.2 305.8 179.1 C 305.8 179.1 305.8 179.1 305.8 179.1 Z M 261.7 180.0 C 261.8 179.9 261.8 179.9 261.7 180.0 C 261.7 180.0 261.7 180.0 261.7 180.0 Z M 289.4 181.8 C 289.5 181.6 289.5 181.6 289.4 181.8 C 289.4 181.8 289.4 181.8 289.4 181.8 Z M 294.2 179.4 C 294.3 179.3 294.3 179.3 294.2 179.4 C 294.2 179.4 294.2 179.4 294.2 179.4 Z M 293.5 169.5 C 293.6 169.4 293.6 169.4 293.5 169.5 C 293.5 169.5 293.5 169.5 293.5 169.5 Z M 291.6 174.1 C 291.8 173.7 291.8 173.7 291.6 174.1 C 291.6 174.1 291.6 174.1 291.6 174.1 Z M 301.4 172.3 C 301.6 172.2 301.6 172.2 301.4 172.3 C 301.4 172.3 301.4 172.3 301.4 172.3 Z M 301.3 171.0 C 301.4 170.9 301.4 170.9 301.3 171.0 C 301.3 171.0 301.3 171.0 301.3 171.0 Z M 240.2 177.5 C 240.3 177.3 240.3 177.3 240.2 177.5 C 240.2 177.5 240.2 177.5 240.2 177.5 Z M 245.5 173.4 C 241.9 174.9 246.6 171.2 245.5 173.4 C 245.5 173.4 245.5 173.4 245.5 173.4 Z M 276.5 175.4 C 273.3 175.9 278.7 174.1 276.5 175.4 C 276.5 175.4 276.5 175.4 276.5 175.4 Z M 273.3 170.0 C 273.2 169.9 273.2 169.9 273.3 170.0 C 273.3 170.0 273.3 170.0 273.3 170.0 Z M 294.1 181.8 C 294.2 181.6 294.2 181.6 294.1 181.8 C 294.1 181.8 294.1 181.8 294.1 181.8 Z M 300.1 180.1 C 300.5 178.0 301.8 181.2 300.1 180.1 M 270.3 181.4 C 270.3 181.1 270.3 181.1 270.3 181.4 C 270.3 181.4 270.3 181.4 270.3 181.4 Z M 251.6 178.1 C 251.6 177.9 251.6 177.9 251.6 178.1 C 251.6 178.1 251.6 178.1 251.6 178.1 Z M 232.8 179.4 C 232.9 179.1 232.9 179.1 232.8 179.4 C 232.8 179.4 232.8 179.4 232.8 179.4 Z M 258.6 181.1 C 258.7 180.8 258.7 180.8 258.6 181.1 C 258.6 181.1 258.6 181.1 258.6 181.1 Z M 267.6 179.2 C 267.7 178.9 267.7 178.9 267.6 179.2 C 267.6 179.2 267.6 179.2 267.6 179.2 Z M 228.8 176.5 C 228.9 176.3 228.9 176.3 228.8 176.5 C 228.8 176.5 228.8 176.5 228.8 176.5 Z M 256.5 181.4 C 256.6 181.3 256.6 181.3 256.5 181.4 C 256.5 181.4 256.5 181.4 256.5 181.4 Z M 251.3 174.7 C 251.5 174.5 251.5 174.5 251.3 174.7 C 251.3 174.7 251.3 174.7 251.3 174.7 Z M 299.1 183.1 C 299.1 183.0 299.1 183.0 299.1 183.1 C 299.1 183.1 299.1 183.1 299.1 183.1 Z M 228.5 179.3 C 228.6 179.2 228.6 179.2 228.5 179.3 C 228.5 179.3 228.5 179.3 228.5 179.3 Z M 227.4 181.1 C 227.4 181.0 227.4 181.0 227.4 181.1 C 227.4 181.1 227.4 181.1 227.4 181.1 Z M 240.8 171.2 C 247.4 172.3 234.9 171.6 239.6 173.9 C 230.1 174.5 239.4 171.1 240.8 171.2 C 240.8 171.2 240.8 171.2 240.8 171.2 Z M 240.8 171.2 " fill="#FEFFFE"></path></g></svg>