<?xml version="1.0" encoding="UTF-8" standalone="no"?><svg xmlns="http://www.w3.org/2000/svg" xmlns:xlink="http://www.w3.org/1999/xlink" clip-rule="evenodd" stroke-miterlimit="10" viewBox="0 0 29 30"><desc>SVG generated by Keynote</desc><defs></defs><g transform="matrix(1.00, 0.00, -0.00, -1.00, 0.0, 30.0)"><path d="M 12.5 24.6 C 12.3 24.7 11.7 24.5 11.5 24.7 M 12.5 24.6 C 11.5 23.7 10.5 23.6 9.2 23.4 C 7.8 23.4 9.5 24.3 9.4 24.7 C 7.5 25.0 7.4 24.4 7.5 23.4 C 6.9 24.1 4.7 22.9 5.2 24.1 C 8.2 24.1 2.9 24.4 5.7 25.1 C 6.0 25.3 5.2 25.6 4.9 25.6 C 5.8 26.2 4.2 26.7 5.8 27.1 C 6.1 27.9 5.8 27.6 6.9 28.2 C 7.3 28.2 7.1 28.0 7.0 27.8 C 7.1 26.9 8.4 28.3 9.1 27.7 C 10.2 28.9 10.7 27.5 9.8 27.0 C 10.6 27.2 11.9 28.4 12.4 27.5 C 13.1 28.1 15.0 27.7 13.5 27.0 C 12.4 26.5 13.2 26.2 13.2 25.9 C 12.8 25.6 11.8 26.0 11.5 25.8 C 11.8 25.6 13.1 25.2 11.6 25.2 C 11.9 24.8 11.1 24.5 12.5 24.6 C 12.5 24.6 12.5 24.6 12.5 24.6 Z M 7.1 23.9 C 7.0 23.6 7.5 23.9 7.1 23.9 C 7.1 23.9 7.1 23.9 7.1 23.9 Z M 12.0 28.2 C 11.9 27.8 12.6 28.2 12.0 28.2 C 12.0 28.2 12.0 28.2 12.0 28.2 Z M 7.3 27.8 C 7.3 27.5 7.9 27.8 7.3 27.8 C 7.3 27.8 7.3 27.8 7.3 27.8 Z M 8.4 24.1 C 9.3 24.4 7.8 24.6 7.7 24.3 C 7.8 24.3 8.2 23.9 8.4 24.1 C 8.4 24.1 8.4 24.1 8.4 24.1 Z M 9.0 26.0 C 9.0 25.8 9.4 25.8 9.4 26.1 C 9.2 26.2 8.9 26.1 9.0 26.0 C 9.0 26.0 9.0 26.0 9.0 26.0 Z M 4.5 24.7 C 4.6 24.5 4.9 24.5 4.9 24.8 C 4.7 24.9 4.5 24.8 4.5 24.7 C 4.5 24.7 4.5 24.7 4.5 24.7 Z M 9.6 25.0 C 9.8 25.0 10.0 25.3 9.7 25.3 C 9.6 25.2 9.0 25.1 9.6 25.0 C 9.6 25.0 9.6 25.0 9.6 25.0 Z M 10.6 23.9 C 11.3 24.1 10.1 24.5 10.0 24.4 C 9.7 24.2 10.1 23.6 10.6 23.9 C 10.6 23.9 10.6 23.9 10.6 23.9 Z M 10.1 25.4 C 10.8 25.5 9.9 25.6 10.1 25.4 C 10.1 25.4 10.1 25.4 10.1 25.4 Z M 5.2 27.0 C 5.8 27.2 4.9 27.2 5.2 27.0 C 5.2 27.0 5.2 27.0 5.2 27.0 Z M 8.8 28.0 C 9.5 28.1 8.6 28.2 8.8 28.0 C 8.8 28.0 8.8 28.0 8.8 28.0 Z M 7.0 24.7 C 6.0 24.7 6.8 23.9 7.0 24.7 C 7.0 24.7 7.0 24.7 7.0 24.7 Z M 12.1 23.8 C 11.1 23.8 11.6 23.0 12.1 23.8 C 12.1 23.8 12.1 23.8 12.1 23.8 Z M 6.0 24.5 C 6.2 25.4 7.2 22.1 6.0 23.2 C 5.0 23.5 5.1 21.0 6.0 21.8 C 6.1 21.1 6.2 21.1 5.7 20.6 C 6.5 20.7 6.8 19.2 6.4 18.5 C 5.8 17.9 6.4 19.6 5.7 18.4 C 5.5 16.2 5.0 18.3 4.1 17.1 C 4.1 17.0 4.5 17.1 4.3 16.8 C 3.5 16.4 3.0 17.6 2.4 16.7 C 2.5 17.1 1.6 18.7 2.3 18.1 C 3.0 18.1 1.4 19.9 2.6 20.0 C 2.1 20.4 2.8 21.2 2.2 21.6 C 2.0 22.1 2.7 22.2 2.8 22.1 C 3.4 22.2 1.5 22.5 2.5 23.3 C 2.2 23.3 2.4 25.3 2.8 23.9 C 2.7 24.3 2.5 26.5 3.6 25.4 C 4.1 23.9 4.7 26.9 4.7 25.2 C 4.9 23.9 4.6 23.6 5.2 24.6 C 5.2 24.9 5.3 26.4 5.8 25.2 C 5.6 24.9 5.7 24.3 6.0 24.5 C 6.0 24.5 6.0 24.5 6.0 24.5 Z M 4.4 24.7 C 4.4 23.9 4.8 24.6 4.4 24.7 C 4.4 24.7 4.4 24.7 4.4 24.7 Z M 1.9 21.5 C 1.9 20.6 2.3 21.5 1.9 21.5 C 1.9 21.5 1.9 21.5 1.9 21.5 Z M 6.3 22.4 C 6.0 21.9 7.1 22.1 6.3 22.4 C 6.3 22.4 6.3 22.4 6.3 22.4 Z M 2.8 23.0 C 2.8 23.0 3.0 23.2 3.0 23.3 C 3.0 23.3 2.8 23.1 2.8 23.0 C 2.8 23.0 2.8 23.0 2.8 23.0 Z M 6.3 21.2 C 5.7 20.0 7.2 21.2 6.3 21.2 C 6.3 21.2 6.3 21.2 6.3 21.2 Z M 5.2 18.7 C 4.1 18.2 5.5 17.7 5.2 18.7 C 5.2 18.7 5.2 18.7 5.2 18.7 Z M 2.7 19.6 C 3.0 19.9 2.6 19.8 2.7 19.6 C 2.7 19.6 2.7 19.6 2.7 19.6 Z M 2.5 24.9 C 2.8 25.1 2.4 25.1 2.5 24.9 C 2.5 24.9 2.5 24.9 2.5 24.9 Z M 2.8 18.1 C 3.2 18.4 2.6 18.5 2.8 18.1 C 2.8 18.1 2.8 18.1 2.8 18.1 Z M 5.8 22.1 C 6.8 23.2 4.5 23.1 5.8 22.1 C 5.8 22.1 5.8 22.1 5.8 22.1 Z M 5.9 23.8 C 6.1 24.5 5.4 23.7 5.5 23.4 C 5.6 23.4 5.9 23.7 5.9 23.8 C 5.9 23.8 5.9 23.8 5.9 23.8 Z M 5.7 21.0 C 6.2 21.8 5.5 21.6 5.7 21.0 C 5.7 21.0 5.7 21.0 5.7 21.0 Z M 6.2 22.8 C 6.1 23.1 6.1 22.5 6.2 22.8 C 6.2 22.8 6.2 22.8 6.2 22.8 Z M 6.7 20.0 C 6.6 20.3 6.6 19.7 6.7 20.0 C 6.7 20.0 6.7 20.0 6.7 20.0 Z M 6.4 24.7 C 6.3 25.0 6.3 24.4 6.4 24.7 C 6.4 24.7 6.4 24.7 6.4 24.7 Z M 6.1 20.1 C 5.7 19.9 4.8 20.6 5.5 19.1 C 5.8 18.9 6.4 19.8 6.1 20.1 C 6.1 20.1 6.1 20.1 6.1 20.1 Z M 15.5 24.6 C 10.7 23.3 12.6 25.6 12.6 26.0 C 12.2 26.6 13.0 27.0 14.1 27.4 C 15.9 28.8 15.0 26.0 16.4 27.4 C 18.9 29.3 16.9 25.7 18.7 27.7 C 18.9 28.2 20.6 27.8 20.3 27.7 C 22.0 28.6 22.1 26.9 21.9 26.8 C 22.8 27.0 24.4 28.8 25.3 27.5 C 25.6 27.4 25.9 27.4 26.3 27.5 C 26.5 26.8 27.3 27.2 26.4 26.7 C 27.8 26.6 26.0 25.5 26.4 24.7 C 27.2 24.4 25.3 23.8 26.7 23.3 C 25.6 21.9 27.5 24.6 26.7 19.8 C 26.6 21.7 25.8 17.6 26.5 18.6 C 27.3 20.3 26.2 16.6 26.7 14.7 C 26.3 14.2 25.3 12.2 26.4 12.3 C 27.7 9.9 25.6 10.6 26.7 9.4 C 27.1 8.5 26.1 8.7 26.2 8.3 C 27.0 7.1 26.5 6.8 26.7 4.2 C 26.8 2.7 26.7 2.0 26.5 1.9 C 25.8 2.2 25.6 2.6 25.4 3.1 C 25.1 3.4 24.9 3.8 24.5 4.0 C 24.3 4.0 24.2 4.0 24.0 4.1 C 23.9 4.2 23.7 4.5 23.6 4.8 C 22.8 6.1 21.9 7.8 23.3 5.9 C 22.7 6.7 24.8 8.6 22.6 8.3 C 23.5 9.0 21.7 8.8 22.8 10.4 C 24.3 5.8 23.4 14.0 22.6 11.0 C 22.2 11.7 22.3 12.8 22.7 11.8 C 24.1 11.0 22.0 14.1 23.7 12.5 C 23.2 14.7 24.8 14.1 23.7 14.8 C 21.9 15.2 24.2 14.6 23.7 15.8 C 23.6 18.3 21.5 16.0 22.9 17.7 C 22.0 19.5 23.7 18.5 24.0 19.5 C 25.2 20.3 23.0 21.4 22.8 19.6 C 23.5 20.9 22.2 19.4 23.0 20.9 C 24.2 20.8 21.8 21.3 22.7 21.7 C 23.0 22.9 23.7 23.0 23.7 23.4 C 23.7 24.9 22.6 23.3 23.5 24.5 C 23.5 24.6 23.5 24.7 23.5 24.7 C 23.2 24.7 21.5 23.6 21.7 23.9 C 23.4 24.0 21.4 25.2 20.7 24.6 C 21.6 24.5 18.9 23.0 19.1 23.9 C 22.0 26.5 17.2 23.3 17.2 24.2 C 18.9 25.6 13.7 24.4 15.0 23.7 C 14.9 23.8 15.6 24.6 15.5 24.6 M 21.4 24.2 C 22.8 24.3 20.2 24.4 21.4 24.2 M 21.0 23.8 C 22.0 24.3 19.5 23.4 20.9 23.6 C 20.9 23.6 20.9 23.7 21.0 23.8 M 22.6 20.4 C 23.0 20.8 22.3 20.9 22.6 20.4 M 23.4 19.9 C 23.8 19.3 23.5 21.1 23.4 19.9 M 23.2 8.5 C 25.3 8.5 22.0 10.3 23.2 8.5 M 22.7 15.9 C 23.0 17.3 21.8 15.4 22.7 15.9 M 23.3 16.4 C 23.6 17.1 22.8 16.4 23.3 16.4 M 23.2 10.6 C 23.2 10.5 23.2 10.5 23.2 10.6 C 23.2 10.6 23.2 10.6 23.2 10.6 Z M 23.2 7.2 C 23.2 7.2 23.2 7.2 23.2 7.2 C 23.2 7.2 23.2 7.2 23.2 7.2 Z M 23.4 13.9 C 22.9 14.9 23.2 12.2 23.4 13.9 C 23.4 13.9 23.4 13.9 23.4 13.9 Z M 26.5 6.8 C 26.5 6.9 26.5 6.9 26.5 6.8 C 26.5 6.8 26.5 6.8 26.5 6.8 Z M 21.2 25.1 C 21.2 25.2 21.2 25.2 21.2 25.1 C 21.2 25.1 21.2 25.1 21.2 25.1 Z M 16.4 24.3 C 16.7 24.6 15.5 24.1 16.4 24.3 C 16.4 24.3 16.4 24.3 16.4 24.3 Z M 14.2 26.8 C 14.2 26.8 14.2 26.8 14.2 26.8 C 14.2 26.8 14.2 26.8 14.2 26.8 Z M 20.7 26.3 C 20.6 26.3 20.6 26.3 20.7 26.3 C 20.7 26.3 20.7 26.3 20.7 26.3 Z M 20.0 24.7 C 18.4 23.5 21.9 25.0 20.0 24.7 C 20.0 24.7 20.0 24.7 20.0 24.7 Z M 26.3 15.3 C 25.8 15.2 26.5 14.1 26.3 15.3 C 26.3 15.3 26.3 15.3 26.3 15.3 Z M 23.9 20.0 C 23.7 19.7 24.0 19.5 23.9 20.0 C 23.9 20.0 23.9 20.0 23.9 20.0 Z M 22.3 21.1 C 22.1 20.8 22.5 20.7 22.3 21.1 C 22.3 21.1 22.3 21.1 22.3 21.1 Z M 16.3 24.0 C 16.3 23.9 16.3 23.9 16.3 24.0 C 16.3 24.0 16.3 24.0 16.3 24.0 Z M 18.4 24.9 C 16.6 23.8 20.4 25.5 18.4 24.9 C 18.4 24.9 18.4 24.9 18.4 24.9 Z M 16.8 25.2 C 17.6 25.6 15.3 25.0 16.8 25.2 M 19.0 26.9 C 20.0 26.4 18.9 28.9 19.0 26.9 C 19.0 26.9 19.0 26.9 19.0 26.9 Z M 26.2 26.9 C 26.2 26.9 26.2 26.9 26.2 26.9 C 26.2 26.9 26.2 26.9 26.2 26.9 Z M 22.6 24.1 C 22.8 24.1 22.9 24.1 23.0 24.1 C 23.0 24.1 23.0 24.1 23.0 24.2 C 22.9 24.3 22.3 24.3 22.6 24.1 C 22.6 24.1 22.6 24.1 22.6 24.1 Z M 13.1 23.9 C 14.2 23.9 12.6 24.1 13.1 23.9 C 13.1 23.9 13.1 23.9 13.1 23.9 Z M 25.1 21.8 C 24.9 19.7 25.7 23.4 25.1 21.8 C 25.1 21.8 25.1 21.8 25.1 21.8 Z M 23.8 14.4 C 23.8 14.4 23.8 14.4 23.8 14.4 C 23.8 14.4 23.8 14.4 23.8 14.4 Z M 23.4 13.3 C 23.4 13.3 23.4 13.3 23.4 13.3 C 23.4 13.3 23.4 13.3 23.4 13.3 Z M 24.5 7.7 C 24.5 7.6 24.5 7.6 24.5 7.7 C 24.5 7.7 24.5 7.7 24.5 7.7 Z M 22.8 12.4 C 22.9 12.3 22.9 12.3 22.8 12.4 C 22.8 12.4 22.8 12.4 22.8 12.4 Z M 23.1 9.0 C 23.2 8.9 23.2 8.9 23.1 9.0 C 23.1 9.0 23.1 9.0 23.1 9.0 Z M 22.2 10.0 C 22.2 9.9 22.2 9.9 22.2 10.0 C 22.2 10.0 22.2 10.0 22.2 10.0 Z M 27.0 17.6 C 27.0 17.5 27.0 17.5 27.0 17.6 C 27.0 17.6 27.0 17.6 27.0 17.6 Z M 17.9 23.6 C 18.1 23.7 18.1 23.7 17.9 23.6 C 17.9 23.6 17.9 23.6 17.9 23.6 Z M 23.5 9.0 C 23.6 9.0 23.6 9.0 23.5 9.0 C 23.5 9.0 23.5 9.0 23.5 9.0 Z M 24.4 17.6 C 25.4 17.8 23.2 18.0 24.4 17.4 C 24.4 17.4 24.3 17.6 24.4 17.6 M 26.0 16.6 C 26.0 16.7 26.0 16.7 26.0 16.6 C 26.0 16.6 26.0 16.6 26.0 16.6 Z M 26.6 21.7 C 26.6 21.7 26.6 21.7 26.6 21.7 C 26.6 21.7 26.6 21.7 26.6 21.7 Z M 22.6 13.0 C 22.1 13.2 23.0 12.0 22.7 13.1 M 26.1 6.6 C 25.6 7.1 26.5 5.1 26.2 6.7 M 12.1 24.2 C 12.1 24.6 11.3 24.0 12.1 24.2 M 27.1 23.1 C 27.5 23.5 26.8 23.9 27.1 23.1 M 25.9 20.1 C 25.3 20.1 26.3 19.1 25.9 20.3 M 26.1 9.9 C 26.1 9.8 26.1 9.8 26.1 9.9 C 26.1 9.9 26.1 9.9 26.1 9.9 Z M 23.1 23.0 C 23.1 22.9 23.1 22.9 23.1 23.0 C 23.1 23.0 23.1 23.0 23.1 23.0 Z M 24.2 19.0 C 23.4 19.4 24.6 18.3 24.2 19.0 M 24.3 25.5 C 23.5 25.1 23.7 25.1 24.0 25.2 C 24.5 25.3 25.4 25.6 24.3 25.5 C 24.3 25.5 24.3 25.5 24.3 25.5 M 26.4 3.9 C 25.3 6.0 26.9 2.4 26.4 3.9 M 23.7 11.4 C 22.6 12.7 24.2 10.4 23.7 11.4 M 23.5 22.4 C 22.9 22.1 23.8 21.6 23.5 22.4 M 14.5 24.1 C 13.4 24.0 15.5 23.7 14.5 24.1 M 26.1 13.0 C 26.2 13.0 26.2 13.0 26.1 13.0 C 26.1 13.0 26.1 13.0 26.1 13.0 Z M 20.7 28.3 C 20.8 28.3 20.8 28.3 20.7 28.3 C 20.7 28.3 20.7 28.3 20.7 28.3 Z M 22.8 5.7 C 22.9 5.6 22.9 5.6 22.8 5.7 C 22.8 5.7 22.8 5.7 22.8 5.7 Z M 24.2 11.9 C 24.2 11.8 24.2 11.8 24.2 11.9 C 24.2 11.9 24.2 11.9 24.2 11.9 Z M 22.7 7.7 C 22.7 7.5 22.7 7.5 22.7 7.7 C 22.7 7.7 22.7 7.7 22.7 7.7 Z M 25.0 15.3 C 25.0 15.3 25.0 15.3 25.0 15.3 C 25.0 15.3 25.0 15.3 25.0 15.3 Z M 22.2 15.7 C 22.3 15.7 22.3 15.7 22.2 15.7 C 22.2 15.7 22.2 15.7 22.2 15.7 Z M 23.4 19.3 C 23.4 19.3 23.4 19.3 23.4 19.3 C 23.4 19.3 23.4 19.3 23.4 19.3 Z M 22.5 14.3 C 22.3 12.5 23.4 15.3 22.5 14.3 C 22.5 14.3 22.5 14.3 22.5 14.3 Z M 25.2 18.4 C 25.2 18.4 25.2 18.4 25.2 18.4 C 25.2 18.4 25.2 18.4 25.2 18.4 Z M 23.3 18.1 C 22.5 16.6 24.6 17.8 23.3 18.1 M 22.6 23.2 C 22.2 22.4 23.3 23.6 22.6 23.2 M 24.3 27.4 C 24.3 27.4 24.3 27.4 24.3 27.4 C 24.3 27.4 24.3 27.4 24.3 27.4 Z M 24.8 27.1 C 24.9 27.1 24.9 27.1 24.8 27.1 C 24.8 27.1 24.8 27.1 24.8 27.1 Z M 21.7 23.6 C 21.8 23.6 21.8 23.6 21.7 23.6 C 21.7 23.6 21.7 23.6 21.7 23.6 Z M 25.8 28.1 C 25.9 28.2 25.9 28.2 25.8 28.1 C 25.8 28.1 25.8 28.1 25.8 28.1 Z M 22.3 16.4 C 22.3 16.4 22.3 16.4 22.3 16.4 C 22.3 16.4 22.3 16.4 22.3 16.4 Z M 22.3 7.1 C 22.3 7.0 22.3 7.0 22.3 7.1 C 22.3 7.1 22.3 7.1 22.3 7.1 Z M 16.4 27.0 C 16.5 27.1 16.5 27.1 16.4 27.0 C 16.4 27.0 16.4 27.0 16.4 27.0 Z M 23.4 15.5 C 23.4 15.5 23.4 15.5 23.4 15.5 C 23.4 15.5 23.4 15.5 23.4 15.5 Z M 22.3 27.2 C 22.4 27.3 22.4 27.3 22.3 27.2 C 22.3 27.2 22.3 27.2 22.3 27.2 Z M 23.2 16.2 C 23.2 16.2 23.2 16.2 23.2 16.2 C 23.2 16.2 23.2 16.2 23.2 16.2 Z M 26.4 13.4 C 26.4 13.4 26.4 13.4 26.4 13.4 C 26.4 13.4 26.4 13.4 26.4 13.4 Z M 27.0 10.3 C 27.0 10.2 27.0 10.2 27.0 10.3 C 27.0 10.3 27.0 10.3 27.0 10.3 Z M 24.5 13.8 C 24.5 13.8 24.5 13.8 24.5 13.8 C 24.5 13.8 24.5 13.8 24.5 13.8 Z M 20.5 26.0 C 15.2 25.1 23.8 25.6 20.5 26.0 M 24.7 13.0 C 24.5 16.2 23.6 10.8 24.7 13.0 C 24.4 12.7 24.6 12.9 24.7 13.0 M 21.6 6.1 C 22.4 5.6 23.0 5.2 23.6 4.8 C 24.2 4.4 24.5 4.0 24.8 3.6 C 24.9 3.4 25.0 3.2 25.1 3.0 C 24.9 2.5 23.1 4.5 24.6 2.8 C 26.5 2.5 26.0 0.2 24.2 2.5 C 21.7 2.8 25.0 1.0 22.8 1.9 C 20.2 2.1 21.9 1.5 19.8 1.6 C 18.2 2.8 18.8 1.0 17.9 2.2 C 19.3 0.9 15.8 2.5 15.8 2.0 C 17.8 1.2 9.0 1.9 13.7 2.3 C 12.0 2.9 12.1 1.9 11.4 1.7 C 10.8 2.4 7.9 1.1 7.1 1.8 C 7.4 2.0 8.0 2.1 8.3 2.3 C 8.9 2.8 7.0 2.2 7.2 2.2 C 6.6 2.5 4.4 3.3 6.4 2.0 C 6.2 1.4 4.0 2.2 3.6 1.7 C 2.9 1.7 2.5 1.8 2.4 1.9 C 2.7 2.7 3.2 2.4 2.5 2.5 C 2.5 4.4 2.5 5.7 2.6 5.8 C 2.5 6.9 1.8 6.6 2.5 8.1 C 1.2 9.5 5.0 11.4 2.4 10.6 C 3.1 11.6 1.4 11.2 3.0 12.1 C 2.2 10.8 1.7 15.4 2.9 13.9 C 3.3 14.6 1.2 16.7 2.9 16.9 C 4.0 18.3 5.2 18.5 6.3 17.0 C 5.4 16.8 7.3 15.5 5.7 16.1 C 5.2 17.6 5.2 12.6 5.7 14.0 C 7.6 15.3 4.6 10.8 5.9 10.8 C 5.2 11.1 4.8 6.7 6.2 9.1 C 6.3 8.4 5.6 7.7 6.4 7.6 C 6.3 9.8 5.0 5.4 5.8 6.3 C 6.1 6.7 6.3 6.4 6.4 5.8 C 7.2 6.0 8.1 5.9 7.5 5.5 C 4.6 3.5 8.6 5.9 8.6 5.1 C 10.2 4.7 9.5 6.8 9.8 5.3 C 10.3 5.6 12.6 5.6 11.3 6.0 C 10.7 5.8 12.1 3.8 12.7 5.5 C 10.7 6.4 15.5 6.0 14.7 5.5 C 10.5 4.6 19.2 4.5 15.8 5.4 C 17.1 6.3 15.2 5.7 17.4 5.3 C 17.2 4.8 19.2 4.3 18.3 5.4 C 17.9 6.9 20.0 3.3 20.2 5.4 C 19.7 6.3 23.4 4.7 21.5 5.8 C 21.3 5.9 21.5 6.1 21.6 6.1 M 21.0 5.9 C 21.6 5.5 21.1 6.3 21.0 5.9 M 21.6 5.5 C 21.6 5.6 21.6 5.6 21.6 5.5 C 21.6 5.5 21.6 5.5 21.6 5.5 Z M 17.7 5.3 C 17.7 5.3 17.7 5.3 17.7 5.3 C 17.7 5.3 17.7 5.3 17.7 5.3 Z M 14.4 1.3 C 14.5 1.4 14.5 1.4 14.4 1.3 C 14.4 1.3 14.4 1.3 14.4 1.3 Z M 15.0 5.2 C 15.0 5.2 15.0 5.2 15.0 5.2 C 15.0 5.2 15.0 5.2 15.0 5.2 Z M 19.3 5.0 C 19.3 5.0 19.3 5.0 19.3 5.0 C 19.3 5.0 19.3 5.0 19.3 5.0 Z M 15.2 5.8 C 15.0 5.2 16.0 6.2 15.1 5.9 C 15.1 5.8 15.3 5.8 15.2 5.8 M 11.9 6.0 C 11.8 5.9 11.8 5.9 11.9 6.0 M 1.9 4.1 C 1.8 4.1 1.8 4.1 1.9 4.1 M 6.6 8.9 C 6.5 9.0 6.5 9.0 6.6 8.9 M 8.2 5.4 C 7.1 5.5 7.7 5.1 8.2 5.4 M 6.3 11.7 C 6.6 10.6 6.6 13.5 6.3 11.7 M 6.6 13.4 C 6.6 13.5 6.6 13.5 6.6 13.4 M 6.4 6.6 C 6.3 6.6 6.3 6.6 6.4 6.6 C 6.4 6.6 6.4 6.6 6.4 6.6 Z M 8.8 5.7 C 10.3 6.0 7.9 6.2 8.8 5.7 M 17.0 5.9 C 16.2 6.1 17.3 5.1 17.0 5.9 M 18.7 5.5 C 18.8 5.5 18.8 5.5 18.7 5.5 C 18.7 5.5 18.7 5.5 18.7 5.5 Z M 6.3 9.4 C 6.3 9.3 6.3 9.3 6.3 9.4 C 6.3 9.4 6.3 9.4 6.3 9.4 Z M 6.4 11.2 C 6.4 11.1 6.4 11.1 6.4 11.2 C 6.4 11.2 6.4 11.2 6.4 11.2 Z M 2.1 11.4 C 2.0 11.3 2.0 11.3 2.1 11.4 C 2.1 11.4 2.1 11.4 2.1 11.4 Z M 18.2 3.7 C 19.3 4.0 16.6 5.1 17.1 4.1 C 17.1 3.6 18.0 3.8 18.2 3.7 M 9.0 4.3 C 7.8 2.8 11.1 6.3 9.0 4.3 M 5.6 13.0 C 3.9 13.2 6.9 12.4 5.6 13.0 M 5.9 15.6 C 5.6 16.1 5.7 11.0 6.2 14.9 C 6.5 15.4 6.1 15.4 5.9 15.6 M 11.6 5.3 C 11.0 4.5 13.3 5.6 11.6 5.3 M 3.4 3.9 C 3.9 5.0 4.4 7.0 3.5 5.5 C 2.3 4.5 2.9 2.6 3.4 3.9 M 21.4 5.0 C 19.6 6.3 22.3 3.9 21.4 5.0 M 17.1 4.9 C 17.1 5.0 17.1 5.0 17.1 4.9 C 17.1 4.9 17.1 4.9 17.1 4.9 Z M 15.4 5.1 C 15.3 5.0 15.3 5.0 15.4 5.1 M 19.9 6.2 C 19.9 6.1 19.9 6.1 19.9 6.2 M 4.7 5.1 C 4.6 5.1 4.6 5.1 4.7 5.1 M 8.2 5.1 C 5.4 3.8 8.9 4.8 8.2 5.1 M 11.6 2.6 C 10.8 2.0 12.9 2.5 11.6 2.6 M 6.1 5.6 C 5.5 5.7 5.2 5.1 5.2 4.7 C 5.2 4.2 5.4 4.0 6.0 5.5 C 6.1 5.5 6.1 5.6 6.1 5.6 M 9.1 5.2 C 9.0 5.2 9.0 5.2 9.1 5.2 C 9.1 5.2 9.1 5.2 9.1 5.2 Z M 3.2 4.2 C 3.2 4.2 3.2 4.2 3.2 4.2 C 3.2 4.2 3.2 4.2 3.2 4.2 Z M 3.3 4.9 C 3.3 4.8 3.3 4.8 3.3 4.9 C 3.3 4.9 3.3 4.9 3.3 4.9 Z M 6.2 7.3 C 6.2 7.2 6.2 7.2 6.2 7.3 C 6.2 7.3 6.2 7.3 6.2 7.3 Z M 20.6 2.1 C 19.1 2.0 21.9 1.9 20.6 2.1 C 20.6 2.1 20.6 2.1 20.6 2.1 Z M 13.9 5.8 C 11.9 4.8 15.3 4.8 13.9 5.8 C 13.9 5.8 13.9 5.8 13.9 5.8 Z M 11.4 4.2 C 11.4 4.1 11.4 4.1 11.4 4.2 C 11.4 4.2 11.4 4.2 11.4 4.2 Z M 7.4 6.3 C 7.4 6.2 7.4 6.2 7.4 6.3 C 7.4 6.3 7.4 6.3 7.4 6.3 Z M 19.9 2.0 C 19.9 1.9 19.9 1.9 19.9 2.0 C 19.9 2.0 19.9 2.0 19.9 2.0 Z M 5.6 10.3 C 5.5 10.2 5.5 10.2 5.6 10.3 C 5.6 10.3 5.6 10.3 5.6 10.3 Z M 5.5 2.5 C 5.3 3.0 5.0 2.1 5.5 2.5 C 5.5 2.5 5.5 2.5 5.5 2.5 Z M 3.2 2.5 C 3.2 2.5 3.2 2.5 3.2 2.5 C 3.2 2.5 3.2 2.5 3.2 2.5 Z M 6.7 13.9 C 6.7 14.0 6.7 14.0 6.7 13.9 C 6.7 13.9 6.7 13.9 6.7 13.9 Z M 1.9 6.8 C 1.9 6.9 1.9 6.9 1.9 6.8 C 1.9 6.8 1.9 6.8 1.9 6.8 Z M 3.3 9.7 C 3.3 9.7 3.3 9.7 3.3 9.7 C 3.3 9.7 3.3 9.7 3.3 9.7 Z M 5.9 6.7 C 6.2 8.7 5.4 5.7 5.9 6.7 C 5.9 6.7 5.9 6.7 5.9 6.7 Z M 3.7 15.0 C 3.6 15.1 3.6 15.1 3.7 15.0 C 3.7 15.0 3.7 15.0 3.7 15.0 Z M 5.4 16.8 C 5.3 16.8 5.3 16.8 5.4 16.8 C 5.4 16.8 5.4 16.8 5.4 16.8 Z M 6.3 17.7 C 6.2 17.7 6.2 17.7 6.3 17.7 C 6.3 17.7 6.3 17.7 6.3 17.7 Z M 15.6 3.3 C 15.6 3.4 15.6 3.4 15.6 3.3 C 15.6 3.3 15.6 3.3 15.6 3.3 Z M 15.9 6.1 C 15.9 6.1 15.9 6.1 15.9 6.1 C 15.9 6.1 15.9 6.1 15.9 6.1 Z M 13.8 6.2 C 13.9 6.2 13.9 6.2 13.8 6.2 C 13.8 6.2 13.8 6.2 13.8 6.2 Z M 16.4 1.7 C 16.4 1.7 16.4 1.7 16.4 1.7 C 16.4 1.7 16.4 1.7 16.4 1.7 Z M 6.1 4.0 C 6.2 4.0 6.2 4.0 6.1 4.0 C 6.1 4.0 6.1 4.0 6.1 4.0 Z M 4.1 2.9 C 4.2 2.9 4.2 2.9 4.1 2.9 C 4.1 2.9 4.1 2.9 4.1 2.9 Z M 5.6 1.4 C 5.7 1.4 5.7 1.4 5.6 1.4 C 5.6 1.4 5.6 1.4 5.6 1.4 Z M 2.5 2.0 C 2.5 2.0 2.5 2.0 2.5 2.0 C 2.5 2.0 2.5 2.0 2.5 2.0 Z M 24.1 2.2 C 24.2 2.1 24.2 2.1 24.1 2.2 C 24.1 2.2 24.1 2.2 24.1 2.2 Z M 22.6 4.3 C 22.7 4.2 22.7 4.2 22.6 4.3 C 22.6 4.3 22.6 4.3 22.6 4.3 Z M 7.1 5.5 C 7.2 6.0 5.8 4.9 7.1 5.5 M 10.2 5.2 C 10.2 5.2 10.2 5.2 10.2 5.2 C 10.2 5.2 10.2 5.2 10.2 5.2 Z M 6.0 10.3 C 5.1 10.1 6.4 8.9 6.0 10.3 C 6.0 10.3 6.0 10.3 6.0 10.3 Z M 2.5 5.4 C 2.5 5.4 2.5 5.4 2.5 5.4 C 2.5 5.4 2.5 5.4 2.5 5.4 Z M 2.8 6.7 C 2.7 6.8 2.7 6.8 2.8 6.7 C 2.8 6.7 2.8 6.7 2.8 6.7 Z M 5.1 14.0 C 5.0 14.0 5.0 14.0 5.1 14.0 M 10.9 6.0 C 10.3 5.6 10.4 5.7 10.9 6.0 M 5.9 11.4 C 5.9 11.4 5.9 11.4 5.9 11.4 C 5.9 11.4 5.9 11.4 5.9 11.4 Z M 5.6 15.4 C 5.5 15.3 5.5 15.3 5.6 15.4 C 5.6 15.4 5.6 15.4 5.6 15.4 Z M 13.0 5.4 C 12.7 4.4 13.2 4.7 13.0 5.4 M 19.6 5.1 C 19.6 5.0 19.6 5.0 19.6 5.1 C 19.6 5.1 19.6 5.1 19.6 5.1 Z M 19.6 5.1 " fill="#FEFFFE"></path></g></svg>