<?xml version="1.0" encoding="UTF-8" standalone="no"?><svg xmlns="http://www.w3.org/2000/svg" xmlns:xlink="http://www.w3.org/1999/xlink" clip-rule="evenodd" stroke-miterlimit="10" viewBox="0 0 31 30"><desc>SVG generated by Keynote</desc><defs></defs><g transform="matrix(1.00, 0.00, -0.00, -1.00, 0.0, 30.0)"><path d="M 18.2 15.4 C 18.3 15.6 17.8 16.1 17.9 16.2 M 18.2 15.4 C 16.9 16.0 16.4 16.8 15.6 17.8 C 15.0 19.0 16.6 17.9 16.9 18.0 C 16.4 19.8 15.7 19.6 14.8 19.2 C 15.2 19.9 13.2 21.2 14.5 21.4 C 15.8 18.8 13.7 23.5 15.6 21.4 C 15.9 21.2 15.9 22.1 15.7 22.3 C 16.6 21.7 16.4 23.4 17.5 22.2 C 18.3 22.3 17.9 22.4 19.0 21.6 C 19.3 21.2 18.9 21.3 18.7 21.3 C 17.9 20.9 19.8 20.3 19.7 19.4 C 21.3 18.8 20.2 17.9 19.4 18.4 C 19.9 17.8 21.7 17.0 21.1 16.2 C 22.0 15.8 22.6 13.9 21.1 15.1 C 20.1 16.0 20.1 15.2 19.9 15.1 C 19.4 15.4 19.3 16.4 19.0 16.5 C 18.9 16.2 19.1 15.0 18.4 16.3 C 18.2 15.9 17.5 16.6 18.2 15.4 C 18.2 15.4 18.2 15.4 18.2 15.4 Z M 15.1 19.7 C 14.8 19.7 15.4 19.3 15.1 19.7 C 15.1 19.7 15.1 19.7 15.1 19.7 Z M 21.5 16.9 C 21.1 16.9 21.8 16.3 21.5 16.9 C 21.5 16.9 21.5 16.9 21.5 16.9 Z M 18.9 21.1 C 18.6 21.0 19.2 20.5 18.9 21.1 C 18.9 21.1 18.9 21.1 18.9 21.1 Z M 15.9 18.7 C 16.6 18.0 16.1 19.3 15.7 19.4 C 15.9 19.2 15.6 18.8 15.9 18.7 C 15.9 18.7 15.9 18.7 15.9 18.7 Z M 17.9 18.9 C 17.8 18.8 18.0 18.4 18.3 18.5 C 18.3 18.7 18.0 18.9 17.9 18.9 C 17.9 18.9 17.9 18.9 17.9 18.9 Z M 14.7 22.2 C 14.6 22.1 14.7 21.8 15.0 22.0 C 15.0 22.2 14.8 22.3 14.7 22.2 C 14.7 22.2 14.7 22.2 14.7 22.2 Z M 17.3 18.0 C 17.4 17.8 17.8 17.7 17.7 18.0 C 17.5 18.1 17.2 18.6 17.3 18.0 C 17.3 18.0 17.3 18.0 17.3 18.0 Z M 16.7 16.8 C 17.2 16.3 17.1 17.4 16.9 17.4 C 16.6 17.6 16.2 17.1 16.7 16.8 C 16.7 16.8 16.7 16.8 16.7 16.8 Z M 17.9 17.6 C 18.4 17.1 18.1 17.9 17.9 17.6 C 17.9 17.6 17.9 17.6 17.9 17.6 Z M 17.1 22.7 C 17.5 22.1 17.2 23.0 17.1 22.7 C 17.1 22.7 17.1 22.7 17.1 22.7 Z M 19.8 19.7 C 20.2 19.1 19.9 20.1 19.8 19.7 C 19.8 19.7 19.8 19.7 19.8 19.7 Z M 15.9 20.1 C 15.4 21.0 15.0 20.0 15.9 20.1 C 15.9 20.1 15.9 20.1 15.9 20.1 Z M 17.3 15.5 C 16.8 16.3 16.3 15.7 17.3 15.5 C 17.3 15.5 17.3 15.5 17.3 15.5 Z M 16.6 21.0 C 17.1 21.7 16.7 18.6 16.0 20.0 C 15.1 20.6 14.1 18.4 15.4 18.8 C 15.2 18.2 15.2 18.2 14.5 17.9 C 15.3 17.7 15.0 16.4 14.3 15.9 C 13.4 15.6 14.7 16.8 13.5 16.0 C 12.3 14.2 12.7 16.1 11.3 15.3 C 11.3 15.2 11.8 15.2 11.4 15.0 C 10.4 14.8 10.4 16.0 9.4 15.4 C 9.7 15.7 9.6 17.4 10.0 16.7 C 10.8 16.5 10.0 18.6 11.3 18.3 C 11.0 18.9 12.1 19.4 11.6 20.0 C 11.7 20.5 12.4 20.3 12.5 20.2 C 13.1 20.0 11.5 21.0 12.8 21.4 C 12.6 21.6 13.7 23.4 13.4 21.9 C 13.5 22.3 14.3 24.4 14.7 22.9 C 14.5 21.3 16.5 23.7 15.7 22.2 C 15.2 21.0 14.9 20.9 15.9 21.5 C 16.0 21.8 16.7 23.0 16.6 21.7 C 16.4 21.5 16.2 21.0 16.6 21.0 C 16.6 21.0 16.6 21.0 16.6 21.0 Z M 15.2 21.9 C 14.8 21.2 15.5 21.7 15.2 21.9 C 15.2 21.9 15.2 21.9 15.2 21.9 Z M 11.3 20.0 C 10.9 19.2 11.7 19.8 11.3 20.0 C 11.3 20.0 11.3 20.0 11.3 20.0 Z M 15.9 19.1 C 15.4 18.9 16.5 18.6 15.9 19.1 C 15.9 19.1 15.9 19.1 15.9 19.1 Z M 12.9 21.0 C 12.9 21.0 13.1 21.1 13.3 21.2 C 13.2 21.2 13.0 21.1 12.9 21.0 C 12.9 21.0 12.9 21.0 12.9 21.0 Z M 15.4 18.2 C 14.3 17.4 16.2 17.9 15.4 18.2 C 15.4 18.2 15.4 18.2 15.4 18.2 Z M 13.2 16.4 C 11.8 16.3 13.0 15.5 13.2 16.4 C 13.2 16.4 13.2 16.4 13.2 16.4 Z M 11.2 17.9 C 11.5 18.1 11.1 18.1 11.2 17.9 C 11.2 17.9 11.2 17.9 11.2 17.9 Z M 13.6 22.9 C 13.9 23.0 13.6 23.2 13.6 22.9 C 13.6 22.9 13.6 22.9 13.6 22.9 Z M 10.5 16.5 C 11.1 16.6 10.5 16.9 10.5 16.5 C 10.5 16.5 10.5 16.5 10.5 16.5 Z M 15.3 19.1 C 16.7 19.6 14.5 20.4 15.3 19.1 C 15.3 19.1 15.3 19.1 15.3 19.1 Z M 16.2 20.5 C 16.6 21.0 15.6 20.6 15.6 20.3 C 15.7 20.3 16.1 20.4 16.2 20.5 C 16.2 20.5 16.2 20.5 16.2 20.5 Z M 14.8 18.2 C 15.5 18.7 14.8 18.8 14.8 18.2 C 14.8 18.2 14.8 18.2 14.8 18.2 Z M 16.0 19.5 C 16.1 19.8 15.8 19.3 16.0 19.5 C 16.0 19.5 16.0 19.5 16.0 19.5 Z M 15.2 17.1 C 15.2 17.4 15.0 16.9 15.2 17.1 C 15.2 17.1 15.2 17.1 15.2 17.1 Z M 17.0 21.0 C 17.0 21.3 16.7 20.8 17.0 21.0 C 17.0 21.0 17.0 21.0 17.0 21.0 Z M 14.7 17.3 C 14.2 17.3 13.6 18.2 13.7 16.6 C 13.9 16.4 14.9 17.0 14.7 17.3 C 14.7 17.3 14.7 17.3 14.7 17.3 Z M 19.2 13.7 C 16.3 16.3 19.3 15.6 19.7 15.6 C 20.2 16.0 20.9 15.6 21.7 14.9 C 23.8 14.0 20.4 14.2 22.4 13.4 C 25.3 12.0 20.8 13.0 23.6 12.0 C 24.2 12.0 24.3 10.8 24.1 11.0 C 25.7 10.0 23.8 9.8 23.6 9.9 C 24.2 9.4 26.7 8.4 25.5 7.8 C 25.3 7.2 28.2 5.5 26.2 6.6 C 28.7 4.9 25.9 6.4 27.0 5.3 C 28.4 4.2 25.2 6.2 27.9 4.2 C 26.3 4.7 28.9 4.0 28.9 2.1 C 28.4 2.9 28.2 2.6 28.4 2.2 C 27.9 2.3 27.8 2.2 28.5 1.9 C 30.8 1.1 26.5 2.2 25.7 1.7 C 24.8 2.2 22.1 3.2 23.5 2.1 C 23.1 0.7 21.3 2.9 21.6 1.8 C 21.3 1.3 20.5 2.3 20.2 2.2 C 20.2 1.4 19.4 2.0 17.6 1.7 C 13.2 1.3 16.6 3.8 15.4 4.1 C 15.3 4.5 16.2 7.1 16.1 5.1 C 16.2 5.7 19.2 3.6 17.1 5.8 C 18.2 4.9 16.6 6.7 18.3 5.7 C 16.8 4.1 21.2 5.0 18.6 5.8 C 18.5 6.3 19.2 6.2 19.1 5.8 C 20.0 4.4 19.6 6.4 20.6 4.7 C 21.4 5.2 22.9 3.6 22.0 4.7 C 20.0 6.6 22.6 4.2 22.6 4.8 C 24.2 4.8 19.9 6.9 22.8 5.5 C 22.8 5.6 22.8 5.6 22.8 5.6 C 21.0 7.5 24.2 4.9 24.2 5.2 C 26.2 4.2 21.8 7.7 22.2 6.7 C 22.9 6.7 21.1 7.3 22.1 7.3 C 24.2 5.7 19.7 9.1 21.2 8.2 C 21.4 8.6 22.6 7.7 22.6 7.9 C 22.1 8.9 20.5 9.3 21.7 8.9 C 22.3 8.9 19.8 10.2 20.3 10.1 C 20.9 9.2 21.7 10.2 20.7 10.7 C 20.9 10.1 18.4 11.7 19.5 11.6 C 23.4 9.9 18.2 12.7 19.2 12.7 C 21.3 11.8 18.3 14.7 18.0 14.0 C 18.1 14.0 19.2 13.7 19.2 13.7 M 20.5 10.3 C 21.0 9.4 20.4 11.0 20.5 10.3 M 19.9 10.5 C 20.8 9.9 19.0 11.4 19.7 10.6 C 19.7 10.6 19.8 10.6 19.9 10.5 M 21.4 7.5 C 22.0 7.3 20.8 8.1 21.4 7.5 M 23.2 6.1 C 24.1 5.3 22.9 6.8 23.2 6.1 M 17.6 5.3 C 19.5 3.1 17.6 6.5 17.6 5.3 M 21.5 5.7 C 22.7 5.4 20.0 6.6 21.5 5.7 M 22.5 5.2 C 23.4 4.8 21.8 5.7 22.5 5.2 M 18.9 5.3 C 18.8 5.2 18.8 5.2 18.9 5.3 C 18.9 5.3 18.9 5.3 18.9 5.3 Z M 16.9 5.2 C 16.8 5.3 16.8 5.3 16.9 5.2 C 16.9 5.2 16.9 5.2 16.9 5.2 Z M 21.1 5.1 C 21.1 5.6 19.8 5.3 21.1 5.1 C 21.1 5.1 21.1 5.1 21.1 5.1 Z M 19.4 2.0 C 19.4 1.9 19.4 1.9 19.4 2.0 C 19.4 2.0 19.4 2.0 19.4 2.0 Z M 21.5 10.4 C 21.5 10.4 21.5 10.4 21.5 10.4 C 21.5 10.4 21.5 10.4 21.5 10.4 Z M 19.1 13.2 C 19.5 13.0 18.6 13.7 19.1 13.2 C 19.1 13.2 19.1 13.2 19.1 13.2 Z M 21.0 14.7 C 21.1 14.8 21.1 14.8 21.0 14.7 C 21.0 14.7 21.0 14.7 21.0 14.7 Z M 22.6 10.7 C 22.6 10.7 22.6 10.7 22.6 10.7 C 22.6 10.7 22.6 10.7 22.6 10.7 Z M 20.6 11.1 C 18.8 12.0 21.6 10.0 20.6 11.1 C 20.6 11.1 20.6 11.1 20.6 11.1 Z M 25.7 2.1 C 25.0 2.6 25.0 1.9 25.7 2.1 C 25.7 2.1 25.7 2.1 25.7 2.1 Z M 24.0 5.6 C 23.6 5.8 24.4 5.1 24.0 5.6 C 24.0 5.6 24.0 5.6 24.0 5.6 Z M 20.8 8.3 C 20.4 8.4 21.1 7.9 20.8 8.3 C 20.8 8.3 20.8 8.3 20.8 8.3 Z M 18.7 13.2 C 18.6 13.2 18.6 13.2 18.7 13.2 C 18.7 13.2 18.7 13.2 18.7 13.2 Z M 20.3 12.1 C 18.6 13.0 21.7 10.8 20.3 12.1 C 20.3 12.1 20.3 12.1 20.3 12.1 Z M 20.2 13.0 C 20.9 12.5 19.5 13.9 20.2 13.0 M 22.8 11.8 C 22.6 11.1 24.9 12.0 22.8 11.8 C 22.8 11.8 22.8 11.8 22.8 11.8 Z M 25.8 7.0 C 25.9 6.9 25.9 6.9 25.8 7.0 C 25.8 7.0 25.8 7.0 25.8 7.0 Z M 20.8 9.6 C 21.2 8.9 21.0 9.8 20.8 9.6 C 20.8 9.6 20.8 9.6 20.8 9.6 Z M 17.6 15.0 C 18.0 14.4 17.7 15.4 17.6 15.0 C 17.6 15.0 17.6 15.0 17.6 15.0 Z M 25.5 5.2 C 25.9 4.2 26.0 5.5 25.5 5.2 C 25.5 5.2 25.5 5.2 25.5 5.2 Z M 22.0 4.6 C 22.0 4.6 22.0 4.6 22.0 4.6 C 22.0 4.6 22.0 4.6 22.0 4.6 Z M 20.7 5.1 C 20.7 5.1 20.7 5.1 20.7 5.1 C 20.7 5.1 20.7 5.1 20.7 5.1 Z M 18.2 3.9 C 18.2 3.9 18.2 3.9 18.2 3.9 C 18.2 3.9 18.2 3.9 18.2 3.9 Z M 19.6 5.6 C 19.6 5.6 19.6 5.6 19.6 5.6 C 19.6 5.6 19.6 5.6 19.6 5.6 Z M 17.9 5.3 C 17.8 5.3 17.8 5.3 17.9 5.3 C 17.9 5.3 17.9 5.3 17.9 5.3 Z M 17.6 6.3 C 17.6 6.2 17.6 6.2 17.6 6.3 C 17.6 6.3 17.6 6.3 17.6 6.3 Z M 28.3 1.5 C 28.3 1.4 28.3 1.4 28.3 1.5 C 28.3 1.5 28.3 1.5 28.3 1.5 Z M 18.8 12.3 C 18.9 12.2 18.9 12.2 18.8 12.3 C 18.8 12.3 18.8 12.3 18.8 12.3 Z M 18.2 4.9 C 18.2 4.9 18.2 4.9 18.2 4.9 C 18.2 4.9 18.2 4.9 18.2 4.9 Z M 24.9 4.0 C 26.3 3.1 23.3 5.3 24.6 4.1 C 24.7 4.0 24.7 4.2 24.9 4.0 M 26.3 2.5 C 26.4 2.4 26.4 2.4 26.3 2.5 C 26.3 2.5 26.3 2.5 26.3 2.5 Z M 28.2 3.4 C 28.2 3.4 28.2 3.4 28.2 3.4 C 28.2 3.4 28.2 3.4 28.2 3.4 Z M 19.7 5.8 C 19.2 6.3 19.6 5.4 19.8 5.8 M 18.9 2.3 C 18.8 2.8 18.1 1.9 19.0 2.3 M 17.7 15.7 C 18.1 15.7 17.2 16.1 17.7 15.7 M 28.6 3.6 C 29.2 3.4 27.9 4.4 28.6 3.6 M 27.4 3.3 C 26.5 3.9 28.4 2.2 27.4 3.4 M 21.3 2.3 C 21.3 2.3 21.3 2.3 21.3 2.3 C 21.3 2.3 21.3 2.3 21.3 2.3 Z M 21.5 8.5 C 21.5 8.5 21.5 8.5 21.5 8.5 C 21.5 8.5 21.5 8.5 21.5 8.5 Z M 24.8 4.7 C 23.4 5.8 25.8 3.7 24.8 4.7 M 22.9 8.5 C 21.3 9.6 23.9 7.3 22.9 8.5 M 17.0 2.1 C 17.7 3.2 16.4 1.5 17.0 2.1 M 19.8 4.8 C 19.4 5.9 19.8 4.2 19.8 4.8 M 22.5 7.6 C 21.6 8.1 23.3 6.7 22.5 7.6 M 18.3 14.3 C 17.9 14.9 18.1 13.6 18.3 14.3 M 23.8 2.3 C 23.7 2.3 23.7 2.3 23.8 2.3 C 23.8 2.3 23.8 2.3 23.8 2.3 Z M 24.8 10.8 C 24.9 10.7 24.9 10.7 24.8 10.8 C 24.8 10.8 24.8 10.8 24.8 10.8 Z M 15.7 5.6 C 15.7 5.6 15.7 5.6 15.7 5.6 C 15.7 5.6 15.7 5.6 15.7 5.6 Z M 20.7 4.3 C 20.7 4.2 20.7 4.2 20.7 4.3 C 20.7 4.3 20.7 4.3 20.7 4.3 Z M 16.7 5.8 C 16.7 5.7 16.7 5.7 16.7 5.8 C 16.7 5.8 16.7 5.8 16.7 5.8 Z M 24.0 3.4 C 24.0 3.4 24.0 3.4 24.0 3.4 C 24.0 3.4 24.0 3.4 24.0 3.4 Z M 20.7 6.2 C 20.8 6.2 20.8 6.2 20.7 6.2 C 20.7 6.2 20.7 6.2 20.7 6.2 Z M 23.3 5.8 C 23.4 5.8 23.4 5.8 23.3 5.8 C 23.3 5.8 23.3 5.8 23.3 5.8 Z M 20.2 6.0 C 19.1 6.1 22.0 5.1 20.2 6.0 C 20.2 6.0 20.2 6.0 20.2 6.0 Z M 26.5 3.2 C 26.5 3.2 26.5 3.2 26.5 3.2 C 26.5 3.2 26.5 3.2 26.5 3.2 Z M 23.5 5.2 C 23.4 5.2 23.4 5.2 23.4 5.2 C 21.7 5.9 25.0 4.0 23.7 5.1 C 23.6 5.1 23.5 5.2 23.5 5.2 M 20.6 9.2 C 20.1 9.3 21.6 8.6 20.6 9.2 M 25.1 8.5 C 25.2 8.4 25.2 8.4 25.1 8.5 C 25.1 8.5 25.1 8.5 25.1 8.5 Z M 24.9 8.2 C 25.0 8.1 25.0 8.1 24.9 8.2 C 24.9 8.2 24.9 8.2 24.9 8.2 Z M 19.9 10.1 C 20.0 10.1 20.0 10.1 19.9 10.1 C 19.9 10.1 19.9 10.1 19.9 10.1 Z M 26.5 7.5 C 26.5 7.4 26.5 7.4 26.5 7.5 C 26.5 7.5 26.5 7.5 26.5 7.5 Z M 21.2 6.1 C 21.2 6.1 21.2 6.1 21.2 6.1 C 21.2 6.1 21.2 6.1 21.2 6.1 Z M 16.1 6.2 C 16.1 6.1 16.1 6.1 16.1 6.2 C 16.1 6.2 16.1 6.2 16.1 6.2 Z M 22.0 13.4 C 22.1 13.3 22.1 13.3 22.0 13.4 C 22.0 13.4 22.0 13.4 22.0 13.4 Z M 22.1 5.0 C 22.2 5.0 22.2 5.0 22.1 5.0 C 22.1 5.0 22.1 5.0 22.1 5.0 Z M 24.3 9.7 C 24.3 9.6 24.3 9.6 24.3 9.7 C 24.3 9.7 24.3 9.7 24.3 9.7 Z M 22.2 5.3 C 22.2 5.3 22.2 5.3 22.2 5.3 C 22.2 5.3 22.2 5.3 22.2 5.3 Z M 24.3 2.1 C 24.3 2.1 24.3 2.1 24.3 2.1 C 24.3 2.1 24.3 2.1 24.3 2.1 Z M 22.6 1.4 C 22.6 1.4 22.6 1.4 22.6 1.4 C 22.6 1.4 22.6 1.4 22.6 1.4 Z M 22.3 4.0 C 22.3 4.0 22.3 4.0 22.3 4.0 C 22.3 4.0 22.3 4.0 22.3 4.0 Z M 22.3 10.8 C 19.6 13.9 22.9 8.8 22.3 10.8 M 22.0 3.8 C 24.0 4.0 19.4 4.8 22.0 3.8 C 21.5 4.0 22.0 3.8 22.0 3.8 M 15.2 6.1 C 15.8 5.1 15.8 4.1 15.4 3.0 C 14.9 2.5 15.1 4.5 14.9 2.8 C 16.1 2.5 13.9 0.3 14.3 2.5 C 12.7 2.8 13.7 1.1 12.8 1.9 C 11.0 2.2 11.7 1.5 10.2 1.6 C 10.2 2.8 8.8 1.0 9.3 2.2 C 9.2 0.9 8.1 2.5 7.5 2.0 C 8.2 1.2 2.4 2.0 6.3 2.3 C 5.8 2.9 4.6 1.9 3.9 1.7 C 4.1 2.1 3.0 1.9 2.0 1.7 C 2.1 2.0 2.2 2.4 2.9 3.0 C 3.1 3.0 3.0 2.7 3.3 2.9 C 4.0 3.1 3.6 3.5 3.5 3.5 C 4.2 4.1 6.3 6.5 3.3 3.5 C 2.3 2.9 4.5 5.3 3.7 4.8 C 4.5 6.6 5.7 6.2 4.7 6.2 C 5.3 7.4 5.8 8.3 6.0 8.4 C 6.2 9.0 5.3 8.8 6.6 9.8 C 5.6 10.8 10.5 11.9 7.4 11.4 C 8.4 12.0 6.4 11.9 8.5 12.3 C 7.3 11.6 8.3 14.6 9.0 13.5 C 9.6 13.9 8.2 15.5 10.0 15.4 C 11.7 16.1 13.0 16.1 13.7 15.1 C 12.7 15.0 14.4 14.1 12.8 14.6 C 12.7 15.5 11.1 12.6 12.2 13.4 C 14.6 14.1 9.8 11.5 11.4 11.5 C 10.6 11.7 8.8 9.0 11.2 10.5 C 11.1 10.2 10.1 9.7 11.1 9.8 C 11.6 11.0 8.6 8.2 9.9 8.9 C 10.8 9.5 10.5 7.9 9.3 7.5 C 6.7 6.7 9.7 7.3 8.3 6.3 C 7.0 4.7 11.0 7.9 8.3 5.8 C 8.4 5.8 8.4 5.7 8.4 5.5 C 8.9 5.6 9.5 5.7 9.3 6.0 C 8.7 5.8 7.0 3.9 9.5 5.5 C 9.5 6.4 11.7 6.0 10.7 5.5 C 7.0 4.6 12.5 4.5 11.2 5.4 C 12.9 6.3 11.3 5.7 12.2 5.4 C 11.6 4.8 12.4 4.3 12.8 5.4 C 13.9 7.0 11.9 3.3 13.9 5.4 C 14.4 6.4 15.4 4.7 15.0 5.8 C 14.9 5.9 15.2 6.1 15.2 6.1 M 14.8 5.9 C 14.8 5.5 15.1 6.3 14.8 5.9 M 14.9 5.5 C 14.9 5.6 14.9 5.6 14.9 5.5 C 14.9 5.5 14.9 5.5 14.9 5.5 Z M 12.3 5.3 C 12.4 5.3 12.4 5.3 12.3 5.3 C 12.3 5.3 12.3 5.3 12.3 5.3 Z M 5.8 1.3 C 5.8 1.4 5.8 1.4 5.8 1.3 C 5.8 1.3 5.8 1.3 5.8 1.3 Z M 10.5 5.2 C 10.6 5.2 10.6 5.2 10.5 5.2 C 10.5 5.2 10.5 5.2 10.5 5.2 Z M 13.1 5.0 C 13.1 5.1 13.1 5.1 13.1 5.0 C 13.1 5.0 13.1 5.0 13.1 5.0 Z M 11.3 5.8 C 10.5 5.2 12.2 6.2 11.4 5.9 C 11.3 5.8 11.4 5.8 11.3 5.8 M 9.7 6.0 C 9.6 6.0 9.6 6.0 9.7 6.0 M 4.6 7.2 C 4.5 7.2 4.5 7.2 4.6 7.2 M 11.6 10.5 C 11.5 10.5 11.5 10.5 11.6 10.5 M 9.0 7.0 C 9.5 7.8 8.7 6.9 9.0 7.0 M 12.1 12.1 C 12.2 11.4 13.0 13.1 12.1 12.1 M 13.0 13.0 C 12.9 13.1 12.9 13.1 13.0 13.0 M 10.7 9.2 C 10.6 9.1 10.6 9.1 10.7 9.2 C 10.7 9.2 10.7 9.2 10.7 9.2 Z M 9.3 6.9 C 9.3 6.4 10.6 8.3 9.3 6.9 M 12.5 5.9 C 12.3 6.2 11.9 5.1 12.5 5.9 M 13.1 5.5 C 13.1 5.5 13.1 5.5 13.1 5.5 C 13.1 5.5 13.1 5.5 13.1 5.5 Z M 11.4 10.7 C 11.4 10.7 11.4 10.7 11.4 10.7 C 11.4 10.7 11.4 10.7 11.4 10.7 Z M 12.1 11.8 C 12.0 11.7 12.0 11.7 12.1 11.8 C 12.1 11.8 12.1 11.8 12.1 11.8 Z M 7.3 12.0 C 7.2 11.9 7.2 11.9 7.3 12.0 C 7.3 12.0 7.3 12.0 7.3 12.0 Z M 11.1 3.7 C 12.2 4.0 11.5 5.2 10.7 4.1 C 10.2 3.6 11.1 3.8 11.1 3.7 M 6.8 5.1 C 4.5 3.9 9.7 6.3 6.8 5.1 M 11.7 12.8 C 9.9 13.0 13.0 12.4 11.7 12.8 M 12.9 14.3 C 12.6 14.6 11.3 11.6 13.0 13.9 C 13.4 14.1 13.0 14.2 12.9 14.3 M 8.6 5.3 C 7.1 4.5 10.1 5.7 8.6 5.3 M 6.2 7.2 C 7.2 7.9 8.4 9.2 6.8 8.2 C 5.2 7.5 5.3 6.4 6.2 7.2 M 14.4 5.0 C 14.3 6.4 14.1 3.9 14.4 5.0 M 11.6 4.9 C 11.6 5.0 11.6 5.0 11.6 4.9 C 11.6 4.9 11.6 4.9 11.6 4.9 Z M 10.7 5.1 C 10.6 5.0 10.6 5.0 10.7 5.1 M 14.3 6.2 C 14.3 6.1 14.3 6.1 14.3 6.2 M 8.2 8.1 C 8.1 8.1 8.1 8.1 8.2 8.1 M 8.4 6.5 C 6.9 6.5 7.7 5.7 8.4 6.5 M 5.1 2.6 C 3.7 2.0 6.0 2.5 5.1 2.6 M 10.0 8.6 C 8.6 8.5 7.7 6.7 10.0 8.6 M 8.3 6.1 C 8.3 6.2 8.3 6.2 8.3 6.1 C 8.3 6.1 8.3 6.1 8.3 6.1 Z M 6.2 7.4 C 6.1 7.4 6.1 7.4 6.2 7.4 C 6.2 7.4 6.2 7.4 6.2 7.4 Z M 6.5 7.8 C 6.4 7.8 6.4 7.8 6.5 7.8 C 6.5 7.8 6.5 7.8 6.5 7.8 Z M 10.7 9.5 C 10.6 9.5 10.6 9.5 10.7 9.5 C 10.7 9.5 10.7 9.5 10.7 9.5 Z M 11.3 2.1 C 10.1 2.1 12.1 2.0 11.3 2.1 C 11.3 2.1 11.3 2.1 11.3 2.1 Z M 10.6 5.8 C 8.1 4.8 10.3 4.8 10.6 5.8 C 10.6 5.8 10.6 5.8 10.6 5.8 Z M 7.0 4.2 C 6.9 4.1 6.9 4.1 7.0 4.2 C 7.0 4.2 7.0 4.2 7.0 4.2 Z M 11.0 8.7 C 10.9 8.7 10.9 8.7 11.0 8.7 C 11.0 8.7 11.0 8.7 11.0 8.7 Z M 10.6 2.0 C 10.6 1.9 10.6 1.9 10.6 2.0 C 10.6 2.0 10.6 2.0 10.6 2.0 Z M 10.8 11.2 C 10.7 11.2 10.7 11.2 10.8 11.2 C 10.8 11.2 10.8 11.2 10.8 11.2 Z M 4.6 4.8 C 5.5 5.6 4.0 4.6 4.6 4.8 C 4.6 4.8 4.6 4.8 4.6 4.8 Z M 5.3 6.2 C 5.3 6.2 5.3 6.2 5.3 6.2 C 5.3 6.2 5.3 6.2 5.3 6.2 Z M 13.2 13.3 C 13.2 13.3 13.2 13.3 13.2 13.3 C 13.2 13.3 13.2 13.3 13.2 13.3 Z M 5.5 9.0 C 5.5 9.0 5.5 9.0 5.5 9.0 C 5.5 9.0 5.5 9.0 5.5 9.0 Z M 8.1 10.8 C 8.0 10.8 8.0 10.8 8.1 10.8 C 8.1 10.8 8.1 10.8 8.1 10.8 Z M 10.2 9.1 C 11.1 10.4 9.2 8.5 10.2 9.1 C 10.2 9.1 10.2 9.1 10.2 9.1 Z M 10.3 14.1 C 10.2 14.2 10.2 14.2 10.3 14.1 C 10.3 14.1 10.3 14.1 10.3 14.1 Z M 12.7 15.0 C 12.6 15.1 12.6 15.1 12.7 15.0 C 12.7 15.0 12.7 15.0 12.7 15.0 Z M 13.9 15.4 C 13.8 15.5 13.8 15.5 13.9 15.4 C 13.9 15.4 13.9 15.4 13.9 15.4 Z M 8.9 3.3 C 9.0 3.4 9.0 3.4 8.9 3.3 C 8.9 3.3 8.9 3.3 8.9 3.3 Z M 12.0 6.1 C 12.1 6.1 12.1 6.1 12.0 6.1 C 12.0 6.1 12.0 6.1 12.0 6.1 Z M 11.0 6.2 C 11.1 6.2 11.1 6.2 11.0 6.2 C 11.0 6.2 11.0 6.2 11.0 6.2 Z M 7.6 1.7 C 7.7 1.7 7.7 1.7 7.6 1.7 C 7.6 1.7 7.6 1.7 7.6 1.7 Z M 7.1 6.4 C 7.2 6.4 7.2 6.4 7.1 6.4 C 7.1 6.4 7.1 6.4 7.1 6.4 Z M 5.7 6.1 C 5.8 6.1 5.8 6.1 5.7 6.1 C 5.7 6.1 5.7 6.1 5.7 6.1 Z M 2.5 3.3 C 2.6 3.3 2.6 3.3 2.5 3.3 C 2.5 3.3 2.5 3.3 2.5 3.3 Z M 4.5 5.9 C 4.5 5.9 4.5 5.9 4.5 5.9 C 4.5 5.9 4.5 5.9 4.5 5.9 Z M 14.0 2.2 C 14.0 2.2 14.0 2.2 14.0 2.2 C 14.0 2.2 14.0 2.2 14.0 2.2 Z M 14.6 4.3 C 14.6 4.2 14.6 4.2 14.6 4.3 C 14.6 4.3 14.6 4.3 14.6 4.3 Z M 9.6 7.8 C 10.4 8.4 8.9 7.9 9.6 7.8 M 8.0 5.5 C 8.0 5.5 8.0 5.5 8.0 5.5 C 8.0 5.5 8.0 5.5 8.0 5.5 Z M 11.3 11.2 C 10.3 11.1 11.4 10.5 11.3 11.2 C 11.3 11.2 11.3 11.2 11.3 11.2 Z M 5.7 8.1 C 5.6 8.1 5.6 8.1 5.7 8.1 C 5.7 8.1 5.7 8.1 5.7 8.1 Z M 6.5 9.0 C 6.4 9.0 6.4 9.0 6.5 9.0 C 6.5 9.0 6.5 9.0 6.5 9.0 Z M 11.4 13.4 C 11.4 13.4 11.4 13.4 11.4 13.4 M 9.2 6.0 C 9.2 6.0 9.1 6.0 9.1 6.0 C 8.2 5.6 8.4 5.7 9.1 6.0 C 9.1 6.0 9.2 6.0 9.2 6.0 M 11.6 11.9 C 11.6 11.8 11.6 11.8 11.6 11.9 C 11.6 11.9 11.6 11.9 11.6 11.9 Z M 12.4 14.2 C 12.4 14.2 12.4 14.2 12.4 14.2 C 12.4 14.2 12.4 14.2 12.4 14.2 Z M 9.6 5.4 C 8.2 4.4 8.8 4.7 9.6 5.4 M 13.3 5.1 C 13.3 5.1 13.3 5.1 13.3 5.1 C 13.3 5.1 13.3 5.1 13.3 5.1 Z M 13.3 5.1 " fill="#FEFFFE"></path></g></svg>