<?xml version="1.0" encoding="UTF-8" standalone="no"?><svg xmlns="http://www.w3.org/2000/svg" xmlns:xlink="http://www.w3.org/1999/xlink" clip-rule="evenodd" stroke-miterlimit="10" viewBox="0 0 82 71"><desc>SVG generated by Keynote</desc><defs></defs><g transform="matrix(1.00, 0.00, -0.00, -1.00, 0.0, 71.0)"><image xlink:href="../../96FF219B-A4D2-4817-98A6-9DC6FFF8C1D6/assets/7E27A04615B3C479F79C21176BC2C653.png" width="79.00" height="68.00" transform="matrix(1.00, 0.00, -0.00, -1.00, 1.2, 69.1)" opacity="0.50"></image><path d="M 47.7 33.3 C 47.9 33.6 46.6 34.8 46.8 35.1 M 47.7 33.3 C 44.2 34.8 42.9 36.5 41.1 38.8 C 39.5 41.3 43.5 38.8 44.3 39.2 C 42.9 43.2 41.3 42.8 39.1 41.8 C 40.0 43.5 35.1 46.1 38.2 46.7 C 41.6 41.0 36.1 51.5 40.9 46.9 C 41.7 46.5 41.4 48.4 41.1 49.0 C 43.3 47.7 42.5 51.7 45.4 48.8 C 47.4 49.0 46.2 49.3 49.1 47.5 C 49.9 46.5 49.0 46.8 48.5 46.8 C 46.5 45.8 51.5 44.2 51.2 42.0 C 55.5 40.5 52.8 38.5 50.5 39.9 C 51.9 38.3 56.6 36.1 55.2 34.5 C 57.6 33.3 59.2 28.8 55.2 32.0 C 52.6 34.1 52.7 32.3 52.0 32.2 C 50.8 32.9 50.5 35.1 49.6 35.5 C 49.5 34.9 49.9 32.2 48.2 35.2 C 47.5 34.4 45.9 35.9 47.7 33.3 C 47.7 33.3 47.7 33.3 47.7 33.3 Z M 39.9 43.0 C 39.1 42.8 40.4 42.1 39.9 43.0 C 39.9 43.0 39.9 43.0 39.9 43.0 Z M 56.1 35.9 C 55.1 35.9 56.9 34.5 56.1 35.9 C 56.1 35.9 56.1 35.9 56.1 35.9 Z M 49.0 46.1 C 48.2 45.9 49.8 44.8 49.0 46.1 C 49.0 46.1 49.0 46.1 49.0 46.1 Z M 41.9 40.6 C 43.5 39.2 42.2 42.1 41.3 42.2 C 41.6 41.9 41.0 40.9 41.9 40.6 C 41.9 40.6 41.9 40.6 41.9 40.6 Z M 46.8 41.0 C 46.6 40.8 46.9 40.0 47.8 40.2 C 47.7 40.7 47.0 41.1 46.8 41.0 C 46.8 41.0 46.8 41.0 46.8 41.0 Z M 38.6 48.6 C 38.4 48.3 38.7 47.6 39.3 48.0 C 39.3 48.6 38.7 48.8 38.6 48.6 C 38.6 48.6 38.6 48.6 38.6 48.6 Z M 45.2 39.0 C 45.6 38.6 46.5 38.4 46.3 39.0 C 45.8 39.2 44.9 40.4 45.2 39.0 C 45.2 39.0 45.2 39.0 45.2 39.0 Z M 43.7 36.6 C 44.9 35.3 44.7 37.9 44.3 37.8 C 43.4 38.2 42.6 37.3 43.7 36.6 C 43.7 36.6 43.7 36.6 43.7 36.6 Z M 46.9 38.2 C 48.1 37.0 47.2 38.7 46.9 38.2 C 46.9 38.2 46.9 38.2 46.9 38.2 Z M 44.3 50.0 C 45.5 48.7 44.4 50.9 44.3 50.0 C 44.3 50.0 44.3 50.0 44.3 50.0 Z M 51.3 42.9 C 52.7 41.4 51.5 43.7 51.3 42.9 C 51.3 42.9 51.3 42.9 51.3 42.9 Z M 41.7 43.9 C 40.5 45.8 39.6 43.6 41.7 43.9 C 41.7 43.9 41.7 43.9 41.7 43.9 Z M 45.2 33.8 C 44.1 35.6 42.5 34.5 45.2 33.8 C 45.2 33.8 45.2 33.8 45.2 33.8 Z M 42.8 45.9 C 44.2 47.4 43.0 40.6 41.3 43.5 C 39.3 45.0 36.5 40.0 39.8 40.9 C 39.3 39.6 39.4 39.6 37.7 38.9 C 39.6 38.7 39.0 35.8 37.2 34.7 C 34.8 33.7 38.2 36.6 35.0 34.7 C 32.0 30.5 33.1 34.7 29.3 32.6 C 29.2 32.4 30.5 32.5 29.5 32.0 C 26.9 31.3 27.0 34.0 24.3 32.3 C 25.2 33.2 25.1 37.1 26.1 35.5 C 28.0 35.1 26.3 40.0 29.4 39.5 C 28.7 40.9 31.6 42.1 30.6 43.6 C 30.9 44.7 32.4 44.3 32.8 44.1 C 34.1 43.7 30.3 46.1 33.7 47.0 C 33.1 47.4 36.1 51.7 35.1 48.0 C 35.5 49.0 37.8 54.1 38.6 50.4 C 37.9 46.8 42.9 52.2 40.9 48.6 C 39.6 46.0 38.8 45.6 41.2 47.0 C 41.4 47.6 43.4 50.4 43.0 47.4 C 42.4 47.0 42.0 45.9 42.8 45.9 C 42.8 45.9 42.8 45.9 42.8 45.9 Z M 39.5 48.0 C 38.5 46.5 40.4 47.4 39.5 48.0 C 39.5 48.0 39.5 48.0 39.5 48.0 Z M 29.8 43.4 C 28.5 41.5 30.8 43.1 29.8 43.4 C 29.8 43.4 29.8 43.4 29.8 43.4 Z M 41.1 41.7 C 39.8 41.2 42.7 40.6 41.1 41.7 C 41.1 41.7 41.1 41.7 41.1 41.7 Z M 33.9 46.0 C 33.9 45.9 34.5 46.3 34.8 46.5 C 34.6 46.5 34.0 46.2 33.9 46.0 C 33.9 46.0 33.9 46.0 33.9 46.0 Z M 39.8 39.6 C 37.1 37.7 42.0 39.1 39.8 39.6 C 39.8 39.6 39.8 39.6 39.8 39.6 Z M 34.3 35.5 C 30.7 34.9 33.7 33.5 34.3 35.5 C 34.3 35.5 34.3 35.5 34.3 35.5 Z M 29.1 38.6 C 30.1 39.1 29.0 39.1 29.1 38.6 C 29.1 38.6 29.1 38.6 29.1 38.6 Z M 35.9 50.6 C 36.7 50.8 35.9 51.2 35.9 50.6 C 35.9 50.6 35.9 50.6 35.9 50.6 Z M 27.4 35.3 C 28.7 35.6 27.3 36.2 27.4 35.3 C 27.4 35.3 27.4 35.3 27.4 35.3 Z M 39.7 41.5 C 43.0 42.8 37.8 44.6 39.7 41.5 C 39.7 41.5 39.7 41.5 39.7 41.5 Z M 41.9 44.7 C 43.0 45.7 40.4 44.9 40.4 44.3 C 40.6 44.2 41.6 44.5 41.9 44.7 C 41.9 44.7 41.9 44.7 41.9 44.7 Z M 38.3 39.7 C 40.2 40.8 38.3 40.9 38.3 39.7 C 38.3 39.7 38.3 39.7 38.3 39.7 Z M 41.4 42.6 C 41.5 43.2 40.8 42.1 41.4 42.6 C 41.4 42.6 41.4 42.6 41.4 42.6 Z M 39.5 37.3 C 39.5 37.8 38.9 36.8 39.5 37.3 C 39.5 37.3 39.5 37.3 39.5 37.3 Z M 43.8 45.8 C 43.9 46.4 43.2 45.4 43.8 45.8 C 43.8 45.8 43.8 45.8 43.8 45.8 Z M 38.1 37.7 C 36.8 37.5 35.4 39.4 35.5 36.1 C 36.1 35.6 38.6 37.0 38.1 37.7 C 38.1 37.7 38.1 37.7 38.1 37.7 Z M 49.5 30.4 C 42.9 35.4 50.4 33.4 51.5 33.4 C 52.9 33.9 54.6 33.0 56.6 31.6 C 61.9 29.4 53.0 30.8 58.1 28.9 C 65.5 25.5 53.6 28.7 60.8 26.0 C 62.4 25.8 62.4 23.8 61.8 24.2 C 66.0 21.7 60.9 22.3 60.2 22.6 C 61.6 21.4 68.3 18.7 64.8 18.3 C 64.1 17.3 71.6 13.1 66.4 16.0 C 72.8 11.8 65.4 15.8 68.0 13.5 C 71.7 10.9 63.3 15.9 70.3 11.1 C 66.9 12.6 70.7 11.1 72.0 9.0 C 71.3 9.0 70.1 9.1 68.2 9.5 C 70.8 9.7 62.0 11.7 65.9 9.8 C 71.2 7.9 61.9 10.6 60.6 9.4 C 58.7 10.4 53.1 12.9 56.1 10.2 C 55.6 7.0 51.7 12.1 52.4 9.5 C 52.1 8.4 50.2 10.8 49.7 10.6 C 49.7 8.6 48.1 9.9 44.6 9.4 C 36.0 8.4 42.6 14.4 40.4 15.0 C 40.1 16.0 41.6 22.4 41.6 17.5 C 41.8 18.9 47.4 13.9 43.2 19.2 C 45.3 17.1 42.3 21.4 45.4 18.8 C 42.9 15.1 50.6 17.3 45.7 19.2 C 45.4 20.2 46.7 20.0 46.6 19.1 C 48.7 15.7 47.1 20.7 49.8 16.5 C 51.0 17.7 54.5 14.0 52.3 16.6 C 47.6 21.0 53.5 15.4 53.3 16.7 C 56.2 16.8 47.1 21.9 53.1 18.5 C 51.7 20.7 56.7 16.5 58.7 16.0 C 60.6 14.9 61.1 14.9 60.8 15.3 C 60.1 16.2 57.0 18.3 54.8 18.7 C 54.7 18.7 54.7 18.7 54.6 18.7 C 54.8 18.7 54.9 18.6 55.1 18.6 C 56.6 18.2 52.2 20.2 54.8 19.5 C 60.3 15.9 48.8 23.6 52.9 21.3 C 53.5 21.7 56.6 19.7 56.5 20.0 C 55.6 21.7 51.3 23.4 54.5 22.1 C 56.1 21.6 49.8 25.0 51.1 24.6 C 52.3 22.9 55.0 24.0 52.5 25.1 C 52.8 24.2 46.5 27.9 49.5 27.2 C 59.5 22.6 46.3 29.3 49.1 28.9 C 54.6 26.5 47.6 32.3 46.3 31.3 C 46.7 31.3 49.5 30.4 49.5 30.4 M 51.6 24.7 C 52.9 23.2 51.8 25.7 51.6 24.7 M 50.1 25.4 C 52.3 24.0 48.1 27.1 49.6 25.6 C 49.6 25.5 50.0 25.5 50.1 25.4 M 53.1 20.3 C 54.7 19.5 51.7 21.5 53.1 20.3 M 57.4 17.2 C 57.7 16.8 58.0 16.7 58.2 16.8 C 58.4 16.9 58.4 17.1 57.5 17.2 C 57.4 17.2 57.4 17.2 57.4 17.2 M 44.1 17.9 C 48.1 12.8 43.9 20.8 44.1 17.9 M 50.7 19.0 C 53.0 18.3 47.6 21.1 50.7 19.0 M 52.9 17.7 C 54.7 16.8 51.4 18.8 52.9 17.7 M 46.4 17.9 C 46.4 17.8 46.4 17.8 46.4 17.9 C 46.4 17.9 46.4 17.9 46.4 17.9 Z M 42.9 17.8 C 42.9 17.8 42.9 17.8 42.9 17.8 C 42.9 17.8 42.9 17.8 42.9 17.8 Z M 50.4 17.4 C 50.2 18.6 48.1 17.8 50.4 17.4 C 50.4 17.4 50.4 17.4 50.4 17.4 Z M 48.1 10.0 C 48.2 9.9 48.2 9.9 48.1 10.0 C 48.1 10.0 48.1 10.0 48.1 10.0 Z M 54.6 24.3 C 54.7 24.3 54.7 24.3 54.6 24.3 C 54.6 24.3 54.6 24.3 54.6 24.3 Z M 49.1 29.6 C 50.1 29.3 47.9 30.6 49.1 29.6 C 49.1 29.6 49.1 29.6 49.1 29.6 Z M 54.8 31.5 C 54.9 31.5 54.9 31.5 54.8 31.5 C 54.8 31.5 54.8 31.5 54.8 31.5 Z M 57.8 24.3 C 57.9 24.3 57.9 24.3 57.8 24.3 C 57.8 24.3 57.8 24.3 57.8 24.3 Z M 52.4 25.8 C 47.7 28.1 54.6 23.7 52.4 25.8 C 52.4 25.8 52.4 25.8 52.4 25.8 Z M 60.4 10.3 C 58.9 11.5 59.1 9.8 60.4 10.3 C 60.4 10.3 60.4 10.3 60.4 10.3 Z M 59.2 16.1 C 57.8 16.7 59.0 15.8 59.2 16.1 C 59.2 16.1 59.2 16.1 59.2 16.1 Z M 51.5 21.8 C 50.5 22.2 52.4 20.9 51.5 21.8 C 51.5 21.8 51.5 21.8 51.5 21.8 Z M 48.0 29.9 C 47.8 29.9 47.8 29.9 48.0 29.9 C 48.0 29.9 48.0 29.9 48.0 29.9 Z M 52.1 27.4 C 47.6 29.7 55.2 24.9 52.1 27.4 C 52.1 27.4 52.1 27.4 52.1 27.4 Z M 52.0 29.0 C 53.8 27.9 50.5 30.6 52.0 29.0 M 58.5 26.0 C 57.9 24.9 64.4 25.6 58.5 26.0 C 58.5 26.0 58.5 26.0 58.5 26.0 Z M 65.3 16.8 C 65.6 16.6 65.6 16.6 65.3 16.8 C 65.3 16.8 65.3 16.8 65.3 16.8 Z M 52.2 23.5 C 53.1 22.3 52.8 23.7 52.2 23.5 C 52.2 23.5 52.2 23.5 52.2 23.5 Z M 45.8 33.0 C 46.6 31.9 46.2 33.6 45.8 33.0 C 45.8 33.0 45.8 33.0 45.8 33.0 Z M 63.9 14.3 C 64.4 12.5 65.4 14.3 63.9 14.3 C 63.9 14.3 63.9 14.3 63.9 14.3 Z M 52.3 16.3 C 52.3 16.3 52.3 16.3 52.3 16.3 C 52.3 16.3 52.3 16.3 52.3 16.3 Z M 49.8 17.4 C 49.8 17.4 49.8 17.4 49.8 17.4 C 49.8 17.4 49.8 17.4 49.8 17.4 Z M 45.5 14.7 C 45.5 14.6 45.5 14.6 45.5 14.7 C 45.5 14.7 45.5 14.7 45.5 14.7 Z M 47.5 18.7 C 47.5 18.7 47.5 18.7 47.5 18.7 C 47.5 18.7 47.5 18.7 47.5 18.7 Z M 44.7 18.0 C 44.6 17.9 44.6 17.9 44.7 18.0 C 44.7 18.0 44.7 18.0 44.7 18.0 Z M 44.0 20.3 C 44.0 20.2 44.0 20.2 44.0 20.3 C 44.0 20.3 44.0 20.3 44.0 20.3 Z M 65.8 8.7 C 65.8 8.6 65.8 8.6 65.8 8.7 C 65.8 8.7 65.8 8.7 65.8 8.7 Z M 47.9 28.5 C 48.3 28.3 48.3 28.3 47.9 28.5 C 47.9 28.5 47.9 28.5 47.9 28.5 Z M 45.4 17.0 C 45.4 16.9 45.4 16.9 45.4 17.0 C 45.4 17.0 45.4 17.0 45.4 17.0 Z M 57.9 14.9 C 61.2 12.6 54.3 17.9 57.5 15.0 C 57.7 14.9 57.5 15.2 57.9 14.9 M 61.4 11.1 C 61.6 11.1 61.6 11.1 61.4 11.1 C 61.4 11.1 61.4 11.1 61.4 11.1 Z M 70.7 9.7 C 70.7 9.7 70.7 9.7 70.7 9.7 C 70.8 9.7 70.8 9.7 70.7 9.7 C 70.7 9.7 70.7 9.7 70.7 9.7 C 70.7 9.7 70.7 9.7 70.7 9.7 Z M 47.7 19.2 C 46.6 20.4 47.6 18.2 47.8 19.1 M 47.1 10.8 C 46.8 12.0 45.6 9.8 47.4 10.7 M 46.2 34.0 C 47.3 34.0 45.0 34.9 46.2 34.0 M 72.0 9.8 C 73.6 9.1 70.4 11.5 72.0 9.8 M 66.1 11.4 C 64.2 12.7 65.9 10.5 66.4 11.4 M 51.8 10.8 C 51.7 10.8 51.7 10.8 51.8 10.8 C 51.8 10.8 51.8 10.8 51.8 10.8 Z M 53.7 21.6 C 53.7 21.5 53.7 21.5 53.7 21.6 C 53.7 21.6 53.7 21.6 53.7 21.6 Z M 58.8 15.5 C 56.7 17.2 59.5 14.4 58.8 15.5 M 57.7 20.7 C 53.6 23.3 60.0 18.4 57.7 20.7 M 43.5 10.2 C 44.7 12.8 42.2 8.8 43.5 10.2 M 48.3 16.7 C 47.2 19.3 48.4 15.3 48.3 16.7 M 56.1 19.7 C 53.8 20.9 58.2 17.8 56.1 19.7 M 47.4 31.6 C 46.4 32.7 46.7 30.7 47.4 31.6 M 56.5 10.8 C 56.5 10.7 56.5 10.7 56.5 10.8 C 56.5 10.8 56.5 10.8 56.5 10.8 Z M 63.9 23.5 C 64.0 23.4 64.0 23.4 63.9 23.5 C 63.9 23.5 63.9 23.5 63.9 23.5 Z M 40.9 18.7 C 40.8 18.6 40.8 18.6 40.9 18.7 C 40.9 18.7 40.9 18.7 40.9 18.7 Z M 50.0 15.5 C 50.1 15.4 50.1 15.4 50.0 15.5 C 50.0 15.5 50.0 15.5 50.0 15.5 Z M 42.6 19.1 C 42.6 18.9 42.6 18.9 42.6 19.1 C 42.6 19.1 42.6 19.1 42.6 19.1 Z M 56.6 13.5 C 56.7 13.4 56.7 13.4 56.6 13.5 C 56.6 13.5 56.6 13.5 56.6 13.5 Z M 49.1 20.1 C 49.2 20.0 49.2 20.0 49.1 20.1 C 49.1 20.1 49.1 20.1 49.1 20.1 Z M 56.6 17.3 C 56.6 17.2 56.6 17.2 56.6 17.3 C 56.6 17.3 56.6 17.3 56.6 17.3 Z M 48.5 19.6 C 46.4 20.0 52.1 17.4 48.5 19.6 C 48.5 19.6 48.5 19.6 48.5 19.6 Z M 61.5 13.0 C 61.6 12.9 61.6 12.9 61.5 13.0 C 61.5 13.0 61.5 13.0 61.5 13.0 Z M 54.7 17.7 C 50.7 19.5 58.7 14.5 54.7 17.7 M 51.5 23.1 C 50.1 23.5 54.3 21.6 51.5 23.1 M 63.8 19.5 C 64.0 19.4 64.0 19.4 63.8 19.5 C 63.8 19.5 63.8 19.5 63.8 19.5 Z M 63.3 19.1 C 63.5 19.0 63.5 19.0 63.3 19.1 C 63.3 19.1 63.3 19.1 63.3 19.1 Z M 50.1 24.8 C 50.2 24.7 50.2 24.7 50.1 24.8 C 50.1 24.8 50.1 24.8 50.1 24.8 Z M 67.3 17.2 C 67.5 17.1 67.5 17.1 67.3 17.2 C 67.3 17.2 67.3 17.2 67.3 17.2 Z M 50.0 19.9 C 50.0 19.9 50.0 19.9 50.0 19.9 C 50.0 19.9 50.0 19.9 50.0 19.9 Z M 41.6 20.0 C 41.6 20.0 41.6 20.0 41.6 20.0 C 41.6 20.0 41.6 20.0 41.6 20.0 Z M 57.1 28.9 C 57.3 28.8 57.3 28.8 57.1 28.9 C 57.1 28.9 57.1 28.9 57.1 28.9 Z M 52.4 17.3 C 52.4 17.2 52.4 17.2 52.4 17.3 C 52.4 17.3 52.4 17.3 52.4 17.3 Z M 61.9 21.9 C 62.1 21.8 62.1 21.8 61.9 21.9 C 61.9 21.9 61.9 21.9 61.9 21.9 Z M 52.4 17.9 C 52.4 17.8 52.4 17.8 52.4 17.9 C 52.4 17.9 52.4 17.9 52.4 17.9 Z M 57.7 10.2 C 57.7 10.2 57.7 10.2 57.7 10.2 C 57.7 10.2 57.7 10.2 57.7 10.2 Z M 54.4 8.7 C 54.4 8.7 54.4 8.7 54.4 8.7 C 54.4 8.7 54.4 8.7 54.4 8.7 Z M 53.2 14.8 C 53.2 14.8 53.2 14.8 53.2 14.8 C 53.2 14.8 53.2 14.8 53.2 14.8 Z M 57.0 24.6 C 50.7 30.6 57.9 21.1 57.0 24.6 M 52.7 14.3 C 56.3 14.8 47.5 16.8 52.7 14.3 C 51.6 14.9 52.6 14.3 52.7 14.3 M 40.0 19.8 C 41.1 17.4 41.1 15.0 40.4 12.5 C 39.3 11.3 39.8 16.2 39.3 12.0 C 41.7 11.2 37.3 5.9 38.2 11.2 C 35.2 11.9 37.0 7.8 35.3 9.9 C 31.8 10.4 33.0 8.8 30.1 9.2 C 30.3 12.1 27.3 7.8 28.5 10.5 C 27.9 7.5 26.3 11.3 24.9 10.0 C 26.1 8.1 14.7 9.9 22.7 10.8 C 21.8 12.2 19.1 9.7 17.7 9.4 C 18.9 11.1 10.6 8.0 11.6 9.7 C 12.6 10.1 13.7 10.2 14.9 10.8 C 17.2 11.9 12.6 10.6 13.0 10.6 C 13.0 10.7 13.0 10.8 12.9 10.9 C 14.9 12.8 17.8 15.6 11.3 10.1 C 8.6 8.5 14.2 13.7 11.9 12.4 C 13.8 15.6 17.2 15.7 14.4 15.2 C 15.7 17.4 16.7 19.1 17.3 19.3 C 17.6 20.5 15.2 19.7 18.4 21.9 C 15.5 23.2 28.5 27.0 20.1 24.9 C 22.7 26.3 17.4 25.4 22.7 26.9 C 19.7 25.2 21.6 30.7 23.8 29.0 C 25.4 29.9 21.2 32.3 25.9 32.6 C 30.2 34.2 33.7 34.5 36.0 33.1 C 33.2 32.7 38.0 32.0 33.6 32.1 C 33.0 33.6 29.7 28.3 32.3 29.9 C 38.8 32.0 26.7 26.1 30.9 26.8 C 28.7 26.7 24.7 21.8 30.8 25.3 C 30.8 24.8 28.2 23.5 30.9 24.1 C 31.7 26.1 24.5 20.5 28.0 22.3 C 30.3 23.6 30.1 21.3 27.0 19.9 C 19.8 17.0 28.2 19.9 24.6 17.5 C 24.5 17.5 24.5 17.5 24.5 17.5 C 25.0 16.5 31.2 21.5 26.6 18.1 C 27.9 18.6 30.3 18.7 30.2 19.6 C 29.0 19.1 24.7 14.5 30.2 18.5 C 31.3 20.7 34.3 19.7 32.2 18.5 C 25.1 16.3 35.0 16.0 33.0 18.2 C 36.4 20.4 33.4 19.0 34.7 18.1 C 33.5 16.9 34.8 15.6 35.7 18.1 C 38.2 21.9 33.8 13.1 37.8 18.3 C 38.7 20.5 40.4 16.6 39.6 19.1 C 39.6 19.4 40.0 19.8 40.0 19.8 M 39.3 19.4 C 39.4 18.5 39.9 20.4 39.3 19.4 M 39.4 18.5 C 39.5 18.6 39.5 18.6 39.4 18.5 C 39.4 18.5 39.4 18.5 39.4 18.5 Z M 34.9 18.0 C 35.0 18.1 35.0 18.1 34.9 18.0 C 34.9 18.0 34.9 18.0 34.9 18.0 Z M 21.2 8.5 C 21.4 8.6 21.4 8.6 21.2 8.5 C 21.2 8.5 21.2 8.5 21.2 8.5 Z M 31.8 17.7 C 31.8 17.8 31.8 17.8 31.8 17.7 C 31.8 17.7 31.8 17.7 31.8 17.7 Z M 36.2 17.4 C 36.2 17.4 36.2 17.4 36.2 17.4 C 36.2 17.4 36.2 17.4 36.2 17.4 Z M 33.4 19.1 C 31.8 17.7 35.2 20.2 33.6 19.3 C 33.5 19.3 33.6 19.3 33.4 19.1 M 30.9 19.7 C 30.6 19.5 30.6 19.5 30.9 19.7 M 13.6 16.7 C 13.4 16.6 13.4 16.6 13.6 16.7 M 32.1 25.5 C 31.9 25.5 31.9 25.5 32.1 25.5 M 26.4 19.0 C 27.4 20.4 25.3 18.6 26.4 19.0 M 32.6 28.0 C 33.2 27.1 34.7 29.9 32.6 28.0 M 34.7 29.8 C 34.6 29.8 34.6 29.8 34.7 29.8 M 30.0 23.1 C 29.8 23.0 29.8 23.0 30.0 23.1 C 30.0 23.1 30.0 23.1 30.0 23.1 Z M 27.1 19.1 C 27.1 19.0 27.2 19.0 27.2 19.0 C 27.8 19.2 28.1 19.4 28.1 19.5 C 28.8 20.1 29.1 20.8 27.1 19.1 M 35.4 19.3 C 35.3 20.0 34.1 17.5 35.4 19.3 M 36.4 18.5 C 36.4 18.4 36.4 18.4 36.4 18.5 C 36.4 18.5 36.4 18.5 36.4 18.5 Z M 31.4 25.7 C 31.3 25.6 31.3 25.6 31.4 25.7 C 31.4 25.7 31.4 25.7 31.4 25.7 Z M 32.7 27.5 C 32.7 27.4 32.7 27.4 32.7 27.5 C 32.7 27.5 32.7 27.5 32.7 27.5 Z M 19.6 25.8 C 19.5 25.7 19.5 25.7 19.6 25.8 C 19.6 25.8 19.6 25.8 19.6 25.8 Z M 32.3 14.2 C 34.3 14.9 33.4 17.6 31.6 15.1 C 30.6 14.0 32.3 14.4 32.3 14.2 M 22.4 15.7 C 15.9 12.1 31.3 20.5 22.4 15.7 M 31.5 28.9 C 26.3 28.5 35.0 28.9 31.5 28.9 M 33.9 31.6 C 33.2 32.0 30.6 26.9 34.3 31.0 C 35.5 31.6 34.4 31.5 33.9 31.6 M 28.4 18.0 C 25.2 16.0 31.2 18.8 28.4 18.0 M 18.2 17.5 C 20.7 19.2 23.6 21.8 19.6 19.4 C 15.2 17.4 15.9 15.7 18.2 17.5 M 38.5 17.4 C 38.6 20.5 37.9 14.7 38.5 17.4 M 33.5 17.1 C 33.6 17.2 33.6 17.2 33.5 17.1 C 33.5 17.1 33.5 17.1 33.5 17.1 Z M 32.1 17.6 C 31.7 17.3 31.7 17.3 32.1 17.6 M 38.6 20.1 C 38.5 19.9 38.5 19.9 38.6 20.1 M 23.6 20.0 C 23.2 19.9 23.2 19.9 23.6 20.0 M 24.7 17.9 C 20.5 16.9 22.9 16.2 24.7 17.9 M 20.4 11.4 C 17.5 10.0 22.2 11.3 20.4 11.4 M 28.5 21.8 C 24.4 20.8 22.7 17.6 28.5 21.8 M 25.4 17.7 C 25.3 17.7 25.3 17.7 25.4 17.7 C 25.4 17.7 25.4 17.7 25.4 17.7 Z M 18.0 17.8 C 17.9 17.7 17.9 17.7 18.0 17.8 C 18.0 17.8 18.0 17.8 18.0 17.8 Z M 18.7 18.6 C 18.5 18.5 18.5 18.5 18.7 18.6 C 18.7 18.6 18.7 18.6 18.7 18.6 Z M 29.9 23.6 C 29.8 23.5 29.8 23.5 29.9 23.6 C 29.9 23.6 29.9 23.6 29.9 23.6 Z M 32.3 10.4 C 29.9 10.2 33.9 9.9 32.3 10.4 C 32.3 10.4 32.3 10.4 32.3 10.4 Z M 32.2 19.1 C 27.2 16.8 31.2 16.9 32.2 19.1 C 32.2 19.1 32.2 19.1 32.2 19.1 Z M 24.8 15.2 C 24.5 15.1 24.5 15.1 24.8 15.2 C 24.8 15.2 24.8 15.2 24.8 15.2 Z M 31.1 22.7 C 30.8 22.5 30.8 22.5 31.1 22.7 C 31.1 22.7 31.1 22.7 31.1 22.7 Z M 31.0 10.0 C 30.9 9.8 30.9 9.8 31.0 10.0 C 31.0 10.0 31.0 10.0 31.0 10.0 Z M 29.6 26.1 C 29.3 26.0 29.3 26.0 29.6 26.1 C 29.6 26.1 29.6 26.1 29.6 26.1 Z M 14.6 13.0 C 16.9 14.6 13.0 12.2 14.6 13.0 C 14.6 13.0 14.6 13.0 14.6 13.0 Z M 16.0 15.4 C 16.1 15.5 16.1 15.5 16.0 15.4 C 16.0 15.4 16.0 15.4 16.0 15.4 Z M 35.3 30.3 C 35.3 30.3 35.3 30.3 35.3 30.3 C 35.3 30.3 35.3 30.3 35.3 30.3 Z M 15.6 20.1 C 15.7 20.2 15.7 20.2 15.6 20.1 C 15.6 20.1 15.6 20.1 15.6 20.1 Z M 22.1 24.2 C 22.1 24.2 22.1 24.2 22.1 24.2 C 22.1 24.2 22.1 24.2 22.1 24.2 Z M 28.6 22.7 C 30.6 25.0 26.1 21.2 28.6 22.7 C 28.6 22.7 28.6 22.7 28.6 22.7 Z M 27.1 30.5 C 26.8 30.5 26.8 30.5 27.1 30.5 C 27.1 30.5 27.1 30.5 27.1 30.5 Z M 33.1 32.8 C 32.9 32.8 32.9 32.8 33.1 32.8 C 33.1 32.8 33.1 32.8 33.1 32.8 Z M 36.2 33.7 C 36.0 33.8 36.0 33.8 36.2 33.7 C 36.2 33.7 36.2 33.7 36.2 33.7 Z M 28.0 13.3 C 28.2 13.4 28.2 13.4 28.0 13.3 C 28.0 13.3 28.0 13.3 28.0 13.3 Z M 34.8 19.8 C 34.9 19.9 34.9 19.9 34.8 19.8 C 34.8 19.8 34.8 19.8 34.8 19.8 Z M 33.2 20.1 C 33.3 20.2 33.3 20.2 33.2 20.1 C 33.2 20.1 33.2 20.1 33.2 20.1 Z M 25.0 9.3 C 25.2 9.4 25.2 9.4 25.0 9.3 C 25.0 9.3 25.0 9.3 25.0 9.3 Z M 21.1 16.9 C 21.3 16.9 21.3 16.9 21.1 16.9 C 21.1 16.9 21.1 16.9 21.1 16.9 Z M 17.2 15.6 C 17.4 15.7 17.4 15.7 17.2 15.6 C 17.2 15.6 17.2 15.6 17.2 15.6 Z M 9.3 9.3 C 9.4 9.4 9.4 9.4 9.3 9.3 C 9.3 9.3 9.3 9.3 9.3 9.3 Z M 13.9 14.6 C 14.0 14.6 14.0 14.6 13.9 14.6 C 13.9 14.6 13.9 14.6 13.9 14.6 Z M 37.7 10.5 C 37.7 10.4 37.7 10.4 37.7 10.5 C 37.7 10.5 37.7 10.5 37.7 10.5 Z M 38.9 15.5 C 38.9 15.4 38.9 15.4 38.9 15.5 C 38.9 15.5 38.9 15.5 38.9 15.5 Z M 27.6 20.5 C 29.6 21.8 25.6 20.1 27.6 20.5 M 26.7 17.9 C 26.6 17.8 26.6 17.8 26.7 17.9 C 26.7 17.9 26.7 17.9 26.7 17.9 Z M 30.9 26.3 C 28.1 25.6 31.4 25.3 30.9 26.3 C 30.9 26.3 30.9 26.3 30.9 26.3 Z M 16.4 18.6 C 16.3 18.6 16.3 18.6 16.4 18.6 C 16.4 18.6 16.4 18.6 16.4 18.6 Z M 18.5 20.5 C 18.2 20.5 18.2 20.5 18.5 20.5 C 18.5 20.5 18.5 20.5 18.5 20.5 Z M 30.4 29.7 C 30.2 29.7 30.2 29.7 30.4 29.7 M 30.0 19.6 C 28.1 18.8 28.5 18.9 30.0 19.6 M 31.5 27.5 C 31.3 27.4 31.3 27.4 31.5 27.5 C 31.5 27.5 31.5 27.5 31.5 27.5 Z M 32.7 31.3 C 32.6 31.2 32.6 31.2 32.7 31.3 C 32.7 31.3 32.7 31.3 32.7 31.3 Z M 30.3 18.3 C 27.1 15.9 28.4 16.4 30.3 18.3 M 36.7 17.5 C 36.6 17.4 36.6 17.4 36.7 17.5 C 36.7 17.5 36.7 17.5 36.7 17.5 Z M 36.7 17.5 " fill="#FEFFFF"></path></g></svg>