<?xml version="1.0" encoding="UTF-8" standalone="no"?><svg xmlns="http://www.w3.org/2000/svg" xmlns:xlink="http://www.w3.org/1999/xlink" clip-rule="evenodd" stroke-miterlimit="10" viewBox="0 0 28 30"><desc>SVG generated by Keynote</desc><defs></defs><g transform="matrix(1.00, 0.00, -0.00, -1.00, 0.0, 30.0)"><path d="M 12.1 24.4 C 12.0 24.5 11.3 24.3 11.2 24.5 M 12.1 24.4 C 11.2 23.5 10.2 23.4 8.8 23.3 C 7.4 23.2 9.1 24.1 9.0 24.5 C 7.2 24.8 7.0 24.2 7.1 23.2 C 6.5 23.9 4.3 22.7 4.8 23.9 C 7.9 23.9 2.6 24.2 5.3 24.9 C 5.6 25.1 4.8 25.4 4.5 25.4 C 5.5 26.0 3.9 26.6 5.5 26.9 C 5.7 27.7 5.4 27.4 6.5 28.0 C 7.0 28.1 6.8 27.8 6.7 27.6 C 6.7 26.7 8.0 28.1 8.8 27.5 C 9.9 28.7 10.3 27.3 9.5 26.8 C 10.3 27.0 11.6 28.2 12.1 27.4 C 12.7 28.0 14.7 27.6 13.1 26.8 C 12.1 26.3 12.9 26.0 12.9 25.7 C 12.5 25.4 11.4 25.8 11.2 25.6 C 11.5 25.4 12.8 25.0 11.2 25.0 C 11.6 24.6 10.7 24.3 12.1 24.4 C 12.1 24.4 12.1 24.4 12.1 24.4 Z M 6.7 23.7 C 6.7 23.4 7.2 23.7 6.7 23.7 C 6.7 23.7 6.7 23.7 6.7 23.7 Z M 11.6 28.0 C 11.5 27.6 12.2 28.0 11.6 28.0 C 11.6 28.0 11.6 28.0 11.6 28.0 Z M 7.0 27.6 C 6.9 27.3 7.6 27.6 7.0 27.6 C 7.0 27.6 7.0 27.6 7.0 27.6 Z M 8.1 23.9 C 9.0 24.2 7.5 24.4 7.3 24.1 C 7.5 24.1 7.8 23.7 8.1 23.9 C 8.1 23.9 8.1 23.9 8.1 23.9 Z M 8.6 25.8 C 8.7 25.7 9.0 25.6 9.1 25.9 C 8.8 26.0 8.6 25.9 8.6 25.8 C 8.6 25.8 8.6 25.8 8.6 25.8 Z M 4.2 24.5 C 4.2 24.4 4.6 24.3 4.5 24.6 C 4.3 24.7 4.1 24.6 4.2 24.5 C 4.2 24.5 4.2 24.5 4.2 24.5 Z M 9.2 24.8 C 9.5 24.8 9.6 25.1 9.4 25.2 C 9.2 25.0 8.6 25.0 9.2 24.8 C 9.2 24.8 9.2 24.8 9.2 24.8 Z M 10.2 23.7 C 11.0 23.9 9.7 24.3 9.7 24.2 C 9.4 24.0 9.8 23.5 10.2 23.7 C 10.2 23.7 10.2 23.7 10.2 23.7 Z M 9.8 25.2 C 10.4 25.4 9.6 25.4 9.8 25.2 C 9.8 25.2 9.8 25.2 9.8 25.2 Z M 4.8 26.8 C 5.5 27.0 4.6 27.0 4.8 26.8 C 4.8 26.8 4.8 26.8 4.8 26.8 Z M 8.5 27.8 C 9.2 27.9 8.2 28.0 8.5 27.8 C 8.5 27.8 8.5 27.8 8.5 27.8 Z M 6.7 24.6 C 5.7 24.5 6.4 23.8 6.7 24.6 C 6.7 24.6 6.7 24.6 6.7 24.6 Z M 11.7 23.6 C 10.8 23.6 11.3 22.8 11.7 23.6 C 11.7 23.6 11.7 23.6 11.7 23.6 Z M 5.7 24.3 C 5.8 25.2 6.9 21.9 5.6 23.0 C 4.6 23.3 4.7 20.8 5.7 21.6 C 5.8 20.9 5.8 21.0 5.3 20.4 C 6.1 20.5 6.5 19.0 6.1 18.3 C 5.4 17.7 6.0 19.4 5.3 18.2 C 5.1 16.0 4.6 18.1 3.7 16.9 C 3.8 16.8 4.2 16.9 3.9 16.6 C 3.1 16.2 2.6 17.4 2.0 16.5 C 2.1 17.0 1.3 18.5 2.0 17.9 C 2.7 17.9 1.1 19.7 2.3 19.8 C 1.7 20.3 2.5 21.0 1.8 21.5 C 1.7 21.9 2.3 22.0 2.5 21.9 C 3.0 22.0 1.2 22.3 2.2 23.1 C 1.9 23.2 2.0 25.2 2.5 23.7 C 2.4 24.1 2.1 26.3 3.2 25.2 C 3.7 23.7 4.3 26.7 4.4 25.0 C 4.5 23.7 4.3 23.5 4.9 24.5 C 4.8 24.7 4.9 26.2 5.4 25.0 C 5.3 24.7 5.4 24.1 5.7 24.3 C 5.7 24.3 5.7 24.3 5.7 24.3 Z M 4.1 24.5 C 4.0 23.7 4.5 24.5 4.1 24.5 C 4.1 24.5 4.1 24.5 4.1 24.5 Z M 1.6 21.3 C 1.5 20.4 2.0 21.3 1.6 21.3 C 1.6 21.3 1.6 21.3 1.6 21.3 Z M 6.0 22.2 C 5.6 21.8 6.8 21.9 6.0 22.2 C 6.0 22.2 6.0 22.2 6.0 22.2 Z M 2.5 22.8 C 2.5 22.8 2.6 23.0 2.7 23.1 C 2.6 23.1 2.5 22.9 2.5 22.8 C 2.5 22.8 2.5 22.8 2.5 22.8 Z M 6.0 21.0 C 5.4 19.8 6.8 21.0 6.0 21.0 C 6.0 21.0 6.0 21.0 6.0 21.0 Z M 4.9 18.6 C 3.7 18.0 5.1 17.5 4.9 18.6 C 4.9 18.6 4.9 18.6 4.9 18.6 Z M 2.4 19.4 C 2.6 19.7 2.2 19.6 2.4 19.4 C 2.4 19.4 2.4 19.4 2.4 19.4 Z M 2.2 24.7 C 2.4 24.9 2.1 24.9 2.2 24.7 C 2.2 24.7 2.2 24.7 2.2 24.7 Z M 2.5 17.9 C 2.9 18.2 2.2 18.3 2.5 17.9 C 2.5 17.9 2.5 17.9 2.5 17.9 Z M 5.5 21.9 C 6.4 23.0 4.2 22.9 5.5 21.9 C 5.5 21.9 5.5 21.9 5.5 21.9 Z M 5.6 23.6 C 5.8 24.3 5.0 23.5 5.2 23.2 C 5.2 23.2 5.5 23.5 5.6 23.6 C 5.6 23.6 5.6 23.6 5.6 23.6 Z M 5.4 20.9 C 5.8 21.6 5.1 21.4 5.4 20.9 C 5.4 20.9 5.4 20.9 5.4 20.9 Z M 5.9 22.6 C 5.8 22.9 5.8 22.3 5.9 22.6 C 5.9 22.6 5.9 22.6 5.9 22.6 Z M 6.3 19.8 C 6.2 20.1 6.2 19.5 6.3 19.8 C 6.3 19.8 6.3 19.8 6.3 19.8 Z M 6.1 24.5 C 6.0 24.8 5.9 24.2 6.1 24.5 C 6.1 24.5 6.1 24.5 6.1 24.5 Z M 5.7 19.9 C 5.3 19.7 4.4 20.4 5.2 18.9 C 5.5 18.7 6.1 19.6 5.7 19.9 C 5.7 19.9 5.7 19.9 5.7 19.9 Z M 15.2 24.4 C 10.4 23.2 12.3 25.4 12.2 25.8 C 11.8 26.4 12.6 26.8 13.8 27.2 C 15.5 28.6 14.6 25.8 16.1 27.2 C 18.6 29.1 16.6 25.5 18.4 27.5 C 18.5 28.0 20.2 27.6 20.0 27.5 C 21.7 28.4 21.7 26.8 21.6 26.6 C 22.5 26.8 24.0 28.6 24.9 27.3 C 25.2 27.2 25.6 27.2 26.0 27.3 C 26.2 26.7 26.9 27.0 26.0 26.5 C 27.4 26.4 25.6 25.3 26.1 24.5 C 26.8 24.2 24.9 23.6 26.4 23.1 C 25.2 21.8 27.1 24.4 26.3 19.6 C 26.2 21.6 25.4 17.4 26.2 18.4 C 27.0 20.1 25.9 16.4 26.4 14.5 C 25.9 14.0 24.9 12.0 26.0 12.1 C 27.4 9.7 25.2 10.4 26.3 9.2 C 26.8 8.3 25.8 8.6 25.9 8.1 C 26.7 6.9 26.1 6.6 26.4 4.0 C 26.5 2.5 26.4 1.8 26.2 1.7 C 25.5 2.0 25.2 2.4 25.0 2.9 C 24.8 3.2 24.6 3.6 24.1 3.8 C 24.0 3.8 23.9 3.9 23.7 3.9 C 23.5 4.0 23.4 4.3 23.3 4.6 C 22.5 5.9 21.5 7.6 23.0 5.7 C 22.4 6.5 24.5 8.5 22.3 8.2 C 23.2 8.8 21.4 8.6 22.4 10.2 C 24.0 5.6 23.1 13.8 22.3 10.8 C 21.8 11.5 21.9 12.7 22.3 11.7 C 23.7 10.8 21.7 13.9 23.4 12.3 C 22.9 14.5 24.4 13.9 23.4 14.6 C 21.5 15.0 23.8 14.5 23.3 15.6 C 23.3 18.2 21.2 15.8 22.6 17.5 C 21.7 19.3 23.4 18.3 23.6 19.3 C 24.9 20.1 22.6 21.2 22.5 19.4 C 23.1 20.7 21.8 19.2 22.7 20.7 C 23.8 20.6 21.4 21.1 22.4 21.5 C 22.7 22.7 23.4 22.8 23.4 23.2 C 23.4 24.7 22.2 23.1 23.1 24.3 C 23.2 24.4 23.2 24.5 23.2 24.5 C 22.8 24.5 21.2 23.4 21.3 23.8 C 23.0 23.8 21.1 25.0 20.4 24.4 C 21.3 24.3 18.6 22.8 18.7 23.7 C 21.7 26.3 16.9 23.1 16.8 24.0 C 18.5 25.4 13.4 24.2 14.6 23.5 C 14.6 23.6 15.2 24.4 15.2 24.4 M 21.0 24.0 C 22.5 24.1 19.9 24.3 21.0 24.0 M 20.6 23.6 C 21.7 24.1 19.1 23.2 20.6 23.4 C 20.6 23.4 20.5 23.6 20.6 23.6 M 22.2 20.2 C 22.6 20.6 22.0 20.7 22.2 20.2 M 23.1 19.7 C 23.5 19.1 23.2 20.9 23.1 19.7 M 22.8 8.3 C 25.0 8.3 21.6 10.1 22.8 8.3 M 22.4 15.7 C 22.7 17.1 21.5 15.2 22.4 15.7 M 22.9 16.2 C 23.3 16.9 22.4 16.3 22.9 16.2 M 22.8 10.4 C 22.9 10.3 22.9 10.3 22.8 10.4 C 22.8 10.4 22.8 10.4 22.8 10.4 Z M 22.9 7.0 C 22.8 7.0 22.8 7.0 22.9 7.0 C 22.9 7.0 22.9 7.0 22.9 7.0 Z M 23.0 13.7 C 22.5 14.7 22.8 12.0 23.0 13.7 C 23.0 13.7 23.0 13.7 23.0 13.7 Z M 26.1 6.6 C 26.2 6.7 26.2 6.7 26.1 6.6 C 26.1 6.6 26.1 6.6 26.1 6.6 Z M 20.8 24.9 C 20.8 25.0 20.8 25.0 20.8 24.9 C 20.8 24.9 20.8 24.9 20.8 24.9 Z M 16.1 24.1 C 16.3 24.4 15.2 23.9 16.1 24.1 C 16.1 24.1 16.1 24.1 16.1 24.1 Z M 13.9 26.6 C 13.9 26.6 13.9 26.6 13.9 26.6 C 13.9 26.6 13.9 26.6 13.9 26.6 Z M 20.3 26.1 C 20.3 26.1 20.3 26.1 20.3 26.1 C 20.3 26.1 20.3 26.1 20.3 26.1 Z M 19.7 24.5 C 18.1 23.3 21.5 24.8 19.7 24.5 C 19.7 24.5 19.7 24.5 19.7 24.5 Z M 26.0 15.1 C 25.5 15.0 26.2 13.9 26.0 15.1 C 26.0 15.1 26.0 15.1 26.0 15.1 Z M 23.6 19.8 C 23.3 19.5 23.7 19.3 23.6 19.8 C 23.6 19.8 23.6 19.8 23.6 19.8 Z M 22.0 20.9 C 21.7 20.6 22.1 20.5 22.0 20.9 C 22.0 20.9 22.0 20.9 22.0 20.9 Z M 15.9 23.8 C 16.0 23.7 16.0 23.7 15.9 23.8 C 15.9 23.8 15.9 23.8 15.9 23.8 Z M 18.0 24.7 C 16.2 23.6 20.1 25.3 18.0 24.7 C 18.0 24.7 18.0 24.7 18.0 24.7 Z M 16.4 25.0 C 17.3 25.4 14.9 24.8 16.4 25.0 M 18.6 26.7 C 19.7 26.2 18.6 28.7 18.6 26.7 C 18.6 26.7 18.6 26.7 18.6 26.7 Z M 25.8 26.7 C 25.9 26.7 25.9 26.7 25.8 26.7 C 25.8 26.7 25.8 26.7 25.8 26.7 Z M 22.3 23.9 C 22.5 23.9 22.6 23.9 22.6 24.0 C 22.6 23.9 22.7 23.9 22.7 24.0 C 22.6 24.1 22.0 24.1 22.3 23.9 C 22.3 23.9 22.3 23.9 22.3 23.9 Z M 12.8 23.7 C 13.9 23.7 12.2 23.9 12.8 23.7 C 12.8 23.7 12.8 23.7 12.8 23.7 Z M 24.7 21.6 C 24.6 19.5 25.3 23.2 24.7 21.6 C 24.7 21.6 24.7 21.6 24.7 21.6 Z M 23.5 14.2 C 23.5 14.2 23.5 14.2 23.5 14.2 C 23.5 14.2 23.5 14.2 23.5 14.2 Z M 23.0 13.1 C 23.0 13.1 23.0 13.1 23.0 13.1 C 23.0 13.1 23.0 13.1 23.0 13.1 Z M 24.1 7.5 C 24.2 7.4 24.2 7.4 24.1 7.5 C 24.1 7.5 24.1 7.5 24.1 7.5 Z M 22.5 12.2 C 22.5 12.1 22.5 12.1 22.5 12.2 C 22.5 12.2 22.5 12.2 22.5 12.2 Z M 22.8 8.8 C 22.8 8.7 22.8 8.7 22.8 8.8 C 22.8 8.8 22.8 8.8 22.8 8.8 Z M 21.8 9.8 C 21.9 9.7 21.9 9.7 21.8 9.8 C 21.8 9.8 21.8 9.8 21.8 9.8 Z M 26.6 17.4 C 26.7 17.3 26.7 17.3 26.6 17.4 C 26.6 17.4 26.6 17.4 26.6 17.4 Z M 17.5 23.4 C 17.7 23.5 17.7 23.5 17.5 23.4 C 17.5 23.4 17.5 23.4 17.5 23.4 Z M 23.2 8.8 C 23.2 8.8 23.2 8.8 23.2 8.8 C 23.2 8.8 23.2 8.8 23.2 8.8 Z M 24.1 17.4 C 25.0 17.6 22.8 17.8 24.0 17.2 C 24.1 17.2 23.9 17.5 24.1 17.4 M 25.6 16.4 C 25.7 16.5 25.7 16.5 25.6 16.4 C 25.6 16.4 25.6 16.4 25.6 16.4 Z M 26.2 21.5 C 26.2 21.5 26.2 21.5 26.2 21.5 C 26.2 21.5 26.2 21.5 26.2 21.5 Z M 22.3 12.8 C 21.8 13.0 22.7 11.8 22.3 12.9 M 25.8 6.4 C 25.3 6.9 26.2 4.9 25.8 6.6 M 11.7 24.0 C 11.7 24.4 10.9 23.8 11.7 24.0 M 26.7 22.9 C 27.1 23.3 26.5 23.7 26.7 22.9 M 25.5 20.0 C 25.0 19.9 25.9 18.9 25.5 20.1 M 25.8 9.7 C 25.8 9.6 25.8 9.6 25.8 9.7 C 25.8 9.7 25.8 9.7 25.8 9.7 Z M 22.7 22.8 C 22.7 22.8 22.7 22.8 22.7 22.8 C 22.7 22.8 22.7 22.8 22.7 22.8 Z M 23.8 18.8 C 23.1 19.2 24.3 18.1 23.8 18.8 M 23.9 25.3 C 23.2 24.9 23.3 24.9 23.7 25.0 C 24.2 25.1 25.0 25.5 24.0 25.3 C 24.0 25.3 23.9 25.3 23.9 25.3 M 26.0 3.7 C 24.9 5.8 26.6 2.2 26.0 3.7 M 23.3 11.2 C 22.2 12.5 23.9 10.2 23.3 11.2 M 23.2 22.3 C 22.6 21.9 23.5 21.5 23.2 22.3 M 14.1 23.9 C 13.1 23.8 15.2 23.5 14.1 23.9 M 25.8 12.8 C 25.8 12.8 25.8 12.8 25.8 12.8 C 25.8 12.8 25.8 12.8 25.8 12.8 Z M 20.4 28.1 C 20.4 28.1 20.4 28.1 20.4 28.1 C 20.4 28.1 20.4 28.1 20.4 28.1 Z M 22.5 5.5 C 22.5 5.4 22.5 5.4 22.5 5.5 C 22.5 5.5 22.5 5.5 22.5 5.5 Z M 23.8 11.7 C 23.9 11.6 23.9 11.6 23.8 11.7 C 23.8 11.7 23.8 11.7 23.8 11.7 Z M 22.3 7.5 C 22.4 7.4 22.4 7.4 22.3 7.5 C 22.3 7.5 22.3 7.5 22.3 7.5 Z M 24.7 15.1 C 24.7 15.1 24.7 15.1 24.7 15.1 C 24.7 15.1 24.7 15.1 24.7 15.1 Z M 21.9 15.5 C 21.9 15.5 21.9 15.5 21.9 15.5 C 21.9 15.5 21.9 15.5 21.9 15.5 Z M 23.1 19.1 C 23.1 19.1 23.1 19.1 23.1 19.1 C 23.1 19.1 23.1 19.1 23.1 19.1 Z M 22.1 14.1 C 21.9 12.3 23.0 15.1 22.1 14.1 C 22.1 14.1 22.1 14.1 22.1 14.1 Z M 24.9 18.2 C 24.9 18.2 24.9 18.2 24.9 18.2 C 24.9 18.2 24.9 18.2 24.9 18.2 Z M 22.9 17.9 C 22.1 16.5 24.2 17.6 22.9 17.9 M 22.3 23.0 C 21.9 22.2 22.9 23.4 22.3 23.0 M 23.9 27.2 C 24.0 27.3 24.0 27.3 23.9 27.2 C 23.9 27.2 23.9 27.2 23.9 27.2 Z M 24.4 26.9 C 24.5 27.0 24.5 27.0 24.4 26.9 C 24.4 26.9 24.4 26.9 24.4 26.9 Z M 21.4 23.4 C 21.4 23.4 21.4 23.4 21.4 23.4 C 21.4 23.4 21.4 23.4 21.4 23.4 Z M 25.5 28.0 C 25.6 28.0 25.6 28.0 25.5 28.0 C 25.5 28.0 25.5 28.0 25.5 28.0 Z M 22.0 16.3 C 22.0 16.2 22.0 16.2 22.0 16.3 C 22.0 16.3 22.0 16.3 22.0 16.3 Z M 21.9 6.9 C 21.9 6.9 21.9 6.9 21.9 6.9 C 21.9 6.9 21.9 6.9 21.9 6.9 Z M 16.1 26.8 C 16.2 26.9 16.2 26.9 16.1 26.8 C 16.1 26.8 16.1 26.8 16.1 26.8 Z M 23.1 15.4 C 23.1 15.3 23.1 15.3 23.1 15.4 C 23.1 15.4 23.1 15.4 23.1 15.4 Z M 22.0 27.0 C 22.1 27.1 22.1 27.1 22.0 27.0 C 22.0 27.0 22.0 27.0 22.0 27.0 Z M 22.8 16.0 C 22.8 16.0 22.8 16.0 22.8 16.0 C 22.8 16.0 22.8 16.0 22.8 16.0 Z M 26.0 13.2 C 26.0 13.2 26.0 13.2 26.0 13.2 C 26.0 13.2 26.0 13.2 26.0 13.2 Z M 26.6 10.1 C 26.7 10.0 26.7 10.0 26.6 10.1 C 26.6 10.1 26.6 10.1 26.6 10.1 Z M 24.1 13.6 C 24.1 13.6 24.1 13.6 24.1 13.6 C 24.1 13.6 24.1 13.6 24.1 13.6 Z M 20.2 25.9 C 14.9 24.9 23.5 25.4 20.2 25.9 M 24.3 12.8 C 24.1 16.1 23.3 10.6 24.3 12.8 C 24.1 12.5 24.3 12.8 24.3 12.8 M 21.2 5.9 C 22.0 5.5 22.7 5.1 23.2 4.7 C 23.8 4.2 24.2 3.8 24.5 3.4 C 24.6 3.2 24.7 3.0 24.8 2.8 C 24.5 2.3 22.7 4.3 24.2 2.6 C 26.2 2.3 25.7 0.1 23.9 2.3 C 21.4 2.6 24.6 0.9 22.5 1.7 C 19.8 2.0 21.5 1.3 19.4 1.4 C 17.8 2.6 18.4 0.8 17.5 2.0 C 19.0 0.7 15.4 2.3 15.4 1.8 C 17.4 1.0 8.6 1.8 13.4 2.1 C 11.6 2.7 11.8 1.7 11.1 1.5 C 10.5 2.2 7.6 0.9 6.8 1.7 C 7.1 1.8 7.7 1.9 8.0 2.1 C 8.6 2.6 6.7 2.0 6.8 2.0 C 6.3 2.3 4.0 3.1 6.1 1.8 C 5.9 1.2 3.7 2.0 3.3 1.5 C 2.5 1.5 2.2 1.6 2.1 1.7 C 2.4 2.5 2.8 2.2 2.2 2.3 C 2.2 4.2 2.1 5.5 2.3 5.7 C 2.2 6.7 1.5 6.4 2.1 7.9 C 0.8 9.3 4.7 11.2 2.1 10.4 C 2.7 11.4 1.0 11.0 2.6 11.9 C 1.9 10.6 1.4 15.2 2.5 13.7 C 2.9 14.4 0.9 16.5 2.5 16.7 C 3.7 18.1 4.9 18.3 6.0 16.8 C 5.1 16.6 6.9 15.3 5.4 15.9 C 4.8 17.4 4.8 12.4 5.4 13.8 C 7.3 15.1 4.2 10.7 5.6 10.6 C 4.8 10.9 4.4 6.5 5.8 8.9 C 6.0 8.3 5.3 7.5 6.1 7.4 C 6.0 9.6 4.6 5.2 5.5 6.1 C 5.7 6.5 5.9 6.2 6.0 5.6 C 6.9 5.8 7.7 5.7 7.2 5.3 C 4.2 3.3 8.3 5.7 8.3 4.9 C 9.9 4.5 9.2 6.6 9.5 5.1 C 10.0 5.4 12.2 5.4 10.9 5.8 C 10.3 5.6 11.7 3.7 12.4 5.3 C 10.4 6.2 15.1 5.8 14.3 5.3 C 10.2 4.4 18.8 4.3 15.4 5.2 C 16.8 6.1 14.9 5.5 17.0 5.2 C 16.9 4.6 18.9 4.1 18.0 5.2 C 17.5 6.8 19.6 3.1 19.8 5.2 C 19.4 6.2 23.0 4.5 21.1 5.6 C 21.0 5.7 21.2 5.9 21.2 5.9 M 20.7 5.7 C 21.2 5.3 20.7 6.1 20.7 5.7 M 21.3 5.3 C 21.3 5.4 21.3 5.4 21.3 5.3 C 21.3 5.3 21.3 5.3 21.3 5.3 Z M 17.4 5.1 C 17.4 5.1 17.4 5.1 17.4 5.1 C 17.4 5.1 17.4 5.1 17.4 5.1 Z M 14.1 1.1 C 14.1 1.2 14.1 1.2 14.1 1.1 C 14.1 1.1 14.1 1.1 14.1 1.1 Z M 14.6 5.0 C 14.6 5.0 14.6 5.0 14.6 5.0 C 14.6 5.0 14.6 5.0 14.6 5.0 Z M 19.0 4.8 C 19.0 4.9 19.0 4.9 19.0 4.8 C 19.0 4.8 19.0 4.8 19.0 4.8 Z M 14.8 5.6 C 14.7 5.0 15.6 6.0 14.8 5.7 C 14.7 5.6 14.9 5.6 14.8 5.6 M 11.5 5.8 C 11.5 5.7 11.5 5.7 11.5 5.8 M 1.6 3.9 C 1.5 3.9 1.5 3.9 1.6 3.9 M 6.2 8.8 C 6.2 8.8 6.2 8.8 6.2 8.8 M 7.8 5.2 C 6.8 5.3 7.3 4.9 7.8 5.2 M 5.9 11.6 C 6.3 10.4 6.2 13.3 5.9 11.6 M 6.3 13.2 C 6.2 13.3 6.2 13.3 6.3 13.2 M 6.0 6.5 C 6.0 6.4 6.0 6.4 6.0 6.5 C 6.0 6.5 6.0 6.5 6.0 6.5 Z M 8.4 5.5 C 10.0 5.8 7.5 6.0 8.4 5.5 M 16.7 5.7 C 15.9 6.0 16.9 4.9 16.7 5.7 M 18.4 5.3 C 18.4 5.3 18.4 5.3 18.4 5.3 C 18.4 5.3 18.4 5.3 18.4 5.3 Z M 5.9 9.2 C 5.9 9.2 5.9 9.2 5.9 9.2 C 5.9 9.2 5.9 9.2 5.9 9.2 Z M 6.0 11.0 C 6.0 10.9 6.0 10.9 6.0 11.0 C 6.0 11.0 6.0 11.0 6.0 11.0 Z M 1.7 11.2 C 1.7 11.2 1.7 11.2 1.7 11.2 C 1.7 11.2 1.7 11.2 1.7 11.2 Z M 17.9 3.5 C 19.0 3.8 16.2 4.9 16.7 3.9 C 16.7 3.4 17.7 3.6 17.9 3.5 M 8.7 4.1 C 7.5 2.7 10.7 6.2 8.7 4.1 M 5.3 12.8 C 3.5 13.0 6.5 12.2 5.3 12.8 M 5.6 15.4 C 5.2 15.9 5.4 10.8 5.9 14.7 C 6.1 15.2 5.8 15.2 5.6 15.4 M 11.2 5.1 C 10.6 4.3 13.0 5.5 11.2 5.1 M 3.0 3.7 C 3.6 4.8 4.0 6.8 3.1 5.3 C 2.0 4.3 2.6 2.5 3.0 3.7 M 21.0 4.8 C 19.2 6.2 21.9 3.7 21.0 4.8 M 16.8 4.7 C 16.7 4.8 16.7 4.8 16.8 4.7 C 16.8 4.7 16.8 4.7 16.8 4.7 Z M 15.0 4.9 C 15.0 4.8 15.0 4.8 15.0 4.9 M 19.5 6.0 C 19.5 5.9 19.5 5.9 19.5 6.0 M 4.4 4.9 C 4.3 4.9 4.3 4.9 4.4 4.9 M 7.9 4.9 C 5.1 3.6 8.6 4.6 7.9 4.9 M 11.3 2.4 C 10.4 1.8 12.6 2.3 11.3 2.4 M 5.7 5.5 C 5.2 5.5 4.9 4.9 4.9 4.5 C 4.8 4.0 5.1 3.9 5.7 5.3 C 5.7 5.4 5.7 5.4 5.7 5.5 M 8.8 5.0 C 8.7 5.0 8.7 5.0 8.8 5.0 C 8.8 5.0 8.8 5.0 8.8 5.0 Z M 2.9 4.1 C 2.9 4.0 2.9 4.0 2.9 4.1 C 2.9 4.1 2.9 4.1 2.9 4.1 Z M 3.0 4.7 C 2.9 4.6 2.9 4.6 3.0 4.7 C 3.0 4.7 3.0 4.7 3.0 4.7 Z M 5.9 7.1 C 5.9 7.0 5.9 7.0 5.9 7.1 C 5.9 7.1 5.9 7.1 5.9 7.1 Z M 20.2 1.9 C 18.7 1.9 21.6 1.7 20.2 1.9 C 20.2 1.9 20.2 1.9 20.2 1.9 Z M 13.6 5.6 C 11.5 4.6 14.9 4.6 13.6 5.6 C 13.6 5.6 13.6 5.6 13.6 5.6 Z M 11.1 4.0 C 11.0 3.9 11.0 3.9 11.1 4.0 C 11.1 4.0 11.1 4.0 11.1 4.0 Z M 7.1 6.1 C 7.0 6.1 7.0 6.1 7.1 6.1 C 7.1 6.1 7.1 6.1 7.1 6.1 Z M 19.5 1.8 C 19.6 1.7 19.6 1.7 19.5 1.8 C 19.5 1.8 19.5 1.8 19.5 1.8 Z M 5.2 10.1 C 5.2 10.0 5.2 10.0 5.2 10.1 C 5.2 10.1 5.2 10.1 5.2 10.1 Z M 5.1 2.3 C 5.0 2.8 4.7 1.9 5.1 2.3 C 5.1 2.3 5.1 2.3 5.1 2.3 Z M 2.9 2.3 C 2.8 2.3 2.8 2.3 2.9 2.3 C 2.9 2.3 2.9 2.3 2.9 2.3 Z M 6.4 13.7 C 6.4 13.8 6.4 13.8 6.4 13.7 C 6.4 13.7 6.4 13.7 6.4 13.7 Z M 1.5 6.6 C 1.5 6.7 1.5 6.7 1.5 6.6 C 1.5 6.6 1.5 6.6 1.5 6.6 Z M 3.0 9.5 C 3.0 9.5 3.0 9.5 3.0 9.5 C 3.0 9.5 3.0 9.5 3.0 9.5 Z M 5.6 6.5 C 5.8 8.5 5.0 5.5 5.6 6.5 C 5.6 6.5 5.6 6.5 5.6 6.5 Z M 3.4 14.9 C 3.3 14.9 3.3 14.9 3.4 14.9 C 3.4 14.9 3.4 14.9 3.4 14.9 Z M 5.1 16.6 C 5.0 16.6 5.0 16.6 5.1 16.6 C 5.1 16.6 5.1 16.6 5.1 16.6 Z M 5.9 17.5 C 5.9 17.5 5.9 17.5 5.9 17.5 C 5.9 17.5 5.9 17.5 5.9 17.5 Z M 15.3 3.1 C 15.3 3.2 15.3 3.2 15.3 3.1 C 15.3 3.1 15.3 3.1 15.3 3.1 Z M 15.6 5.9 C 15.6 5.9 15.6 5.9 15.6 5.9 C 15.6 5.9 15.6 5.9 15.6 5.9 Z M 13.5 6.0 C 13.5 6.0 13.5 6.0 13.5 6.0 C 13.5 6.0 13.5 6.0 13.5 6.0 Z M 16.0 1.5 C 16.1 1.5 16.1 1.5 16.0 1.5 C 16.0 1.5 16.0 1.5 16.0 1.5 Z M 5.7 3.8 C 5.8 3.9 5.8 3.9 5.7 3.8 C 5.7 3.8 5.7 3.8 5.7 3.8 Z M 3.8 2.7 C 3.9 2.8 3.9 2.8 3.8 2.7 C 3.8 2.7 3.8 2.7 3.8 2.7 Z M 5.3 1.2 C 5.3 1.2 5.3 1.2 5.3 1.2 C 5.3 1.2 5.3 1.2 5.3 1.2 Z M 2.1 1.8 C 2.1 1.8 2.1 1.8 2.1 1.8 C 2.1 1.8 2.1 1.8 2.1 1.8 Z M 23.8 2.0 C 23.8 2.0 23.8 2.0 23.8 2.0 C 23.8 2.0 23.8 2.0 23.8 2.0 Z M 22.3 4.1 C 22.4 4.0 22.4 4.0 22.3 4.1 C 22.3 4.1 22.3 4.1 22.3 4.1 Z M 6.8 5.3 C 6.8 5.8 5.4 4.7 6.8 5.3 M 9.8 5.1 C 9.8 5.0 9.8 5.0 9.8 5.1 C 9.8 5.1 9.8 5.1 9.8 5.1 Z M 5.6 10.1 C 4.8 9.9 6.1 8.7 5.6 10.1 C 5.6 10.1 5.6 10.1 5.6 10.1 Z M 2.1 5.2 C 2.1 5.2 2.1 5.2 2.1 5.2 C 2.1 5.2 2.1 5.2 2.1 5.2 Z M 2.5 6.6 C 2.4 6.6 2.4 6.6 2.5 6.6 C 2.5 6.6 2.5 6.6 2.5 6.6 Z M 4.7 13.8 C 4.7 13.8 4.7 13.8 4.7 13.8 M 10.6 5.8 C 10.0 5.4 10.1 5.5 10.6 5.8 M 5.6 11.2 C 5.6 11.2 5.6 11.2 5.6 11.2 C 5.6 11.2 5.6 11.2 5.6 11.2 Z M 5.2 15.2 C 5.2 15.1 5.2 15.1 5.2 15.2 C 5.2 15.2 5.2 15.2 5.2 15.2 Z M 12.6 5.2 C 12.4 4.2 12.9 4.5 12.6 5.2 M 19.3 4.9 C 19.3 4.8 19.3 4.8 19.3 4.9 C 19.3 4.9 19.3 4.9 19.3 4.9 Z M 19.3 4.9 " fill="#FEFFFE"></path></g></svg>