<?xml version="1.0" encoding="UTF-8" standalone="no"?><svg xmlns="http://www.w3.org/2000/svg" xmlns:xlink="http://www.w3.org/1999/xlink" clip-rule="evenodd" stroke-miterlimit="10" viewBox="0 0 31 30"><desc>SVG generated by Keynote</desc><defs></defs><g transform="matrix(1.00, 0.00, -0.00, -1.00, 0.0, 30.0)"><path d="M 18.0 15.9 C 18.0 16.1 17.5 16.6 17.6 16.7 M 18.0 15.9 C 16.6 16.4 16.1 17.3 15.4 18.3 C 14.7 19.5 16.3 18.4 16.7 18.5 C 16.1 20.3 15.5 20.1 14.6 19.7 C 15.0 20.4 12.9 21.7 14.2 21.9 C 15.6 19.3 13.5 24.0 15.4 21.9 C 15.7 21.7 15.6 22.6 15.5 22.8 C 16.4 22.2 16.1 23.9 17.2 22.7 C 18.1 22.7 17.6 22.9 18.7 22.1 C 19.0 21.7 18.6 21.8 18.5 21.8 C 17.6 21.4 19.6 20.8 19.4 19.8 C 21.1 19.3 20.0 18.4 19.1 18.9 C 19.6 18.3 21.4 17.5 20.9 16.7 C 21.8 16.3 22.3 14.4 20.8 15.6 C 19.8 16.5 19.9 15.7 19.6 15.6 C 19.2 15.9 19.1 16.9 18.7 17.0 C 18.7 16.7 18.8 15.5 18.2 16.8 C 17.9 16.4 17.3 17.1 18.0 15.9 C 18.0 15.9 18.0 15.9 18.0 15.9 Z M 14.9 20.2 C 14.6 20.2 15.1 19.8 14.9 20.2 C 14.9 20.2 14.9 20.2 14.9 20.2 Z M 21.2 17.3 C 20.9 17.4 21.5 16.8 21.2 17.3 C 21.2 17.3 21.2 17.3 21.2 17.3 Z M 18.6 21.6 C 18.3 21.5 18.9 21.0 18.6 21.6 C 18.6 21.6 18.6 21.6 18.6 21.6 Z M 15.7 19.2 C 16.4 18.5 15.9 19.8 15.5 19.9 C 15.6 19.7 15.3 19.3 15.7 19.2 C 15.7 19.2 15.7 19.2 15.7 19.2 Z M 17.7 19.4 C 17.6 19.3 17.7 18.9 18.0 19.0 C 18.0 19.2 17.8 19.4 17.7 19.4 C 17.7 19.4 17.7 19.4 17.7 19.4 Z M 14.4 22.7 C 14.4 22.6 14.5 22.3 14.7 22.4 C 14.7 22.7 14.5 22.8 14.4 22.7 C 14.4 22.7 14.4 22.7 14.4 22.7 Z M 17.0 18.5 C 17.2 18.3 17.5 18.2 17.4 18.5 C 17.2 18.6 16.9 19.1 17.0 18.5 C 17.0 18.5 17.0 18.5 17.0 18.5 Z M 16.4 17.3 C 16.9 16.8 16.8 17.9 16.7 17.9 C 16.3 18.1 16.0 17.6 16.4 17.3 C 16.4 17.3 16.4 17.3 16.4 17.3 Z M 17.7 18.1 C 18.1 17.6 17.8 18.4 17.7 18.1 C 17.7 18.1 17.7 18.1 17.7 18.1 Z M 16.8 23.2 C 17.3 22.6 16.9 23.5 16.8 23.2 C 16.8 23.2 16.8 23.2 16.8 23.2 Z M 19.5 20.2 C 20.0 19.6 19.6 20.5 19.5 20.2 C 19.5 20.2 19.5 20.2 19.5 20.2 Z M 15.6 20.6 C 15.2 21.5 14.8 20.5 15.6 20.6 C 15.6 20.6 15.6 20.6 15.6 20.6 Z M 17.0 16.0 C 16.6 16.8 16.0 16.2 17.0 16.0 C 17.0 16.0 17.0 16.0 17.0 16.0 Z M 16.3 21.5 C 16.9 22.2 16.4 19.1 15.7 20.5 C 14.9 21.1 13.8 18.9 15.1 19.3 C 14.9 18.7 15.0 18.7 14.3 18.4 C 15.0 18.2 14.8 16.9 14.1 16.4 C 13.2 16.1 14.5 17.3 13.2 16.5 C 12.0 14.7 12.5 16.6 11.1 15.8 C 11.0 15.7 11.5 15.7 11.1 15.5 C 10.1 15.3 10.2 16.5 9.1 15.9 C 9.5 16.2 9.4 17.9 9.8 17.2 C 10.5 16.9 9.8 19.1 11.0 18.8 C 10.7 19.4 11.8 19.9 11.4 20.5 C 11.5 21.0 12.1 20.8 12.3 20.7 C 12.8 20.5 11.2 21.5 12.6 21.9 C 12.3 22.1 13.4 23.9 13.1 22.3 C 13.2 22.8 14.1 24.9 14.5 23.4 C 14.3 21.8 16.2 24.2 15.5 22.7 C 15.0 21.5 14.7 21.4 15.6 22.0 C 15.7 22.3 16.5 23.5 16.4 22.2 C 16.1 22.0 16.0 21.5 16.3 21.5 C 16.3 21.5 16.3 21.5 16.3 21.5 Z M 14.9 22.4 C 14.5 21.7 15.3 22.1 14.9 22.4 C 14.9 22.4 14.9 22.4 14.9 22.4 Z M 11.1 20.5 C 10.6 19.7 11.5 20.3 11.1 20.5 C 11.1 20.5 11.1 20.5 11.1 20.5 Z M 15.6 19.6 C 15.1 19.4 16.3 19.1 15.6 19.6 C 15.6 19.6 15.6 19.6 15.6 19.6 Z M 12.7 21.5 C 12.7 21.5 12.9 21.6 13.0 21.7 C 13.0 21.7 12.7 21.6 12.7 21.5 C 12.7 21.5 12.7 21.5 12.7 21.5 Z M 15.1 18.7 C 14.1 17.9 16.0 18.4 15.1 18.7 C 15.1 18.7 15.1 18.7 15.1 18.7 Z M 13.0 16.9 C 11.6 16.8 12.7 16.0 13.0 16.9 C 13.0 16.9 13.0 16.9 13.0 16.9 Z M 10.9 18.4 C 11.3 18.6 10.9 18.6 10.9 18.4 C 10.9 18.4 10.9 18.4 10.9 18.4 Z M 13.4 23.4 C 13.7 23.5 13.3 23.7 13.4 23.4 C 13.4 23.4 13.4 23.4 13.4 23.4 Z M 10.3 17.0 C 10.8 17.1 10.3 17.4 10.3 17.0 C 10.3 17.0 10.3 17.0 10.3 17.0 Z M 15.1 19.6 C 16.4 20.1 14.3 20.9 15.1 19.6 C 15.1 19.6 15.1 19.6 15.1 19.6 Z M 15.9 21.0 C 16.4 21.5 15.3 21.1 15.3 20.8 C 15.4 20.8 15.8 20.9 15.9 21.0 C 15.9 21.0 15.9 21.0 15.9 21.0 Z M 14.5 18.7 C 15.3 19.2 14.5 19.3 14.5 18.7 C 14.5 18.7 14.5 18.7 14.5 18.7 Z M 15.8 20.0 C 15.8 20.3 15.5 19.8 15.8 20.0 C 15.8 20.0 15.8 20.0 15.8 20.0 Z M 15.0 17.6 C 15.0 17.9 14.7 17.4 15.0 17.6 C 15.0 17.6 15.0 17.6 15.0 17.6 Z M 16.7 21.5 C 16.8 21.8 16.5 21.3 16.7 21.5 C 16.7 21.5 16.7 21.5 16.7 21.5 Z M 14.4 17.8 C 13.9 17.8 13.4 18.7 13.4 17.1 C 13.6 16.9 14.6 17.5 14.4 17.8 C 14.4 17.8 14.4 17.8 14.4 17.8 Z M 18.9 14.2 C 16.1 16.8 19.0 16.0 19.4 16.1 C 19.9 16.5 20.6 16.1 21.4 15.4 C 23.5 14.5 20.2 14.7 22.2 13.9 C 25.0 12.5 20.5 13.5 23.3 12.5 C 23.9 12.5 24.0 11.3 23.8 11.5 C 25.4 10.5 23.6 10.3 23.3 10.4 C 23.9 9.9 26.5 8.9 25.3 8.3 C 25.1 7.7 28.0 6.0 26.0 7.1 C 28.5 5.4 25.7 6.9 26.7 5.8 C 28.2 4.7 24.9 6.7 27.7 4.7 C 26.1 5.2 28.6 4.5 28.7 2.6 C 28.2 3.4 28.0 3.1 28.1 2.7 C 27.7 2.8 27.5 2.7 28.2 2.4 C 30.5 1.6 26.3 2.7 25.5 2.2 C 24.6 2.6 21.9 3.7 23.2 2.5 C 22.8 1.2 21.1 3.4 21.3 2.3 C 21.1 1.8 20.3 2.8 20.0 2.7 C 19.9 1.9 19.1 2.4 17.3 2.2 C 13.0 1.8 16.4 4.3 15.2 4.6 C 15.0 5.0 16.0 7.6 15.9 5.6 C 16.0 6.2 18.9 4.1 16.8 6.3 C 17.9 5.4 16.4 7.2 18.1 6.2 C 16.5 4.6 20.9 5.5 18.3 6.3 C 18.2 6.7 19.0 6.7 18.8 6.3 C 19.7 4.9 19.3 6.9 20.4 5.2 C 21.2 5.7 22.7 4.1 21.8 5.2 C 19.7 7.1 22.3 4.7 22.3 5.3 C 24.0 5.3 19.7 7.4 22.5 6.0 C 22.5 6.0 22.5 6.1 22.5 6.1 C 20.7 8.0 23.9 5.4 24.0 5.7 C 26.0 4.7 21.6 8.2 21.9 7.2 C 22.7 7.2 20.9 7.8 21.8 7.8 C 24.0 6.2 19.4 9.6 21.0 8.7 C 21.1 9.1 22.4 8.2 22.3 8.4 C 21.8 9.3 20.2 9.8 21.4 9.4 C 22.0 9.3 19.5 10.7 20.0 10.6 C 20.6 9.7 21.4 10.7 20.5 11.1 C 20.6 10.6 18.1 12.2 19.2 12.1 C 23.1 10.4 17.9 13.2 18.9 13.2 C 21.1 12.3 18.1 15.2 17.7 14.5 C 17.8 14.5 18.9 14.2 18.9 14.2 M 20.2 10.8 C 20.8 9.9 20.2 11.4 20.2 10.8 M 19.6 11.0 C 20.5 10.4 18.8 11.9 19.4 11.1 C 19.4 11.1 19.6 11.1 19.6 11.0 M 21.2 8.0 C 21.8 7.8 20.6 8.6 21.2 8.0 M 22.9 6.6 C 23.8 5.8 22.7 7.3 22.9 6.6 M 17.3 5.8 C 19.2 3.6 17.3 7.0 17.3 5.8 M 21.2 6.2 C 22.4 5.9 19.8 7.1 21.2 6.2 M 22.2 5.7 C 23.1 5.3 21.6 6.2 22.2 5.7 M 18.6 5.8 C 18.6 5.7 18.6 5.7 18.6 5.8 C 18.6 5.8 18.6 5.8 18.6 5.8 Z M 16.6 5.7 C 16.6 5.7 16.6 5.7 16.6 5.7 C 16.6 5.7 16.6 5.7 16.6 5.7 Z M 20.8 5.6 C 20.8 6.1 19.6 5.7 20.8 5.6 C 20.8 5.6 20.8 5.6 20.8 5.6 Z M 19.1 2.5 C 19.2 2.4 19.2 2.4 19.1 2.5 C 19.1 2.5 19.1 2.5 19.1 2.5 Z M 21.3 10.9 C 21.3 10.9 21.3 10.9 21.3 10.9 C 21.3 10.9 21.3 10.9 21.3 10.9 Z M 18.9 13.7 C 19.2 13.5 18.3 14.2 18.9 13.7 C 18.9 13.7 18.9 13.7 18.9 13.7 Z M 20.8 15.2 C 20.8 15.3 20.8 15.3 20.8 15.2 C 20.8 15.2 20.8 15.2 20.8 15.2 Z M 22.4 11.2 C 22.4 11.2 22.4 11.2 22.4 11.2 C 22.4 11.2 22.4 11.2 22.4 11.2 Z M 20.4 11.6 C 18.5 12.5 21.3 10.5 20.4 11.6 C 20.4 11.6 20.4 11.6 20.4 11.6 Z M 25.5 2.6 C 24.8 3.1 24.8 2.4 25.5 2.6 C 25.5 2.6 25.5 2.6 25.5 2.6 Z M 23.7 6.1 C 23.4 6.2 24.1 5.6 23.7 6.1 C 23.7 6.1 23.7 6.1 23.7 6.1 Z M 20.5 8.8 C 20.1 8.9 20.9 8.4 20.5 8.8 C 20.5 8.8 20.5 8.8 20.5 8.8 Z M 18.5 13.7 C 18.4 13.7 18.4 13.7 18.5 13.7 C 18.5 13.7 18.5 13.7 18.5 13.7 Z M 20.1 12.5 C 18.3 13.5 21.4 11.3 20.1 12.5 C 20.1 12.5 20.1 12.5 20.1 12.5 Z M 19.9 13.5 C 20.7 13.0 19.3 14.4 19.9 13.5 M 22.5 12.3 C 22.3 11.6 24.6 12.5 22.5 12.3 C 22.5 12.3 22.5 12.3 22.5 12.3 Z M 25.5 7.5 C 25.6 7.4 25.6 7.4 25.5 7.5 C 25.5 7.5 25.5 7.5 25.5 7.5 Z M 20.5 10.1 C 20.9 9.4 20.7 10.3 20.5 10.1 C 20.5 10.1 20.5 10.1 20.5 10.1 Z M 17.4 15.5 C 17.7 14.9 17.5 15.9 17.4 15.5 C 17.4 15.5 17.4 15.5 17.4 15.5 Z M 25.3 5.7 C 25.6 4.7 25.8 6.0 25.3 5.7 C 25.3 5.7 25.3 5.7 25.3 5.7 Z M 21.7 5.1 C 21.7 5.1 21.7 5.1 21.7 5.1 C 21.7 5.1 21.7 5.1 21.7 5.1 Z M 20.4 5.6 C 20.4 5.6 20.4 5.6 20.4 5.6 C 20.4 5.6 20.4 5.6 20.4 5.6 Z M 17.9 4.4 C 17.9 4.4 17.9 4.4 17.9 4.4 C 17.9 4.4 17.9 4.4 17.9 4.4 Z M 19.3 6.1 C 19.3 6.1 19.3 6.1 19.3 6.1 C 19.3 6.1 19.3 6.1 19.3 6.1 Z M 17.6 5.8 C 17.6 5.8 17.6 5.8 17.6 5.8 C 17.6 5.8 17.6 5.8 17.6 5.8 Z M 17.4 6.8 C 17.3 6.7 17.3 6.7 17.4 6.8 C 17.4 6.8 17.4 6.8 17.4 6.8 Z M 28.1 1.9 C 28.0 1.9 28.0 1.9 28.1 1.9 C 28.1 1.9 28.1 1.9 28.1 1.9 Z M 18.5 12.8 C 18.7 12.7 18.7 12.7 18.5 12.8 C 18.5 12.8 18.5 12.8 18.5 12.8 Z M 18.0 5.4 C 18.0 5.4 18.0 5.4 18.0 5.4 C 18.0 5.4 18.0 5.4 18.0 5.4 Z M 24.6 4.5 C 26.1 3.6 23.1 5.8 24.4 4.6 C 24.5 4.5 24.4 4.7 24.6 4.5 M 26.0 3.0 C 26.1 2.9 26.1 2.9 26.0 3.0 C 26.0 3.0 26.0 3.0 26.0 3.0 Z M 27.9 3.9 C 27.9 3.9 27.9 3.9 27.9 3.9 C 27.9 3.9 27.9 3.9 27.9 3.9 Z M 19.4 6.3 C 19.0 6.8 19.3 5.9 19.5 6.3 M 18.6 2.8 C 18.5 3.3 17.9 2.4 18.8 2.8 M 17.4 16.2 C 17.8 16.2 16.9 16.6 17.4 16.2 M 28.4 4.1 C 28.9 3.9 27.7 4.9 28.4 4.1 M 27.1 3.8 C 26.2 4.4 28.2 2.7 27.1 3.9 M 21.1 2.8 C 21.0 2.8 21.0 2.8 21.1 2.8 C 21.1 2.8 21.1 2.8 21.1 2.8 Z M 21.2 9.0 C 21.2 9.0 21.2 9.0 21.2 9.0 C 21.2 9.0 21.2 9.0 21.2 9.0 Z M 24.5 5.2 C 23.1 6.3 25.6 4.2 24.5 5.2 M 22.6 9.0 C 21.0 10.1 23.6 7.8 22.6 9.0 M 16.8 2.6 C 17.5 3.7 16.1 2.0 16.8 2.6 M 19.6 5.3 C 19.2 6.4 19.5 4.7 19.6 5.3 M 22.2 8.1 C 21.3 8.6 23.1 7.2 22.2 8.1 M 18.0 14.8 C 17.6 15.4 17.9 14.1 18.0 14.8 M 23.5 2.8 C 23.5 2.8 23.5 2.8 23.5 2.8 C 23.5 2.8 23.5 2.8 23.5 2.8 Z M 24.6 11.3 C 24.7 11.2 24.7 11.2 24.6 11.3 C 24.6 11.3 24.6 11.3 24.6 11.3 Z M 15.4 6.1 C 15.4 6.1 15.4 6.1 15.4 6.1 C 15.4 6.1 15.4 6.1 15.4 6.1 Z M 20.4 4.8 C 20.4 4.7 20.4 4.7 20.4 4.8 C 20.4 4.8 20.4 4.8 20.4 4.8 Z M 16.5 6.3 C 16.4 6.2 16.4 6.2 16.5 6.3 C 16.5 6.3 16.5 6.3 16.5 6.3 Z M 23.8 3.9 C 23.8 3.9 23.8 3.9 23.8 3.9 C 23.8 3.9 23.8 3.9 23.8 3.9 Z M 20.5 6.7 C 20.5 6.7 20.5 6.7 20.5 6.7 C 20.5 6.7 20.5 6.7 20.5 6.7 Z M 23.1 6.3 C 23.1 6.2 23.1 6.2 23.1 6.3 C 23.1 6.3 23.1 6.3 23.1 6.3 Z M 20.0 6.5 C 18.8 6.6 21.7 5.6 20.0 6.5 C 20.0 6.5 20.0 6.5 20.0 6.5 Z M 26.3 3.7 C 26.3 3.7 26.3 3.7 26.3 3.7 C 26.3 3.7 26.3 3.7 26.3 3.7 Z M 23.2 5.7 C 23.2 5.7 23.2 5.7 23.2 5.7 C 21.5 6.4 24.7 4.5 23.4 5.6 C 23.3 5.6 23.3 5.7 23.2 5.7 M 20.4 9.7 C 19.8 9.8 21.4 9.1 20.4 9.7 M 24.8 9.0 C 24.9 8.9 24.9 8.9 24.8 9.0 C 24.8 9.0 24.8 9.0 24.8 9.0 Z M 24.7 8.7 C 24.7 8.6 24.7 8.6 24.7 8.7 C 24.7 8.7 24.7 8.7 24.7 8.7 Z M 19.7 10.6 C 19.7 10.6 19.7 10.6 19.7 10.6 C 19.7 10.6 19.7 10.6 19.7 10.6 Z M 26.2 8.0 C 26.3 7.9 26.3 7.9 26.2 8.0 C 26.2 8.0 26.2 8.0 26.2 8.0 Z M 21.0 6.6 C 21.0 6.6 21.0 6.6 21.0 6.6 C 21.0 6.6 21.0 6.6 21.0 6.6 Z M 15.9 6.7 C 15.9 6.6 15.9 6.6 15.9 6.7 C 15.9 6.7 15.9 6.7 15.9 6.7 Z M 21.8 13.9 C 21.9 13.8 21.9 13.8 21.8 13.9 C 21.8 13.9 21.8 13.9 21.8 13.9 Z M 21.9 5.5 C 21.9 5.5 21.9 5.5 21.9 5.5 C 21.9 5.5 21.9 5.5 21.9 5.5 Z M 24.0 10.2 C 24.1 10.1 24.1 10.1 24.0 10.2 C 24.0 10.2 24.0 10.2 24.0 10.2 Z M 22.0 5.8 C 22.0 5.7 22.0 5.7 22.0 5.8 C 22.0 5.8 22.0 5.8 22.0 5.8 Z M 24.1 2.6 C 24.1 2.5 24.1 2.5 24.1 2.6 C 24.1 2.6 24.1 2.6 24.1 2.6 Z M 22.3 1.9 C 22.3 1.9 22.3 1.9 22.3 1.9 C 22.3 1.9 22.3 1.9 22.3 1.9 Z M 22.1 4.5 C 22.1 4.5 22.1 4.5 22.1 4.5 C 22.1 4.5 22.1 4.5 22.1 4.5 Z M 22.1 11.3 C 19.3 14.4 22.7 9.3 22.1 11.3 M 21.8 4.3 C 23.7 4.5 19.1 5.3 21.8 4.3 C 21.2 4.5 21.7 4.3 21.8 4.3 M 14.9 6.6 C 15.6 5.6 15.6 4.6 15.2 3.5 C 14.6 3.0 14.8 5.0 14.6 3.3 C 15.9 3.0 13.6 0.8 14.1 3.0 C 12.5 3.3 13.5 1.6 12.6 2.4 C 10.8 2.6 11.4 2.0 9.9 2.1 C 10.0 3.3 8.6 1.5 9.1 2.7 C 8.9 1.4 7.9 3.0 7.3 2.5 C 8.0 1.7 2.1 2.4 6.1 2.8 C 5.5 3.4 4.3 2.4 3.6 2.2 C 3.9 2.6 2.8 2.4 1.8 2.2 C 1.8 2.5 1.9 2.9 2.6 3.5 C 2.8 3.5 2.7 3.2 3.1 3.4 C 3.7 3.6 3.3 4.0 3.3 4.0 C 4.0 4.6 6.1 7.0 3.0 4.0 C 2.0 3.4 4.3 5.8 3.4 5.3 C 4.3 7.0 5.5 6.7 4.5 6.7 C 5.1 7.9 5.5 8.8 5.8 8.9 C 6.0 9.5 5.1 9.3 6.4 10.3 C 5.4 11.3 10.3 12.4 7.1 11.9 C 8.2 12.5 6.2 12.4 8.2 12.8 C 7.0 12.1 8.0 15.1 8.7 14.0 C 9.4 14.4 8.0 16.0 9.7 15.9 C 11.5 16.6 12.8 16.6 13.5 15.5 C 12.4 15.5 14.1 14.6 12.6 15.1 C 12.4 16.0 10.8 13.1 11.9 13.9 C 14.4 14.5 9.6 12.0 11.1 12.0 C 10.3 12.2 8.5 9.5 10.9 11.0 C 10.9 10.7 9.8 10.2 10.8 10.3 C 11.3 11.5 8.3 8.7 9.7 9.4 C 10.6 10.0 10.2 8.4 9.1 8.0 C 6.4 7.2 9.4 7.8 8.0 6.8 C 6.7 5.2 10.8 8.4 8.1 6.3 C 8.2 6.3 8.1 6.2 8.1 6.0 C 8.7 6.1 9.2 6.2 9.1 6.5 C 8.4 6.3 6.8 4.3 9.3 6.0 C 9.3 6.9 11.5 6.5 10.5 6.0 C 6.7 5.1 12.2 5.0 11.0 5.9 C 12.7 6.8 11.0 6.2 11.9 5.8 C 11.3 5.3 12.1 4.8 12.5 5.9 C 13.6 7.5 11.7 3.8 13.7 5.9 C 14.1 6.9 15.2 5.2 14.7 6.3 C 14.7 6.4 14.9 6.6 14.9 6.6 M 14.5 6.4 C 14.6 6.0 14.8 6.8 14.5 6.4 M 14.6 6.0 C 14.6 6.1 14.6 6.1 14.6 6.0 C 14.6 6.0 14.6 6.0 14.6 6.0 Z M 12.1 5.8 C 12.1 5.8 12.1 5.8 12.1 5.8 C 12.1 5.8 12.1 5.8 12.1 5.8 Z M 5.5 1.8 C 5.6 1.9 5.6 1.9 5.5 1.8 C 5.5 1.8 5.5 1.8 5.5 1.8 Z M 10.3 5.7 C 10.3 5.7 10.3 5.7 10.3 5.7 C 10.3 5.7 10.3 5.7 10.3 5.7 Z M 12.8 5.5 C 12.8 5.5 12.8 5.5 12.8 5.5 C 12.8 5.5 12.8 5.5 12.8 5.5 Z M 11.0 6.3 C 10.3 5.7 12.0 6.7 11.1 6.4 C 11.1 6.3 11.2 6.3 11.0 6.3 M 9.5 6.5 C 9.3 6.4 9.3 6.4 9.5 6.5 M 4.3 7.7 C 4.2 7.7 4.2 7.7 4.3 7.7 M 11.4 11.0 C 11.3 11.0 11.3 11.0 11.4 11.0 M 8.8 7.5 C 9.3 8.3 8.4 7.4 8.8 7.5 M 11.8 12.6 C 11.9 11.9 12.7 13.6 11.8 12.6 M 12.7 13.5 C 12.7 13.6 12.7 13.6 12.7 13.5 M 10.4 9.7 C 10.3 9.6 10.3 9.6 10.4 9.7 C 10.4 9.7 10.4 9.7 10.4 9.7 Z M 9.0 7.4 C 9.1 6.9 10.3 8.8 9.0 7.4 M 12.2 6.4 C 12.0 6.7 11.6 5.6 12.2 6.4 M 12.9 6.0 C 12.9 6.0 12.9 6.0 12.9 6.0 C 12.9 6.0 12.9 6.0 12.9 6.0 Z M 11.2 11.2 C 11.1 11.2 11.1 11.2 11.2 11.2 C 11.2 11.2 11.2 11.2 11.2 11.2 Z M 11.8 12.3 C 11.8 12.2 11.8 12.2 11.8 12.3 C 11.8 12.3 11.8 12.3 11.8 12.3 Z M 7.0 12.5 C 7.0 12.4 7.0 12.4 7.0 12.5 C 7.0 12.5 7.0 12.5 7.0 12.5 Z M 10.9 4.2 C 11.9 4.5 11.2 5.6 10.5 4.6 C 10.0 4.1 10.8 4.3 10.9 4.2 M 6.5 5.6 C 4.2 4.4 9.5 6.8 6.5 5.6 M 11.5 13.3 C 9.6 13.5 12.7 12.9 11.5 13.3 M 12.6 14.8 C 12.4 15.1 11.0 12.1 12.7 14.3 C 13.2 14.6 12.8 14.7 12.6 14.8 M 8.3 5.8 C 6.8 5.0 9.8 6.2 8.3 5.8 M 5.9 7.7 C 6.9 8.4 8.1 9.7 6.6 8.7 C 4.9 8.0 5.0 6.9 5.9 7.7 M 14.1 5.5 C 14.0 6.9 13.8 4.4 14.1 5.5 M 11.3 5.4 C 11.4 5.5 11.4 5.5 11.3 5.4 C 11.3 5.4 11.3 5.4 11.3 5.4 Z M 10.5 5.6 C 10.3 5.5 10.3 5.5 10.5 5.6 M 14.1 6.7 C 14.0 6.6 14.0 6.6 14.1 6.7 M 8.0 8.6 C 7.8 8.6 7.8 8.6 8.0 8.6 M 8.1 7.0 C 6.7 7.0 7.4 6.2 8.1 7.0 M 4.9 3.1 C 3.5 2.5 5.8 3.0 4.9 3.1 M 9.8 9.1 C 8.3 9.0 7.4 7.2 9.8 9.1 M 8.1 6.6 C 8.1 6.7 8.1 6.7 8.1 6.6 C 8.1 6.6 8.1 6.6 8.1 6.6 Z M 5.9 7.9 C 5.9 7.9 5.9 7.9 5.9 7.9 C 5.9 7.9 5.9 7.9 5.9 7.9 Z M 6.2 8.3 C 6.1 8.2 6.1 8.2 6.2 8.3 C 6.2 8.3 6.2 8.3 6.2 8.3 Z M 10.4 10.0 C 10.4 10.0 10.4 10.0 10.4 10.0 C 10.4 10.0 10.4 10.0 10.4 10.0 Z M 11.1 2.6 C 9.8 2.5 11.9 2.4 11.1 2.6 C 11.1 2.6 11.1 2.6 11.1 2.6 Z M 10.3 6.3 C 7.9 5.3 10.1 5.3 10.3 6.3 C 10.3 6.3 10.3 6.3 10.3 6.3 Z M 6.7 4.7 C 6.6 4.6 6.6 4.6 6.7 4.7 C 6.7 4.7 6.7 4.7 6.7 4.7 Z M 10.7 9.2 C 10.6 9.2 10.6 9.2 10.7 9.2 C 10.7 9.2 10.7 9.2 10.7 9.2 Z M 10.4 2.5 C 10.3 2.4 10.3 2.4 10.4 2.5 C 10.4 2.5 10.4 2.5 10.4 2.5 Z M 10.6 11.7 C 10.5 11.7 10.5 11.7 10.6 11.7 C 10.6 11.7 10.6 11.7 10.6 11.7 Z M 4.3 5.3 C 5.3 6.0 3.8 5.1 4.3 5.3 C 4.3 5.3 4.3 5.3 4.3 5.3 Z M 5.0 6.7 C 5.1 6.7 5.1 6.7 5.0 6.7 C 5.0 6.7 5.0 6.7 5.0 6.7 Z M 13.0 13.8 C 13.0 13.8 13.0 13.8 13.0 13.8 C 13.0 13.8 13.0 13.8 13.0 13.8 Z M 5.2 9.5 C 5.3 9.5 5.3 9.5 5.2 9.5 C 5.2 9.5 5.2 9.5 5.2 9.5 Z M 7.8 11.3 C 7.8 11.3 7.8 11.3 7.8 11.3 C 7.8 11.3 7.8 11.3 7.8 11.3 Z M 9.9 9.6 C 10.8 10.8 8.9 9.0 9.9 9.6 C 9.9 9.6 9.9 9.6 9.9 9.6 Z M 10.0 14.6 C 10.0 14.7 10.0 14.7 10.0 14.6 C 10.0 14.6 10.0 14.6 10.0 14.6 Z M 12.4 15.5 C 12.3 15.6 12.3 15.6 12.4 15.5 C 12.4 15.5 12.4 15.5 12.4 15.5 Z M 13.6 15.9 C 13.6 16.0 13.6 16.0 13.6 15.9 C 13.6 15.9 13.6 15.9 13.6 15.9 Z M 8.6 3.8 C 8.7 3.9 8.7 3.9 8.6 3.8 C 8.6 3.8 8.6 3.8 8.6 3.8 Z M 11.8 6.6 C 11.8 6.6 11.8 6.6 11.8 6.6 C 11.8 6.6 11.8 6.6 11.8 6.6 Z M 10.8 6.7 C 10.8 6.7 10.8 6.7 10.8 6.7 C 10.8 6.7 10.8 6.7 10.8 6.7 Z M 7.4 2.2 C 7.4 2.2 7.4 2.2 7.4 2.2 C 7.4 2.2 7.4 2.2 7.4 2.2 Z M 6.9 6.9 C 6.9 6.9 6.9 6.9 6.9 6.9 C 6.9 6.9 6.9 6.9 6.9 6.9 Z M 5.5 6.6 C 5.5 6.6 5.5 6.6 5.5 6.6 C 5.5 6.6 5.5 6.6 5.5 6.6 Z M 2.3 3.8 C 2.3 3.8 2.3 3.8 2.3 3.8 C 2.3 3.8 2.3 3.8 2.3 3.8 Z M 4.3 6.4 C 4.3 6.4 4.3 6.4 4.3 6.4 C 4.3 6.4 4.3 6.4 4.3 6.4 Z M 13.8 2.7 C 13.8 2.7 13.8 2.7 13.8 2.7 C 13.8 2.7 13.8 2.7 13.8 2.7 Z M 14.4 4.8 C 14.4 4.7 14.4 4.7 14.4 4.8 C 14.4 4.8 14.4 4.8 14.4 4.8 Z M 9.3 8.3 C 10.1 8.9 8.7 8.3 9.3 8.3 M 7.8 6.0 C 7.7 6.0 7.7 6.0 7.8 6.0 C 7.8 6.0 7.8 6.0 7.8 6.0 Z M 11.0 11.7 C 10.0 11.6 11.1 11.0 11.0 11.7 C 11.0 11.7 11.0 11.7 11.0 11.7 Z M 5.4 8.6 C 5.4 8.6 5.4 8.6 5.4 8.6 C 5.4 8.6 5.4 8.6 5.4 8.6 Z M 6.3 9.4 C 6.2 9.5 6.2 9.5 6.3 9.4 C 6.3 9.4 6.3 9.4 6.3 9.4 Z M 11.2 13.9 C 11.1 13.9 11.1 13.9 11.2 13.9 M 8.9 6.5 C 8.9 6.5 8.9 6.5 8.9 6.5 C 7.9 6.1 8.1 6.2 8.9 6.5 C 8.9 6.5 8.9 6.5 8.9 6.5 M 11.4 12.4 C 11.3 12.3 11.3 12.3 11.4 12.4 C 11.4 12.4 11.4 12.4 11.4 12.4 Z M 12.1 14.7 C 12.1 14.7 12.1 14.7 12.1 14.7 C 12.1 14.7 12.1 14.7 12.1 14.7 Z M 9.4 5.9 C 7.9 4.9 8.6 5.2 9.4 5.9 M 13.1 5.6 C 13.0 5.5 13.0 5.5 13.1 5.6 C 13.1 5.6 13.1 5.6 13.1 5.6 Z M 13.1 5.6 " fill="#FEFFFE"></path></g></svg>