<?xml version="1.0" encoding="UTF-8" standalone="no"?><svg xmlns="http://www.w3.org/2000/svg" xmlns:xlink="http://www.w3.org/1999/xlink" clip-rule="evenodd" stroke-miterlimit="10" viewBox="0 0 49 47"><desc>SVG generated by Keynote</desc><defs></defs><g transform="matrix(1.00, 0.00, -0.00, -1.00, 0.0, 47.0)"><path d="M 38.7 18.8 C 39.1 19.1 39.0 20.2 39.4 20.5 M 38.7 18.8 C 37.2 20.6 37.5 22.1 37.0 24.0 C 36.8 26.2 38.9 24.0 39.7 24.4 C 40.2 28.1 38.3 27.7 36.4 26.6 C 37.5 28.1 33.1 29.9 35.7 31.0 C 37.6 28.7 37.0 29.5 36.6 30.7 C 36.2 31.9 35.7 33.5 38.0 31.7 C 38.7 31.4 38.3 33.2 37.8 33.7 C 40.0 33.0 38.6 36.9 41.6 34.2 C 43.3 34.8 42.3 35.2 44.9 33.4 C 45.6 32.5 44.8 32.6 44.4 32.5 C 42.8 31.3 46.8 29.9 46.1 27.6 C 49.0 26.2 46.1 23.8 44.8 25.2 C 45.3 23.5 47.9 20.9 45.6 19.4 C 46.7 18.1 44.1 13.7 43.6 16.9 C 43.4 19.2 41.8 17.4 41.2 17.4 C 40.9 18.2 42.4 20.3 41.9 20.7 C 41.4 20.1 39.8 17.5 40.6 20.5 C 39.5 19.8 39.5 21.3 38.7 18.8 C 38.7 18.8 38.7 18.8 38.7 18.8 Z M 37.2 27.8 C 36.5 27.6 37.5 27.1 37.2 27.8 C 37.2 27.8 37.2 27.8 37.2 27.8 Z M 47.2 20.8 C 46.5 20.9 47.1 19.3 47.2 20.8 C 47.2 20.8 47.2 20.8 47.2 20.8 Z M 44.8 31.9 C 44.1 31.6 45.4 30.5 44.8 31.9 C 44.8 31.9 44.8 31.9 44.8 31.9 Z M 38.3 25.7 C 39.2 24.5 39.0 27.2 38.3 27.2 C 38.4 26.9 37.7 26.0 38.3 25.7 C 38.3 25.7 38.3 25.7 38.3 25.7 Z M 42.3 26.3 C 42.1 26.1 42.1 25.3 42.8 25.5 C 42.9 26.0 42.5 26.5 42.3 26.3 C 42.3 26.3 42.3 26.3 42.3 26.3 Z M 35.7 32.8 C 35.6 32.5 36.1 31.9 36.5 32.5 C 36.4 32.9 35.8 33.1 35.7 32.8 C 35.7 32.8 35.7 32.8 35.7 32.8 Z M 40.4 24.3 C 40.5 23.9 41.1 23.7 41.2 24.2 C 40.9 24.5 40.7 25.6 40.4 24.3 C 40.4 24.3 40.4 24.3 40.4 24.3 Z M 38.0 22.0 C 38.2 20.8 39.4 23.1 39.1 23.1 C 38.6 23.5 37.5 22.7 38.0 22.0 C 38.0 22.0 38.0 22.0 38.0 22.0 Z M 41.3 23.5 C 41.7 22.3 41.8 24.0 41.3 23.5 C 41.3 23.5 41.3 23.5 41.3 23.5 Z M 40.5 35.3 C 41.8 34.3 40.4 36.1 40.5 35.3 C 40.5 35.3 40.5 35.3 40.5 35.3 Z M 46.4 28.6 C 47.1 27.0 46.7 29.4 46.4 28.6 C 46.4 28.6 46.4 28.6 46.4 28.6 Z M 38.8 28.8 C 37.9 30.6 37.0 28.3 38.8 28.8 C 38.8 28.8 38.8 28.8 38.8 28.8 Z M 37.1 19.5 C 37.7 21.1 35.6 20.4 37.1 19.5 C 37.1 19.5 37.1 19.5 37.1 19.5 Z M 32.6 33.8 C 33.8 32.5 27.1 33.4 30.5 34.9 C 32.0 36.7 27.3 38.0 28.0 35.7 C 26.6 35.7 26.6 35.6 26.0 36.7 C 25.6 35.0 22.8 34.1 21.7 34.8 C 20.7 36.0 23.8 35.4 21.6 36.5 C 17.5 36.1 21.8 38.2 19.4 39.5 C 19.2 39.4 19.4 38.5 18.8 38.9 C 18.1 40.5 20.9 42.5 19.1 43.4 C 20.1 43.3 24.2 45.8 22.5 44.1 C 22.0 42.4 27.4 46.0 26.8 43.4 C 28.3 44.5 29.4 42.5 31.2 43.6 C 32.4 43.6 31.9 42.2 31.6 41.9 C 31.1 40.8 34.0 44.1 34.6 41.4 C 35.0 41.9 39.1 39.3 35.5 40.2 C 36.5 39.9 41.1 37.1 37.5 36.9 C 34.0 38.3 38.4 33.0 35.5 35.2 C 33.1 36.7 33.0 37.2 33.9 35.0 C 34.4 34.8 36.5 32.9 34.0 33.5 C 33.8 34.1 32.7 34.5 32.6 33.8 C 32.6 33.8 32.6 33.8 32.6 33.8 Z M 35.0 36.4 C 33.7 37.5 34.4 35.8 35.0 36.4 C 35.0 36.4 35.0 36.4 35.0 36.4 Z M 31.1 44.2 C 29.1 44.9 30.7 43.4 31.1 44.2 C 31.1 44.2 31.1 44.2 31.1 44.2 Z M 28.7 34.8 C 28.3 35.7 27.4 33.3 28.7 34.8 C 28.7 34.8 28.7 34.8 28.7 34.8 Z M 33.6 41.2 C 33.5 41.2 33.8 40.8 34.0 40.5 C 34.0 40.6 33.7 41.1 33.6 41.2 C 33.6 41.2 33.6 41.2 33.6 41.2 Z M 26.6 35.3 C 24.9 36.7 26.0 33.4 26.6 35.3 C 26.6 35.3 26.6 35.3 26.6 35.3 Z M 22.5 37.6 C 21.9 40.1 20.3 36.8 22.5 37.6 C 22.5 37.6 22.5 37.6 22.5 37.6 Z M 25.8 43.3 C 26.3 42.7 26.3 43.6 25.8 43.3 C 25.8 43.3 25.8 43.3 25.8 43.3 Z M 38.0 39.3 C 38.1 38.6 38.6 39.3 38.0 39.3 C 38.0 39.3 38.0 39.3 38.0 39.3 Z M 22.2 42.9 C 22.6 42.0 23.2 43.5 22.2 42.9 C 22.2 42.9 22.2 42.9 22.2 42.9 Z M 28.6 35.9 C 29.9 33.5 31.5 38.2 28.6 35.9 C 28.6 35.9 28.6 35.9 28.6 35.9 Z M 31.6 34.6 C 32.5 33.6 32.0 35.8 31.3 35.7 C 31.3 35.5 31.5 34.7 31.6 34.6 C 31.6 34.6 31.6 34.6 31.6 34.6 Z M 26.7 36.5 C 27.9 35.3 28.0 36.9 26.7 36.5 C 26.7 36.5 26.7 36.5 26.7 36.5 Z M 29.5 34.7 C 30.2 34.7 29.1 35.1 29.5 34.7 C 29.5 34.7 29.5 34.7 29.5 34.7 Z M 24.3 34.5 C 24.8 34.8 23.8 34.8 24.3 34.5 C 24.3 34.5 24.3 34.5 24.3 34.5 Z M 32.4 32.9 C 33.0 32.8 32.1 33.4 32.4 32.9 C 32.4 32.9 32.4 32.9 32.4 32.9 Z M 24.7 35.9 C 24.5 36.8 26.2 39.0 23.0 37.0 C 22.5 36.3 23.9 35.1 24.7 35.9 C 24.7 35.9 24.7 35.9 24.7 35.9 Z M 35.6 14.2 C 37.7 18.2 37.9 19.0 39.0 19.2 C 40.1 19.4 41.4 18.6 41.9 18.7 C 43.6 19.5 44.2 18.0 44.0 15.6 C 44.9 13.8 43.7 13.3 42.5 13.0 C 41.4 12.8 40.4 12.8 41.0 11.1 C 41.5 8.5 40.0 8.4 38.9 8.6 C 37.8 8.9 37.0 9.3 37.7 7.1 C 38.8 6.5 34.3 4.9 34.5 5.3 C 33.4 2.5 29.0 5.2 28.9 5.6 C 27.7 4.7 27.4 0.4 23.1 3.7 C 19.7 4.9 17.4 1.8 19.1 4.2 C 15.8 1.9 17.7 5.3 14.9 5.6 C 12.5 4.9 16.2 7.4 11.6 6.8 C 11.7 8.2 11.8 7.6 11.0 7.6 C 10.2 7.5 8.0 8.0 6.1 12.5 C 8.8 8.8 5.8 17.2 5.1 14.9 C 4.8 11.3 3.9 18.8 2.7 23.0 C 3.6 24.1 6.5 28.2 3.9 28.0 C 3.0 30.4 4.0 31.5 4.8 32.0 C 5.6 32.5 6.3 32.5 5.8 34.0 C 5.7 35.8 7.8 35.0 8.3 35.8 C 8.0 38.2 9.6 38.9 14.2 41.8 C 19.2 44.9 20.2 43.2 20.1 41.8 C 19.9 40.4 19.3 38.7 21.1 38.7 C 21.8 38.0 19.3 31.2 19.5 35.9 C 19.3 34.6 11.8 35.4 16.9 33.0 C 15.5 33.2 15.8 32.8 16.0 32.3 C 16.2 31.9 16.0 31.5 13.7 30.5 C 14.9 37.5 8.9 25.6 13.4 29.4 C 13.7 28.1 12.6 26.2 12.6 28.1 C 10.0 29.9 12.6 23.5 9.7 27.2 C 9.6 22.9 6.8 24.1 9.3 23.1 C 13.3 22.2 8.0 23.0 9.6 21.2 C 10.0 18.8 11.4 19.1 12.2 19.3 C 12.9 19.6 13.1 20.0 12.3 18.1 C 16.1 15.3 11.1 16.4 11.9 14.6 C 11.0 13.5 12.5 12.7 13.7 12.9 C 14.9 13.1 15.8 14.0 14.7 15.3 C 14.9 13.0 15.6 16.1 16.3 13.5 C 13.5 12.2 19.8 14.6 18.3 13.0 C 19.6 11.6 18.3 10.6 18.8 10.3 C 21.7 9.2 21.4 12.2 21.6 10.2 C 22.1 9.0 23.8 12.2 24.1 11.4 C 21.3 11.4 26.7 8.7 26.9 10.2 C 25.0 10.1 27.0 13.6 28.6 11.9 C 28.8 6.0 30.1 13.9 32.2 12.8 C 32.5 11.1 34.0 11.9 34.9 13.2 C 35.7 14.5 35.7 16.1 34.2 15.7 C 34.5 15.6 35.6 14.1 35.6 14.2 M 24.9 10.9 C 22.6 10.6 27.5 10.3 24.9 10.9 M 25.0 11.7 C 24.0 10.7 27.0 12.5 24.9 12.1 C 24.8 12.1 25.1 11.8 25.0 11.7 M 16.5 14.5 C 16.2 13.6 17.8 14.2 16.5 14.5 M 13.8 14.3 C 11.9 14.9 15.4 12.5 13.8 14.3 M 15.5 33.4 C 10.8 35.7 15.2 29.8 15.5 33.4 M 11.7 21.2 C 11.5 18.8 13.4 22.4 11.7 21.2 M 10.7 20.2 C 10.3 18.9 11.8 20.2 10.7 20.2 M 12.5 30.3 C 12.6 30.5 12.6 30.5 12.5 30.3 C 12.5 30.3 12.5 30.3 12.5 30.3 Z M 17.4 34.8 C 17.4 34.7 17.4 34.7 17.4 34.8 C 17.4 34.8 17.4 34.8 17.4 34.8 Z M 10.0 24.7 C 10.9 22.7 10.8 27.8 10.0 24.7 C 10.0 24.7 10.0 24.7 10.0 24.7 Z M 10.1 38.4 C 9.9 38.3 9.9 38.3 10.1 38.4 C 10.1 38.4 10.1 38.4 10.1 38.4 Z M 27.1 8.9 C 27.2 8.9 27.2 8.9 27.1 8.9 C 27.1 8.9 27.1 8.9 27.1 8.9 Z M 33.6 13.4 C 33.9 12.8 34.4 14.6 33.6 13.4 C 33.6 13.4 33.6 13.4 33.6 13.4 Z M 42.4 15.4 C 42.5 15.5 42.5 15.5 42.4 15.4 C 42.4 15.4 42.4 15.4 42.4 15.4 Z M 30.5 7.1 C 30.6 7.1 30.6 7.1 30.5 7.1 C 30.5 7.1 30.5 7.1 30.5 7.1 Z M 28.4 10.2 C 29.0 13.0 25.7 8.9 28.4 10.2 C 28.4 10.2 28.4 10.2 28.4 10.2 Z M 3.5 21.7 C 4.6 22.0 2.9 24.2 3.5 21.7 C 3.5 21.7 3.5 21.7 3.5 21.7 Z M 12.8 13.8 C 13.0 14.4 11.7 14.5 12.8 13.8 C 12.8 13.8 12.8 13.8 12.8 13.8 Z M 18.2 14.0 C 18.2 14.7 17.2 14.2 18.2 14.0 C 18.2 14.0 18.2 14.0 18.2 14.0 Z M 33.1 13.9 C 32.9 13.9 32.9 13.9 33.1 13.9 C 33.1 13.9 33.1 13.9 33.1 13.9 Z M 31.8 10.8 C 32.5 13.9 29.5 8.3 31.8 10.8 C 31.8 10.8 31.8 10.8 31.8 10.8 Z M 35.1 12.1 C 34.8 10.6 37.0 14.1 35.1 12.1 M 35.3 7.7 C 32.1 7.0 39.9 5.4 35.3 7.7 C 35.3 7.7 35.3 7.7 35.3 7.7 Z M 20.0 4.4 C 19.8 4.3 19.8 4.3 20.0 4.4 C 20.0 4.4 20.0 4.4 20.0 4.4 Z M 22.6 11.1 C 20.7 11.3 23.8 10.4 22.6 11.1 C 22.6 11.1 22.6 11.1 22.6 11.1 Z M 36.5 18.0 C 35.7 16.4 37.6 18.7 36.5 18.0 C 36.5 18.0 36.5 18.0 36.5 18.0 Z M 12.8 10.3 C 9.7 13.2 14.1 7.7 12.8 10.3 C 12.8 10.3 12.8 10.3 12.8 10.3 Z M 9.0 23.7 C 9.0 23.8 9.0 23.8 9.0 23.7 C 9.0 23.7 9.0 23.7 9.0 23.7 Z M 10.2 25.8 C 10.2 25.8 10.2 25.8 10.2 25.8 C 10.2 25.8 10.2 25.8 10.2 25.8 Z M 13.5 35.5 C 13.6 35.7 13.6 35.7 13.5 35.5 C 13.5 35.5 13.5 35.5 13.5 35.5 Z M 11.8 27.3 C 11.8 27.3 11.8 27.3 11.8 27.3 C 11.8 27.3 11.8 27.3 11.8 27.3 Z M 14.7 32.6 C 14.8 32.8 14.8 32.8 14.7 32.6 C 14.7 32.6 14.7 32.6 14.7 32.6 Z M 15.6 30.5 C 15.6 30.7 15.6 30.7 15.6 30.5 C 15.6 30.5 15.6 30.5 15.6 30.5 Z M 3.2 16.8 C 3.0 17.0 3.0 17.0 3.2 16.8 C 3.2 16.8 3.2 16.8 3.2 16.8 Z M 29.9 13.0 C 29.8 12.8 29.8 12.8 29.9 13.0 C 29.9 13.0 29.9 13.0 29.9 13.0 Z M 13.7 32.9 C 13.7 33.0 13.7 33.0 13.7 32.9 C 13.7 32.9 13.7 32.9 13.7 32.9 Z M 9.0 17.5 C 7.0 16.8 12.0 17.2 8.9 18.0 C 8.8 17.9 9.3 17.6 9.0 17.5 M 4.8 19.0 C 4.8 18.8 4.8 18.8 4.8 19.0 C 4.8 19.0 4.8 19.0 4.8 19.0 Z M 9.1 9.3 C 9.2 9.1 9.2 9.1 9.1 9.3 C 9.1 9.3 9.1 9.3 9.1 9.3 Z M 11.9 26.2 C 13.0 25.7 11.4 27.8 11.8 26.0 M 11.3 38.4 C 11.7 37.3 12.7 40.8 10.9 38.2 M 38.1 19.5 C 39.0 19.5 38.0 20.9 38.1 19.5 M 10.3 6.8 C 10.1 5.8 12.3 5.9 10.3 6.8 M 8.5 12.3 C 9.6 12.7 6.1 13.7 8.7 11.9 M 6.5 32.9 C 6.6 33.0 6.6 33.0 6.5 32.9 C 6.5 32.9 6.5 32.9 6.5 32.9 Z M 19.7 11.6 C 19.6 11.6 19.6 11.6 19.7 11.6 C 19.7 11.6 19.7 11.6 19.7 11.6 Z M 10.9 15.2 C 13.0 15.0 9.0 16.1 10.9 15.2 M 21.6 8.3 C 23.9 9.9 18.4 8.2 21.6 8.3 M 15.7 41.6 C 14.1 38.3 17.0 43.6 15.7 41.6 M 10.7 29.3 C 12.0 26.4 10.2 31.1 10.7 29.3 M 17.7 11.3 C 18.3 12.4 15.6 11.6 17.7 11.3 M 35.8 16.0 C 36.8 17.5 33.5 14.7 35.8 16.0 M 4.1 26.5 C 4.1 26.7 4.1 26.7 4.1 26.5 C 4.1 26.5 4.1 26.5 4.1 26.5 Z M 35.1 4.2 C 35.0 4.1 35.0 4.1 35.1 4.2 C 35.1 4.2 35.1 4.2 35.1 4.2 Z M 21.0 35.3 C 21.1 35.4 21.1 35.4 21.0 35.3 C 21.0 35.3 21.0 35.3 21.0 35.3 Z M 9.2 28.5 C 9.1 28.7 9.1 28.7 9.2 28.5 C 9.2 28.5 9.2 28.5 9.2 28.5 Z M 17.9 33.7 C 17.9 33.9 17.9 33.9 17.9 33.7 C 17.9 33.7 17.9 33.7 17.9 33.7 Z M 6.5 21.9 C 6.4 21.9 6.4 21.9 6.5 21.9 C 6.5 21.9 6.5 21.9 6.5 21.9 Z M 12.7 21.6 C 12.6 21.6 12.6 21.6 12.7 21.6 C 12.7 21.6 12.7 21.6 12.7 21.6 Z M 13.0 15.2 C 12.9 15.2 12.9 15.2 13.0 15.2 C 13.0 15.2 13.0 15.2 13.0 15.2 Z M 12.0 23.9 C 12.5 27.0 9.9 22.4 12.0 23.9 C 12.0 23.9 12.0 23.9 12.0 23.9 Z M 7.9 15.7 C 7.8 15.8 7.8 15.8 7.9 15.7 C 7.9 15.7 7.9 15.7 7.9 15.7 Z M 11.9 17.3 C 12.2 20.3 8.8 16.9 11.9 17.3 M 21.0 12.2 C 20.6 13.3 20.3 10.9 21.0 12.2 M 25.2 3.8 C 25.2 3.7 25.2 3.7 25.2 3.8 C 25.2 3.8 25.2 3.8 25.2 3.8 Z M 23.6 4.4 C 23.4 4.4 23.4 4.4 23.6 4.4 C 23.6 4.4 23.6 4.4 23.6 4.4 Z M 23.5 12.1 C 23.4 12.1 23.4 12.1 23.5 12.1 C 23.5 12.1 23.5 12.1 23.5 12.1 Z M 23.2 2.2 C 23.0 2.1 23.0 2.1 23.2 2.2 C 23.2 2.2 23.2 2.2 23.2 2.2 Z M 12.8 20.4 C 12.8 20.5 12.8 20.5 12.8 20.4 C 12.8 20.4 12.8 20.4 12.8 20.4 Z M 19.8 33.6 C 19.9 33.7 19.9 33.7 19.8 33.6 C 19.8 33.6 19.8 33.6 19.8 33.6 Z M 40.1 11.3 C 40.1 11.1 40.1 11.1 40.1 11.3 C 40.1 11.3 40.1 11.3 40.1 11.3 Z M 10.1 21.7 C 10.0 21.7 10.0 21.7 10.1 21.7 C 10.1 21.7 10.1 21.7 10.1 21.7 Z M 29.1 4.6 C 29.1 4.5 29.1 4.5 29.1 4.6 C 29.1 4.6 29.1 4.6 29.1 4.6 Z M 10.8 20.6 C 10.8 20.6 10.8 20.6 10.8 20.6 C 10.8 20.6 10.8 20.6 10.8 20.6 Z M 3.5 25.7 C 3.5 25.8 3.5 25.8 3.5 25.7 C 3.5 25.7 3.5 25.7 3.5 25.7 Z M 4.1 32.4 C 4.1 32.5 4.1 32.5 4.1 32.4 C 4.1 32.4 4.1 32.4 4.1 32.4 Z M 7.7 24.9 C 7.6 25.0 7.6 25.0 7.7 24.9 C 7.7 24.9 7.7 24.9 7.7 24.9 Z M 30.3 7.6 C 39.1 12.4 22.6 6.2 30.3 7.6 M 7.4 26.5 C 6.6 20.0 10.7 31.2 7.4 26.5 C 8.2 27.1 7.5 26.6 7.4 26.5 " fill="#FEFFFE"></path></g></svg>