<?xml version="1.0" encoding="UTF-8" standalone="no"?><svg xmlns="http://www.w3.org/2000/svg" xmlns:xlink="http://www.w3.org/1999/xlink" clip-rule="evenodd" stroke-miterlimit="10" viewBox="0 0 29 30"><desc>SVG generated by Keynote</desc><defs></defs><g transform="matrix(1.00, 0.00, -0.00, -1.00, 0.0, 30.0)"><path d="M 12.3 24.6 C 12.2 24.7 11.5 24.5 11.4 24.7 M 12.3 24.6 C 11.4 23.7 10.4 23.6 9.0 23.4 C 7.6 23.4 9.3 24.3 9.2 24.7 C 7.3 25.0 7.2 24.4 7.3 23.4 C 6.7 24.0 4.5 22.9 5.0 24.1 C 8.1 24.1 2.8 24.4 5.5 25.1 C 5.8 25.3 5.0 25.6 4.7 25.6 C 5.7 26.1 4.1 26.7 5.7 27.1 C 5.9 27.9 5.6 27.5 6.7 28.2 C 7.2 28.2 7.0 28.0 6.9 27.8 C 6.9 26.9 8.2 28.3 9.0 27.7 C 10.1 28.9 10.5 27.5 9.7 27.0 C 10.5 27.2 11.8 28.4 12.3 27.5 C 12.9 28.1 14.9 27.7 13.3 27.0 C 12.3 26.5 13.1 26.2 13.1 25.9 C 12.7 25.6 11.6 26.0 11.4 25.8 C 11.7 25.6 13.0 25.1 11.4 25.2 C 11.8 24.8 10.9 24.5 12.3 24.6 C 12.3 24.6 12.3 24.6 12.3 24.6 Z M 6.9 23.9 C 6.9 23.6 7.4 23.9 6.9 23.9 C 6.9 23.9 6.9 23.9 6.9 23.9 Z M 11.8 28.1 C 11.7 27.8 12.4 28.2 11.8 28.1 C 11.8 28.1 11.8 28.1 11.8 28.1 Z M 7.2 27.8 C 7.1 27.5 7.8 27.8 7.2 27.8 C 7.2 27.8 7.2 27.8 7.2 27.8 Z M 8.3 24.1 C 9.2 24.4 7.7 24.6 7.5 24.3 C 7.7 24.3 8.0 23.8 8.3 24.1 C 8.3 24.1 8.3 24.1 8.3 24.1 Z M 8.8 25.9 C 8.9 25.8 9.2 25.8 9.3 26.1 C 9.0 26.2 8.8 26.1 8.8 25.9 C 8.8 25.9 8.8 25.9 8.8 25.9 Z M 4.4 24.6 C 4.4 24.5 4.8 24.5 4.7 24.8 C 4.5 24.9 4.3 24.8 4.4 24.6 C 4.4 24.6 4.4 24.6 4.4 24.6 Z M 9.4 24.9 C 9.7 25.0 9.8 25.3 9.6 25.3 C 9.4 25.2 8.8 25.1 9.4 24.9 C 9.4 24.9 9.4 24.9 9.4 24.9 Z M 10.4 23.9 C 11.1 24.0 9.9 24.5 9.9 24.4 C 9.6 24.1 10.0 23.6 10.4 23.9 C 10.4 23.9 10.4 23.9 10.4 23.9 Z M 10.0 25.4 C 10.6 25.5 9.8 25.6 10.0 25.4 C 10.0 25.4 10.0 25.4 10.0 25.4 Z M 5.0 27.0 C 5.7 27.1 4.8 27.2 5.0 27.0 C 5.0 27.0 5.0 27.0 5.0 27.0 Z M 8.7 28.0 C 9.4 28.1 8.4 28.2 8.7 28.0 C 8.7 28.0 8.7 28.0 8.7 28.0 Z M 6.9 24.7 C 5.9 24.7 6.6 23.9 6.9 24.7 C 6.9 24.7 6.9 24.7 6.9 24.7 Z M 11.9 23.8 C 11.0 23.8 11.5 23.0 11.9 23.8 C 11.9 23.8 11.9 23.8 11.9 23.8 Z M 5.9 24.5 C 6.0 25.4 7.1 22.1 5.8 23.2 C 4.8 23.5 4.9 21.0 5.9 21.8 C 6.0 21.1 6.0 21.1 5.5 20.6 C 6.3 20.7 6.7 19.2 6.3 18.5 C 5.6 17.9 6.2 19.5 5.5 18.4 C 5.3 16.1 4.8 18.3 3.9 17.1 C 3.9 17.0 4.4 17.1 4.1 16.8 C 3.3 16.4 2.8 17.6 2.2 16.7 C 2.3 17.1 1.5 18.7 2.2 18.1 C 2.9 18.1 1.2 19.8 2.5 20.0 C 1.9 20.4 2.7 21.2 2.0 21.6 C 1.9 22.1 2.5 22.2 2.7 22.1 C 3.2 22.2 1.4 22.5 2.4 23.3 C 2.1 23.3 2.2 25.3 2.7 23.9 C 2.6 24.3 2.3 26.5 3.4 25.4 C 3.9 23.9 4.5 26.9 4.6 25.2 C 4.7 23.9 4.5 23.6 5.1 24.6 C 5.0 24.9 5.1 26.4 5.6 25.2 C 5.5 24.9 5.6 24.3 5.9 24.5 C 5.9 24.5 5.9 24.5 5.9 24.5 Z M 4.3 24.7 C 4.2 23.9 4.7 24.6 4.3 24.7 C 4.3 24.7 4.3 24.7 4.3 24.7 Z M 1.8 21.5 C 1.7 20.6 2.2 21.5 1.8 21.5 C 1.8 21.5 1.8 21.5 1.8 21.5 Z M 6.2 22.4 C 5.8 21.9 7.0 22.1 6.2 22.4 C 6.2 22.4 6.2 22.4 6.2 22.4 Z M 2.7 23.0 C 2.7 22.9 2.8 23.2 2.9 23.3 C 2.8 23.3 2.7 23.1 2.7 23.0 C 2.7 23.0 2.7 23.0 2.7 23.0 Z M 6.1 21.2 C 5.6 20.0 7.0 21.2 6.1 21.2 C 6.1 21.2 6.1 21.2 6.1 21.2 Z M 5.1 18.7 C 3.9 18.2 5.3 17.7 5.1 18.7 C 5.1 18.7 5.1 18.7 5.1 18.7 Z M 2.6 19.6 C 2.8 19.9 2.4 19.8 2.6 19.6 C 2.6 19.6 2.6 19.6 2.6 19.6 Z M 2.4 24.9 C 2.6 25.1 2.2 25.1 2.4 24.9 C 2.4 24.9 2.4 24.9 2.4 24.9 Z M 2.7 18.1 C 3.1 18.3 2.4 18.5 2.7 18.1 C 2.7 18.1 2.7 18.1 2.7 18.1 Z M 5.7 22.1 C 6.6 23.2 4.4 23.1 5.7 22.1 C 5.7 22.1 5.7 22.1 5.7 22.1 Z M 5.8 23.8 C 6.0 24.5 5.2 23.6 5.4 23.4 C 5.4 23.4 5.7 23.7 5.8 23.8 C 5.8 23.8 5.8 23.8 5.8 23.8 Z M 5.6 21.0 C 6.0 21.8 5.3 21.6 5.6 21.0 C 5.6 21.0 5.6 21.0 5.6 21.0 Z M 6.1 22.8 C 6.0 23.1 6.0 22.5 6.1 22.8 C 6.1 22.8 6.1 22.8 6.1 22.8 Z M 6.5 20.0 C 6.4 20.3 6.4 19.7 6.5 20.0 C 6.5 20.0 6.5 20.0 6.5 20.0 Z M 6.3 24.7 C 6.1 25.0 6.1 24.4 6.3 24.7 C 6.3 24.7 6.3 24.7 6.3 24.7 Z M 5.9 20.1 C 5.5 19.9 4.6 20.6 5.4 19.1 C 5.7 18.9 6.3 19.8 5.9 20.1 C 5.9 20.1 5.9 20.1 5.9 20.1 Z M 15.4 24.6 C 10.6 23.3 12.5 25.6 12.4 26.0 C 12.0 26.6 12.8 27.0 14.0 27.4 C 15.7 28.8 14.8 25.9 16.3 27.4 C 18.8 29.2 16.8 25.7 18.6 27.7 C 18.7 28.2 20.4 27.8 20.2 27.7 C 21.9 28.6 21.9 26.9 21.8 26.8 C 22.7 27.0 24.2 28.8 25.1 27.5 C 25.4 27.3 25.8 27.4 26.1 27.5 C 26.4 26.8 27.1 27.2 26.2 26.7 C 27.6 26.6 25.8 25.5 26.3 24.7 C 27.0 24.3 25.1 23.8 26.6 23.3 C 25.4 21.9 27.3 24.6 26.5 19.8 C 26.4 21.7 25.6 17.6 26.4 18.6 C 27.2 20.3 26.1 16.5 26.6 14.7 C 26.1 14.2 25.1 12.2 26.2 12.3 C 27.5 9.9 25.4 10.6 26.5 9.4 C 27.0 8.5 26.0 8.7 26.1 8.3 C 26.9 7.1 26.3 6.8 26.6 4.2 C 26.7 2.7 26.6 2.0 26.4 1.9 C 25.7 2.2 25.4 2.6 25.2 3.1 C 25.0 3.4 24.8 3.8 24.3 3.9 C 24.2 4.0 24.1 4.0 23.9 4.1 C 23.7 4.2 23.6 4.5 23.4 4.8 C 22.7 6.1 21.7 7.7 23.2 5.9 C 22.6 6.7 24.7 8.6 22.5 8.3 C 23.4 9.0 21.6 8.8 22.6 10.3 C 24.2 5.8 23.2 14.0 22.5 11.0 C 22.0 11.6 22.1 12.8 22.5 11.8 C 23.9 11.0 21.9 14.1 23.6 12.5 C 23.1 14.7 24.6 14.1 23.6 14.7 C 21.7 15.2 24.0 14.6 23.5 15.8 C 23.5 18.3 21.4 16.0 22.8 17.7 C 21.8 19.5 23.6 18.5 23.8 19.5 C 25.1 20.3 22.8 21.4 22.7 19.5 C 23.3 20.9 22.0 19.4 22.9 20.9 C 24.0 20.8 21.6 21.3 22.6 21.7 C 22.9 22.9 23.6 23.0 23.6 23.3 C 23.6 24.9 22.4 23.3 23.3 24.5 C 23.4 24.6 23.4 24.6 23.4 24.7 C 23.0 24.7 21.4 23.6 21.5 23.9 C 23.2 24.0 21.3 25.2 20.6 24.5 C 21.5 24.5 18.8 23.0 18.9 23.9 C 21.9 26.5 17.1 23.3 17.0 24.2 C 18.7 25.6 13.6 24.3 14.8 23.7 C 14.8 23.8 15.4 24.6 15.4 24.6 M 21.2 24.1 C 22.7 24.3 20.1 24.4 21.2 24.1 M 20.8 23.8 C 21.9 24.2 19.3 23.4 20.8 23.6 C 20.8 23.6 20.7 23.7 20.8 23.8 M 22.4 20.4 C 22.8 20.8 22.2 20.9 22.4 20.4 M 23.3 19.9 C 23.7 19.2 23.4 21.1 23.3 19.9 M 23.0 8.5 C 25.2 8.4 21.8 10.3 23.0 8.5 M 22.6 15.9 C 22.9 17.3 21.7 15.4 22.6 15.9 M 23.1 16.4 C 23.5 17.1 22.6 16.4 23.1 16.4 M 23.0 10.6 C 23.1 10.5 23.1 10.5 23.0 10.6 C 23.0 10.6 23.0 10.6 23.0 10.6 Z M 23.1 7.2 C 23.0 7.2 23.0 7.2 23.1 7.2 C 23.1 7.2 23.1 7.2 23.1 7.2 Z M 23.2 13.8 C 22.7 14.9 23.0 12.2 23.2 13.8 C 23.2 13.8 23.2 13.8 23.2 13.8 Z M 26.3 6.8 C 26.4 6.9 26.4 6.9 26.3 6.8 C 26.3 6.8 26.3 6.8 26.3 6.8 Z M 21.0 25.1 C 21.0 25.1 21.0 25.1 21.0 25.1 C 21.0 25.1 21.0 25.1 21.0 25.1 Z M 16.3 24.3 C 16.5 24.6 15.4 24.1 16.3 24.3 C 16.3 24.3 16.3 24.3 16.3 24.3 Z M 14.1 26.8 C 14.1 26.8 14.1 26.8 14.1 26.8 C 14.1 26.8 14.1 26.8 14.1 26.8 Z M 20.5 26.2 C 20.5 26.3 20.5 26.3 20.5 26.2 C 20.5 26.2 20.5 26.2 20.5 26.2 Z M 19.9 24.7 C 18.3 23.5 21.7 25.0 19.9 24.7 C 19.9 24.7 19.9 24.7 19.9 24.7 Z M 26.2 15.3 C 25.7 15.2 26.4 14.1 26.2 15.3 C 26.2 15.3 26.2 15.3 26.2 15.3 Z M 23.8 20.0 C 23.5 19.7 23.9 19.5 23.8 20.0 C 23.8 20.0 23.8 20.0 23.8 20.0 Z M 22.2 21.1 C 21.9 20.8 22.3 20.7 22.2 21.1 C 22.2 21.1 22.2 21.1 22.2 21.1 Z M 16.1 24.0 C 16.2 23.9 16.2 23.9 16.1 24.0 C 16.1 24.0 16.1 24.0 16.1 24.0 Z M 18.2 24.9 C 16.4 23.8 20.3 25.5 18.2 24.9 C 18.2 24.9 18.2 24.9 18.2 24.9 Z M 16.6 25.2 C 17.5 25.6 15.1 25.0 16.6 25.2 M 18.8 26.9 C 19.9 26.4 18.8 28.9 18.8 26.9 C 18.8 26.9 18.8 26.9 18.8 26.9 Z M 26.0 26.9 C 26.1 26.8 26.1 26.8 26.0 26.9 C 26.0 26.9 26.0 26.9 26.0 26.9 Z M 22.5 24.1 C 22.7 24.1 22.8 24.1 22.8 24.1 C 22.8 24.1 22.9 24.1 22.9 24.2 C 22.8 24.2 22.2 24.3 22.5 24.1 C 22.5 24.1 22.5 24.1 22.5 24.1 Z M 13.0 23.9 C 14.1 23.9 12.4 24.1 13.0 23.9 C 13.0 23.9 13.0 23.9 13.0 23.9 Z M 24.9 21.8 C 24.8 19.7 25.5 23.4 24.9 21.8 C 24.9 21.8 24.9 21.8 24.9 21.8 Z M 23.7 14.4 C 23.7 14.4 23.7 14.4 23.7 14.4 C 23.7 14.4 23.7 14.4 23.7 14.4 Z M 23.2 13.3 C 23.2 13.2 23.2 13.2 23.2 13.3 C 23.2 13.3 23.2 13.3 23.2 13.3 Z M 24.3 7.7 C 24.4 7.6 24.4 7.6 24.3 7.7 C 24.3 7.7 24.3 7.7 24.3 7.7 Z M 22.7 12.4 C 22.7 12.3 22.7 12.3 22.7 12.4 C 22.7 12.4 22.7 12.4 22.7 12.4 Z M 23.0 9.0 C 23.0 8.9 23.0 8.9 23.0 9.0 C 23.0 9.0 23.0 9.0 23.0 9.0 Z M 22.0 10.0 C 22.1 9.9 22.1 9.9 22.0 10.0 C 22.0 10.0 22.0 10.0 22.0 10.0 Z M 26.8 17.5 C 26.9 17.5 26.9 17.5 26.8 17.5 C 26.8 17.5 26.8 17.5 26.8 17.5 Z M 17.7 23.6 C 17.9 23.7 17.9 23.7 17.7 23.6 C 17.7 23.6 17.7 23.6 17.7 23.6 Z M 23.4 9.0 C 23.4 9.0 23.4 9.0 23.4 9.0 C 23.4 9.0 23.4 9.0 23.4 9.0 Z M 24.3 17.6 C 25.2 17.8 23.0 18.0 24.2 17.4 C 24.3 17.4 24.1 17.6 24.3 17.6 M 25.8 16.6 C 25.9 16.7 25.9 16.7 25.8 16.6 C 25.8 16.6 25.8 16.6 25.8 16.6 Z M 26.4 21.6 C 26.4 21.7 26.4 21.7 26.4 21.6 C 26.4 21.6 26.4 21.6 26.4 21.6 Z M 22.5 13.0 C 22.0 13.2 22.9 12.0 22.5 13.1 M 26.0 6.6 C 25.5 7.1 26.4 5.1 26.0 6.7 M 11.9 24.2 C 11.9 24.6 11.1 24.0 11.9 24.2 M 26.9 23.0 C 27.3 23.5 26.7 23.9 26.9 23.0 M 25.7 20.1 C 25.2 20.1 26.1 19.1 25.7 20.3 M 26.0 9.9 C 26.0 9.8 26.0 9.8 26.0 9.9 C 26.0 9.9 26.0 9.9 26.0 9.9 Z M 22.9 23.0 C 22.9 22.9 22.9 22.9 22.9 23.0 C 22.9 23.0 22.9 23.0 22.9 23.0 Z M 24.0 19.0 C 23.3 19.3 24.5 18.3 24.0 19.0 M 24.1 25.5 C 23.4 25.1 23.5 25.1 23.9 25.2 C 24.4 25.3 25.2 25.6 24.2 25.5 C 24.2 25.5 24.1 25.5 24.1 25.5 M 26.2 3.9 C 25.1 6.0 26.8 2.4 26.2 3.9 M 23.5 11.3 C 22.4 12.6 24.1 10.3 23.5 11.3 M 23.4 22.4 C 22.8 22.1 23.7 21.6 23.4 22.4 M 14.3 24.1 C 13.3 24.0 15.4 23.7 14.3 24.1 M 26.0 13.0 C 26.0 12.9 26.0 12.9 26.0 13.0 C 26.0 13.0 26.0 13.0 26.0 13.0 Z M 20.5 28.2 C 20.6 28.3 20.6 28.3 20.5 28.2 C 20.5 28.2 20.5 28.2 20.5 28.2 Z M 22.7 5.7 C 22.7 5.6 22.7 5.6 22.7 5.7 C 22.7 5.7 22.7 5.7 22.7 5.7 Z M 24.0 11.8 C 24.1 11.8 24.1 11.8 24.0 11.8 C 24.0 11.8 24.0 11.8 24.0 11.8 Z M 22.5 7.6 C 22.6 7.5 22.6 7.5 22.5 7.6 C 22.5 7.6 22.5 7.6 22.5 7.6 Z M 24.8 15.3 C 24.9 15.3 24.9 15.3 24.8 15.3 C 24.8 15.3 24.8 15.3 24.8 15.3 Z M 22.1 15.7 C 22.1 15.7 22.1 15.7 22.1 15.7 C 22.1 15.7 22.1 15.7 22.1 15.7 Z M 23.3 19.3 C 23.3 19.3 23.3 19.3 23.3 19.3 C 23.3 19.3 23.3 19.3 23.3 19.3 Z M 22.3 14.3 C 22.1 12.5 23.2 15.3 22.3 14.3 C 22.3 14.3 22.3 14.3 22.3 14.3 Z M 25.1 18.4 C 25.1 18.4 25.1 18.4 25.1 18.4 C 25.1 18.4 25.1 18.4 25.1 18.4 Z M 23.1 18.1 C 22.3 16.6 24.4 17.8 23.1 18.1 M 22.5 23.1 C 22.0 22.4 23.1 23.5 22.5 23.1 M 24.1 27.4 C 24.2 27.4 24.2 27.4 24.1 27.4 C 24.1 27.4 24.1 27.4 24.1 27.4 Z M 24.6 27.1 C 24.7 27.1 24.7 27.1 24.6 27.1 C 24.6 27.1 24.6 27.1 24.6 27.1 Z M 21.6 23.6 C 21.6 23.6 21.6 23.6 21.6 23.6 C 21.6 23.6 21.6 23.6 21.6 23.6 Z M 25.7 28.1 C 25.8 28.2 25.8 28.2 25.7 28.1 C 25.7 28.1 25.7 28.1 25.7 28.1 Z M 22.2 16.4 C 22.2 16.4 22.2 16.4 22.2 16.4 C 22.2 16.4 22.2 16.4 22.2 16.4 Z M 22.1 7.1 C 22.1 7.0 22.1 7.0 22.1 7.1 C 22.1 7.1 22.1 7.1 22.1 7.1 Z M 16.3 27.0 C 16.4 27.0 16.4 27.0 16.3 27.0 C 16.3 27.0 16.3 27.0 16.3 27.0 Z M 23.3 15.5 C 23.3 15.5 23.3 15.5 23.3 15.5 C 23.3 15.5 23.3 15.5 23.3 15.5 Z M 22.2 27.2 C 22.3 27.3 22.3 27.3 22.2 27.2 C 22.2 27.2 22.2 27.2 22.2 27.2 Z M 23.0 16.2 C 23.0 16.2 23.0 16.2 23.0 16.2 C 23.0 16.2 23.0 16.2 23.0 16.2 Z M 26.2 13.4 C 26.2 13.4 26.2 13.4 26.2 13.4 C 26.2 13.4 26.2 13.4 26.2 13.4 Z M 26.8 10.2 C 26.9 10.2 26.9 10.2 26.8 10.2 C 26.8 10.2 26.8 10.2 26.8 10.2 Z M 24.3 13.8 C 24.3 13.7 24.3 13.7 24.3 13.8 C 24.3 13.8 24.3 13.8 24.3 13.8 Z M 20.4 26.0 C 15.1 25.1 23.7 25.6 20.4 26.0 M 24.5 13.0 C 24.3 16.2 23.5 10.8 24.5 13.0 C 24.2 12.7 24.5 12.9 24.5 13.0 M 21.4 6.0 C 22.2 5.6 22.9 5.2 23.4 4.8 C 24.0 4.4 24.4 4.0 24.7 3.6 C 24.8 3.4 24.9 3.2 25.0 3.0 C 24.7 2.5 22.9 4.5 24.4 2.8 C 26.4 2.5 25.9 0.2 24.1 2.4 C 21.6 2.8 24.8 1.0 22.7 1.9 C 20.0 2.1 21.7 1.5 19.6 1.6 C 18.0 2.8 18.6 1.0 17.7 2.2 C 19.2 0.9 15.6 2.5 15.6 1.9 C 17.6 1.2 8.8 1.9 13.5 2.3 C 11.8 2.9 12.0 1.8 11.3 1.7 C 10.7 2.4 7.8 1.1 7.0 1.8 C 7.3 2.0 7.9 2.0 8.2 2.3 C 8.8 2.8 6.8 2.2 7.0 2.2 C 6.5 2.5 4.2 3.2 6.3 1.9 C 6.1 1.3 3.9 2.2 3.5 1.7 C 2.7 1.7 2.4 1.7 2.3 1.9 C 2.5 2.7 3.0 2.3 2.4 2.5 C 2.3 4.4 2.3 5.7 2.5 5.8 C 2.4 6.8 1.7 6.5 2.3 8.1 C 1.0 9.5 4.9 11.4 2.3 10.5 C 2.9 11.6 1.2 11.2 2.8 12.0 C 2.1 10.8 1.6 15.3 2.7 13.8 C 3.1 14.6 1.1 16.7 2.7 16.8 C 3.9 18.3 5.1 18.5 6.2 17.0 C 5.3 16.8 7.1 15.5 5.6 16.1 C 5.0 17.6 5.0 12.6 5.6 14.0 C 7.5 15.3 4.4 10.8 5.7 10.7 C 5.0 11.1 4.6 6.7 6.0 9.0 C 6.1 8.4 5.5 7.7 6.3 7.6 C 6.2 9.8 4.8 5.3 5.7 6.3 C 5.9 6.7 6.1 6.4 6.2 5.8 C 7.1 6.0 7.9 5.9 7.4 5.4 C 4.4 3.5 8.5 5.8 8.5 5.1 C 10.1 4.7 9.4 6.7 9.7 5.3 C 10.1 5.6 12.4 5.6 11.1 6.0 C 10.5 5.8 11.9 3.8 12.6 5.5 C 10.6 6.4 15.3 6.0 14.5 5.5 C 10.4 4.6 19.0 4.5 15.6 5.4 C 17.0 6.3 15.1 5.7 17.2 5.3 C 17.1 4.8 19.1 4.3 18.2 5.4 C 17.7 6.9 19.8 3.3 20.0 5.4 C 19.6 6.3 23.2 4.7 21.3 5.8 C 21.2 5.9 21.4 6.0 21.4 6.0 M 20.9 5.9 C 21.4 5.5 20.9 6.3 20.9 5.9 M 21.5 5.5 C 21.5 5.5 21.5 5.5 21.5 5.5 C 21.5 5.5 21.5 5.5 21.5 5.5 Z M 17.6 5.3 C 17.6 5.3 17.6 5.3 17.6 5.3 C 17.6 5.3 17.6 5.3 17.6 5.3 Z M 14.3 1.3 C 14.3 1.4 14.3 1.4 14.3 1.3 C 14.3 1.3 14.3 1.3 14.3 1.3 Z M 14.8 5.2 C 14.8 5.2 14.8 5.2 14.8 5.2 C 14.8 5.2 14.8 5.2 14.8 5.2 Z M 19.1 5.0 C 19.2 5.0 19.2 5.0 19.1 5.0 C 19.1 5.0 19.1 5.0 19.1 5.0 Z M 15.0 5.8 C 14.9 5.2 15.8 6.2 15.0 5.9 C 14.9 5.8 15.1 5.8 15.0 5.8 M 11.7 6.0 C 11.7 5.9 11.7 5.9 11.7 6.0 M 1.8 4.1 C 1.7 4.0 1.7 4.0 1.8 4.1 M 6.4 8.9 C 6.4 9.0 6.4 9.0 6.4 8.9 M 8.0 5.4 C 7.0 5.5 7.5 5.1 8.0 5.4 M 6.1 11.7 C 6.5 10.6 6.4 13.5 6.1 11.7 M 6.5 13.4 C 6.4 13.5 6.4 13.5 6.5 13.4 M 6.2 6.6 C 6.2 6.6 6.2 6.6 6.2 6.6 C 6.2 6.6 6.2 6.6 6.2 6.6 Z M 8.6 5.6 C 10.2 6.0 7.7 6.2 8.6 5.6 M 16.9 5.8 C 16.1 6.1 17.1 5.1 16.9 5.8 M 18.6 5.5 C 18.6 5.5 18.6 5.5 18.6 5.5 C 18.6 5.5 18.6 5.5 18.6 5.5 Z M 6.1 9.4 C 6.1 9.3 6.1 9.3 6.1 9.4 C 6.1 9.4 6.1 9.4 6.1 9.4 Z M 6.2 11.2 C 6.2 11.1 6.2 11.1 6.2 11.2 C 6.2 11.2 6.2 11.2 6.2 11.2 Z M 1.9 11.4 C 1.9 11.3 1.9 11.3 1.9 11.4 C 1.9 11.4 1.9 11.4 1.9 11.4 Z M 18.1 3.7 C 19.2 4.0 16.4 5.1 16.9 4.1 C 16.9 3.6 17.9 3.8 18.1 3.7 M 8.9 4.3 C 7.7 2.8 10.9 6.3 8.9 4.3 M 5.5 13.0 C 3.7 13.2 6.7 12.4 5.5 13.0 M 5.8 15.5 C 5.4 16.1 5.6 11.0 6.1 14.9 C 6.3 15.3 6.0 15.4 5.8 15.5 M 11.4 5.3 C 10.8 4.5 13.2 5.6 11.4 5.3 M 3.2 3.9 C 3.8 5.0 4.2 7.0 3.3 5.5 C 2.2 4.5 2.8 2.6 3.2 3.9 M 21.2 5.0 C 19.4 6.3 22.1 3.9 21.2 5.0 M 17.0 4.9 C 16.9 5.0 16.9 5.0 17.0 4.9 C 17.0 4.9 17.0 4.9 17.0 4.9 Z M 15.2 5.1 C 15.2 5.0 15.2 5.0 15.2 5.1 M 19.7 6.2 C 19.7 6.1 19.7 6.1 19.7 6.2 M 4.6 5.1 C 4.5 5.1 4.5 5.1 4.6 5.1 M 8.1 5.1 C 5.3 3.8 8.8 4.8 8.1 5.1 M 11.5 2.6 C 10.6 1.9 12.8 2.5 11.5 2.6 M 5.9 5.6 C 5.4 5.7 5.1 5.0 5.1 4.7 C 5.0 4.2 5.3 4.0 5.9 5.5 C 5.9 5.5 5.9 5.6 5.9 5.6 M 9.0 5.2 C 8.9 5.2 8.9 5.2 9.0 5.2 C 9.0 5.2 9.0 5.2 9.0 5.2 Z M 3.1 4.2 C 3.1 4.2 3.1 4.2 3.1 4.2 C 3.1 4.2 3.1 4.2 3.1 4.2 Z M 3.2 4.9 C 3.1 4.8 3.1 4.8 3.2 4.9 C 3.2 4.9 3.2 4.9 3.2 4.9 Z M 6.1 7.3 C 6.1 7.2 6.1 7.2 6.1 7.3 C 6.1 7.3 6.1 7.3 6.1 7.3 Z M 20.4 2.1 C 18.9 2.0 21.8 1.9 20.4 2.1 C 20.4 2.1 20.4 2.1 20.4 2.1 Z M 13.8 5.7 C 11.7 4.8 15.1 4.8 13.8 5.7 C 13.8 5.7 13.8 5.7 13.8 5.7 Z M 11.3 4.1 C 11.2 4.1 11.2 4.1 11.3 4.1 C 11.3 4.1 11.3 4.1 11.3 4.1 Z M 7.3 6.3 C 7.2 6.2 7.2 6.2 7.3 6.3 C 7.3 6.3 7.3 6.3 7.3 6.3 Z M 19.7 2.0 C 19.7 1.9 19.7 1.9 19.7 2.0 C 19.7 2.0 19.7 2.0 19.7 2.0 Z M 5.4 10.2 C 5.4 10.2 5.4 10.2 5.4 10.2 C 5.4 10.2 5.4 10.2 5.4 10.2 Z M 5.3 2.5 C 5.2 3.0 4.9 2.1 5.3 2.5 C 5.3 2.5 5.3 2.5 5.3 2.5 Z M 3.1 2.5 C 3.0 2.5 3.0 2.5 3.1 2.5 C 3.1 2.5 3.1 2.5 3.1 2.5 Z M 6.5 13.9 C 6.6 13.9 6.6 13.9 6.5 13.9 C 6.5 13.9 6.5 13.9 6.5 13.9 Z M 1.7 6.8 C 1.7 6.9 1.7 6.9 1.7 6.8 C 1.7 6.8 1.7 6.8 1.7 6.8 Z M 3.2 9.7 C 3.2 9.6 3.2 9.6 3.2 9.7 C 3.2 9.7 3.2 9.7 3.2 9.7 Z M 5.8 6.7 C 6.0 8.7 5.2 5.7 5.8 6.7 C 5.8 6.7 5.8 6.7 5.8 6.7 Z M 3.6 15.0 C 3.5 15.1 3.5 15.1 3.6 15.0 C 3.6 15.0 3.6 15.0 3.6 15.0 Z M 5.3 16.8 C 5.2 16.8 5.2 16.8 5.3 16.8 C 5.3 16.8 5.3 16.8 5.3 16.8 Z M 6.1 17.6 C 6.1 17.7 6.1 17.7 6.1 17.6 C 6.1 17.6 6.1 17.6 6.1 17.6 Z M 15.5 3.3 C 15.5 3.4 15.5 3.4 15.5 3.3 C 15.5 3.3 15.5 3.3 15.5 3.3 Z M 15.8 6.0 C 15.8 6.1 15.8 6.1 15.8 6.0 C 15.8 6.0 15.8 6.0 15.8 6.0 Z M 13.7 6.2 C 13.7 6.2 13.7 6.2 13.7 6.2 C 13.7 6.2 13.7 6.2 13.7 6.2 Z M 16.2 1.7 C 16.3 1.7 16.3 1.7 16.2 1.7 C 16.2 1.7 16.2 1.7 16.2 1.7 Z M 5.9 4.0 C 6.0 4.0 6.0 4.0 5.9 4.0 C 5.9 4.0 5.9 4.0 5.9 4.0 Z M 4.0 2.9 C 4.1 2.9 4.1 2.9 4.0 2.9 C 4.0 2.9 4.0 2.9 4.0 2.9 Z M 5.5 1.4 C 5.5 1.4 5.5 1.4 5.5 1.4 C 5.5 1.4 5.5 1.4 5.5 1.4 Z M 2.3 2.0 C 2.3 2.0 2.3 2.0 2.3 2.0 C 2.3 2.0 2.3 2.0 2.3 2.0 Z M 24.0 2.2 C 24.0 2.1 24.0 2.1 24.0 2.2 C 24.0 2.2 24.0 2.2 24.0 2.2 Z M 22.5 4.3 C 22.6 4.2 22.6 4.2 22.5 4.3 C 22.5 4.3 22.5 4.3 22.5 4.3 Z M 7.0 5.5 C 7.0 5.9 5.6 4.9 7.0 5.5 M 10.0 5.2 C 10.0 5.2 10.0 5.2 10.0 5.2 C 10.0 5.2 10.0 5.2 10.0 5.2 Z M 5.8 10.2 C 5.0 10.1 6.3 8.9 5.8 10.2 C 5.8 10.2 5.8 10.2 5.8 10.2 Z M 2.3 5.3 C 2.3 5.4 2.3 5.4 2.3 5.3 C 2.3 5.3 2.3 5.3 2.3 5.3 Z M 2.7 6.7 C 2.6 6.7 2.6 6.7 2.7 6.7 C 2.7 6.7 2.7 6.7 2.7 6.7 Z M 4.9 14.0 C 4.9 14.0 4.9 14.0 4.9 14.0 M 10.8 6.0 C 10.2 5.6 10.3 5.7 10.8 6.0 M 5.8 11.4 C 5.8 11.3 5.8 11.3 5.8 11.4 C 5.8 11.4 5.8 11.4 5.8 11.4 Z M 5.4 15.4 C 5.4 15.3 5.4 15.3 5.4 15.4 C 5.4 15.4 5.4 15.4 5.4 15.4 Z M 12.8 5.4 C 12.6 4.4 13.1 4.6 12.8 5.4 M 19.5 5.1 C 19.5 5.0 19.5 5.0 19.5 5.1 C 19.5 5.1 19.5 5.1 19.5 5.1 Z M 19.5 5.1 " fill="#FEFFFE"></path></g></svg>