<?xml version="1.0" encoding="UTF-8" standalone="no"?><svg xmlns="http://www.w3.org/2000/svg" xmlns:xlink="http://www.w3.org/1999/xlink" clip-rule="evenodd" stroke-miterlimit="10" viewBox="0 0 49 46"><desc>SVG generated by Keynote</desc><defs></defs><g transform="matrix(1.00, 0.00, -0.00, -1.00, 0.0, 46.0)"><path d="M 38.1 18.4 C 38.6 18.7 38.5 19.9 38.8 20.1 M 38.1 18.4 C 36.6 20.2 37.0 21.7 36.5 23.7 C 36.3 25.8 38.4 23.7 39.2 24.1 C 39.7 27.7 37.8 27.3 35.9 26.2 C 36.9 27.7 32.6 29.5 35.2 30.6 C 37.1 28.3 36.5 29.2 36.1 30.3 C 35.7 31.5 35.2 33.1 37.5 31.3 C 38.2 31.0 37.7 32.9 37.3 33.4 C 39.5 32.6 38.1 36.5 41.1 33.9 C 42.8 34.4 41.8 34.8 44.3 33.0 C 45.1 32.1 44.3 32.2 43.9 32.2 C 42.3 30.9 46.3 29.5 45.5 27.2 C 48.5 25.9 45.6 23.4 44.3 24.8 C 44.8 23.1 47.4 20.5 45.1 19.0 C 46.1 17.7 43.5 13.3 43.1 16.5 C 42.9 18.9 41.3 17.0 40.6 17.0 C 40.3 17.8 41.8 19.9 41.4 20.4 C 40.9 19.7 39.3 17.2 40.0 20.1 C 38.9 19.4 39.0 20.9 38.1 18.4 C 38.1 18.4 38.1 18.4 38.1 18.4 Z M 36.7 27.4 C 36.0 27.2 37.0 26.7 36.7 27.4 C 36.7 27.4 36.7 27.4 36.7 27.4 Z M 46.7 20.4 C 46.0 20.6 46.5 18.9 46.7 20.4 C 46.7 20.4 46.7 20.4 46.7 20.4 Z M 44.2 31.5 C 43.6 31.3 44.9 30.2 44.2 31.5 C 44.2 31.5 44.2 31.5 44.2 31.5 Z M 37.8 25.4 C 38.6 24.1 38.4 26.8 37.7 26.8 C 37.9 26.6 37.1 25.6 37.8 25.4 C 37.8 25.4 37.8 25.4 37.8 25.4 Z M 41.8 25.9 C 41.6 25.7 41.6 24.9 42.3 25.1 C 42.4 25.6 42.0 26.1 41.8 25.9 C 41.8 25.9 41.8 25.9 41.8 25.9 Z M 35.2 32.4 C 35.1 32.1 35.5 31.5 36.0 32.1 C 35.8 32.6 35.3 32.7 35.2 32.4 C 35.2 32.4 35.2 32.4 35.2 32.4 Z M 39.8 23.9 C 40.0 23.5 40.6 23.3 40.7 23.9 C 40.3 24.1 40.2 25.2 39.8 23.9 C 39.8 23.9 39.8 23.9 39.8 23.9 Z M 37.4 21.6 C 37.6 20.5 38.9 22.7 38.6 22.7 C 38.1 23.1 36.9 22.3 37.4 21.6 C 37.4 21.6 37.4 21.6 37.4 21.6 Z M 40.8 23.1 C 41.1 21.9 41.3 23.6 40.8 23.1 C 40.8 23.1 40.8 23.1 40.8 23.1 Z M 39.9 34.9 C 41.2 33.9 39.8 35.8 39.9 34.9 C 39.9 34.9 39.9 34.9 39.9 34.9 Z M 45.8 28.2 C 46.6 26.6 46.1 29.0 45.8 28.2 C 45.8 28.2 45.8 28.2 45.8 28.2 Z M 38.2 28.4 C 37.4 30.2 36.5 28.0 38.2 28.4 C 38.2 28.4 38.2 28.4 38.2 28.4 Z M 36.6 19.1 C 37.2 20.7 35.0 20.0 36.6 19.1 C 36.6 19.1 36.6 19.1 36.6 19.1 Z M 32.1 33.4 C 33.3 32.1 26.6 33.0 29.9 34.5 C 31.5 36.4 26.7 37.6 27.4 35.3 C 26.1 35.3 26.1 35.2 25.4 36.3 C 25.1 34.6 22.3 33.7 21.1 34.4 C 20.2 35.6 23.2 35.0 21.1 36.1 C 16.9 35.7 21.2 37.8 18.9 39.1 C 18.7 39.0 18.9 38.1 18.3 38.5 C 17.6 40.1 20.4 42.1 18.6 43.0 C 19.5 42.9 23.6 45.4 21.9 43.7 C 21.5 42.0 26.9 45.6 26.2 43.0 C 27.8 44.1 28.9 42.1 30.6 43.2 C 31.8 43.2 31.4 41.9 31.1 41.6 C 30.6 40.4 33.5 43.8 34.1 41.0 C 34.5 41.5 38.6 39.0 35.0 39.9 C 36.0 39.5 40.5 36.7 36.9 36.6 C 33.5 37.9 37.8 32.7 34.9 34.8 C 32.6 36.3 32.4 36.8 33.3 34.7 C 33.9 34.4 36.0 32.6 33.4 33.1 C 33.2 33.7 32.2 34.1 32.1 33.4 C 32.1 33.4 32.1 33.4 32.1 33.4 Z M 34.5 36.1 C 33.2 37.1 33.8 35.4 34.5 36.1 C 34.5 36.1 34.5 36.1 34.5 36.1 Z M 30.5 43.8 C 28.5 44.5 30.1 43.0 30.5 43.8 C 30.5 43.8 30.5 43.8 30.5 43.8 Z M 28.1 34.4 C 27.7 35.3 26.9 32.9 28.1 34.4 C 28.1 34.4 28.1 34.4 28.1 34.4 Z M 33.0 40.8 C 32.9 40.8 33.2 40.4 33.5 40.1 C 33.5 40.2 33.2 40.7 33.0 40.8 C 33.0 40.8 33.0 40.8 33.0 40.8 Z M 26.1 34.9 C 24.4 36.3 25.4 33.0 26.1 34.9 C 26.1 34.9 26.1 34.9 26.1 34.9 Z M 21.9 37.2 C 21.4 39.7 19.7 36.4 21.9 37.2 C 21.9 37.2 21.9 37.2 21.9 37.2 Z M 25.3 42.9 C 25.8 42.3 25.8 43.2 25.3 42.9 C 25.3 42.9 25.3 42.9 25.3 42.9 Z M 37.5 39.0 C 37.6 38.2 38.1 38.9 37.5 39.0 C 37.5 39.0 37.5 39.0 37.5 39.0 Z M 21.7 42.5 C 22.0 41.7 22.7 43.1 21.7 42.5 C 21.7 42.5 21.7 42.5 21.7 42.5 Z M 28.1 35.5 C 29.4 33.1 31.0 37.8 28.1 35.5 C 28.1 35.5 28.1 35.5 28.1 35.5 Z M 31.1 34.2 C 32.0 33.2 31.4 35.4 30.7 35.4 C 30.7 35.2 30.9 34.4 31.1 34.2 C 31.1 34.2 31.1 34.2 31.1 34.2 Z M 26.2 36.1 C 27.3 35.0 27.4 36.5 26.2 36.1 C 26.2 36.1 26.2 36.1 26.2 36.1 Z M 29.0 34.3 C 29.6 34.4 28.6 34.7 29.0 34.3 C 29.0 34.3 29.0 34.3 29.0 34.3 Z M 23.7 34.1 C 24.3 34.4 23.2 34.4 23.7 34.1 C 23.7 34.1 23.7 34.1 23.7 34.1 Z M 31.8 32.5 C 32.4 32.4 31.5 33.0 31.8 32.5 C 31.8 32.5 31.8 32.5 31.8 32.5 Z M 24.2 35.5 C 24.0 36.4 25.7 38.6 22.5 36.6 C 22.0 35.9 23.4 34.7 24.2 35.5 C 24.2 35.5 24.2 35.5 24.2 35.5 Z M 35.0 13.8 C 37.2 17.8 37.4 18.7 38.5 18.8 C 39.6 19.0 40.9 18.2 41.4 18.3 C 43.0 19.1 43.6 17.7 43.5 15.2 C 44.4 13.5 43.1 12.9 42.0 12.6 C 40.9 12.4 39.8 12.4 40.4 10.7 C 40.9 8.1 39.4 8.0 38.3 8.2 C 37.3 8.5 36.5 8.9 37.2 6.7 C 38.3 6.1 33.8 4.5 34.0 5.0 C 32.8 2.1 28.5 4.8 28.4 5.2 C 27.1 4.4 26.9 0.0 22.6 3.3 C 19.2 4.6 16.9 1.4 18.5 3.8 C 15.2 1.5 17.1 4.9 14.3 5.2 C 11.9 4.5 15.7 7.0 11.0 6.4 C 11.1 7.8 11.2 7.2 10.5 7.2 C 9.7 7.1 7.5 7.7 5.6 12.1 C 8.3 8.4 5.3 16.9 4.5 14.5 C 4.3 10.9 3.3 18.5 2.1 22.6 C 3.0 23.7 6.0 27.8 3.4 27.7 C 2.5 30.0 3.4 31.1 4.3 31.6 C 5.1 32.1 5.7 32.1 5.2 33.6 C 5.2 35.4 7.3 34.6 7.8 35.5 C 7.4 37.8 9.1 38.5 13.6 41.4 C 18.7 44.5 19.6 42.8 19.5 41.4 C 19.4 40.0 18.8 38.3 20.5 38.4 C 21.2 37.6 18.8 30.8 18.9 35.5 C 18.8 34.2 11.3 35.0 16.4 32.6 C 14.9 32.8 15.3 32.4 15.5 31.9 C 15.6 31.5 15.5 31.1 13.2 30.1 C 14.3 37.1 8.4 25.2 12.8 29.0 C 13.2 27.7 12.1 25.8 12.0 27.7 C 9.5 29.6 12.1 23.2 9.2 26.8 C 9.0 22.5 6.3 23.7 8.7 22.7 C 12.8 21.8 7.5 22.7 9.0 20.8 C 9.5 18.5 10.9 18.7 11.6 18.9 C 12.4 19.2 12.5 19.6 11.8 17.7 C 15.6 14.9 10.6 16.0 11.4 14.2 C 10.5 13.1 12.0 12.3 13.2 12.5 C 14.4 12.7 15.3 13.6 14.1 15.0 C 14.4 12.6 15.0 15.7 15.7 13.1 C 13.0 11.8 19.3 14.2 17.8 12.6 C 19.1 11.2 17.7 10.2 18.3 9.9 C 21.2 8.8 20.8 11.8 21.1 9.8 C 21.5 8.6 23.2 11.8 23.6 11.0 C 20.8 11.0 26.2 8.3 26.3 9.8 C 24.4 9.7 26.5 13.2 28.0 11.5 C 28.2 5.7 29.5 13.5 31.7 12.4 C 31.9 10.7 33.5 11.5 34.3 12.8 C 35.2 14.2 35.2 15.7 33.7 15.3 C 34.0 15.2 35.0 13.7 35.0 13.8 M 24.4 10.5 C 22.0 10.2 26.9 9.9 24.4 10.5 M 24.4 11.4 C 23.5 10.3 26.5 12.2 24.3 11.7 C 24.3 11.7 24.6 11.4 24.4 11.4 M 16.0 14.1 C 15.6 13.3 17.2 13.8 16.0 14.1 M 13.2 13.9 C 11.4 14.5 14.8 12.1 13.2 13.9 M 14.9 33.0 C 10.2 35.3 14.7 29.5 14.9 33.0 M 11.1 20.8 C 11.0 18.4 12.9 22.0 11.1 20.8 M 10.1 19.8 C 9.7 18.5 11.2 19.9 10.1 19.8 M 12.0 29.9 C 12.0 30.1 12.0 30.1 12.0 29.9 C 12.0 29.9 12.0 29.9 12.0 29.9 Z M 16.8 34.4 C 16.9 34.3 16.9 34.3 16.8 34.4 C 16.8 34.4 16.8 34.4 16.8 34.4 Z M 9.5 24.4 C 10.4 22.3 10.2 27.5 9.5 24.4 C 9.5 24.4 9.5 24.4 9.5 24.4 Z M 9.5 38.0 C 9.3 37.9 9.3 37.9 9.5 38.0 C 9.5 38.0 9.5 38.0 9.5 38.0 Z M 26.5 8.5 C 26.6 8.5 26.6 8.5 26.5 8.5 C 26.5 8.5 26.5 8.5 26.5 8.5 Z M 33.1 13.0 C 33.4 12.4 33.9 14.2 33.1 13.0 C 33.1 13.0 33.1 13.0 33.1 13.0 Z M 41.8 15.0 C 41.9 15.1 41.9 15.1 41.8 15.0 C 41.8 15.0 41.8 15.0 41.8 15.0 Z M 29.9 6.7 C 30.1 6.7 30.1 6.7 29.9 6.7 C 29.9 6.7 29.9 6.7 29.9 6.7 Z M 27.8 9.8 C 28.5 12.6 25.1 8.5 27.8 9.8 C 27.8 9.8 27.8 9.8 27.8 9.8 Z M 3.0 21.4 C 4.1 21.6 2.4 23.8 3.0 21.4 C 3.0 21.4 3.0 21.4 3.0 21.4 Z M 12.3 13.4 C 12.4 14.1 11.2 14.1 12.3 13.4 C 12.3 13.4 12.3 13.4 12.3 13.4 Z M 17.6 13.6 C 17.7 14.3 16.7 13.9 17.6 13.6 C 17.6 13.6 17.6 13.6 17.6 13.6 Z M 32.6 13.5 C 32.4 13.5 32.4 13.5 32.6 13.5 C 32.6 13.5 32.6 13.5 32.6 13.5 Z M 31.2 10.4 C 32.0 13.5 29.0 8.0 31.2 10.4 C 31.2 10.4 31.2 10.4 31.2 10.4 Z M 34.6 11.7 C 34.3 10.2 36.5 13.7 34.6 11.7 M 34.8 7.3 C 31.5 6.6 39.4 5.0 34.8 7.3 C 34.8 7.3 34.8 7.3 34.8 7.3 Z M 19.4 4.0 C 19.2 4.0 19.2 4.0 19.4 4.0 C 19.4 4.0 19.4 4.0 19.4 4.0 Z M 22.1 10.8 C 20.2 10.9 23.3 10.0 22.1 10.8 C 22.1 10.8 22.1 10.8 22.1 10.8 Z M 36.0 17.6 C 35.2 16.0 37.0 18.3 36.0 17.6 C 36.0 17.6 36.0 17.6 36.0 17.6 Z M 12.3 9.9 C 9.1 12.9 13.5 7.3 12.3 9.9 C 12.3 9.9 12.3 9.9 12.3 9.9 Z M 8.5 23.3 C 8.4 23.4 8.4 23.4 8.5 23.3 C 8.5 23.3 8.5 23.3 8.5 23.3 Z M 9.7 25.4 C 9.7 25.4 9.7 25.4 9.7 25.4 C 9.7 25.4 9.7 25.4 9.7 25.4 Z M 12.9 35.1 C 13.0 35.3 13.0 35.3 12.9 35.1 C 12.9 35.1 12.9 35.1 12.9 35.1 Z M 11.3 26.9 C 11.3 26.9 11.3 26.9 11.3 26.9 C 11.3 26.9 11.3 26.9 11.3 26.9 Z M 14.2 32.2 C 14.2 32.4 14.2 32.4 14.2 32.2 C 14.2 32.2 14.2 32.2 14.2 32.2 Z M 15.0 30.1 C 15.1 30.3 15.1 30.3 15.0 30.1 C 15.0 30.1 15.0 30.1 15.0 30.1 Z M 2.6 16.4 C 2.5 16.6 2.5 16.6 2.6 16.4 C 2.6 16.4 2.6 16.4 2.6 16.4 Z M 29.4 12.7 C 29.3 12.4 29.3 12.4 29.4 12.7 C 29.4 12.7 29.4 12.7 29.4 12.7 Z M 13.2 32.6 C 13.2 32.7 13.2 32.7 13.2 32.6 C 13.2 32.6 13.2 32.6 13.2 32.6 Z M 8.4 17.2 C 6.5 16.4 11.5 16.8 8.3 17.6 C 8.2 17.5 8.7 17.2 8.4 17.2 M 4.3 18.6 C 4.2 18.5 4.2 18.5 4.3 18.6 C 4.3 18.6 4.3 18.6 4.3 18.6 Z M 8.6 8.9 C 8.6 8.7 8.6 8.7 8.6 8.9 C 8.6 8.9 8.6 8.9 8.6 8.9 Z M 11.4 25.8 C 12.5 25.3 10.9 27.5 11.3 25.6 M 10.7 38.0 C 11.1 36.9 12.2 40.4 10.4 37.8 M 37.5 19.2 C 38.5 19.1 37.5 20.5 37.5 19.2 M 9.8 6.4 C 9.6 5.4 11.8 5.5 9.8 6.4 M 7.9 11.9 C 9.1 12.3 5.6 13.3 8.1 11.5 M 6.0 32.5 C 6.1 32.6 6.1 32.6 6.0 32.5 C 6.0 32.5 6.0 32.5 6.0 32.5 Z M 19.2 11.2 C 19.1 11.2 19.1 11.2 19.2 11.2 C 19.2 11.2 19.2 11.2 19.2 11.2 Z M 10.4 14.8 C 12.5 14.6 8.5 15.7 10.4 14.8 M 21.1 7.9 C 23.4 9.5 17.9 7.8 21.1 7.9 M 15.1 41.2 C 13.5 37.9 16.5 43.3 15.1 41.2 M 10.2 28.9 C 11.4 26.0 9.6 30.8 10.2 28.9 M 17.2 11.0 C 17.8 12.0 15.0 11.2 17.2 11.0 M 35.2 15.6 C 36.2 17.1 33.0 14.4 35.2 15.6 M 3.6 26.2 C 3.5 26.3 3.5 26.3 3.6 26.2 C 3.6 26.2 3.6 26.2 3.6 26.2 Z M 34.6 3.8 C 34.5 3.7 34.5 3.7 34.6 3.8 C 34.6 3.8 34.6 3.8 34.6 3.8 Z M 20.5 34.9 C 20.5 35.0 20.5 35.0 20.5 34.9 C 20.5 34.9 20.5 34.9 20.5 34.9 Z M 8.7 28.1 C 8.5 28.3 8.5 28.3 8.7 28.1 C 8.7 28.1 8.7 28.1 8.7 28.1 Z M 17.4 33.3 C 17.4 33.5 17.4 33.5 17.4 33.3 C 17.4 33.3 17.4 33.3 17.4 33.3 Z M 6.0 21.5 C 5.9 21.6 5.9 21.6 6.0 21.5 C 6.0 21.5 6.0 21.5 6.0 21.5 Z M 12.1 21.2 C 12.1 21.2 12.1 21.2 12.1 21.2 C 12.1 21.2 12.1 21.2 12.1 21.2 Z M 12.4 14.8 C 12.4 14.8 12.4 14.8 12.4 14.8 C 12.4 14.8 12.4 14.8 12.4 14.8 Z M 11.5 23.5 C 11.9 26.6 9.4 22.0 11.5 23.5 C 11.5 23.5 11.5 23.5 11.5 23.5 Z M 7.3 15.4 C 7.3 15.4 7.3 15.4 7.3 15.4 C 7.3 15.4 7.3 15.4 7.3 15.4 Z M 11.4 16.9 C 11.6 19.9 8.2 16.5 11.4 16.9 M 20.5 11.8 C 20.1 12.9 19.8 10.5 20.5 11.8 M 24.6 3.4 C 24.7 3.3 24.7 3.3 24.6 3.4 C 24.6 3.4 24.6 3.4 24.6 3.4 Z M 23.0 4.0 C 22.8 4.0 22.8 4.0 23.0 4.0 C 23.0 4.0 23.0 4.0 23.0 4.0 Z M 22.9 11.7 C 22.9 11.7 22.9 11.7 22.9 11.7 C 22.9 11.7 22.9 11.7 22.9 11.7 Z M 22.6 1.8 C 22.5 1.7 22.5 1.7 22.6 1.8 C 22.6 1.8 22.6 1.8 22.6 1.8 Z M 12.3 20.0 C 12.2 20.1 12.2 20.1 12.3 20.0 C 12.3 20.0 12.3 20.0 12.3 20.0 Z M 19.3 33.3 C 19.3 33.3 19.3 33.3 19.3 33.3 C 19.3 33.3 19.3 33.3 19.3 33.3 Z M 39.6 10.9 C 39.5 10.7 39.5 10.7 39.6 10.9 C 39.6 10.9 39.6 10.9 39.6 10.9 Z M 9.5 21.3 C 9.4 21.3 9.4 21.3 9.5 21.3 C 9.5 21.3 9.5 21.3 9.5 21.3 Z M 28.6 4.2 C 28.5 4.1 28.5 4.1 28.6 4.2 C 28.6 4.2 28.6 4.2 28.6 4.2 Z M 10.2 20.2 C 10.2 20.2 10.2 20.2 10.2 20.2 C 10.2 20.2 10.2 20.2 10.2 20.2 Z M 3.0 25.3 C 3.0 25.4 3.0 25.4 3.0 25.3 C 3.0 25.3 3.0 25.3 3.0 25.3 Z M 3.5 32.0 C 3.6 32.1 3.6 32.1 3.5 32.0 C 3.5 32.0 3.5 32.0 3.5 32.0 Z M 7.1 24.5 C 7.1 24.6 7.1 24.6 7.1 24.5 C 7.1 24.5 7.1 24.5 7.1 24.5 Z M 29.8 7.2 C 38.6 12.0 22.0 5.8 29.8 7.2 M 6.9 26.1 C 6.1 19.6 10.2 30.8 6.9 26.1 C 7.6 26.7 7.0 26.2 6.9 26.1 " fill="#FEFFFE"></path></g></svg>