<?xml version="1.0" encoding="UTF-8" standalone="no"?><svg xmlns="http://www.w3.org/2000/svg" xmlns:xlink="http://www.w3.org/1999/xlink" clip-rule="evenodd" stroke-miterlimit="10" viewBox="0 0 49 47"><desc>SVG generated by Keynote</desc><defs></defs><g transform="matrix(1.00, 0.00, -0.00, -1.00, 0.0, 47.0)"><path d="M 38.4 18.9 C 38.9 19.2 38.8 20.3 39.2 20.6 M 38.4 18.9 C 37.0 20.6 37.3 22.1 36.8 24.1 C 36.6 26.3 38.7 24.1 39.5 24.5 C 40.0 28.2 38.1 27.8 36.2 26.7 C 37.2 28.2 32.9 30.0 35.5 31.1 C 37.4 28.8 36.8 29.6 36.4 30.8 C 36.0 32.0 35.5 33.6 37.8 31.8 C 38.5 31.5 38.0 33.3 37.6 33.8 C 39.8 33.1 38.4 37.0 41.4 34.3 C 43.1 34.9 42.1 35.3 44.6 33.5 C 45.4 32.6 44.6 32.7 44.2 32.6 C 42.6 31.3 46.6 30.0 45.8 27.6 C 48.8 26.3 45.9 23.9 44.6 25.3 C 45.1 23.6 47.7 21.0 45.4 19.5 C 46.5 18.2 43.8 13.8 43.4 17.0 C 43.2 19.3 41.6 17.5 40.9 17.5 C 40.6 18.3 42.1 20.4 41.7 20.8 C 41.2 20.2 39.6 17.6 40.3 20.6 C 39.2 19.8 39.3 21.3 38.4 18.9 C 38.4 18.9 38.4 18.9 38.4 18.9 Z M 37.0 27.9 C 36.3 27.6 37.3 27.1 37.0 27.9 C 37.0 27.9 37.0 27.9 37.0 27.9 Z M 47.0 20.9 C 46.3 21.0 46.8 19.4 47.0 20.9 C 47.0 20.9 47.0 20.9 47.0 20.9 Z M 44.6 32.0 C 43.9 31.7 45.2 30.6 44.6 32.0 C 44.6 32.0 44.6 32.0 44.6 32.0 Z M 38.1 25.8 C 38.9 24.6 38.7 27.3 38.0 27.3 C 38.2 27.0 37.4 26.1 38.1 25.8 C 38.1 25.8 38.1 25.8 38.1 25.8 Z M 42.1 26.4 C 41.9 26.2 41.9 25.4 42.6 25.6 C 42.7 26.1 42.3 26.5 42.1 26.4 C 42.1 26.4 42.1 26.4 42.1 26.4 Z M 35.5 32.9 C 35.4 32.6 35.8 32.0 36.3 32.6 C 36.1 33.0 35.6 33.1 35.5 32.9 C 35.5 32.9 35.5 32.9 35.5 32.9 Z M 40.1 24.3 C 40.3 24.0 40.9 23.8 41.0 24.3 C 40.7 24.5 40.5 25.7 40.1 24.3 C 40.1 24.3 40.1 24.3 40.1 24.3 Z M 37.7 22.1 C 37.9 20.9 39.2 23.2 38.9 23.2 C 38.4 23.6 37.3 22.8 37.7 22.1 C 37.7 22.1 37.7 22.1 37.7 22.1 Z M 41.1 23.6 C 41.4 22.3 41.6 24.1 41.1 23.6 C 41.1 23.6 41.1 23.6 41.1 23.6 Z M 40.2 35.4 C 41.5 34.4 40.2 36.2 40.2 35.4 C 40.2 35.4 40.2 35.4 40.2 35.4 Z M 46.2 28.7 C 46.9 27.1 46.5 29.5 46.2 28.7 C 46.2 28.7 46.2 28.7 46.2 28.7 Z M 38.5 28.9 C 37.7 30.7 36.8 28.4 38.5 28.9 C 38.5 28.9 38.5 28.9 38.5 28.9 Z M 36.9 19.6 C 37.5 21.2 35.3 20.5 36.9 19.6 C 36.9 19.6 36.9 19.6 36.9 19.6 Z M 32.4 33.9 C 33.6 32.6 26.9 33.5 30.2 35.0 C 31.8 36.8 27.1 38.1 27.8 35.8 C 26.4 35.8 26.4 35.6 25.7 36.8 C 25.4 35.1 22.6 34.2 21.4 34.8 C 20.5 36.1 23.5 35.4 21.4 36.6 C 17.2 36.2 21.5 38.3 19.2 39.6 C 19.0 39.5 19.2 38.6 18.6 39.0 C 17.9 40.6 20.7 42.6 18.9 43.5 C 19.8 43.4 23.9 45.8 22.2 44.2 C 21.8 42.5 27.2 46.1 26.5 43.5 C 28.1 44.6 29.2 42.6 31.0 43.7 C 32.1 43.7 31.7 42.3 31.4 42.0 C 30.9 40.9 33.8 44.2 34.4 41.5 C 34.8 42.0 38.9 39.4 35.3 40.3 C 36.3 40.0 40.9 37.2 37.2 37.0 C 33.8 38.4 38.1 33.1 35.2 35.3 C 32.9 36.8 32.7 37.2 33.6 35.1 C 34.2 34.9 36.3 33.0 33.8 33.6 C 33.5 34.2 32.5 34.6 32.4 33.9 C 32.4 33.9 32.4 33.9 32.4 33.9 Z M 34.8 36.5 C 33.5 37.5 34.1 35.8 34.8 36.5 C 34.8 36.5 34.8 36.5 34.8 36.5 Z M 30.8 44.3 C 28.8 45.0 30.4 43.5 30.8 44.3 C 30.8 44.3 30.8 44.3 30.8 44.3 Z M 28.5 34.9 C 28.1 35.8 27.2 33.4 28.5 34.9 C 28.5 34.9 28.5 34.9 28.5 34.9 Z M 33.4 41.3 C 33.2 41.3 33.6 40.8 33.8 40.6 C 33.8 40.7 33.5 41.2 33.4 41.3 C 33.4 41.3 33.4 41.3 33.4 41.3 Z M 26.4 35.4 C 24.7 36.8 25.8 33.5 26.4 35.4 C 26.4 35.4 26.4 35.4 26.4 35.4 Z M 22.2 37.7 C 21.7 40.2 20.1 36.9 22.2 37.7 C 22.2 37.7 22.2 37.7 22.2 37.7 Z M 25.6 43.4 C 26.1 42.8 26.1 43.6 25.6 43.4 C 25.6 43.4 25.6 43.4 25.6 43.4 Z M 37.8 39.4 C 37.9 38.7 38.4 39.4 37.8 39.4 C 37.8 39.4 37.8 39.4 37.8 39.4 Z M 22.0 43.0 C 22.3 42.1 23.0 43.6 22.0 43.0 C 22.0 43.0 22.0 43.0 22.0 43.0 Z M 28.4 36.0 C 29.7 33.6 31.3 38.3 28.4 36.0 C 28.4 36.0 28.4 36.0 28.4 36.0 Z M 31.4 34.6 C 32.3 33.7 31.7 35.9 31.1 35.8 C 31.0 35.6 31.2 34.8 31.4 34.6 C 31.4 34.6 31.4 34.6 31.4 34.6 Z M 26.5 36.6 C 27.6 35.4 27.7 37.0 26.5 36.6 C 26.5 36.6 26.5 36.6 26.5 36.6 Z M 29.3 34.8 C 29.9 34.8 28.9 35.2 29.3 34.8 C 29.3 34.8 29.3 34.8 29.3 34.8 Z M 24.0 34.6 C 24.6 34.9 23.6 34.9 24.0 34.6 C 24.0 34.6 24.0 34.6 24.0 34.6 Z M 32.1 33.0 C 32.7 32.9 31.9 33.5 32.1 33.0 C 32.1 33.0 32.1 33.0 32.1 33.0 Z M 24.5 35.9 C 24.3 36.8 26.0 39.1 22.8 37.1 C 22.3 36.4 23.7 35.2 24.5 35.9 C 24.5 35.9 24.5 35.9 24.5 35.9 Z M 35.3 14.2 C 37.5 18.3 37.7 19.1 38.8 19.3 C 39.9 19.5 41.2 18.7 41.7 18.7 C 43.3 19.5 43.9 18.1 43.8 15.7 C 44.7 13.9 43.4 13.4 42.3 13.1 C 41.2 12.9 40.2 12.9 40.7 11.2 C 41.3 8.6 39.7 8.5 38.6 8.7 C 37.6 8.9 36.8 9.4 37.5 7.2 C 38.6 6.6 34.1 5.0 34.3 5.4 C 33.1 2.6 28.8 5.3 28.7 5.7 C 27.5 4.8 27.2 0.5 22.9 3.8 C 19.5 5.0 17.2 1.9 18.8 4.2 C 15.5 2.0 17.4 5.4 14.6 5.7 C 12.3 5.0 16.0 7.5 11.3 6.8 C 11.4 8.3 11.5 7.7 10.8 7.7 C 10.0 7.6 7.8 8.1 5.9 12.6 C 8.6 8.9 5.6 17.3 4.8 15.0 C 4.6 11.4 3.6 18.9 2.4 23.0 C 3.3 24.2 6.3 28.3 3.7 28.1 C 2.8 30.5 3.8 31.5 4.6 32.0 C 5.4 32.5 6.0 32.6 5.5 34.0 C 5.5 35.8 7.6 35.1 8.1 35.9 C 7.7 38.2 9.4 39.0 13.9 41.9 C 19.0 45.0 20.0 43.2 19.8 41.8 C 19.7 40.4 19.1 38.8 20.8 38.8 C 21.5 38.1 19.1 31.3 19.2 36.0 C 19.1 34.6 11.6 35.5 16.7 33.1 C 15.2 33.3 15.6 32.9 15.8 32.4 C 15.9 31.9 15.8 31.6 13.5 30.5 C 14.6 37.5 8.7 25.7 13.1 29.5 C 13.5 28.2 12.4 26.3 12.4 28.1 C 9.8 30.0 12.4 23.6 9.5 27.3 C 9.3 23.0 6.6 24.2 9.0 23.2 C 13.1 22.3 7.8 23.1 9.3 21.3 C 9.8 18.9 11.2 19.1 11.9 19.4 C 12.7 19.7 12.8 20.1 12.1 18.2 C 15.9 15.4 10.9 16.5 11.7 14.7 C 10.8 13.6 12.3 12.8 13.5 13.0 C 14.7 13.2 15.6 14.0 14.5 15.4 C 14.7 13.0 15.3 16.2 16.0 13.5 C 13.3 12.3 19.6 14.7 18.1 13.1 C 19.4 11.7 18.0 10.7 18.6 10.4 C 21.5 9.3 21.1 12.3 21.4 10.3 C 21.8 9.1 23.6 12.3 23.9 11.5 C 21.1 11.4 26.5 8.8 26.6 10.2 C 24.8 10.2 26.8 13.7 28.4 12.0 C 28.5 6.1 29.8 14.0 32.0 12.9 C 32.2 11.2 33.8 12.0 34.6 13.3 C 35.5 14.6 35.5 16.2 34.0 15.8 C 34.3 15.7 35.3 14.2 35.3 14.2 M 24.7 11.0 C 22.3 10.7 27.2 10.4 24.7 11.0 M 24.8 11.8 C 23.8 10.7 26.8 12.6 24.6 12.2 C 24.6 12.2 24.9 11.9 24.8 11.8 M 16.3 14.6 C 15.9 13.7 17.6 14.3 16.3 14.6 M 13.5 14.4 C 11.7 15.0 15.1 12.6 13.5 14.4 M 15.2 33.4 C 10.6 35.8 15.0 29.9 15.2 33.4 M 11.4 21.3 C 11.3 18.9 13.2 22.5 11.4 21.3 M 10.5 20.3 C 10.0 18.9 11.6 20.3 10.5 20.3 M 12.3 30.3 C 12.3 30.6 12.3 30.6 12.3 30.3 C 12.3 30.3 12.3 30.3 12.3 30.3 Z M 17.1 34.9 C 17.2 34.8 17.2 34.8 17.1 34.9 C 17.1 34.9 17.1 34.9 17.1 34.9 Z M 9.8 24.8 C 10.7 22.8 10.5 27.9 9.8 24.8 C 9.8 24.8 9.8 24.8 9.8 24.8 Z M 9.8 38.4 C 9.7 38.4 9.7 38.4 9.8 38.4 C 9.8 38.4 9.8 38.4 9.8 38.4 Z M 26.8 9.0 C 26.9 9.0 26.9 9.0 26.8 9.0 C 26.8 9.0 26.8 9.0 26.8 9.0 Z M 33.4 13.5 C 33.7 12.9 34.2 14.7 33.4 13.5 C 33.4 13.5 33.4 13.5 33.4 13.5 Z M 42.1 15.5 C 42.2 15.5 42.2 15.5 42.1 15.5 C 42.1 15.5 42.1 15.5 42.1 15.5 Z M 30.2 7.2 C 30.4 7.2 30.4 7.2 30.2 7.2 C 30.2 7.2 30.2 7.2 30.2 7.2 Z M 28.2 10.3 C 28.8 13.1 25.4 8.9 28.2 10.3 C 28.2 10.3 28.2 10.3 28.2 10.3 Z M 3.3 21.8 C 4.4 22.0 2.7 24.3 3.3 21.8 C 3.3 21.8 3.3 21.8 3.3 21.8 Z M 12.6 13.9 C 12.7 14.5 11.5 14.6 12.6 13.9 C 12.6 13.9 12.6 13.9 12.6 13.9 Z M 17.9 14.1 C 18.0 14.8 17.0 14.3 17.9 14.1 C 17.9 14.1 17.9 14.1 17.9 14.1 Z M 32.9 14.0 C 32.7 14.0 32.7 14.0 32.9 14.0 C 32.9 14.0 32.9 14.0 32.9 14.0 Z M 31.5 10.9 C 32.3 14.0 29.3 8.4 31.5 10.9 C 31.5 10.9 31.5 10.9 31.5 10.9 Z M 34.9 12.1 C 34.6 10.7 36.8 14.1 34.9 12.1 M 35.1 7.8 C 31.9 7.1 39.7 5.5 35.1 7.8 C 35.1 7.8 35.1 7.8 35.1 7.8 Z M 19.8 4.5 C 19.5 4.4 19.5 4.4 19.8 4.5 C 19.8 4.5 19.8 4.5 19.8 4.5 Z M 22.4 11.2 C 20.5 11.4 23.6 10.5 22.4 11.2 C 22.4 11.2 22.4 11.2 22.4 11.2 Z M 36.3 18.1 C 35.5 16.5 37.4 18.8 36.3 18.1 C 36.3 18.1 36.3 18.1 36.3 18.1 Z M 12.6 10.4 C 9.4 13.3 13.8 7.8 12.6 10.4 C 12.6 10.4 12.6 10.4 12.6 10.4 Z M 8.8 23.8 C 8.7 23.9 8.7 23.9 8.8 23.8 C 8.8 23.8 8.8 23.8 8.8 23.8 Z M 10.0 25.9 C 10.0 25.9 10.0 25.9 10.0 25.9 C 10.0 25.9 10.0 25.9 10.0 25.9 Z M 13.2 35.6 C 13.3 35.8 13.3 35.8 13.2 35.6 C 13.2 35.6 13.2 35.6 13.2 35.6 Z M 11.6 27.3 C 11.6 27.4 11.6 27.4 11.6 27.3 C 11.6 27.3 11.6 27.3 11.6 27.3 Z M 14.5 32.7 C 14.5 32.9 14.5 32.9 14.5 32.7 C 14.5 32.7 14.5 32.7 14.5 32.7 Z M 15.3 30.6 C 15.4 30.8 15.4 30.8 15.3 30.6 C 15.3 30.6 15.3 30.6 15.3 30.6 Z M 3.0 16.9 C 2.8 17.0 2.8 17.0 3.0 16.9 C 3.0 16.9 3.0 16.9 3.0 16.9 Z M 29.7 13.1 C 29.6 12.9 29.6 12.9 29.7 13.1 C 29.7 13.1 29.7 13.1 29.7 13.1 Z M 13.5 33.0 C 13.5 33.1 13.5 33.1 13.5 33.0 C 13.5 33.0 13.5 33.0 13.5 33.0 Z M 8.7 17.6 C 6.8 16.9 11.8 17.2 8.6 18.1 C 8.6 18.0 9.1 17.7 8.7 17.6 M 4.6 19.1 C 4.6 18.9 4.6 18.9 4.6 19.1 C 4.6 19.1 4.6 19.1 4.6 19.1 Z M 8.9 9.3 C 8.9 9.2 8.9 9.2 8.9 9.3 C 8.9 9.3 8.9 9.3 8.9 9.3 Z M 11.7 26.3 C 12.8 25.8 11.2 27.9 11.6 26.1 M 11.1 38.5 C 11.4 37.4 12.5 40.9 10.7 38.3 M 37.8 19.6 C 38.8 19.6 37.8 21.0 37.8 19.6 M 10.1 6.9 C 9.9 5.9 12.1 6.0 10.1 6.9 M 8.2 12.4 C 9.4 12.7 5.9 13.8 8.4 12.0 M 6.3 33.0 C 6.4 33.1 6.4 33.1 6.3 33.0 C 6.3 33.0 6.3 33.0 6.3 33.0 Z M 19.5 11.7 C 19.4 11.7 19.4 11.7 19.5 11.7 C 19.5 11.7 19.5 11.7 19.5 11.7 Z M 10.7 15.3 C 12.8 15.1 8.8 16.2 10.7 15.3 M 21.4 8.3 C 23.7 10.0 18.2 8.2 21.4 8.3 M 15.4 41.7 C 13.8 38.4 16.8 43.7 15.4 41.7 M 10.5 29.3 C 11.7 26.5 10.0 31.2 10.5 29.3 M 17.5 11.4 C 18.1 12.5 15.3 11.6 17.5 11.4 M 35.6 16.1 C 36.5 17.6 33.3 14.8 35.6 16.1 M 3.9 26.6 C 3.9 26.8 3.9 26.8 3.9 26.6 C 3.9 26.6 3.9 26.6 3.9 26.6 Z M 34.9 4.3 C 34.8 4.2 34.8 4.2 34.9 4.3 C 34.9 4.3 34.9 4.3 34.9 4.3 Z M 20.8 35.4 C 20.9 35.4 20.9 35.4 20.8 35.4 C 20.8 35.4 20.8 35.4 20.8 35.4 Z M 9.0 28.6 C 8.8 28.7 8.8 28.7 9.0 28.6 C 9.0 28.6 9.0 28.6 9.0 28.6 Z M 17.7 33.8 C 17.7 34.0 17.7 34.0 17.7 33.8 C 17.7 33.8 17.7 33.8 17.7 33.8 Z M 6.3 22.0 C 6.2 22.0 6.2 22.0 6.3 22.0 C 6.3 22.0 6.3 22.0 6.3 22.0 Z M 12.4 21.7 C 12.4 21.7 12.4 21.7 12.4 21.7 C 12.4 21.7 12.4 21.7 12.4 21.7 Z M 12.7 15.3 C 12.7 15.3 12.7 15.3 12.7 15.3 C 12.7 15.3 12.7 15.3 12.7 15.3 Z M 11.8 24.0 C 12.3 27.1 9.7 22.5 11.8 24.0 C 11.8 24.0 11.8 24.0 11.8 24.0 Z M 7.7 15.8 C 7.6 15.8 7.6 15.8 7.7 15.8 C 7.7 15.8 7.7 15.8 7.7 15.8 Z M 11.7 17.4 C 12.0 20.4 8.5 17.0 11.7 17.4 M 20.8 12.3 C 20.4 13.3 20.1 11.0 20.8 12.3 M 24.9 3.9 C 25.0 3.8 25.0 3.8 24.9 3.9 C 24.9 3.9 24.9 3.9 24.9 3.9 Z M 23.3 4.5 C 23.2 4.5 23.2 4.5 23.3 4.5 C 23.3 4.5 23.3 4.5 23.3 4.5 Z M 23.3 12.2 C 23.2 12.2 23.2 12.2 23.3 12.2 C 23.3 12.2 23.3 12.2 23.3 12.2 Z M 23.0 2.3 C 22.8 2.2 22.8 2.2 23.0 2.3 C 23.0 2.3 23.0 2.3 23.0 2.3 Z M 12.6 20.5 C 12.5 20.5 12.5 20.5 12.6 20.5 C 12.6 20.5 12.6 20.5 12.6 20.5 Z M 19.6 33.7 C 19.6 33.8 19.6 33.8 19.6 33.7 C 19.6 33.7 19.6 33.7 19.6 33.7 Z M 39.9 11.4 C 39.8 11.2 39.8 11.2 39.9 11.4 C 39.9 11.4 39.9 11.4 39.9 11.4 Z M 9.8 21.8 C 9.7 21.8 9.7 21.8 9.8 21.8 C 9.8 21.8 9.8 21.8 9.8 21.8 Z M 28.9 4.7 C 28.8 4.6 28.8 4.6 28.9 4.7 C 28.9 4.7 28.9 4.7 28.9 4.7 Z M 10.6 20.6 C 10.5 20.7 10.5 20.7 10.6 20.6 C 10.6 20.6 10.6 20.6 10.6 20.6 Z M 3.3 25.8 C 3.3 25.9 3.3 25.9 3.3 25.8 C 3.3 25.8 3.3 25.8 3.3 25.8 Z M 3.9 32.5 C 3.9 32.6 3.9 32.6 3.9 32.5 C 3.9 32.5 3.9 32.5 3.9 32.5 Z M 7.4 25.0 C 7.4 25.1 7.4 25.1 7.4 25.0 C 7.4 25.0 7.4 25.0 7.4 25.0 Z M 30.1 7.6 C 38.9 12.5 22.4 6.3 30.1 7.6 M 7.2 26.6 C 6.4 20.1 10.5 31.2 7.2 26.6 C 7.9 27.2 7.3 26.6 7.2 26.6 " fill="#FEFFFE"></path></g></svg>