<?xml version="1.0" encoding="UTF-8" standalone="no"?><svg xmlns="http://www.w3.org/2000/svg" xmlns:xlink="http://www.w3.org/1999/xlink" clip-rule="evenodd" stroke-miterlimit="10" viewBox="0 0 49 46"><desc>SVG generated by Keynote</desc><defs></defs><g transform="matrix(1.00, 0.00, -0.00, -1.00, 0.0, 46.0)"><path d="M 27.0 35.9 C 26.7 36.3 25.1 35.8 24.9 36.1 M 27.0 35.9 C 24.5 33.7 22.2 33.6 19.0 33.2 C 15.8 33.1 20.0 35.2 19.9 36.1 C 15.5 37.0 15.1 35.4 15.2 33.0 C 13.9 34.6 8.9 31.8 10.0 34.7 C 17.0 34.7 4.6 35.5 11.2 37.2 C 11.9 37.6 10.1 38.4 9.4 38.4 C 11.7 39.7 7.8 41.1 11.7 42.0 C 12.4 43.8 11.6 43.0 14.4 44.5 C 15.6 44.7 15.0 44.0 14.8 43.6 C 14.8 41.4 18.3 44.8 20.0 43.5 C 23.0 46.3 23.8 43.0 21.6 41.8 C 23.6 42.1 27.2 45.1 28.2 43.0 C 30.1 44.4 34.7 43.5 30.5 41.7 C 27.7 40.5 29.5 39.7 29.4 39.0 C 28.3 38.4 26.0 39.3 25.4 38.8 C 26.0 38.3 28.8 37.3 25.2 37.4 C 25.8 36.4 23.8 35.8 27.0 35.9 C 27.0 35.9 27.0 35.9 27.0 35.9 Z M 14.3 34.3 C 14.1 33.5 15.4 34.3 14.3 34.3 C 14.3 34.3 14.3 34.3 14.3 34.3 Z M 27.3 44.5 C 26.9 43.7 28.8 44.5 27.3 44.5 C 27.3 44.5 27.3 44.5 27.3 44.5 Z M 15.6 43.7 C 15.4 42.9 17.1 43.7 15.6 43.7 C 15.6 43.7 15.6 43.7 15.6 43.7 Z M 17.5 34.8 C 19.6 35.4 16.2 35.9 15.8 35.1 C 16.2 35.2 16.9 34.1 17.5 34.8 C 17.5 34.8 17.5 34.8 17.5 34.8 Z M 19.2 39.2 C 19.3 38.9 20.1 38.8 20.3 39.6 C 19.8 39.8 19.1 39.4 19.2 39.2 C 19.2 39.2 19.2 39.2 19.2 39.2 Z M 8.5 36.1 C 8.6 35.8 9.4 35.7 9.4 36.4 C 8.9 36.6 8.3 36.3 8.5 36.1 C 8.5 36.1 8.5 36.1 8.5 36.1 Z M 20.4 36.8 C 21.0 36.9 21.5 37.6 20.9 37.7 C 20.5 37.4 19.0 37.2 20.4 36.8 C 20.4 36.8 20.4 36.8 20.4 36.8 Z M 22.3 34.2 C 24.1 34.6 21.4 35.8 21.3 35.4 C 20.5 34.9 21.2 33.6 22.3 34.2 C 22.3 34.2 22.3 34.2 22.3 34.2 Z M 21.8 37.8 C 23.4 38.2 21.5 38.4 21.8 37.8 C 21.8 37.8 21.8 37.8 21.8 37.8 Z M 10.2 41.7 C 11.8 42.1 9.5 42.2 10.2 41.7 C 10.2 41.7 10.2 41.7 10.2 41.7 Z M 19.3 44.1 C 21.1 44.4 18.7 44.6 19.3 44.1 C 19.3 44.1 19.3 44.1 19.3 44.1 Z M 14.4 36.3 C 12.0 36.2 13.7 34.3 14.4 36.3 C 14.4 36.3 14.4 36.3 14.4 36.3 Z M 25.8 34.1 C 23.5 34.0 24.3 32.1 25.8 34.1 C 25.8 34.1 25.8 34.1 25.8 34.1 Z M 12.1 35.9 C 12.5 38.0 15.0 30.9 12.1 33.0 C 9.6 33.4 9.8 27.6 12.1 29.8 C 12.4 28.3 12.5 28.4 11.3 27.0 C 13.2 27.5 14.1 24.4 13.1 22.6 C 11.6 20.8 12.9 24.9 11.3 21.8 C 10.8 16.6 9.6 21.1 7.5 17.8 C 7.5 17.6 8.5 18.1 8.0 17.3 C 6.1 15.8 4.8 18.3 3.3 15.8 C 3.6 16.9 1.5 20.4 3.2 19.3 C 5.0 19.7 1.0 23.4 4.0 24.2 C 2.6 25.1 4.5 27.3 2.8 28.2 C 2.5 29.3 4.0 29.7 4.4 29.6 C 5.8 29.9 1.3 30.2 3.8 32.5 C 3.1 32.6 3.3 37.6 4.4 34.0 C 4.2 35.0 3.6 40.5 6.2 37.8 C 7.4 34.3 8.9 41.5 9.1 37.4 C 9.3 34.4 8.8 33.7 10.2 36.1 C 10.0 36.8 10.3 40.3 11.5 37.4 C 11.1 36.7 11.4 35.4 12.1 35.9 C 12.1 35.9 12.1 35.9 12.1 35.9 Z M 8.2 36.1 C 8.1 34.3 9.2 36.1 8.2 36.1 C 8.2 36.1 8.2 36.1 8.2 36.1 Z M 2.2 27.7 C 2.1 25.5 3.3 27.9 2.2 27.7 C 2.2 27.7 2.2 27.7 2.2 27.7 Z M 12.8 31.1 C 12.0 30.1 14.8 30.8 12.8 31.1 C 12.8 31.1 12.8 31.1 12.8 31.1 Z M 4.4 31.8 C 4.4 31.7 4.8 32.2 5.0 32.6 C 4.8 32.5 4.5 32.0 4.4 31.8 C 4.4 31.8 4.4 31.8 4.4 31.8 Z M 12.8 28.5 C 11.5 25.6 14.9 29.0 12.8 28.5 C 12.8 28.5 12.8 28.5 12.8 28.5 Z M 10.2 22.4 C 7.4 20.5 10.8 20.1 10.2 22.4 C 10.2 22.4 10.2 22.4 10.2 22.4 Z M 4.2 23.3 C 4.8 24.0 3.8 23.6 4.2 23.3 C 4.2 23.3 4.2 23.3 4.2 23.3 Z M 3.8 36.6 C 4.4 37.1 3.4 37.1 3.8 36.6 C 3.8 36.6 3.8 36.6 3.8 36.6 Z M 4.4 19.6 C 5.4 20.4 3.9 20.4 4.4 19.6 C 4.4 19.6 4.4 19.6 4.4 19.6 Z M 11.7 30.4 C 13.9 33.1 8.5 32.4 11.7 30.4 C 11.7 30.4 11.7 30.4 11.7 30.4 Z M 11.9 34.3 C 12.4 35.9 10.5 33.8 10.9 33.2 C 11.1 33.3 11.8 34.1 11.9 34.3 C 11.9 34.3 11.9 34.3 11.9 34.3 Z M 11.4 28.0 C 12.5 29.8 10.9 29.2 11.4 28.0 C 11.4 28.0 11.4 28.0 11.4 28.0 Z M 12.6 32.1 C 12.4 32.8 12.4 31.4 12.6 32.1 C 12.6 32.1 12.6 32.1 12.6 32.1 Z M 13.7 26.1 C 13.5 26.7 13.4 25.4 13.7 26.1 C 13.7 26.1 13.7 26.1 13.7 26.1 Z M 13.0 36.3 C 12.8 37.0 12.8 35.7 13.0 36.3 C 13.0 36.3 13.0 36.3 13.0 36.3 Z M 12.3 26.0 C 11.3 25.3 9.1 26.6 11.0 23.4 C 11.7 23.1 13.1 25.4 12.3 26.0 C 12.3 26.0 12.3 26.0 12.3 26.0 Z M 30.6 36.0 C 23.3 32.9 27.7 38.3 28.0 39.3 C 28.0 40.7 29.4 41.7 31.3 42.7 C 35.0 46.1 31.1 39.2 34.4 42.6 C 39.7 47.1 33.5 38.6 37.9 43.4 C 38.6 44.6 40.5 43.6 40.0 43.3 C 43.4 45.6 41.7 41.5 41.3 41.1 C 42.6 41.7 45.9 45.0 46.6 43.7 C 46.4 43.2 46.1 42.6 45.7 41.8 C 44.6 38.5 48.8 40.8 45.9 39.2 C 49.2 39.8 44.9 37.3 46.0 36.3 C 47.8 36.1 43.2 34.4 46.7 34.4 C 44.0 32.0 48.5 36.6 46.5 29.2 C 46.3 32.1 44.4 26.0 46.2 27.4 C 48.2 30.1 45.5 24.5 46.7 21.8 C 45.6 21.2 43.2 18.6 45.9 18.4 C 49.0 14.4 44.0 16.3 46.5 14.1 C 47.6 12.6 45.3 13.4 45.5 12.7 C 47.4 10.6 46.1 10.4 46.7 6.5 C 46.9 4.1 46.7 3.3 46.2 3.2 C 44.9 3.9 44.2 5.0 43.4 6.1 C 42.7 7.0 42.1 7.8 41.3 8.2 C 41.1 8.3 40.8 8.4 40.6 8.5 C 40.2 8.7 39.7 9.5 39.2 10.3 C 37.3 12.7 35.1 15.6 38.5 11.9 C 37.2 13.5 42.1 14.1 36.9 15.4 C 39.0 15.4 34.7 16.8 37.2 17.6 C 40.9 10.7 38.7 21.5 36.9 18.4 C 35.8 19.4 36.0 20.6 36.9 19.3 C 40.3 17.5 35.4 22.0 39.5 19.6 C 38.4 22.4 42.1 21.3 39.5 22.4 C 35.0 23.1 40.6 22.2 39.3 23.6 C 39.3 26.8 34.2 23.9 37.6 25.9 C 35.4 27.5 39.5 27.0 40.1 28.3 C 43.1 29.7 37.7 30.2 37.3 28.0 C 38.9 29.8 35.8 27.5 37.8 29.6 C 40.6 30.0 34.8 29.2 37.0 30.3 C 37.8 31.9 39.5 32.5 39.5 33.0 C 39.6 34.9 36.8 32.0 38.8 34.1 C 40.0 35.5 36.3 33.0 37.2 34.0 C 37.3 33.2 38.3 34.7 38.8 35.9 C 38.5 36.3 37.9 36.5 37.2 35.8 C 38.2 35.6 33.0 32.1 34.3 34.3 C 41.1 40.6 31.3 32.7 32.2 34.9 C 36.0 38.4 28.1 35.4 28.9 33.8 C 29.0 34.0 30.6 36.0 30.6 36.0 M 37.5 34.9 C 37.6 34.9 37.7 34.9 37.8 34.9 C 38.4 35.0 38.3 35.1 38.0 35.2 C 37.7 35.3 36.9 35.3 37.5 34.9 M 36.6 33.9 C 38.5 35.1 34.2 33.1 36.3 33.6 C 36.3 33.6 36.4 33.9 36.6 33.9 M 36.7 28.8 C 37.7 29.4 36.1 29.1 36.7 28.8 M 38.8 28.7 C 39.7 27.9 39.0 30.1 38.8 28.7 M 38.1 15.1 C 43.3 13.5 35.3 18.1 38.1 15.1 M 37.1 23.8 C 37.8 25.4 34.9 23.3 37.1 23.8 M 38.4 24.4 C 39.2 25.3 37.2 24.4 38.4 24.4 M 38.1 17.6 C 38.2 17.5 38.2 17.5 38.1 17.6 C 38.1 17.6 38.1 17.6 38.1 17.6 Z M 38.3 13.6 C 38.2 13.6 38.2 13.6 38.3 13.6 C 38.3 13.6 38.3 13.6 38.3 13.6 Z M 38.7 21.4 C 37.5 22.7 38.2 19.4 38.7 21.4 C 38.7 21.4 38.7 21.4 38.7 21.4 Z M 46.1 10.4 C 46.2 10.5 46.2 10.5 46.1 10.4 C 46.1 10.4 46.1 10.4 46.1 10.4 Z M 38.4 37.2 C 38.4 37.3 38.4 37.3 38.4 37.2 C 38.4 37.2 38.4 37.2 38.4 37.2 Z M 31.4 35.3 C 32.0 36.0 30.1 34.7 31.4 35.3 C 31.4 35.3 31.4 35.3 31.4 35.3 Z M 30.9 41.1 C 30.9 41.2 30.9 41.2 30.9 41.1 C 30.9 41.1 30.9 41.1 30.9 41.1 Z M 39.0 39.9 C 39.0 40.0 39.0 40.0 39.0 39.9 C 39.0 39.9 39.0 39.9 39.0 39.9 Z M 36.4 36.1 C 33.0 33.3 39.1 36.9 36.4 36.1 C 36.4 36.1 36.4 36.1 36.4 36.1 Z M 45.8 22.7 C 44.5 22.7 46.2 21.0 45.8 22.7 C 45.8 22.7 45.8 22.7 45.8 22.7 Z M 40.0 28.9 C 39.3 28.5 40.3 28.3 40.0 28.9 C 40.0 28.9 40.0 28.9 40.0 28.9 Z M 36.1 29.4 C 35.5 28.9 36.4 29.0 36.1 29.4 C 36.1 29.4 36.1 29.4 36.1 29.4 Z M 30.9 34.5 C 30.9 34.3 30.9 34.3 30.9 34.5 C 30.9 34.5 30.9 34.5 30.9 34.5 Z M 34.5 36.6 C 31.1 34.0 37.9 38.1 34.5 36.6 C 34.5 36.6 34.5 36.6 34.5 36.6 Z M 32.8 37.4 C 34.3 38.4 30.7 36.9 32.8 37.4 M 37.4 41.4 C 38.3 40.3 39.3 46.2 37.4 41.4 C 37.4 41.4 37.4 41.4 37.4 41.4 Z M 45.4 39.3 C 45.5 39.3 45.5 39.3 45.4 39.3 C 45.4 39.3 45.4 39.3 45.4 39.3 Z M 37.6 33.6 C 37.7 32.5 38.3 34.9 37.6 33.6 C 37.6 33.6 37.6 33.6 37.6 33.6 Z M 26.8 34.2 C 28.2 34.3 26.3 34.8 26.8 34.2 C 26.8 34.2 26.8 34.2 26.8 34.2 Z M 42.8 31.6 C 42.4 28.8 44.2 34.1 42.8 31.6 C 42.8 31.6 42.8 31.6 42.8 31.6 Z M 39.7 22.0 C 39.8 21.9 39.8 21.9 39.7 22.0 C 39.7 22.0 39.7 22.0 39.7 22.0 Z M 38.6 20.7 C 38.7 20.6 38.7 20.6 38.6 20.7 C 38.6 20.7 38.6 20.7 38.6 20.7 Z M 41.3 13.1 C 41.4 12.9 41.4 12.9 41.3 13.1 C 41.3 13.1 41.3 13.1 41.3 13.1 Z M 37.3 19.8 C 37.4 19.8 37.4 19.8 37.3 19.8 C 37.3 19.8 37.3 19.8 37.3 19.8 Z M 38.0 15.8 C 38.1 15.6 38.1 15.6 38.0 15.8 C 38.0 15.8 38.0 15.8 38.0 15.8 Z M 35.7 17.7 C 35.8 17.5 35.8 17.5 35.7 17.7 C 35.7 17.7 35.7 17.7 35.7 17.7 Z M 47.3 26.0 C 47.4 25.9 47.4 25.9 47.3 26.0 C 47.3 26.0 47.3 26.0 47.3 26.0 Z M 32.5 33.6 C 32.8 33.8 32.8 33.8 32.5 33.6 C 32.5 33.6 32.5 33.6 32.5 33.6 Z M 39.1 15.5 C 39.1 15.4 39.1 15.4 39.1 15.5 C 39.1 15.5 39.1 15.5 39.1 15.5 Z M 41.2 26.0 C 43.4 26.3 38.2 26.3 41.1 25.7 C 41.2 25.7 40.8 26.0 41.2 26.0 M 44.9 24.7 C 45.0 24.8 45.0 24.8 44.9 24.7 C 44.9 24.7 44.9 24.7 44.9 24.7 Z M 46.3 31.9 C 46.4 32.1 46.4 32.1 46.3 31.9 C 46.3 31.9 46.3 31.9 46.3 31.9 Z M 36.9 20.6 C 35.6 21.0 37.9 19.3 37.0 20.7 M 45.3 10.3 C 44.0 11.4 46.3 7.9 45.4 10.5 M 25.8 35.0 C 26.2 36.0 24.6 34.5 25.8 35.0 M 47.5 34.1 C 48.5 34.9 46.9 35.3 47.5 34.1 M 44.6 29.6 C 43.3 29.4 45.6 28.2 44.7 29.9 M 45.2 15.0 C 45.2 14.9 45.2 14.9 45.2 15.0 C 45.2 15.0 45.2 15.0 45.2 15.0 Z M 37.9 32.0 C 37.9 32.0 37.9 32.0 37.9 32.0 C 37.9 32.0 37.9 32.0 37.9 32.0 Z M 40.6 27.7 C 38.8 28.0 41.7 26.9 40.6 27.7 M 40.9 36.1 C 38.7 35.3 41.6 34.6 40.9 36.1 M 45.8 6.3 C 43.2 10.2 47.2 3.6 45.8 6.3 M 39.3 18.2 C 36.7 20.2 40.7 16.6 39.3 18.2 M 39.0 31.7 C 37.6 30.9 39.8 30.9 39.0 31.7 M 28.8 34.8 C 27.3 34.6 29.6 33.8 28.8 34.8 M 45.3 19.5 C 45.4 19.4 45.4 19.4 45.3 19.5 C 45.3 19.5 45.3 19.5 45.3 19.5 Z M 41.2 44.7 C 41.3 44.8 41.3 44.8 41.2 44.7 C 41.2 44.7 41.2 44.7 41.2 44.7 Z M 37.3 12.3 C 37.4 12.1 37.4 12.1 37.3 12.3 C 37.3 12.3 37.3 12.3 37.3 12.3 Z M 40.5 18.6 C 40.7 18.5 40.7 18.5 40.5 18.6 C 40.5 18.6 40.5 18.6 40.5 18.6 Z M 37.0 14.6 C 37.1 14.4 37.1 14.4 37.0 14.6 C 37.0 14.6 37.0 14.6 37.0 14.6 Z M 42.6 22.9 C 42.6 22.8 42.6 22.8 42.6 22.9 C 42.6 22.9 42.6 22.9 42.6 22.9 Z M 35.9 23.7 C 36.0 23.6 36.0 23.6 35.9 23.7 C 35.9 23.7 35.9 23.7 35.9 23.7 Z M 38.8 27.9 C 38.8 27.9 38.8 27.9 38.8 27.9 C 38.8 27.9 38.8 27.9 38.8 27.9 Z M 36.5 22.1 C 36.1 20.2 38.7 23.1 36.5 22.1 C 36.5 22.1 36.5 22.1 36.5 22.1 Z M 43.1 27.1 C 43.1 27.1 43.1 27.1 43.1 27.1 C 43.1 27.1 43.1 27.1 43.1 27.1 Z M 38.4 26.4 C 36.5 24.6 41.6 26.2 38.4 26.4 M 36.8 31.9 C 35.8 30.7 38.4 32.9 36.8 31.9 M 45.1 42.6 C 45.3 42.8 45.3 42.8 45.1 42.6 C 45.1 42.6 45.1 42.6 45.1 42.6 Z M 44.8 41.3 C 44.9 41.2 44.9 41.2 44.8 41.3 C 44.8 41.3 44.8 41.3 44.8 41.3 Z M 36.4 32.9 C 36.5 32.9 36.5 32.9 36.4 32.9 C 36.4 32.9 36.4 32.9 36.4 32.9 Z M 47.3 43.5 C 47.4 43.4 47.4 43.4 47.3 43.5 C 47.3 43.5 47.3 43.5 47.3 43.5 Z M 36.1 24.4 C 36.2 24.4 36.2 24.4 36.1 24.4 C 36.1 24.4 36.1 24.4 36.1 24.4 Z M 36.0 14.4 C 36.1 14.4 36.1 14.4 36.0 14.4 C 36.0 14.4 36.0 14.4 36.0 14.4 Z M 34.1 41.7 C 34.3 41.8 34.3 41.8 34.1 41.7 C 34.1 41.7 34.1 41.7 34.1 41.7 Z M 38.7 23.4 C 38.8 23.3 38.8 23.3 38.7 23.4 C 38.7 23.4 38.7 23.4 38.7 23.4 Z M 42.3 42.3 C 42.5 42.3 42.5 42.3 42.3 42.3 C 42.3 42.3 42.3 42.3 42.3 42.3 Z M 38.2 24.2 C 38.2 24.1 38.2 24.1 38.2 24.2 C 38.2 24.2 38.2 24.2 38.2 24.2 Z M 45.9 20.0 C 45.9 20.0 45.9 20.0 45.9 20.0 C 45.9 20.0 45.9 20.0 45.9 20.0 Z M 47.3 15.2 C 47.4 15.1 47.4 15.1 47.3 15.2 C 47.3 15.2 47.3 15.2 47.3 15.2 Z M 41.2 21.0 C 41.3 21.0 41.3 21.0 41.2 21.0 C 41.2 21.0 41.2 21.0 41.2 21.0 Z M 38.6 39.4 C 30.7 37.2 42.5 38.4 38.6 39.4 M 41.8 19.9 C 41.3 24.2 39.2 17.6 41.8 19.9 C 41.1 19.6 41.7 19.8 41.8 19.9 M 35.3 13.2 C 36.8 12.3 38.0 11.3 39.1 10.3 C 40.3 9.3 41.3 8.4 42.1 7.3 C 42.5 6.9 42.8 6.4 43.1 6.0 C 43.3 4.7 38.8 9.6 42.6 5.5 C 45.6 4.7 47.0 -0.7 42.4 4.6 C 38.7 5.3 44.8 1.2 41.0 3.3 C 37.1 3.8 40.0 2.2 36.9 2.6 C 33.8 5.5 35.9 1.2 33.9 3.9 C 36.7 0.9 30.8 4.7 31.1 3.4 C 34.3 1.5 21.5 3.4 28.0 4.2 C 25.3 5.6 25.9 3.2 25.0 2.8 C 23.9 4.5 20.2 1.4 18.9 3.1 C 19.3 3.5 20.1 3.6 20.5 4.2 C 21.2 5.4 18.6 4.0 18.9 4.1 C 18.1 4.7 15.0 6.5 17.9 3.4 C 17.7 2.0 14.5 4.0 14.0 2.8 C 9.8 2.7 14.5 5.6 11.5 3.5 C 8.7 3.4 6.6 3.4 6.9 3.8 C 5.2 3.5 3.6 2.3 3.1 2.8 C 3.2 3.1 3.4 3.5 3.6 4.0 C 0.5 4.4 9.7 11.8 3.5 7.4 C 5.0 9.6 1.0 7.0 4.8 10.1 C 3.0 7.5 1.8 13.3 4.6 12.5 C 5.5 13.9 0.7 14.7 4.5 16.6 C 7.4 19.7 10.2 21.2 12.9 20.5 C 10.7 19.2 15.2 19.8 11.4 18.7 C 10.1 20.0 10.0 13.6 11.4 16.0 C 15.9 20.0 8.6 10.5 11.8 12.2 C 11.2 12.0 10.6 11.0 10.4 10.1 C 11.0 9.7 13.0 10.1 14.0 12.2 C 15.0 12.5 13.8 10.9 16.2 12.9 C 13.6 12.6 14.7 9.3 15.9 11.4 C 16.4 12.7 20.3 13.7 19.2 11.8 C 15.3 7.1 20.5 12.8 20.5 10.9 C 22.5 9.9 21.5 14.9 21.9 11.5 C 22.5 12.1 25.2 12.1 23.6 13.0 C 22.9 12.6 25.1 7.9 25.4 11.9 C 22.9 14.1 28.3 13.1 27.7 11.9 C 22.9 9.7 34.0 9.4 29.1 11.6 C 30.1 13.8 28.2 12.5 31.0 11.5 C 31.3 10.3 34.2 9.1 32.2 11.6 C 30.3 15.4 36.0 6.5 34.4 11.7 C 32.9 13.9 39.0 10.1 35.6 12.5 C 35.3 12.8 35.3 13.2 35.3 13.2 M 34.9 12.8 C 36.0 11.9 34.5 13.8 34.9 12.8 M 36.0 12.0 C 36.0 12.0 36.0 12.0 36.0 12.0 C 36.0 12.0 36.0 12.0 36.0 12.0 Z M 31.5 11.4 C 31.5 11.5 31.5 11.5 31.5 11.4 C 31.5 11.4 31.5 11.4 31.5 11.4 Z M 29.5 1.9 C 29.5 2.0 29.5 2.0 29.5 1.9 C 29.5 1.9 29.5 1.9 29.5 1.9 Z M 28.2 11.2 C 28.2 11.2 28.2 11.2 28.2 11.2 C 28.2 11.2 28.2 11.2 28.2 11.2 Z M 33.6 10.8 C 33.7 10.8 33.7 10.8 33.6 10.8 C 33.6 10.8 33.6 10.8 33.6 10.8 Z M 28.1 12.6 C 28.3 11.1 28.8 13.6 28.0 12.8 C 28.0 12.7 28.2 12.7 28.1 12.6 M 24.2 13.1 C 24.2 13.0 24.2 13.0 24.2 13.1 M 7.2 2.0 C 7.0 1.8 7.0 1.8 7.2 2.0 M 15.3 13.2 C 15.1 13.1 15.1 13.1 15.3 13.2 M 19.9 11.7 C 18.7 11.9 19.3 11.0 19.9 11.7 M 12.7 13.9 C 13.6 13.0 13.5 16.6 12.7 13.9 M 13.5 16.4 C 13.4 16.5 13.4 16.5 13.5 16.4 M 17.0 12.7 C 17.0 12.6 17.0 12.6 17.0 12.7 C 17.0 12.7 17.0 12.7 17.0 12.7 Z M 20.6 12.3 C 22.4 13.0 19.6 13.6 20.6 12.3 M 30.3 12.8 C 29.2 13.4 31.1 10.9 30.3 12.8 M 32.5 12.0 C 32.6 11.9 32.6 11.9 32.5 12.0 C 32.5 12.0 32.5 12.0 32.5 12.0 Z M 13.9 12.5 C 14.0 12.5 14.0 12.5 13.9 12.5 C 13.9 12.5 13.9 12.5 13.9 12.5 Z M 13.0 13.5 C 13.0 13.4 13.0 13.4 13.0 13.5 C 13.0 13.5 13.0 13.5 13.0 13.5 Z M 2.6 8.1 C 2.6 8.0 2.6 8.0 2.6 8.1 C 2.6 8.1 2.6 8.1 2.6 8.1 Z M 33.3 7.6 C 34.5 8.3 30.2 11.0 31.5 8.5 C 31.8 7.4 33.0 7.9 33.3 7.6 M 21.1 9.1 C 19.7 5.5 23.3 13.9 21.1 9.1 M 11.2 14.7 C 7.0 12.7 14.2 15.6 11.2 14.7 M 11.9 18.3 C 11.1 18.5 11.4 12.3 12.6 17.7 C 13.2 18.7 12.4 18.3 11.9 18.3 M 24.1 11.4 C 23.5 9.4 26.0 12.3 24.1 11.4 M 12.1 5.5 C 12.1 6.8 10.8 7.9 10.0 5.7 C 7.9 3.0 12.6 4.5 12.1 5.5 M 36.2 10.8 C 32.8 13.9 38.4 8.1 36.2 10.8 M 31.0 10.5 C 31.0 10.7 31.0 10.7 31.0 10.5 C 31.0 10.5 31.0 10.5 31.0 10.5 Z M 28.8 11.0 C 28.7 10.8 28.7 10.8 28.8 11.0 M 33.3 13.5 C 33.4 13.3 33.4 13.3 33.3 13.5 M 14.4 8.8 C 14.1 8.5 14.1 8.5 14.4 8.8 M 20.0 10.9 C 16.4 7.7 20.9 10.2 20.0 10.9 M 25.0 4.9 C 24.0 3.4 26.8 4.8 25.0 4.9 M 17.4 12.0 C 14.0 9.1 17.9 9.2 17.4 12.0 M 21.1 11.2 C 21.0 11.2 21.0 11.2 21.1 11.2 C 21.1 11.2 21.1 11.2 21.1 11.2 Z M 11.2 5.2 C 11.2 5.1 11.2 5.1 11.2 5.2 C 11.2 5.2 11.2 5.2 11.2 5.2 Z M 10.4 5.3 C 10.4 5.3 10.4 5.3 10.4 5.3 C 10.4 5.3 10.4 5.3 10.4 5.3 Z M 16.0 12.4 C 16.0 12.3 16.0 12.3 16.0 12.4 C 16.0 12.4 16.0 12.4 16.0 12.4 Z M 37.7 3.8 C 35.6 3.6 39.7 3.4 37.7 3.8 C 37.7 3.8 37.7 3.8 37.7 3.8 Z M 26.7 12.5 C 24.6 10.2 28.8 10.3 26.7 12.5 C 26.7 12.5 26.7 12.5 26.7 12.5 Z M 24.2 8.7 C 24.2 8.5 24.2 8.5 24.2 8.7 C 24.2 8.7 24.2 8.7 24.2 8.7 Z M 19.2 13.9 C 19.1 13.7 19.1 13.7 19.2 13.9 C 19.2 13.9 19.2 13.9 19.2 13.9 Z M 36.8 3.4 C 36.9 3.3 36.9 3.3 36.8 3.4 C 36.8 3.4 36.8 3.4 36.8 3.4 Z M 11.0 11.1 C 10.9 11.0 10.9 11.0 11.0 11.1 C 11.0 11.1 11.0 11.1 11.0 11.1 Z M 16.5 4.7 C 16.2 5.9 15.9 3.8 16.5 4.7 C 16.5 4.7 16.5 4.7 16.5 4.7 Z M 13.3 4.7 C 13.3 4.7 13.3 4.7 13.3 4.7 C 13.3 4.7 13.3 4.7 13.3 4.7 Z M 13.8 17.2 C 13.8 17.3 13.8 17.3 13.8 17.2 C 13.8 17.2 13.8 17.2 13.8 17.2 Z M 2.7 1.9 C 2.6 1.9 2.6 1.9 2.7 1.9 C 2.7 1.9 2.7 1.9 2.7 1.9 Z M 5.6 7.3 C 5.6 7.2 5.6 7.2 5.6 7.3 C 5.6 7.3 5.6 7.3 5.6 7.3 Z M 15.8 11.7 C 14.3 12.2 15.4 10.3 15.8 11.7 C 15.8 11.7 15.8 11.7 15.8 11.7 Z M 6.6 15.0 C 6.4 15.0 6.4 15.0 6.6 15.0 C 6.6 15.0 6.6 15.0 6.6 15.0 Z M 10.6 19.2 C 10.4 19.2 10.4 19.2 10.6 19.2 C 10.6 19.2 10.6 19.2 10.6 19.2 Z M 12.8 21.3 C 12.6 21.2 12.6 21.2 12.8 21.3 C 12.8 21.3 12.8 21.3 12.8 21.3 Z M 30.0 6.7 C 30.1 6.8 30.1 6.8 30.0 6.7 C 30.0 6.7 30.0 6.7 30.0 6.7 Z M 28.9 13.2 C 28.9 13.3 28.9 13.3 28.9 13.2 C 28.9 13.2 28.9 13.2 28.9 13.2 Z M 26.4 13.5 C 26.4 13.6 26.4 13.6 26.4 13.5 C 26.4 13.5 26.4 13.5 26.4 13.5 Z M 32.0 2.7 C 32.1 2.8 32.1 2.8 32.0 2.7 C 32.0 2.7 32.0 2.7 32.0 2.7 Z M 17.3 8.3 C 17.4 8.4 17.4 8.4 17.3 8.3 C 17.3 8.3 17.3 8.3 17.3 8.3 Z M 14.6 5.6 C 14.8 5.8 14.8 5.8 14.6 5.6 C 14.6 5.6 14.6 5.6 14.6 5.6 Z M 16.8 2.1 C 16.9 2.2 16.9 2.2 16.8 2.1 C 16.8 2.1 16.8 2.1 16.8 2.1 Z M 12.2 3.3 C 12.2 3.4 12.2 3.4 12.2 3.3 C 12.2 3.3 12.2 3.3 12.2 3.3 Z M 42.6 3.9 C 42.7 3.8 42.7 3.8 42.6 3.9 C 42.6 3.9 42.6 3.9 42.6 3.9 Z M 38.6 9.0 C 38.8 8.8 38.8 8.8 38.6 9.0 C 38.6 9.0 38.6 9.0 38.6 9.0 Z M 18.7 11.9 C 18.8 13.0 17.0 10.5 18.7 11.9 M 22.4 11.3 C 22.4 11.2 22.4 11.2 22.4 11.3 C 22.4 11.3 22.4 11.3 22.4 11.3 Z M 12.1 11.8 C 12.0 11.7 11.9 11.6 11.9 11.6 C 11.5 11.3 11.4 11.2 11.4 11.1 C 11.2 10.7 14.3 12.6 12.1 11.8 C 12.1 11.8 12.1 11.8 12.1 11.8 Z M 7.1 3.3 C 7.0 3.3 7.0 3.3 7.1 3.3 C 7.1 3.3 7.1 3.3 7.1 3.3 Z M 6.2 4.2 C 5.9 4.0 5.9 4.0 6.2 4.2 C 6.2 4.2 6.2 4.2 6.2 4.2 Z M 9.9 15.2 C 9.7 15.2 9.7 15.2 9.9 15.2 M 23.2 13.1 C 22.5 12.2 22.6 12.4 23.2 13.1 M 11.9 13.1 C 11.9 13.0 11.9 13.0 11.9 13.1 C 11.9 13.1 11.9 13.1 11.9 13.1 Z M 11.0 17.6 C 10.9 17.5 10.9 17.5 11.0 17.6 C 11.0 17.6 11.0 17.6 11.0 17.6 Z M 25.7 11.7 C 25.7 9.3 26.3 9.9 25.7 11.7 M 34.0 11.0 C 34.1 10.8 34.1 10.8 34.0 11.0 C 34.0 11.0 34.0 11.0 34.0 11.0 Z M 34.0 11.0 " fill="#FEFFFE"></path></g></svg>