<?xml version="1.0" encoding="UTF-8" standalone="no"?><svg xmlns="http://www.w3.org/2000/svg" xmlns:xlink="http://www.w3.org/1999/xlink" clip-rule="evenodd" stroke-miterlimit="10" viewBox="0 0 1920 1080"><desc>SVG generated by Keynote</desc><defs><pattern id="1DB289E0-2578-4AC8-8A82-F4071D30DEB0" patternUnits="userSpaceOnUse" width="800" height="800" viewBox="0 0 800 800"><image xlink:href="C7414E10450D3479A780546B54F744CA.jpeg" width="800.00" height="800.00"></image></pattern></defs><g transform="matrix(1.00, 0.00, -0.00, -1.00, 0.0, 1080.0)"><g><clipPath id="clip0x608000caaa40"><path d="M 0.0 1080.0 L 1920.0 1080.0 L 1920.0 0.0 L 0.0 0.0 Z M 0.0 1080.0 "></path></clipPath><g clip-path="url(#clip0x608000caaa40)"><path d="M 0.0 0.0 L 1920.0 0.0 L 1920.0 1080.0 L 0.0 1080.0 Z M 0.0 0.0 " fill="url(#1DB289E0-2578-4AC8-8A82-F4071D30DEB0)"></path></g></g><text xml:space="preserve" font-family="Chalkduster,Chalkduster" font-size="100.0" fill="#FEFFFE" transform="matrix(1.00, 0.00, -0.00, -1.00, 764.8, 543.3)">S</text><text xml:space="preserve" font-family="Chalkduster,Chalkduster" font-size="100.0" fill="#FEFFFE" transform="matrix(1.00, 0.00, -0.00, -1.00, 814.5, 543.3)">i</text><text xml:space="preserve" font-family="Chalkduster,Chalkduster" font-size="100.0" fill="#FEFFFE" transform="matrix(1.00, 0.00, -0.00, -1.00, 854.0, 543.3)">R</text><text xml:space="preserve" font-family="Chalkduster,Chalkduster" font-size="100.0" fill="#FEFFFE" transform="matrix(1.00, 0.00, -0.00, -1.00, 931.8, 543.3)">P</text><text xml:space="preserve" font-family="Chalkduster,Chalkduster" font-size="100.0" fill="#FEFFFE" transform="matrix(1.00, 0.00, -0.00, -1.00, 1002.8, 543.3)">E</text><text xml:space="preserve" font-family="Chalkduster,Chalkduster" font-size="100.0" fill="#FEFFFE" transform="matrix(1.00, 0.00, -0.00, -1.00, 1074.3, 543.3)">C</text><text xml:space="preserve" font-family="Chalkduster,Chalkduster" font-size="50.0" fill="#FEFFFE" transform="matrix(1.00, 0.00, -0.00, -1.00, 446.1, 448.6)">S</text><text xml:space="preserve" font-family="Chalkduster,Chalkduster" font-size="50.0" fill="#FEFFFE" transform="matrix(1.00, 0.00, -0.00, -1.00, 471.0, 448.6)">i</text><text xml:space="preserve" font-family="Chalkduster,Chalkduster" font-size="50.0" fill="#FEFFFE" transform="matrix(1.00, 0.00, -0.00, -1.00, 490.7, 448.6)">s</text><text xml:space="preserve" font-family="Chalkduster,Chalkduster" font-size="50.0" fill="#FEFFFE" transform="matrix(1.00, 0.00, -0.00, -1.00, 517.5, 448.6)">t</text><text xml:space="preserve" font-family="Chalkduster,Chalkduster" font-size="50.0" fill="#FEFFFE" transform="matrix(1.00, 0.00, -0.00, -1.00, 539.8, 448.6)">e</text><text xml:space="preserve" font-family="Chalkduster,Chalkduster" font-size="50.0" fill="#FEFFFE" transform="matrix(1.00, 0.00, -0.00, -1.00, 570.9, 448.6)">m</text><text xml:space="preserve" font-family="Chalkduster,Chalkduster" font-size="50.0" fill="#FEFFFE" transform="matrix(1.00, 0.00, -0.00, -1.00, 621.5, 448.6)">a</text><text xml:space="preserve" font-family="Chalkduster,Chalkduster" font-size="50.0" fill="#FEFFFE" transform="matrix(1.00, 0.00, -0.00, -1.00, 655.9, 448.6)"> </text><text xml:space="preserve" font-family="Chalkduster,Chalkduster" font-size="50.0" fill="#FEFFFE" transform="matrix(1.00, 0.00, -0.00, -1.00, 680.8, 448.6)">i</text><text xml:space="preserve" font-family="Chalkduster,Chalkduster" font-size="50.0" fill="#FEFFFE" transform="matrix(1.00, 0.00, -0.00, -1.00, 700.5, 448.6)">n</text><text xml:space="preserve" font-family="Chalkduster,Chalkduster" font-size="50.0" fill="#FEFFFE" transform="matrix(1.00, 0.00, -0.00, -1.00, 735.3, 448.6)">t</text><text xml:space="preserve" font-family="Chalkduster,Chalkduster" font-size="50.0" fill="#FEFFFE" transform="matrix(1.00, 0.00, -0.00, -1.00, 757.6, 448.6)">e</text><text xml:space="preserve" font-family="Chalkduster,Chalkduster" font-size="50.0" fill="#FEFFFE" transform="matrix(1.00, 0.00, -0.00, -1.00, 787.1, 448.6)">g</text><text xml:space="preserve" font-family="Chalkduster,Chalkduster" font-size="50.0" fill="#FEFFFE" transform="matrix(1.00, 0.00, -0.00, -1.00, 822.6, 448.6)">r</text><text xml:space="preserve" font-family="Chalkduster,Chalkduster" font-size="50.0" fill="#FEFFFE" transform="matrix(1.00, 0.00, -0.00, -1.00, 848.9, 448.6)">a</text><text xml:space="preserve" font-family="Chalkduster,Chalkduster" font-size="50.0" fill="#FEFFFE" transform="matrix(1.00, 0.00, -0.00, -1.00, 881.3, 448.6)">l</text><text xml:space="preserve" font-family="Chalkduster,Chalkduster" font-size="50.0" fill="#FEFFFE" transform="matrix(1.00, 0.00, -0.00, -1.00, 904.8, 448.6)"> </text><text xml:space="preserve" font-family="Chalkduster,Chalkduster" font-size="50.0" fill="#FEFFFE" transform="matrix(1.00, 0.00, -0.00, -1.00, 929.6, 448.6)">p</text><text xml:space="preserve" font-family="Chalkduster,Chalkduster" font-size="50.0" fill="#FEFFFE" transform="matrix(1.00, 0.00, -0.00, -1.00, 960.5, 448.6)">a</text><text xml:space="preserve" font-family="Chalkduster,Chalkduster" font-size="50.0" fill="#FEFFFE" transform="matrix(1.00, 0.00, -0.00, -1.00, 992.3, 448.6)">r</text><text xml:space="preserve" font-family="Chalkduster,Chalkduster" font-size="50.0" fill="#FEFFFE" transform="matrix(1.00, 0.00, -0.00, -1.00, 1018.7, 448.6)">a</text><text xml:space="preserve" font-family="Chalkduster,Chalkduster" font-size="50.0" fill="#FEFFFE" transform="matrix(1.00, 0.00, -0.00, -1.00, 1053.1, 448.6)"> </text><text xml:space="preserve" font-family="Chalkduster,Chalkduster" font-size="50.0" fill="#FEFFFE" transform="matrix(1.00, 0.00, -0.00, -1.00, 1078.0, 448.6)">e</text><text xml:space="preserve" font-family="Chalkduster,Chalkduster" font-size="50.0" fill="#FEFFFE" transform="matrix(1.00, 0.00, -0.00, -1.00, 1109.0, 448.6)">l</text><text xml:space="preserve" font-family="Chalkduster,Chalkduster" font-size="50.0" fill="#FEFFFE" transform="matrix(1.00, 0.00, -0.00, -1.00, 1132.4, 448.6)"> </text><text xml:space="preserve" font-family="Chalkduster,Chalkduster" font-size="50.0" fill="#FEFFFE" transform="matrix(1.00, 0.00, -0.00, -1.00, 1157.3, 448.6)">r</text><text xml:space="preserve" font-family="Chalkduster,Chalkduster" font-size="50.0" fill="#FEFFFE" transform="matrix(1.00, 0.00, -0.00, -1.00, 1182.6, 448.6)">e</text><text xml:space="preserve" font-family="Chalkduster,Chalkduster" font-size="50.0" fill="#FEFFFE" transform="matrix(1.00, 0.00, -0.00, -1.00, 1212.1, 448.6)">g</text><text xml:space="preserve" font-family="Chalkduster,Chalkduster" font-size="50.0" fill="#FEFFFE" transform="matrix(1.00, 0.00, -0.00, -1.00, 1247.9, 448.6)">i</text><text xml:space="preserve" font-family="Chalkduster,Chalkduster" font-size="50.0" fill="#FEFFFE" transform="matrix(1.00, 0.00, -0.00, -1.00, 1267.7, 448.6)">s</text><text xml:space="preserve" font-family="Chalkduster,Chalkduster" font-size="50.0" fill="#FEFFFE" transform="matrix(1.00, 0.00, -0.00, -1.00, 1294.5, 448.6)">t</text><text xml:space="preserve" font-family="Chalkduster,Chalkduster" font-size="50.0" fill="#FEFFFE" transform="matrix(1.00, 0.00, -0.00, -1.00, 1317.3, 448.6)">r</text><text xml:space="preserve" font-family="Chalkduster,Chalkduster" font-size="50.0" fill="#FEFFFE" transform="matrix(1.00, 0.00, -0.00, -1.00, 1342.9, 448.6)">o</text><text xml:space="preserve" font-family="Chalkduster,Chalkduster" font-size="50.0" fill="#FEFFFE" transform="matrix(1.00, 0.00, -0.00, -1.00, 1378.8, 448.6)"> </text><text xml:space="preserve" font-family="Chalkduster,Chalkduster" font-size="50.0" fill="#FEFFFE" transform="matrix(1.00, 0.00, -0.00, -1.00, 1403.7, 448.6)">d</text><text xml:space="preserve" font-family="Chalkduster,Chalkduster" font-size="50.0" fill="#FEFFFE" transform="matrix(1.00, 0.00, -0.00, -1.00, 1442.8, 448.6)">e</text><text xml:space="preserve" font-family="Chalkduster,Chalkduster" font-size="50.0" fill="#FEFFFE" transform="matrix(1.00, 0.00, -0.00, -1.00, 1473.8, 448.6)"> </text><text xml:space="preserve" font-family="Chalkduster,Chalkduster" font-size="50.0" fill="#FEFFFE" transform="matrix(1.00, 0.00, -0.00, -1.00, 416.5, 384.6)">E</text><text xml:space="preserve" font-family="Chalkduster,Chalkduster" font-size="50.0" fill="#FEFFFE" transform="matrix(1.00, 0.00, -0.00, -1.00, 453.5, 384.6)">n</text><text xml:space="preserve" font-family="Chalkduster,Chalkduster" font-size="50.0" fill="#FEFFFE" transform="matrix(1.00, 0.00, -0.00, -1.00, 488.3, 384.6)">t</text><text xml:space="preserve" font-family="Chalkduster,Chalkduster" font-size="50.0" fill="#FEFFFE" transform="matrix(1.00, 0.00, -0.00, -1.00, 511.4, 384.6)">i</text><text xml:space="preserve" font-family="Chalkduster,Chalkduster" font-size="50.0" fill="#FEFFFE" transform="matrix(1.00, 0.00, -0.00, -1.00, 532.9, 384.6)">d</text><text xml:space="preserve" font-family="Chalkduster,Chalkduster" font-size="50.0" fill="#FEFFFE" transform="matrix(1.00, 0.00, -0.00, -1.00, 572.0, 384.6)">a</text><text xml:space="preserve" font-family="Chalkduster,Chalkduster" font-size="50.0" fill="#FEFFFE" transform="matrix(1.00, 0.00, -0.00, -1.00, 604.9, 384.6)">d</text><text xml:space="preserve" font-family="Chalkduster,Chalkduster" font-size="50.0" fill="#FEFFFE" transform="matrix(1.00, 0.00, -0.00, -1.00, 643.9, 384.6)">e</text><text xml:space="preserve" font-family="Chalkduster,Chalkduster" font-size="50.0" fill="#FEFFFE" transform="matrix(1.00, 0.00, -0.00, -1.00, 676.1, 384.6)">s</text><text xml:space="preserve" font-family="Chalkduster,Chalkduster" font-size="50.0" fill="#FEFFFE" transform="matrix(1.00, 0.00, -0.00, -1.00, 699.4, 384.6)">,</text><text xml:space="preserve" font-family="Chalkduster,Chalkduster" font-size="50.0" fill="#FEFFFE" transform="matrix(1.00, 0.00, -0.00, -1.00, 714.9, 384.6)"> </text><text xml:space="preserve" font-family="Chalkduster,Chalkduster" font-size="50.0" fill="#FEFFFE" transform="matrix(1.00, 0.00, -0.00, -1.00, 739.8, 384.6)">P</text><text xml:space="preserve" font-family="Chalkduster,Chalkduster" font-size="50.0" fill="#FEFFFE" transform="matrix(1.00, 0.00, -0.00, -1.00, 774.5, 384.6)">r</text><text xml:space="preserve" font-family="Chalkduster,Chalkduster" font-size="50.0" fill="#FEFFFE" transform="matrix(1.00, 0.00, -0.00, -1.00, 800.2, 384.6)">o</text><text xml:space="preserve" font-family="Chalkduster,Chalkduster" font-size="50.0" fill="#FEFFFE" transform="matrix(1.00, 0.00, -0.00, -1.00, 837.6, 384.6)">v</text><text xml:space="preserve" font-family="Chalkduster,Chalkduster" font-size="50.0" fill="#FEFFFE" transform="matrix(1.00, 0.00, -0.00, -1.00, 868.4, 384.6)">e</text><text xml:space="preserve" font-family="Chalkduster,Chalkduster" font-size="50.0" fill="#FEFFFE" transform="matrix(1.00, 0.00, -0.00, -1.00, 899.4, 384.6)">e</text><text xml:space="preserve" font-family="Chalkduster,Chalkduster" font-size="50.0" fill="#FEFFFE" transform="matrix(1.00, 0.00, -0.00, -1.00, 931.9, 384.6)">d</text><text xml:space="preserve" font-family="Chalkduster,Chalkduster" font-size="50.0" fill="#FEFFFE" transform="matrix(1.00, 0.00, -0.00, -1.00, 971.0, 384.6)">o</text><text xml:space="preserve" font-family="Chalkduster,Chalkduster" font-size="50.0" fill="#FEFFFE" transform="matrix(1.00, 0.00, -0.00, -1.00, 1007.4, 384.6)">r</text><text xml:space="preserve" font-family="Chalkduster,Chalkduster" font-size="50.0" fill="#FEFFFE" transform="matrix(1.00, 0.00, -0.00, -1.00, 1032.7, 384.6)">e</text><text xml:space="preserve" font-family="Chalkduster,Chalkduster" font-size="50.0" fill="#FEFFFE" transform="matrix(1.00, 0.00, -0.00, -1.00, 1064.8, 384.6)">s</text><text xml:space="preserve" font-family="Chalkduster,Chalkduster" font-size="50.0" fill="#FEFFFE" transform="matrix(1.00, 0.00, -0.00, -1.00, 1090.1, 384.6)"> </text><text xml:space="preserve" font-family="Chalkduster,Chalkduster" font-size="50.0" fill="#FEFFFE" transform="matrix(1.00, 0.00, -0.00, -1.00, 1115.0, 384.6)">y</text><text xml:space="preserve" font-family="Chalkduster,Chalkduster" font-size="50.0" fill="#FEFFFE" transform="matrix(1.00, 0.00, -0.00, -1.00, 1145.4, 384.6)"> </text><text xml:space="preserve" font-family="Chalkduster,Chalkduster" font-size="50.0" fill="#FEFFFE" transform="matrix(1.00, 0.00, -0.00, -1.00, 1170.3, 384.6)">C</text><text xml:space="preserve" font-family="Chalkduster,Chalkduster" font-size="50.0" fill="#FEFFFE" transform="matrix(1.00, 0.00, -0.00, -1.00, 1210.8, 384.6)">o</text><text xml:space="preserve" font-family="Chalkduster,Chalkduster" font-size="50.0" fill="#FEFFFE" transform="matrix(1.00, 0.00, -0.00, -1.00, 1248.0, 384.6)">n</text><text xml:space="preserve" font-family="Chalkduster,Chalkduster" font-size="50.0" fill="#FEFFFE" transform="matrix(1.00, 0.00, -0.00, -1.00, 1284.7, 384.6)">s</text><text xml:space="preserve" font-family="Chalkduster,Chalkduster" font-size="50.0" fill="#FEFFFE" transform="matrix(1.00, 0.00, -0.00, -1.00, 1309.9, 384.6)">u</text><text xml:space="preserve" font-family="Chalkduster,Chalkduster" font-size="50.0" fill="#FEFFFE" transform="matrix(1.00, 0.00, -0.00, -1.00, 1345.6, 384.6)">l</text><text xml:space="preserve" font-family="Chalkduster,Chalkduster" font-size="50.0" fill="#FEFFFE" transform="matrix(1.00, 0.00, -0.00, -1.00, 1363.8, 384.6)">t</text><text xml:space="preserve" font-family="Chalkduster,Chalkduster" font-size="50.0" fill="#FEFFFE" transform="matrix(1.00, 0.00, -0.00, -1.00, 1384.5, 384.6)">o</text><text xml:space="preserve" font-family="Chalkduster,Chalkduster" font-size="50.0" fill="#FEFFFE" transform="matrix(1.00, 0.00, -0.00, -1.00, 1420.9, 384.6)">r</text><text xml:space="preserve" font-family="Chalkduster,Chalkduster" font-size="50.0" fill="#FEFFFE" transform="matrix(1.00, 0.00, -0.00, -1.00, 1446.2, 384.6)">e</text><text xml:space="preserve" font-family="Chalkduster,Chalkduster" font-size="50.0" fill="#FEFFFE" transform="matrix(1.00, 0.00, -0.00, -1.00, 1478.3, 384.6)">s</text><text xml:space="preserve" font-family="Chalkduster,Chalkduster" font-size="93.5" fill="#FEFFFE" transform="matrix(1.00, 0.00, -0.00, -1.00, 454.0, 951.4)">A</text><text xml:space="preserve" font-family="Chalkduster,Chalkduster" font-size="93.5" fill="#FEFFFE" transform="matrix(1.00, 0.00, -0.00, -1.00, 523.1, 951.4)">g</text><text xml:space="preserve" font-family="Chalkduster,Chalkduster" font-size="93.5" fill="#FEFFFE" transform="matrix(1.00, 0.00, -0.00, -1.00, 588.2, 951.4)">e</text><text xml:space="preserve" font-family="Chalkduster,Chalkduster" font-size="93.5" fill="#FEFFFE" transform="matrix(1.00, 0.00, -0.00, -1.00, 647.2, 951.4)">n</text><text xml:space="preserve" font-family="Chalkduster,Chalkduster" font-size="93.5" fill="#FEFFFE" transform="matrix(1.00, 0.00, -0.00, -1.00, 715.7, 951.4)">c</text><text xml:space="preserve" font-family="Chalkduster,Chalkduster" font-size="93.5" fill="#FEFFFE" transform="matrix(1.00, 0.00, -0.00, -1.00, 774.4, 951.4)">i</text><text xml:space="preserve" font-family="Chalkduster,Chalkduster" font-size="93.5" fill="#FEFFFE" transform="matrix(1.00, 0.00, -0.00, -1.00, 812.3, 951.4)">a</text><text xml:space="preserve" font-family="Chalkduster,Chalkduster" font-size="93.5" fill="#FEFFFE" transform="matrix(1.00, 0.00, -0.00, -1.00, 876.7, 951.4)"> </text><text xml:space="preserve" font-family="Chalkduster,Chalkduster" font-size="93.5" fill="#FEFFFE" transform="matrix(1.00, 0.00, -0.00, -1.00, 923.2, 951.4)">E</text><text xml:space="preserve" font-family="Chalkduster,Chalkduster" font-size="93.5" fill="#FEFFFE" transform="matrix(1.00, 0.00, -0.00, -1.00, 992.3, 951.4)">s</text><text xml:space="preserve" font-family="Chalkduster,Chalkduster" font-size="93.5" fill="#FEFFFE" transform="matrix(1.00, 0.00, -0.00, -1.00, 1042.4, 951.4)">t</text><text xml:space="preserve" font-family="Chalkduster,Chalkduster" font-size="93.5" fill="#FEFFFE" transform="matrix(1.00, 0.00, -0.00, -1.00, 1084.1, 951.4)">a</text><text xml:space="preserve" font-family="Chalkduster,Chalkduster" font-size="93.5" fill="#FEFFFE" transform="matrix(1.00, 0.00, -0.00, -1.00, 1142.2, 951.4)">t</text><text xml:space="preserve" font-family="Chalkduster,Chalkduster" font-size="93.5" fill="#FEFFFE" transform="matrix(1.00, 0.00, -0.00, -1.00, 1183.9, 951.4)">a</text><text xml:space="preserve" font-family="Chalkduster,Chalkduster" font-size="93.5" fill="#FEFFFE" transform="matrix(1.00, 0.00, -0.00, -1.00, 1244.5, 951.4)">l</text><text xml:space="preserve" font-family="Chalkduster,Chalkduster" font-size="93.5" fill="#FEFFFE" transform="matrix(1.00, 0.00, -0.00, -1.00, 1288.3, 951.4)"> </text><text xml:space="preserve" font-family="Chalkduster,Chalkduster" font-size="93.5" fill="#FEFFFE" transform="matrix(1.00, 0.00, -0.00, -1.00, 1334.8, 951.4)">d</text><text xml:space="preserve" font-family="Chalkduster,Chalkduster" font-size="93.5" fill="#FEFFFE" transform="matrix(1.00, 0.00, -0.00, -1.00, 1407.8, 951.4)">e</text><text xml:space="preserve" font-family="Chalkduster,Chalkduster" font-size="93.5" fill="#FEFFFE" transform="matrix(1.00, 0.00, -0.00, -1.00, 1465.8, 951.4)"> </text><text xml:space="preserve" font-family="Chalkduster,Chalkduster" font-size="93.5" fill="#FEFFFE" transform="matrix(1.00, 0.00, -0.00, -1.00, 726.7, 832.4)">V</text><text xml:space="preserve" font-family="Chalkduster,Chalkduster" font-size="93.5" fill="#FEFFFE" transform="matrix(1.00, 0.00, -0.00, -1.00, 796.2, 832.4)">i</text><text xml:space="preserve" font-family="Chalkduster,Chalkduster" font-size="93.5" fill="#FEFFFE" transform="matrix(1.00, 0.00, -0.00, -1.00, 833.2, 832.4)">v</text><text xml:space="preserve" font-family="Chalkduster,Chalkduster" font-size="93.5" fill="#FEFFFE" transform="matrix(1.00, 0.00, -0.00, -1.00, 891.3, 832.4)">i</text><text xml:space="preserve" font-family="Chalkduster,Chalkduster" font-size="93.5" fill="#FEFFFE" transform="matrix(1.00, 0.00, -0.00, -1.00, 928.3, 832.4)">e</text><text xml:space="preserve" font-family="Chalkduster,Chalkduster" font-size="93.5" fill="#FEFFFE" transform="matrix(1.00, 0.00, -0.00, -1.00, 987.2, 832.4)">n</text><text xml:space="preserve" font-family="Chalkduster,Chalkduster" font-size="93.5" fill="#FEFFFE" transform="matrix(1.00, 0.00, -0.00, -1.00, 1055.7, 832.4)">d</text><text xml:space="preserve" font-family="Chalkduster,Chalkduster" font-size="93.5" fill="#FEFFFE" transform="matrix(1.00, 0.00, -0.00, -1.00, 1128.8, 832.4)">a</text><text xml:space="preserve" font-family="Chalkduster,Chalkduster" font-size="93.5" fill="#FEFFFE" transform="matrix(1.00, 0.00, -0.00, -1.00, 1193.2, 832.4)"> </text></g></svg>